<svg width="1535" height="655" viewBox="0 0 1535 655" fill="none" xmlns="http://www.w3.org/2000/svg">
<rect width="1535" height="655" fill="#684E38"/>
<rect x="60" y="80" width="1336" height="92" rx="46" fill="#B7A35C"/>
<path d="M645.844 137.105C645.75 137.012 645.703 136.836 645.703 136.578C645.703 136.25 645.75 136.086 645.844 136.086C646.125 136.086 646.488 136.027 646.934 135.91C647.379 135.793 647.684 135.629 647.848 135.418C648.105 135.09 648.363 134.656 648.621 134.117C648.902 133.578 649.195 132.91 649.5 132.113L655.617 116.398C655.758 116.047 655.84 115.801 655.863 115.66C655.91 115.52 655.945 115.402 655.969 115.309C656.016 115.191 656.098 115.004 656.215 114.746C656.379 114.418 656.543 114.16 656.707 113.973C656.871 113.785 657.141 113.691 657.516 113.691L657.832 113.797L664.863 132.359C665.074 132.898 665.262 133.379 665.426 133.801C665.613 134.223 665.766 134.586 665.883 134.891C665.977 135.125 666.176 135.336 666.48 135.523C666.809 135.688 667.137 135.828 667.465 135.945C667.816 136.039 668.086 136.086 668.273 136.086C668.367 136.086 668.414 136.309 668.414 136.754C668.414 136.801 668.402 136.859 668.379 136.93C668.379 136.977 668.367 137.035 668.344 137.105C667.172 137.059 666.258 137.023 665.602 137C664.969 136.953 664.594 136.93 664.477 136.93L660.398 137.105C660.305 137.012 660.258 136.824 660.258 136.543C660.281 136.238 660.34 136.086 660.434 136.086C660.715 136.086 661.066 136.027 661.488 135.91C661.91 135.793 662.156 135.641 662.227 135.453C662.25 135.359 662.262 135.266 662.262 135.172C662.285 135.078 662.297 134.984 662.297 134.891C662.297 134.586 662.262 134.234 662.191 133.836C662.121 133.414 662.039 133.086 661.945 132.852L660.363 128.492C660.293 128.398 660.223 128.352 660.152 128.352C659.238 128.281 658.348 128.246 657.48 128.246C656.871 128.246 656.191 128.27 655.441 128.316C654.715 128.34 653.906 128.375 653.016 128.422L652.84 128.527L651.328 132.395C651.094 132.98 650.93 133.473 650.836 133.871C650.766 134.27 650.73 134.586 650.73 134.82C650.73 135.148 650.824 135.383 651.012 135.523C651.223 135.688 651.562 135.828 652.031 135.945C652.5 136.039 652.84 136.086 653.051 136.086C653.121 136.086 653.156 136.227 653.156 136.508C653.18 136.789 653.168 136.988 653.121 137.105L649.5 136.93C648.844 136.883 648.199 136.895 647.566 136.965C646.957 137.012 646.383 137.059 645.844 137.105ZM656.25 126.559C657.305 126.559 658.371 126.523 659.449 126.453L659.555 126.277L656.707 118.508L653.684 126.348C653.684 126.441 653.707 126.488 653.754 126.488C654.363 126.512 654.867 126.535 655.266 126.559C655.688 126.559 656.016 126.559 656.25 126.559ZM680.262 137.211C680.121 137.211 680.051 137.012 680.051 136.613V136.191C680.051 136.074 680.004 136.027 679.91 136.051C678.621 136.777 677.379 137.141 676.184 137.141C674.895 137.141 673.723 136.824 672.668 136.191C671.637 135.535 670.816 134.68 670.207 133.625C669.621 132.547 669.328 131.375 669.328 130.109C669.328 128.984 669.539 127.906 669.961 126.875C670.406 125.844 670.992 124.93 671.719 124.133C672.469 123.312 673.312 122.68 674.25 122.234C675.188 121.766 676.16 121.531 677.168 121.531C678.176 121.531 679.055 121.73 679.805 122.129C679.969 122.129 680.051 121.918 680.051 121.496V117.699C680.051 116.902 679.98 116.152 679.84 115.449C679.746 115.074 679.148 114.887 678.047 114.887H677.73C677.59 114.887 677.52 114.758 677.52 114.5C677.52 114.125 677.59 113.938 677.73 113.938C679.043 113.82 680.074 113.645 680.824 113.41C681.598 113.176 682.148 112.941 682.477 112.707L682.617 112.602H682.688C682.781 112.602 682.875 112.672 682.969 112.812C683.062 112.93 683.121 113.047 683.145 113.164C682.887 113.938 682.758 114.957 682.758 116.223V132.043C682.758 133.145 682.828 134.035 682.969 134.715C683.039 134.949 683.238 135.102 683.566 135.172C683.918 135.219 684.281 135.266 684.656 135.312L684.973 135.348C685.043 135.371 685.078 135.512 685.078 135.77C685.078 136.121 685.008 136.297 684.867 136.297C684.094 136.344 683.297 136.473 682.477 136.684C681.656 136.871 681.023 137.023 680.578 137.141L680.262 137.211ZM677.52 135.418C678.316 135.418 678.938 135.242 679.383 134.891C679.828 134.516 680.051 134.023 680.051 133.414V125.047C680.051 124.555 679.781 124.098 679.242 123.676C678.727 123.23 677.883 123.008 676.711 123.008C675.82 123.008 675.047 123.289 674.391 123.852C673.734 124.414 673.23 125.164 672.879 126.102C672.527 127.016 672.352 128.012 672.352 129.09C672.352 130.215 672.551 131.258 672.949 132.219C673.371 133.18 673.969 133.953 674.742 134.539C675.516 135.125 676.441 135.418 677.52 135.418ZM697.734 137.211C697.594 137.211 697.523 137.012 697.523 136.613V136.191C697.523 136.074 697.477 136.027 697.383 136.051C696.094 136.777 694.852 137.141 693.656 137.141C692.367 137.141 691.195 136.824 690.141 136.191C689.109 135.535 688.289 134.68 687.68 133.625C687.094 132.547 686.801 131.375 686.801 130.109C686.801 128.984 687.012 127.906 687.434 126.875C687.879 125.844 688.465 124.93 689.191 124.133C689.941 123.312 690.785 122.68 691.723 122.234C692.66 121.766 693.633 121.531 694.641 121.531C695.648 121.531 696.527 121.73 697.277 122.129C697.441 122.129 697.523 121.918 697.523 121.496V117.699C697.523 116.902 697.453 116.152 697.312 115.449C697.219 115.074 696.621 114.887 695.52 114.887H695.203C695.062 114.887 694.992 114.758 694.992 114.5C694.992 114.125 695.062 113.938 695.203 113.938C696.516 113.82 697.547 113.645 698.297 113.41C699.07 113.176 699.621 112.941 699.949 112.707L700.09 112.602H700.16C700.254 112.602 700.348 112.672 700.441 112.812C700.535 112.93 700.594 113.047 700.617 113.164C700.359 113.938 700.23 114.957 700.23 116.223V132.043C700.23 133.145 700.301 134.035 700.441 134.715C700.512 134.949 700.711 135.102 701.039 135.172C701.391 135.219 701.754 135.266 702.129 135.312L702.445 135.348C702.516 135.371 702.551 135.512 702.551 135.77C702.551 136.121 702.48 136.297 702.34 136.297C701.566 136.344 700.77 136.473 699.949 136.684C699.129 136.871 698.496 137.023 698.051 137.141L697.734 137.211ZM694.992 135.418C695.789 135.418 696.41 135.242 696.855 134.891C697.301 134.516 697.523 134.023 697.523 133.414V125.047C697.523 124.555 697.254 124.098 696.715 123.676C696.199 123.23 695.355 123.008 694.184 123.008C693.293 123.008 692.52 123.289 691.863 123.852C691.207 124.414 690.703 125.164 690.352 126.102C690 127.016 689.824 128.012 689.824 129.09C689.824 130.215 690.023 131.258 690.422 132.219C690.844 133.18 691.441 133.953 692.215 134.539C692.988 135.125 693.914 135.418 694.992 135.418ZM717.914 137.246C716.742 137.246 715.758 136.859 714.961 136.086C714.188 135.312 713.801 134.211 713.801 132.781V123.852H711.762C711.645 123.852 711.586 123.605 711.586 123.113C711.586 122.973 711.598 122.891 711.621 122.867C712.324 122.539 713.062 121.918 713.836 121.004C714.375 120.371 714.773 119.82 715.031 119.352C715.312 118.883 715.453 118.602 715.453 118.508C716.156 118.508 716.508 118.566 716.508 118.684V122.164L719.285 122.199H721.254C721.441 122.199 721.535 122.305 721.535 122.516C721.535 122.961 721.418 123.406 721.184 123.852H716.508V132.465C716.508 133.402 716.742 134.152 717.211 134.715C717.703 135.277 718.336 135.559 719.109 135.559C719.836 135.559 720.562 135.336 721.289 134.891C721.359 134.844 721.465 134.949 721.605 135.207C721.746 135.441 721.805 135.57 721.781 135.594C721.43 135.969 720.891 136.344 720.164 136.719C719.438 137.07 718.688 137.246 717.914 137.246ZM731.027 137.246C729.621 137.246 728.332 136.895 727.16 136.191C725.988 135.488 725.051 134.539 724.348 133.344C723.668 132.148 723.328 130.836 723.328 129.406C723.328 127.953 723.656 126.641 724.312 125.469C724.992 124.297 725.906 123.371 727.055 122.691C728.203 121.988 729.504 121.637 730.957 121.637C732.363 121.637 733.641 121.988 734.789 122.691C735.961 123.395 736.887 124.332 737.566 125.504C738.27 126.676 738.621 127.977 738.621 129.406C738.621 130.836 738.281 132.148 737.602 133.344C736.922 134.539 736.008 135.488 734.859 136.191C733.734 136.895 732.457 137.246 731.027 137.246ZM731.344 135.875C732.188 135.875 732.926 135.605 733.559 135.066C734.191 134.527 734.684 133.801 735.035 132.887C735.41 131.973 735.598 130.977 735.598 129.898C735.598 128.633 735.363 127.484 734.895 126.453C734.426 125.398 733.805 124.566 733.031 123.957C732.281 123.324 731.461 123.008 730.57 123.008C729.75 123.008 729.012 123.277 728.355 123.816C727.723 124.332 727.23 125.035 726.879 125.926C726.527 126.793 726.352 127.777 726.352 128.879C726.352 130.145 726.574 131.316 727.02 132.395C727.488 133.449 728.098 134.293 728.848 134.926C729.621 135.559 730.453 135.875 731.344 135.875ZM760.699 137.211C759.152 137.211 757.699 136.906 756.34 136.297C755.004 135.688 753.82 134.855 752.789 133.801C751.781 132.746 750.984 131.527 750.398 130.145C749.836 128.738 749.555 127.25 749.555 125.68C749.555 124.016 749.848 122.457 750.434 121.004C751.02 119.527 751.84 118.238 752.895 117.137C753.949 116.012 755.168 115.133 756.551 114.5C757.957 113.867 759.469 113.551 761.086 113.551C762.469 113.551 763.875 113.621 765.305 113.762C766.734 113.902 768.176 114.125 769.629 114.43L769.559 119.492C769.559 119.844 769.312 120.02 768.82 120.02C768.586 120.02 768.434 119.961 768.363 119.844C768.293 119.539 768.199 119.234 768.082 118.93C767.988 118.602 767.777 118.18 767.449 117.664C766.887 116.844 766.078 116.199 765.023 115.73C763.992 115.262 762.715 115.027 761.191 115.027C760.043 115.027 758.965 115.309 757.957 115.871C756.949 116.41 756.059 117.148 755.285 118.086C754.535 119.023 753.949 120.09 753.527 121.285C753.105 122.457 752.895 123.676 752.895 124.941C752.895 126.887 753.223 128.633 753.879 130.18C754.535 131.773 755.566 133.098 756.973 134.152C758.402 135.184 760.09 135.699 762.035 135.699C764.355 135.699 766.148 135.02 767.414 133.66C767.789 133.262 768.082 132.793 768.293 132.254C768.504 131.715 768.668 131.246 768.785 130.848C768.902 130.449 769.02 130.25 769.137 130.25C769.277 130.25 769.441 130.273 769.629 130.32C769.84 130.344 770.004 130.391 770.121 130.461L770.297 130.566C770.297 130.707 770.25 131.035 770.156 131.551C770.062 132.066 769.945 132.641 769.805 133.273C769.664 133.883 769.523 134.422 769.383 134.891C769.266 135.359 769.172 135.617 769.102 135.664C767.367 136.695 764.566 137.211 760.699 137.211ZM776.168 137.246C775.09 137.246 774.199 136.965 773.496 136.402C772.793 135.816 772.441 134.949 772.441 133.801C772.441 132.395 773.355 131.223 775.184 130.285C775.98 129.887 776.766 129.57 777.539 129.336C778.336 129.102 779.133 128.832 779.93 128.527C780.141 128.457 780.246 128.281 780.246 128V125.363C780.246 124.613 780.012 124.039 779.543 123.641C779.074 123.219 778.512 123.008 777.855 123.008C777.152 123.008 776.566 123.254 776.098 123.746C775.629 124.215 775.395 124.836 775.395 125.609C775.395 126.43 774.914 126.84 773.953 126.84C773.273 126.84 772.816 126.617 772.582 126.172C772.582 125.68 772.781 125.176 773.18 124.66C773.602 124.121 774.141 123.629 774.797 123.184C775.453 122.738 776.168 122.375 776.941 122.094C777.738 121.812 778.523 121.672 779.297 121.672C780.586 121.672 781.512 121.988 782.074 122.621C782.637 123.23 782.918 124.227 782.918 125.609V133.73C782.918 134.223 783.047 134.633 783.305 134.961C783.562 135.289 783.914 135.453 784.359 135.453C784.664 135.453 785.074 135.289 785.59 134.961C785.684 134.961 785.73 135.055 785.73 135.242C785.73 135.547 785.672 135.793 785.555 135.98C784.594 136.801 783.773 137.211 783.094 137.211C782.555 137.211 782.039 136.988 781.547 136.543C781.055 136.098 780.715 135.629 780.527 135.137C780.41 135.23 780.258 135.359 780.07 135.523C779.906 135.664 779.766 135.781 779.648 135.875C779.156 136.25 778.617 136.578 778.031 136.859C777.469 137.117 776.848 137.246 776.168 137.246ZM777.504 135.242C778.16 135.242 778.781 135.055 779.367 134.68C779.953 134.305 780.246 133.906 780.246 133.484V129.863C779.637 130.098 779.051 130.309 778.488 130.496C777.949 130.684 777.516 130.836 777.188 130.953C776.766 131.117 776.355 131.41 775.957 131.832C775.582 132.254 775.395 132.734 775.395 133.273C775.395 133.977 775.605 134.48 776.027 134.785C776.473 135.09 776.965 135.242 777.504 135.242ZM787.242 137.105C787.148 137.012 787.102 136.812 787.102 136.508C787.102 136.227 787.148 136.086 787.242 136.086C787.43 136.086 787.688 136.051 788.016 135.98C788.344 135.91 788.648 135.816 788.93 135.699C789.211 135.582 789.363 135.477 789.387 135.383C789.48 135.055 789.539 134.68 789.562 134.258C789.609 133.836 789.633 133.391 789.633 132.922V126.277C789.633 125.387 789.469 124.754 789.141 124.379C788.906 124.098 788.625 123.91 788.297 123.816C787.992 123.723 787.711 123.676 787.453 123.676C787.219 123.652 787.102 123.617 787.102 123.57C787.102 123.008 787.172 122.715 787.312 122.691C789.867 122.293 791.344 122.035 791.742 121.918L792.34 121.742C792.434 121.719 792.492 121.812 792.516 122.023C792.539 122.234 792.539 122.387 792.516 122.48L792.305 124.238C792.727 123.605 793.301 123.02 794.027 122.48C794.777 121.918 795.516 121.637 796.242 121.637C797.602 121.637 798.516 121.977 798.984 122.656C798.984 123.477 798.855 124.074 798.598 124.449C798.34 124.824 798.023 125.012 797.648 125.012C797.227 125.012 796.84 124.812 796.488 124.414C796.137 124.016 795.656 123.816 795.047 123.816C794.578 123.816 794.133 123.98 793.711 124.309C793.289 124.613 792.949 125.012 792.691 125.504C792.457 125.973 792.34 126.465 792.34 126.98V132.254C792.34 132.934 792.363 133.531 792.41 134.047C792.457 134.562 792.527 135.008 792.621 135.383C792.668 135.477 792.832 135.582 793.113 135.699C793.395 135.816 793.699 135.91 794.027 135.98C794.379 136.051 794.625 136.086 794.766 136.086C794.836 136.086 794.883 136.227 794.906 136.508C794.93 136.789 794.918 136.988 794.871 137.105L791.074 136.93L787.242 137.105ZM806.227 137.246C805.055 137.246 804.07 136.859 803.273 136.086C802.5 135.312 802.113 134.211 802.113 132.781V123.852H800.074C799.957 123.852 799.898 123.605 799.898 123.113C799.898 122.973 799.91 122.891 799.934 122.867C800.637 122.539 801.375 121.918 802.148 121.004C802.688 120.371 803.086 119.82 803.344 119.352C803.625 118.883 803.766 118.602 803.766 118.508C804.469 118.508 804.82 118.566 804.82 118.684V122.164L807.598 122.199H809.566C809.754 122.199 809.848 122.305 809.848 122.516C809.848 122.961 809.73 123.406 809.496 123.852H804.82V132.465C804.82 133.402 805.055 134.152 805.523 134.715C806.016 135.277 806.648 135.559 807.422 135.559C808.148 135.559 808.875 135.336 809.602 134.891C809.672 134.844 809.777 134.949 809.918 135.207C810.059 135.441 810.117 135.57 810.094 135.594C809.742 135.969 809.203 136.344 808.477 136.719C807.75 137.07 807 137.246 806.227 137.246Z" fill="black"/>
<g filter="url(#filter0_i_397_2377)">
<rect x="60" y="244" width="1336" height="92" rx="46" fill="#B7A35C"/>
<path d="M645.844 301.105C645.75 301.012 645.703 300.836 645.703 300.578C645.703 300.25 645.75 300.086 645.844 300.086C646.125 300.086 646.488 300.027 646.934 299.91C647.379 299.793 647.684 299.629 647.848 299.418C648.105 299.09 648.363 298.656 648.621 298.117C648.902 297.578 649.195 296.91 649.5 296.113L655.617 280.398C655.758 280.047 655.84 279.801 655.863 279.66C655.91 279.52 655.945 279.402 655.969 279.309C656.016 279.191 656.098 279.004 656.215 278.746C656.379 278.418 656.543 278.16 656.707 277.973C656.871 277.785 657.141 277.691 657.516 277.691L657.832 277.797L664.863 296.359C665.074 296.898 665.262 297.379 665.426 297.801C665.613 298.223 665.766 298.586 665.883 298.891C665.977 299.125 666.176 299.336 666.48 299.523C666.809 299.688 667.137 299.828 667.465 299.945C667.816 300.039 668.086 300.086 668.273 300.086C668.367 300.086 668.414 300.309 668.414 300.754C668.414 300.801 668.402 300.859 668.379 300.93C668.379 300.977 668.367 301.035 668.344 301.105C667.172 301.059 666.258 301.023 665.602 301C664.969 300.953 664.594 300.93 664.477 300.93L660.398 301.105C660.305 301.012 660.258 300.824 660.258 300.543C660.281 300.238 660.34 300.086 660.434 300.086C660.715 300.086 661.066 300.027 661.488 299.91C661.91 299.793 662.156 299.641 662.227 299.453C662.25 299.359 662.262 299.266 662.262 299.172C662.285 299.078 662.297 298.984 662.297 298.891C662.297 298.586 662.262 298.234 662.191 297.836C662.121 297.414 662.039 297.086 661.945 296.852L660.363 292.492C660.293 292.398 660.223 292.352 660.152 292.352C659.238 292.281 658.348 292.246 657.48 292.246C656.871 292.246 656.191 292.27 655.441 292.316C654.715 292.34 653.906 292.375 653.016 292.422L652.84 292.527L651.328 296.395C651.094 296.98 650.93 297.473 650.836 297.871C650.766 298.27 650.73 298.586 650.73 298.82C650.73 299.148 650.824 299.383 651.012 299.523C651.223 299.688 651.562 299.828 652.031 299.945C652.5 300.039 652.84 300.086 653.051 300.086C653.121 300.086 653.156 300.227 653.156 300.508C653.18 300.789 653.168 300.988 653.121 301.105L649.5 300.93C648.844 300.883 648.199 300.895 647.566 300.965C646.957 301.012 646.383 301.059 645.844 301.105ZM656.25 290.559C657.305 290.559 658.371 290.523 659.449 290.453L659.555 290.277L656.707 282.508L653.684 290.348C653.684 290.441 653.707 290.488 653.754 290.488C654.363 290.512 654.867 290.535 655.266 290.559C655.688 290.559 656.016 290.559 656.25 290.559ZM680.262 301.211C680.121 301.211 680.051 301.012 680.051 300.613V300.191C680.051 300.074 680.004 300.027 679.91 300.051C678.621 300.777 677.379 301.141 676.184 301.141C674.895 301.141 673.723 300.824 672.668 300.191C671.637 299.535 670.816 298.68 670.207 297.625C669.621 296.547 669.328 295.375 669.328 294.109C669.328 292.984 669.539 291.906 669.961 290.875C670.406 289.844 670.992 288.93 671.719 288.133C672.469 287.312 673.312 286.68 674.25 286.234C675.188 285.766 676.16 285.531 677.168 285.531C678.176 285.531 679.055 285.73 679.805 286.129C679.969 286.129 680.051 285.918 680.051 285.496V281.699C680.051 280.902 679.98 280.152 679.84 279.449C679.746 279.074 679.148 278.887 678.047 278.887H677.73C677.59 278.887 677.52 278.758 677.52 278.5C677.52 278.125 677.59 277.938 677.73 277.938C679.043 277.82 680.074 277.645 680.824 277.41C681.598 277.176 682.148 276.941 682.477 276.707L682.617 276.602H682.688C682.781 276.602 682.875 276.672 682.969 276.812C683.062 276.93 683.121 277.047 683.145 277.164C682.887 277.938 682.758 278.957 682.758 280.223V296.043C682.758 297.145 682.828 298.035 682.969 298.715C683.039 298.949 683.238 299.102 683.566 299.172C683.918 299.219 684.281 299.266 684.656 299.312L684.973 299.348C685.043 299.371 685.078 299.512 685.078 299.77C685.078 300.121 685.008 300.297 684.867 300.297C684.094 300.344 683.297 300.473 682.477 300.684C681.656 300.871 681.023 301.023 680.578 301.141L680.262 301.211ZM677.52 299.418C678.316 299.418 678.938 299.242 679.383 298.891C679.828 298.516 680.051 298.023 680.051 297.414V289.047C680.051 288.555 679.781 288.098 679.242 287.676C678.727 287.23 677.883 287.008 676.711 287.008C675.82 287.008 675.047 287.289 674.391 287.852C673.734 288.414 673.23 289.164 672.879 290.102C672.527 291.016 672.352 292.012 672.352 293.09C672.352 294.215 672.551 295.258 672.949 296.219C673.371 297.18 673.969 297.953 674.742 298.539C675.516 299.125 676.441 299.418 677.52 299.418ZM697.734 301.211C697.594 301.211 697.523 301.012 697.523 300.613V300.191C697.523 300.074 697.477 300.027 697.383 300.051C696.094 300.777 694.852 301.141 693.656 301.141C692.367 301.141 691.195 300.824 690.141 300.191C689.109 299.535 688.289 298.68 687.68 297.625C687.094 296.547 686.801 295.375 686.801 294.109C686.801 292.984 687.012 291.906 687.434 290.875C687.879 289.844 688.465 288.93 689.191 288.133C689.941 287.312 690.785 286.68 691.723 286.234C692.66 285.766 693.633 285.531 694.641 285.531C695.648 285.531 696.527 285.73 697.277 286.129C697.441 286.129 697.523 285.918 697.523 285.496V281.699C697.523 280.902 697.453 280.152 697.312 279.449C697.219 279.074 696.621 278.887 695.52 278.887H695.203C695.062 278.887 694.992 278.758 694.992 278.5C694.992 278.125 695.062 277.938 695.203 277.938C696.516 277.82 697.547 277.645 698.297 277.41C699.07 277.176 699.621 276.941 699.949 276.707L700.09 276.602H700.16C700.254 276.602 700.348 276.672 700.441 276.812C700.535 276.93 700.594 277.047 700.617 277.164C700.359 277.938 700.23 278.957 700.23 280.223V296.043C700.23 297.145 700.301 298.035 700.441 298.715C700.512 298.949 700.711 299.102 701.039 299.172C701.391 299.219 701.754 299.266 702.129 299.312L702.445 299.348C702.516 299.371 702.551 299.512 702.551 299.77C702.551 300.121 702.48 300.297 702.34 300.297C701.566 300.344 700.77 300.473 699.949 300.684C699.129 300.871 698.496 301.023 698.051 301.141L697.734 301.211ZM694.992 299.418C695.789 299.418 696.41 299.242 696.855 298.891C697.301 298.516 697.523 298.023 697.523 297.414V289.047C697.523 288.555 697.254 288.098 696.715 287.676C696.199 287.23 695.355 287.008 694.184 287.008C693.293 287.008 692.52 287.289 691.863 287.852C691.207 288.414 690.703 289.164 690.352 290.102C690 291.016 689.824 292.012 689.824 293.09C689.824 294.215 690.023 295.258 690.422 296.219C690.844 297.18 691.441 297.953 692.215 298.539C692.988 299.125 693.914 299.418 694.992 299.418ZM717.914 301.246C716.742 301.246 715.758 300.859 714.961 300.086C714.188 299.312 713.801 298.211 713.801 296.781V287.852H711.762C711.645 287.852 711.586 287.605 711.586 287.113C711.586 286.973 711.598 286.891 711.621 286.867C712.324 286.539 713.062 285.918 713.836 285.004C714.375 284.371 714.773 283.82 715.031 283.352C715.312 282.883 715.453 282.602 715.453 282.508C716.156 282.508 716.508 282.566 716.508 282.684V286.164L719.285 286.199H721.254C721.441 286.199 721.535 286.305 721.535 286.516C721.535 286.961 721.418 287.406 721.184 287.852H716.508V296.465C716.508 297.402 716.742 298.152 717.211 298.715C717.703 299.277 718.336 299.559 719.109 299.559C719.836 299.559 720.562 299.336 721.289 298.891C721.359 298.844 721.465 298.949 721.605 299.207C721.746 299.441 721.805 299.57 721.781 299.594C721.43 299.969 720.891 300.344 720.164 300.719C719.438 301.07 718.688 301.246 717.914 301.246ZM731.027 301.246C729.621 301.246 728.332 300.895 727.16 300.191C725.988 299.488 725.051 298.539 724.348 297.344C723.668 296.148 723.328 294.836 723.328 293.406C723.328 291.953 723.656 290.641 724.312 289.469C724.992 288.297 725.906 287.371 727.055 286.691C728.203 285.988 729.504 285.637 730.957 285.637C732.363 285.637 733.641 285.988 734.789 286.691C735.961 287.395 736.887 288.332 737.566 289.504C738.27 290.676 738.621 291.977 738.621 293.406C738.621 294.836 738.281 296.148 737.602 297.344C736.922 298.539 736.008 299.488 734.859 300.191C733.734 300.895 732.457 301.246 731.027 301.246ZM731.344 299.875C732.188 299.875 732.926 299.605 733.559 299.066C734.191 298.527 734.684 297.801 735.035 296.887C735.41 295.973 735.598 294.977 735.598 293.898C735.598 292.633 735.363 291.484 734.895 290.453C734.426 289.398 733.805 288.566 733.031 287.957C732.281 287.324 731.461 287.008 730.57 287.008C729.75 287.008 729.012 287.277 728.355 287.816C727.723 288.332 727.23 289.035 726.879 289.926C726.527 290.793 726.352 291.777 726.352 292.879C726.352 294.145 726.574 295.316 727.02 296.395C727.488 297.449 728.098 298.293 728.848 298.926C729.621 299.559 730.453 299.875 731.344 299.875ZM760.699 301.211C759.152 301.211 757.699 300.906 756.34 300.297C755.004 299.688 753.82 298.855 752.789 297.801C751.781 296.746 750.984 295.527 750.398 294.145C749.836 292.738 749.555 291.25 749.555 289.68C749.555 288.016 749.848 286.457 750.434 285.004C751.02 283.527 751.84 282.238 752.895 281.137C753.949 280.012 755.168 279.133 756.551 278.5C757.957 277.867 759.469 277.551 761.086 277.551C762.469 277.551 763.875 277.621 765.305 277.762C766.734 277.902 768.176 278.125 769.629 278.43L769.559 283.492C769.559 283.844 769.312 284.02 768.82 284.02C768.586 284.02 768.434 283.961 768.363 283.844C768.293 283.539 768.199 283.234 768.082 282.93C767.988 282.602 767.777 282.18 767.449 281.664C766.887 280.844 766.078 280.199 765.023 279.73C763.992 279.262 762.715 279.027 761.191 279.027C760.043 279.027 758.965 279.309 757.957 279.871C756.949 280.41 756.059 281.148 755.285 282.086C754.535 283.023 753.949 284.09 753.527 285.285C753.105 286.457 752.895 287.676 752.895 288.941C752.895 290.887 753.223 292.633 753.879 294.18C754.535 295.773 755.566 297.098 756.973 298.152C758.402 299.184 760.09 299.699 762.035 299.699C764.355 299.699 766.148 299.02 767.414 297.66C767.789 297.262 768.082 296.793 768.293 296.254C768.504 295.715 768.668 295.246 768.785 294.848C768.902 294.449 769.02 294.25 769.137 294.25C769.277 294.25 769.441 294.273 769.629 294.32C769.84 294.344 770.004 294.391 770.121 294.461L770.297 294.566C770.297 294.707 770.25 295.035 770.156 295.551C770.062 296.066 769.945 296.641 769.805 297.273C769.664 297.883 769.523 298.422 769.383 298.891C769.266 299.359 769.172 299.617 769.102 299.664C767.367 300.695 764.566 301.211 760.699 301.211ZM776.168 301.246C775.09 301.246 774.199 300.965 773.496 300.402C772.793 299.816 772.441 298.949 772.441 297.801C772.441 296.395 773.355 295.223 775.184 294.285C775.98 293.887 776.766 293.57 777.539 293.336C778.336 293.102 779.133 292.832 779.93 292.527C780.141 292.457 780.246 292.281 780.246 292V289.363C780.246 288.613 780.012 288.039 779.543 287.641C779.074 287.219 778.512 287.008 777.855 287.008C777.152 287.008 776.566 287.254 776.098 287.746C775.629 288.215 775.395 288.836 775.395 289.609C775.395 290.43 774.914 290.84 773.953 290.84C773.273 290.84 772.816 290.617 772.582 290.172C772.582 289.68 772.781 289.176 773.18 288.66C773.602 288.121 774.141 287.629 774.797 287.184C775.453 286.738 776.168 286.375 776.941 286.094C777.738 285.812 778.523 285.672 779.297 285.672C780.586 285.672 781.512 285.988 782.074 286.621C782.637 287.23 782.918 288.227 782.918 289.609V297.73C782.918 298.223 783.047 298.633 783.305 298.961C783.562 299.289 783.914 299.453 784.359 299.453C784.664 299.453 785.074 299.289 785.59 298.961C785.684 298.961 785.73 299.055 785.73 299.242C785.73 299.547 785.672 299.793 785.555 299.98C784.594 300.801 783.773 301.211 783.094 301.211C782.555 301.211 782.039 300.988 781.547 300.543C781.055 300.098 780.715 299.629 780.527 299.137C780.41 299.23 780.258 299.359 780.07 299.523C779.906 299.664 779.766 299.781 779.648 299.875C779.156 300.25 778.617 300.578 778.031 300.859C777.469 301.117 776.848 301.246 776.168 301.246ZM777.504 299.242C778.16 299.242 778.781 299.055 779.367 298.68C779.953 298.305 780.246 297.906 780.246 297.484V293.863C779.637 294.098 779.051 294.309 778.488 294.496C777.949 294.684 777.516 294.836 777.188 294.953C776.766 295.117 776.355 295.41 775.957 295.832C775.582 296.254 775.395 296.734 775.395 297.273C775.395 297.977 775.605 298.48 776.027 298.785C776.473 299.09 776.965 299.242 777.504 299.242ZM787.242 301.105C787.148 301.012 787.102 300.812 787.102 300.508C787.102 300.227 787.148 300.086 787.242 300.086C787.43 300.086 787.688 300.051 788.016 299.98C788.344 299.91 788.648 299.816 788.93 299.699C789.211 299.582 789.363 299.477 789.387 299.383C789.48 299.055 789.539 298.68 789.562 298.258C789.609 297.836 789.633 297.391 789.633 296.922V290.277C789.633 289.387 789.469 288.754 789.141 288.379C788.906 288.098 788.625 287.91 788.297 287.816C787.992 287.723 787.711 287.676 787.453 287.676C787.219 287.652 787.102 287.617 787.102 287.57C787.102 287.008 787.172 286.715 787.312 286.691C789.867 286.293 791.344 286.035 791.742 285.918L792.34 285.742C792.434 285.719 792.492 285.812 792.516 286.023C792.539 286.234 792.539 286.387 792.516 286.48L792.305 288.238C792.727 287.605 793.301 287.02 794.027 286.48C794.777 285.918 795.516 285.637 796.242 285.637C797.602 285.637 798.516 285.977 798.984 286.656C798.984 287.477 798.855 288.074 798.598 288.449C798.34 288.824 798.023 289.012 797.648 289.012C797.227 289.012 796.84 288.812 796.488 288.414C796.137 288.016 795.656 287.816 795.047 287.816C794.578 287.816 794.133 287.98 793.711 288.309C793.289 288.613 792.949 289.012 792.691 289.504C792.457 289.973 792.34 290.465 792.34 290.98V296.254C792.34 296.934 792.363 297.531 792.41 298.047C792.457 298.562 792.527 299.008 792.621 299.383C792.668 299.477 792.832 299.582 793.113 299.699C793.395 299.816 793.699 299.91 794.027 299.98C794.379 300.051 794.625 300.086 794.766 300.086C794.836 300.086 794.883 300.227 794.906 300.508C794.93 300.789 794.918 300.988 794.871 301.105L791.074 300.93L787.242 301.105ZM806.227 301.246C805.055 301.246 804.07 300.859 803.273 300.086C802.5 299.312 802.113 298.211 802.113 296.781V287.852H800.074C799.957 287.852 799.898 287.605 799.898 287.113C799.898 286.973 799.91 286.891 799.934 286.867C800.637 286.539 801.375 285.918 802.148 285.004C802.688 284.371 803.086 283.82 803.344 283.352C803.625 282.883 803.766 282.602 803.766 282.508C804.469 282.508 804.82 282.566 804.82 282.684V286.164L807.598 286.199H809.566C809.754 286.199 809.848 286.305 809.848 286.516C809.848 286.961 809.73 287.406 809.496 287.852H804.82V296.465C804.82 297.402 805.055 298.152 805.523 298.715C806.016 299.277 806.648 299.559 807.422 299.559C808.148 299.559 808.875 299.336 809.602 298.891C809.672 298.844 809.777 298.949 809.918 299.207C810.059 299.441 810.117 299.57 810.094 299.594C809.742 299.969 809.203 300.344 808.477 300.719C807.75 301.07 807 301.246 806.227 301.246Z" fill="black"/>
</g>
<g filter="url(#filter1_i_397_2377)">
<rect x="60" y="244" width="1336" height="92" rx="46" fill="#B7A35C"/>
<path d="M645.844 301.105C645.75 301.012 645.703 300.836 645.703 300.578C645.703 300.25 645.75 300.086 645.844 300.086C646.125 300.086 646.488 300.027 646.934 299.91C647.379 299.793 647.684 299.629 647.848 299.418C648.105 299.09 648.363 298.656 648.621 298.117C648.902 297.578 649.195 296.91 649.5 296.113L655.617 280.398C655.758 280.047 655.84 279.801 655.863 279.66C655.91 279.52 655.945 279.402 655.969 279.309C656.016 279.191 656.098 279.004 656.215 278.746C656.379 278.418 656.543 278.16 656.707 277.973C656.871 277.785 657.141 277.691 657.516 277.691L657.832 277.797L664.863 296.359C665.074 296.898 665.262 297.379 665.426 297.801C665.613 298.223 665.766 298.586 665.883 298.891C665.977 299.125 666.176 299.336 666.48 299.523C666.809 299.688 667.137 299.828 667.465 299.945C667.816 300.039 668.086 300.086 668.273 300.086C668.367 300.086 668.414 300.309 668.414 300.754C668.414 300.801 668.402 300.859 668.379 300.93C668.379 300.977 668.367 301.035 668.344 301.105C667.172 301.059 666.258 301.023 665.602 301C664.969 300.953 664.594 300.93 664.477 300.93L660.398 301.105C660.305 301.012 660.258 300.824 660.258 300.543C660.281 300.238 660.34 300.086 660.434 300.086C660.715 300.086 661.066 300.027 661.488 299.91C661.91 299.793 662.156 299.641 662.227 299.453C662.25 299.359 662.262 299.266 662.262 299.172C662.285 299.078 662.297 298.984 662.297 298.891C662.297 298.586 662.262 298.234 662.191 297.836C662.121 297.414 662.039 297.086 661.945 296.852L660.363 292.492C660.293 292.398 660.223 292.352 660.152 292.352C659.238 292.281 658.348 292.246 657.48 292.246C656.871 292.246 656.191 292.27 655.441 292.316C654.715 292.34 653.906 292.375 653.016 292.422L652.84 292.527L651.328 296.395C651.094 296.98 650.93 297.473 650.836 297.871C650.766 298.27 650.73 298.586 650.73 298.82C650.73 299.148 650.824 299.383 651.012 299.523C651.223 299.688 651.562 299.828 652.031 299.945C652.5 300.039 652.84 300.086 653.051 300.086C653.121 300.086 653.156 300.227 653.156 300.508C653.18 300.789 653.168 300.988 653.121 301.105L649.5 300.93C648.844 300.883 648.199 300.895 647.566 300.965C646.957 301.012 646.383 301.059 645.844 301.105ZM656.25 290.559C657.305 290.559 658.371 290.523 659.449 290.453L659.555 290.277L656.707 282.508L653.684 290.348C653.684 290.441 653.707 290.488 653.754 290.488C654.363 290.512 654.867 290.535 655.266 290.559C655.688 290.559 656.016 290.559 656.25 290.559ZM680.262 301.211C680.121 301.211 680.051 301.012 680.051 300.613V300.191C680.051 300.074 680.004 300.027 679.91 300.051C678.621 300.777 677.379 301.141 676.184 301.141C674.895 301.141 673.723 300.824 672.668 300.191C671.637 299.535 670.816 298.68 670.207 297.625C669.621 296.547 669.328 295.375 669.328 294.109C669.328 292.984 669.539 291.906 669.961 290.875C670.406 289.844 670.992 288.93 671.719 288.133C672.469 287.312 673.312 286.68 674.25 286.234C675.188 285.766 676.16 285.531 677.168 285.531C678.176 285.531 679.055 285.73 679.805 286.129C679.969 286.129 680.051 285.918 680.051 285.496V281.699C680.051 280.902 679.98 280.152 679.84 279.449C679.746 279.074 679.148 278.887 678.047 278.887H677.73C677.59 278.887 677.52 278.758 677.52 278.5C677.52 278.125 677.59 277.938 677.73 277.938C679.043 277.82 680.074 277.645 680.824 277.41C681.598 277.176 682.148 276.941 682.477 276.707L682.617 276.602H682.688C682.781 276.602 682.875 276.672 682.969 276.812C683.062 276.93 683.121 277.047 683.145 277.164C682.887 277.938 682.758 278.957 682.758 280.223V296.043C682.758 297.145 682.828 298.035 682.969 298.715C683.039 298.949 683.238 299.102 683.566 299.172C683.918 299.219 684.281 299.266 684.656 299.312L684.973 299.348C685.043 299.371 685.078 299.512 685.078 299.77C685.078 300.121 685.008 300.297 684.867 300.297C684.094 300.344 683.297 300.473 682.477 300.684C681.656 300.871 681.023 301.023 680.578 301.141L680.262 301.211ZM677.52 299.418C678.316 299.418 678.938 299.242 679.383 298.891C679.828 298.516 680.051 298.023 680.051 297.414V289.047C680.051 288.555 679.781 288.098 679.242 287.676C678.727 287.23 677.883 287.008 676.711 287.008C675.82 287.008 675.047 287.289 674.391 287.852C673.734 288.414 673.23 289.164 672.879 290.102C672.527 291.016 672.352 292.012 672.352 293.09C672.352 294.215 672.551 295.258 672.949 296.219C673.371 297.18 673.969 297.953 674.742 298.539C675.516 299.125 676.441 299.418 677.52 299.418ZM697.734 301.211C697.594 301.211 697.523 301.012 697.523 300.613V300.191C697.523 300.074 697.477 300.027 697.383 300.051C696.094 300.777 694.852 301.141 693.656 301.141C692.367 301.141 691.195 300.824 690.141 300.191C689.109 299.535 688.289 298.68 687.68 297.625C687.094 296.547 686.801 295.375 686.801 294.109C686.801 292.984 687.012 291.906 687.434 290.875C687.879 289.844 688.465 288.93 689.191 288.133C689.941 287.312 690.785 286.68 691.723 286.234C692.66 285.766 693.633 285.531 694.641 285.531C695.648 285.531 696.527 285.73 697.277 286.129C697.441 286.129 697.523 285.918 697.523 285.496V281.699C697.523 280.902 697.453 280.152 697.312 279.449C697.219 279.074 696.621 278.887 695.52 278.887H695.203C695.062 278.887 694.992 278.758 694.992 278.5C694.992 278.125 695.062 277.938 695.203 277.938C696.516 277.82 697.547 277.645 698.297 277.41C699.07 277.176 699.621 276.941 699.949 276.707L700.09 276.602H700.16C700.254 276.602 700.348 276.672 700.441 276.812C700.535 276.93 700.594 277.047 700.617 277.164C700.359 277.938 700.23 278.957 700.23 280.223V296.043C700.23 297.145 700.301 298.035 700.441 298.715C700.512 298.949 700.711 299.102 701.039 299.172C701.391 299.219 701.754 299.266 702.129 299.312L702.445 299.348C702.516 299.371 702.551 299.512 702.551 299.77C702.551 300.121 702.48 300.297 702.34 300.297C701.566 300.344 700.77 300.473 699.949 300.684C699.129 300.871 698.496 301.023 698.051 301.141L697.734 301.211ZM694.992 299.418C695.789 299.418 696.41 299.242 696.855 298.891C697.301 298.516 697.523 298.023 697.523 297.414V289.047C697.523 288.555 697.254 288.098 696.715 287.676C696.199 287.23 695.355 287.008 694.184 287.008C693.293 287.008 692.52 287.289 691.863 287.852C691.207 288.414 690.703 289.164 690.352 290.102C690 291.016 689.824 292.012 689.824 293.09C689.824 294.215 690.023 295.258 690.422 296.219C690.844 297.18 691.441 297.953 692.215 298.539C692.988 299.125 693.914 299.418 694.992 299.418ZM717.914 301.246C716.742 301.246 715.758 300.859 714.961 300.086C714.188 299.312 713.801 298.211 713.801 296.781V287.852H711.762C711.645 287.852 711.586 287.605 711.586 287.113C711.586 286.973 711.598 286.891 711.621 286.867C712.324 286.539 713.062 285.918 713.836 285.004C714.375 284.371 714.773 283.82 715.031 283.352C715.312 282.883 715.453 282.602 715.453 282.508C716.156 282.508 716.508 282.566 716.508 282.684V286.164L719.285 286.199H721.254C721.441 286.199 721.535 286.305 721.535 286.516C721.535 286.961 721.418 287.406 721.184 287.852H716.508V296.465C716.508 297.402 716.742 298.152 717.211 298.715C717.703 299.277 718.336 299.559 719.109 299.559C719.836 299.559 720.562 299.336 721.289 298.891C721.359 298.844 721.465 298.949 721.605 299.207C721.746 299.441 721.805 299.57 721.781 299.594C721.43 299.969 720.891 300.344 720.164 300.719C719.438 301.07 718.688 301.246 717.914 301.246ZM731.027 301.246C729.621 301.246 728.332 300.895 727.16 300.191C725.988 299.488 725.051 298.539 724.348 297.344C723.668 296.148 723.328 294.836 723.328 293.406C723.328 291.953 723.656 290.641 724.312 289.469C724.992 288.297 725.906 287.371 727.055 286.691C728.203 285.988 729.504 285.637 730.957 285.637C732.363 285.637 733.641 285.988 734.789 286.691C735.961 287.395 736.887 288.332 737.566 289.504C738.27 290.676 738.621 291.977 738.621 293.406C738.621 294.836 738.281 296.148 737.602 297.344C736.922 298.539 736.008 299.488 734.859 300.191C733.734 300.895 732.457 301.246 731.027 301.246ZM731.344 299.875C732.188 299.875 732.926 299.605 733.559 299.066C734.191 298.527 734.684 297.801 735.035 296.887C735.41 295.973 735.598 294.977 735.598 293.898C735.598 292.633 735.363 291.484 734.895 290.453C734.426 289.398 733.805 288.566 733.031 287.957C732.281 287.324 731.461 287.008 730.57 287.008C729.75 287.008 729.012 287.277 728.355 287.816C727.723 288.332 727.23 289.035 726.879 289.926C726.527 290.793 726.352 291.777 726.352 292.879C726.352 294.145 726.574 295.316 727.02 296.395C727.488 297.449 728.098 298.293 728.848 298.926C729.621 299.559 730.453 299.875 731.344 299.875ZM760.699 301.211C759.152 301.211 757.699 300.906 756.34 300.297C755.004 299.688 753.82 298.855 752.789 297.801C751.781 296.746 750.984 295.527 750.398 294.145C749.836 292.738 749.555 291.25 749.555 289.68C749.555 288.016 749.848 286.457 750.434 285.004C751.02 283.527 751.84 282.238 752.895 281.137C753.949 280.012 755.168 279.133 756.551 278.5C757.957 277.867 759.469 277.551 761.086 277.551C762.469 277.551 763.875 277.621 765.305 277.762C766.734 277.902 768.176 278.125 769.629 278.43L769.559 283.492C769.559 283.844 769.312 284.02 768.82 284.02C768.586 284.02 768.434 283.961 768.363 283.844C768.293 283.539 768.199 283.234 768.082 282.93C767.988 282.602 767.777 282.18 767.449 281.664C766.887 280.844 766.078 280.199 765.023 279.73C763.992 279.262 762.715 279.027 761.191 279.027C760.043 279.027 758.965 279.309 757.957 279.871C756.949 280.41 756.059 281.148 755.285 282.086C754.535 283.023 753.949 284.09 753.527 285.285C753.105 286.457 752.895 287.676 752.895 288.941C752.895 290.887 753.223 292.633 753.879 294.18C754.535 295.773 755.566 297.098 756.973 298.152C758.402 299.184 760.09 299.699 762.035 299.699C764.355 299.699 766.148 299.02 767.414 297.66C767.789 297.262 768.082 296.793 768.293 296.254C768.504 295.715 768.668 295.246 768.785 294.848C768.902 294.449 769.02 294.25 769.137 294.25C769.277 294.25 769.441 294.273 769.629 294.32C769.84 294.344 770.004 294.391 770.121 294.461L770.297 294.566C770.297 294.707 770.25 295.035 770.156 295.551C770.062 296.066 769.945 296.641 769.805 297.273C769.664 297.883 769.523 298.422 769.383 298.891C769.266 299.359 769.172 299.617 769.102 299.664C767.367 300.695 764.566 301.211 760.699 301.211ZM776.168 301.246C775.09 301.246 774.199 300.965 773.496 300.402C772.793 299.816 772.441 298.949 772.441 297.801C772.441 296.395 773.355 295.223 775.184 294.285C775.98 293.887 776.766 293.57 777.539 293.336C778.336 293.102 779.133 292.832 779.93 292.527C780.141 292.457 780.246 292.281 780.246 292V289.363C780.246 288.613 780.012 288.039 779.543 287.641C779.074 287.219 778.512 287.008 777.855 287.008C777.152 287.008 776.566 287.254 776.098 287.746C775.629 288.215 775.395 288.836 775.395 289.609C775.395 290.43 774.914 290.84 773.953 290.84C773.273 290.84 772.816 290.617 772.582 290.172C772.582 289.68 772.781 289.176 773.18 288.66C773.602 288.121 774.141 287.629 774.797 287.184C775.453 286.738 776.168 286.375 776.941 286.094C777.738 285.812 778.523 285.672 779.297 285.672C780.586 285.672 781.512 285.988 782.074 286.621C782.637 287.23 782.918 288.227 782.918 289.609V297.73C782.918 298.223 783.047 298.633 783.305 298.961C783.562 299.289 783.914 299.453 784.359 299.453C784.664 299.453 785.074 299.289 785.59 298.961C785.684 298.961 785.73 299.055 785.73 299.242C785.73 299.547 785.672 299.793 785.555 299.98C784.594 300.801 783.773 301.211 783.094 301.211C782.555 301.211 782.039 300.988 781.547 300.543C781.055 300.098 780.715 299.629 780.527 299.137C780.41 299.23 780.258 299.359 780.07 299.523C779.906 299.664 779.766 299.781 779.648 299.875C779.156 300.25 778.617 300.578 778.031 300.859C777.469 301.117 776.848 301.246 776.168 301.246ZM777.504 299.242C778.16 299.242 778.781 299.055 779.367 298.68C779.953 298.305 780.246 297.906 780.246 297.484V293.863C779.637 294.098 779.051 294.309 778.488 294.496C777.949 294.684 777.516 294.836 777.188 294.953C776.766 295.117 776.355 295.41 775.957 295.832C775.582 296.254 775.395 296.734 775.395 297.273C775.395 297.977 775.605 298.48 776.027 298.785C776.473 299.09 776.965 299.242 777.504 299.242ZM787.242 301.105C787.148 301.012 787.102 300.812 787.102 300.508C787.102 300.227 787.148 300.086 787.242 300.086C787.43 300.086 787.688 300.051 788.016 299.98C788.344 299.91 788.648 299.816 788.93 299.699C789.211 299.582 789.363 299.477 789.387 299.383C789.48 299.055 789.539 298.68 789.562 298.258C789.609 297.836 789.633 297.391 789.633 296.922V290.277C789.633 289.387 789.469 288.754 789.141 288.379C788.906 288.098 788.625 287.91 788.297 287.816C787.992 287.723 787.711 287.676 787.453 287.676C787.219 287.652 787.102 287.617 787.102 287.57C787.102 287.008 787.172 286.715 787.312 286.691C789.867 286.293 791.344 286.035 791.742 285.918L792.34 285.742C792.434 285.719 792.492 285.812 792.516 286.023C792.539 286.234 792.539 286.387 792.516 286.48L792.305 288.238C792.727 287.605 793.301 287.02 794.027 286.48C794.777 285.918 795.516 285.637 796.242 285.637C797.602 285.637 798.516 285.977 798.984 286.656C798.984 287.477 798.855 288.074 798.598 288.449C798.34 288.824 798.023 289.012 797.648 289.012C797.227 289.012 796.84 288.812 796.488 288.414C796.137 288.016 795.656 287.816 795.047 287.816C794.578 287.816 794.133 287.98 793.711 288.309C793.289 288.613 792.949 289.012 792.691 289.504C792.457 289.973 792.34 290.465 792.34 290.98V296.254C792.34 296.934 792.363 297.531 792.41 298.047C792.457 298.562 792.527 299.008 792.621 299.383C792.668 299.477 792.832 299.582 793.113 299.699C793.395 299.816 793.699 299.91 794.027 299.98C794.379 300.051 794.625 300.086 794.766 300.086C794.836 300.086 794.883 300.227 794.906 300.508C794.93 300.789 794.918 300.988 794.871 301.105L791.074 300.93L787.242 301.105ZM806.227 301.246C805.055 301.246 804.07 300.859 803.273 300.086C802.5 299.312 802.113 298.211 802.113 296.781V287.852H800.074C799.957 287.852 799.898 287.605 799.898 287.113C799.898 286.973 799.91 286.891 799.934 286.867C800.637 286.539 801.375 285.918 802.148 285.004C802.688 284.371 803.086 283.82 803.344 283.352C803.625 282.883 803.766 282.602 803.766 282.508C804.469 282.508 804.82 282.566 804.82 282.684V286.164L807.598 286.199H809.566C809.754 286.199 809.848 286.305 809.848 286.516C809.848 286.961 809.73 287.406 809.496 287.852H804.82V296.465C804.82 297.402 805.055 298.152 805.523 298.715C806.016 299.277 806.648 299.559 807.422 299.559C808.148 299.559 808.875 299.336 809.602 298.891C809.672 298.844 809.777 298.949 809.918 299.207C810.059 299.441 810.117 299.57 810.094 299.594C809.742 299.969 809.203 300.344 808.477 300.719C807.75 301.07 807 301.246 806.227 301.246Z" fill="black"/>
</g>
<rect x="61.5" y="521.5" width="234" height="42" rx="8.5" stroke="black" stroke-width="3"/>
<path d="M91.1133 551.088C91.0547 551.029 91.0254 550.883 91.0254 550.648C91.0254 550.375 91.0547 550.238 91.1133 550.238C91.2891 550.238 91.5234 550.209 91.8164 550.15C92.1094 550.072 92.3828 549.984 92.6367 549.887C92.9102 549.789 93.0762 549.682 93.1348 549.564C93.2715 549.35 93.3398 548.432 93.3398 546.811V535.736C93.3398 535.17 93.3203 534.672 93.2812 534.242C93.2617 533.812 93.2129 533.471 93.1348 533.217C93.0957 533.1 92.9395 532.992 92.666 532.895C92.4121 532.797 92.1289 532.719 91.8164 532.66C91.5234 532.602 91.2891 532.572 91.1133 532.572C91.0352 532.572 90.9961 532.455 90.9961 532.221C90.9961 531.967 91.0352 531.801 91.1133 531.723C91.6211 531.742 92.1582 531.762 92.7246 531.781C93.3105 531.781 93.9355 531.781 94.5996 531.781L97.4414 531.752C98.0078 531.752 98.4766 531.752 98.8477 531.752C99.2188 531.732 99.502 531.723 99.6973 531.723C101.826 531.723 103.643 532.162 105.146 533.041C106.65 533.9 107.803 535.043 108.604 536.469C109.404 537.895 109.805 539.457 109.805 541.156C109.805 543.031 109.395 544.73 108.574 546.254C107.773 547.777 106.611 548.979 105.088 549.857C103.584 550.736 101.777 551.146 99.668 551.088L97.5879 551.029C97.002 551.01 96.4648 551 95.9766 551C95.4883 550.98 95.0488 550.98 94.6582 551L91.1133 551.088ZM100.137 549.74C104.629 549.74 106.875 546.84 106.875 541.039C106.875 539.555 106.611 538.207 106.084 536.996C105.557 535.785 104.775 534.818 103.74 534.096C102.725 533.373 101.455 533.012 99.9316 533.012H99.7852C97.6758 533.012 96.5039 533.168 96.2695 533.48C96.0156 533.812 95.8887 534.428 95.8887 535.326V546.928C95.8887 547.729 96.0352 548.471 96.3281 549.154C96.3672 549.252 96.5332 549.34 96.8262 549.418C97.1191 549.477 97.4707 549.535 97.8809 549.594C98.3105 549.633 98.7305 549.672 99.1406 549.711C99.5508 549.73 99.8828 549.74 100.137 549.74ZM112.207 551.088C112.129 551.01 112.09 550.844 112.09 550.59C112.09 550.355 112.129 550.238 112.207 550.238C112.363 550.238 112.578 550.209 112.852 550.15C113.125 550.092 113.379 550.014 113.613 549.916C113.848 549.818 113.975 549.73 113.994 549.652C114.072 549.379 114.121 549.066 114.141 548.715C114.18 548.363 114.199 547.992 114.199 547.602V542.064C114.199 541.322 114.062 540.795 113.789 540.482C113.594 540.229 113.359 540.072 113.086 540.014C112.812 539.936 112.578 539.896 112.383 539.896C112.188 539.877 112.09 539.848 112.09 539.809C112.09 539.34 112.148 539.096 112.266 539.076C113.301 538.92 114.092 538.793 114.639 538.695C115.186 538.578 115.674 538.471 116.104 538.373L116.455 538.285C116.533 538.266 116.582 538.344 116.602 538.52C116.621 538.695 116.621 538.822 116.602 538.9C116.562 539.291 116.523 539.662 116.484 540.014C116.465 540.365 116.455 540.697 116.455 541.01V547.045C116.455 547.611 116.475 548.109 116.514 548.539C116.553 548.969 116.611 549.34 116.689 549.652C116.729 549.73 116.865 549.818 117.1 549.916C117.334 550.014 117.588 550.092 117.861 550.15C118.135 550.209 118.33 550.238 118.447 550.238C118.506 550.238 118.545 550.355 118.564 550.59C118.584 550.824 118.574 550.99 118.535 551.088L115.4 550.941L112.207 551.088ZM115.107 535.092C114.717 535.092 114.375 534.945 114.082 534.652C113.789 534.359 113.643 534.018 113.643 533.627C113.643 533.217 113.789 532.875 114.082 532.602C114.375 532.309 114.717 532.162 115.107 532.162C115.518 532.162 115.859 532.309 116.133 532.602C116.426 532.875 116.572 533.217 116.572 533.627C116.572 534.018 116.426 534.359 116.133 534.652C115.859 534.945 115.518 535.092 115.107 535.092ZM124.541 551.322C123.936 551.322 123.389 551.254 122.9 551.117C122.412 550.98 121.816 550.863 121.113 550.766C121.035 550.551 120.957 550.258 120.879 549.887C120.801 549.516 120.732 549.125 120.674 548.715C120.635 548.305 120.615 547.973 120.615 547.719C120.771 547.602 120.889 547.543 120.967 547.543C121.26 547.543 121.416 547.602 121.436 547.719C121.514 548.109 121.709 548.5 122.021 548.891C122.334 549.281 122.715 549.613 123.164 549.887C123.613 550.141 124.072 550.268 124.541 550.268C125.166 550.268 125.674 550.102 126.064 549.77C126.475 549.418 126.68 548.92 126.68 548.275C126.68 547.592 126.416 547.025 125.889 546.576C125.479 546.244 125.127 546.01 124.834 545.873C124.561 545.717 124.287 545.58 124.014 545.463C123.76 545.326 123.438 545.141 123.047 544.906C121.523 544.027 120.762 542.982 120.762 541.771C120.762 541.068 120.957 540.453 121.348 539.926C121.738 539.379 122.256 538.959 122.9 538.666C123.564 538.354 124.268 538.197 125.01 538.197C125.225 538.197 125.469 538.217 125.742 538.256C126.016 538.275 126.318 538.305 126.65 538.344C126.982 538.402 127.256 538.451 127.471 538.49C127.686 538.529 127.861 538.559 127.998 538.578C128.213 539.477 128.33 540.473 128.35 541.566C128.35 541.664 128.223 541.713 127.969 541.713C127.695 541.713 127.549 541.645 127.529 541.508C127.432 540.961 127.148 540.443 126.68 539.955C126.23 539.467 125.713 539.223 125.127 539.223C123.721 539.223 123.018 539.799 123.018 540.951C123.018 541.244 123.047 541.508 123.105 541.742C123.184 541.957 123.35 542.162 123.604 542.357C124.209 542.826 124.922 543.295 125.742 543.764C126.582 544.232 127.275 544.672 127.822 545.082C128.643 545.707 129.053 546.439 129.053 547.279C129.053 548.041 128.848 548.734 128.438 549.359C128.027 549.965 127.48 550.443 126.797 550.795C126.113 551.146 125.361 551.322 124.541 551.322ZM136.934 551.176C135.859 551.176 134.873 550.893 133.975 550.326C133.076 549.76 132.354 549.008 131.807 548.07C131.279 547.113 131.016 546.049 131.016 544.877C131.016 543.666 131.23 542.562 131.66 541.566C132.109 540.551 132.754 539.74 133.594 539.135C134.453 538.529 135.488 538.227 136.699 538.227C138.848 538.227 140.332 538.725 141.152 539.721C141.152 541.029 140.791 541.684 140.068 541.684C139.736 541.684 139.482 541.615 139.307 541.479C139.131 541.322 138.906 541.049 138.633 540.658C138.027 539.76 137.305 539.311 136.465 539.311C135.664 539.311 134.932 539.691 134.268 540.453C133.623 541.215 133.301 542.348 133.301 543.852C133.301 545.414 133.682 546.713 134.443 547.748C135.225 548.783 136.299 549.301 137.666 549.301C138.486 549.301 139.17 549.184 139.717 548.949C140.283 548.695 140.693 548.471 140.947 548.275L141.152 548.129C141.27 548.129 141.328 548.256 141.328 548.51C141.328 548.646 141.27 548.822 141.152 549.037C140.762 549.584 140.186 550.082 139.424 550.531C138.662 550.961 137.832 551.176 136.934 551.176ZM149.297 551.205C148.125 551.205 147.051 550.912 146.074 550.326C145.098 549.74 144.316 548.949 143.73 547.953C143.164 546.957 142.881 545.863 142.881 544.672C142.881 543.461 143.154 542.367 143.701 541.391C144.268 540.414 145.029 539.643 145.986 539.076C146.943 538.49 148.027 538.197 149.238 538.197C150.41 538.197 151.475 538.49 152.432 539.076C153.408 539.662 154.18 540.443 154.746 541.42C155.332 542.396 155.625 543.48 155.625 544.672C155.625 545.863 155.342 546.957 154.775 547.953C154.209 548.949 153.447 549.74 152.49 550.326C151.553 550.912 150.488 551.205 149.297 551.205ZM149.561 550.062C150.264 550.062 150.879 549.838 151.406 549.389C151.934 548.939 152.344 548.334 152.637 547.572C152.949 546.811 153.105 545.98 153.105 545.082C153.105 544.027 152.91 543.07 152.52 542.211C152.129 541.332 151.611 540.639 150.967 540.131C150.342 539.604 149.658 539.34 148.916 539.34C148.232 539.34 147.617 539.564 147.07 540.014C146.543 540.443 146.133 541.029 145.84 541.771C145.547 542.494 145.4 543.314 145.4 544.232C145.4 545.287 145.586 546.264 145.957 547.162C146.348 548.041 146.855 548.744 147.48 549.271C148.125 549.799 148.818 550.062 149.561 550.062ZM163.652 551.205C163.496 550.834 163.232 550.229 162.861 549.389C162.51 548.549 162.051 547.475 161.484 546.166C160.918 544.838 160.391 543.646 159.902 542.592C159.414 541.518 158.955 540.561 158.525 539.721C158.311 539.33 157.734 539.135 156.797 539.135C156.719 539.135 156.68 539.008 156.68 538.754C156.68 538.52 156.719 538.363 156.797 538.285C157.305 538.305 157.812 538.334 158.32 538.373C158.828 538.412 159.336 538.432 159.844 538.432C160.332 538.432 160.82 538.412 161.309 538.373C161.797 538.334 162.285 538.305 162.773 538.285C162.812 538.363 162.812 538.529 162.773 538.783C162.754 539.018 162.715 539.135 162.656 539.135C161.699 539.135 161.221 539.301 161.221 539.633C161.221 539.652 161.23 539.691 161.25 539.75C161.27 539.789 161.289 539.828 161.309 539.867L164.766 547.689L167.725 540.951C167.822 540.756 167.881 540.59 167.9 540.453C167.939 540.297 167.959 540.17 167.959 540.072C167.959 539.447 167.256 539.135 165.85 539.135C165.771 539.135 165.732 539.008 165.732 538.754C165.732 538.52 165.771 538.363 165.85 538.285C166.064 538.305 166.465 538.344 167.051 538.402C167.637 538.441 168.164 538.451 168.633 538.432L171.562 538.285C171.602 538.441 171.621 538.588 171.621 538.725C171.621 538.998 171.553 539.135 171.416 539.135C171.143 539.135 170.781 539.213 170.332 539.369C169.883 539.525 169.58 539.779 169.424 540.131L164.766 550.648C164.629 550.961 164.424 551.156 164.15 551.234C163.877 551.332 163.711 551.322 163.652 551.205ZM178.184 551.176C177.109 551.176 176.123 550.893 175.225 550.326C174.326 549.76 173.604 549.008 173.057 548.07C172.529 547.113 172.266 546.049 172.266 544.877C172.266 543.51 172.52 542.328 173.027 541.332C173.535 540.336 174.229 539.574 175.107 539.047C175.986 538.5 176.973 538.227 178.066 538.227C178.965 538.227 179.756 538.402 180.439 538.754C181.123 539.086 181.65 539.516 182.021 540.043C182.373 540.59 182.627 541.146 182.783 541.713C182.959 542.26 183.047 542.807 183.047 543.354C183.047 543.744 182.988 543.988 182.871 544.086C182.754 544.164 182.529 544.203 182.197 544.203H174.814C174.658 544.203 174.58 544.252 174.58 544.35C174.58 545.17 174.746 545.961 175.078 546.723C175.41 547.465 175.898 548.08 176.543 548.568C177.188 549.057 177.979 549.301 178.916 549.301C179.736 549.301 180.42 549.184 180.967 548.949C181.533 548.695 181.943 548.471 182.197 548.275L182.402 548.129C182.52 548.129 182.578 548.256 182.578 548.51C182.578 548.646 182.52 548.822 182.402 549.037C182.012 549.584 181.436 550.082 180.674 550.531C179.912 550.961 179.082 551.176 178.184 551.176ZM174.814 542.973H180.527C180.625 542.973 180.674 542.875 180.674 542.68C180.674 542.25 180.557 541.781 180.322 541.273C180.107 540.746 179.775 540.287 179.326 539.896C178.877 539.506 178.311 539.311 177.627 539.311C177.002 539.311 176.465 539.525 176.016 539.955C175.566 540.365 175.225 540.844 174.99 541.391C174.756 541.918 174.639 542.377 174.639 542.768C174.639 542.904 174.697 542.973 174.814 542.973ZM184.863 551.088C184.785 551.01 184.746 550.844 184.746 550.59C184.746 550.355 184.785 550.238 184.863 550.238C185.02 550.238 185.234 550.209 185.508 550.15C185.781 550.092 186.035 550.014 186.27 549.916C186.504 549.818 186.631 549.73 186.65 549.652C186.729 549.379 186.777 549.066 186.797 548.715C186.836 548.363 186.855 547.992 186.855 547.602V542.064C186.855 541.322 186.719 540.795 186.445 540.482C186.25 540.248 186.016 540.092 185.742 540.014C185.488 539.936 185.254 539.896 185.039 539.896C184.844 539.877 184.746 539.848 184.746 539.809C184.746 539.34 184.805 539.096 184.922 539.076C187.051 538.744 188.281 538.529 188.613 538.432L189.111 538.285C189.189 538.266 189.238 538.344 189.258 538.52C189.277 538.695 189.277 538.822 189.258 538.9L189.082 540.365C189.434 539.838 189.912 539.35 190.518 538.9C191.143 538.432 191.758 538.197 192.363 538.197C193.496 538.197 194.258 538.48 194.648 539.047C194.648 539.73 194.541 540.229 194.326 540.541C194.111 540.854 193.848 541.01 193.535 541.01C193.184 541.01 192.861 540.844 192.568 540.512C192.275 540.18 191.875 540.014 191.367 540.014C190.977 540.014 190.605 540.15 190.254 540.424C189.902 540.678 189.619 541.01 189.404 541.42C189.209 541.811 189.111 542.221 189.111 542.65V547.045C189.111 547.611 189.131 548.109 189.17 548.539C189.209 548.969 189.268 549.34 189.346 549.652C189.385 549.73 189.521 549.818 189.756 549.916C189.99 550.014 190.244 550.092 190.518 550.15C190.811 550.209 191.016 550.238 191.133 550.238C191.191 550.238 191.23 550.355 191.25 550.59C191.27 550.824 191.26 550.99 191.221 551.088L188.057 550.941L184.863 551.088ZM202.529 551.088C202.432 550.99 202.383 550.844 202.383 550.648C202.383 550.375 202.432 550.238 202.529 550.238C202.725 550.238 202.979 550.209 203.291 550.15C203.604 550.092 203.906 550.014 204.199 549.916C204.492 549.818 204.697 549.711 204.814 549.594C205.146 549.242 205.322 548.393 205.342 547.045C205.381 544.779 205.42 542.748 205.459 540.951C205.518 539.135 205.566 537.65 205.605 536.498C205.645 535.326 205.664 534.574 205.664 534.242C205.664 533.715 205.625 533.324 205.547 533.07C205.508 532.953 205.332 532.855 205.02 532.777C204.727 532.68 204.404 532.602 204.053 532.543C203.701 532.484 203.428 532.455 203.232 532.455C203.154 532.455 203.115 532.318 203.115 532.045C203.115 531.83 203.154 531.684 203.232 531.605C203.701 531.625 204.219 531.654 204.785 531.693C205.352 531.732 205.928 531.752 206.514 531.752C206.885 531.752 207.285 531.742 207.715 531.723C208.164 531.684 208.662 531.645 209.209 531.605C209.365 532.035 211.299 536.928 215.01 546.283C215.049 546.322 215.088 546.342 215.127 546.342C215.205 546.342 215.254 546.303 215.273 546.225C216.23 543.979 217.09 541.928 217.852 540.072C218.613 538.217 219.277 536.566 219.844 535.121L221.016 531.605C221.641 531.645 222.148 531.674 222.539 531.693C222.949 531.713 223.252 531.723 223.447 531.723C224.053 531.723 224.629 531.713 225.176 531.693C225.723 531.674 226.24 531.645 226.729 531.605C226.787 531.781 226.816 531.928 226.816 532.045C226.816 532.318 226.768 532.455 226.67 532.455H226.611C226.396 532.455 226.113 532.523 225.762 532.66C225.41 532.777 225.146 532.904 224.971 533.041C224.736 533.217 224.619 533.871 224.619 535.004L224.883 546.898C224.922 548.031 225.068 548.93 225.322 549.594C225.381 549.711 225.537 549.818 225.791 549.916C226.045 550.014 226.318 550.092 226.611 550.15C226.924 550.209 227.148 550.238 227.285 550.238C227.363 550.238 227.402 550.375 227.402 550.648C227.402 550.785 227.383 550.932 227.344 551.088C226.367 551.049 225.586 551.02 225 551C224.434 550.961 224.053 550.941 223.857 550.941L220.342 551.088C220.264 551.01 220.225 550.854 220.225 550.619C220.225 550.365 220.264 550.238 220.342 550.238C220.537 550.238 220.83 550.189 221.221 550.092C221.631 549.994 221.924 549.896 222.1 549.799C222.334 549.643 222.451 549.223 222.451 548.539V546.986L222.1 536.674C222.1 536.459 222.07 536.225 222.012 535.971C221.973 535.697 221.924 535.463 221.865 535.268C221.807 535.053 221.738 534.945 221.66 534.945C221.621 534.945 221.572 535.014 221.514 535.15L215.391 549.799C215.02 550.639 214.658 551.059 214.307 551.059C214.287 551.059 214.199 551.039 214.043 551L207.334 533.949C207.275 536.703 207.207 539.164 207.129 541.332C207.051 543.48 206.982 545.209 206.924 546.518C206.885 547.826 206.865 548.588 206.865 548.803C206.865 549.154 206.924 549.408 207.041 549.564C207.119 549.662 207.314 549.77 207.627 549.887C207.939 549.984 208.262 550.072 208.594 550.15C208.945 550.209 209.18 550.238 209.297 550.238C209.375 550.238 209.414 550.385 209.414 550.678C209.414 550.795 209.395 550.932 209.355 551.088C208.379 551.049 207.607 551.02 207.041 551C206.475 550.961 206.113 550.941 205.957 550.941L202.529 551.088ZM235.781 551.205C234.609 551.205 233.535 550.912 232.559 550.326C231.582 549.74 230.801 548.949 230.215 547.953C229.648 546.957 229.365 545.863 229.365 544.672C229.365 543.461 229.639 542.367 230.186 541.391C230.752 540.414 231.514 539.643 232.471 539.076C233.428 538.49 234.512 538.197 235.723 538.197C236.895 538.197 237.959 538.49 238.916 539.076C239.893 539.662 240.664 540.443 241.23 541.42C241.816 542.396 242.109 543.48 242.109 544.672C242.109 545.863 241.826 546.957 241.26 547.953C240.693 548.949 239.932 549.74 238.975 550.326C238.037 550.912 236.973 551.205 235.781 551.205ZM236.045 550.062C236.748 550.062 237.363 549.838 237.891 549.389C238.418 548.939 238.828 548.334 239.121 547.572C239.434 546.811 239.59 545.98 239.59 545.082C239.59 544.027 239.395 543.07 239.004 542.211C238.613 541.332 238.096 540.639 237.451 540.131C236.826 539.604 236.143 539.34 235.4 539.34C234.717 539.34 234.102 539.564 233.555 540.014C233.027 540.443 232.617 541.029 232.324 541.771C232.031 542.494 231.885 543.314 231.885 544.232C231.885 545.287 232.07 546.264 232.441 547.162C232.832 548.041 233.34 548.744 233.965 549.271C234.609 549.799 235.303 550.062 236.045 550.062ZM244.307 551.088C244.229 551.01 244.189 550.844 244.189 550.59C244.189 550.355 244.229 550.238 244.307 550.238C244.463 550.238 244.678 550.209 244.951 550.15C245.225 550.092 245.479 550.014 245.713 549.916C245.947 549.818 246.074 549.73 246.094 549.652C246.172 549.379 246.221 549.066 246.24 548.715C246.279 548.363 246.299 547.992 246.299 547.602V542.064C246.299 541.322 246.162 540.795 245.889 540.482C245.693 540.248 245.459 540.092 245.186 540.014C244.932 539.936 244.697 539.896 244.482 539.896C244.287 539.877 244.189 539.848 244.189 539.809C244.189 539.34 244.248 539.096 244.365 539.076C246.494 538.744 247.725 538.529 248.057 538.432L248.555 538.285C248.633 538.266 248.682 538.344 248.701 538.52C248.721 538.695 248.721 538.822 248.701 538.9L248.525 540.365C248.877 539.838 249.355 539.35 249.961 538.9C250.586 538.432 251.201 538.197 251.807 538.197C252.939 538.197 253.701 538.48 254.092 539.047C254.092 539.73 253.984 540.229 253.77 540.541C253.555 540.854 253.291 541.01 252.979 541.01C252.627 541.01 252.305 540.844 252.012 540.512C251.719 540.18 251.318 540.014 250.811 540.014C250.42 540.014 250.049 540.15 249.697 540.424C249.346 540.678 249.062 541.01 248.848 541.42C248.652 541.811 248.555 542.221 248.555 542.65V547.045C248.555 547.611 248.574 548.109 248.613 548.539C248.652 548.969 248.711 549.34 248.789 549.652C248.828 549.73 248.965 549.818 249.199 549.916C249.434 550.014 249.688 550.092 249.961 550.15C250.254 550.209 250.459 550.238 250.576 550.238C250.635 550.238 250.674 550.355 250.693 550.59C250.713 550.824 250.703 550.99 250.664 551.088L247.5 550.941L244.307 551.088ZM261.357 551.176C260.283 551.176 259.297 550.893 258.398 550.326C257.5 549.76 256.777 549.008 256.23 548.07C255.703 547.113 255.439 546.049 255.439 544.877C255.439 543.51 255.693 542.328 256.201 541.332C256.709 540.336 257.402 539.574 258.281 539.047C259.16 538.5 260.146 538.227 261.24 538.227C262.139 538.227 262.93 538.402 263.613 538.754C264.297 539.086 264.824 539.516 265.195 540.043C265.547 540.59 265.801 541.146 265.957 541.713C266.133 542.26 266.221 542.807 266.221 543.354C266.221 543.744 266.162 543.988 266.045 544.086C265.928 544.164 265.703 544.203 265.371 544.203H257.988C257.832 544.203 257.754 544.252 257.754 544.35C257.754 545.17 257.92 545.961 258.252 546.723C258.584 547.465 259.072 548.08 259.717 548.568C260.361 549.057 261.152 549.301 262.09 549.301C262.91 549.301 263.594 549.184 264.141 548.949C264.707 548.695 265.117 548.471 265.371 548.275L265.576 548.129C265.693 548.129 265.752 548.256 265.752 548.51C265.752 548.646 265.693 548.822 265.576 549.037C265.186 549.584 264.609 550.082 263.848 550.531C263.086 550.961 262.256 551.176 261.357 551.176ZM257.988 542.973H263.701C263.799 542.973 263.848 542.875 263.848 542.68C263.848 542.25 263.73 541.781 263.496 541.273C263.281 540.746 262.949 540.287 262.5 539.896C262.051 539.506 261.484 539.311 260.801 539.311C260.176 539.311 259.639 539.525 259.189 539.955C258.74 540.365 258.398 540.844 258.164 541.391C257.93 541.918 257.812 542.377 257.812 542.768C257.812 542.904 257.871 542.973 257.988 542.973Z" fill="black"/>
<rect x="377" y="520" width="237" height="45" rx="10" fill="#999969"/>
<path d="M408.113 551.088C408.055 551.029 408.025 550.883 408.025 550.648C408.025 550.375 408.055 550.238 408.113 550.238C408.289 550.238 408.523 550.209 408.816 550.15C409.109 550.072 409.383 549.984 409.637 549.887C409.91 549.789 410.076 549.682 410.135 549.564C410.271 549.35 410.34 548.432 410.34 546.811V535.736C410.34 535.17 410.32 534.672 410.281 534.242C410.262 533.812 410.213 533.471 410.135 533.217C410.096 533.1 409.939 532.992 409.666 532.895C409.412 532.797 409.129 532.719 408.816 532.66C408.523 532.602 408.289 532.572 408.113 532.572C408.035 532.572 407.996 532.455 407.996 532.221C407.996 531.967 408.035 531.801 408.113 531.723C408.621 531.742 409.158 531.762 409.725 531.781C410.311 531.781 410.936 531.781 411.6 531.781L414.441 531.752C415.008 531.752 415.477 531.752 415.848 531.752C416.219 531.732 416.502 531.723 416.697 531.723C418.826 531.723 420.643 532.162 422.146 533.041C423.65 533.9 424.803 535.043 425.604 536.469C426.404 537.895 426.805 539.457 426.805 541.156C426.805 543.031 426.395 544.73 425.574 546.254C424.773 547.777 423.611 548.979 422.088 549.857C420.584 550.736 418.777 551.146 416.668 551.088L414.588 551.029C414.002 551.01 413.465 551 412.977 551C412.488 550.98 412.049 550.98 411.658 551L408.113 551.088ZM417.137 549.74C421.629 549.74 423.875 546.84 423.875 541.039C423.875 539.555 423.611 538.207 423.084 536.996C422.557 535.785 421.775 534.818 420.74 534.096C419.725 533.373 418.455 533.012 416.932 533.012H416.785C414.676 533.012 413.504 533.168 413.27 533.48C413.016 533.812 412.889 534.428 412.889 535.326V546.928C412.889 547.729 413.035 548.471 413.328 549.154C413.367 549.252 413.533 549.34 413.826 549.418C414.119 549.477 414.471 549.535 414.881 549.594C415.311 549.633 415.73 549.672 416.141 549.711C416.551 549.73 416.883 549.74 417.137 549.74ZM429.207 551.088C429.129 551.01 429.09 550.844 429.09 550.59C429.09 550.355 429.129 550.238 429.207 550.238C429.363 550.238 429.578 550.209 429.852 550.15C430.125 550.092 430.379 550.014 430.613 549.916C430.848 549.818 430.975 549.73 430.994 549.652C431.072 549.379 431.121 549.066 431.141 548.715C431.18 548.363 431.199 547.992 431.199 547.602V542.064C431.199 541.322 431.062 540.795 430.789 540.482C430.594 540.229 430.359 540.072 430.086 540.014C429.812 539.936 429.578 539.896 429.383 539.896C429.188 539.877 429.09 539.848 429.09 539.809C429.09 539.34 429.148 539.096 429.266 539.076C430.301 538.92 431.092 538.793 431.639 538.695C432.186 538.578 432.674 538.471 433.104 538.373L433.455 538.285C433.533 538.266 433.582 538.344 433.602 538.52C433.621 538.695 433.621 538.822 433.602 538.9C433.562 539.291 433.523 539.662 433.484 540.014C433.465 540.365 433.455 540.697 433.455 541.01V547.045C433.455 547.611 433.475 548.109 433.514 548.539C433.553 548.969 433.611 549.34 433.689 549.652C433.729 549.73 433.865 549.818 434.1 549.916C434.334 550.014 434.588 550.092 434.861 550.15C435.135 550.209 435.33 550.238 435.447 550.238C435.506 550.238 435.545 550.355 435.564 550.59C435.584 550.824 435.574 550.99 435.535 551.088L432.4 550.941L429.207 551.088ZM432.107 535.092C431.717 535.092 431.375 534.945 431.082 534.652C430.789 534.359 430.643 534.018 430.643 533.627C430.643 533.217 430.789 532.875 431.082 532.602C431.375 532.309 431.717 532.162 432.107 532.162C432.518 532.162 432.859 532.309 433.133 532.602C433.426 532.875 433.572 533.217 433.572 533.627C433.572 534.018 433.426 534.359 433.133 534.652C432.859 534.945 432.518 535.092 432.107 535.092ZM441.541 551.322C440.936 551.322 440.389 551.254 439.9 551.117C439.412 550.98 438.816 550.863 438.113 550.766C438.035 550.551 437.957 550.258 437.879 549.887C437.801 549.516 437.732 549.125 437.674 548.715C437.635 548.305 437.615 547.973 437.615 547.719C437.771 547.602 437.889 547.543 437.967 547.543C438.26 547.543 438.416 547.602 438.436 547.719C438.514 548.109 438.709 548.5 439.021 548.891C439.334 549.281 439.715 549.613 440.164 549.887C440.613 550.141 441.072 550.268 441.541 550.268C442.166 550.268 442.674 550.102 443.064 549.77C443.475 549.418 443.68 548.92 443.68 548.275C443.68 547.592 443.416 547.025 442.889 546.576C442.479 546.244 442.127 546.01 441.834 545.873C441.561 545.717 441.287 545.58 441.014 545.463C440.76 545.326 440.438 545.141 440.047 544.906C438.523 544.027 437.762 542.982 437.762 541.771C437.762 541.068 437.957 540.453 438.348 539.926C438.738 539.379 439.256 538.959 439.9 538.666C440.564 538.354 441.268 538.197 442.01 538.197C442.225 538.197 442.469 538.217 442.742 538.256C443.016 538.275 443.318 538.305 443.65 538.344C443.982 538.402 444.256 538.451 444.471 538.49C444.686 538.529 444.861 538.559 444.998 538.578C445.213 539.477 445.33 540.473 445.35 541.566C445.35 541.664 445.223 541.713 444.969 541.713C444.695 541.713 444.549 541.645 444.529 541.508C444.432 540.961 444.148 540.443 443.68 539.955C443.23 539.467 442.713 539.223 442.127 539.223C440.721 539.223 440.018 539.799 440.018 540.951C440.018 541.244 440.047 541.508 440.105 541.742C440.184 541.957 440.35 542.162 440.604 542.357C441.209 542.826 441.922 543.295 442.742 543.764C443.582 544.232 444.275 544.672 444.822 545.082C445.643 545.707 446.053 546.439 446.053 547.279C446.053 548.041 445.848 548.734 445.438 549.359C445.027 549.965 444.48 550.443 443.797 550.795C443.113 551.146 442.361 551.322 441.541 551.322ZM453.934 551.176C452.859 551.176 451.873 550.893 450.975 550.326C450.076 549.76 449.354 549.008 448.807 548.07C448.279 547.113 448.016 546.049 448.016 544.877C448.016 543.666 448.23 542.562 448.66 541.566C449.109 540.551 449.754 539.74 450.594 539.135C451.453 538.529 452.488 538.227 453.699 538.227C455.848 538.227 457.332 538.725 458.152 539.721C458.152 541.029 457.791 541.684 457.068 541.684C456.736 541.684 456.482 541.615 456.307 541.479C456.131 541.322 455.906 541.049 455.633 540.658C455.027 539.76 454.305 539.311 453.465 539.311C452.664 539.311 451.932 539.691 451.268 540.453C450.623 541.215 450.301 542.348 450.301 543.852C450.301 545.414 450.682 546.713 451.443 547.748C452.225 548.783 453.299 549.301 454.666 549.301C455.486 549.301 456.17 549.184 456.717 548.949C457.283 548.695 457.693 548.471 457.947 548.275L458.152 548.129C458.27 548.129 458.328 548.256 458.328 548.51C458.328 548.646 458.27 548.822 458.152 549.037C457.762 549.584 457.186 550.082 456.424 550.531C455.662 550.961 454.832 551.176 453.934 551.176ZM466.297 551.205C465.125 551.205 464.051 550.912 463.074 550.326C462.098 549.74 461.316 548.949 460.73 547.953C460.164 546.957 459.881 545.863 459.881 544.672C459.881 543.461 460.154 542.367 460.701 541.391C461.268 540.414 462.029 539.643 462.986 539.076C463.943 538.49 465.027 538.197 466.238 538.197C467.41 538.197 468.475 538.49 469.432 539.076C470.408 539.662 471.18 540.443 471.746 541.42C472.332 542.396 472.625 543.48 472.625 544.672C472.625 545.863 472.342 546.957 471.775 547.953C471.209 548.949 470.447 549.74 469.49 550.326C468.553 550.912 467.488 551.205 466.297 551.205ZM466.561 550.062C467.264 550.062 467.879 549.838 468.406 549.389C468.934 548.939 469.344 548.334 469.637 547.572C469.949 546.811 470.105 545.98 470.105 545.082C470.105 544.027 469.91 543.07 469.52 542.211C469.129 541.332 468.611 540.639 467.967 540.131C467.342 539.604 466.658 539.34 465.916 539.34C465.232 539.34 464.617 539.564 464.07 540.014C463.543 540.443 463.133 541.029 462.84 541.771C462.547 542.494 462.4 543.314 462.4 544.232C462.4 545.287 462.586 546.264 462.957 547.162C463.348 548.041 463.855 548.744 464.48 549.271C465.125 549.799 465.818 550.062 466.561 550.062ZM480.652 551.205C480.496 550.834 480.232 550.229 479.861 549.389C479.51 548.549 479.051 547.475 478.484 546.166C477.918 544.838 477.391 543.646 476.902 542.592C476.414 541.518 475.955 540.561 475.525 539.721C475.311 539.33 474.734 539.135 473.797 539.135C473.719 539.135 473.68 539.008 473.68 538.754C473.68 538.52 473.719 538.363 473.797 538.285C474.305 538.305 474.812 538.334 475.32 538.373C475.828 538.412 476.336 538.432 476.844 538.432C477.332 538.432 477.82 538.412 478.309 538.373C478.797 538.334 479.285 538.305 479.773 538.285C479.812 538.363 479.812 538.529 479.773 538.783C479.754 539.018 479.715 539.135 479.656 539.135C478.699 539.135 478.221 539.301 478.221 539.633C478.221 539.652 478.23 539.691 478.25 539.75C478.27 539.789 478.289 539.828 478.309 539.867L481.766 547.689L484.725 540.951C484.822 540.756 484.881 540.59 484.9 540.453C484.939 540.297 484.959 540.17 484.959 540.072C484.959 539.447 484.256 539.135 482.85 539.135C482.771 539.135 482.732 539.008 482.732 538.754C482.732 538.52 482.771 538.363 482.85 538.285C483.064 538.305 483.465 538.344 484.051 538.402C484.637 538.441 485.164 538.451 485.633 538.432L488.562 538.285C488.602 538.441 488.621 538.588 488.621 538.725C488.621 538.998 488.553 539.135 488.416 539.135C488.143 539.135 487.781 539.213 487.332 539.369C486.883 539.525 486.58 539.779 486.424 540.131L481.766 550.648C481.629 550.961 481.424 551.156 481.15 551.234C480.877 551.332 480.711 551.322 480.652 551.205ZM495.184 551.176C494.109 551.176 493.123 550.893 492.225 550.326C491.326 549.76 490.604 549.008 490.057 548.07C489.529 547.113 489.266 546.049 489.266 544.877C489.266 543.51 489.52 542.328 490.027 541.332C490.535 540.336 491.229 539.574 492.107 539.047C492.986 538.5 493.973 538.227 495.066 538.227C495.965 538.227 496.756 538.402 497.439 538.754C498.123 539.086 498.65 539.516 499.021 540.043C499.373 540.59 499.627 541.146 499.783 541.713C499.959 542.26 500.047 542.807 500.047 543.354C500.047 543.744 499.988 543.988 499.871 544.086C499.754 544.164 499.529 544.203 499.197 544.203H491.814C491.658 544.203 491.58 544.252 491.58 544.35C491.58 545.17 491.746 545.961 492.078 546.723C492.41 547.465 492.898 548.08 493.543 548.568C494.188 549.057 494.979 549.301 495.916 549.301C496.736 549.301 497.42 549.184 497.967 548.949C498.533 548.695 498.943 548.471 499.197 548.275L499.402 548.129C499.52 548.129 499.578 548.256 499.578 548.51C499.578 548.646 499.52 548.822 499.402 549.037C499.012 549.584 498.436 550.082 497.674 550.531C496.912 550.961 496.082 551.176 495.184 551.176ZM491.814 542.973H497.527C497.625 542.973 497.674 542.875 497.674 542.68C497.674 542.25 497.557 541.781 497.322 541.273C497.107 540.746 496.775 540.287 496.326 539.896C495.877 539.506 495.311 539.311 494.627 539.311C494.002 539.311 493.465 539.525 493.016 539.955C492.566 540.365 492.225 540.844 491.99 541.391C491.756 541.918 491.639 542.377 491.639 542.768C491.639 542.904 491.697 542.973 491.814 542.973ZM501.863 551.088C501.785 551.01 501.746 550.844 501.746 550.59C501.746 550.355 501.785 550.238 501.863 550.238C502.02 550.238 502.234 550.209 502.508 550.15C502.781 550.092 503.035 550.014 503.27 549.916C503.504 549.818 503.631 549.73 503.65 549.652C503.729 549.379 503.777 549.066 503.797 548.715C503.836 548.363 503.855 547.992 503.855 547.602V542.064C503.855 541.322 503.719 540.795 503.445 540.482C503.25 540.248 503.016 540.092 502.742 540.014C502.488 539.936 502.254 539.896 502.039 539.896C501.844 539.877 501.746 539.848 501.746 539.809C501.746 539.34 501.805 539.096 501.922 539.076C504.051 538.744 505.281 538.529 505.613 538.432L506.111 538.285C506.189 538.266 506.238 538.344 506.258 538.52C506.277 538.695 506.277 538.822 506.258 538.9L506.082 540.365C506.434 539.838 506.912 539.35 507.518 538.9C508.143 538.432 508.758 538.197 509.363 538.197C510.496 538.197 511.258 538.48 511.648 539.047C511.648 539.73 511.541 540.229 511.326 540.541C511.111 540.854 510.848 541.01 510.535 541.01C510.184 541.01 509.861 540.844 509.568 540.512C509.275 540.18 508.875 540.014 508.367 540.014C507.977 540.014 507.605 540.15 507.254 540.424C506.902 540.678 506.619 541.01 506.404 541.42C506.209 541.811 506.111 542.221 506.111 542.65V547.045C506.111 547.611 506.131 548.109 506.17 548.539C506.209 548.969 506.268 549.34 506.346 549.652C506.385 549.73 506.521 549.818 506.756 549.916C506.99 550.014 507.244 550.092 507.518 550.15C507.811 550.209 508.016 550.238 508.133 550.238C508.191 550.238 508.23 550.355 508.25 550.59C508.27 550.824 508.26 550.99 508.221 551.088L505.057 550.941L501.863 551.088ZM519.529 551.088C519.432 550.99 519.383 550.844 519.383 550.648C519.383 550.375 519.432 550.238 519.529 550.238C519.725 550.238 519.979 550.209 520.291 550.15C520.604 550.092 520.906 550.014 521.199 549.916C521.492 549.818 521.697 549.711 521.814 549.594C522.146 549.242 522.322 548.393 522.342 547.045C522.381 544.779 522.42 542.748 522.459 540.951C522.518 539.135 522.566 537.65 522.605 536.498C522.645 535.326 522.664 534.574 522.664 534.242C522.664 533.715 522.625 533.324 522.547 533.07C522.508 532.953 522.332 532.855 522.02 532.777C521.727 532.68 521.404 532.602 521.053 532.543C520.701 532.484 520.428 532.455 520.232 532.455C520.154 532.455 520.115 532.318 520.115 532.045C520.115 531.83 520.154 531.684 520.232 531.605C520.701 531.625 521.219 531.654 521.785 531.693C522.352 531.732 522.928 531.752 523.514 531.752C523.885 531.752 524.285 531.742 524.715 531.723C525.164 531.684 525.662 531.645 526.209 531.605C526.365 532.035 528.299 536.928 532.01 546.283C532.049 546.322 532.088 546.342 532.127 546.342C532.205 546.342 532.254 546.303 532.273 546.225C533.23 543.979 534.09 541.928 534.852 540.072C535.613 538.217 536.277 536.566 536.844 535.121L538.016 531.605C538.641 531.645 539.148 531.674 539.539 531.693C539.949 531.713 540.252 531.723 540.447 531.723C541.053 531.723 541.629 531.713 542.176 531.693C542.723 531.674 543.24 531.645 543.729 531.605C543.787 531.781 543.816 531.928 543.816 532.045C543.816 532.318 543.768 532.455 543.67 532.455H543.611C543.396 532.455 543.113 532.523 542.762 532.66C542.41 532.777 542.146 532.904 541.971 533.041C541.736 533.217 541.619 533.871 541.619 535.004L541.883 546.898C541.922 548.031 542.068 548.93 542.322 549.594C542.381 549.711 542.537 549.818 542.791 549.916C543.045 550.014 543.318 550.092 543.611 550.15C543.924 550.209 544.148 550.238 544.285 550.238C544.363 550.238 544.402 550.375 544.402 550.648C544.402 550.785 544.383 550.932 544.344 551.088C543.367 551.049 542.586 551.02 542 551C541.434 550.961 541.053 550.941 540.857 550.941L537.342 551.088C537.264 551.01 537.225 550.854 537.225 550.619C537.225 550.365 537.264 550.238 537.342 550.238C537.537 550.238 537.83 550.189 538.221 550.092C538.631 549.994 538.924 549.896 539.1 549.799C539.334 549.643 539.451 549.223 539.451 548.539V546.986L539.1 536.674C539.1 536.459 539.07 536.225 539.012 535.971C538.973 535.697 538.924 535.463 538.865 535.268C538.807 535.053 538.738 534.945 538.66 534.945C538.621 534.945 538.572 535.014 538.514 535.15L532.391 549.799C532.02 550.639 531.658 551.059 531.307 551.059C531.287 551.059 531.199 551.039 531.043 551L524.334 533.949C524.275 536.703 524.207 539.164 524.129 541.332C524.051 543.48 523.982 545.209 523.924 546.518C523.885 547.826 523.865 548.588 523.865 548.803C523.865 549.154 523.924 549.408 524.041 549.564C524.119 549.662 524.314 549.77 524.627 549.887C524.939 549.984 525.262 550.072 525.594 550.15C525.945 550.209 526.18 550.238 526.297 550.238C526.375 550.238 526.414 550.385 526.414 550.678C526.414 550.795 526.395 550.932 526.355 551.088C525.379 551.049 524.607 551.02 524.041 551C523.475 550.961 523.113 550.941 522.957 550.941L519.529 551.088ZM552.781 551.205C551.609 551.205 550.535 550.912 549.559 550.326C548.582 549.74 547.801 548.949 547.215 547.953C546.648 546.957 546.365 545.863 546.365 544.672C546.365 543.461 546.639 542.367 547.186 541.391C547.752 540.414 548.514 539.643 549.471 539.076C550.428 538.49 551.512 538.197 552.723 538.197C553.895 538.197 554.959 538.49 555.916 539.076C556.893 539.662 557.664 540.443 558.23 541.42C558.816 542.396 559.109 543.48 559.109 544.672C559.109 545.863 558.826 546.957 558.26 547.953C557.693 548.949 556.932 549.74 555.975 550.326C555.037 550.912 553.973 551.205 552.781 551.205ZM553.045 550.062C553.748 550.062 554.363 549.838 554.891 549.389C555.418 548.939 555.828 548.334 556.121 547.572C556.434 546.811 556.59 545.98 556.59 545.082C556.59 544.027 556.395 543.07 556.004 542.211C555.613 541.332 555.096 540.639 554.451 540.131C553.826 539.604 553.143 539.34 552.4 539.34C551.717 539.34 551.102 539.564 550.555 540.014C550.027 540.443 549.617 541.029 549.324 541.771C549.031 542.494 548.885 543.314 548.885 544.232C548.885 545.287 549.07 546.264 549.441 547.162C549.832 548.041 550.34 548.744 550.965 549.271C551.609 549.799 552.303 550.062 553.045 550.062ZM561.307 551.088C561.229 551.01 561.189 550.844 561.189 550.59C561.189 550.355 561.229 550.238 561.307 550.238C561.463 550.238 561.678 550.209 561.951 550.15C562.225 550.092 562.479 550.014 562.713 549.916C562.947 549.818 563.074 549.73 563.094 549.652C563.172 549.379 563.221 549.066 563.24 548.715C563.279 548.363 563.299 547.992 563.299 547.602V542.064C563.299 541.322 563.162 540.795 562.889 540.482C562.693 540.248 562.459 540.092 562.186 540.014C561.932 539.936 561.697 539.896 561.482 539.896C561.287 539.877 561.189 539.848 561.189 539.809C561.189 539.34 561.248 539.096 561.365 539.076C563.494 538.744 564.725 538.529 565.057 538.432L565.555 538.285C565.633 538.266 565.682 538.344 565.701 538.52C565.721 538.695 565.721 538.822 565.701 538.9L565.525 540.365C565.877 539.838 566.355 539.35 566.961 538.9C567.586 538.432 568.201 538.197 568.807 538.197C569.939 538.197 570.701 538.48 571.092 539.047C571.092 539.73 570.984 540.229 570.77 540.541C570.555 540.854 570.291 541.01 569.979 541.01C569.627 541.01 569.305 540.844 569.012 540.512C568.719 540.18 568.318 540.014 567.811 540.014C567.42 540.014 567.049 540.15 566.697 540.424C566.346 540.678 566.062 541.01 565.848 541.42C565.652 541.811 565.555 542.221 565.555 542.65V547.045C565.555 547.611 565.574 548.109 565.613 548.539C565.652 548.969 565.711 549.34 565.789 549.652C565.828 549.73 565.965 549.818 566.199 549.916C566.434 550.014 566.688 550.092 566.961 550.15C567.254 550.209 567.459 550.238 567.576 550.238C567.635 550.238 567.674 550.355 567.693 550.59C567.713 550.824 567.703 550.99 567.664 551.088L564.5 550.941L561.307 551.088ZM578.357 551.176C577.283 551.176 576.297 550.893 575.398 550.326C574.5 549.76 573.777 549.008 573.23 548.07C572.703 547.113 572.439 546.049 572.439 544.877C572.439 543.51 572.693 542.328 573.201 541.332C573.709 540.336 574.402 539.574 575.281 539.047C576.16 538.5 577.146 538.227 578.24 538.227C579.139 538.227 579.93 538.402 580.613 538.754C581.297 539.086 581.824 539.516 582.195 540.043C582.547 540.59 582.801 541.146 582.957 541.713C583.133 542.26 583.221 542.807 583.221 543.354C583.221 543.744 583.162 543.988 583.045 544.086C582.928 544.164 582.703 544.203 582.371 544.203H574.988C574.832 544.203 574.754 544.252 574.754 544.35C574.754 545.17 574.92 545.961 575.252 546.723C575.584 547.465 576.072 548.08 576.717 548.568C577.361 549.057 578.152 549.301 579.09 549.301C579.91 549.301 580.594 549.184 581.141 548.949C581.707 548.695 582.117 548.471 582.371 548.275L582.576 548.129C582.693 548.129 582.752 548.256 582.752 548.51C582.752 548.646 582.693 548.822 582.576 549.037C582.186 549.584 581.609 550.082 580.848 550.531C580.086 550.961 579.256 551.176 578.357 551.176ZM574.988 542.973H580.701C580.799 542.973 580.848 542.875 580.848 542.68C580.848 542.25 580.73 541.781 580.496 541.273C580.281 540.746 579.949 540.287 579.5 539.896C579.051 539.506 578.484 539.311 577.801 539.311C577.176 539.311 576.639 539.525 576.189 539.955C575.74 540.365 575.398 540.844 575.164 541.391C574.93 541.918 574.812 542.377 574.812 542.768C574.812 542.904 574.871 542.973 574.988 542.973Z" fill="black"/>
<rect x="1016.5" y="408.5" width="49" height="24" stroke="black"/>
<path d="M1031.35 414.909L1034.73 420.355H1034.83L1038.2 414.909H1040.07L1035.95 421.455L1040.07 428H1038.2L1034.83 422.656H1034.73L1031.35 428H1029.49L1033.7 421.455L1029.49 414.909H1031.35ZM1049.29 418.182C1049.22 417.534 1048.91 417.031 1048.36 416.673C1047.81 416.315 1047.15 416.136 1046.35 416.136C1045.77 416.136 1045.27 416.23 1044.83 416.418C1044.4 416.605 1044.06 416.863 1043.82 417.191C1043.58 417.519 1043.46 417.892 1043.46 418.31C1043.46 418.659 1043.55 418.96 1043.71 419.211C1043.88 419.458 1044.1 419.665 1044.36 419.831C1044.63 419.993 1044.91 420.127 1045.2 420.234C1045.49 420.336 1045.75 420.419 1045.99 420.483L1047.32 420.841C1047.67 420.93 1048.04 421.054 1048.46 421.212C1048.88 421.369 1049.29 421.585 1049.67 421.857C1050.06 422.126 1050.38 422.471 1050.63 422.893C1050.88 423.315 1051.01 423.832 1051.01 424.446C1051.01 425.153 1050.82 425.793 1050.45 426.364C1050.08 426.935 1049.55 427.388 1048.84 427.725C1048.14 428.062 1047.28 428.23 1046.28 428.23C1045.34 428.23 1044.53 428.079 1043.84 427.776C1043.16 427.474 1042.62 427.052 1042.23 426.511C1041.84 425.969 1041.62 425.341 1041.57 424.625H1043.21C1043.25 425.119 1043.42 425.528 1043.71 425.852C1044 426.172 1044.37 426.411 1044.82 426.568C1045.27 426.722 1045.76 426.798 1046.28 426.798C1046.88 426.798 1047.42 426.7 1047.91 426.504C1048.39 426.304 1048.77 426.027 1049.05 425.673C1049.33 425.315 1049.47 424.898 1049.47 424.42C1049.47 423.986 1049.35 423.632 1049.11 423.359C1048.86 423.087 1048.55 422.865 1048.15 422.695C1047.75 422.524 1047.32 422.375 1046.86 422.247L1045.25 421.787C1044.23 421.493 1043.42 421.073 1042.82 420.528C1042.23 419.982 1041.93 419.268 1041.93 418.386C1041.93 417.653 1042.13 417.014 1042.52 416.469C1042.92 415.919 1043.46 415.493 1044.13 415.19C1044.81 414.884 1045.57 414.73 1046.4 414.73C1047.25 414.73 1048 414.881 1048.65 415.184C1049.31 415.482 1049.83 415.891 1050.21 416.411C1050.6 416.931 1050.81 417.521 1050.83 418.182H1049.29Z" fill="black"/>
<path d="M1109.74 416.182C1109.67 415.534 1109.36 415.031 1108.81 414.673C1108.27 414.315 1107.6 414.136 1106.8 414.136C1106.22 414.136 1105.72 414.23 1105.28 414.418C1104.85 414.605 1104.52 414.863 1104.27 415.191C1104.03 415.519 1103.91 415.892 1103.91 416.31C1103.91 416.659 1104 416.96 1104.16 417.211C1104.33 417.458 1104.55 417.665 1104.82 417.831C1105.08 417.993 1105.36 418.127 1105.65 418.234C1105.94 418.336 1106.2 418.419 1106.45 418.483L1107.78 418.841C1108.12 418.93 1108.5 419.054 1108.91 419.212C1109.34 419.369 1109.74 419.585 1110.12 419.857C1110.51 420.126 1110.83 420.471 1111.08 420.893C1111.33 421.315 1111.46 421.832 1111.46 422.446C1111.46 423.153 1111.27 423.793 1110.9 424.364C1110.53 424.935 1110 425.388 1109.29 425.725C1108.59 426.062 1107.73 426.23 1106.73 426.23C1105.79 426.23 1104.98 426.079 1104.29 425.776C1103.61 425.474 1103.07 425.052 1102.68 424.511C1102.29 423.969 1102.07 423.341 1102.02 422.625H1103.66C1103.7 423.119 1103.87 423.528 1104.16 423.852C1104.45 424.172 1104.82 424.411 1105.27 424.568C1105.72 424.722 1106.21 424.798 1106.73 424.798C1107.33 424.798 1107.88 424.7 1108.36 424.504C1108.84 424.304 1109.22 424.027 1109.5 423.673C1109.78 423.315 1109.92 422.898 1109.92 422.42C1109.92 421.986 1109.8 421.632 1109.56 421.359C1109.32 421.087 1109 420.865 1108.6 420.695C1108.2 420.524 1107.78 420.375 1107.32 420.247L1105.7 419.787C1104.68 419.493 1103.87 419.073 1103.28 418.528C1102.68 417.982 1102.38 417.268 1102.38 416.386C1102.38 415.653 1102.58 415.014 1102.98 414.469C1103.38 413.919 1103.91 413.493 1104.59 413.19C1105.26 412.884 1106.02 412.73 1106.86 412.73C1107.7 412.73 1108.45 412.881 1109.11 413.184C1109.76 413.482 1110.28 413.891 1110.66 414.411C1111.05 414.931 1111.26 415.521 1111.28 416.182H1109.74Z" fill="black"/>
<rect x="1082.5" y="408.5" width="49" height="24" stroke="black"/>
<rect x="1148.5" y="408.5" width="49" height="24" stroke="black"/>
<path d="M1166.59 413.909H1168.48L1172.93 424.776H1173.08L1177.53 413.909H1179.42V427H1177.94V417.054H1177.81L1173.72 427H1172.29L1168.2 417.054H1168.07V427H1166.59V413.909Z" fill="black"/>
<path d="M1234.59 426V412.909H1236.17V424.594H1242.26V426H1234.59Z" fill="black"/>
<rect x="1214.5" y="408.5" width="49" height="24" stroke="black"/>
<path d="M1234.59 426V412.909H1236.17V424.594H1242.26V426H1234.59Z" fill="black"/>
<rect x="1214.5" y="408.5" width="49" height="24" stroke="black"/>
<path d="M1296.35 412.909L1299.73 418.355H1299.83L1303.2 412.909H1305.07L1300.95 419.455L1305.07 426H1303.2L1299.83 420.656H1299.73L1296.35 426H1294.49L1298.7 419.455L1294.49 412.909H1296.35ZM1307.13 426V412.909H1308.72V424.594H1314.8V426H1307.13Z" fill="black"/>
<rect x="1280.5" y="408.5" width="49" height="24" stroke="black"/>
<rect x="1346.5" y="408.5" width="49" height="24" stroke="black"/>
<path d="M1356.35 413.909L1359.73 419.355H1359.83L1363.2 413.909H1365.07L1360.95 420.455L1365.07 427H1363.2L1359.83 421.656H1359.73L1356.35 427H1354.49L1358.7 420.455L1354.49 413.909H1356.35ZM1367.9 413.909L1371.28 419.355H1371.38L1374.75 413.909H1376.62L1372.5 420.455L1376.62 427H1374.75L1371.38 421.656H1371.28L1367.9 427H1366.03L1370.25 420.455L1366.03 413.909H1367.9ZM1378.68 427V413.909H1380.27V425.594H1386.35V427H1378.68Z" fill="black"/>
<circle cx="80" cy="428" r="19" fill="#B7A35C" stroke="#1E1E1E" stroke-width="2"/>
<circle cx="80" cy="428" r="20" fill="#B7A35C"/>
<circle cx="128" cy="428" r="20" fill="#91915A"/>
<circle cx="128" cy="428" r="19" fill="#91915A" stroke="black" stroke-width="2"/>
<circle cx="176" cy="428" r="20" fill="#997764"/>
<circle cx="176" cy="428" r="20" fill="#997764"/>
<circle cx="224" cy="428" r="20" fill="#D18647"/>
<circle cx="272" cy="428" r="20" fill="#D9D9D9"/>
<circle cx="272" cy="428" r="20" fill="#F9D3B7"/>
<circle cx="320" cy="428" r="20" fill="#ACBEE5"/>
<circle cx="368" cy="428" r="20" fill="#7D88A6"/>
<circle cx="416" cy="428" r="20" fill="#4E69A5"/>
<path d="M1055.66 552.1C1055.57 552.011 1055.52 551.823 1055.52 551.535C1055.52 551.27 1055.57 551.137 1055.66 551.137C1055.86 551.137 1056.13 551.104 1056.49 551.037C1056.84 550.971 1057.17 550.882 1057.48 550.771C1057.79 550.661 1057.96 550.561 1057.98 550.473C1058.11 549.941 1058.18 549.311 1058.18 548.58V536.627C1058.18 535.941 1058.16 535.41 1058.11 535.033C1058.07 534.635 1057.94 534.436 1057.71 534.436C1057.56 534.436 1057.26 534.557 1056.82 534.801C1056.4 535.044 1055.99 535.288 1055.59 535.531C1055.46 535.465 1055.32 535.343 1055.19 535.166C1055.06 534.967 1054.99 534.812 1054.99 534.701C1054.99 534.613 1055.01 534.546 1055.06 534.502C1058.8 531.956 1060.71 530.684 1060.8 530.684H1060.87C1061.05 530.684 1061.18 530.894 1061.27 531.314C1061.05 532.001 1060.94 533.041 1060.94 534.436V547.518C1060.94 548.16 1060.96 548.724 1061 549.211C1061.05 549.698 1061.11 550.118 1061.2 550.473C1061.25 550.561 1061.41 550.661 1061.7 550.771C1062.01 550.882 1062.34 550.971 1062.7 551.037C1063.05 551.104 1063.29 551.137 1063.43 551.137C1063.51 551.137 1063.56 551.336 1063.56 551.734C1063.56 551.956 1063.55 552.077 1063.53 552.1C1062.42 552.055 1061.53 552.022 1060.87 552C1060.21 551.956 1059.75 551.934 1059.51 551.934C1059.33 551.934 1058.92 551.956 1058.28 552C1057.64 552.022 1056.76 552.055 1055.66 552.1Z" fill="black"/>
<g clip-path="url(#clip0_397_2377)">
<path d="M1007.22 544.198C1007.06 544.198 1006.98 544.073 1006.98 543.822C1006.98 542.66 1007.12 542.079 1007.39 542.079L1015.7 541.669C1015.83 541.669 1015.9 541.771 1015.9 541.977C1015.9 542.159 1015.88 542.466 1015.83 542.899C1015.79 543.332 1015.7 543.617 1015.56 543.754L1015.46 543.822L1007.22 544.198Z" fill="black"/>
</g>
<rect x="990" y="521" width="42" height="42" rx="9" stroke="black" stroke-width="2"/>
<g clip-path="url(#clip1_397_2377)">
<path d="M1107.16 551.795C1107.05 551.795 1106.99 551.704 1106.99 551.521V544.72C1106.99 544.606 1106.92 544.549 1106.78 544.549H1099.98C1099.85 544.549 1099.78 544.435 1099.78 544.207C1099.78 543.934 1099.87 543.466 1100.05 542.806C1100.07 542.692 1100.14 542.635 1100.26 542.635H1106.82C1106.93 542.635 1106.99 542.566 1106.99 542.43V535.936C1106.94 535.822 1107 535.742 1107.16 535.696C1107.82 535.514 1108.29 535.423 1108.56 535.423L1108.9 535.628V542.464C1108.9 542.578 1108.95 542.635 1109.04 542.635H1115.88C1116.06 542.635 1116.15 542.692 1116.15 542.806C1116.15 543.011 1116.04 543.523 1115.81 544.344C1115.76 544.435 1115.74 544.48 1115.74 544.48C1115.69 544.526 1115.66 544.549 1115.64 544.549H1109.04C1108.95 544.549 1108.9 544.583 1108.9 544.651V551.214C1108.9 551.442 1108.39 551.624 1107.37 551.761H1107.26C1107.24 551.784 1107.21 551.795 1107.16 551.795Z" fill="black"/>
</g>
<rect x="1087" y="521" width="42" height="42" rx="9" stroke="black" stroke-width="2"/>
<path d="M899.448 548.647L907.338 525.202C907.734 524.067 907.434 523.469 907.113 523.019C906.295 521.866 904.615 521.899 904.287 521.899L859.694 521.912L858.504 515.933C858.183 514.601 857.233 513 855.319 513H842.787C841.49 513 841 514.291 841 515.507V518.766C841 519.939 841.486 519.562 842.833 519.562H853.414L861.512 554.285C860.226 555.647 859.526 557.804 859.526 559.659C859.526 563.737 862.772 567.239 866.917 567.239C870.835 567.239 873.769 563.312 874.246 561.125H890.017C890.494 563.312 892.872 567.41 897.343 567.41C901.417 567.41 904.733 564.052 904.733 559.981C904.733 555.93 902.272 552.086 897.385 552.086C895.355 552.086 892.942 552.377 891.822 554.565H872.443C871.037 552.377 869.116 551.697 867.173 551.623L866.907 550.188H896.392C898.614 550.188 899.052 549.719 899.448 548.647ZM864.05 560.062C864.05 558.511 865.312 557.249 866.863 557.249C868.409 557.249 869.669 558.511 869.669 560.062C869.669 561.613 868.409 562.873 866.863 562.873C865.31 562.873 864.05 561.613 864.05 560.062ZM897.4 562.838C895.869 562.838 894.622 561.591 894.622 560.06C894.622 558.528 895.867 557.282 897.4 557.282C898.934 557.282 900.178 558.526 900.178 560.06C900.178 561.591 898.934 562.838 897.4 562.838Z" fill="#B7A35C"/>
<rect x="674" y="520" width="85" height="44" rx="20" fill="#B7A35C"/>
<path d="M702.943 531.182V553H700.386L688.497 535.869H688.284V553H685.642V531.182H688.199L700.131 548.355H700.344V531.182H702.943ZM714.75 553.341C713.173 553.341 711.813 552.993 710.67 552.297C709.533 551.594 708.656 550.614 708.038 549.357C707.427 548.092 707.122 546.622 707.122 544.946C707.122 543.27 707.427 541.793 708.038 540.514C708.656 539.229 709.515 538.227 710.616 537.51C711.724 536.786 713.017 536.423 714.494 536.423C715.346 536.423 716.188 536.565 717.019 536.849C717.85 537.134 718.606 537.595 719.288 538.234C719.97 538.866 720.513 539.705 720.918 540.749C721.323 541.793 721.525 543.078 721.525 544.605V545.67H708.912V543.497H718.969C718.969 542.574 718.784 541.75 718.415 541.026C718.052 540.301 717.534 539.729 716.859 539.31C716.192 538.891 715.403 538.682 714.494 538.682C713.493 538.682 712.626 538.93 711.895 539.428C711.17 539.918 710.613 540.557 710.222 541.345C709.831 542.134 709.636 542.979 709.636 543.881V545.33C709.636 546.565 709.849 547.613 710.275 548.472C710.709 549.325 711.309 549.974 712.076 550.422C712.843 550.862 713.734 551.082 714.75 551.082C715.41 551.082 716.007 550.99 716.54 550.805C717.079 550.614 717.545 550.33 717.935 549.953C718.326 549.57 718.628 549.094 718.841 548.526L721.27 549.207C721.014 550.031 720.584 550.756 719.981 551.381C719.377 551.999 718.631 552.482 717.743 552.83C716.856 553.17 715.858 553.341 714.75 553.341ZM726.786 536.636L730.706 543.327L734.626 536.636H737.524L732.24 544.818L737.524 553H734.626L730.706 546.651L726.786 553H723.888L729.087 544.818L723.888 536.636H726.786ZM748.228 536.636V538.767H739.748V536.636H748.228ZM742.22 532.716H744.734V548.312C744.734 549.023 744.837 549.555 745.043 549.911C745.256 550.259 745.526 550.493 745.852 550.614C746.186 550.727 746.538 550.784 746.907 550.784C747.184 550.784 747.411 550.77 747.589 550.741C747.767 550.706 747.909 550.678 748.015 550.656L748.526 552.915C748.356 552.979 748.118 553.043 747.813 553.107C747.507 553.178 747.12 553.213 746.651 553.213C745.941 553.213 745.245 553.06 744.563 552.755C743.889 552.45 743.328 551.984 742.88 551.359C742.44 550.734 742.22 549.946 742.22 548.994V532.716Z" fill="black"/>
<circle cx="817" cy="428" r="20" fill="white"/>
<circle cx="755" cy="428" r="20" fill="white"/>
<circle cx="695" cy="428" r="17.5" fill="white" stroke="black" stroke-width="5"/>
<circle cx="635" cy="428" r="20" fill="white"/>
<circle cx="635" cy="428" r="20" fill="white"/>
<circle cx="1229" cy="542" r="10" fill="white" stroke="black" stroke-width="2"/>
<circle cx="1331" cy="542" r="10" fill="white" stroke="black" stroke-width="2"/>
<circle cx="1331" cy="542" r="5.5" fill="black"/>
<defs>
<filter id="filter0_i_397_2377" x="60" y="244" width="1344" height="100" filterUnits="userSpaceOnUse" color-interpolation-filters="sRGB">
<feFlood flood-opacity="0" result="BackgroundImageFix"/>
<feBlend mode="normal" in="SourceGraphic" in2="BackgroundImageFix" result="shape"/>
<feColorMatrix in="SourceAlpha" type="matrix" values="0 0 0 0 0 0 0 0 0 0 0 0 0 0 0 0 0 0 127 0" result="hardAlpha"/>
<feOffset dx="8" dy="15"/>
<feGaussianBlur stdDeviation="4"/>
<feComposite in2="hardAlpha" operator="arithmetic" k2="-1" k3="1"/>
<feColorMatrix type="matrix" values="0 0 0 0 0 0 0 0 0 0 0 0 0 0 0 0 0 0 0.25 0"/>
<feBlend mode="normal" in2="shape" result="effect1_innerShadow_397_2377"/>
</filter>
<filter id="filter1_i_397_2377" x="60" y="244" width="1344" height="100" filterUnits="userSpaceOnUse" color-interpolation-filters="sRGB">
<feFlood flood-opacity="0" result="BackgroundImageFix"/>
<feBlend mode="normal" in="SourceGraphic" in2="BackgroundImageFix" result="shape"/>
<feColorMatrix in="SourceAlpha" type="matrix" values="0 0 0 0 0 0 0 0 0 0 0 0 0 0 0 0 0 0 127 0" result="hardAlpha"/>
<feOffset dx="8" dy="15"/>
<feGaussianBlur stdDeviation="4"/>
<feComposite in2="hardAlpha" operator="arithmetic" k2="-1" k3="1"/>
<feColorMatrix type="matrix" values="0 0 0 0 0 0 0 0 0 0 0 0 0 0 0 0 0 0 0.25 0"/>
<feBlend mode="normal" in2="shape" result="effect1_innerShadow_397_2377"/>
</filter>
<clipPath id="clip0_397_2377">
<rect x="989" y="520" width="44" height="44" rx="10" fill="white"/>
</clipPath>
<clipPath id="clip1_397_2377">
<rect x="1086" y="520" width="44" height="44" rx="10" fill="white"/>
</clipPath>
</defs>
</svg>
