<svg width="440" height="956" viewBox="0 0 440 956" fill="none" xmlns="http://www.w3.org/2000/svg">
<g clip-path="url(#clip0_1516_12157)">
<rect width="440" height="956" fill="white"/>
<rect x="0.5" y="0.5" width="439" height="955" fill="white" stroke="#2F2E2E"/>
<circle cx="37" cy="140" r="22" fill="#B3B3B3"/>
<path d="M15 179C15 174.582 18.5817 171 23 171H417C421.418 171 425 174.582 425 179V408C425 412.418 421.418 416 417 416H23C18.5817 416 15 412.418 15 408V179Z" fill="#B3B3B3"/>
<path d="M15 595C15 590.582 18.5817 587 23 587H417C421.418 587 425 590.582 425 595V824C425 828.418 421.418 832 417 832H23C18.5817 832 15 828.418 15 824V595Z" fill="#B3B3B3"/>
<circle cx="37" cy="548" r="22" fill="#B3B3B3"/>
<path d="M391.027 979C391.595 979 392.054 978.596 392.054 978.083V971.281C392.392 971.147 393.662 970.706 395.649 970.706C400.649 970.706 403.784 972.92 408.541 972.92C410.649 972.92 411.432 972.713 412.459 972.297C413.392 971.917 414 971.281 414 970.156V957.74C414 957.08 413.378 956.7 412.595 956.7C411.932 956.7 410.689 957.214 408.365 957.214C403.608 957.214 400.486 955 395.473 955C393.365 955 392.568 955.208 391.541 955.624C390.608 956.003 390 956.639 390 957.752V978.083C390 978.584 390.473 979 391.027 979ZM408.541 971.073C404.041 971.073 400.851 968.859 395.649 968.859C394.162 968.859 392.811 969.018 392.054 969.3V957.813C392.243 957.41 393.365 956.847 395.473 956.847C400.23 956.847 403.405 959.061 408.365 959.061C409.838 959.061 411.054 958.902 411.959 958.67V970.107C411.77 970.511 410.649 971.073 408.541 971.073Z" stroke="#2F2E2E"/>
<circle cx="37" cy="969" r="22" fill="#B3B3B3"/>
<rect x="0.5" y="0.5" width="439" height="105" fill="white" stroke="#2F2E2E"/>
<path d="M127.202 79V60.8182H138.104V62.7713H129.403V68.9148H137.287V70.8679H129.403V79H127.202ZM141.444 79V65.3636H143.468V67.4233H143.61C143.859 66.7486 144.309 66.2011 144.96 65.7809C145.611 65.3607 146.345 65.1506 147.161 65.1506C147.315 65.1506 147.508 65.1535 147.738 65.1594C147.969 65.1654 148.144 65.1742 148.262 65.1861V67.3168C148.191 67.299 148.028 67.2724 147.774 67.2369C147.525 67.1954 147.262 67.1747 146.984 67.1747C146.321 67.1747 145.729 67.3138 145.208 67.592C144.693 67.8642 144.285 68.243 143.983 68.7283C143.687 69.2077 143.539 69.7552 143.539 70.3707V79H141.444ZM150.746 79V65.3636H152.841V79H150.746ZM151.811 63.0909C151.403 63.0909 151.051 62.9518 150.755 62.6737C150.465 62.3955 150.32 62.0611 150.32 61.6705C150.32 61.2798 150.465 60.9454 150.755 60.6673C151.051 60.3891 151.403 60.25 151.811 60.25C152.219 60.25 152.569 60.3891 152.859 60.6673C153.155 60.9454 153.303 61.2798 153.303 61.6705C153.303 62.0611 153.155 62.3955 152.859 62.6737C152.569 62.9518 152.219 63.0909 151.811 63.0909ZM162.396 79.2841C161.082 79.2841 159.948 78.9941 158.995 78.4141C158.049 77.8281 157.318 77.0114 156.803 75.9638C156.294 74.9103 156.039 73.6851 156.039 72.2884C156.039 70.8916 156.294 69.6605 156.803 68.5952C157.318 67.5239 158.034 66.6894 158.951 66.0916C159.874 65.4879 160.952 65.1861 162.183 65.1861C162.893 65.1861 163.594 65.3045 164.287 65.5412C164.979 65.7779 165.609 66.1626 166.178 66.6953C166.746 67.2221 167.199 67.9205 167.536 68.7905C167.873 69.6605 168.042 70.7318 168.042 72.0043V72.892H157.531V71.081H165.911C165.911 70.3116 165.757 69.625 165.45 69.0213C165.148 68.4176 164.716 67.9412 164.153 67.592C163.597 67.2428 162.94 67.0682 162.183 67.0682C161.348 67.0682 160.626 67.2753 160.016 67.6896C159.413 68.098 158.948 68.6307 158.623 69.2876C158.297 69.9446 158.134 70.6489 158.134 71.4006V72.608C158.134 73.6378 158.312 74.5108 158.667 75.2269C159.028 75.9371 159.528 76.4787 160.167 76.8516C160.807 77.2185 161.549 77.402 162.396 77.402C162.946 77.402 163.443 77.325 163.887 77.1712C164.337 77.0114 164.725 76.7746 165.05 76.4609C165.376 76.1413 165.627 75.7448 165.805 75.2713L167.829 75.8395C167.616 76.526 167.258 77.1297 166.755 77.6506C166.252 78.1655 165.63 78.5679 164.89 78.858C164.151 79.142 163.319 79.2841 162.396 79.2841ZM173.324 70.7969V79H171.229V65.3636H173.253V67.4943H173.431C173.75 66.8018 174.236 66.2455 174.887 65.8253C175.538 65.3991 176.378 65.1861 177.408 65.1861C178.331 65.1861 179.139 65.3755 179.832 65.7543C180.524 66.1271 181.063 66.6953 181.448 67.4588C181.832 68.2164 182.025 69.1752 182.025 70.3352V79H179.929V70.4773C179.929 69.406 179.651 68.5715 179.095 67.9737C178.539 67.37 177.775 67.0682 176.804 67.0682C176.136 67.0682 175.538 67.2132 175.011 67.5032C174.49 67.7932 174.079 68.2164 173.777 68.7727C173.475 69.3291 173.324 70.0038 173.324 70.7969ZM191.002 79.2841C189.866 79.2841 188.863 78.997 187.993 78.4229C187.123 77.8429 186.442 77.0262 185.951 75.9727C185.46 74.9132 185.214 73.6615 185.214 72.2173C185.214 70.785 185.46 69.5421 185.951 68.4886C186.442 67.4351 187.126 66.6213 188.002 66.0472C188.878 65.4731 189.89 65.1861 191.038 65.1861C191.926 65.1861 192.627 65.334 193.142 65.63C193.663 65.92 194.059 66.2514 194.331 66.6243C194.61 66.9912 194.826 67.2931 194.98 67.5298H195.157V60.8182H197.252V79H195.228V76.9048H194.98C194.826 77.1534 194.607 77.4671 194.323 77.8459C194.039 78.2187 193.633 78.5531 193.106 78.8491C192.58 79.1391 191.878 79.2841 191.002 79.2841ZM191.286 77.402C192.127 77.402 192.837 77.183 193.417 76.745C193.997 76.3011 194.438 75.6886 194.74 74.9073C195.042 74.1201 195.193 73.2116 195.193 72.1818C195.193 71.1638 195.045 70.2731 194.749 69.5096C194.453 68.7402 194.015 68.1424 193.435 67.7163C192.855 67.2842 192.139 67.0682 191.286 67.0682C190.399 67.0682 189.659 67.296 189.067 67.7518C188.481 68.2016 188.04 68.8142 187.744 69.5895C187.454 70.3589 187.309 71.223 187.309 72.1818C187.309 73.1525 187.457 74.0343 187.753 74.8274C188.055 75.6146 188.499 76.242 189.085 76.7095C189.677 77.1712 190.41 77.402 191.286 77.402ZM203.476 60.8182V79H201.381V60.8182H203.476ZM208.663 84.1136C208.307 84.1136 207.991 84.084 207.713 84.0249C207.434 83.9716 207.242 83.9183 207.136 83.8651L207.668 82.0185C208.177 82.1487 208.627 82.196 209.018 82.1605C209.408 82.125 209.755 81.9504 210.056 81.6367C210.364 81.329 210.645 80.8288 210.9 80.1364L211.29 79.071L206.248 65.3636H208.521L212.285 76.2301H212.427L216.191 65.3636H218.464L212.675 80.9886C212.415 81.6929 212.092 82.2759 211.708 82.7376C211.323 83.2051 210.876 83.5514 210.367 83.7763C209.864 84.0012 209.296 84.1136 208.663 84.1136ZM221.513 79V60.8182H232.415V62.7713H223.715V68.9148H231.598V70.8679H223.715V79H221.513ZM240.618 79.2841C239.304 79.2841 238.171 78.9941 237.218 78.4141C236.271 77.8281 235.54 77.0114 235.025 75.9638C234.516 74.9103 234.262 73.6851 234.262 72.2884C234.262 70.8916 234.516 69.6605 235.025 68.5952C235.54 67.5239 236.256 66.6894 237.174 66.0916C238.097 65.4879 239.174 65.1861 240.405 65.1861C241.116 65.1861 241.817 65.3045 242.509 65.5412C243.202 65.7779 243.832 66.1626 244.4 66.6953C244.968 67.2221 245.421 67.9205 245.759 68.7905C246.096 69.6605 246.265 70.7318 246.265 72.0043V72.892H235.753V71.081H244.134C244.134 70.3116 243.98 69.625 243.672 69.0213C243.37 68.4176 242.938 67.9412 242.376 67.592C241.82 67.2428 241.163 67.0682 240.405 67.0682C239.571 67.0682 238.849 67.2753 238.239 67.6896C237.635 68.098 237.171 68.6307 236.845 69.2876C236.52 69.9446 236.357 70.6489 236.357 71.4006V72.608C236.357 73.6378 236.535 74.5108 236.89 75.2269C237.251 75.9371 237.751 76.4787 238.39 76.8516C239.029 77.2185 239.772 77.402 240.618 77.402C241.169 77.402 241.666 77.325 242.11 77.1712C242.56 77.0114 242.947 76.7746 243.273 76.4609C243.598 76.1413 243.85 75.7448 244.027 75.2713L246.052 75.8395C245.839 76.526 245.48 77.1297 244.977 77.6506C244.474 78.1655 243.853 78.5679 243.113 78.858C242.373 79.142 241.542 79.2841 240.618 79.2841ZM253.465 79.3196C252.6 79.3196 251.816 79.1568 251.112 78.8313C250.408 78.4999 249.848 78.0234 249.434 77.402C249.02 76.7746 248.813 76.017 248.813 75.1293C248.813 74.348 248.966 73.7147 249.274 73.2294C249.582 72.7382 249.993 72.3535 250.508 72.0753C251.023 71.7971 251.591 71.59 252.213 71.4538C252.84 71.3118 253.47 71.1993 254.104 71.1165C254.932 71.0099 255.604 70.93 256.119 70.8768C256.64 70.8176 257.019 70.7199 257.255 70.5838C257.498 70.4477 257.619 70.2109 257.619 69.8736V69.8026C257.619 68.9266 257.38 68.246 256.9 67.7607C256.427 67.2753 255.708 67.0327 254.743 67.0327C253.743 67.0327 252.959 67.2517 252.39 67.6896C251.822 68.1276 251.423 68.5952 251.192 69.0923L249.203 68.3821C249.558 67.5535 250.032 66.9084 250.624 66.4467C251.221 65.9792 251.872 65.6536 252.577 65.4702C253.287 65.2808 253.985 65.1861 254.672 65.1861C255.11 65.1861 255.613 65.2393 256.181 65.3459C256.755 65.4465 257.309 65.6566 257.841 65.9762C258.38 66.2958 258.827 66.7782 259.182 67.4233C259.537 68.0684 259.715 68.9325 259.715 70.0156V79H257.619V77.1534H257.513C257.371 77.4493 257.134 77.766 256.803 78.1033C256.471 78.4407 256.03 78.7277 255.48 78.9645C254.929 79.2012 254.258 79.3196 253.465 79.3196ZM253.784 77.4375C254.613 77.4375 255.311 77.2747 255.879 76.9492C256.453 76.6237 256.886 76.2035 257.176 75.6886C257.471 75.1737 257.619 74.6321 257.619 74.0639V72.1463C257.531 72.2528 257.335 72.3505 257.033 72.4393C256.738 72.5221 256.394 72.5961 256.004 72.6612C255.619 72.7204 255.243 72.7737 254.876 72.821C254.515 72.8625 254.222 72.898 253.997 72.9276C253.453 72.9986 252.944 73.114 252.47 73.2738C252.003 73.4277 251.624 73.6615 251.334 73.9751C251.05 74.2829 250.908 74.7031 250.908 75.2358C250.908 75.9638 251.177 76.5142 251.716 76.8871C252.26 77.254 252.95 77.4375 253.784 77.4375ZM269.469 65.3636V67.1392H262.402V65.3636H269.469ZM264.462 62.0966H266.557V75.0938C266.557 75.6856 266.643 76.1295 266.815 76.4254C266.992 76.7154 267.217 76.9107 267.489 77.0114C267.768 77.1061 268.06 77.1534 268.368 77.1534C268.599 77.1534 268.788 77.1416 268.936 77.1179C269.084 77.0883 269.203 77.0646 269.292 77.0469L269.718 78.929C269.576 78.9822 269.377 79.0355 269.123 79.0888C268.868 79.148 268.546 79.1776 268.155 79.1776C267.563 79.1776 266.983 79.0503 266.415 78.7958C265.853 78.5413 265.385 78.1536 265.012 77.6328C264.645 77.112 264.462 76.455 264.462 75.6619V62.0966ZM275.009 70.7969V79H272.914V60.8182H275.009V67.4943H275.186C275.506 66.79 275.985 66.2307 276.625 65.8164C277.27 65.3962 278.128 65.1861 279.199 65.1861C280.128 65.1861 280.942 65.3725 281.641 65.7454C282.339 66.1123 282.881 66.6776 283.265 67.4411C283.656 68.1986 283.851 69.1634 283.851 70.3352V79H281.756V70.4773C281.756 69.3942 281.475 68.5567 280.913 67.9648C280.356 67.3671 279.584 67.0682 278.596 67.0682C277.909 67.0682 277.293 67.2132 276.749 67.5032C276.21 67.7932 275.784 68.2164 275.471 68.7727C275.163 69.3291 275.009 70.0038 275.009 70.7969ZM293.402 79.2841C292.088 79.2841 290.954 78.9941 290.001 78.4141C289.054 77.8281 288.323 77.0114 287.809 75.9638C287.3 74.9103 287.045 73.6851 287.045 72.2884C287.045 70.8916 287.3 69.6605 287.809 68.5952C288.323 67.5239 289.04 66.6894 289.957 66.0916C290.88 65.4879 291.957 65.1861 293.188 65.1861C293.899 65.1861 294.6 65.3045 295.293 65.5412C295.985 65.7779 296.615 66.1626 297.184 66.6953C297.752 67.2221 298.204 67.9205 298.542 68.7905C298.879 69.6605 299.048 70.7318 299.048 72.0043V72.892H288.536V71.081H296.917C296.917 70.3116 296.763 69.625 296.456 69.0213C296.154 68.4176 295.722 67.9412 295.159 67.592C294.603 67.2428 293.946 67.0682 293.188 67.0682C292.354 67.0682 291.632 67.2753 291.022 67.6896C290.419 68.098 289.954 68.6307 289.628 69.2876C289.303 69.9446 289.14 70.6489 289.14 71.4006V72.608C289.14 73.6378 289.318 74.5108 289.673 75.2269C290.034 75.9371 290.534 76.4787 291.173 76.8516C291.812 77.2185 292.555 77.402 293.402 77.402C293.952 77.402 294.449 77.325 294.893 77.1712C295.343 77.0114 295.73 76.7746 296.056 76.4609C296.382 76.1413 296.633 75.7448 296.811 75.2713L298.835 75.8395C298.622 76.526 298.264 77.1297 297.761 77.6506C297.257 78.1655 296.636 78.5679 295.896 78.858C295.156 79.142 294.325 79.2841 293.402 79.2841ZM302.235 79V65.3636H304.259V67.4233H304.401C304.65 66.7486 305.1 66.2011 305.751 65.7809C306.402 65.3607 307.136 65.1506 307.952 65.1506C308.106 65.1506 308.299 65.1535 308.529 65.1594C308.76 65.1654 308.935 65.1742 309.053 65.1861V67.3168C308.982 67.299 308.819 67.2724 308.565 67.2369C308.316 67.1954 308.053 67.1747 307.775 67.1747C307.112 67.1747 306.52 67.3138 305.999 67.592C305.484 67.8642 305.076 68.243 304.774 68.7283C304.478 69.2077 304.33 69.7552 304.33 70.3707V79H302.235ZM321.196 68.4176L319.314 68.9503C319.195 68.6366 319.021 68.3318 318.79 68.0359C318.565 67.734 318.257 67.4854 317.867 67.2901C317.476 67.0948 316.976 66.9972 316.366 66.9972C315.532 66.9972 314.836 67.1895 314.28 67.5742C313.73 67.953 313.454 68.4354 313.454 69.0213C313.454 69.5421 313.644 69.9535 314.023 70.2553C314.401 70.5572 314.993 70.8087 315.798 71.0099L317.822 71.5071C319.041 71.803 319.95 72.2558 320.548 72.8654C321.146 73.4691 321.444 74.2474 321.444 75.2003C321.444 75.9815 321.22 76.6799 320.77 77.2955C320.326 77.911 319.704 78.3963 318.905 78.7514C318.106 79.1065 317.177 79.2841 316.118 79.2841C314.727 79.2841 313.576 78.9822 312.664 78.3786C311.753 77.7749 311.176 76.893 310.933 75.733L312.922 75.2358C313.111 75.9697 313.469 76.5201 313.996 76.8871C314.529 77.254 315.224 77.4375 316.082 77.4375C317.059 77.4375 317.834 77.2304 318.408 76.8161C318.988 76.3958 319.278 75.8928 319.278 75.3068C319.278 74.8333 319.113 74.4368 318.781 74.1172C318.45 73.7917 317.941 73.549 317.254 73.3892L314.981 72.8565C313.733 72.5606 312.815 72.1019 312.229 71.4805C311.649 70.8531 311.359 70.0689 311.359 69.1278C311.359 68.3584 311.575 67.6778 312.007 67.0859C312.445 66.4941 313.04 66.0295 313.792 65.6921C314.549 65.3548 315.407 65.1861 316.366 65.1861C317.716 65.1861 318.775 65.482 319.545 66.0739C320.32 66.6657 320.87 67.447 321.196 68.4176Z" fill="#DD00A9"/>
<path fill-rule="evenodd" clip-rule="evenodd" d="M366 21.6667C366 20.1939 367.194 19 368.667 19H385.333C386.806 19 388 20.1939 388 21.6667V27.6667C388 29.1394 386.806 30.3333 385.333 30.3333H368.667C367.194 30.3333 366 29.1394 366 27.6667V21.6667Z" stroke="#2F2E2E"/>
<path d="M389 22.667V26.667C389.805 26.3282 390.328 25.5401 390.328 24.667C390.328 23.7939 389.805 23.0058 389 22.667" stroke="#2F2E2E"/>
<path d="M368 22.3333C368 21.597 368.597 21 369.333 21H384.667C385.403 21 386 21.597 386 22.3333V27C386 27.7364 385.403 28.3333 384.667 28.3333H369.333C368.597 28.3333 368 27.7364 368 27V22.3333Z" stroke="#2F2E2E"/>
<path d="M337 26.6665H338C338.552 26.6665 339 27.1142 339 27.6665V29.6665C339 30.2188 338.552 30.6665 338 30.6665H337C336.448 30.6665 336 30.2188 336 29.6665V27.6665C336 27.1142 336.448 26.6665 337 26.6665Z" stroke="#2F2E2E"/>
<path d="M341.667 24.6665H342.667C343.219 24.6665 343.667 25.1142 343.667 25.6665V29.6665C343.667 30.2188 343.219 30.6665 342.667 30.6665H341.667C341.114 30.6665 340.667 30.2188 340.667 29.6665V25.6665C340.667 25.1142 341.114 24.6665 341.667 24.6665Z" stroke="#2F2E2E"/>
<path d="M346.333 22.3335H347.333C347.886 22.3335 348.333 22.7812 348.333 23.3335V29.6668C348.333 30.2191 347.886 30.6668 347.333 30.6668H346.333C345.781 30.6668 345.333 30.2191 345.333 29.6668V23.3335C345.333 22.7812 345.781 22.3335 346.333 22.3335Z" stroke="#2F2E2E"/>
<path d="M351 20H352C352.552 20 353 20.4477 353 21V29.6667C353 30.219 352.552 30.6667 352 30.6667H351C350.448 30.6667 350 30.219 350 29.6667V21C350 20.4477 350.448 20 351 20V20Z" stroke="#2F2E2E"/>
<path d="M52.3418 27.7628V26.6761L57.1359 19.0909H57.9242V20.7741H57.3916L53.7694 26.5057V26.5909H60.2254V27.7628H52.3418ZM57.4768 30V27.4325V26.9265V19.0909H58.7339V30H57.4768ZM63.159 28.6044C62.8963 28.6044 62.6708 28.5103 62.4826 28.3221C62.2943 28.1339 62.2002 27.9084 62.2002 27.6456C62.2002 27.3828 62.2943 27.1573 62.4826 26.9691C62.6708 26.7809 62.8963 26.6868 63.159 26.6868C63.4218 26.6868 63.6473 26.7809 63.8355 26.9691C64.0237 27.1573 64.1179 27.3828 64.1179 27.6456C64.1179 27.8196 64.0735 27.9794 63.9847 28.125C63.8995 28.2706 63.784 28.3878 63.6385 28.4766C63.4964 28.5618 63.3366 28.6044 63.159 28.6044ZM63.159 23.0859C62.8963 23.0859 62.6708 22.9918 62.4826 22.8036C62.2943 22.6154 62.2002 22.3899 62.2002 22.1271C62.2002 21.8643 62.2943 21.6388 62.4826 21.4506C62.6708 21.2624 62.8963 21.1683 63.159 21.1683C63.4218 21.1683 63.6473 21.2624 63.8355 21.4506C64.0237 21.6388 64.1179 21.8643 64.1179 22.1271C64.1179 22.3011 64.0735 22.4609 63.9847 22.6065C63.8995 22.7521 63.784 22.8693 63.6385 22.9581C63.4964 23.0433 63.3366 23.0859 63.159 23.0859ZM66.3524 30V29.0412L69.9533 25.0994C70.3758 24.6378 70.7239 24.2365 70.9973 23.8956C71.2707 23.5511 71.4731 23.228 71.6045 22.9261C71.7395 22.6207 71.807 22.3011 71.807 21.9673C71.807 21.5838 71.7146 21.2518 71.53 20.9712C71.3489 20.6907 71.1003 20.4741 70.7842 20.3214C70.4682 20.1687 70.1131 20.0923 69.7189 20.0923C69.2998 20.0923 68.9341 20.1793 68.6216 20.3533C68.3126 20.5238 68.0729 20.7635 67.9025 21.0724C67.7356 21.3814 67.6521 21.7436 67.6521 22.1591H66.395C66.395 21.5199 66.5424 20.9588 66.8371 20.4759C67.1319 19.9929 67.5332 19.6165 68.041 19.3466C68.5523 19.0767 69.1258 18.9418 69.7615 18.9418C70.4007 18.9418 70.9671 19.0767 71.4607 19.3466C71.9543 19.6165 72.3414 19.9805 72.6219 20.4386C72.9025 20.8967 73.0427 21.4062 73.0427 21.9673C73.0427 22.3686 72.9699 22.761 72.8244 23.1445C72.6823 23.5245 72.4337 23.9489 72.0786 24.4176C71.7271 24.8828 71.2388 25.451 70.6138 26.1222L68.1635 28.7429V28.8281H73.2345V30H66.3524ZM79.0566 30.1491C78.6092 30.142 78.1617 30.0568 77.7143 29.8935C77.2668 29.7301 76.8584 29.4549 76.4891 29.0678C76.1198 28.6772 75.8233 28.1499 75.5996 27.4858C75.3758 26.8182 75.264 25.9801 75.264 24.9716C75.264 24.0057 75.3545 23.1499 75.5356 22.4041C75.7168 21.6548 75.9795 21.0245 76.324 20.5131C76.6685 19.9982 77.0839 19.6076 77.5704 19.3413C78.0605 19.0749 78.6127 18.9418 79.2271 18.9418C79.8378 18.9418 80.3812 19.0643 80.857 19.3093C81.3364 19.5508 81.7271 19.8881 82.0289 20.3214C82.3307 20.7546 82.5261 21.2536 82.6148 21.8182H81.3151C81.1944 21.3281 80.96 20.9215 80.612 20.5984C80.264 20.2752 79.8023 20.1136 79.2271 20.1136C78.3819 20.1136 77.716 20.4812 77.2295 21.2163C76.7466 21.9513 76.5033 22.983 76.4998 24.3111H76.585C76.7839 24.0092 77.02 23.7518 77.2935 23.5387C77.5704 23.3221 77.8758 23.1552 78.2097 23.038C78.5435 22.9208 78.8968 22.8622 79.2697 22.8622C79.8947 22.8622 80.4664 23.0185 80.9849 23.331C81.5033 23.6399 81.9188 24.0678 82.2313 24.6147C82.5438 25.158 82.7001 25.7812 82.7001 26.4844C82.7001 27.1591 82.5491 27.777 82.2473 28.3381C81.9454 28.8956 81.5211 29.3395 80.9742 29.6697C80.4309 29.9964 79.7917 30.1562 79.0566 30.1491ZM79.0566 28.9773C79.504 28.9773 79.9053 28.8654 80.2604 28.6417C80.6191 28.418 80.9014 28.1179 81.1074 27.7415C81.3169 27.3651 81.4217 26.946 81.4217 26.4844C81.4217 26.0334 81.3204 25.6232 81.118 25.2539C80.9192 24.881 80.644 24.5845 80.2924 24.3643C79.9444 24.1442 79.5467 24.0341 79.0992 24.0341C78.7619 24.0341 78.4476 24.1016 78.1564 24.2365C77.8652 24.3679 77.6095 24.549 77.3893 24.7798C77.1727 25.0107 77.0023 25.2752 76.878 25.5735C76.7537 25.8683 76.6915 26.179 76.6915 26.5057C76.6915 26.9389 76.7927 27.3437 76.9952 27.7202C77.2011 28.0966 77.4817 28.4002 77.8368 28.631C78.1954 28.8619 78.6021 28.9773 79.0566 28.9773ZM84.9866 30V19.0909H88.6726C89.5285 19.0909 90.228 19.2454 90.7714 19.5543C91.3182 19.8597 91.7231 20.2734 91.9858 20.7955C92.2486 21.3175 92.38 21.8999 92.38 22.5426C92.38 23.1854 92.2486 23.7695 91.9858 24.2951C91.7266 24.8207 91.3253 25.2397 90.782 25.5522C90.2387 25.8612 89.5427 26.0156 88.6939 26.0156H86.0519V24.8438H88.6513C89.2373 24.8438 89.7078 24.7425 90.0629 24.5401C90.418 24.3377 90.6755 24.0643 90.8353 23.7198C90.9986 23.3718 91.0803 22.9794 91.0803 22.5426C91.0803 22.1058 90.9986 21.7152 90.8353 21.3707C90.6755 21.0263 90.4162 20.7564 90.0576 20.5611C89.6989 20.3622 89.2231 20.2628 88.63 20.2628H86.3076V30H84.9866ZM94.508 19.0909H96.0847L99.7921 28.1463H99.92L103.627 19.0909H105.204V30H103.968V21.7116H103.862L100.453 30H99.2595L95.8504 21.7116H95.7438V30H94.508V19.0909Z" fill="#2F2E2E"/>
<path d="M413.349 75.4242C413.349 80.9052 408.905 85.3485 403.424 85.3485C397.943 85.3485 393.5 80.9052 393.5 75.4242C393.5 69.9432 397.943 65.5 403.424 65.5C408.905 65.5 413.349 69.9432 413.349 75.4242Z" fill="white" stroke="#2F2E2E"/>
<path d="M416.101 88.808C416.296 89.0033 416.613 89.0033 416.808 88.808C417.003 88.6127 417.003 88.2962 416.808 88.1009L416.101 88.808ZM416.808 88.1009L410.944 82.2373L410.237 82.9444L416.101 88.808L416.808 88.1009Z" fill="#2F2E2E"/>
<path d="M22 65H46" stroke="#2F2E2E" stroke-width="4" stroke-linecap="round"/>
<path d="M22 77H46" stroke="#2F2E2E" stroke-width="4" stroke-linecap="round"/>
<path d="M22 89H46" stroke="#2F2E2E" stroke-width="4" stroke-linecap="round"/>
<rect x="15" y="432" width="169" height="18" rx="9" fill="#B3B3B3"/>
<rect x="74" y="537" width="90" height="20" rx="10" fill="#B3B3B3"/>
<rect x="15" y="847" width="410" height="18" rx="9" fill="#B3B3B3"/>
<rect x="15" y="870" width="353" height="18" rx="9" fill="#B3B3B3"/>
<rect x="74" y="130" width="169" height="20" rx="10" fill="#B3B3B3"/>
<rect x="64" y="476" width="30" height="18" rx="9" fill="#B3B3B3"/>
<rect x="154" y="476" width="30" height="18" rx="9" fill="#B3B3B3"/>
<rect x="155" y="913" width="30" height="18" rx="9" fill="#B3B3B3"/>
<rect x="65" y="913" width="30" height="18" rx="9" fill="#B3B3B3"/>
<g clip-path="url(#clip1_1516_12157)" filter="url(#filter0_i_1516_12157)">
<rect width="440" height="56" transform="translate(0 900)" fill="#F9F9F9"/>
<g filter="url(#filter1_d_1516_12157)">
<path d="M48 941.334V928H56V941.334M40 924L52 914.667L64 924V938.667C64 939.374 63.719 940.053 63.2189 940.553C62.7188 941.053 62.0406 941.334 61.3333 941.334H42.6667C41.9594 941.334 41.2811 941.053 40.781 940.553C40.2809 940.053 40 939.374 40 938.667V924Z" stroke="#2F2E2E" stroke-width="3" stroke-linecap="round" stroke-linejoin="round"/>
</g>
<g filter="url(#filter2_d_1516_12157)">
<path d="M48 941.334V928H56V941.334M40 924L52 914.667L64 924V938.667C64 939.374 63.719 940.053 63.2189 940.553C62.7188 941.053 62.0406 941.334 61.3333 941.334H42.6667C41.9594 941.334 41.2811 941.053 40.781 940.553C40.2809 940.053 40 939.374 40 938.667V924Z" stroke="#2F2E2E" stroke-width="3" stroke-linecap="round" stroke-linejoin="round"/>
</g>
<g filter="url(#filter3_d_1516_12157)">
<path d="M163.252 912V944" stroke="#2F2E2E" stroke-width="13.9"/>
<path d="M180 928.299L148 928.299" stroke="#2F2E2E" stroke-width="13.9"/>
</g>
<g filter="url(#filter4_d_1516_12157)">
<path d="M266.537 940.702C269.794 940.601 275.661 939.882 278.289 937.808C280.186 936.311 282.455 934.629 284.655 933.637" stroke="#2F2E2E" stroke-width="3" stroke-linecap="round"/>
<path d="M275.351 934.52C280.291 933.883 287.27 930.245 289.552 926.13" stroke="#2F2E2E" stroke-width="3" stroke-linecap="round"/>
<path d="M282.207 927.455C285.292 924.926 292 923.863 292 919.507" stroke="#2F2E2E" stroke-width="3" stroke-linecap="round"/>
<path d="M286.124 919.507C286.904 919.419 286.949 916.047 287.13 915.312C287.472 913.925 289.491 912.993 290.041 912" stroke="#2F2E2E" stroke-width="3" stroke-linecap="round"/>
<path d="M261.641 936.728C261.208 933.218 260.395 929.26 262.13 926.13" stroke="#2F2E2E" stroke-width="3" stroke-linecap="round"/>
<path d="M266.048 930.546C267.887 928.68 268.194 925.7 269.475 923.677C270.358 922.284 270.693 920.283 272.413 919.507" stroke="#2F2E2E" stroke-width="3" stroke-linecap="round"/>
<path d="M274.372 922.598C274.372 921.389 275.88 918.248 276.929 917.397C278.765 915.907 280.262 915.974 282.696 915.974" stroke="#2F2E2E" stroke-width="3" stroke-linecap="round"/>
<path d="M283.061 920.583L260 944" stroke="#2F2E2E" stroke-width="3" stroke-linecap="round"/>
</g>
<g filter="url(#filter5_d_1516_12157)">
<circle cx="388" cy="928" r="14.5" fill="#FAF8FA" stroke="#2F2E2E" stroke-width="3"/>
<path d="M388.533 922.347V933.76" stroke="#2F2E2E" stroke-width="3"/>
<path d="M394.507 928.16L383.093 928.16" stroke="#2F2E2E" stroke-width="3"/>
</g>
</g>
</g>
<defs>
<filter id="filter0_i_1516_12157" x="0" y="900" width="440" height="60" filterUnits="userSpaceOnUse" color-interpolation-filters="sRGB">
<feFlood flood-opacity="0" result="BackgroundImageFix"/>
<feBlend mode="normal" in="SourceGraphic" in2="BackgroundImageFix" result="shape"/>
<feColorMatrix in="SourceAlpha" type="matrix" values="0 0 0 0 0 0 0 0 0 0 0 0 0 0 0 0 0 0 127 0" result="hardAlpha"/>
<feOffset dy="5"/>
<feGaussianBlur stdDeviation="2"/>
<feComposite in2="hardAlpha" operator="arithmetic" k2="-1" k3="1"/>
<feColorMatrix type="matrix" values="0 0 0 0 0.770833 0 0 0 0 0.631441 0 0 0 0 0.722046 0 0 0 0.5 0"/>
<feBlend mode="normal" in2="shape" result="effect1_innerShadow_1516_12157"/>
</filter>
<filter id="filter1_d_1516_12157" x="31" y="912" width="42" height="44" filterUnits="userSpaceOnUse" color-interpolation-filters="sRGB">
<feFlood flood-opacity="0" result="BackgroundImageFix"/>
<feColorMatrix in="SourceAlpha" type="matrix" values="0 0 0 0 0 0 0 0 0 0 0 0 0 0 0 0 0 0 127 0" result="hardAlpha"/>
<feOffset dy="7"/>
<feGaussianBlur stdDeviation="2.5"/>
<feComposite in2="hardAlpha" operator="out"/>
<feColorMatrix type="matrix" values="0 0 0 0 0.770833 0 0 0 0 0.631441 0 0 0 0 0.722046 0 0 0 1 0"/>
<feBlend mode="normal" in2="BackgroundImageFix" result="effect1_dropShadow_1516_12157"/>
<feBlend mode="normal" in="SourceGraphic" in2="effect1_dropShadow_1516_12157" result="shape"/>
</filter>
<filter id="filter2_d_1516_12157" x="31" y="912" width="42" height="44" filterUnits="userSpaceOnUse" color-interpolation-filters="sRGB">
<feFlood flood-opacity="0" result="BackgroundImageFix"/>
<feColorMatrix in="SourceAlpha" type="matrix" values="0 0 0 0 0 0 0 0 0 0 0 0 0 0 0 0 0 0 127 0" result="hardAlpha"/>
<feOffset dy="7"/>
<feGaussianBlur stdDeviation="2.5"/>
<feComposite in2="hardAlpha" operator="out"/>
<feColorMatrix type="matrix" values="0 0 0 0 0.770833 0 0 0 0 0.631441 0 0 0 0 0.722046 0 0 0 1 0"/>
<feBlend mode="normal" in2="BackgroundImageFix" result="effect1_dropShadow_1516_12157"/>
<feBlend mode="normal" in="SourceGraphic" in2="effect1_dropShadow_1516_12157" result="shape"/>
</filter>
<filter id="filter3_d_1516_12157" x="143" y="912" width="42" height="44" filterUnits="userSpaceOnUse" color-interpolation-filters="sRGB">
<feFlood flood-opacity="0" result="BackgroundImageFix"/>
<feColorMatrix in="SourceAlpha" type="matrix" values="0 0 0 0 0 0 0 0 0 0 0 0 0 0 0 0 0 0 127 0" result="hardAlpha"/>
<feOffset dy="7"/>
<feGaussianBlur stdDeviation="2.5"/>
<feComposite in2="hardAlpha" operator="out"/>
<feColorMatrix type="matrix" values="0 0 0 0 0.770833 0 0 0 0 0.631441 0 0 0 0 0.722046 0 0 0 1 0"/>
<feBlend mode="normal" in2="BackgroundImageFix" result="effect1_dropShadow_1516_12157"/>
<feBlend mode="normal" in="SourceGraphic" in2="effect1_dropShadow_1516_12157" result="shape"/>
</filter>
<filter id="filter4_d_1516_12157" x="253.425" y="910.5" width="45.0745" height="46.9224" filterUnits="userSpaceOnUse" color-interpolation-filters="sRGB">
<feFlood flood-opacity="0" result="BackgroundImageFix"/>
<feColorMatrix in="SourceAlpha" type="matrix" values="0 0 0 0 0 0 0 0 0 0 0 0 0 0 0 0 0 0 127 0" result="hardAlpha"/>
<feOffset dy="7"/>
<feGaussianBlur stdDeviation="2.5"/>
<feComposite in2="hardAlpha" operator="out"/>
<feColorMatrix type="matrix" values="0 0 0 0 0.770833 0 0 0 0 0.631441 0 0 0 0 0.722046 0 0 0 1 0"/>
<feBlend mode="normal" in2="BackgroundImageFix" result="effect1_dropShadow_1516_12157"/>
<feBlend mode="normal" in="SourceGraphic" in2="effect1_dropShadow_1516_12157" result="shape"/>
</filter>
<filter id="filter5_d_1516_12157" x="367" y="912" width="42" height="44" filterUnits="userSpaceOnUse" color-interpolation-filters="sRGB">
<feFlood flood-opacity="0" result="BackgroundImageFix"/>
<feColorMatrix in="SourceAlpha" type="matrix" values="0 0 0 0 0 0 0 0 0 0 0 0 0 0 0 0 0 0 127 0" result="hardAlpha"/>
<feOffset dy="7"/>
<feGaussianBlur stdDeviation="2.5"/>
<feComposite in2="hardAlpha" operator="out"/>
<feColorMatrix type="matrix" values="0 0 0 0 0.770833 0 0 0 0 0.631441 0 0 0 0 0.722046 0 0 0 1 0"/>
<feBlend mode="normal" in2="BackgroundImageFix" result="effect1_dropShadow_1516_12157"/>
<feBlend mode="normal" in="SourceGraphic" in2="effect1_dropShadow_1516_12157" result="shape"/>
</filter>
<clipPath id="clip0_1516_12157">
<rect width="440" height="956" fill="white"/>
</clipPath>
<clipPath id="clip1_1516_12157">
<rect width="440" height="56" fill="white" transform="translate(0 900)"/>
</clipPath>
</defs>
</svg>
