<svg width="440" height="956" viewBox="0 0 440 956" fill="none" xmlns="http://www.w3.org/2000/svg">
<g clip-path="url(#clip0_1564_12180)">
<rect width="440" height="956" fill="white"/>
<rect x="0.5" y="0.5" width="439" height="955" fill="white" stroke="#2F2E2E"/>
<path d="M180.761 135V120.455H182.523V133.438H189.284V135H180.761ZM196.216 135.227C195.231 135.227 194.367 134.993 193.624 134.524C192.885 134.055 192.307 133.4 191.891 132.557C191.479 131.714 191.273 130.729 191.273 129.602C191.273 128.466 191.479 127.474 191.891 126.626C192.307 125.779 192.885 125.121 193.624 124.652C194.367 124.183 195.231 123.949 196.216 123.949C197.201 123.949 198.063 124.183 198.801 124.652C199.545 125.121 200.122 125.779 200.534 126.626C200.951 127.474 201.159 128.466 201.159 129.602C201.159 130.729 200.951 131.714 200.534 132.557C200.122 133.4 199.545 134.055 198.801 134.524C198.063 134.993 197.201 135.227 196.216 135.227ZM196.216 133.722C196.964 133.722 197.58 133.53 198.062 133.146C198.545 132.763 198.903 132.259 199.135 131.634C199.367 131.009 199.483 130.331 199.483 129.602C199.483 128.873 199.367 128.194 199.135 127.564C198.903 126.934 198.545 126.425 198.062 126.037C197.58 125.649 196.964 125.455 196.216 125.455C195.468 125.455 194.852 125.649 194.369 126.037C193.886 126.425 193.529 126.934 193.297 127.564C193.065 128.194 192.949 128.873 192.949 129.602C192.949 130.331 193.065 131.009 193.297 131.634C193.529 132.259 193.886 132.763 194.369 133.146C194.852 133.53 195.468 133.722 196.216 133.722ZM212.248 124.091L208.213 135H206.509L202.475 124.091H204.293L207.304 132.784H207.418L210.429 124.091H212.248ZM218.643 135.227C217.592 135.227 216.685 134.995 215.923 134.531C215.165 134.062 214.581 133.409 214.169 132.571C213.761 131.728 213.558 130.748 213.558 129.631C213.558 128.513 213.761 127.528 214.169 126.676C214.581 125.819 215.154 125.152 215.887 124.673C216.626 124.19 217.488 123.949 218.473 123.949C219.041 123.949 219.602 124.044 220.156 124.233C220.71 124.422 221.214 124.73 221.669 125.156C222.123 125.578 222.485 126.136 222.755 126.832C223.025 127.528 223.16 128.385 223.16 129.403V130.114H214.751V128.665H221.456C221.456 128.049 221.333 127.5 221.086 127.017C220.845 126.534 220.499 126.153 220.049 125.874C219.604 125.594 219.079 125.455 218.473 125.455C217.805 125.455 217.227 125.62 216.74 125.952C216.257 126.278 215.885 126.705 215.625 127.23C215.364 127.756 215.234 128.319 215.234 128.92V129.886C215.234 130.71 215.376 131.409 215.66 131.982C215.949 132.55 216.349 132.983 216.86 133.281C217.372 133.575 217.966 133.722 218.643 133.722C219.083 133.722 219.481 133.66 219.836 133.537C220.196 133.409 220.506 133.22 220.767 132.969C221.027 132.713 221.228 132.396 221.37 132.017L222.99 132.472C222.819 133.021 222.533 133.504 222.13 133.92C221.728 134.332 221.231 134.654 220.639 134.886C220.047 135.114 219.382 135.227 218.643 135.227ZM225.937 135V120.455H227.613V125.824H227.755C227.878 125.634 228.049 125.393 228.267 125.099C228.489 124.801 228.806 124.536 229.218 124.304C229.635 124.067 230.199 123.949 230.909 123.949C231.827 123.949 232.637 124.179 233.338 124.638C234.038 125.097 234.585 125.748 234.978 126.591C235.371 127.434 235.568 128.428 235.568 129.574C235.568 130.729 235.371 131.731 234.978 132.578C234.585 133.421 234.041 134.074 233.345 134.538C232.649 134.998 231.846 135.227 230.937 135.227C230.236 135.227 229.675 135.111 229.254 134.879C228.833 134.643 228.508 134.375 228.281 134.077C228.054 133.774 227.878 133.523 227.755 133.324H227.556V135H225.937ZM227.585 129.545C227.585 130.369 227.706 131.096 227.947 131.726C228.189 132.351 228.541 132.841 229.005 133.196C229.469 133.546 230.038 133.722 230.71 133.722C231.411 133.722 231.995 133.537 232.464 133.168C232.938 132.794 233.293 132.292 233.529 131.662C233.771 131.027 233.892 130.322 233.892 129.545C233.892 128.778 233.773 128.087 233.537 127.472C233.305 126.851 232.952 126.361 232.478 126.001C232.01 125.637 231.42 125.455 230.71 125.455C230.028 125.455 229.455 125.627 228.991 125.973C228.527 126.314 228.177 126.792 227.94 127.408C227.703 128.018 227.585 128.731 227.585 129.545ZM238.132 135V124.091H239.808V135H238.132ZM238.984 122.273C238.657 122.273 238.376 122.161 238.139 121.939C237.907 121.716 237.791 121.449 237.791 121.136C237.791 120.824 237.907 120.556 238.139 120.334C238.376 120.111 238.657 120 238.984 120C239.311 120 239.59 120.111 239.822 120.334C240.059 120.556 240.177 120.824 240.177 121.136C240.177 121.449 240.059 121.716 239.822 121.939C239.59 122.161 239.311 122.273 238.984 122.273ZM242.878 135V124.091H244.497V125.739H244.611C244.81 125.199 245.17 124.761 245.69 124.425C246.211 124.089 246.798 123.92 247.452 123.92C247.575 123.92 247.729 123.923 247.913 123.928C248.098 123.932 248.238 123.939 248.332 123.949V125.653C248.276 125.639 248.145 125.618 247.942 125.589C247.743 125.556 247.532 125.54 247.31 125.54C246.779 125.54 246.306 125.651 245.889 125.874C245.477 126.091 245.151 126.394 244.909 126.783C244.672 127.166 244.554 127.604 244.554 128.097V135H242.878ZM254.107 135.227C253.197 135.227 252.395 134.998 251.699 134.538C251.003 134.074 250.458 133.421 250.065 132.578C249.672 131.731 249.476 130.729 249.476 129.574C249.476 128.428 249.672 127.434 250.065 126.591C250.458 125.748 251.005 125.097 251.706 124.638C252.407 124.179 253.216 123.949 254.135 123.949C254.845 123.949 255.406 124.067 255.818 124.304C256.235 124.536 256.552 124.801 256.77 125.099C256.992 125.393 257.165 125.634 257.288 125.824H257.43V120.455H259.107V135H257.487V133.324H257.288C257.165 133.523 256.99 133.774 256.763 134.077C256.536 134.375 256.211 134.643 255.79 134.879C255.368 135.111 254.807 135.227 254.107 135.227ZM254.334 133.722C255.006 133.722 255.574 133.546 256.038 133.196C256.502 132.841 256.855 132.351 257.097 131.726C257.338 131.096 257.459 130.369 257.459 129.545C257.459 128.731 257.34 128.018 257.104 127.408C256.867 126.792 256.517 126.314 256.053 125.973C255.589 125.627 255.016 125.455 254.334 125.455C253.624 125.455 253.032 125.637 252.558 126.001C252.089 126.361 251.737 126.851 251.5 127.472C251.268 128.087 251.152 128.778 251.152 129.545C251.152 130.322 251.27 131.027 251.507 131.662C251.749 132.292 252.104 132.794 252.572 133.168C253.046 133.537 253.633 133.722 254.334 133.722Z" fill="#2F2E2E"/>
<path d="M327.963 134L324.384 120.909H325.994L328.73 131.571H328.858L331.645 120.909H333.435L336.222 131.571H336.349L339.085 120.909H340.696L337.116 134H335.48L332.591 123.568H332.489L329.599 134H327.963ZM344.442 134.23C343.82 134.23 343.255 134.113 342.748 133.879C342.241 133.64 341.838 133.297 341.54 132.849C341.241 132.398 341.092 131.852 341.092 131.213C341.092 130.651 341.203 130.195 341.425 129.845C341.646 129.491 341.942 129.214 342.313 129.014C342.684 128.814 343.093 128.665 343.54 128.567C343.992 128.464 344.446 128.384 344.902 128.324C345.499 128.247 345.982 128.19 346.353 128.151C346.728 128.109 347.001 128.038 347.171 127.94C347.346 127.842 347.433 127.672 347.433 127.429V127.378C347.433 126.747 347.261 126.257 346.915 125.908C346.575 125.558 346.057 125.384 345.362 125.384C344.642 125.384 344.077 125.541 343.668 125.857C343.259 126.172 342.972 126.509 342.805 126.866L341.374 126.355C341.629 125.759 341.97 125.294 342.396 124.962C342.827 124.625 343.295 124.391 343.803 124.259C344.314 124.122 344.817 124.054 345.311 124.054C345.626 124.054 345.989 124.092 346.398 124.169C346.811 124.241 347.21 124.393 347.593 124.623C347.981 124.853 348.303 125.2 348.558 125.665C348.814 126.129 348.942 126.751 348.942 127.531V134H347.433V132.67H347.357C347.254 132.884 347.084 133.112 346.845 133.354C346.607 133.597 346.289 133.804 345.893 133.974C345.496 134.145 345.013 134.23 344.442 134.23ZM344.672 132.875C345.268 132.875 345.771 132.758 346.18 132.523C346.594 132.289 346.905 131.987 347.114 131.616C347.327 131.245 347.433 130.855 347.433 130.446V129.065C347.369 129.142 347.229 129.212 347.011 129.276C346.798 129.336 346.551 129.389 346.27 129.436C345.993 129.479 345.722 129.517 345.458 129.551C345.198 129.581 344.987 129.607 344.825 129.628C344.433 129.679 344.067 129.762 343.726 129.877C343.389 129.988 343.116 130.156 342.908 130.382C342.703 130.604 342.601 130.906 342.601 131.29C342.601 131.814 342.795 132.21 343.183 132.479C343.575 132.743 344.071 132.875 344.672 132.875ZM355.965 124.182V125.46H350.877V124.182H355.965ZM352.36 121.83H353.868V131.188C353.868 131.614 353.93 131.933 354.054 132.146C354.182 132.355 354.344 132.496 354.54 132.568C354.74 132.636 354.951 132.67 355.172 132.67C355.339 132.67 355.475 132.662 355.581 132.645C355.688 132.624 355.773 132.607 355.837 132.594L356.144 133.949C356.042 133.987 355.899 134.026 355.716 134.064C355.532 134.107 355.3 134.128 355.019 134.128C354.593 134.128 354.175 134.036 353.766 133.853C353.361 133.67 353.025 133.391 352.756 133.016C352.492 132.641 352.36 132.168 352.36 131.597V121.83ZM362.117 134.205C361.197 134.205 360.404 133.987 359.74 133.553C359.075 133.118 358.563 132.519 358.205 131.756C357.847 130.994 357.669 130.122 357.669 129.142C357.669 128.145 357.852 127.265 358.218 126.502C358.589 125.735 359.105 125.136 359.765 124.706C360.43 124.271 361.205 124.054 362.092 124.054C362.782 124.054 363.404 124.182 363.958 124.438C364.512 124.693 364.966 125.051 365.32 125.511C365.673 125.972 365.893 126.509 365.978 127.122H364.47C364.355 126.675 364.099 126.278 363.703 125.933C363.311 125.584 362.782 125.409 362.117 125.409C361.529 125.409 361.014 125.562 360.57 125.869C360.132 126.172 359.789 126.6 359.541 127.154C359.298 127.704 359.177 128.349 359.177 129.091C359.177 129.849 359.296 130.51 359.535 131.072C359.778 131.635 360.119 132.072 360.558 132.383C361.001 132.694 361.521 132.849 362.117 132.849C362.509 132.849 362.865 132.781 363.185 132.645C363.504 132.509 363.775 132.312 363.997 132.057C364.218 131.801 364.376 131.494 364.47 131.136H365.978C365.893 131.716 365.682 132.238 365.345 132.702C365.013 133.163 364.572 133.529 364.022 133.802C363.477 134.07 362.842 134.205 362.117 134.205ZM369.692 128.094V134H368.183V120.909H369.692V125.716H369.82C370.05 125.209 370.395 124.806 370.855 124.508C371.32 124.205 371.938 124.054 372.709 124.054C373.378 124.054 373.964 124.188 374.467 124.457C374.97 124.721 375.36 125.128 375.637 125.678C375.918 126.223 376.058 126.918 376.058 127.761V134H374.55V127.864C374.55 127.084 374.347 126.481 373.943 126.055C373.542 125.624 372.986 125.409 372.274 125.409C371.78 125.409 371.337 125.513 370.945 125.722C370.557 125.931 370.25 126.236 370.024 126.636C369.803 127.037 369.692 127.523 369.692 128.094ZM384.085 134V120.909H388.662C389.574 120.909 390.326 121.067 390.918 121.382C391.511 121.693 391.952 122.113 392.241 122.641C392.531 123.165 392.676 123.747 392.676 124.386C392.676 124.949 392.576 125.413 392.376 125.78C392.18 126.146 391.92 126.436 391.596 126.649C391.276 126.862 390.929 127.02 390.554 127.122V127.25C390.955 127.276 391.357 127.416 391.762 127.672C392.167 127.928 392.506 128.294 392.778 128.771C393.051 129.249 393.188 129.832 393.188 130.523C393.188 131.179 393.038 131.769 392.74 132.293C392.442 132.817 391.971 133.233 391.327 133.54C390.684 133.847 389.847 134 388.815 134H384.085ZM385.67 132.594H388.815C389.851 132.594 390.586 132.393 391.021 131.993C391.46 131.588 391.679 131.098 391.679 130.523C391.679 130.08 391.566 129.67 391.34 129.295C391.114 128.916 390.793 128.614 390.375 128.388C389.957 128.158 389.463 128.043 388.892 128.043H385.67V132.594ZM385.67 126.662H388.611C389.088 126.662 389.518 126.568 389.902 126.381C390.29 126.193 390.597 125.929 390.822 125.588C391.053 125.247 391.168 124.847 391.168 124.386C391.168 123.811 390.967 123.323 390.567 122.923C390.166 122.518 389.531 122.315 388.662 122.315H385.67V126.662ZM395.588 134V124.182H397.096V134H395.588ZM396.355 122.545C396.061 122.545 395.807 122.445 395.594 122.245C395.385 122.045 395.281 121.804 395.281 121.523C395.281 121.241 395.385 121.001 395.594 120.8C395.807 120.6 396.061 120.5 396.355 120.5C396.649 120.5 396.9 120.6 397.109 120.8C397.322 121.001 397.429 121.241 397.429 121.523C397.429 121.804 397.322 122.045 397.109 122.245C396.9 122.445 396.649 122.545 396.355 122.545ZM399.859 134V124.182H401.317V125.665H401.419C401.598 125.179 401.922 124.785 402.39 124.482C402.859 124.18 403.388 124.028 403.976 124.028C404.086 124.028 404.225 124.031 404.391 124.035C404.557 124.039 404.683 124.045 404.768 124.054V125.588C404.717 125.575 404.6 125.556 404.417 125.531C404.238 125.501 404.048 125.486 403.848 125.486C403.371 125.486 402.944 125.586 402.569 125.786C402.199 125.982 401.905 126.255 401.687 126.604C401.474 126.95 401.368 127.344 401.368 127.787V134H399.859ZM409.965 134.205C409.147 134.205 408.425 133.998 407.798 133.585C407.172 133.167 406.682 132.579 406.328 131.82C405.974 131.058 405.797 130.156 405.797 129.116C405.797 128.085 405.974 127.19 406.328 126.432C406.682 125.673 407.174 125.087 407.805 124.674C408.435 124.261 409.164 124.054 409.991 124.054C410.63 124.054 411.135 124.161 411.506 124.374C411.881 124.582 412.166 124.821 412.362 125.089C412.562 125.354 412.718 125.571 412.829 125.741H412.956V120.909H414.465V134H413.008V132.491H412.829C412.718 132.67 412.56 132.896 412.356 133.169C412.151 133.437 411.859 133.678 411.48 133.891C411.101 134.1 410.596 134.205 409.965 134.205ZM410.17 132.849C410.775 132.849 411.286 132.692 411.704 132.376C412.121 132.057 412.439 131.616 412.656 131.053C412.873 130.487 412.982 129.832 412.982 129.091C412.982 128.358 412.876 127.717 412.662 127.167C412.449 126.613 412.134 126.183 411.716 125.876C411.299 125.565 410.783 125.409 410.17 125.409C409.53 125.409 408.998 125.573 408.572 125.901C408.15 126.225 407.832 126.666 407.619 127.224C407.41 127.778 407.306 128.401 407.306 129.091C407.306 129.79 407.412 130.425 407.626 130.996C407.843 131.562 408.162 132.014 408.584 132.351C409.01 132.683 409.539 132.849 410.17 132.849Z" fill="#2F2E2E"/>
<rect x="20.5" y="182.5" width="399" height="192" fill="#B3B3B3" stroke="#2F2E2E"/>
<path d="M328.119 402H326.534C326.44 401.544 326.276 401.143 326.042 400.798C325.812 400.453 325.531 400.163 325.198 399.929C324.87 399.69 324.506 399.511 324.105 399.392C323.705 399.273 323.287 399.213 322.852 399.213C322.06 399.213 321.342 399.413 320.698 399.814C320.059 400.214 319.55 400.805 319.17 401.585C318.795 402.364 318.608 403.321 318.608 404.455C318.608 405.588 318.795 406.545 319.17 407.325C319.55 408.104 320.059 408.695 320.698 409.095C321.342 409.496 322.06 409.696 322.852 409.696C323.287 409.696 323.705 409.636 324.105 409.517C324.506 409.398 324.87 409.221 325.198 408.987C325.531 408.748 325.812 408.456 326.042 408.111C326.276 407.761 326.44 407.361 326.534 406.909H328.119C328 407.578 327.783 408.177 327.467 408.705C327.152 409.234 326.76 409.683 326.291 410.054C325.822 410.42 325.296 410.7 324.712 410.891C324.133 411.083 323.513 411.179 322.852 411.179C321.736 411.179 320.743 410.906 319.874 410.361C319.004 409.815 318.32 409.04 317.822 408.034C317.323 407.028 317.074 405.835 317.074 404.455C317.074 403.074 317.323 401.881 317.822 400.875C318.32 399.869 319.004 399.094 319.874 398.548C320.743 398.003 321.736 397.73 322.852 397.73C323.513 397.73 324.133 397.826 324.712 398.018C325.296 398.21 325.822 398.491 326.291 398.862C326.76 399.228 327.152 399.675 327.467 400.204C327.783 400.728 328 401.327 328.119 402ZM333.366 411.23C332.743 411.23 332.179 411.113 331.672 410.879C331.165 410.64 330.762 410.297 330.464 409.849C330.165 409.398 330.016 408.852 330.016 408.213C330.016 407.651 330.127 407.195 330.349 406.845C330.57 406.491 330.866 406.214 331.237 406.014C331.608 405.814 332.017 405.665 332.464 405.567C332.916 405.464 333.37 405.384 333.826 405.324C334.422 405.247 334.906 405.19 335.277 405.151C335.652 405.109 335.925 405.038 336.095 404.94C336.27 404.842 336.357 404.672 336.357 404.429V404.378C336.357 403.747 336.184 403.257 335.839 402.908C335.498 402.558 334.981 402.384 334.286 402.384C333.566 402.384 333.001 402.541 332.592 402.857C332.183 403.172 331.895 403.509 331.729 403.866L330.297 403.355C330.553 402.759 330.894 402.294 331.32 401.962C331.751 401.625 332.219 401.391 332.726 401.259C333.238 401.122 333.741 401.054 334.235 401.054C334.55 401.054 334.912 401.092 335.322 401.169C335.735 401.241 336.133 401.393 336.517 401.623C336.905 401.853 337.226 402.2 337.482 402.665C337.738 403.129 337.866 403.751 337.866 404.531V411H336.357V409.67H336.28C336.178 409.884 336.008 410.112 335.769 410.354C335.53 410.597 335.213 410.804 334.817 410.974C334.42 411.145 333.937 411.23 333.366 411.23ZM333.596 409.875C334.192 409.875 334.695 409.758 335.104 409.523C335.518 409.289 335.829 408.987 336.037 408.616C336.251 408.245 336.357 407.855 336.357 407.446V406.065C336.293 406.142 336.153 406.212 335.935 406.276C335.722 406.336 335.475 406.389 335.194 406.436C334.917 406.479 334.646 406.517 334.382 406.551C334.122 406.581 333.911 406.607 333.749 406.628C333.357 406.679 332.991 406.762 332.65 406.877C332.313 406.988 332.04 407.156 331.831 407.382C331.627 407.604 331.525 407.906 331.525 408.29C331.525 408.814 331.719 409.21 332.106 409.479C332.498 409.743 332.995 409.875 333.596 409.875ZM344.582 414.886C343.853 414.886 343.227 414.793 342.703 414.605C342.179 414.422 341.742 414.179 341.392 413.876C341.047 413.578 340.772 413.259 340.568 412.918L341.77 412.074C341.906 412.253 342.078 412.457 342.287 412.688C342.496 412.922 342.782 413.124 343.144 413.295C343.51 413.469 343.99 413.557 344.582 413.557C345.375 413.557 346.029 413.365 346.544 412.982C347.06 412.598 347.318 411.997 347.318 411.179V409.185H347.19C347.079 409.364 346.922 409.585 346.717 409.849C346.517 410.109 346.227 410.342 345.848 410.546C345.473 410.746 344.966 410.847 344.326 410.847C343.534 410.847 342.822 410.659 342.191 410.284C341.565 409.909 341.069 409.364 340.702 408.648C340.34 407.932 340.159 407.062 340.159 406.04C340.159 405.034 340.336 404.158 340.689 403.413C341.043 402.663 341.535 402.083 342.166 401.674C342.797 401.261 343.525 401.054 344.352 401.054C344.991 401.054 345.498 401.161 345.873 401.374C346.252 401.582 346.542 401.821 346.743 402.089C346.947 402.354 347.105 402.571 347.216 402.741H347.369V401.182H348.826V411.281C348.826 412.125 348.635 412.811 348.251 413.339C347.872 413.872 347.36 414.262 346.717 414.509C346.078 414.761 345.366 414.886 344.582 414.886ZM344.531 409.491C345.136 409.491 345.647 409.353 346.065 409.076C346.483 408.799 346.8 408.401 347.017 407.881C347.235 407.361 347.343 406.739 347.343 406.014C347.343 405.307 347.237 404.683 347.024 404.141C346.811 403.6 346.495 403.176 346.078 402.869C345.66 402.562 345.145 402.409 344.531 402.409C343.892 402.409 343.359 402.571 342.933 402.895C342.511 403.219 342.194 403.653 341.98 404.199C341.772 404.744 341.667 405.349 341.667 406.014C341.667 406.696 341.774 407.299 341.987 407.823C342.204 408.343 342.524 408.752 342.946 409.05C343.372 409.344 343.9 409.491 344.531 409.491ZM355.704 411.205C354.758 411.205 353.942 410.996 353.256 410.578C352.574 410.156 352.048 409.568 351.677 408.814C351.311 408.055 351.127 407.173 351.127 406.168C351.127 405.162 351.311 404.276 351.677 403.509C352.048 402.737 352.564 402.136 353.224 401.706C353.889 401.271 354.664 401.054 355.551 401.054C356.062 401.054 356.567 401.139 357.066 401.31C357.564 401.48 358.018 401.757 358.427 402.141C358.836 402.52 359.162 403.023 359.405 403.649C359.648 404.276 359.77 405.047 359.77 405.963V406.602H352.201V405.298H358.235C358.235 404.744 358.125 404.25 357.903 403.815C357.686 403.381 357.375 403.038 356.97 402.786C356.569 402.535 356.096 402.409 355.551 402.409C354.95 402.409 354.43 402.558 353.991 402.857C353.556 403.151 353.222 403.534 352.988 404.007C352.753 404.48 352.636 404.987 352.636 405.528V406.398C352.636 407.139 352.764 407.768 353.02 408.283C353.279 408.795 353.64 409.185 354.1 409.453C354.56 409.717 355.095 409.849 355.704 409.849C356.1 409.849 356.458 409.794 356.778 409.683C357.102 409.568 357.381 409.398 357.615 409.172C357.85 408.942 358.031 408.656 358.159 408.315L359.616 408.724C359.463 409.219 359.205 409.653 358.843 410.028C358.48 410.399 358.033 410.689 357.5 410.898C356.968 411.102 356.369 411.205 355.704 411.205ZM374.081 403.381L372.726 403.764C372.641 403.538 372.515 403.319 372.349 403.106C372.187 402.888 371.966 402.71 371.684 402.569C371.403 402.428 371.043 402.358 370.604 402.358C370.003 402.358 369.502 402.496 369.102 402.773C368.706 403.046 368.507 403.393 368.507 403.815C368.507 404.19 368.644 404.487 368.917 404.704C369.189 404.921 369.615 405.102 370.195 405.247L371.652 405.605C372.53 405.818 373.184 406.144 373.615 406.583C374.045 407.018 374.26 407.578 374.26 408.264C374.26 408.827 374.098 409.33 373.775 409.773C373.455 410.216 373.007 410.565 372.432 410.821C371.857 411.077 371.188 411.205 370.425 411.205C369.424 411.205 368.595 410.987 367.939 410.553C367.282 410.118 366.867 409.483 366.692 408.648L368.124 408.29C368.26 408.818 368.518 409.214 368.897 409.479C369.281 409.743 369.782 409.875 370.4 409.875C371.103 409.875 371.661 409.726 372.074 409.428C372.492 409.125 372.701 408.763 372.701 408.341C372.701 408 372.581 407.714 372.343 407.484C372.104 407.25 371.738 407.075 371.243 406.96L369.607 406.577C368.708 406.364 368.047 406.033 367.625 405.586C367.208 405.134 366.999 404.57 366.999 403.892C366.999 403.338 367.154 402.848 367.466 402.422C367.781 401.996 368.209 401.661 368.75 401.418C369.296 401.175 369.914 401.054 370.604 401.054C371.576 401.054 372.338 401.267 372.892 401.693C373.451 402.119 373.847 402.682 374.081 403.381ZM376.531 411V401.182H378.04V411H376.531ZM377.298 399.545C377.004 399.545 376.751 399.445 376.537 399.245C376.329 399.045 376.224 398.804 376.224 398.523C376.224 398.241 376.329 398.001 376.537 397.8C376.751 397.6 377.004 397.5 377.298 397.5C377.592 397.5 377.844 397.6 378.052 397.8C378.265 398.001 378.372 398.241 378.372 398.523C378.372 398.804 378.265 399.045 378.052 399.245C377.844 399.445 377.592 399.545 377.298 399.545ZM380.521 411V409.849L386.095 402.69V402.588H380.7V401.182H388.038V402.384L382.618 409.491V409.594H388.217V411H380.521ZM394.376 411.205C393.43 411.205 392.614 410.996 391.928 410.578C391.246 410.156 390.72 409.568 390.349 408.814C389.983 408.055 389.799 407.173 389.799 406.168C389.799 405.162 389.983 404.276 390.349 403.509C390.72 402.737 391.235 402.136 391.896 401.706C392.561 401.271 393.336 401.054 394.223 401.054C394.734 401.054 395.239 401.139 395.738 401.31C396.236 401.48 396.69 401.757 397.099 402.141C397.508 402.52 397.834 403.023 398.077 403.649C398.32 404.276 398.441 405.047 398.441 405.963V406.602H390.873V405.298H396.907C396.907 404.744 396.797 404.25 396.575 403.815C396.358 403.381 396.047 403.038 395.642 402.786C395.241 402.535 394.768 402.409 394.223 402.409C393.622 402.409 393.102 402.558 392.663 402.857C392.228 403.151 391.894 403.534 391.659 404.007C391.425 404.48 391.308 404.987 391.308 405.528V406.398C391.308 407.139 391.436 407.768 391.691 408.283C391.951 408.795 392.311 409.185 392.772 409.453C393.232 409.717 393.767 409.849 394.376 409.849C394.772 409.849 395.13 409.794 395.45 409.683C395.774 409.568 396.053 409.398 396.287 409.172C396.522 408.942 396.703 408.656 396.831 408.315L398.288 408.724C398.135 409.219 397.877 409.653 397.515 410.028C397.152 410.399 396.705 410.689 396.172 410.898C395.64 411.102 395.041 411.205 394.376 411.205Z" fill="#2F2E2E"/>
<path d="M40.7443 401.182C40.6676 400.534 40.3565 400.031 39.8111 399.673C39.2656 399.315 38.5966 399.136 37.804 399.136C37.2244 399.136 36.7173 399.23 36.2827 399.418C35.8523 399.605 35.5156 399.863 35.2727 400.191C35.0341 400.519 34.9148 400.892 34.9148 401.31C34.9148 401.659 34.9979 401.96 35.1641 402.211C35.3345 402.458 35.5518 402.665 35.8161 402.831C36.0803 402.993 36.3572 403.127 36.647 403.234C36.9368 403.336 37.2031 403.419 37.446 403.483L38.7756 403.841C39.1165 403.93 39.4957 404.054 39.9134 404.212C40.3352 404.369 40.7379 404.585 41.1214 404.857C41.5092 405.126 41.8288 405.471 42.0803 405.893C42.3317 406.315 42.4574 406.832 42.4574 407.446C42.4574 408.153 42.272 408.793 41.9013 409.364C41.5348 409.935 40.9979 410.388 40.2905 410.725C39.5874 411.062 38.733 411.23 37.7273 411.23C36.7898 411.23 35.978 411.079 35.2919 410.776C34.6101 410.474 34.0732 410.052 33.6811 409.511C33.2933 408.969 33.0739 408.341 33.0227 407.625H34.6591C34.7017 408.119 34.8679 408.528 35.1577 408.852C35.4517 409.172 35.8224 409.411 36.2699 409.568C36.7216 409.722 37.2074 409.798 37.7273 409.798C38.3324 409.798 38.8757 409.7 39.3572 409.504C39.8388 409.304 40.2202 409.027 40.5014 408.673C40.7827 408.315 40.9233 407.898 40.9233 407.42C40.9233 406.986 40.8018 406.632 40.5589 406.359C40.3161 406.087 39.9964 405.865 39.6001 405.695C39.2038 405.524 38.7756 405.375 38.3153 405.247L36.7045 404.787C35.6818 404.493 34.8722 404.073 34.2756 403.528C33.679 402.982 33.3807 402.268 33.3807 401.386C33.3807 400.653 33.5788 400.014 33.9751 399.469C34.3757 398.919 34.9126 398.493 35.5859 398.19C36.2635 397.884 37.0199 397.73 37.8551 397.73C38.6989 397.73 39.4489 397.881 40.1051 398.184C40.7614 398.482 41.2813 398.891 41.6648 399.411C42.0526 399.931 42.2571 400.521 42.2784 401.182H40.7443ZM44.8592 414.682V401.182H46.3166V402.741H46.4956C46.6064 402.571 46.7598 402.354 46.9558 402.089C47.1561 401.821 47.4416 401.582 47.8123 401.374C48.1873 401.161 48.6944 401.054 49.3336 401.054C50.1603 401.054 50.889 401.261 51.5197 401.674C52.1504 402.087 52.6426 402.673 52.9963 403.432C53.35 404.19 53.5268 405.085 53.5268 406.116C53.5268 407.156 53.35 408.058 52.9963 408.82C52.6426 409.579 52.1525 410.167 51.5261 410.585C50.8997 410.998 50.1774 411.205 49.3592 411.205C48.7285 411.205 48.2235 411.1 47.8443 410.891C47.465 410.678 47.1731 410.437 46.9686 410.169C46.764 409.896 46.6064 409.67 46.4956 409.491H46.3677V414.682H44.8592ZM46.3422 406.091C46.3422 406.832 46.4508 407.487 46.6681 408.053C46.8855 408.616 47.2029 409.057 47.6206 409.376C48.0382 409.692 48.5495 409.849 49.1547 409.849C49.7853 409.849 50.3116 409.683 50.7335 409.351C51.1596 409.014 51.4792 408.562 51.6923 407.996C51.9096 407.425 52.0183 406.79 52.0183 406.091C52.0183 405.401 51.9118 404.778 51.6987 404.224C51.4899 403.666 51.1724 403.225 50.7463 402.901C50.3244 402.573 49.7939 402.409 49.1547 402.409C48.541 402.409 48.0254 402.565 47.6078 402.876C47.1902 403.183 46.8748 403.613 46.6618 404.167C46.4487 404.717 46.3422 405.358 46.3422 406.091ZM59.9444 411.205C58.9984 411.205 58.1824 410.996 57.4963 410.578C56.8145 410.156 56.2882 409.568 55.9174 408.814C55.551 408.055 55.3677 407.173 55.3677 406.168C55.3677 405.162 55.551 404.276 55.9174 403.509C56.2882 402.737 56.8038 402.136 57.4643 401.706C58.1291 401.271 58.9047 401.054 59.791 401.054C60.3024 401.054 60.8074 401.139 61.3059 401.31C61.8045 401.48 62.2583 401.757 62.6674 402.141C63.0765 402.52 63.4025 403.023 63.6454 403.649C63.8883 404.276 64.0098 405.047 64.0098 405.963V406.602H56.4416V405.298H62.4757C62.4757 404.744 62.3649 404.25 62.1433 403.815C61.926 403.381 61.6149 403.038 61.2101 402.786C60.8095 402.535 60.3365 402.409 59.791 402.409C59.1902 402.409 58.6703 402.558 58.2314 402.857C57.7967 403.151 57.4622 403.534 57.2278 404.007C56.9934 404.48 56.8762 404.987 56.8762 405.528V406.398C56.8762 407.139 57.0041 407.768 57.2598 408.283C57.5197 408.795 57.8798 409.185 58.34 409.453C58.8002 409.717 59.3351 409.849 59.9444 409.849C60.3407 409.849 60.6987 409.794 61.0183 409.683C61.3422 409.568 61.6213 409.398 61.8556 409.172C62.09 408.942 62.2711 408.656 62.399 408.315L63.8564 408.724C63.7029 409.219 63.4451 409.653 63.0829 410.028C62.7207 410.399 62.2733 410.689 61.7406 410.898C61.2079 411.102 60.6092 411.205 59.9444 411.205ZM70.2931 411.205C69.3727 411.205 68.5801 410.987 67.9153 410.553C67.2505 410.118 66.7392 409.519 66.3812 408.756C66.0233 407.994 65.8443 407.122 65.8443 406.142C65.8443 405.145 66.0275 404.265 66.394 403.502C66.7647 402.735 67.2804 402.136 67.9409 401.706C68.6056 401.271 69.3812 401.054 70.2676 401.054C70.9579 401.054 71.5801 401.182 72.1341 401.438C72.688 401.693 73.1419 402.051 73.4956 402.511C73.8493 402.972 74.0687 403.509 74.1539 404.122H72.6454C72.5304 403.675 72.2747 403.278 71.8784 402.933C71.4863 402.584 70.9579 402.409 70.2931 402.409C69.7051 402.409 69.1895 402.562 68.7463 402.869C68.3074 403.172 67.9643 403.6 67.7172 404.154C67.4743 404.704 67.3528 405.349 67.3528 406.091C67.3528 406.849 67.4721 407.51 67.7108 408.072C67.9537 408.635 68.2946 409.072 68.7335 409.383C69.1767 409.694 69.6966 409.849 70.2931 409.849C70.6852 409.849 71.041 409.781 71.3606 409.645C71.6802 409.509 71.9508 409.312 72.1724 409.057C72.394 408.801 72.5517 408.494 72.6454 408.136H74.1539C74.0687 408.716 73.8578 409.238 73.5211 409.702C73.1887 410.163 72.7477 410.529 72.198 410.802C71.6525 411.07 71.0176 411.205 70.2931 411.205ZM76.3592 411V401.182H77.8677V411H76.3592ZM77.1262 399.545C76.8322 399.545 76.5787 399.445 76.3656 399.245C76.1568 399.045 76.0524 398.804 76.0524 398.523C76.0524 398.241 76.1568 398.001 76.3656 397.8C76.5787 397.6 76.8322 397.5 77.1262 397.5C77.4203 397.5 77.6717 397.6 77.8805 397.8C78.0936 398.001 78.2001 398.241 78.2001 398.523C78.2001 398.804 78.0936 399.045 77.8805 399.245C77.6717 399.445 77.4203 399.545 77.1262 399.545ZM84.7472 411.205C83.8011 411.205 82.9851 410.996 82.299 410.578C81.6172 410.156 81.0909 409.568 80.7202 408.814C80.3537 408.055 80.1705 407.173 80.1705 406.168C80.1705 405.162 80.3537 404.276 80.7202 403.509C81.0909 402.737 81.6065 402.136 82.267 401.706C82.9318 401.271 83.7074 401.054 84.5938 401.054C85.1051 401.054 85.6101 401.139 86.1087 401.31C86.6072 401.48 87.0611 401.757 87.4702 402.141C87.8793 402.52 88.2053 403.023 88.4482 403.649C88.6911 404.276 88.8125 405.047 88.8125 405.963V406.602H81.2443V405.298H87.2784C87.2784 404.744 87.1676 404.25 86.946 403.815C86.7287 403.381 86.4176 403.038 86.0128 402.786C85.6122 402.535 85.1392 402.409 84.5938 402.409C83.9929 402.409 83.473 402.558 83.0341 402.857C82.5994 403.151 82.2649 403.534 82.0305 404.007C81.7962 404.48 81.679 404.987 81.679 405.528V406.398C81.679 407.139 81.8068 407.768 82.0625 408.283C82.3224 408.795 82.6825 409.185 83.1428 409.453C83.603 409.717 84.1378 409.849 84.7472 409.849C85.1435 409.849 85.5014 409.794 85.821 409.683C86.1449 409.568 86.424 409.398 86.6584 409.172C86.8928 408.942 87.0739 408.656 87.2017 408.315L88.6591 408.724C88.5057 409.219 88.2479 409.653 87.8857 410.028C87.5234 410.399 87.076 410.689 86.5433 410.898C86.0107 411.102 85.4119 411.205 84.7472 411.205ZM98.0618 403.381L96.7067 403.764C96.6214 403.538 96.4957 403.319 96.3295 403.106C96.1676 402.888 95.946 402.71 95.6648 402.569C95.3835 402.428 95.0234 402.358 94.5845 402.358C93.9837 402.358 93.483 402.496 93.0824 402.773C92.6861 403.046 92.4879 403.393 92.4879 403.815C92.4879 404.19 92.6243 404.487 92.897 404.704C93.1697 404.921 93.5959 405.102 94.1754 405.247L95.6328 405.605C96.5107 405.818 97.1648 406.144 97.5952 406.583C98.0256 407.018 98.2408 407.578 98.2408 408.264C98.2408 408.827 98.0788 409.33 97.755 409.773C97.4354 410.216 96.9879 410.565 96.4126 410.821C95.8374 411.077 95.1683 411.205 94.4055 411.205C93.4041 411.205 92.5753 410.987 91.919 410.553C91.2628 410.118 90.8473 409.483 90.6726 408.648L92.1044 408.29C92.2408 408.818 92.4986 409.214 92.8778 409.479C93.2614 409.743 93.7621 409.875 94.38 409.875C95.0831 409.875 95.6413 409.726 96.0547 409.428C96.4723 409.125 96.6811 408.763 96.6811 408.341C96.6811 408 96.5618 407.714 96.3232 407.484C96.0845 407.25 95.718 407.075 95.2237 406.96L93.5874 406.577C92.6882 406.364 92.0277 406.033 91.6058 405.586C91.1882 405.134 90.9794 404.57 90.9794 403.892C90.9794 403.338 91.1349 402.848 91.446 402.422C91.7614 401.996 92.1896 401.661 92.7308 401.418C93.2763 401.175 93.8942 401.054 94.5845 401.054C95.5561 401.054 96.3189 401.267 96.8729 401.693C97.4311 402.119 97.8274 402.682 98.0618 403.381Z" fill="#2F2E2E"/>
<path d="M40.7443 401.182C40.6676 400.534 40.3565 400.031 39.8111 399.673C39.2656 399.315 38.5966 399.136 37.804 399.136C37.2244 399.136 36.7173 399.23 36.2827 399.418C35.8523 399.605 35.5156 399.863 35.2727 400.191C35.0341 400.519 34.9148 400.892 34.9148 401.31C34.9148 401.659 34.9979 401.96 35.1641 402.211C35.3345 402.458 35.5518 402.665 35.8161 402.831C36.0803 402.993 36.3572 403.127 36.647 403.234C36.9368 403.336 37.2031 403.419 37.446 403.483L38.7756 403.841C39.1165 403.93 39.4957 404.054 39.9134 404.212C40.3352 404.369 40.7379 404.585 41.1214 404.857C41.5092 405.126 41.8288 405.471 42.0803 405.893C42.3317 406.315 42.4574 406.832 42.4574 407.446C42.4574 408.153 42.272 408.793 41.9013 409.364C41.5348 409.935 40.9979 410.388 40.2905 410.725C39.5874 411.062 38.733 411.23 37.7273 411.23C36.7898 411.23 35.978 411.079 35.2919 410.776C34.6101 410.474 34.0732 410.052 33.6811 409.511C33.2933 408.969 33.0739 408.341 33.0227 407.625H34.6591C34.7017 408.119 34.8679 408.528 35.1577 408.852C35.4517 409.172 35.8224 409.411 36.2699 409.568C36.7216 409.722 37.2074 409.798 37.7273 409.798C38.3324 409.798 38.8757 409.7 39.3572 409.504C39.8388 409.304 40.2202 409.027 40.5014 408.673C40.7827 408.315 40.9233 407.898 40.9233 407.42C40.9233 406.986 40.8018 406.632 40.5589 406.359C40.3161 406.087 39.9964 405.865 39.6001 405.695C39.2038 405.524 38.7756 405.375 38.3153 405.247L36.7045 404.787C35.6818 404.493 34.8722 404.073 34.2756 403.528C33.679 402.982 33.3807 402.268 33.3807 401.386C33.3807 400.653 33.5788 400.014 33.9751 399.469C34.3757 398.919 34.9126 398.493 35.5859 398.19C36.2635 397.884 37.0199 397.73 37.8551 397.73C38.6989 397.73 39.4489 397.881 40.1051 398.184C40.7614 398.482 41.2813 398.891 41.6648 399.411C42.0526 399.931 42.2571 400.521 42.2784 401.182H40.7443ZM44.8592 414.682V401.182H46.3166V402.741H46.4956C46.6064 402.571 46.7598 402.354 46.9558 402.089C47.1561 401.821 47.4416 401.582 47.8123 401.374C48.1873 401.161 48.6944 401.054 49.3336 401.054C50.1603 401.054 50.889 401.261 51.5197 401.674C52.1504 402.087 52.6426 402.673 52.9963 403.432C53.35 404.19 53.5268 405.085 53.5268 406.116C53.5268 407.156 53.35 408.058 52.9963 408.82C52.6426 409.579 52.1525 410.167 51.5261 410.585C50.8997 410.998 50.1774 411.205 49.3592 411.205C48.7285 411.205 48.2235 411.1 47.8443 410.891C47.465 410.678 47.1731 410.437 46.9686 410.169C46.764 409.896 46.6064 409.67 46.4956 409.491H46.3677V414.682H44.8592ZM46.3422 406.091C46.3422 406.832 46.4508 407.487 46.6681 408.053C46.8855 408.616 47.2029 409.057 47.6206 409.376C48.0382 409.692 48.5495 409.849 49.1547 409.849C49.7853 409.849 50.3116 409.683 50.7335 409.351C51.1596 409.014 51.4792 408.562 51.6923 407.996C51.9096 407.425 52.0183 406.79 52.0183 406.091C52.0183 405.401 51.9118 404.778 51.6987 404.224C51.4899 403.666 51.1724 403.225 50.7463 402.901C50.3244 402.573 49.7939 402.409 49.1547 402.409C48.541 402.409 48.0254 402.565 47.6078 402.876C47.1902 403.183 46.8748 403.613 46.6618 404.167C46.4487 404.717 46.3422 405.358 46.3422 406.091ZM59.9444 411.205C58.9984 411.205 58.1824 410.996 57.4963 410.578C56.8145 410.156 56.2882 409.568 55.9174 408.814C55.551 408.055 55.3677 407.173 55.3677 406.168C55.3677 405.162 55.551 404.276 55.9174 403.509C56.2882 402.737 56.8038 402.136 57.4643 401.706C58.1291 401.271 58.9047 401.054 59.791 401.054C60.3024 401.054 60.8074 401.139 61.3059 401.31C61.8045 401.48 62.2583 401.757 62.6674 402.141C63.0765 402.52 63.4025 403.023 63.6454 403.649C63.8883 404.276 64.0098 405.047 64.0098 405.963V406.602H56.4416V405.298H62.4757C62.4757 404.744 62.3649 404.25 62.1433 403.815C61.926 403.381 61.6149 403.038 61.2101 402.786C60.8095 402.535 60.3365 402.409 59.791 402.409C59.1902 402.409 58.6703 402.558 58.2314 402.857C57.7967 403.151 57.4622 403.534 57.2278 404.007C56.9934 404.48 56.8762 404.987 56.8762 405.528V406.398C56.8762 407.139 57.0041 407.768 57.2598 408.283C57.5197 408.795 57.8798 409.185 58.34 409.453C58.8002 409.717 59.3351 409.849 59.9444 409.849C60.3407 409.849 60.6987 409.794 61.0183 409.683C61.3422 409.568 61.6213 409.398 61.8556 409.172C62.09 408.942 62.2711 408.656 62.399 408.315L63.8564 408.724C63.7029 409.219 63.4451 409.653 63.0829 410.028C62.7207 410.399 62.2733 410.689 61.7406 410.898C61.2079 411.102 60.6092 411.205 59.9444 411.205ZM70.2931 411.205C69.3727 411.205 68.5801 410.987 67.9153 410.553C67.2505 410.118 66.7392 409.519 66.3812 408.756C66.0233 407.994 65.8443 407.122 65.8443 406.142C65.8443 405.145 66.0275 404.265 66.394 403.502C66.7647 402.735 67.2804 402.136 67.9409 401.706C68.6056 401.271 69.3812 401.054 70.2676 401.054C70.9579 401.054 71.5801 401.182 72.1341 401.438C72.688 401.693 73.1419 402.051 73.4956 402.511C73.8493 402.972 74.0687 403.509 74.1539 404.122H72.6454C72.5304 403.675 72.2747 403.278 71.8784 402.933C71.4863 402.584 70.9579 402.409 70.2931 402.409C69.7051 402.409 69.1895 402.562 68.7463 402.869C68.3074 403.172 67.9643 403.6 67.7172 404.154C67.4743 404.704 67.3528 405.349 67.3528 406.091C67.3528 406.849 67.4721 407.51 67.7108 408.072C67.9537 408.635 68.2946 409.072 68.7335 409.383C69.1767 409.694 69.6966 409.849 70.2931 409.849C70.6852 409.849 71.041 409.781 71.3606 409.645C71.6802 409.509 71.9508 409.312 72.1724 409.057C72.394 408.801 72.5517 408.494 72.6454 408.136H74.1539C74.0687 408.716 73.8578 409.238 73.5211 409.702C73.1887 410.163 72.7477 410.529 72.198 410.802C71.6525 411.07 71.0176 411.205 70.2931 411.205ZM76.3592 411V401.182H77.8677V411H76.3592ZM77.1262 399.545C76.8322 399.545 76.5787 399.445 76.3656 399.245C76.1568 399.045 76.0524 398.804 76.0524 398.523C76.0524 398.241 76.1568 398.001 76.3656 397.8C76.5787 397.6 76.8322 397.5 77.1262 397.5C77.4203 397.5 77.6717 397.6 77.8805 397.8C78.0936 398.001 78.2001 398.241 78.2001 398.523C78.2001 398.804 78.0936 399.045 77.8805 399.245C77.6717 399.445 77.4203 399.545 77.1262 399.545ZM84.7472 411.205C83.8011 411.205 82.9851 410.996 82.299 410.578C81.6172 410.156 81.0909 409.568 80.7202 408.814C80.3537 408.055 80.1705 407.173 80.1705 406.168C80.1705 405.162 80.3537 404.276 80.7202 403.509C81.0909 402.737 81.6065 402.136 82.267 401.706C82.9318 401.271 83.7074 401.054 84.5938 401.054C85.1051 401.054 85.6101 401.139 86.1087 401.31C86.6072 401.48 87.0611 401.757 87.4702 402.141C87.8793 402.52 88.2053 403.023 88.4482 403.649C88.6911 404.276 88.8125 405.047 88.8125 405.963V406.602H81.2443V405.298H87.2784C87.2784 404.744 87.1676 404.25 86.946 403.815C86.7287 403.381 86.4176 403.038 86.0128 402.786C85.6122 402.535 85.1392 402.409 84.5938 402.409C83.9929 402.409 83.473 402.558 83.0341 402.857C82.5994 403.151 82.2649 403.534 82.0305 404.007C81.7962 404.48 81.679 404.987 81.679 405.528V406.398C81.679 407.139 81.8068 407.768 82.0625 408.283C82.3224 408.795 82.6825 409.185 83.1428 409.453C83.603 409.717 84.1378 409.849 84.7472 409.849C85.1435 409.849 85.5014 409.794 85.821 409.683C86.1449 409.568 86.424 409.398 86.6584 409.172C86.8928 408.942 87.0739 408.656 87.2017 408.315L88.6591 408.724C88.5057 409.219 88.2479 409.653 87.8857 410.028C87.5234 410.399 87.076 410.689 86.5433 410.898C86.0107 411.102 85.4119 411.205 84.7472 411.205ZM98.0618 403.381L96.7067 403.764C96.6214 403.538 96.4957 403.319 96.3295 403.106C96.1676 402.888 95.946 402.71 95.6648 402.569C95.3835 402.428 95.0234 402.358 94.5845 402.358C93.9837 402.358 93.483 402.496 93.0824 402.773C92.6861 403.046 92.4879 403.393 92.4879 403.815C92.4879 404.19 92.6243 404.487 92.897 404.704C93.1697 404.921 93.5959 405.102 94.1754 405.247L95.6328 405.605C96.5107 405.818 97.1648 406.144 97.5952 406.583C98.0256 407.018 98.2408 407.578 98.2408 408.264C98.2408 408.827 98.0788 409.33 97.755 409.773C97.4354 410.216 96.9879 410.565 96.4126 410.821C95.8374 411.077 95.1683 411.205 94.4055 411.205C93.4041 411.205 92.5753 410.987 91.919 410.553C91.2628 410.118 90.8473 409.483 90.6726 408.648L92.1044 408.29C92.2408 408.818 92.4986 409.214 92.8778 409.479C93.2614 409.743 93.7621 409.875 94.38 409.875C95.0831 409.875 95.6413 409.726 96.0547 409.428C96.4723 409.125 96.6811 408.763 96.6811 408.341C96.6811 408 96.5618 407.714 96.3232 407.484C96.0845 407.25 95.718 407.075 95.2237 406.96L93.5874 406.577C92.6882 406.364 92.0277 406.033 91.6058 405.586C91.1882 405.134 90.9794 404.57 90.9794 403.892C90.9794 403.338 91.1349 402.848 91.446 402.422C91.7614 401.996 92.1896 401.661 92.7308 401.418C93.2763 401.175 93.8942 401.054 94.5845 401.054C95.5561 401.054 96.3189 401.267 96.8729 401.693C97.4311 402.119 97.8274 402.682 98.0618 403.381Z" fill="#2F2E2E"/>
<path d="M168.963 411L165.384 397.909H166.994L169.73 408.571H169.858L172.645 397.909H174.435L177.222 408.571H177.349L180.085 397.909H181.696L178.116 411H176.48L173.591 400.568H173.489L170.599 411H168.963ZM183.467 411V401.182H184.975V411H183.467ZM184.234 399.545C183.94 399.545 183.686 399.445 183.473 399.245C183.264 399.045 183.16 398.804 183.16 398.523C183.16 398.241 183.264 398.001 183.473 397.8C183.686 397.6 183.94 397.5 184.234 397.5C184.528 397.5 184.779 397.6 184.988 397.8C185.201 398.001 185.308 398.241 185.308 398.523C185.308 398.804 185.201 399.045 184.988 399.245C184.779 399.445 184.528 399.545 184.234 399.545ZM189.247 405.094V411H187.738V401.182H189.195V402.716H189.323C189.553 402.217 189.903 401.817 190.372 401.514C190.84 401.207 191.445 401.054 192.187 401.054C192.852 401.054 193.433 401.19 193.932 401.463C194.431 401.732 194.818 402.141 195.095 402.69C195.372 403.236 195.511 403.926 195.511 404.761V411H194.002V404.864C194.002 404.092 193.802 403.491 193.401 403.061C193.001 402.626 192.451 402.409 191.752 402.409C191.271 402.409 190.84 402.513 190.461 402.722C190.086 402.931 189.79 403.236 189.573 403.636C189.355 404.037 189.247 404.523 189.247 405.094ZM202.23 414.886C201.502 414.886 200.875 414.793 200.351 414.605C199.827 414.422 199.39 414.179 199.041 413.876C198.696 413.578 198.421 413.259 198.216 412.918L199.418 412.074C199.554 412.253 199.727 412.457 199.936 412.688C200.145 412.922 200.43 413.124 200.792 413.295C201.159 413.469 201.638 413.557 202.23 413.557C203.023 413.557 203.677 413.365 204.193 412.982C204.708 412.598 204.966 411.997 204.966 411.179V409.185H204.838C204.728 409.364 204.57 409.585 204.365 409.849C204.165 410.109 203.875 410.342 203.496 410.546C203.121 410.746 202.614 410.847 201.975 410.847C201.182 410.847 200.471 410.659 199.84 410.284C199.213 409.909 198.717 409.364 198.35 408.648C197.988 407.932 197.807 407.062 197.807 406.04C197.807 405.034 197.984 404.158 198.338 403.413C198.691 402.663 199.184 402.083 199.814 401.674C200.445 401.261 201.174 401.054 202 401.054C202.64 401.054 203.147 401.161 203.522 401.374C203.901 401.582 204.191 401.821 204.391 402.089C204.596 402.354 204.753 402.571 204.864 402.741H205.017V401.182H206.475V411.281C206.475 412.125 206.283 412.811 205.9 413.339C205.52 413.872 205.009 414.262 204.365 414.509C203.726 414.761 203.015 414.886 202.23 414.886ZM202.179 409.491C202.784 409.491 203.296 409.353 203.713 409.076C204.131 408.799 204.449 408.401 204.666 407.881C204.883 407.361 204.992 406.739 204.992 406.014C204.992 405.307 204.885 404.683 204.672 404.141C204.459 403.6 204.144 403.176 203.726 402.869C203.309 402.562 202.793 402.409 202.179 402.409C201.54 402.409 201.007 402.571 200.581 402.895C200.159 403.219 199.842 403.653 199.629 404.199C199.42 404.744 199.316 405.349 199.316 406.014C199.316 406.696 199.422 407.299 199.635 407.823C199.853 408.343 200.172 408.752 200.594 409.05C201.02 409.344 201.549 409.491 202.179 409.491ZM216.191 403.381L214.836 403.764C214.75 403.538 214.625 403.319 214.458 403.106C214.297 402.888 214.075 402.71 213.794 402.569C213.512 402.428 213.152 402.358 212.713 402.358C212.113 402.358 211.612 402.496 211.211 402.773C210.815 403.046 210.617 403.393 210.617 403.815C210.617 404.19 210.753 404.487 211.026 404.704C211.299 404.921 211.725 405.102 212.304 405.247L213.762 405.605C214.64 405.818 215.294 406.144 215.724 406.583C216.154 407.018 216.37 407.578 216.37 408.264C216.37 408.827 216.208 409.33 215.884 409.773C215.564 410.216 215.117 410.565 214.542 410.821C213.966 411.077 213.297 411.205 212.534 411.205C211.533 411.205 210.704 410.987 210.048 410.553C209.392 410.118 208.976 409.483 208.801 408.648L210.233 408.29C210.37 408.818 210.627 409.214 211.007 409.479C211.39 409.743 211.891 409.875 212.509 409.875C213.212 409.875 213.77 409.726 214.184 409.428C214.601 409.125 214.81 408.763 214.81 408.341C214.81 408 214.691 407.714 214.452 407.484C214.213 407.25 213.847 407.075 213.353 406.96L211.716 406.577C210.817 406.364 210.157 406.033 209.735 405.586C209.317 405.134 209.108 404.57 209.108 403.892C209.108 403.338 209.264 402.848 209.575 402.422C209.89 401.996 210.319 401.661 210.86 401.418C211.405 401.175 212.023 401.054 212.713 401.054C213.685 401.054 214.448 401.267 215.002 401.693C215.56 402.119 215.956 402.682 216.191 403.381ZM218.64 414.682V401.182H220.098V402.741H220.277C220.388 402.571 220.541 402.354 220.737 402.089C220.937 401.821 221.223 401.582 221.594 401.374C221.969 401.161 222.476 401.054 223.115 401.054C223.942 401.054 224.67 401.261 225.301 401.674C225.932 402.087 226.424 402.673 226.778 403.432C227.131 404.19 227.308 405.085 227.308 406.116C227.308 407.156 227.131 408.058 226.778 408.82C226.424 409.579 225.934 410.167 225.307 410.585C224.681 410.998 223.959 411.205 223.14 411.205C222.51 411.205 222.005 411.1 221.626 410.891C221.246 410.678 220.954 410.437 220.75 410.169C220.545 409.896 220.388 409.67 220.277 409.491H220.149V414.682H218.64ZM220.123 406.091C220.123 406.832 220.232 407.487 220.449 408.053C220.667 408.616 220.984 409.057 221.402 409.376C221.819 409.692 222.331 409.849 222.936 409.849C223.567 409.849 224.093 409.683 224.515 409.351C224.941 409.014 225.26 408.562 225.474 407.996C225.691 407.425 225.8 406.79 225.8 406.091C225.8 405.401 225.693 404.778 225.48 404.224C225.271 403.666 224.954 403.225 224.528 402.901C224.106 402.573 223.575 402.409 222.936 402.409C222.322 402.409 221.807 402.565 221.389 402.876C220.971 403.183 220.656 403.613 220.443 404.167C220.23 404.717 220.123 405.358 220.123 406.091ZM232.498 411.23C231.876 411.23 231.312 411.113 230.805 410.879C230.297 410.64 229.895 410.297 229.596 409.849C229.298 409.398 229.149 408.852 229.149 408.213C229.149 407.651 229.26 407.195 229.481 406.845C229.703 406.491 229.999 406.214 230.37 406.014C230.741 405.814 231.15 405.665 231.597 405.567C232.049 405.464 232.503 405.384 232.959 405.324C233.555 405.247 234.039 405.19 234.41 405.151C234.785 405.109 235.057 405.038 235.228 404.94C235.403 404.842 235.49 404.672 235.49 404.429V404.378C235.49 403.747 235.317 403.257 234.972 402.908C234.631 402.558 234.113 402.384 233.419 402.384C232.699 402.384 232.134 402.541 231.725 402.857C231.316 403.172 231.028 403.509 230.862 403.866L229.43 403.355C229.686 402.759 230.027 402.294 230.453 401.962C230.883 401.625 231.352 401.391 231.859 401.259C232.371 401.122 232.873 401.054 233.368 401.054C233.683 401.054 234.045 401.092 234.454 401.169C234.868 401.241 235.266 401.393 235.65 401.623C236.037 401.853 236.359 402.2 236.615 402.665C236.871 403.129 236.998 403.751 236.998 404.531V411H235.49V409.67H235.413C235.311 409.884 235.14 410.112 234.902 410.354C234.663 410.597 234.346 410.804 233.949 410.974C233.553 411.145 233.069 411.23 232.498 411.23ZM232.729 409.875C233.325 409.875 233.828 409.758 234.237 409.523C234.65 409.289 234.961 408.987 235.17 408.616C235.383 408.245 235.49 407.855 235.49 407.446V406.065C235.426 406.142 235.285 406.212 235.068 406.276C234.855 406.336 234.608 406.389 234.327 406.436C234.05 406.479 233.779 406.517 233.515 406.551C233.255 406.581 233.044 406.607 232.882 406.628C232.49 406.679 232.123 406.762 231.782 406.877C231.446 406.988 231.173 407.156 230.964 407.382C230.76 407.604 230.657 407.906 230.657 408.29C230.657 408.814 230.851 409.21 231.239 409.479C231.631 409.743 232.128 409.875 232.729 409.875ZM241.26 405.094V411H239.752V401.182H241.209V402.716H241.337C241.567 402.217 241.917 401.817 242.385 401.514C242.854 401.207 243.459 401.054 244.201 401.054C244.865 401.054 245.447 401.19 245.946 401.463C246.444 401.732 246.832 402.141 247.109 402.69C247.386 403.236 247.525 403.926 247.525 404.761V411H246.016V404.864C246.016 404.092 245.816 403.491 245.415 403.061C245.015 402.626 244.465 402.409 243.766 402.409C243.284 402.409 242.854 402.513 242.475 402.722C242.1 402.931 241.804 403.236 241.586 403.636C241.369 404.037 241.26 404.523 241.26 405.094Z" fill="#2F2E2E"/>
<path d="M18.625 806H14.5852V792.909H18.804C20.0739 792.909 21.1605 793.171 22.0639 793.695C22.9673 794.215 23.6598 794.963 24.1413 795.939C24.6229 796.911 24.8636 798.074 24.8636 799.429C24.8636 800.793 24.6207 801.967 24.1349 802.951C23.6491 803.931 22.9418 804.685 22.0128 805.214C21.0838 805.738 19.9545 806 18.625 806ZM16.1705 804.594H18.5227C19.6051 804.594 20.5021 804.385 21.2138 803.967C21.9254 803.55 22.456 802.955 22.8054 802.184C23.1548 801.413 23.3295 800.494 23.3295 799.429C23.3295 798.372 23.157 797.462 22.8118 796.7C22.4666 795.933 21.951 795.344 21.2649 794.935C20.5788 794.522 19.7244 794.315 18.7017 794.315H16.1705V804.594ZM27.3182 806V796.182H28.8267V806H27.3182ZM28.0852 794.545C27.7912 794.545 27.5376 794.445 27.3246 794.245C27.1158 794.045 27.0114 793.804 27.0114 793.523C27.0114 793.241 27.1158 793.001 27.3246 792.8C27.5376 792.6 27.7912 792.5 28.0852 792.5C28.3793 792.5 28.6307 792.6 28.8395 792.8C29.0526 793.001 29.1591 793.241 29.1591 793.523C29.1591 793.804 29.0526 794.045 28.8395 794.245C28.6307 794.445 28.3793 794.545 28.0852 794.545ZM35.7061 806.205C34.7601 806.205 33.9441 805.996 33.258 805.578C32.5762 805.156 32.0499 804.568 31.6792 803.814C31.3127 803.055 31.1294 802.173 31.1294 801.168C31.1294 800.162 31.3127 799.276 31.6792 798.509C32.0499 797.737 32.5655 797.136 33.226 796.706C33.8908 796.271 34.6664 796.054 35.5527 796.054C36.0641 796.054 36.5691 796.139 37.0676 796.31C37.5662 796.48 38.0201 796.757 38.4292 797.141C38.8382 797.52 39.1642 798.023 39.4071 798.649C39.65 799.276 39.7715 800.047 39.7715 800.963V801.602H32.2033V800.298H38.2374C38.2374 799.744 38.1266 799.25 37.905 798.815C37.6877 798.381 37.3766 798.038 36.9718 797.786C36.5712 797.535 36.0982 797.409 35.5527 797.409C34.9519 797.409 34.432 797.558 33.9931 797.857C33.5584 798.151 33.2239 798.534 32.9895 799.007C32.7551 799.48 32.638 799.987 32.638 800.528V801.398C32.638 802.139 32.7658 802.768 33.0215 803.283C33.2814 803.795 33.6415 804.185 34.1017 804.453C34.562 804.717 35.0968 804.849 35.7061 804.849C36.1025 804.849 36.4604 804.794 36.78 804.683C37.1039 804.568 37.383 804.398 37.6174 804.172C37.8517 803.942 38.0328 803.656 38.1607 803.315L39.6181 803.724C39.4647 804.219 39.2069 804.653 38.8446 805.028C38.4824 805.399 38.035 805.689 37.5023 805.898C36.9696 806.102 36.3709 806.205 35.7061 806.205ZM46.3361 796.182V797.46H41.248V796.182H46.3361ZM42.731 793.83H44.2395V803.188C44.2395 803.614 44.3013 803.933 44.4249 804.146C44.5527 804.355 44.7147 804.496 44.9107 804.568C45.111 804.636 45.3219 804.67 45.5435 804.67C45.7097 804.67 45.8461 804.662 45.9526 804.645C46.0591 804.624 46.1444 804.607 46.2083 804.594L46.5151 805.949C46.4128 805.987 46.2701 806.026 46.0868 806.064C45.9036 806.107 45.6713 806.128 45.3901 806.128C44.964 806.128 44.5463 806.036 44.1373 805.853C43.7324 805.67 43.3958 805.391 43.1273 805.016C42.8631 804.641 42.731 804.168 42.731 803.597V793.83ZM49.7047 806.102C49.3894 806.102 49.1188 805.989 48.8929 805.763C48.6671 805.538 48.5542 805.267 48.5542 804.952C48.5542 804.636 48.6671 804.366 48.8929 804.14C49.1188 803.914 49.3894 803.801 49.7047 803.801C50.0201 803.801 50.2907 803.914 50.5165 804.14C50.7424 804.366 50.8553 804.636 50.8553 804.952C50.8553 805.161 50.802 805.352 50.6955 805.527C50.5932 805.702 50.4547 805.842 50.28 805.949C50.1096 806.051 49.9178 806.102 49.7047 806.102ZM49.7047 798.815C49.3894 798.815 49.1188 798.702 48.8929 798.477C48.6671 798.251 48.5542 797.98 48.5542 797.665C48.5542 797.349 48.6671 797.079 48.8929 796.853C49.1188 796.627 49.3894 796.514 49.7047 796.514C50.0201 796.514 50.2907 796.627 50.5165 796.853C50.7424 797.079 50.8553 797.349 50.8553 797.665C50.8553 797.874 50.802 798.065 50.6955 798.24C50.5932 798.415 50.4547 798.555 50.28 798.662C50.1096 798.764 49.9178 798.815 49.7047 798.815Z" fill="#2F2E2E"/>
<path d="M349.5 162.154C349.5 156.822 353.822 152.5 359.154 152.5H382.846C388.178 152.5 392.5 156.822 392.5 162.154C392.5 167.486 388.178 171.808 382.846 171.808H359.154C353.822 171.808 349.5 167.486 349.5 162.154Z" fill="white" stroke="#2F2E2E"/>
<circle cx="359.153" cy="162.154" r="7.96154" fill="white" stroke="#2F2E2E"/>
<rect x="0.5" y="0.5" width="439" height="105" fill="white" stroke="#2F2E2E"/>
<path d="M30.8757 85C31.6327 85 32.1781 84.3457 32.1781 83.4689V78.47H32.5009C36.82 78.47 39.5362 79.7525 41.4842 84.0316C41.8738 84.8691 42.3859 85 42.8534 85C43.4434 85 44 84.3719 44 83.2465C44 73.5758 40.5158 67.5431 32.5009 67.5431H32.1781V62.5965C32.1781 61.7197 31.6327 61 30.8534 61C30.308 61 29.9406 61.2748 29.3506 61.9291L20.5677 71.5867C20.1336 72.0709 20 72.5551 20 73C20 73.4318 20.1447 73.9291 20.5677 74.4002L29.3506 84.1494C29.885 84.7383 30.3302 85 30.8757 85ZM30.2412 82.1865C30.1744 82.1865 30.1076 82.1472 30.0519 82.0687L22.115 73.2486C22.026 73.1439 21.9926 73.0785 21.9926 73C21.9926 72.9215 22.026 72.843 22.115 72.7514L30.0408 63.8135C30.0965 63.7612 30.1633 63.7088 30.2301 63.7088C30.3302 63.7088 30.3859 63.7874 30.3859 63.892V69.0872C30.3859 69.3882 30.5083 69.5191 30.7644 69.5191H32.256C39.8924 69.5191 42.1967 75.7481 42.4193 81.9248C42.4193 82.0294 42.3859 82.0687 42.3302 82.0687C42.2857 82.0687 42.2635 82.0294 42.2301 81.9378C40.9165 78.6532 37.5436 76.494 32.256 76.494H30.7644C30.5083 76.494 30.3859 76.6249 30.3859 76.9258V81.9902C30.3859 82.108 30.3302 82.1865 30.2412 82.1865Z" fill="#2F2E2E" stroke="#2F2E2E"/>
<path d="M127.202 79V60.8182H138.104V62.7713H129.403V68.9148H137.287V70.8679H129.403V79H127.202ZM141.444 79V65.3636H143.468V67.4233H143.61C143.859 66.7486 144.309 66.2011 144.96 65.7809C145.611 65.3607 146.345 65.1506 147.161 65.1506C147.315 65.1506 147.508 65.1535 147.738 65.1594C147.969 65.1654 148.144 65.1742 148.262 65.1861V67.3168C148.191 67.299 148.028 67.2724 147.774 67.2369C147.525 67.1954 147.262 67.1747 146.984 67.1747C146.321 67.1747 145.729 67.3138 145.208 67.592C144.693 67.8642 144.285 68.243 143.983 68.7283C143.687 69.2077 143.539 69.7552 143.539 70.3707V79H141.444ZM150.746 79V65.3636H152.841V79H150.746ZM151.811 63.0909C151.403 63.0909 151.051 62.9518 150.755 62.6737C150.465 62.3955 150.32 62.0611 150.32 61.6705C150.32 61.2798 150.465 60.9454 150.755 60.6673C151.051 60.3891 151.403 60.25 151.811 60.25C152.219 60.25 152.569 60.3891 152.859 60.6673C153.155 60.9454 153.303 61.2798 153.303 61.6705C153.303 62.0611 153.155 62.3955 152.859 62.6737C152.569 62.9518 152.219 63.0909 151.811 63.0909ZM162.396 79.2841C161.082 79.2841 159.948 78.9941 158.995 78.4141C158.049 77.8281 157.318 77.0114 156.803 75.9638C156.294 74.9103 156.039 73.6851 156.039 72.2884C156.039 70.8916 156.294 69.6605 156.803 68.5952C157.318 67.5239 158.034 66.6894 158.951 66.0916C159.874 65.4879 160.952 65.1861 162.183 65.1861C162.893 65.1861 163.594 65.3045 164.287 65.5412C164.979 65.7779 165.609 66.1626 166.178 66.6953C166.746 67.2221 167.199 67.9205 167.536 68.7905C167.873 69.6605 168.042 70.7318 168.042 72.0043V72.892H157.531V71.081H165.911C165.911 70.3116 165.757 69.625 165.45 69.0213C165.148 68.4176 164.716 67.9412 164.153 67.592C163.597 67.2428 162.94 67.0682 162.183 67.0682C161.348 67.0682 160.626 67.2753 160.016 67.6896C159.413 68.098 158.948 68.6307 158.623 69.2876C158.297 69.9446 158.134 70.6489 158.134 71.4006V72.608C158.134 73.6378 158.312 74.5108 158.667 75.2269C159.028 75.9371 159.528 76.4787 160.167 76.8516C160.807 77.2185 161.549 77.402 162.396 77.402C162.946 77.402 163.443 77.325 163.887 77.1712C164.337 77.0114 164.725 76.7746 165.05 76.4609C165.376 76.1413 165.627 75.7448 165.805 75.2713L167.829 75.8395C167.616 76.526 167.258 77.1297 166.755 77.6506C166.252 78.1655 165.63 78.5679 164.89 78.858C164.151 79.142 163.319 79.2841 162.396 79.2841ZM173.324 70.7969V79H171.229V65.3636H173.253V67.4943H173.431C173.75 66.8018 174.236 66.2455 174.887 65.8253C175.538 65.3991 176.378 65.1861 177.408 65.1861C178.331 65.1861 179.139 65.3755 179.832 65.7543C180.524 66.1271 181.063 66.6953 181.448 67.4588C181.832 68.2164 182.025 69.1752 182.025 70.3352V79H179.929V70.4773C179.929 69.406 179.651 68.5715 179.095 67.9737C178.539 67.37 177.775 67.0682 176.804 67.0682C176.136 67.0682 175.538 67.2132 175.011 67.5032C174.49 67.7932 174.079 68.2164 173.777 68.7727C173.475 69.3291 173.324 70.0038 173.324 70.7969ZM191.002 79.2841C189.866 79.2841 188.863 78.997 187.993 78.4229C187.123 77.8429 186.442 77.0262 185.951 75.9727C185.46 74.9132 185.214 73.6615 185.214 72.2173C185.214 70.785 185.46 69.5421 185.951 68.4886C186.442 67.4351 187.126 66.6213 188.002 66.0472C188.878 65.4731 189.89 65.1861 191.038 65.1861C191.926 65.1861 192.627 65.334 193.142 65.63C193.663 65.92 194.059 66.2514 194.331 66.6243C194.61 66.9912 194.826 67.2931 194.98 67.5298H195.157V60.8182H197.252V79H195.228V76.9048H194.98C194.826 77.1534 194.607 77.4671 194.323 77.8459C194.039 78.2187 193.633 78.5531 193.106 78.8491C192.58 79.1391 191.878 79.2841 191.002 79.2841ZM191.286 77.402C192.127 77.402 192.837 77.183 193.417 76.745C193.997 76.3011 194.438 75.6886 194.74 74.9073C195.042 74.1201 195.193 73.2116 195.193 72.1818C195.193 71.1638 195.045 70.2731 194.749 69.5096C194.453 68.7402 194.015 68.1424 193.435 67.7163C192.855 67.2842 192.139 67.0682 191.286 67.0682C190.399 67.0682 189.659 67.296 189.067 67.7518C188.481 68.2016 188.04 68.8142 187.744 69.5895C187.454 70.3589 187.309 71.223 187.309 72.1818C187.309 73.1525 187.457 74.0343 187.753 74.8274C188.055 75.6146 188.499 76.242 189.085 76.7095C189.677 77.1712 190.41 77.402 191.286 77.402ZM203.476 60.8182V79H201.381V60.8182H203.476ZM208.663 84.1136C208.307 84.1136 207.991 84.084 207.713 84.0249C207.434 83.9716 207.242 83.9183 207.136 83.8651L207.668 82.0185C208.177 82.1487 208.627 82.196 209.018 82.1605C209.408 82.125 209.755 81.9504 210.056 81.6367C210.364 81.329 210.645 80.8288 210.9 80.1364L211.29 79.071L206.248 65.3636H208.521L212.285 76.2301H212.427L216.191 65.3636H218.464L212.675 80.9886C212.415 81.6929 212.092 82.2759 211.708 82.7376C211.323 83.2051 210.876 83.5514 210.367 83.7763C209.864 84.0012 209.296 84.1136 208.663 84.1136ZM221.513 79V60.8182H232.415V62.7713H223.715V68.9148H231.598V70.8679H223.715V79H221.513ZM240.618 79.2841C239.304 79.2841 238.171 78.9941 237.218 78.4141C236.271 77.8281 235.54 77.0114 235.025 75.9638C234.516 74.9103 234.262 73.6851 234.262 72.2884C234.262 70.8916 234.516 69.6605 235.025 68.5952C235.54 67.5239 236.256 66.6894 237.174 66.0916C238.097 65.4879 239.174 65.1861 240.405 65.1861C241.116 65.1861 241.817 65.3045 242.509 65.5412C243.202 65.7779 243.832 66.1626 244.4 66.6953C244.968 67.2221 245.421 67.9205 245.759 68.7905C246.096 69.6605 246.265 70.7318 246.265 72.0043V72.892H235.753V71.081H244.134C244.134 70.3116 243.98 69.625 243.672 69.0213C243.37 68.4176 242.938 67.9412 242.376 67.592C241.82 67.2428 241.163 67.0682 240.405 67.0682C239.571 67.0682 238.849 67.2753 238.239 67.6896C237.635 68.098 237.171 68.6307 236.845 69.2876C236.52 69.9446 236.357 70.6489 236.357 71.4006V72.608C236.357 73.6378 236.535 74.5108 236.89 75.2269C237.251 75.9371 237.751 76.4787 238.39 76.8516C239.029 77.2185 239.772 77.402 240.618 77.402C241.169 77.402 241.666 77.325 242.11 77.1712C242.56 77.0114 242.947 76.7746 243.273 76.4609C243.598 76.1413 243.85 75.7448 244.027 75.2713L246.052 75.8395C245.839 76.526 245.48 77.1297 244.977 77.6506C244.474 78.1655 243.853 78.5679 243.113 78.858C242.373 79.142 241.542 79.2841 240.618 79.2841ZM253.465 79.3196C252.6 79.3196 251.816 79.1568 251.112 78.8313C250.408 78.4999 249.848 78.0234 249.434 77.402C249.02 76.7746 248.813 76.017 248.813 75.1293C248.813 74.348 248.966 73.7147 249.274 73.2294C249.582 72.7382 249.993 72.3535 250.508 72.0753C251.023 71.7971 251.591 71.59 252.213 71.4538C252.84 71.3118 253.47 71.1993 254.104 71.1165C254.932 71.0099 255.604 70.93 256.119 70.8768C256.64 70.8176 257.019 70.7199 257.255 70.5838C257.498 70.4477 257.619 70.2109 257.619 69.8736V69.8026C257.619 68.9266 257.38 68.246 256.9 67.7607C256.427 67.2753 255.708 67.0327 254.743 67.0327C253.743 67.0327 252.959 67.2517 252.39 67.6896C251.822 68.1276 251.423 68.5952 251.192 69.0923L249.203 68.3821C249.558 67.5535 250.032 66.9084 250.624 66.4467C251.221 65.9792 251.872 65.6536 252.577 65.4702C253.287 65.2808 253.985 65.1861 254.672 65.1861C255.11 65.1861 255.613 65.2393 256.181 65.3459C256.755 65.4465 257.309 65.6566 257.841 65.9762C258.38 66.2958 258.827 66.7782 259.182 67.4233C259.537 68.0684 259.715 68.9325 259.715 70.0156V79H257.619V77.1534H257.513C257.371 77.4493 257.134 77.766 256.803 78.1033C256.471 78.4407 256.03 78.7277 255.48 78.9645C254.929 79.2012 254.258 79.3196 253.465 79.3196ZM253.784 77.4375C254.613 77.4375 255.311 77.2747 255.879 76.9492C256.453 76.6237 256.886 76.2035 257.176 75.6886C257.471 75.1737 257.619 74.6321 257.619 74.0639V72.1463C257.531 72.2528 257.335 72.3505 257.033 72.4393C256.738 72.5221 256.394 72.5961 256.004 72.6612C255.619 72.7204 255.243 72.7737 254.876 72.821C254.515 72.8625 254.222 72.898 253.997 72.9276C253.453 72.9986 252.944 73.114 252.47 73.2738C252.003 73.4277 251.624 73.6615 251.334 73.9751C251.05 74.2829 250.908 74.7031 250.908 75.2358C250.908 75.9638 251.177 76.5142 251.716 76.8871C252.26 77.254 252.95 77.4375 253.784 77.4375ZM269.469 65.3636V67.1392H262.402V65.3636H269.469ZM264.462 62.0966H266.557V75.0938C266.557 75.6856 266.643 76.1295 266.815 76.4254C266.992 76.7154 267.217 76.9107 267.489 77.0114C267.768 77.1061 268.06 77.1534 268.368 77.1534C268.599 77.1534 268.788 77.1416 268.936 77.1179C269.084 77.0883 269.203 77.0646 269.292 77.0469L269.718 78.929C269.576 78.9822 269.377 79.0355 269.123 79.0888C268.868 79.148 268.546 79.1776 268.155 79.1776C267.563 79.1776 266.983 79.0503 266.415 78.7958C265.853 78.5413 265.385 78.1536 265.012 77.6328C264.645 77.112 264.462 76.455 264.462 75.6619V62.0966ZM275.009 70.7969V79H272.914V60.8182H275.009V67.4943H275.186C275.506 66.79 275.985 66.2307 276.625 65.8164C277.27 65.3962 278.128 65.1861 279.199 65.1861C280.128 65.1861 280.942 65.3725 281.641 65.7454C282.339 66.1123 282.881 66.6776 283.265 67.4411C283.656 68.1986 283.851 69.1634 283.851 70.3352V79H281.756V70.4773C281.756 69.3942 281.475 68.5567 280.913 67.9648C280.356 67.3671 279.584 67.0682 278.596 67.0682C277.909 67.0682 277.293 67.2132 276.749 67.5032C276.21 67.7932 275.784 68.2164 275.471 68.7727C275.163 69.3291 275.009 70.0038 275.009 70.7969ZM293.402 79.2841C292.088 79.2841 290.954 78.9941 290.001 78.4141C289.054 77.8281 288.323 77.0114 287.809 75.9638C287.3 74.9103 287.045 73.6851 287.045 72.2884C287.045 70.8916 287.3 69.6605 287.809 68.5952C288.323 67.5239 289.04 66.6894 289.957 66.0916C290.88 65.4879 291.957 65.1861 293.188 65.1861C293.899 65.1861 294.6 65.3045 295.293 65.5412C295.985 65.7779 296.615 66.1626 297.184 66.6953C297.752 67.2221 298.204 67.9205 298.542 68.7905C298.879 69.6605 299.048 70.7318 299.048 72.0043V72.892H288.536V71.081H296.917C296.917 70.3116 296.763 69.625 296.456 69.0213C296.154 68.4176 295.722 67.9412 295.159 67.592C294.603 67.2428 293.946 67.0682 293.188 67.0682C292.354 67.0682 291.632 67.2753 291.022 67.6896C290.419 68.098 289.954 68.6307 289.628 69.2876C289.303 69.9446 289.14 70.6489 289.14 71.4006V72.608C289.14 73.6378 289.318 74.5108 289.673 75.2269C290.034 75.9371 290.534 76.4787 291.173 76.8516C291.812 77.2185 292.555 77.402 293.402 77.402C293.952 77.402 294.449 77.325 294.893 77.1712C295.343 77.0114 295.73 76.7746 296.056 76.4609C296.382 76.1413 296.633 75.7448 296.811 75.2713L298.835 75.8395C298.622 76.526 298.264 77.1297 297.761 77.6506C297.257 78.1655 296.636 78.5679 295.896 78.858C295.156 79.142 294.325 79.2841 293.402 79.2841ZM302.235 79V65.3636H304.259V67.4233H304.401C304.65 66.7486 305.1 66.2011 305.751 65.7809C306.402 65.3607 307.136 65.1506 307.952 65.1506C308.106 65.1506 308.299 65.1535 308.529 65.1594C308.76 65.1654 308.935 65.1742 309.053 65.1861V67.3168C308.982 67.299 308.819 67.2724 308.565 67.2369C308.316 67.1954 308.053 67.1747 307.775 67.1747C307.112 67.1747 306.52 67.3138 305.999 67.592C305.484 67.8642 305.076 68.243 304.774 68.7283C304.478 69.2077 304.33 69.7552 304.33 70.3707V79H302.235ZM321.196 68.4176L319.314 68.9503C319.195 68.6366 319.021 68.3318 318.79 68.0359C318.565 67.734 318.257 67.4854 317.867 67.2901C317.476 67.0948 316.976 66.9972 316.366 66.9972C315.532 66.9972 314.836 67.1895 314.28 67.5742C313.73 67.953 313.454 68.4354 313.454 69.0213C313.454 69.5421 313.644 69.9535 314.023 70.2553C314.401 70.5572 314.993 70.8087 315.798 71.0099L317.822 71.5071C319.041 71.803 319.95 72.2558 320.548 72.8654C321.146 73.4691 321.444 74.2474 321.444 75.2003C321.444 75.9815 321.22 76.6799 320.77 77.2955C320.326 77.911 319.704 78.3963 318.905 78.7514C318.106 79.1065 317.177 79.2841 316.118 79.2841C314.727 79.2841 313.576 78.9822 312.664 78.3786C311.753 77.7749 311.176 76.893 310.933 75.733L312.922 75.2358C313.111 75.9697 313.469 76.5201 313.996 76.8871C314.529 77.254 315.224 77.4375 316.082 77.4375C317.059 77.4375 317.834 77.2304 318.408 76.8161C318.988 76.3958 319.278 75.8928 319.278 75.3068C319.278 74.8333 319.113 74.4368 318.781 74.1172C318.45 73.7917 317.941 73.549 317.254 73.3892L314.981 72.8565C313.733 72.5606 312.815 72.1019 312.229 71.4805C311.649 70.8531 311.359 70.0689 311.359 69.1278C311.359 68.3584 311.575 67.6778 312.007 67.0859C312.445 66.4941 313.04 66.0295 313.792 65.6921C314.549 65.3548 315.407 65.1861 316.366 65.1861C317.716 65.1861 318.775 65.482 319.545 66.0739C320.32 66.6657 320.87 67.447 321.196 68.4176Z" fill="#DD00A9"/>
<path fill-rule="evenodd" clip-rule="evenodd" d="M366 33.6667C366 32.1939 367.194 31 368.667 31H385.333C386.806 31 388 32.1939 388 33.6667V39.6667C388 41.1394 386.806 42.3333 385.333 42.3333H368.667C367.194 42.3333 366 41.1394 366 39.6667V33.6667Z" stroke="#2F2E2E"/>
<path d="M389 34.667V38.667C389.805 38.3282 390.328 37.5401 390.328 36.667C390.328 35.7939 389.805 35.0058 389 34.667" stroke="#2F2E2E"/>
<path d="M368 34.3333C368 33.597 368.597 33 369.333 33H384.667C385.403 33 386 33.597 386 34.3333V39C386 39.7364 385.403 40.3333 384.667 40.3333H369.333C368.597 40.3333 368 39.7364 368 39V34.3333Z" stroke="#2F2E2E"/>
<path d="M337 38.6665H338C338.552 38.6665 339 39.1142 339 39.6665V41.6665C339 42.2188 338.552 42.6665 338 42.6665H337C336.448 42.6665 336 42.2188 336 41.6665V39.6665C336 39.1142 336.448 38.6665 337 38.6665Z" stroke="#2F2E2E"/>
<path d="M341.668 36.6665H342.668C343.22 36.6665 343.668 37.1142 343.668 37.6665V41.6665C343.668 42.2188 343.22 42.6665 342.668 42.6665H341.668C341.116 42.6665 340.668 42.2188 340.668 41.6665V37.6665C340.668 37.1142 341.116 36.6665 341.668 36.6665Z" stroke="#2F2E2E"/>
<path d="M346.332 34.3335H347.332C347.884 34.3335 348.332 34.7812 348.332 35.3335V41.6668C348.332 42.2191 347.884 42.6668 347.332 42.6668H346.332C345.78 42.6668 345.332 42.2191 345.332 41.6668V35.3335C345.332 34.7812 345.78 34.3335 346.332 34.3335Z" stroke="#2F2E2E"/>
<path d="M351 32H352C352.552 32 353 32.4477 353 33V41.6667C353 42.219 352.552 42.6667 352 42.6667H351C350.448 42.6667 350 42.219 350 41.6667V33C350 32.4477 350.448 32 351 32V32Z" stroke="#2F2E2E"/>
<path d="M52.3418 39.7628V38.6761L57.1359 31.0909H57.9242V32.7741H57.3916L53.7694 38.5057V38.5909H60.2254V39.7628H52.3418ZM57.4768 42V39.4325V38.9265V31.0909H58.7339V42H57.4768ZM63.159 40.6044C62.8963 40.6044 62.6708 40.5103 62.4826 40.3221C62.2943 40.1339 62.2002 39.9084 62.2002 39.6456C62.2002 39.3828 62.2943 39.1573 62.4826 38.9691C62.6708 38.7809 62.8963 38.6868 63.159 38.6868C63.4218 38.6868 63.6473 38.7809 63.8355 38.9691C64.0237 39.1573 64.1179 39.3828 64.1179 39.6456C64.1179 39.8196 64.0735 39.9794 63.9847 40.125C63.8995 40.2706 63.784 40.3878 63.6385 40.4766C63.4964 40.5618 63.3366 40.6044 63.159 40.6044ZM63.159 35.0859C62.8963 35.0859 62.6708 34.9918 62.4826 34.8036C62.2943 34.6154 62.2002 34.3899 62.2002 34.1271C62.2002 33.8643 62.2943 33.6388 62.4826 33.4506C62.6708 33.2624 62.8963 33.1683 63.159 33.1683C63.4218 33.1683 63.6473 33.2624 63.8355 33.4506C64.0237 33.6388 64.1179 33.8643 64.1179 34.1271C64.1179 34.3011 64.0735 34.4609 63.9847 34.6065C63.8995 34.7521 63.784 34.8693 63.6385 34.9581C63.4964 35.0433 63.3366 35.0859 63.159 35.0859ZM66.3524 42V41.0412L69.9533 37.0994C70.3758 36.6378 70.7239 36.2365 70.9973 35.8956C71.2707 35.5511 71.4731 35.228 71.6045 34.9261C71.7395 34.6207 71.807 34.3011 71.807 33.9673C71.807 33.5838 71.7146 33.2518 71.53 32.9712C71.3489 32.6907 71.1003 32.4741 70.7842 32.3214C70.4682 32.1687 70.1131 32.0923 69.7189 32.0923C69.2998 32.0923 68.9341 32.1793 68.6216 32.3533C68.3126 32.5238 68.0729 32.7635 67.9025 33.0724C67.7356 33.3814 67.6521 33.7436 67.6521 34.1591H66.395C66.395 33.5199 66.5424 32.9588 66.8371 32.4759C67.1319 31.9929 67.5332 31.6165 68.041 31.3466C68.5523 31.0767 69.1258 30.9418 69.7615 30.9418C70.4007 30.9418 70.9671 31.0767 71.4607 31.3466C71.9543 31.6165 72.3414 31.9805 72.6219 32.4386C72.9025 32.8967 73.0427 33.4062 73.0427 33.9673C73.0427 34.3686 72.9699 34.761 72.8244 35.1445C72.6823 35.5245 72.4337 35.9489 72.0786 36.4176C71.7271 36.8828 71.2388 37.451 70.6138 38.1222L68.1635 40.7429V40.8281H73.2345V42H66.3524ZM79.0566 42.1491C78.6092 42.142 78.1617 42.0568 77.7143 41.8935C77.2668 41.7301 76.8584 41.4549 76.4891 41.0678C76.1198 40.6772 75.8233 40.1499 75.5996 39.4858C75.3758 38.8182 75.264 37.9801 75.264 36.9716C75.264 36.0057 75.3545 35.1499 75.5356 34.4041C75.7168 33.6548 75.9795 33.0245 76.324 32.5131C76.6685 31.9982 77.0839 31.6076 77.5704 31.3413C78.0605 31.0749 78.6127 30.9418 79.2271 30.9418C79.8378 30.9418 80.3812 31.0643 80.857 31.3093C81.3364 31.5508 81.7271 31.8881 82.0289 32.3214C82.3307 32.7546 82.5261 33.2536 82.6148 33.8182H81.3151C81.1944 33.3281 80.96 32.9215 80.612 32.5984C80.264 32.2752 79.8023 32.1136 79.2271 32.1136C78.3819 32.1136 77.716 32.4812 77.2295 33.2163C76.7466 33.9513 76.5033 34.983 76.4998 36.3111H76.585C76.7839 36.0092 77.02 35.7518 77.2935 35.5387C77.5704 35.3221 77.8758 35.1552 78.2097 35.038C78.5435 34.9208 78.8968 34.8622 79.2697 34.8622C79.8947 34.8622 80.4664 35.0185 80.9849 35.331C81.5033 35.6399 81.9188 36.0678 82.2313 36.6147C82.5438 37.158 82.7001 37.7812 82.7001 38.4844C82.7001 39.1591 82.5491 39.777 82.2473 40.3381C81.9454 40.8956 81.5211 41.3395 80.9742 41.6697C80.4309 41.9964 79.7917 42.1562 79.0566 42.1491ZM79.0566 40.9773C79.504 40.9773 79.9053 40.8654 80.2604 40.6417C80.6191 40.418 80.9014 40.1179 81.1074 39.7415C81.3169 39.3651 81.4217 38.946 81.4217 38.4844C81.4217 38.0334 81.3204 37.6232 81.118 37.2539C80.9192 36.881 80.644 36.5845 80.2924 36.3643C79.9444 36.1442 79.5467 36.0341 79.0992 36.0341C78.7619 36.0341 78.4476 36.1016 78.1564 36.2365C77.8652 36.3679 77.6095 36.549 77.3893 36.7798C77.1727 37.0107 77.0023 37.2752 76.878 37.5735C76.7537 37.8683 76.6915 38.179 76.6915 38.5057C76.6915 38.9389 76.7927 39.3437 76.9952 39.7202C77.2011 40.0966 77.4817 40.4002 77.8368 40.631C78.1954 40.8619 78.6021 40.9773 79.0566 40.9773ZM84.9866 42V31.0909H88.6726C89.5285 31.0909 90.228 31.2454 90.7714 31.5543C91.3182 31.8597 91.7231 32.2734 91.9858 32.7955C92.2486 33.3175 92.38 33.8999 92.38 34.5426C92.38 35.1854 92.2486 35.7695 91.9858 36.2951C91.7266 36.8207 91.3253 37.2397 90.782 37.5522C90.2387 37.8612 89.5427 38.0156 88.6939 38.0156H86.0519V36.8438H88.6513C89.2373 36.8438 89.7078 36.7425 90.0629 36.5401C90.418 36.3377 90.6755 36.0643 90.8353 35.7198C90.9986 35.3718 91.0803 34.9794 91.0803 34.5426C91.0803 34.1058 90.9986 33.7152 90.8353 33.3707C90.6755 33.0263 90.4162 32.7564 90.0576 32.5611C89.6989 32.3622 89.2231 32.2628 88.63 32.2628H86.3076V42H84.9866ZM94.508 31.0909H96.0847L99.7921 40.1463H99.92L103.627 31.0909H105.204V42H103.968V33.7116H103.862L100.453 42H99.2595L95.8504 33.7116H95.7438V42H94.508V31.0909Z" fill="#2F2E2E"/>
<rect x="23" y="426" width="90" height="20" rx="10" fill="#D0D0D0"/>
<rect x="187" y="426" width="52" height="20" rx="10" fill="#D0D0D0"/>
<rect x="310" y="426" width="107" height="20" rx="10" fill="#D0D0D0"/>
<rect x="23" y="449" width="90" height="20" rx="10" fill="#D0D0D0"/>
<rect x="14" y="494" width="411" height="271" rx="10" fill="#D0D0D0"/>
<g clip-path="url(#clip1_1564_12180)" filter="url(#filter0_i_1564_12180)">
<rect width="440" height="56" transform="translate(0 900)" fill="#F9F9F9"/>
<g filter="url(#filter1_d_1564_12180)">
<path d="M48 941.334V928H56V941.334M40 924L52 914.667L64 924V938.667C64 939.374 63.719 940.053 63.219 940.553C62.7189 941.053 62.0406 941.334 61.3333 941.334H42.6667C41.9594 941.334 41.2811 941.053 40.781 940.553C40.281 940.053 40 939.374 40 938.667V924Z" stroke="#2F2E2E" stroke-width="3" stroke-linecap="round" stroke-linejoin="round"/>
</g>
<g filter="url(#filter2_d_1564_12180)">
<path d="M48 941.334V928H56V941.334M40 924L52 914.667L64 924V938.667C64 939.374 63.719 940.053 63.219 940.553C62.7189 941.053 62.0406 941.334 61.3333 941.334H42.6667C41.9594 941.334 41.2811 941.053 40.781 940.553C40.281 940.053 40 939.374 40 938.667V924Z" stroke="#2F2E2E" stroke-width="3" stroke-linecap="round" stroke-linejoin="round"/>
</g>
<g filter="url(#filter3_d_1564_12180)">
<path d="M163.252 912V944" stroke="#2F2E2E" stroke-width="13.9"/>
<path d="M180 928.299L148 928.299" stroke="#2F2E2E" stroke-width="13.9"/>
</g>
<g filter="url(#filter4_d_1564_12180)">
<path d="M266.537 940.702C269.794 940.601 275.661 939.882 278.289 937.808C280.186 936.311 282.455 934.629 284.655 933.637" stroke="#2F2E2E" stroke-width="3" stroke-linecap="round"/>
<path d="M275.352 934.52C280.292 933.883 287.271 930.245 289.552 926.13" stroke="#2F2E2E" stroke-width="3" stroke-linecap="round"/>
<path d="M282.207 927.455C285.292 924.926 292 923.863 292 919.507" stroke="#2F2E2E" stroke-width="3" stroke-linecap="round"/>
<path d="M286.124 919.507C286.905 919.419 286.95 916.047 287.131 915.312C287.472 913.925 289.491 912.993 290.041 912" stroke="#2F2E2E" stroke-width="3" stroke-linecap="round"/>
<path d="M261.641 936.728C261.208 933.218 260.395 929.26 262.13 926.13" stroke="#2F2E2E" stroke-width="3" stroke-linecap="round"/>
<path d="M266.048 930.546C267.887 928.68 268.194 925.7 269.476 923.677C270.358 922.284 270.693 920.283 272.414 919.507" stroke="#2F2E2E" stroke-width="3" stroke-linecap="round"/>
<path d="M274.372 922.598C274.372 921.389 275.88 918.248 276.929 917.397C278.765 915.907 280.263 915.974 282.696 915.974" stroke="#2F2E2E" stroke-width="3" stroke-linecap="round"/>
<path d="M283.061 920.583L260 944" stroke="#2F2E2E" stroke-width="3" stroke-linecap="round"/>
</g>
<g filter="url(#filter5_d_1564_12180)">
<circle cx="388" cy="928" r="14.5" fill="#FAF8FA" stroke="#2F2E2E" stroke-width="3"/>
<path d="M388.533 922.347V933.76" stroke="#2F2E2E" stroke-width="3"/>
<path d="M394.507 928.16L383.094 928.16" stroke="#2F2E2E" stroke-width="3"/>
</g>
</g>
</g>
<defs>
<filter id="filter0_i_1564_12180" x="0" y="900" width="440" height="60" filterUnits="userSpaceOnUse" color-interpolation-filters="sRGB">
<feFlood flood-opacity="0" result="BackgroundImageFix"/>
<feBlend mode="normal" in="SourceGraphic" in2="BackgroundImageFix" result="shape"/>
<feColorMatrix in="SourceAlpha" type="matrix" values="0 0 0 0 0 0 0 0 0 0 0 0 0 0 0 0 0 0 127 0" result="hardAlpha"/>
<feOffset dy="5"/>
<feGaussianBlur stdDeviation="2"/>
<feComposite in2="hardAlpha" operator="arithmetic" k2="-1" k3="1"/>
<feColorMatrix type="matrix" values="0 0 0 0 0.770833 0 0 0 0 0.631441 0 0 0 0 0.722046 0 0 0 0.5 0"/>
<feBlend mode="normal" in2="shape" result="effect1_innerShadow_1564_12180"/>
</filter>
<filter id="filter1_d_1564_12180" x="31" y="912" width="42" height="44" filterUnits="userSpaceOnUse" color-interpolation-filters="sRGB">
<feFlood flood-opacity="0" result="BackgroundImageFix"/>
<feColorMatrix in="SourceAlpha" type="matrix" values="0 0 0 0 0 0 0 0 0 0 0 0 0 0 0 0 0 0 127 0" result="hardAlpha"/>
<feOffset dy="7"/>
<feGaussianBlur stdDeviation="2.5"/>
<feComposite in2="hardAlpha" operator="out"/>
<feColorMatrix type="matrix" values="0 0 0 0 0.770833 0 0 0 0 0.631441 0 0 0 0 0.722046 0 0 0 1 0"/>
<feBlend mode="normal" in2="BackgroundImageFix" result="effect1_dropShadow_1564_12180"/>
<feBlend mode="normal" in="SourceGraphic" in2="effect1_dropShadow_1564_12180" result="shape"/>
</filter>
<filter id="filter2_d_1564_12180" x="31" y="912" width="42" height="44" filterUnits="userSpaceOnUse" color-interpolation-filters="sRGB">
<feFlood flood-opacity="0" result="BackgroundImageFix"/>
<feColorMatrix in="SourceAlpha" type="matrix" values="0 0 0 0 0 0 0 0 0 0 0 0 0 0 0 0 0 0 127 0" result="hardAlpha"/>
<feOffset dy="7"/>
<feGaussianBlur stdDeviation="2.5"/>
<feComposite in2="hardAlpha" operator="out"/>
<feColorMatrix type="matrix" values="0 0 0 0 0.770833 0 0 0 0 0.631441 0 0 0 0 0.722046 0 0 0 1 0"/>
<feBlend mode="normal" in2="BackgroundImageFix" result="effect1_dropShadow_1564_12180"/>
<feBlend mode="normal" in="SourceGraphic" in2="effect1_dropShadow_1564_12180" result="shape"/>
</filter>
<filter id="filter3_d_1564_12180" x="143" y="912" width="42" height="44" filterUnits="userSpaceOnUse" color-interpolation-filters="sRGB">
<feFlood flood-opacity="0" result="BackgroundImageFix"/>
<feColorMatrix in="SourceAlpha" type="matrix" values="0 0 0 0 0 0 0 0 0 0 0 0 0 0 0 0 0 0 127 0" result="hardAlpha"/>
<feOffset dy="7"/>
<feGaussianBlur stdDeviation="2.5"/>
<feComposite in2="hardAlpha" operator="out"/>
<feColorMatrix type="matrix" values="0 0 0 0 0.770833 0 0 0 0 0.631441 0 0 0 0 0.722046 0 0 0 1 0"/>
<feBlend mode="normal" in2="BackgroundImageFix" result="effect1_dropShadow_1564_12180"/>
<feBlend mode="normal" in="SourceGraphic" in2="effect1_dropShadow_1564_12180" result="shape"/>
</filter>
<filter id="filter4_d_1564_12180" x="253.425" y="910.5" width="45.0747" height="46.9224" filterUnits="userSpaceOnUse" color-interpolation-filters="sRGB">
<feFlood flood-opacity="0" result="BackgroundImageFix"/>
<feColorMatrix in="SourceAlpha" type="matrix" values="0 0 0 0 0 0 0 0 0 0 0 0 0 0 0 0 0 0 127 0" result="hardAlpha"/>
<feOffset dy="7"/>
<feGaussianBlur stdDeviation="2.5"/>
<feComposite in2="hardAlpha" operator="out"/>
<feColorMatrix type="matrix" values="0 0 0 0 0.770833 0 0 0 0 0.631441 0 0 0 0 0.722046 0 0 0 1 0"/>
<feBlend mode="normal" in2="BackgroundImageFix" result="effect1_dropShadow_1564_12180"/>
<feBlend mode="normal" in="SourceGraphic" in2="effect1_dropShadow_1564_12180" result="shape"/>
</filter>
<filter id="filter5_d_1564_12180" x="367" y="912" width="42" height="44" filterUnits="userSpaceOnUse" color-interpolation-filters="sRGB">
<feFlood flood-opacity="0" result="BackgroundImageFix"/>
<feColorMatrix in="SourceAlpha" type="matrix" values="0 0 0 0 0 0 0 0 0 0 0 0 0 0 0 0 0 0 127 0" result="hardAlpha"/>
<feOffset dy="7"/>
<feGaussianBlur stdDeviation="2.5"/>
<feComposite in2="hardAlpha" operator="out"/>
<feColorMatrix type="matrix" values="0 0 0 0 0.770833 0 0 0 0 0.631441 0 0 0 0 0.722046 0 0 0 1 0"/>
<feBlend mode="normal" in2="BackgroundImageFix" result="effect1_dropShadow_1564_12180"/>
<feBlend mode="normal" in="SourceGraphic" in2="effect1_dropShadow_1564_12180" result="shape"/>
</filter>
<clipPath id="clip0_1564_12180">
<rect width="440" height="956" fill="white"/>
</clipPath>
<clipPath id="clip1_1564_12180">
<rect width="440" height="56" fill="white" transform="translate(0 900)"/>
</clipPath>
</defs>
</svg>
