<svg width="440" height="956" viewBox="0 0 440 956" fill="none" xmlns="http://www.w3.org/2000/svg">
<g clip-path="url(#clip0_1543_11008)">
<rect width="440" height="956" fill="white"/>
<rect x="0.5" y="0.5" width="439" height="955" fill="white" stroke="#2F2E2E"/>
<circle cx="33" cy="226" r="24.5" fill="white" stroke="#2F2E2E"/>
<circle cx="33" cy="226" r="25" fill="#B3B3B3"/>
<circle cx="33" cy="639" r="25" fill="#B3B3B3"/>
<rect x="0.5" y="850.5" width="439" height="105" fill="white" stroke="#2F2E2E"/>
<path d="M21.5 875C21.5 863.126 31.1259 853.5 43 853.5H397C408.874 853.5 418.5 863.126 418.5 875C418.5 886.874 408.874 896.5 397 896.5H43C31.1259 896.5 21.5 886.874 21.5 875Z" fill="white" stroke="#2F2E2E"/>
<path d="M37.5852 866.909H39.4773L43.9261 877.776H44.0795L48.5284 866.909H50.4205V880H48.9375V870.054H48.8097L44.7188 880H43.2869L39.196 870.054H39.0682V880H37.5852V866.909ZM57.5108 880.205C56.5648 880.205 55.7488 879.996 55.0627 879.578C54.3809 879.156 53.8546 878.568 53.4838 877.814C53.1174 877.055 52.9341 876.173 52.9341 875.168C52.9341 874.162 53.1174 873.276 53.4838 872.509C53.8546 871.737 54.3702 871.136 55.0307 870.706C55.6955 870.271 56.4711 870.054 57.3574 870.054C57.8688 870.054 58.3738 870.139 58.8723 870.31C59.3709 870.48 59.8248 870.757 60.2338 871.141C60.6429 871.52 60.9689 872.023 61.2118 872.649C61.4547 873.276 61.5762 874.047 61.5762 874.963V875.602H54.008V874.298H60.0421C60.0421 873.744 59.9313 873.25 59.7097 872.815C59.4924 872.381 59.1813 872.038 58.7765 871.786C58.3759 871.535 57.9029 871.409 57.3574 871.409C56.7566 871.409 56.2367 871.558 55.7978 871.857C55.3631 872.151 55.0286 872.534 54.7942 873.007C54.5598 873.48 54.4426 873.987 54.4426 874.528V875.398C54.4426 876.139 54.5705 876.768 54.8262 877.283C55.0861 877.795 55.4462 878.185 55.9064 878.453C56.3667 878.717 56.9015 878.849 57.5108 878.849C57.9071 878.849 58.2651 878.794 58.5847 878.683C58.9086 878.568 59.1877 878.398 59.4221 878.172C59.6564 877.942 59.8375 877.656 59.9654 877.315L61.4228 877.724C61.2694 878.219 61.0115 878.653 60.6493 879.028C60.2871 879.399 59.8397 879.689 59.307 879.898C58.7743 880.102 58.1756 880.205 57.5108 880.205ZM70.8255 872.381L69.4703 872.764C69.3851 872.538 69.2594 872.319 69.0932 872.106C68.9313 871.888 68.7097 871.71 68.4284 871.569C68.1472 871.428 67.7871 871.358 67.3482 871.358C66.7473 871.358 66.2466 871.496 65.8461 871.773C65.4498 872.046 65.2516 872.393 65.2516 872.815C65.2516 873.19 65.388 873.487 65.6607 873.704C65.9334 873.921 66.3596 874.102 66.9391 874.247L68.3965 874.605C69.2743 874.818 69.9284 875.144 70.3588 875.583C70.7892 876.018 71.0044 876.578 71.0044 877.264C71.0044 877.827 70.8425 878.33 70.5186 878.773C70.199 879.216 69.7516 879.565 69.1763 879.821C68.601 880.077 67.932 880.205 67.1692 880.205C66.1678 880.205 65.339 879.987 64.6827 879.553C64.0265 879.118 63.611 878.483 63.4363 877.648L64.8681 877.29C65.0044 877.818 65.2623 878.214 65.6415 878.479C66.025 878.743 66.5257 878.875 67.1436 878.875C67.8468 878.875 68.405 878.726 68.8184 878.428C69.236 878.125 69.4448 877.763 69.4448 877.341C69.4448 877 69.3255 876.714 69.0868 876.484C68.8482 876.25 68.4817 876.075 67.9874 875.96L66.351 875.577C65.4519 875.364 64.7914 875.033 64.3695 874.586C63.9519 874.134 63.7431 873.57 63.7431 872.892C63.7431 872.338 63.8986 871.848 64.2097 871.422C64.525 870.996 64.9533 870.661 65.4945 870.418C66.04 870.175 66.6578 870.054 67.3482 870.054C68.3198 870.054 69.0826 870.267 69.6365 870.693C70.1948 871.119 70.5911 871.682 70.8255 872.381ZM80.2298 872.381L78.8746 872.764C78.7894 872.538 78.6637 872.319 78.4975 872.106C78.3356 871.888 78.114 871.71 77.8327 871.569C77.5515 871.428 77.1914 871.358 76.7525 871.358C76.1516 871.358 75.6509 871.496 75.2504 871.773C74.854 872.046 74.6559 872.393 74.6559 872.815C74.6559 873.19 74.7923 873.487 75.065 873.704C75.3377 873.921 75.7638 874.102 76.3434 874.247L77.8008 874.605C78.6786 874.818 79.3327 875.144 79.7631 875.583C80.1935 876.018 80.4087 876.578 80.4087 877.264C80.4087 877.827 80.2468 878.33 79.9229 878.773C79.6033 879.216 79.1559 879.565 78.5806 879.821C78.0053 880.077 77.3363 880.205 76.5735 880.205C75.5721 880.205 74.7433 879.987 74.087 879.553C73.4308 879.118 73.0153 878.483 72.8406 877.648L74.2724 877.29C74.4087 877.818 74.6665 878.214 75.0458 878.479C75.4293 878.743 75.93 878.875 76.5479 878.875C77.2511 878.875 77.8093 878.726 78.2227 878.428C78.6403 878.125 78.8491 877.763 78.8491 877.341C78.8491 877 78.7298 876.714 78.4911 876.484C78.2525 876.25 77.886 876.075 77.3917 875.96L75.7553 875.577C74.8562 875.364 74.1957 875.033 73.7738 874.586C73.3562 874.134 73.1474 873.57 73.1474 872.892C73.1474 872.338 73.3029 871.848 73.614 871.422C73.9293 870.996 74.3576 870.661 74.8988 870.418C75.4442 870.175 76.0621 870.054 76.7525 870.054C77.7241 870.054 78.4869 870.267 79.0408 870.693C79.5991 871.119 79.9954 871.682 80.2298 872.381ZM85.5687 880.23C84.9466 880.23 84.3819 880.113 83.8748 879.879C83.3677 879.64 82.965 879.297 82.6667 878.849C82.3684 878.398 82.2193 877.852 82.2193 877.213C82.2193 876.651 82.3301 876.195 82.5517 875.845C82.7733 875.491 83.0694 875.214 83.4402 875.014C83.8109 874.814 84.22 874.665 84.6674 874.567C85.1191 874.464 85.573 874.384 86.0289 874.324C86.6255 874.247 87.1092 874.19 87.4799 874.151C87.8549 874.109 88.1277 874.038 88.2981 873.94C88.4728 873.842 88.5602 873.672 88.5602 873.429V873.378C88.5602 872.747 88.3876 872.257 88.0424 871.908C87.7015 871.558 87.1838 871.384 86.4892 871.384C85.769 871.384 85.2044 871.541 84.7953 871.857C84.3862 872.172 84.0985 872.509 83.9324 872.866L82.5005 872.355C82.7562 871.759 83.0971 871.294 83.5233 870.962C83.9537 870.625 84.4224 870.391 84.9295 870.259C85.4409 870.122 85.9437 870.054 86.438 870.054C86.7534 870.054 87.1156 870.092 87.5247 870.169C87.938 870.241 88.3365 870.393 88.72 870.623C89.1078 870.853 89.4295 871.2 89.6852 871.665C89.9409 872.129 90.0687 872.751 90.0687 873.531V880H88.5602V878.67H88.4835C88.3812 878.884 88.2108 879.112 87.9721 879.354C87.7335 879.597 87.416 879.804 87.0197 879.974C86.6234 880.145 86.1397 880.23 85.5687 880.23ZM85.7988 878.875C86.3954 878.875 86.8983 878.758 87.3074 878.523C87.7207 878.289 88.0318 877.987 88.2406 877.616C88.4537 877.245 88.5602 876.855 88.5602 876.446V875.065C88.4963 875.142 88.3556 875.212 88.1383 875.276C87.9252 875.336 87.6781 875.389 87.3968 875.436C87.1199 875.479 86.8493 875.517 86.5851 875.551C86.3251 875.581 86.1142 875.607 85.9522 875.628C85.5602 875.679 85.1937 875.762 84.8528 875.877C84.5162 875.988 84.2434 876.156 84.0346 876.382C83.8301 876.604 83.7278 876.906 83.7278 877.29C83.7278 877.814 83.9217 878.21 84.3095 878.479C84.7015 878.743 85.198 878.875 85.7988 878.875ZM96.7852 883.886C96.0565 883.886 95.43 883.793 94.9059 883.605C94.3817 883.422 93.945 883.179 93.5955 882.876C93.2504 882.578 92.9755 882.259 92.771 881.918L93.9727 881.074C94.109 881.253 94.2816 881.457 94.4904 881.688C94.6992 881.922 94.9847 882.124 95.3469 882.295C95.7134 882.469 96.1928 882.557 96.7852 882.557C97.5778 882.557 98.2319 882.365 98.7475 881.982C99.2631 881.598 99.521 880.997 99.521 880.179V878.185H99.3931C99.2823 878.364 99.1246 878.585 98.9201 878.849C98.7198 879.109 98.43 879.342 98.0508 879.546C97.6758 879.746 97.1687 879.847 96.5295 879.847C95.7369 879.847 95.0252 879.659 94.3945 879.284C93.7681 878.909 93.2717 878.364 92.9052 877.648C92.543 876.932 92.3619 876.062 92.3619 875.04C92.3619 874.034 92.5387 873.158 92.8924 872.413C93.2461 871.663 93.7383 871.083 94.369 870.674C94.9996 870.261 95.7283 870.054 96.555 870.054C97.1942 870.054 97.7013 870.161 98.0763 870.374C98.4556 870.582 98.7454 870.821 98.9457 871.089C99.1502 871.354 99.3079 871.571 99.4187 871.741H99.5721V870.182H101.029V880.281C101.029 881.125 100.838 881.811 100.454 882.339C100.075 882.872 99.5636 883.262 98.9201 883.509C98.2809 883.761 97.5692 883.886 96.7852 883.886ZM96.734 878.491C97.3391 878.491 97.8505 878.353 98.2681 878.076C98.6857 877.799 99.0032 877.401 99.2205 876.881C99.4379 876.361 99.5465 875.739 99.5465 875.014C99.5465 874.307 99.44 873.683 99.2269 873.141C99.0138 872.6 98.6985 872.176 98.2809 871.869C97.8633 871.562 97.3477 871.409 96.734 871.409C96.0948 871.409 95.5621 871.571 95.136 871.895C94.7141 872.219 94.3967 872.653 94.1836 873.199C93.9748 873.744 93.8704 874.349 93.8704 875.014C93.8704 875.696 93.9769 876.299 94.19 876.823C94.4073 877.343 94.7269 877.752 95.1488 878.05C95.5749 878.344 96.1033 878.491 96.734 878.491ZM107.907 880.205C106.961 880.205 106.145 879.996 105.459 879.578C104.777 879.156 104.251 878.568 103.88 877.814C103.514 877.055 103.331 876.173 103.331 875.168C103.331 874.162 103.514 873.276 103.88 872.509C104.251 871.737 104.767 871.136 105.427 870.706C106.092 870.271 106.868 870.054 107.754 870.054C108.265 870.054 108.77 870.139 109.269 870.31C109.767 870.48 110.221 870.757 110.63 871.141C111.039 871.52 111.365 872.023 111.608 872.649C111.851 873.276 111.973 874.047 111.973 874.963V875.602H104.404V874.298H110.439C110.439 873.744 110.328 873.25 110.106 872.815C109.889 872.381 109.578 872.038 109.173 871.786C108.772 871.535 108.299 871.409 107.754 871.409C107.153 871.409 106.633 871.558 106.194 871.857C105.76 872.151 105.425 872.534 105.191 873.007C104.956 873.48 104.839 873.987 104.839 874.528V875.398C104.839 876.139 104.967 876.768 105.223 877.283C105.483 877.795 105.843 878.185 106.303 878.453C106.763 878.717 107.298 878.849 107.907 878.849C108.304 878.849 108.662 878.794 108.981 878.683C109.305 878.568 109.584 878.398 109.819 878.172C110.053 877.942 110.234 877.656 110.362 877.315L111.819 877.724C111.666 878.219 111.408 878.653 111.046 879.028C110.684 879.399 110.236 879.689 109.703 879.898C109.171 880.102 108.572 880.205 107.907 880.205ZM115.367 880.102C115.051 880.102 114.781 879.989 114.555 879.763C114.329 879.538 114.216 879.267 114.216 878.952C114.216 878.636 114.329 878.366 114.555 878.14C114.781 877.914 115.051 877.801 115.367 877.801C115.682 877.801 115.953 877.914 116.179 878.14C116.404 878.366 116.517 878.636 116.517 878.952C116.517 879.161 116.464 879.352 116.358 879.527C116.255 879.702 116.117 879.842 115.942 879.949C115.772 880.051 115.58 880.102 115.367 880.102ZM120.324 880.102C120.009 880.102 119.738 879.989 119.512 879.763C119.286 879.538 119.173 879.267 119.173 878.952C119.173 878.636 119.286 878.366 119.512 878.14C119.738 877.914 120.009 877.801 120.324 877.801C120.639 877.801 120.91 877.914 121.136 878.14C121.362 878.366 121.474 878.636 121.474 878.952C121.474 879.161 121.421 879.352 121.315 879.527C121.212 879.702 121.074 879.842 120.899 879.949C120.729 880.051 120.537 880.102 120.324 880.102ZM125.281 880.102C124.966 880.102 124.695 879.989 124.469 879.763C124.243 879.538 124.13 879.267 124.13 878.952C124.13 878.636 124.243 878.366 124.469 878.14C124.695 877.914 124.966 877.801 125.281 877.801C125.596 877.801 125.867 877.914 126.093 878.14C126.319 878.366 126.431 878.636 126.431 878.952C126.431 879.161 126.378 879.352 126.272 879.527C126.169 879.702 126.031 879.842 125.856 879.949C125.686 880.051 125.494 880.102 125.281 880.102Z" fill="#2F2E2E"/>
<path d="M67.5 122C67.5 119.515 69.5147 117.5 72 117.5H339C341.485 117.5 343.5 119.515 343.5 122V178C343.5 180.485 341.485 182.5 339 182.5H72C69.5147 182.5 67.5 180.485 67.5 178V122Z" fill="white" stroke="#2F2E2E"/>
<path d="M66.5 190C66.5 187.515 68.5147 185.5 71 185.5H338C340.485 185.5 342.5 187.515 342.5 190V246C342.5 248.485 340.485 250.5 338 250.5H71C68.5147 250.5 66.5 248.485 66.5 246V190Z" fill="white" stroke="#2F2E2E"/>
<path d="M155 271C155 268.239 157.239 266 160 266H427C429.761 266 432 268.239 432 271V306C432 308.761 429.761 311 427 311H160C157.239 311 155 308.761 155 306V271Z" fill="#F6CCFF"/>
<path d="M155 319C155 316.239 157.239 314 160 314H427C429.761 314 432 316.239 432 319V375C432 377.761 429.761 380 427 380H160C157.239 380 155 377.761 155 375V319Z" fill="#F6CCFF"/>
<path d="M155 388C155 385.239 157.239 383 160 383H427C429.761 383 432 385.239 432 388V444C432 446.761 429.761 449 427 449H160C157.239 449 155 446.761 155 444V388Z" fill="#F6CCFF"/>
<path d="M66.5 469C66.5 466.515 68.5147 464.5 71 464.5H338C340.485 464.5 342.5 466.515 342.5 469V525C342.5 527.485 340.485 529.5 338 529.5H71C68.5147 529.5 66.5 527.485 66.5 525V469Z" fill="white" stroke="#2F2E2E"/>
<path d="M66.5 549C66.5 546.515 68.5147 544.5 71 544.5H338C340.485 544.5 342.5 546.515 342.5 549V584C342.5 586.485 340.485 588.5 338 588.5H71C68.5147 588.5 66.5 586.485 66.5 584V549Z" fill="white" stroke="#2F2E2E"/>
<path d="M66.5 605C66.5 602.515 68.5147 600.5 71 600.5H338C340.485 600.5 342.5 602.515 342.5 605V661C342.5 663.485 340.485 665.5 338 665.5H71C68.5147 665.5 66.5 663.485 66.5 661V605Z" fill="white" stroke="#2F2E2E"/>
<path d="M86.821 613.964V612.636H96.0938V613.964H92.206V625H90.7088V613.964H86.821ZM100.634 625.193C99.7964 625.193 99.0619 624.994 98.43 624.596C97.8022 624.197 97.3112 623.64 96.957 622.923C96.6069 622.207 96.4318 621.37 96.4318 620.412C96.4318 619.446 96.6069 618.603 96.957 617.882C97.3112 617.162 97.8022 616.603 98.43 616.204C99.0619 615.806 99.7964 615.607 100.634 615.607C101.471 615.607 102.203 615.806 102.831 616.204C103.463 616.603 103.954 617.162 104.304 617.882C104.658 618.603 104.835 619.446 104.835 620.412C104.835 621.37 104.658 622.207 104.304 622.923C103.954 623.64 103.463 624.197 102.831 624.596C102.203 624.994 101.471 625.193 100.634 625.193ZM100.634 623.913C101.269 623.913 101.793 623.75 102.203 623.424C102.614 623.098 102.917 622.67 103.115 622.138C103.312 621.607 103.411 621.032 103.411 620.412C103.411 619.792 103.312 619.215 103.115 618.679C102.917 618.144 102.614 617.711 102.203 617.381C101.793 617.051 101.269 616.886 100.634 616.886C99.9976 616.886 99.4744 617.051 99.0639 617.381C98.6534 617.711 98.3496 618.144 98.1523 618.679C97.9551 619.215 97.8565 619.792 97.8565 620.412C97.8565 621.032 97.9551 621.607 98.1523 622.138C98.3496 622.67 98.6534 623.098 99.0639 623.424C99.4744 623.75 99.9976 623.913 100.634 623.913ZM107.01 625V615.727H108.386V617.176H108.507C108.7 616.681 109.012 616.297 109.443 616.023C109.874 615.745 110.391 615.607 110.994 615.607C111.606 615.607 112.115 615.745 112.522 616.023C112.932 616.297 113.252 616.681 113.482 617.176H113.578C113.816 616.697 114.172 616.317 114.647 616.035C115.122 615.749 115.691 615.607 116.355 615.607C117.184 615.607 117.862 615.866 118.39 616.385C118.917 616.9 119.18 617.703 119.18 618.794V625H117.756V618.794C117.756 618.11 117.569 617.621 117.194 617.327C116.82 617.033 116.379 616.886 115.872 616.886C115.22 616.886 114.715 617.084 114.357 617.478C113.999 617.868 113.82 618.363 113.82 618.963V625H112.371V618.649C112.371 618.122 112.2 617.697 111.858 617.375C111.516 617.049 111.075 616.886 110.536 616.886C110.165 616.886 109.819 616.985 109.497 617.182C109.179 617.379 108.922 617.653 108.725 618.003C108.531 618.349 108.435 618.75 108.435 619.205V625H107.01ZM125.552 625.193C124.715 625.193 123.981 624.994 123.349 624.596C122.721 624.197 122.23 623.64 121.876 622.923C121.526 622.207 121.351 621.37 121.351 620.412C121.351 619.446 121.526 618.603 121.876 617.882C122.23 617.162 122.721 616.603 123.349 616.204C123.981 615.806 124.715 615.607 125.552 615.607C126.39 615.607 127.122 615.806 127.75 616.204C128.382 616.603 128.873 617.162 129.223 617.882C129.577 618.603 129.754 619.446 129.754 620.412C129.754 621.37 129.577 622.207 129.223 622.923C128.873 623.64 128.382 624.197 127.75 624.596C127.122 624.994 126.39 625.193 125.552 625.193ZM125.552 623.913C126.188 623.913 126.712 623.75 127.122 623.424C127.533 623.098 127.836 622.67 128.034 622.138C128.231 621.607 128.329 621.032 128.329 620.412C128.329 619.792 128.231 619.215 128.034 618.679C127.836 618.144 127.533 617.711 127.122 617.381C126.712 617.051 126.188 616.886 125.552 616.886C124.917 616.886 124.393 617.051 123.983 617.381C123.572 617.711 123.268 618.144 123.071 618.679C122.874 619.215 122.775 619.792 122.775 620.412C122.775 621.032 122.874 621.607 123.071 622.138C123.268 622.67 123.572 623.098 123.983 623.424C124.393 623.75 124.917 623.913 125.552 623.913ZM131.929 625V615.727H133.305V617.128H133.402C133.571 616.669 133.877 616.297 134.32 616.011C134.762 615.725 135.261 615.582 135.817 615.582C135.921 615.582 136.052 615.584 136.209 615.588C136.366 615.592 136.485 615.598 136.565 615.607V617.055C136.517 617.043 136.406 617.025 136.233 617.001C136.064 616.973 135.885 616.959 135.696 616.959C135.245 616.959 134.843 617.053 134.489 617.243C134.138 617.428 133.861 617.685 133.656 618.015C133.454 618.341 133.354 618.714 133.354 619.132V625H131.929ZM138.254 625V615.727H139.631V617.128H139.727C139.896 616.669 140.202 616.297 140.645 616.011C141.088 615.725 141.587 615.582 142.142 615.582C142.247 615.582 142.377 615.584 142.534 615.588C142.691 615.592 142.81 615.598 142.891 615.607V617.055C142.842 617.043 142.732 617.025 142.559 617.001C142.389 616.973 142.21 616.959 142.021 616.959C141.57 616.959 141.168 617.053 140.814 617.243C140.464 617.428 140.186 617.685 139.981 618.015C139.78 618.341 139.679 618.714 139.679 619.132V625H138.254ZM148.064 625.193C147.227 625.193 146.493 624.994 145.861 624.596C145.233 624.197 144.742 623.64 144.388 622.923C144.038 622.207 143.862 621.37 143.862 620.412C143.862 619.446 144.038 618.603 144.388 617.882C144.742 617.162 145.233 616.603 145.861 616.204C146.493 615.806 147.227 615.607 148.064 615.607C148.901 615.607 149.634 615.806 150.262 616.204C150.893 616.603 151.384 617.162 151.735 617.882C152.089 618.603 152.266 619.446 152.266 620.412C152.266 621.37 152.089 622.207 151.735 622.923C151.384 623.64 150.893 624.197 150.262 624.596C149.634 624.994 148.901 625.193 148.064 625.193ZM148.064 623.913C148.7 623.913 149.223 623.75 149.634 623.424C150.044 623.098 150.348 622.67 150.545 622.138C150.743 621.607 150.841 621.032 150.841 620.412C150.841 619.792 150.743 619.215 150.545 618.679C150.348 618.144 150.044 617.711 149.634 617.381C149.223 617.051 148.7 616.886 148.064 616.886C147.428 616.886 146.905 617.051 146.495 617.381C146.084 617.711 145.78 618.144 145.583 618.679C145.386 619.215 145.287 619.792 145.287 620.412C145.287 621.032 145.386 621.607 145.583 622.138C145.78 622.67 146.084 623.098 146.495 623.424C146.905 623.75 147.428 623.913 148.064 623.913ZM156.226 625L153.401 615.727H154.898L156.902 622.827H156.999L158.979 615.727H160.5L162.456 622.803H162.553L164.557 615.727H166.054L163.229 625H161.828L159.8 617.876H159.655L157.627 625H156.226ZM172.719 625V615.727H174.095V617.176H174.216C174.409 616.681 174.721 616.297 175.152 616.023C175.583 615.745 176.1 615.607 176.703 615.607C177.315 615.607 177.824 615.745 178.231 616.023C178.641 616.297 178.961 616.681 179.191 617.176H179.287C179.525 616.697 179.881 616.317 180.356 616.035C180.831 615.749 181.4 615.607 182.064 615.607C182.893 615.607 183.571 615.866 184.099 616.385C184.626 616.9 184.889 617.703 184.889 618.794V625H183.465V618.794C183.465 618.11 183.278 617.621 182.903 617.327C182.529 617.033 182.088 616.886 181.581 616.886C180.929 616.886 180.424 617.084 180.066 617.478C179.708 617.868 179.529 618.363 179.529 618.963V625H178.08V618.649C178.08 618.122 177.909 617.697 177.567 617.375C177.225 617.049 176.784 616.886 176.245 616.886C175.874 616.886 175.528 616.985 175.206 617.182C174.888 617.379 174.631 617.653 174.434 618.003C174.24 618.349 174.144 618.75 174.144 619.205V625H172.719ZM191.261 625.193C190.424 625.193 189.69 624.994 189.058 624.596C188.43 624.197 187.939 623.64 187.585 622.923C187.235 622.207 187.06 621.37 187.06 620.412C187.06 619.446 187.235 618.603 187.585 617.882C187.939 617.162 188.43 616.603 189.058 616.204C189.69 615.806 190.424 615.607 191.261 615.607C192.099 615.607 192.831 615.806 193.459 616.204C194.091 616.603 194.582 617.162 194.932 617.882C195.286 618.603 195.463 619.446 195.463 620.412C195.463 621.37 195.286 622.207 194.932 622.923C194.582 623.64 194.091 624.197 193.459 624.596C192.831 624.994 192.099 625.193 191.261 625.193ZM191.261 623.913C191.897 623.913 192.421 623.75 192.831 623.424C193.242 623.098 193.545 622.67 193.743 622.138C193.94 621.607 194.038 621.032 194.038 620.412C194.038 619.792 193.94 619.215 193.743 618.679C193.545 618.144 193.242 617.711 192.831 617.381C192.421 617.051 191.897 616.886 191.261 616.886C190.626 616.886 190.102 617.051 189.692 617.381C189.281 617.711 188.977 618.144 188.78 618.679C188.583 619.215 188.484 619.792 188.484 620.412C188.484 621.032 188.583 621.607 188.78 622.138C188.977 622.67 189.281 623.098 189.692 623.424C190.102 623.75 190.626 623.913 191.261 623.913ZM197.638 625V615.727H199.014V617.128H199.111C199.28 616.669 199.586 616.297 200.029 616.011C200.471 615.725 200.97 615.582 201.526 615.582C201.63 615.582 201.761 615.584 201.918 615.588C202.075 615.592 202.194 615.598 202.274 615.607V617.055C202.226 617.043 202.115 617.025 201.942 617.001C201.773 616.973 201.594 616.959 201.405 616.959C200.954 616.959 200.552 617.053 200.198 617.243C199.847 617.428 199.57 617.685 199.365 618.015C199.163 618.341 199.063 618.714 199.063 619.132V625H197.638ZM205.388 619.422V625H203.963V615.727H205.34V617.176H205.46C205.678 616.705 206.008 616.327 206.45 616.041C206.893 615.751 207.465 615.607 208.165 615.607C208.793 615.607 209.342 615.735 209.813 615.993C210.284 616.246 210.65 616.633 210.912 617.152C211.173 617.667 211.304 618.319 211.304 619.108V625H209.879V619.205C209.879 618.476 209.69 617.909 209.312 617.502C208.934 617.092 208.414 616.886 207.754 616.886C207.3 616.886 206.893 616.985 206.535 617.182C206.181 617.379 205.901 617.667 205.696 618.045C205.491 618.424 205.388 618.883 205.388 619.422ZM213.907 625V615.727H215.332V625H213.907ZM214.632 614.182C214.354 614.182 214.115 614.087 213.914 613.898C213.716 613.709 213.618 613.482 213.618 613.216C213.618 612.95 213.716 612.723 213.914 612.534C214.115 612.345 214.354 612.25 214.632 612.25C214.91 612.25 215.147 612.345 215.344 612.534C215.546 612.723 215.646 612.95 215.646 613.216C215.646 613.482 215.546 613.709 215.344 613.898C215.147 614.087 214.91 614.182 214.632 614.182ZM219.366 619.422V625H217.942V615.727H219.318V617.176H219.439C219.656 616.705 219.986 616.327 220.429 616.041C220.872 615.751 221.443 615.607 222.143 615.607C222.771 615.607 223.321 615.735 223.791 615.993C224.262 616.246 224.629 616.633 224.89 617.152C225.152 617.667 225.283 618.319 225.283 619.108V625H223.858V619.205C223.858 618.476 223.669 617.909 223.29 617.502C222.912 617.092 222.393 616.886 221.733 616.886C221.278 616.886 220.872 616.985 220.513 617.182C220.159 617.379 219.88 617.667 219.674 618.045C219.469 618.424 219.366 618.883 219.366 619.422ZM231.629 628.67C230.941 628.67 230.349 628.582 229.854 628.405C229.359 628.232 228.946 628.002 228.616 627.717C228.29 627.435 228.031 627.133 227.838 626.811L228.973 626.014C229.101 626.183 229.264 626.376 229.462 626.594C229.659 626.815 229.929 627.006 230.271 627.167C230.617 627.332 231.069 627.415 231.629 627.415C232.377 627.415 232.995 627.234 233.482 626.871C233.969 626.509 234.213 625.942 234.213 625.169V623.286H234.092C233.987 623.455 233.838 623.664 233.645 623.913C233.456 624.159 233.182 624.378 232.824 624.571C232.47 624.761 231.991 624.855 231.387 624.855C230.639 624.855 229.967 624.678 229.371 624.324C228.779 623.97 228.311 623.455 227.964 622.778C227.622 622.102 227.451 621.281 227.451 620.315C227.451 619.366 227.618 618.538 227.952 617.834C228.286 617.126 228.751 616.578 229.347 616.192C229.943 615.802 230.631 615.607 231.412 615.607C232.015 615.607 232.494 615.707 232.848 615.908C233.207 616.106 233.48 616.331 233.669 616.585C233.863 616.834 234.011 617.039 234.116 617.2H234.261V615.727H235.637V625.266C235.637 626.062 235.456 626.71 235.094 627.21C234.736 627.713 234.253 628.081 233.645 628.314C233.042 628.552 232.369 628.67 231.629 628.67ZM231.581 623.575C232.152 623.575 232.635 623.444 233.029 623.183C233.424 622.921 233.724 622.545 233.929 622.054C234.134 621.563 234.237 620.975 234.237 620.291C234.237 619.623 234.136 619.033 233.935 618.522C233.734 618.011 233.436 617.611 233.042 617.321C232.647 617.031 232.16 616.886 231.581 616.886C230.977 616.886 230.474 617.039 230.071 617.345C229.673 617.651 229.373 618.062 229.172 618.577C228.975 619.092 228.876 619.663 228.876 620.291C228.876 620.935 228.977 621.505 229.178 622C229.383 622.491 229.685 622.877 230.083 623.159C230.486 623.436 230.985 623.575 231.581 623.575ZM247.156 615.727V616.935H242.157V615.727H247.156ZM243.654 625V614.447C243.654 613.916 243.779 613.473 244.029 613.119C244.278 612.765 244.602 612.5 245.001 612.322C245.399 612.145 245.82 612.057 246.262 612.057C246.613 612.057 246.898 612.085 247.12 612.141C247.341 612.198 247.506 612.25 247.615 612.298L247.204 613.53C247.132 613.506 247.031 613.475 246.902 613.439C246.778 613.403 246.613 613.385 246.407 613.385C245.936 613.385 245.596 613.504 245.387 613.741C245.182 613.979 245.079 614.327 245.079 614.786V625H243.654ZM252.538 625.193C251.701 625.193 250.966 624.994 250.334 624.596C249.706 624.197 249.215 623.64 248.861 622.923C248.511 622.207 248.336 621.37 248.336 620.412C248.336 619.446 248.511 618.603 248.861 617.882C249.215 617.162 249.706 616.603 250.334 616.204C250.966 615.806 251.701 615.607 252.538 615.607C253.375 615.607 254.107 615.806 254.735 616.204C255.367 616.603 255.858 617.162 256.208 617.882C256.562 618.603 256.74 619.446 256.74 620.412C256.74 621.37 256.562 622.207 256.208 622.923C255.858 623.64 255.367 624.197 254.735 624.596C254.107 624.994 253.375 625.193 252.538 625.193ZM252.538 623.913C253.174 623.913 253.697 623.75 254.107 623.424C254.518 623.098 254.822 622.67 255.019 622.138C255.216 621.607 255.315 621.032 255.315 620.412C255.315 619.792 255.216 619.215 255.019 618.679C254.822 618.144 254.518 617.711 254.107 617.381C253.697 617.051 253.174 616.886 252.538 616.886C251.902 616.886 251.379 617.051 250.968 617.381C250.558 617.711 250.254 618.144 250.057 618.679C249.859 619.215 249.761 619.792 249.761 620.412C249.761 621.032 249.859 621.607 250.057 622.138C250.254 622.67 250.558 623.098 250.968 623.424C251.379 623.75 251.902 623.913 252.538 623.913ZM258.914 625V615.727H260.291V617.128H260.387C260.556 616.669 260.862 616.297 261.305 616.011C261.748 615.725 262.247 615.582 262.802 615.582C262.907 615.582 263.038 615.584 263.195 615.588C263.351 615.592 263.47 615.598 263.551 615.607V617.055C263.502 617.043 263.392 617.025 263.219 617.001C263.05 616.973 262.871 616.959 262.681 616.959C262.231 616.959 261.828 617.053 261.474 617.243C261.124 617.428 260.846 617.685 260.641 618.015C260.44 618.341 260.339 618.714 260.339 619.132V625H258.914ZM276.589 617.804L275.309 618.166C275.229 617.953 275.11 617.746 274.953 617.544C274.8 617.339 274.591 617.17 274.325 617.037C274.059 616.904 273.719 616.838 273.305 616.838C272.737 616.838 272.265 616.969 271.886 617.23C271.512 617.488 271.325 617.816 271.325 618.214C271.325 618.569 271.454 618.848 271.711 619.054C271.969 619.259 272.371 619.43 272.919 619.567L274.295 619.905C275.124 620.106 275.742 620.414 276.148 620.828C276.555 621.239 276.758 621.768 276.758 622.416C276.758 622.947 276.605 623.422 276.299 623.841C275.997 624.259 275.575 624.589 275.031 624.831C274.488 625.072 273.856 625.193 273.136 625.193C272.19 625.193 271.407 624.988 270.787 624.577C270.168 624.167 269.775 623.567 269.61 622.778L270.963 622.44C271.091 622.939 271.335 623.314 271.693 623.563C272.055 623.813 272.528 623.938 273.112 623.938C273.776 623.938 274.303 623.797 274.693 623.515C275.088 623.229 275.285 622.887 275.285 622.489C275.285 622.167 275.172 621.897 274.947 621.68C274.722 621.458 274.375 621.293 273.909 621.185L272.363 620.822C271.514 620.621 270.89 620.309 270.492 619.887C270.097 619.46 269.9 618.927 269.9 618.287C269.9 617.764 270.047 617.301 270.341 616.898C270.639 616.496 271.043 616.18 271.554 615.951C272.069 615.721 272.653 615.607 273.305 615.607C274.222 615.607 274.943 615.808 275.466 616.21C275.993 616.613 276.368 617.144 276.589 617.804ZM284.746 621.209V615.727H286.171V625H284.746V623.43H284.65C284.432 623.901 284.094 624.302 283.636 624.632C283.177 624.958 282.597 625.121 281.897 625.121C281.317 625.121 280.802 624.994 280.351 624.74C279.901 624.483 279.547 624.096 279.289 623.581C279.031 623.062 278.903 622.408 278.903 621.619V615.727H280.327V621.523C280.327 622.199 280.516 622.738 280.895 623.141C281.277 623.543 281.764 623.744 282.356 623.744C282.71 623.744 283.07 623.654 283.436 623.473C283.807 623.292 284.117 623.014 284.366 622.64C284.62 622.265 284.746 621.788 284.746 621.209ZM288.781 625V615.727H290.157V617.128H290.254C290.423 616.669 290.728 616.297 291.171 616.011C291.614 615.725 292.113 615.582 292.668 615.582C292.773 615.582 292.904 615.584 293.061 615.588C293.218 615.592 293.336 615.598 293.417 615.607V617.055C293.369 617.043 293.258 617.025 293.085 617.001C292.916 616.973 292.737 616.959 292.548 616.959C292.097 616.959 291.694 617.053 291.34 617.243C290.99 617.428 290.712 617.685 290.507 618.015C290.306 618.341 290.205 618.714 290.205 619.132V625H288.781ZM298.711 625.193C297.818 625.193 297.047 624.996 296.399 624.602C295.755 624.203 295.258 623.648 294.908 622.935C294.562 622.219 294.389 621.386 294.389 620.436C294.389 619.486 294.562 618.649 294.908 617.925C295.258 617.196 295.745 616.629 296.369 616.222C296.997 615.812 297.729 615.607 298.566 615.607C299.049 615.607 299.526 615.687 299.997 615.848C300.468 616.009 300.897 616.271 301.283 616.633C301.669 616.991 301.977 617.466 302.207 618.058C302.436 618.649 302.551 619.378 302.551 620.243V620.847H295.403V619.615H301.102C301.102 619.092 300.997 618.625 300.788 618.214C300.583 617.804 300.289 617.48 299.907 617.243C299.528 617.005 299.082 616.886 298.566 616.886C297.999 616.886 297.508 617.027 297.093 617.309C296.683 617.587 296.367 617.949 296.146 618.396C295.924 618.842 295.814 619.321 295.814 619.832V620.653C295.814 621.354 295.934 621.947 296.176 622.434C296.421 622.917 296.761 623.286 297.196 623.539C297.631 623.789 298.136 623.913 298.711 623.913C299.086 623.913 299.424 623.861 299.725 623.756C300.031 623.648 300.295 623.487 300.516 623.273C300.738 623.056 300.909 622.786 301.029 622.464L302.406 622.851C302.261 623.318 302.018 623.728 301.675 624.082C301.333 624.433 300.911 624.706 300.408 624.903C299.905 625.097 299.339 625.193 298.711 625.193ZM88.9943 633.636V646H87.4972V633.636H88.9943ZM98.6851 646L95.8598 636.727H97.357L99.3612 643.827H99.4578L101.438 636.727H102.959L104.915 643.803H105.012L107.016 636.727H108.513L105.688 646H104.287L102.259 638.876H102.114L100.086 646H98.6851ZM110.397 646V636.727H111.821V646H110.397ZM111.121 635.182C110.843 635.182 110.604 635.087 110.403 634.898C110.206 634.709 110.107 634.482 110.107 634.216C110.107 633.95 110.206 633.723 110.403 633.534C110.604 633.345 110.843 633.25 111.121 633.25C111.399 633.25 111.636 633.345 111.834 633.534C112.035 633.723 112.135 633.95 112.135 634.216C112.135 634.482 112.035 634.709 111.834 634.898C111.636 635.087 111.399 635.182 111.121 635.182ZM115.856 633.636V646H114.431V633.636H115.856ZM119.89 633.636V646H118.465V633.636H119.89ZM133.849 638.804L132.569 639.166C132.488 638.953 132.37 638.746 132.213 638.544C132.06 638.339 131.85 638.17 131.585 638.037C131.319 637.904 130.979 637.838 130.565 637.838C129.997 637.838 129.524 637.969 129.146 638.23C128.772 638.488 128.585 638.816 128.585 639.214C128.585 639.569 128.713 639.848 128.971 640.054C129.228 640.259 129.631 640.43 130.178 640.567L131.555 640.905C132.384 641.106 133.002 641.414 133.408 641.828C133.815 642.239 134.018 642.768 134.018 643.416C134.018 643.947 133.865 644.422 133.559 644.841C133.257 645.259 132.835 645.589 132.291 645.831C131.748 646.072 131.116 646.193 130.396 646.193C129.45 646.193 128.667 645.988 128.047 645.577C127.427 645.167 127.035 644.567 126.87 643.778L128.222 643.44C128.351 643.939 128.595 644.314 128.953 644.563C129.315 644.813 129.788 644.938 130.371 644.938C131.036 644.938 131.563 644.797 131.953 644.515C132.348 644.229 132.545 643.887 132.545 643.489C132.545 643.167 132.432 642.897 132.207 642.68C131.981 642.458 131.635 642.293 131.168 642.185L129.623 641.822C128.774 641.621 128.15 641.309 127.751 640.887C127.357 640.46 127.16 639.927 127.16 639.287C127.16 638.764 127.307 638.301 127.6 637.898C127.898 637.496 128.303 637.18 128.814 636.951C129.329 636.721 129.913 636.607 130.565 636.607C131.482 636.607 132.203 636.808 132.726 637.21C133.253 637.613 133.627 638.144 133.849 638.804ZM139.929 646.193C139.092 646.193 138.358 645.994 137.726 645.596C137.098 645.197 136.607 644.64 136.253 643.923C135.903 643.207 135.728 642.37 135.728 641.412C135.728 640.446 135.903 639.603 136.253 638.882C136.607 638.162 137.098 637.603 137.726 637.204C138.358 636.806 139.092 636.607 139.929 636.607C140.767 636.607 141.499 636.806 142.127 637.204C142.759 637.603 143.25 638.162 143.6 638.882C143.954 639.603 144.131 640.446 144.131 641.412C144.131 642.37 143.954 643.207 143.6 643.923C143.25 644.64 142.759 645.197 142.127 645.596C141.499 645.994 140.767 646.193 139.929 646.193ZM139.929 644.913C140.565 644.913 141.089 644.75 141.499 644.424C141.91 644.098 142.213 643.67 142.411 643.138C142.608 642.607 142.706 642.032 142.706 641.412C142.706 640.792 142.608 640.215 142.411 639.679C142.213 639.144 141.91 638.711 141.499 638.381C141.089 638.051 140.565 637.886 139.929 637.886C139.294 637.886 138.77 638.051 138.36 638.381C137.949 638.711 137.645 639.144 137.448 639.679C137.251 640.215 137.152 640.792 137.152 641.412C137.152 642.032 137.251 642.607 137.448 643.138C137.645 643.67 137.949 644.098 138.36 644.424C138.77 644.75 139.294 644.913 139.929 644.913ZM147.731 633.636V646H146.306V633.636H147.731ZM157.922 636.727L154.494 646H153.045L149.616 636.727H151.161L153.721 644.116H153.817L156.377 636.727H157.922ZM163.359 646.193C162.465 646.193 161.695 645.996 161.047 645.602C160.403 645.203 159.906 644.648 159.555 643.935C159.209 643.219 159.036 642.386 159.036 641.436C159.036 640.486 159.209 639.649 159.555 638.925C159.906 638.196 160.393 637.629 161.016 637.222C161.644 636.812 162.377 636.607 163.214 636.607C163.697 636.607 164.174 636.687 164.645 636.848C165.116 637.009 165.544 637.271 165.93 637.633C166.317 637.991 166.625 638.466 166.854 639.058C167.084 639.649 167.198 640.378 167.198 641.243V641.847H160.051V640.615H165.749C165.749 640.092 165.645 639.625 165.435 639.214C165.23 638.804 164.936 638.48 164.554 638.243C164.176 638.005 163.729 637.886 163.214 637.886C162.646 637.886 162.155 638.027 161.741 638.309C161.33 638.587 161.014 638.949 160.793 639.396C160.572 639.842 160.461 640.321 160.461 640.832V641.653C160.461 642.354 160.582 642.947 160.823 643.434C161.069 643.917 161.409 644.286 161.843 644.539C162.278 644.789 162.783 644.913 163.359 644.913C163.733 644.913 164.071 644.861 164.373 644.756C164.679 644.648 164.942 644.487 165.164 644.273C165.385 644.056 165.556 643.786 165.677 643.464L167.053 643.851C166.908 644.318 166.665 644.728 166.323 645.082C165.981 645.433 165.558 645.706 165.055 645.903C164.552 646.097 163.987 646.193 163.359 646.193ZM178.179 636.727V637.935H173.374V636.727H178.179ZM174.775 634.506H176.199V643.344C176.199 643.746 176.258 644.048 176.374 644.249C176.495 644.446 176.648 644.579 176.833 644.648C177.022 644.712 177.222 644.744 177.431 644.744C177.588 644.744 177.717 644.736 177.817 644.72C177.918 644.7 177.998 644.684 178.059 644.672L178.348 645.952C178.252 645.988 178.117 646.024 177.944 646.06C177.771 646.101 177.552 646.121 177.286 646.121C176.883 646.121 176.489 646.034 176.103 645.861C175.72 645.688 175.402 645.424 175.149 645.07C174.899 644.716 174.775 644.269 174.775 643.73V634.506ZM181.946 640.422V646H180.522V633.636H181.946V638.176H182.067C182.285 637.697 182.611 637.317 183.045 637.035C183.484 636.749 184.067 636.607 184.796 636.607C185.428 636.607 185.981 636.733 186.456 636.987C186.931 637.236 187.299 637.621 187.561 638.14C187.826 638.655 187.959 639.311 187.959 640.108V646H186.535V640.205C186.535 639.468 186.343 638.899 185.961 638.496C185.583 638.09 185.057 637.886 184.385 637.886C183.919 637.886 183.5 637.985 183.13 638.182C182.763 638.379 182.474 638.667 182.26 639.045C182.051 639.424 181.946 639.883 181.946 640.422ZM194.453 646.193C193.56 646.193 192.789 645.996 192.141 645.602C191.497 645.203 191 644.648 190.65 643.935C190.304 643.219 190.131 642.386 190.131 641.436C190.131 640.486 190.304 639.649 190.65 638.925C191 638.196 191.487 637.629 192.111 637.222C192.739 636.812 193.471 636.607 194.309 636.607C194.792 636.607 195.268 636.687 195.739 636.848C196.21 637.009 196.639 637.271 197.025 637.633C197.412 637.991 197.719 638.466 197.949 639.058C198.178 639.649 198.293 640.378 198.293 641.243V641.847H191.145V640.615H196.844C196.844 640.092 196.739 639.625 196.53 639.214C196.325 638.804 196.031 638.48 195.649 638.243C195.27 638.005 194.824 637.886 194.309 637.886C193.741 637.886 193.25 638.027 192.836 638.309C192.425 638.587 192.109 638.949 191.888 639.396C191.666 639.842 191.556 640.321 191.556 640.832V641.653C191.556 642.354 191.676 642.947 191.918 643.434C192.163 643.917 192.504 644.286 192.938 644.539C193.373 644.789 193.878 644.913 194.453 644.913C194.828 644.913 195.166 644.861 195.468 644.756C195.774 644.648 196.037 644.487 196.259 644.273C196.48 644.056 196.651 643.786 196.772 643.464L198.148 643.851C198.003 644.318 197.76 644.728 197.418 645.082C197.076 645.433 196.653 645.706 196.15 645.903C195.647 646.097 195.081 646.193 194.453 646.193ZM205.241 646V636.727H206.618V638.176H206.739C206.932 637.681 207.244 637.297 207.674 637.023C208.105 636.745 208.622 636.607 209.226 636.607C209.838 636.607 210.347 636.745 210.753 637.023C211.164 637.297 211.484 637.681 211.713 638.176H211.81C212.047 637.697 212.403 637.317 212.878 637.035C213.353 636.749 213.923 636.607 214.587 636.607C215.416 636.607 216.094 636.866 216.621 637.385C217.148 637.9 217.412 638.703 217.412 639.794V646H215.987V639.794C215.987 639.11 215.8 638.621 215.426 638.327C215.051 638.033 214.611 637.886 214.104 637.886C213.452 637.886 212.947 638.084 212.588 638.478C212.23 638.868 212.051 639.363 212.051 639.963V646H210.602V639.649C210.602 639.122 210.431 638.697 210.089 638.375C209.747 638.049 209.306 637.886 208.767 637.886C208.397 637.886 208.051 637.985 207.729 638.182C207.411 638.379 207.153 638.653 206.956 639.003C206.763 639.349 206.666 639.75 206.666 640.205V646H205.241ZM220.602 649.477C220.361 649.477 220.146 649.457 219.956 649.417C219.767 649.381 219.637 649.344 219.564 649.308L219.926 648.053C220.272 648.141 220.578 648.173 220.844 648.149C221.11 648.125 221.345 648.006 221.55 647.793C221.76 647.584 221.951 647.244 222.124 646.773L222.389 646.048L218.96 636.727H220.506L223.066 644.116H223.162L225.722 636.727H227.267L223.331 647.352C223.154 647.831 222.935 648.228 222.673 648.542C222.412 648.859 222.108 649.095 221.762 649.248C221.419 649.401 221.033 649.477 220.602 649.477ZM235.716 638.804L234.436 639.166C234.356 638.953 234.237 638.746 234.08 638.544C233.927 638.339 233.718 638.17 233.452 638.037C233.186 637.904 232.846 637.838 232.432 637.838C231.864 637.838 231.391 637.969 231.013 638.23C230.639 638.488 230.452 638.816 230.452 639.214C230.452 639.569 230.58 639.848 230.838 640.054C231.096 640.259 231.498 640.43 232.045 640.567L233.422 640.905C234.251 641.106 234.869 641.414 235.275 641.828C235.682 642.239 235.885 642.768 235.885 643.416C235.885 643.947 235.732 644.422 235.426 644.841C235.124 645.259 234.702 645.589 234.158 645.831C233.615 646.072 232.983 646.193 232.263 646.193C231.317 646.193 230.534 645.988 229.914 645.577C229.295 645.167 228.902 644.567 228.737 643.778L230.089 643.44C230.218 643.939 230.462 644.314 230.82 644.563C231.182 644.813 231.655 644.938 232.239 644.938C232.903 644.938 233.43 644.797 233.82 644.515C234.215 644.229 234.412 643.887 234.412 643.489C234.412 643.167 234.299 642.897 234.074 642.68C233.848 642.458 233.502 642.293 233.036 642.185L231.49 641.822C230.641 641.621 230.017 641.309 229.619 640.887C229.224 640.46 229.027 639.927 229.027 639.287C229.027 638.764 229.174 638.301 229.468 637.898C229.766 637.496 230.17 637.18 230.681 636.951C231.196 636.721 231.78 636.607 232.432 636.607C233.349 636.607 234.07 636.808 234.593 637.21C235.12 637.613 235.495 638.144 235.716 638.804ZM242.062 636.727V637.935H237.257V636.727H242.062ZM238.657 634.506H240.082V643.344C240.082 643.746 240.14 644.048 240.257 644.249C240.378 644.446 240.531 644.579 240.716 644.648C240.905 644.712 241.104 644.744 241.314 644.744C241.471 644.744 241.599 644.736 241.7 644.72C241.801 644.7 241.881 644.684 241.941 644.672L242.231 645.952C242.135 645.988 242 646.024 241.827 646.06C241.654 646.101 241.434 646.121 241.169 646.121C240.766 646.121 240.372 646.034 239.986 645.861C239.603 645.688 239.285 645.424 239.032 645.07C238.782 644.716 238.657 644.269 238.657 643.73V634.506ZM247.994 646.193C247.1 646.193 246.329 645.996 245.681 645.602C245.037 645.203 244.54 644.648 244.19 643.935C243.844 643.219 243.671 642.386 243.671 641.436C243.671 640.486 243.844 639.649 244.19 638.925C244.54 638.196 245.027 637.629 245.651 637.222C246.279 636.812 247.012 636.607 247.849 636.607C248.332 636.607 248.809 636.687 249.279 636.848C249.75 637.009 250.179 637.271 250.565 637.633C250.952 637.991 251.259 638.466 251.489 639.058C251.718 639.649 251.833 640.378 251.833 641.243V641.847H244.685V640.615H250.384C250.384 640.092 250.28 639.625 250.07 639.214C249.865 638.804 249.571 638.48 249.189 638.243C248.811 638.005 248.364 637.886 247.849 637.886C247.281 637.886 246.79 638.027 246.376 638.309C245.965 638.587 245.649 638.949 245.428 639.396C245.206 639.842 245.096 640.321 245.096 640.832V641.653C245.096 642.354 245.217 642.947 245.458 643.434C245.704 643.917 246.044 644.286 246.478 644.539C246.913 644.789 247.418 644.913 247.994 644.913C248.368 644.913 248.706 644.861 249.008 644.756C249.314 644.648 249.577 644.487 249.799 644.273C250.02 644.056 250.191 643.786 250.312 643.464L251.688 643.851C251.543 644.318 251.3 644.728 250.958 645.082C250.616 645.433 250.193 645.706 249.69 645.903C249.187 646.097 248.621 646.193 247.994 646.193ZM254 646V636.727H255.377V638.128H255.473C255.642 637.669 255.948 637.297 256.391 637.011C256.834 636.725 257.333 636.582 257.888 636.582C257.993 636.582 258.123 636.584 258.28 636.588C258.437 636.592 258.556 636.598 258.637 636.607V638.055C258.588 638.043 258.478 638.025 258.305 638.001C258.136 637.973 257.956 637.959 257.767 637.959C257.317 637.959 256.914 638.053 256.56 638.243C256.21 638.428 255.932 638.685 255.727 639.015C255.526 639.341 255.425 639.714 255.425 640.132V646H254ZM261.525 649.477C261.284 649.477 261.069 649.457 260.879 649.417C260.69 649.381 260.559 649.344 260.487 649.308L260.849 648.053C261.195 648.141 261.501 648.173 261.767 648.149C262.032 648.125 262.268 648.006 262.473 647.793C262.682 647.584 262.874 647.244 263.047 646.773L263.312 646.048L259.883 636.727H261.429L263.988 644.116H264.085L266.645 636.727H268.19L264.254 647.352C264.077 647.831 263.858 648.228 263.596 648.542C263.334 648.859 263.031 649.095 262.684 649.248C262.342 649.401 261.956 649.477 261.525 649.477ZM270.528 646.097C270.23 646.097 269.974 645.99 269.761 645.777C269.548 645.563 269.441 645.308 269.441 645.01C269.441 644.712 269.548 644.457 269.761 644.243C269.974 644.03 270.23 643.923 270.528 643.923C270.826 643.923 271.081 644.03 271.295 644.243C271.508 644.457 271.615 644.712 271.615 645.01C271.615 645.207 271.564 645.388 271.464 645.553C271.367 645.718 271.236 645.851 271.071 645.952C270.91 646.048 270.729 646.097 270.528 646.097Z" fill="#2F2E2E"/>
<path d="M66.5 605C66.5 602.515 68.5147 600.5 71 600.5H338C340.485 600.5 342.5 602.515 342.5 605V661C342.5 663.485 340.485 665.5 338 665.5H71C68.5147 665.5 66.5 663.485 66.5 661V605Z" fill="white" stroke="#2F2E2E"/>
<path d="M155 686C155 683.239 157.239 681 160 681H427C429.761 681 432 683.239 432 686V742C432 744.761 429.761 747 427 747H160C157.239 747 155 744.761 155 742V686Z" fill="#F6CCFF"/>
<path d="M380 872.713L388 867L396 872.713M388 883L388 867.16" stroke="#2F2E2E" stroke-linecap="round" stroke-linejoin="round"/>
<rect x="0.5" y="0.5" width="439" height="105" fill="white" stroke="#2F2E2E"/>
<path d="M30.8757 85C31.6327 85 32.1781 84.3457 32.1781 83.4689V78.47H32.5009C36.82 78.47 39.5362 79.7525 41.4842 84.0316C41.8738 84.8691 42.3859 85 42.8534 85C43.4434 85 44 84.3719 44 83.2465C44 73.5758 40.5158 67.5431 32.5009 67.5431H32.1781V62.5965C32.1781 61.7197 31.6327 61 30.8534 61C30.308 61 29.9406 61.2748 29.3506 61.9291L20.5677 71.5867C20.1336 72.0709 20 72.5551 20 73C20 73.4318 20.1447 73.9291 20.5677 74.4002L29.3506 84.1494C29.885 84.7383 30.3302 85 30.8757 85ZM30.2412 82.1865C30.1744 82.1865 30.1076 82.1472 30.0519 82.0687L22.115 73.2486C22.026 73.1439 21.9926 73.0785 21.9926 73C21.9926 72.9215 22.026 72.843 22.115 72.7514L30.0408 63.8135C30.0965 63.7612 30.1633 63.7088 30.2301 63.7088C30.3302 63.7088 30.3859 63.7874 30.3859 63.892V69.0872C30.3859 69.3882 30.5083 69.5191 30.7644 69.5191H32.256C39.8924 69.5191 42.1967 75.7481 42.4193 81.9248C42.4193 82.0294 42.3859 82.0687 42.3302 82.0687C42.2857 82.0687 42.2635 82.0294 42.2301 81.9378C40.9165 78.6532 37.5436 76.494 32.256 76.494H30.7644C30.5083 76.494 30.3859 76.6249 30.3859 76.9258V81.9902C30.3859 82.108 30.3302 82.1865 30.2412 82.1865Z" stroke="#2F2E2E"/>
<path fill-rule="evenodd" clip-rule="evenodd" d="M366 33.6667C366 32.1939 367.194 31 368.667 31H385.333C386.806 31 388 32.1939 388 33.6667V39.6667C388 41.1394 386.806 42.3333 385.333 42.3333H368.667C367.194 42.3333 366 41.1394 366 39.6667V33.6667Z" stroke="#2F2E2E"/>
<path d="M389 34.667V38.667C389.805 38.3282 390.328 37.5401 390.328 36.667C390.328 35.7939 389.805 35.0058 389 34.667" stroke="#2F2E2E"/>
<path d="M368 34.3333C368 33.597 368.597 33 369.333 33H384.667C385.403 33 386 33.597 386 34.3333V39C386 39.7364 385.403 40.3333 384.667 40.3333H369.333C368.597 40.3333 368 39.7364 368 39V34.3333Z" stroke="#2F2E2E"/>
<path d="M337 38.6665H338C338.552 38.6665 339 39.1142 339 39.6665V41.6665C339 42.2188 338.552 42.6665 338 42.6665H337C336.448 42.6665 336 42.2188 336 41.6665V39.6665C336 39.1142 336.448 38.6665 337 38.6665Z" stroke="#2F2E2E"/>
<path d="M341.666 36.6665H342.666C343.218 36.6665 343.666 37.1142 343.666 37.6665V41.6665C343.666 42.2188 343.218 42.6665 342.666 42.6665H341.666C341.114 42.6665 340.666 42.2188 340.666 41.6665V37.6665C340.666 37.1142 341.114 36.6665 341.666 36.6665Z" stroke="#2F2E2E"/>
<path d="M346.334 34.3335H347.334C347.886 34.3335 348.334 34.7812 348.334 35.3335V41.6668C348.334 42.2191 347.886 42.6668 347.334 42.6668H346.334C345.782 42.6668 345.334 42.2191 345.334 41.6668V35.3335C345.334 34.7812 345.782 34.3335 346.334 34.3335Z" stroke="#2F2E2E"/>
<path d="M351 32H352C352.552 32 353 32.4477 353 33V41.6667C353 42.219 352.552 42.6667 352 42.6667H351C350.448 42.6667 350 42.219 350 41.6667V33C350 32.4477 350.448 32 351 32V32Z" stroke="#2F2E2E"/>
<path d="M52.3418 39.7628V38.6761L57.1359 31.0909H57.9242V32.7741H57.3916L53.7694 38.5057V38.5909H60.2254V39.7628H52.3418ZM57.4768 42V39.4325V38.9265V31.0909H58.7339V42H57.4768ZM63.159 40.6044C62.8963 40.6044 62.6708 40.5103 62.4826 40.3221C62.2943 40.1339 62.2002 39.9084 62.2002 39.6456C62.2002 39.3828 62.2943 39.1573 62.4826 38.9691C62.6708 38.7809 62.8963 38.6868 63.159 38.6868C63.4218 38.6868 63.6473 38.7809 63.8355 38.9691C64.0237 39.1573 64.1179 39.3828 64.1179 39.6456C64.1179 39.8196 64.0735 39.9794 63.9847 40.125C63.8995 40.2706 63.784 40.3878 63.6385 40.4766C63.4964 40.5618 63.3366 40.6044 63.159 40.6044ZM63.159 35.0859C62.8963 35.0859 62.6708 34.9918 62.4826 34.8036C62.2943 34.6154 62.2002 34.3899 62.2002 34.1271C62.2002 33.8643 62.2943 33.6388 62.4826 33.4506C62.6708 33.2624 62.8963 33.1683 63.159 33.1683C63.4218 33.1683 63.6473 33.2624 63.8355 33.4506C64.0237 33.6388 64.1179 33.8643 64.1179 34.1271C64.1179 34.3011 64.0735 34.4609 63.9847 34.6065C63.8995 34.7521 63.784 34.8693 63.6385 34.9581C63.4964 35.0433 63.3366 35.0859 63.159 35.0859ZM66.3524 42V41.0412L69.9533 37.0994C70.3758 36.6378 70.7239 36.2365 70.9973 35.8956C71.2707 35.5511 71.4731 35.228 71.6045 34.9261C71.7395 34.6207 71.807 34.3011 71.807 33.9673C71.807 33.5838 71.7146 33.2518 71.53 32.9712C71.3489 32.6907 71.1003 32.4741 70.7842 32.3214C70.4682 32.1687 70.1131 32.0923 69.7189 32.0923C69.2998 32.0923 68.9341 32.1793 68.6216 32.3533C68.3126 32.5238 68.0729 32.7635 67.9025 33.0724C67.7356 33.3814 67.6521 33.7436 67.6521 34.1591H66.395C66.395 33.5199 66.5424 32.9588 66.8371 32.4759C67.1319 31.9929 67.5332 31.6165 68.041 31.3466C68.5523 31.0767 69.1258 30.9418 69.7615 30.9418C70.4007 30.9418 70.9671 31.0767 71.4607 31.3466C71.9543 31.6165 72.3414 31.9805 72.6219 32.4386C72.9025 32.8967 73.0427 33.4062 73.0427 33.9673C73.0427 34.3686 72.9699 34.761 72.8244 35.1445C72.6823 35.5245 72.4337 35.9489 72.0786 36.4176C71.7271 36.8828 71.2388 37.451 70.6138 38.1222L68.1635 40.7429V40.8281H73.2345V42H66.3524ZM79.0566 42.1491C78.6092 42.142 78.1617 42.0568 77.7143 41.8935C77.2668 41.7301 76.8584 41.4549 76.4891 41.0678C76.1198 40.6772 75.8233 40.1499 75.5996 39.4858C75.3758 38.8182 75.264 37.9801 75.264 36.9716C75.264 36.0057 75.3545 35.1499 75.5356 34.4041C75.7168 33.6548 75.9795 33.0245 76.324 32.5131C76.6685 31.9982 77.0839 31.6076 77.5704 31.3413C78.0605 31.0749 78.6127 30.9418 79.2271 30.9418C79.8378 30.9418 80.3812 31.0643 80.857 31.3093C81.3364 31.5508 81.7271 31.8881 82.0289 32.3214C82.3307 32.7546 82.5261 33.2536 82.6148 33.8182H81.3151C81.1944 33.3281 80.96 32.9215 80.612 32.5984C80.264 32.2752 79.8023 32.1136 79.2271 32.1136C78.3819 32.1136 77.716 32.4812 77.2295 33.2163C76.7466 33.9513 76.5033 34.983 76.4998 36.3111H76.585C76.7839 36.0092 77.02 35.7518 77.2935 35.5387C77.5704 35.3221 77.8758 35.1552 78.2097 35.038C78.5435 34.9208 78.8968 34.8622 79.2697 34.8622C79.8947 34.8622 80.4664 35.0185 80.9849 35.331C81.5033 35.6399 81.9188 36.0678 82.2313 36.6147C82.5438 37.158 82.7001 37.7812 82.7001 38.4844C82.7001 39.1591 82.5491 39.777 82.2473 40.3381C81.9454 40.8956 81.5211 41.3395 80.9742 41.6697C80.4309 41.9964 79.7917 42.1562 79.0566 42.1491ZM79.0566 40.9773C79.504 40.9773 79.9053 40.8654 80.2604 40.6417C80.6191 40.418 80.9014 40.1179 81.1074 39.7415C81.3169 39.3651 81.4217 38.946 81.4217 38.4844C81.4217 38.0334 81.3204 37.6232 81.118 37.2539C80.9192 36.881 80.644 36.5845 80.2924 36.3643C79.9444 36.1442 79.5467 36.0341 79.0992 36.0341C78.7619 36.0341 78.4476 36.1016 78.1564 36.2365C77.8652 36.3679 77.6095 36.549 77.3893 36.7798C77.1727 37.0107 77.0023 37.2752 76.878 37.5735C76.7537 37.8683 76.6915 38.179 76.6915 38.5057C76.6915 38.9389 76.7927 39.3437 76.9952 39.7202C77.2011 40.0966 77.4817 40.4002 77.8368 40.631C78.1954 40.8619 78.6021 40.9773 79.0566 40.9773ZM84.9866 42V31.0909H88.6726C89.5285 31.0909 90.228 31.2454 90.7714 31.5543C91.3182 31.8597 91.7231 32.2734 91.9858 32.7955C92.2486 33.3175 92.38 33.8999 92.38 34.5426C92.38 35.1854 92.2486 35.7695 91.9858 36.2951C91.7266 36.8207 91.3253 37.2397 90.782 37.5522C90.2387 37.8612 89.5427 38.0156 88.6939 38.0156H86.0519V36.8438H88.6513C89.2373 36.8438 89.7078 36.7425 90.0629 36.5401C90.418 36.3377 90.6755 36.0643 90.8353 35.7198C90.9986 35.3718 91.0803 34.9794 91.0803 34.5426C91.0803 34.1058 90.9986 33.7152 90.8353 33.3707C90.6755 33.0263 90.4162 32.7564 90.0576 32.5611C89.6989 32.3622 89.2231 32.2628 88.63 32.2628H86.3076V42H84.9866ZM94.508 31.0909H96.0847L99.7921 40.1463H99.92L103.627 31.0909H105.204V42H103.968V33.7116H103.862L100.453 42H99.2595L95.8504 33.7116H95.7438V42H94.508V31.0909Z" fill="#2F2E2E"/>
<circle cx="163" cy="70" r="20" fill="#B3B3B3"/>
<rect x="193" y="60" width="108" height="20" rx="10" fill="#D0D0D0"/>
<rect x="79" y="125" width="243" height="20" rx="10" fill="#D0D0D0"/>
<rect x="175" y="279" width="200" height="20" rx="10" fill="#D0D0D0"/>
<rect x="175" y="390" width="248" height="20" rx="10" fill="#D0D0D0"/>
<rect x="79" y="472" width="239" height="20" rx="10" fill="#D0D0D0"/>
<rect x="79" y="497" width="213" height="20" rx="10" fill="#D0D0D0"/>
<rect x="79" y="555" width="213" height="20" rx="10" fill="#D0D0D0"/>
<rect x="79" y="608" width="228" height="20" rx="10" fill="#D0D0D0"/>
<rect x="79" y="633" width="196" height="20" rx="10" fill="#D0D0D0"/>
<rect x="175" y="689" width="225" height="20" rx="10" fill="#D0D0D0"/>
<rect x="175" y="714" width="162" height="20" rx="10" fill="#D0D0D0"/>
<rect x="175" y="416" width="61" height="20" rx="10" fill="#D0D0D0"/>
<rect x="175" y="322" width="204" height="20" rx="10" fill="#D0D0D0"/>
<rect x="175" y="345" width="153" height="20" rx="10" fill="#D0D0D0"/>
<rect x="79" y="193" width="197" height="20" rx="10" fill="#D0D0D0"/>
<rect x="79" y="216" width="157" height="20" rx="10" fill="#D0D0D0"/>
<rect x="79" y="150" width="166" height="20" rx="10" fill="#D0D0D0"/>
<g clip-path="url(#clip1_1543_11008)" filter="url(#filter0_i_1543_11008)">
<rect width="440" height="56" transform="translate(0 900)" fill="#F9F9F9"/>
<g filter="url(#filter1_d_1543_11008)">
<path d="M48 941.334V928H56V941.334M40 924L52 914.667L64 924V938.667C64 939.374 63.719 940.053 63.219 940.553C62.7189 941.053 62.0406 941.334 61.3333 941.334H42.6667C41.9594 941.334 41.2811 941.053 40.781 940.553C40.281 940.053 40 939.374 40 938.667V924Z" stroke="#2F2E2E" stroke-width="3" stroke-linecap="round" stroke-linejoin="round"/>
</g>
<g filter="url(#filter2_d_1543_11008)">
<path d="M48 941.334V928H56V941.334M40 924L52 914.667L64 924V938.667C64 939.374 63.719 940.053 63.219 940.553C62.7189 941.053 62.0406 941.334 61.3333 941.334H42.6667C41.9594 941.334 41.2811 941.053 40.781 940.553C40.281 940.053 40 939.374 40 938.667V924Z" stroke="#2F2E2E" stroke-width="3" stroke-linecap="round" stroke-linejoin="round"/>
</g>
<g filter="url(#filter3_d_1543_11008)">
<path d="M163.252 912V944" stroke="#2F2E2E" stroke-width="13.9"/>
<path d="M180 928.299L148 928.299" stroke="#2F2E2E" stroke-width="13.9"/>
</g>
<g filter="url(#filter4_d_1543_11008)">
<path d="M266.537 940.702C269.794 940.601 275.661 939.882 278.289 937.808C280.186 936.311 282.455 934.629 284.655 933.637" stroke="#2F2E2E" stroke-width="3" stroke-linecap="round"/>
<path d="M275.351 934.52C280.291 933.883 287.27 930.245 289.552 926.13" stroke="#2F2E2E" stroke-width="3" stroke-linecap="round"/>
<path d="M282.207 927.455C285.292 924.926 292 923.863 292 919.507" stroke="#2F2E2E" stroke-width="3" stroke-linecap="round"/>
<path d="M286.124 919.507C286.904 919.419 286.949 916.047 287.13 915.312C287.472 913.925 289.491 912.993 290.041 912" stroke="#2F2E2E" stroke-width="3" stroke-linecap="round"/>
<path d="M261.641 936.728C261.208 933.218 260.395 929.26 262.13 926.13" stroke="#2F2E2E" stroke-width="3" stroke-linecap="round"/>
<path d="M266.048 930.546C267.887 928.68 268.194 925.7 269.475 923.677C270.358 922.284 270.693 920.283 272.413 919.507" stroke="#2F2E2E" stroke-width="3" stroke-linecap="round"/>
<path d="M274.372 922.598C274.372 921.389 275.88 918.248 276.929 917.397C278.765 915.907 280.262 915.974 282.696 915.974" stroke="#2F2E2E" stroke-width="3" stroke-linecap="round"/>
<path d="M283.061 920.583L260 944" stroke="#2F2E2E" stroke-width="3" stroke-linecap="round"/>
</g>
<g filter="url(#filter5_d_1543_11008)">
<circle cx="388" cy="928" r="14.5" fill="#FAF8FA" stroke="#2F2E2E" stroke-width="3"/>
<path d="M388.533 922.347V933.76" stroke="#2F2E2E" stroke-width="3"/>
<path d="M394.507 928.16L383.093 928.16" stroke="#2F2E2E" stroke-width="3"/>
</g>
</g>
</g>
<defs>
<filter id="filter0_i_1543_11008" x="0" y="900" width="440" height="60" filterUnits="userSpaceOnUse" color-interpolation-filters="sRGB">
<feFlood flood-opacity="0" result="BackgroundImageFix"/>
<feBlend mode="normal" in="SourceGraphic" in2="BackgroundImageFix" result="shape"/>
<feColorMatrix in="SourceAlpha" type="matrix" values="0 0 0 0 0 0 0 0 0 0 0 0 0 0 0 0 0 0 127 0" result="hardAlpha"/>
<feOffset dy="5"/>
<feGaussianBlur stdDeviation="2"/>
<feComposite in2="hardAlpha" operator="arithmetic" k2="-1" k3="1"/>
<feColorMatrix type="matrix" values="0 0 0 0 0.770833 0 0 0 0 0.631441 0 0 0 0 0.722046 0 0 0 0.5 0"/>
<feBlend mode="normal" in2="shape" result="effect1_innerShadow_1543_11008"/>
</filter>
<filter id="filter1_d_1543_11008" x="31" y="912" width="42" height="44" filterUnits="userSpaceOnUse" color-interpolation-filters="sRGB">
<feFlood flood-opacity="0" result="BackgroundImageFix"/>
<feColorMatrix in="SourceAlpha" type="matrix" values="0 0 0 0 0 0 0 0 0 0 0 0 0 0 0 0 0 0 127 0" result="hardAlpha"/>
<feOffset dy="7"/>
<feGaussianBlur stdDeviation="2.5"/>
<feComposite in2="hardAlpha" operator="out"/>
<feColorMatrix type="matrix" values="0 0 0 0 0.770833 0 0 0 0 0.631441 0 0 0 0 0.722046 0 0 0 1 0"/>
<feBlend mode="normal" in2="BackgroundImageFix" result="effect1_dropShadow_1543_11008"/>
<feBlend mode="normal" in="SourceGraphic" in2="effect1_dropShadow_1543_11008" result="shape"/>
</filter>
<filter id="filter2_d_1543_11008" x="31" y="912" width="42" height="44" filterUnits="userSpaceOnUse" color-interpolation-filters="sRGB">
<feFlood flood-opacity="0" result="BackgroundImageFix"/>
<feColorMatrix in="SourceAlpha" type="matrix" values="0 0 0 0 0 0 0 0 0 0 0 0 0 0 0 0 0 0 127 0" result="hardAlpha"/>
<feOffset dy="7"/>
<feGaussianBlur stdDeviation="2.5"/>
<feComposite in2="hardAlpha" operator="out"/>
<feColorMatrix type="matrix" values="0 0 0 0 0.770833 0 0 0 0 0.631441 0 0 0 0 0.722046 0 0 0 1 0"/>
<feBlend mode="normal" in2="BackgroundImageFix" result="effect1_dropShadow_1543_11008"/>
<feBlend mode="normal" in="SourceGraphic" in2="effect1_dropShadow_1543_11008" result="shape"/>
</filter>
<filter id="filter3_d_1543_11008" x="143" y="912" width="42" height="44" filterUnits="userSpaceOnUse" color-interpolation-filters="sRGB">
<feFlood flood-opacity="0" result="BackgroundImageFix"/>
<feColorMatrix in="SourceAlpha" type="matrix" values="0 0 0 0 0 0 0 0 0 0 0 0 0 0 0 0 0 0 127 0" result="hardAlpha"/>
<feOffset dy="7"/>
<feGaussianBlur stdDeviation="2.5"/>
<feComposite in2="hardAlpha" operator="out"/>
<feColorMatrix type="matrix" values="0 0 0 0 0.770833 0 0 0 0 0.631441 0 0 0 0 0.722046 0 0 0 1 0"/>
<feBlend mode="normal" in2="BackgroundImageFix" result="effect1_dropShadow_1543_11008"/>
<feBlend mode="normal" in="SourceGraphic" in2="effect1_dropShadow_1543_11008" result="shape"/>
</filter>
<filter id="filter4_d_1543_11008" x="253.426" y="910.5" width="45.0745" height="46.9224" filterUnits="userSpaceOnUse" color-interpolation-filters="sRGB">
<feFlood flood-opacity="0" result="BackgroundImageFix"/>
<feColorMatrix in="SourceAlpha" type="matrix" values="0 0 0 0 0 0 0 0 0 0 0 0 0 0 0 0 0 0 127 0" result="hardAlpha"/>
<feOffset dy="7"/>
<feGaussianBlur stdDeviation="2.5"/>
<feComposite in2="hardAlpha" operator="out"/>
<feColorMatrix type="matrix" values="0 0 0 0 0.770833 0 0 0 0 0.631441 0 0 0 0 0.722046 0 0 0 1 0"/>
<feBlend mode="normal" in2="BackgroundImageFix" result="effect1_dropShadow_1543_11008"/>
<feBlend mode="normal" in="SourceGraphic" in2="effect1_dropShadow_1543_11008" result="shape"/>
</filter>
<filter id="filter5_d_1543_11008" x="367" y="912" width="42" height="44" filterUnits="userSpaceOnUse" color-interpolation-filters="sRGB">
<feFlood flood-opacity="0" result="BackgroundImageFix"/>
<feColorMatrix in="SourceAlpha" type="matrix" values="0 0 0 0 0 0 0 0 0 0 0 0 0 0 0 0 0 0 127 0" result="hardAlpha"/>
<feOffset dy="7"/>
<feGaussianBlur stdDeviation="2.5"/>
<feComposite in2="hardAlpha" operator="out"/>
<feColorMatrix type="matrix" values="0 0 0 0 0.770833 0 0 0 0 0.631441 0 0 0 0 0.722046 0 0 0 1 0"/>
<feBlend mode="normal" in2="BackgroundImageFix" result="effect1_dropShadow_1543_11008"/>
<feBlend mode="normal" in="SourceGraphic" in2="effect1_dropShadow_1543_11008" result="shape"/>
</filter>
<clipPath id="clip0_1543_11008">
<rect width="440" height="956" fill="white"/>
</clipPath>
<clipPath id="clip1_1543_11008">
<rect width="440" height="56" fill="white" transform="translate(0 900)"/>
</clipPath>
</defs>
</svg>
