<svg width="440" height="956" viewBox="0 0 440 956" fill="none" xmlns="http://www.w3.org/2000/svg">
<g clip-path="url(#clip0_1543_11721)">
<rect width="440" height="956" fill="white"/>
<rect x="0.5" y="0.5" width="439" height="955" fill="white" stroke="#2F2E2E"/>
<rect x="0.5" y="274.5" width="523" height="199" fill="#B3B3B3" stroke="#2F2E2E"/>
<path d="M87.9474 155H85.6392L92.3153 136.818H94.5881L101.264 155H98.956L93.5227 139.695H93.3807L87.9474 155ZM88.7997 147.898H98.1037V149.851H88.7997V147.898ZM103.812 160.114V141.364H105.836V143.53H106.085C106.239 143.293 106.452 142.991 106.724 142.624C107.002 142.251 107.399 141.92 107.914 141.63C108.435 141.334 109.139 141.186 110.027 141.186C111.175 141.186 112.187 141.473 113.063 142.047C113.939 142.621 114.622 143.435 115.114 144.489C115.605 145.542 115.85 146.785 115.85 148.217C115.85 149.661 115.605 150.913 115.114 151.973C114.622 153.026 113.942 153.843 113.072 154.423C112.202 154.997 111.199 155.284 110.062 155.284C109.186 155.284 108.485 155.139 107.958 154.849C107.431 154.553 107.026 154.219 106.742 153.846C106.458 153.467 106.239 153.153 106.085 152.905H105.907V160.114H103.812ZM105.872 148.182C105.872 149.212 106.023 150.12 106.325 150.907C106.626 151.689 107.067 152.301 107.647 152.745C108.227 153.183 108.938 153.402 109.778 153.402C110.654 153.402 111.385 153.171 111.971 152.71C112.563 152.242 113.007 151.615 113.303 150.827C113.604 150.034 113.755 149.152 113.755 148.182C113.755 147.223 113.607 146.359 113.311 145.589C113.021 144.814 112.58 144.202 111.989 143.752C111.403 143.296 110.666 143.068 109.778 143.068C108.926 143.068 108.21 143.284 107.63 143.716C107.05 144.142 106.612 144.74 106.316 145.51C106.02 146.273 105.872 147.164 105.872 148.182ZM119.047 160.114V141.364H121.071V143.53H121.319C121.473 143.293 121.686 142.991 121.958 142.624C122.237 142.251 122.633 141.92 123.148 141.63C123.669 141.334 124.373 141.186 125.261 141.186C126.409 141.186 127.421 141.473 128.297 142.047C129.173 142.621 129.857 143.435 130.348 144.489C130.839 145.542 131.085 146.785 131.085 148.217C131.085 149.661 130.839 150.913 130.348 151.973C129.857 153.026 129.176 153.843 128.306 154.423C127.436 154.997 126.433 155.284 125.297 155.284C124.421 155.284 123.719 155.139 123.192 154.849C122.666 154.553 122.26 154.219 121.976 153.846C121.692 153.467 121.473 153.153 121.319 152.905H121.142V160.114H119.047ZM121.106 148.182C121.106 149.212 121.257 150.12 121.559 150.907C121.861 151.689 122.302 152.301 122.882 152.745C123.462 153.183 124.172 153.402 125.012 153.402C125.888 153.402 126.619 153.171 127.205 152.71C127.797 152.242 128.241 151.615 128.537 150.827C128.839 150.034 128.99 149.152 128.99 148.182C128.99 147.223 128.842 146.359 128.546 145.589C128.256 144.814 127.815 144.202 127.223 143.752C126.637 143.296 125.9 143.068 125.012 143.068C124.16 143.068 123.444 143.284 122.864 143.716C122.284 144.142 121.846 144.74 121.55 145.51C121.254 146.273 121.106 147.164 121.106 148.182ZM139.821 155.284C138.59 155.284 137.509 154.991 136.58 154.405C135.657 153.819 134.935 153 134.414 151.946C133.899 150.893 133.642 149.661 133.642 148.253C133.642 146.832 133.899 145.592 134.414 144.533C134.935 143.474 135.657 142.651 136.58 142.065C137.509 141.479 138.59 141.186 139.821 141.186C141.052 141.186 142.129 141.479 143.052 142.065C143.981 142.651 144.703 143.474 145.218 144.533C145.739 145.592 146 146.832 146 148.253C146 149.661 145.739 150.893 145.218 151.946C144.703 153 143.981 153.819 143.052 154.405C142.129 154.991 141.052 155.284 139.821 155.284ZM139.821 153.402C140.756 153.402 141.525 153.162 142.129 152.683C142.733 152.203 143.179 151.573 143.469 150.792C143.759 150.011 143.904 149.164 143.904 148.253C143.904 147.341 143.759 146.492 143.469 145.705C143.179 144.918 142.733 144.281 142.129 143.796C141.525 143.311 140.756 143.068 139.821 143.068C138.886 143.068 138.116 143.311 137.512 143.796C136.909 144.281 136.462 144.918 136.172 145.705C135.882 146.492 135.737 147.341 135.737 148.253C135.737 149.164 135.882 150.011 136.172 150.792C136.462 151.573 136.909 152.203 137.512 152.683C138.116 153.162 138.886 153.402 139.821 153.402ZM149.198 155V141.364H151.293V155H149.198ZM150.263 139.091C149.855 139.091 149.503 138.952 149.207 138.674C148.917 138.395 148.772 138.061 148.772 137.67C148.772 137.28 148.917 136.945 149.207 136.667C149.503 136.389 149.855 136.25 150.263 136.25C150.672 136.25 151.021 136.389 151.311 136.667C151.607 136.945 151.755 137.28 151.755 137.67C151.755 138.061 151.607 138.395 151.311 138.674C151.021 138.952 150.672 139.091 150.263 139.091ZM157.226 146.797V155H155.131V141.364H157.155V143.494H157.332C157.652 142.802 158.137 142.246 158.788 141.825C159.439 141.399 160.28 141.186 161.309 141.186C162.233 141.186 163.041 141.375 163.733 141.754C164.426 142.127 164.964 142.695 165.349 143.459C165.734 144.216 165.926 145.175 165.926 146.335V155H163.831V146.477C163.831 145.406 163.553 144.571 162.996 143.974C162.44 143.37 161.676 143.068 160.706 143.068C160.037 143.068 159.439 143.213 158.912 143.503C158.392 143.793 157.98 144.216 157.678 144.773C157.377 145.329 157.226 146.004 157.226 146.797ZM175.685 141.364V143.139H168.618V141.364H175.685ZM170.678 138.097H172.773V151.094C172.773 151.686 172.859 152.129 173.03 152.425C173.208 152.715 173.433 152.911 173.705 153.011C173.983 153.106 174.276 153.153 174.584 153.153C174.815 153.153 175.004 153.142 175.152 153.118C175.3 153.088 175.419 153.065 175.507 153.047L175.934 154.929C175.791 154.982 175.593 155.036 175.339 155.089C175.084 155.148 174.762 155.178 174.371 155.178C173.779 155.178 173.199 155.05 172.631 154.796C172.069 154.541 171.601 154.154 171.228 153.633C170.861 153.112 170.678 152.455 170.678 151.662V138.097ZM178.837 155V141.364H180.861V143.494H181.038C181.322 142.766 181.781 142.201 182.414 141.799C183.048 141.39 183.808 141.186 184.696 141.186C185.596 141.186 186.344 141.39 186.942 141.799C187.546 142.201 188.016 142.766 188.354 143.494H188.496C188.845 142.79 189.369 142.231 190.067 141.816C190.765 141.396 191.603 141.186 192.579 141.186C193.799 141.186 194.796 141.568 195.571 142.331C196.347 143.089 196.734 144.27 196.734 145.874V155H194.639V145.874C194.639 144.867 194.364 144.148 193.813 143.716C193.263 143.284 192.615 143.068 191.869 143.068C190.91 143.068 190.168 143.358 189.641 143.938C189.114 144.512 188.851 145.24 188.851 146.122V155H186.72V145.661C186.72 144.885 186.469 144.261 185.965 143.787C185.462 143.308 184.814 143.068 184.021 143.068C183.477 143.068 182.968 143.213 182.494 143.503C182.027 143.793 181.648 144.196 181.358 144.711C181.074 145.22 180.932 145.808 180.932 146.477V155H178.837ZM206.282 155.284C204.968 155.284 203.835 154.994 202.882 154.414C201.935 153.828 201.204 153.011 200.689 151.964C200.18 150.91 199.926 149.685 199.926 148.288C199.926 146.892 200.18 145.661 200.689 144.595C201.204 143.524 201.92 142.689 202.838 142.092C203.761 141.488 204.838 141.186 206.069 141.186C206.78 141.186 207.481 141.304 208.173 141.541C208.866 141.778 209.496 142.163 210.064 142.695C210.633 143.222 211.085 143.92 211.423 144.79C211.76 145.661 211.929 146.732 211.929 148.004V148.892H201.417V147.081H209.798C209.798 146.312 209.644 145.625 209.336 145.021C209.035 144.418 208.602 143.941 208.04 143.592C207.484 143.243 206.827 143.068 206.069 143.068C205.235 143.068 204.513 143.275 203.903 143.69C203.299 144.098 202.835 144.631 202.509 145.288C202.184 145.945 202.021 146.649 202.021 147.401V148.608C202.021 149.638 202.199 150.511 202.554 151.227C202.915 151.937 203.415 152.479 204.054 152.852C204.693 153.219 205.436 153.402 206.282 153.402C206.833 153.402 207.33 153.325 207.774 153.171C208.224 153.011 208.611 152.775 208.937 152.461C209.262 152.141 209.514 151.745 209.691 151.271L211.716 151.839C211.503 152.526 211.145 153.13 210.641 153.651C210.138 154.165 209.517 154.568 208.777 154.858C208.037 155.142 207.206 155.284 206.282 155.284ZM217.211 146.797V155H215.116V141.364H217.14V143.494H217.318C217.637 142.802 218.122 142.246 218.774 141.825C219.425 141.399 220.265 141.186 221.295 141.186C222.218 141.186 223.026 141.375 223.718 141.754C224.411 142.127 224.95 142.695 225.334 143.459C225.719 144.216 225.911 145.175 225.911 146.335V155H223.816V146.477C223.816 145.406 223.538 144.571 222.982 143.974C222.425 143.37 221.662 143.068 220.691 143.068C220.022 143.068 219.425 143.213 218.898 143.503C218.377 143.793 217.966 144.216 217.664 144.773C217.362 145.329 217.211 146.004 217.211 146.797ZM235.67 141.364V143.139H228.604V141.364H235.67ZM230.663 138.097H232.758V151.094C232.758 151.686 232.844 152.129 233.016 152.425C233.193 152.715 233.418 152.911 233.691 153.011C233.969 153.106 234.262 153.153 234.569 153.153C234.8 153.153 234.99 153.142 235.138 153.118C235.286 153.088 235.404 153.065 235.493 153.047L235.919 154.929C235.777 154.982 235.579 155.036 235.324 155.089C235.07 155.148 234.747 155.178 234.356 155.178C233.765 155.178 233.184 155.05 232.616 154.796C232.054 154.541 231.586 154.154 231.214 153.633C230.847 153.112 230.663 152.455 230.663 151.662V138.097ZM246.137 155V136.818H248.232V143.53H248.41C248.564 143.293 248.777 142.991 249.049 142.624C249.327 142.251 249.724 141.92 250.239 141.63C250.76 141.334 251.464 141.186 252.352 141.186C253.5 141.186 254.512 141.473 255.388 142.047C256.264 142.621 256.948 143.435 257.439 144.489C257.93 145.542 258.176 146.785 258.176 148.217C258.176 149.661 257.93 150.913 257.439 151.973C256.948 153.026 256.267 153.843 255.397 154.423C254.527 154.997 253.524 155.284 252.387 155.284C251.511 155.284 250.81 155.139 250.283 154.849C249.756 154.553 249.351 154.219 249.067 153.846C248.783 153.467 248.564 153.153 248.41 152.905H248.161V155H246.137ZM248.197 148.182C248.197 149.212 248.348 150.12 248.65 150.907C248.952 151.689 249.392 152.301 249.972 152.745C250.552 153.183 251.263 153.402 252.103 153.402C252.979 153.402 253.71 153.171 254.296 152.71C254.888 152.242 255.332 151.615 255.628 150.827C255.93 150.034 256.08 149.152 256.08 148.182C256.08 147.223 255.932 146.359 255.637 145.589C255.347 144.814 254.906 144.202 254.314 143.752C253.728 143.296 252.991 143.068 252.103 143.068C251.251 143.068 250.535 143.284 249.955 143.716C249.375 144.142 248.937 144.74 248.641 145.51C248.345 146.273 248.197 147.164 248.197 148.182ZM266.92 155.284C265.689 155.284 264.609 154.991 263.68 154.405C262.757 153.819 262.035 153 261.514 151.946C260.999 150.893 260.741 149.661 260.741 148.253C260.741 146.832 260.999 145.592 261.514 144.533C262.035 143.474 262.757 142.651 263.68 142.065C264.609 141.479 265.689 141.186 266.92 141.186C268.151 141.186 269.229 141.479 270.152 142.065C271.081 142.651 271.803 143.474 272.318 144.533C272.839 145.592 273.099 146.832 273.099 148.253C273.099 149.661 272.839 150.893 272.318 151.946C271.803 153 271.081 153.819 270.152 154.405C269.229 154.991 268.151 155.284 266.92 155.284ZM266.92 153.402C267.855 153.402 268.625 153.162 269.229 152.683C269.832 152.203 270.279 151.573 270.569 150.792C270.859 150.011 271.004 149.164 271.004 148.253C271.004 147.341 270.859 146.492 270.569 145.705C270.279 144.918 269.832 144.281 269.229 143.796C268.625 143.311 267.855 143.068 266.92 143.068C265.985 143.068 265.216 143.311 264.612 143.796C264.008 144.281 263.561 144.918 263.271 145.705C262.981 146.492 262.836 147.341 262.836 148.253C262.836 149.164 262.981 150.011 263.271 150.792C263.561 151.573 264.008 152.203 264.612 152.683C265.216 153.162 265.985 153.402 266.92 153.402ZM281.837 155.284C280.606 155.284 279.526 154.991 278.597 154.405C277.674 153.819 276.951 153 276.431 151.946C275.916 150.893 275.658 149.661 275.658 148.253C275.658 146.832 275.916 145.592 276.431 144.533C276.951 143.474 277.674 142.651 278.597 142.065C279.526 141.479 280.606 141.186 281.837 141.186C283.068 141.186 284.146 141.479 285.069 142.065C285.998 142.651 286.72 143.474 287.235 144.533C287.756 145.592 288.016 146.832 288.016 148.253C288.016 149.661 287.756 150.893 287.235 151.946C286.72 153 285.998 153.819 285.069 154.405C284.146 154.991 283.068 155.284 281.837 155.284ZM281.837 153.402C282.772 153.402 283.542 153.162 284.146 152.683C284.749 152.203 285.196 151.573 285.486 150.792C285.776 150.011 285.921 149.164 285.921 148.253C285.921 147.341 285.776 146.492 285.486 145.705C285.196 144.918 284.749 144.281 284.146 143.796C283.542 143.311 282.772 143.068 281.837 143.068C280.902 143.068 280.133 143.311 279.529 143.796C278.925 144.281 278.478 144.918 278.188 145.705C277.898 146.492 277.753 147.341 277.753 148.253C277.753 149.164 277.898 150.011 278.188 150.792C278.478 151.573 278.925 152.203 279.529 152.683C280.133 153.162 280.902 153.402 281.837 153.402ZM293.168 150.028L293.132 147.436H293.558L299.524 141.364H302.116L295.76 147.791H295.582L293.168 150.028ZM291.214 155V136.818H293.31V155H291.214ZM299.879 155L294.553 148.253L296.044 146.797L302.543 155H299.879ZM309.969 155.284C308.655 155.284 307.522 154.994 306.569 154.414C305.622 153.828 304.891 153.011 304.376 151.964C303.867 150.91 303.612 149.685 303.612 148.288C303.612 146.892 303.867 145.661 304.376 144.595C304.891 143.524 305.607 142.689 306.524 142.092C307.448 141.488 308.525 141.186 309.756 141.186C310.466 141.186 311.167 141.304 311.86 141.541C312.552 141.778 313.183 142.163 313.751 142.695C314.319 143.222 314.772 143.92 315.109 144.79C315.447 145.661 315.615 146.732 315.615 148.004V148.892H305.104V147.081H313.485C313.485 146.312 313.331 145.625 313.023 145.021C312.721 144.418 312.289 143.941 311.727 143.592C311.17 143.243 310.513 143.068 309.756 143.068C308.921 143.068 308.199 143.275 307.59 143.69C306.986 144.098 306.521 144.631 306.196 145.288C305.87 145.945 305.708 146.649 305.708 147.401V148.608C305.708 149.638 305.885 150.511 306.24 151.227C306.601 151.937 307.101 152.479 307.741 152.852C308.38 153.219 309.123 153.402 309.969 153.402C310.519 153.402 311.017 153.325 311.46 153.171C311.91 153.011 312.298 152.775 312.623 152.461C312.949 152.141 313.2 151.745 313.378 151.271L315.402 151.839C315.189 152.526 314.831 153.13 314.328 153.651C313.825 154.165 313.203 154.568 312.464 154.858C311.724 155.142 310.892 155.284 309.969 155.284ZM323.952 155.284C322.815 155.284 321.812 154.997 320.942 154.423C320.072 153.843 319.391 153.026 318.9 151.973C318.409 150.913 318.163 149.661 318.163 148.217C318.163 146.785 318.409 145.542 318.9 144.489C319.391 143.435 320.075 142.621 320.951 142.047C321.827 141.473 322.839 141.186 323.987 141.186C324.875 141.186 325.576 141.334 326.091 141.63C326.612 141.92 327.008 142.251 327.281 142.624C327.559 142.991 327.775 143.293 327.929 143.53H328.106V136.818H330.202V155H328.177V152.905H327.929C327.775 153.153 327.556 153.467 327.272 153.846C326.988 154.219 326.582 154.553 326.056 154.849C325.529 155.139 324.827 155.284 323.952 155.284ZM324.236 153.402C325.076 153.402 325.786 153.183 326.366 152.745C326.946 152.301 327.387 151.689 327.689 150.907C327.991 150.12 328.142 149.212 328.142 148.182C328.142 147.164 327.994 146.273 327.698 145.51C327.402 144.74 326.964 144.142 326.384 143.716C325.804 143.284 325.088 143.068 324.236 143.068C323.348 143.068 322.608 143.296 322.016 143.752C321.43 144.202 320.989 144.814 320.693 145.589C320.403 146.359 320.258 147.223 320.258 148.182C320.258 149.152 320.406 150.034 320.702 150.827C321.004 151.615 321.448 152.242 322.034 152.71C322.626 153.171 323.36 153.402 324.236 153.402Z" fill="#2F2E2E"/>
<path d="M24.6364 495.364V507H23.2727L16.9318 497.864H16.8182V507H15.4091V495.364H16.7727L23.1364 504.523H23.25V495.364H24.6364ZM29.8423 507.205C29.2893 507.205 28.7874 507.1 28.3366 506.892C27.8859 506.68 27.5279 506.375 27.2628 505.977C26.9976 505.576 26.8651 505.091 26.8651 504.523C26.8651 504.023 26.9635 503.617 27.1605 503.307C27.3575 502.992 27.6207 502.746 27.9503 502.568C28.2798 502.39 28.6435 502.258 29.0412 502.17C29.4427 502.08 29.8461 502.008 30.2514 501.955C30.7817 501.886 31.2116 501.835 31.5412 501.801C31.8745 501.763 32.117 501.701 32.2685 501.614C32.4238 501.527 32.5014 501.375 32.5014 501.159V501.114C32.5014 500.553 32.348 500.117 32.0412 499.807C31.7382 499.496 31.2779 499.341 30.6605 499.341C30.0204 499.341 29.5185 499.481 29.1548 499.761C28.7912 500.042 28.5355 500.341 28.3878 500.659L27.1151 500.205C27.3423 499.674 27.6454 499.261 28.0241 498.966C28.4067 498.667 28.8234 498.458 29.2741 498.341C29.7287 498.22 30.1757 498.159 30.6151 498.159C30.8954 498.159 31.2173 498.193 31.581 498.261C31.9484 498.326 32.3026 498.46 32.6435 498.665C32.9882 498.869 33.2741 499.178 33.5014 499.591C33.7287 500.004 33.8423 500.557 33.8423 501.25V507H32.5014V505.818H32.4332C32.3423 506.008 32.1908 506.21 31.9787 506.426C31.7666 506.642 31.4844 506.826 31.1321 506.977C30.7798 507.129 30.3499 507.205 29.8423 507.205ZM30.0469 506C30.5772 506 31.0241 505.896 31.3878 505.688C31.7552 505.479 32.0317 505.21 32.2173 504.881C32.4067 504.551 32.5014 504.205 32.5014 503.841V502.614C32.4446 502.682 32.3196 502.744 32.1264 502.801C31.937 502.854 31.7173 502.902 31.4673 502.943C31.2211 502.981 30.9806 503.015 30.7457 503.045C30.5147 503.072 30.3272 503.095 30.1832 503.114C29.8348 503.159 29.509 503.233 29.206 503.335C28.9067 503.434 28.6643 503.583 28.4787 503.784C28.2969 503.981 28.206 504.25 28.206 504.591C28.206 505.057 28.3783 505.409 28.723 505.648C29.0715 505.883 29.5128 506 30.0469 506ZM36.2898 507V498.273H37.5852V499.636H37.6989C37.8807 499.17 38.1742 498.809 38.5795 498.551C38.9848 498.29 39.4716 498.159 40.0398 498.159C40.6155 498.159 41.0947 498.29 41.4773 498.551C41.8636 498.809 42.1648 499.17 42.3807 499.636H42.4716C42.6951 499.186 43.0303 498.828 43.4773 498.562C43.9242 498.294 44.4602 498.159 45.0852 498.159C45.8655 498.159 46.5038 498.403 47 498.892C47.4962 499.377 47.7443 500.133 47.7443 501.159V507H46.4034V501.159C46.4034 500.515 46.2273 500.055 45.875 499.778C45.5227 499.502 45.108 499.364 44.6307 499.364C44.017 499.364 43.5417 499.549 43.2045 499.92C42.8674 500.288 42.6989 500.754 42.6989 501.318V507H41.3352V501.023C41.3352 500.527 41.1742 500.127 40.8523 499.824C40.5303 499.517 40.1155 499.364 39.608 499.364C39.2595 499.364 38.9337 499.456 38.6307 499.642C38.3314 499.828 38.089 500.085 37.9034 500.415C37.7216 500.741 37.6307 501.117 37.6307 501.545V507H36.2898ZM53.8551 507.182C53.0142 507.182 52.2888 506.996 51.679 506.625C51.0729 506.25 50.6051 505.727 50.2756 505.057C49.9498 504.383 49.7869 503.598 49.7869 502.705C49.7869 501.811 49.9498 501.023 50.2756 500.341C50.6051 499.655 51.0634 499.121 51.6506 498.739C52.2415 498.352 52.9309 498.159 53.7188 498.159C54.1733 498.159 54.6222 498.235 55.0653 498.386C55.5085 498.538 55.9119 498.784 56.2756 499.125C56.6392 499.462 56.929 499.909 57.1449 500.466C57.3608 501.023 57.4688 501.708 57.4688 502.523V503.091H50.7415V501.932H56.1051C56.1051 501.439 56.0066 501 55.8097 500.614C55.6165 500.227 55.34 499.922 54.9801 499.699C54.6241 499.475 54.2036 499.364 53.7188 499.364C53.1847 499.364 52.7225 499.496 52.3324 499.761C51.946 500.023 51.6487 500.364 51.4403 500.784C51.232 501.205 51.1278 501.655 51.1278 502.136V502.909C51.1278 503.568 51.2415 504.127 51.4688 504.585C51.6998 505.04 52.0199 505.386 52.429 505.625C52.8381 505.86 53.3134 505.977 53.8551 505.977C54.2074 505.977 54.5256 505.928 54.8097 505.83C55.0975 505.727 55.3456 505.576 55.554 505.375C55.7623 505.17 55.9233 504.917 56.0369 504.614L57.3324 504.977C57.196 505.417 56.9669 505.803 56.6449 506.136C56.3229 506.466 55.9252 506.723 55.4517 506.909C54.9782 507.091 54.446 507.182 53.8551 507.182ZM60.4858 507.091C60.2055 507.091 59.965 506.991 59.7642 506.79C59.5634 506.589 59.4631 506.348 59.4631 506.068C59.4631 505.788 59.5634 505.547 59.7642 505.347C59.965 505.146 60.2055 505.045 60.4858 505.045C60.7661 505.045 61.0066 505.146 61.2074 505.347C61.4081 505.547 61.5085 505.788 61.5085 506.068C61.5085 506.254 61.4612 506.424 61.3665 506.58C61.2756 506.735 61.1525 506.86 60.9972 506.955C60.8456 507.045 60.6752 507.091 60.4858 507.091ZM60.4858 500.614C60.2055 500.614 59.965 500.513 59.7642 500.312C59.5634 500.112 59.4631 499.871 59.4631 499.591C59.4631 499.311 59.5634 499.07 59.7642 498.869C59.965 498.669 60.2055 498.568 60.4858 498.568C60.7661 498.568 61.0066 498.669 61.2074 498.869C61.4081 499.07 61.5085 499.311 61.5085 499.591C61.5085 499.777 61.4612 499.947 61.3665 500.102C61.2756 500.258 61.1525 500.383 60.9972 500.477C60.8456 500.568 60.6752 500.614 60.4858 500.614Z" fill="#2F2E2E"/>
<path d="M16.8864 598.364L20.3409 608.159H20.4773L23.9318 598.364H25.4091L21.1364 610H19.6818L15.4091 598.364H16.8864ZM29.8864 610.182C29.0455 610.182 28.3201 609.996 27.7102 609.625C27.1042 609.25 26.6364 608.727 26.3068 608.057C25.9811 607.383 25.8182 606.598 25.8182 605.705C25.8182 604.811 25.9811 604.023 26.3068 603.341C26.6364 602.655 27.0947 602.121 27.6818 601.739C28.2727 601.352 28.9621 601.159 29.75 601.159C30.2045 601.159 30.6534 601.235 31.0966 601.386C31.5398 601.538 31.9432 601.784 32.3068 602.125C32.6705 602.462 32.9602 602.909 33.1761 603.466C33.392 604.023 33.5 604.708 33.5 605.523V606.091H26.7727V604.932H32.1364C32.1364 604.439 32.0379 604 31.8409 603.614C31.6477 603.227 31.3712 602.922 31.0114 602.699C30.6553 602.475 30.2348 602.364 29.75 602.364C29.2159 602.364 28.7538 602.496 28.3636 602.761C27.9773 603.023 27.6799 603.364 27.4716 603.784C27.2633 604.205 27.1591 604.655 27.1591 605.136V605.909C27.1591 606.568 27.2727 607.127 27.5 607.585C27.7311 608.04 28.0511 608.386 28.4602 608.625C28.8693 608.86 29.3447 608.977 29.8864 608.977C30.2386 608.977 30.5568 608.928 30.8409 608.83C31.1288 608.727 31.3769 608.576 31.5852 608.375C31.7936 608.17 31.9545 607.917 32.0682 607.614L33.3636 607.977C33.2273 608.417 32.9981 608.803 32.6761 609.136C32.3542 609.466 31.9564 609.723 31.483 609.909C31.0095 610.091 30.4773 610.182 29.8864 610.182ZM39.3352 601.273V602.409H34.8125V601.273H39.3352ZM36.1307 599.182H37.4716V607.5C37.4716 607.879 37.5265 608.163 37.6364 608.352C37.75 608.538 37.8939 608.663 38.0682 608.727C38.2462 608.788 38.4337 608.818 38.6307 608.818C38.7784 608.818 38.8996 608.811 38.9943 608.795C39.089 608.777 39.1648 608.761 39.2216 608.75L39.4943 609.955C39.4034 609.989 39.2765 610.023 39.1136 610.057C38.9508 610.095 38.7443 610.114 38.4943 610.114C38.1155 610.114 37.7443 610.032 37.3807 609.869C37.0208 609.706 36.7216 609.458 36.483 609.125C36.2481 608.792 36.1307 608.371 36.1307 607.864V599.182ZM42.3295 610.091C42.0492 610.091 41.8087 609.991 41.608 609.79C41.4072 609.589 41.3068 609.348 41.3068 609.068C41.3068 608.788 41.4072 608.547 41.608 608.347C41.8087 608.146 42.0492 608.045 42.3295 608.045C42.6098 608.045 42.8504 608.146 43.0511 608.347C43.2519 608.547 43.3523 608.788 43.3523 609.068C43.3523 609.254 43.3049 609.424 43.2102 609.58C43.1193 609.735 42.9962 609.86 42.8409 609.955C42.6894 610.045 42.5189 610.091 42.3295 610.091ZM42.3295 603.614C42.0492 603.614 41.8087 603.513 41.608 603.312C41.4072 603.112 41.3068 602.871 41.3068 602.591C41.3068 602.311 41.4072 602.07 41.608 601.869C41.8087 601.669 42.0492 601.568 42.3295 601.568C42.6098 601.568 42.8504 601.669 43.0511 601.869C43.2519 602.07 43.3523 602.311 43.3523 602.591C43.3523 602.777 43.3049 602.947 43.2102 603.102C43.1193 603.258 42.9962 603.383 42.8409 603.477C42.6894 603.568 42.5189 603.614 42.3295 603.614Z" fill="#2F2E2E"/>
<path d="M65.2955 539.364V551H63.8864V540.841H63.8182L60.9773 542.727V541.295L63.8864 539.364H65.2955ZM68.642 551V549.977L72.483 545.773C72.9337 545.28 73.3049 544.852 73.5966 544.489C73.8883 544.121 74.1042 543.777 74.2443 543.455C74.3883 543.129 74.4602 542.788 74.4602 542.432C74.4602 542.023 74.3617 541.669 74.1648 541.369C73.9716 541.07 73.7064 540.839 73.3693 540.676C73.0322 540.513 72.6534 540.432 72.233 540.432C71.786 540.432 71.3958 540.525 71.0625 540.71C70.733 540.892 70.4773 541.148 70.2955 541.477C70.1174 541.807 70.0284 542.193 70.0284 542.636H68.6875C68.6875 541.955 68.8447 541.356 69.1591 540.841C69.4735 540.326 69.9015 539.924 70.4432 539.636C70.9886 539.348 71.6004 539.205 72.2784 539.205C72.9602 539.205 73.5644 539.348 74.0909 539.636C74.6174 539.924 75.0303 540.312 75.3295 540.801C75.6288 541.29 75.7784 541.833 75.7784 542.432C75.7784 542.86 75.7008 543.278 75.5455 543.688C75.3939 544.093 75.1288 544.545 74.75 545.045C74.375 545.542 73.8542 546.148 73.1875 546.864L70.5739 549.659V549.75H75.983V551H68.642ZM82.4659 538.818L78.7159 552.75H77.4886L81.2386 538.818H82.4659ZM84.0327 551V549.977L87.8736 545.773C88.3243 545.28 88.6955 544.852 88.9872 544.489C89.2789 544.121 89.4948 543.777 89.6349 543.455C89.7789 543.129 89.8509 542.788 89.8509 542.432C89.8509 542.023 89.7524 541.669 89.5554 541.369C89.3622 541.07 89.0971 540.839 88.7599 540.676C88.4228 540.513 88.044 540.432 87.6236 540.432C87.1766 540.432 86.7865 540.525 86.4531 540.71C86.1236 540.892 85.8679 541.148 85.6861 541.477C85.508 541.807 85.419 542.193 85.419 542.636H84.0781C84.0781 541.955 84.2353 541.356 84.5497 540.841C84.8641 540.326 85.2921 539.924 85.8338 539.636C86.3793 539.348 86.991 539.205 87.669 539.205C88.3509 539.205 88.955 539.348 89.4815 539.636C90.008 539.924 90.4209 540.312 90.7202 540.801C91.0194 541.29 91.169 541.833 91.169 542.432C91.169 542.86 91.0914 543.278 90.9361 543.688C90.7846 544.093 90.5194 544.545 90.1406 545.045C89.7656 545.542 89.2448 546.148 88.5781 546.864L85.9645 549.659V549.75H91.3736V551H84.0327ZM97.4247 539.205C97.902 539.208 98.3793 539.299 98.8565 539.477C99.3338 539.655 99.7694 539.951 100.163 540.364C100.557 540.773 100.874 541.331 101.112 542.04C101.351 542.748 101.47 543.636 101.47 544.705C101.47 545.739 101.372 546.657 101.175 547.46C100.982 548.259 100.701 548.934 100.334 549.483C99.9702 550.032 99.527 550.449 99.0043 550.733C98.4853 551.017 97.8982 551.159 97.2429 551.159C96.5914 551.159 96.0099 551.03 95.4986 550.773C94.991 550.511 94.5743 550.15 94.2486 549.688C93.9266 549.222 93.7202 548.682 93.6293 548.068H95.0156C95.1406 548.602 95.3887 549.044 95.7599 549.392C96.1349 549.737 96.6293 549.909 97.2429 549.909C98.1406 549.909 98.849 549.517 99.3679 548.733C99.8906 547.949 100.152 546.841 100.152 545.409H100.061C99.849 545.727 99.5971 546.002 99.3054 546.233C99.0137 546.464 98.6899 546.642 98.3338 546.767C97.9777 546.892 97.599 546.955 97.1974 546.955C96.5308 546.955 95.919 546.79 95.3622 546.46C94.8092 546.127 94.366 545.67 94.0327 545.091C93.7031 544.508 93.5384 543.841 93.5384 543.091C93.5384 542.379 93.6974 541.727 94.0156 541.136C94.3376 540.542 94.7884 540.068 95.3679 539.716C95.9512 539.364 96.6368 539.193 97.4247 539.205ZM97.4247 540.455C96.9474 540.455 96.5175 540.574 96.1349 540.812C95.7562 541.047 95.455 541.366 95.2315 541.767C95.0118 542.165 94.902 542.606 94.902 543.091C94.902 543.576 95.008 544.017 95.2202 544.415C95.4361 544.809 95.7296 545.123 96.1009 545.358C96.4759 545.589 96.902 545.705 97.3793 545.705C97.7391 545.705 98.0743 545.634 98.3849 545.494C98.6955 545.35 98.9664 545.155 99.1974 544.909C99.4323 544.659 99.616 544.377 99.7486 544.062C99.8812 543.744 99.9474 543.413 99.9474 543.068C99.9474 542.614 99.8376 542.187 99.6179 541.79C99.402 541.392 99.1027 541.07 98.7202 540.824C98.3414 540.578 97.9096 540.455 97.4247 540.455ZM107.841 538.818L104.091 552.75H102.864L106.614 538.818H107.841ZM113.908 551V549.977L117.749 545.773C118.199 545.28 118.571 544.852 118.862 544.489C119.154 544.121 119.37 543.777 119.51 543.455C119.654 543.129 119.726 542.788 119.726 542.432C119.726 542.023 119.627 541.669 119.43 541.369C119.237 541.07 118.972 540.839 118.635 540.676C118.298 540.513 117.919 540.432 117.499 540.432C117.052 540.432 116.661 540.525 116.328 540.71C115.999 540.892 115.743 541.148 115.561 541.477C115.383 541.807 115.294 542.193 115.294 542.636H113.953C113.953 541.955 114.11 541.356 114.425 540.841C114.739 540.326 115.167 539.924 115.709 539.636C116.254 539.348 116.866 539.205 117.544 539.205C118.226 539.205 118.83 539.348 119.357 539.636C119.883 539.924 120.296 540.312 120.595 540.801C120.894 541.29 121.044 541.833 121.044 542.432C121.044 542.86 120.966 543.278 120.811 543.688C120.66 544.093 120.394 544.545 120.016 545.045C119.641 545.542 119.12 546.148 118.453 546.864L115.839 549.659V549.75H121.249V551H113.908ZM127.391 551.159C126.535 551.159 125.805 550.926 125.203 550.46C124.601 549.991 124.141 549.311 123.822 548.42C123.504 547.527 123.345 546.447 123.345 545.182C123.345 543.924 123.504 542.85 123.822 541.96C124.144 541.066 124.607 540.384 125.209 539.915C125.815 539.441 126.542 539.205 127.391 539.205C128.239 539.205 128.964 539.441 129.567 539.915C130.173 540.384 130.635 541.066 130.953 541.96C131.275 542.85 131.436 543.924 131.436 545.182C131.436 546.447 131.277 547.527 130.959 548.42C130.641 549.311 130.18 549.991 129.578 550.46C128.976 550.926 128.247 551.159 127.391 551.159ZM127.391 549.909C128.239 549.909 128.898 549.5 129.368 548.682C129.838 547.864 130.072 546.697 130.072 545.182C130.072 544.174 129.964 543.316 129.749 542.608C129.536 541.9 129.23 541.36 128.828 540.989C128.43 540.617 127.951 540.432 127.391 540.432C126.55 540.432 125.893 540.847 125.419 541.676C124.946 542.502 124.709 543.67 124.709 545.182C124.709 546.189 124.815 547.045 125.027 547.75C125.239 548.455 125.544 548.991 125.942 549.358C126.343 549.725 126.826 549.909 127.391 549.909ZM133.595 551V549.977L137.436 545.773C137.887 545.28 138.258 544.852 138.55 544.489C138.841 544.121 139.057 543.777 139.197 543.455C139.341 543.129 139.413 542.788 139.413 542.432C139.413 542.023 139.315 541.669 139.118 541.369C138.925 541.07 138.66 540.839 138.322 540.676C137.985 540.513 137.607 540.432 137.186 540.432C136.739 540.432 136.349 540.525 136.016 540.71C135.686 540.892 135.43 541.148 135.249 541.477C135.071 541.807 134.982 542.193 134.982 542.636H133.641C133.641 541.955 133.798 541.356 134.112 540.841C134.427 540.326 134.855 539.924 135.396 539.636C135.942 539.348 136.554 539.205 137.232 539.205C137.913 539.205 138.518 539.348 139.044 539.636C139.571 539.924 139.983 540.312 140.283 540.801C140.582 541.29 140.732 541.833 140.732 542.432C140.732 542.86 140.654 543.278 140.499 543.688C140.347 544.093 140.082 544.545 139.703 545.045C139.328 545.542 138.807 546.148 138.141 546.864L135.527 549.659V549.75H140.936V551H133.595ZM142.76 548.614V547.455L147.874 539.364H148.714V541.159H148.146L144.283 547.273V547.364H151.169V548.614H142.76ZM148.237 551V548.261V547.722V539.364H149.578V551H148.237Z" fill="#2F2E2E"/>
<path d="M19 551H15.4091V539.364H19.1591C20.2879 539.364 21.2538 539.597 22.0568 540.062C22.8598 540.525 23.4754 541.189 23.9034 542.057C24.3314 542.92 24.5455 543.955 24.5455 545.159C24.5455 546.371 24.3295 547.415 23.8977 548.29C23.4659 549.161 22.8371 549.831 22.0114 550.301C21.1856 550.767 20.1818 551 19 551ZM16.8182 549.75H18.9091C19.8712 549.75 20.6686 549.564 21.3011 549.193C21.9337 548.822 22.4053 548.294 22.7159 547.608C23.0265 546.922 23.1818 546.106 23.1818 545.159C23.1818 544.22 23.0284 543.411 22.7216 542.733C22.4148 542.051 21.9564 541.528 21.3466 541.165C20.7367 540.797 19.9773 540.614 19.0682 540.614H16.8182V549.75ZM29.2955 551.205C28.7424 551.205 28.2405 551.1 27.7898 550.892C27.339 550.68 26.9811 550.375 26.7159 549.977C26.4508 549.576 26.3182 549.091 26.3182 548.523C26.3182 548.023 26.4167 547.617 26.6136 547.307C26.8106 546.992 27.0739 546.746 27.4034 546.568C27.733 546.39 28.0966 546.258 28.4943 546.17C28.8958 546.08 29.2992 546.008 29.7045 545.955C30.2348 545.886 30.6648 545.835 30.9943 545.801C31.3277 545.763 31.5701 545.701 31.7216 545.614C31.8769 545.527 31.9545 545.375 31.9545 545.159V545.114C31.9545 544.553 31.8011 544.117 31.4943 543.807C31.1913 543.496 30.7311 543.341 30.1136 543.341C29.4735 543.341 28.9716 543.481 28.608 543.761C28.2443 544.042 27.9886 544.341 27.8409 544.659L26.5682 544.205C26.7955 543.674 27.0985 543.261 27.4773 542.966C27.8598 542.667 28.2765 542.458 28.7273 542.341C29.1818 542.22 29.6288 542.159 30.0682 542.159C30.3485 542.159 30.6705 542.193 31.0341 542.261C31.4015 542.326 31.7557 542.46 32.0966 542.665C32.4413 542.869 32.7273 543.178 32.9545 543.591C33.1818 544.004 33.2955 544.557 33.2955 545.25V551H31.9545V549.818H31.8864C31.7955 550.008 31.6439 550.21 31.4318 550.426C31.2197 550.642 30.9375 550.826 30.5852 550.977C30.233 551.129 29.803 551.205 29.2955 551.205ZM29.5 550C30.0303 550 30.4773 549.896 30.8409 549.688C31.2083 549.479 31.4848 549.21 31.6705 548.881C31.8598 548.551 31.9545 548.205 31.9545 547.841V546.614C31.8977 546.682 31.7727 546.744 31.5795 546.801C31.3902 546.854 31.1705 546.902 30.9205 546.943C30.6742 546.981 30.4337 547.015 30.1989 547.045C29.9678 547.072 29.7803 547.095 29.6364 547.114C29.2879 547.159 28.9621 547.233 28.6591 547.335C28.3598 547.434 28.1174 547.583 27.9318 547.784C27.75 547.981 27.6591 548.25 27.6591 548.591C27.6591 549.057 27.8314 549.409 28.1761 549.648C28.5246 549.883 28.9659 550 29.5 550ZM39.5384 542.273V543.409H35.0156V542.273H39.5384ZM36.3338 540.182H37.6747V548.5C37.6747 548.879 37.7296 549.163 37.8395 549.352C37.9531 549.538 38.0971 549.663 38.2713 549.727C38.4493 549.788 38.6368 549.818 38.8338 549.818C38.9815 549.818 39.1027 549.811 39.1974 549.795C39.2921 549.777 39.3679 549.761 39.4247 549.75L39.6974 550.955C39.6065 550.989 39.4796 551.023 39.3168 551.057C39.1539 551.095 38.9474 551.114 38.6974 551.114C38.3187 551.114 37.9474 551.032 37.5838 550.869C37.224 550.706 36.9247 550.458 36.6861 550.125C36.4512 549.792 36.3338 549.371 36.3338 548.864V540.182ZM45.1207 551.182C44.2798 551.182 43.5545 550.996 42.9446 550.625C42.3385 550.25 41.8707 549.727 41.5412 549.057C41.2154 548.383 41.0526 547.598 41.0526 546.705C41.0526 545.811 41.2154 545.023 41.5412 544.341C41.8707 543.655 42.3291 543.121 42.9162 542.739C43.5071 542.352 44.1965 542.159 44.9844 542.159C45.4389 542.159 45.8878 542.235 46.331 542.386C46.7741 542.538 47.1776 542.784 47.5412 543.125C47.9048 543.462 48.1946 543.909 48.4105 544.466C48.6264 545.023 48.7344 545.708 48.7344 546.523V547.091H42.0071V545.932H47.3707C47.3707 545.439 47.2723 545 47.0753 544.614C46.8821 544.227 46.6056 543.922 46.2457 543.699C45.8897 543.475 45.4692 543.364 44.9844 543.364C44.4503 543.364 43.9882 543.496 43.598 543.761C43.2116 544.023 42.9143 544.364 42.706 544.784C42.4976 545.205 42.3935 545.655 42.3935 546.136V546.909C42.3935 547.568 42.5071 548.127 42.7344 548.585C42.9654 549.04 43.2855 549.386 43.6946 549.625C44.1037 549.86 44.5791 549.977 45.1207 549.977C45.473 549.977 45.7912 549.928 46.0753 549.83C46.3632 549.727 46.6113 549.576 46.8196 549.375C47.0279 549.17 47.1889 548.917 47.3026 548.614L48.598 548.977C48.4616 549.417 48.2325 549.803 47.9105 550.136C47.5885 550.466 47.1908 550.723 46.7173 550.909C46.2438 551.091 45.7116 551.182 45.1207 551.182ZM51.7514 551.091C51.4711 551.091 51.2306 550.991 51.0298 550.79C50.8291 550.589 50.7287 550.348 50.7287 550.068C50.7287 549.788 50.8291 549.547 51.0298 549.347C51.2306 549.146 51.4711 549.045 51.7514 549.045C52.0317 549.045 52.2723 549.146 52.473 549.347C52.6738 549.547 52.7741 549.788 52.7741 550.068C52.7741 550.254 52.7268 550.424 52.6321 550.58C52.5412 550.735 52.4181 550.86 52.2628 550.955C52.1113 551.045 51.9408 551.091 51.7514 551.091ZM51.7514 544.614C51.4711 544.614 51.2306 544.513 51.0298 544.312C50.8291 544.112 50.7287 543.871 50.7287 543.591C50.7287 543.311 50.8291 543.07 51.0298 542.869C51.2306 542.669 51.4711 542.568 51.7514 542.568C52.0317 542.568 52.2723 542.669 52.473 542.869C52.6738 543.07 52.7741 543.311 52.7741 543.591C52.7741 543.777 52.7268 543.947 52.6321 544.102C52.5412 544.258 52.4181 544.383 52.2628 544.477C52.1113 544.568 51.9408 544.614 51.7514 544.614Z" fill="#2F2E2E"/>
<path d="M260.773 540.614V539.364H269.5V540.614H265.841V551H264.432V540.614H260.773ZM271.493 551V542.273H272.834V551H271.493ZM272.175 540.818C271.913 540.818 271.688 540.729 271.499 540.551C271.313 540.373 271.22 540.159 271.22 539.909C271.22 539.659 271.313 539.445 271.499 539.267C271.688 539.089 271.913 539 272.175 539C272.436 539 272.66 539.089 272.845 539.267C273.035 539.445 273.129 539.659 273.129 539.909C273.129 540.159 273.035 540.373 272.845 540.551C272.66 540.729 272.436 540.818 272.175 540.818ZM275.29 551V542.273H276.585V543.636H276.699C276.881 543.17 277.174 542.809 277.58 542.551C277.985 542.29 278.472 542.159 279.04 542.159C279.616 542.159 280.095 542.29 280.477 542.551C280.864 542.809 281.165 543.17 281.381 543.636H281.472C281.695 543.186 282.03 542.828 282.477 542.562C282.924 542.294 283.46 542.159 284.085 542.159C284.866 542.159 285.504 542.403 286 542.892C286.496 543.377 286.744 544.133 286.744 545.159V551H285.403V545.159C285.403 544.515 285.227 544.055 284.875 543.778C284.523 543.502 284.108 543.364 283.631 543.364C283.017 543.364 282.542 543.549 282.205 543.92C281.867 544.288 281.699 544.754 281.699 545.318V551H280.335V545.023C280.335 544.527 280.174 544.127 279.852 543.824C279.53 543.517 279.116 543.364 278.608 543.364C278.259 543.364 277.934 543.456 277.631 543.642C277.331 543.828 277.089 544.085 276.903 544.415C276.722 544.741 276.631 545.117 276.631 545.545V551H275.29ZM292.855 551.182C292.014 551.182 291.289 550.996 290.679 550.625C290.073 550.25 289.605 549.727 289.276 549.057C288.95 548.383 288.787 547.598 288.787 546.705C288.787 545.811 288.95 545.023 289.276 544.341C289.605 543.655 290.063 543.121 290.651 542.739C291.241 542.352 291.931 542.159 292.719 542.159C293.173 542.159 293.622 542.235 294.065 542.386C294.509 542.538 294.912 542.784 295.276 543.125C295.639 543.462 295.929 543.909 296.145 544.466C296.361 545.023 296.469 545.708 296.469 546.523V547.091H289.741V545.932H295.105C295.105 545.439 295.007 545 294.81 544.614C294.616 544.227 294.34 543.922 293.98 543.699C293.624 543.475 293.204 543.364 292.719 543.364C292.185 543.364 291.723 543.496 291.332 543.761C290.946 544.023 290.649 544.364 290.44 544.784C290.232 545.205 290.128 545.655 290.128 546.136V546.909C290.128 547.568 290.241 548.127 290.469 548.585C290.7 549.04 291.02 549.386 291.429 549.625C291.838 549.86 292.313 549.977 292.855 549.977C293.207 549.977 293.526 549.928 293.81 549.83C294.098 549.727 294.346 549.576 294.554 549.375C294.762 549.17 294.923 548.917 295.037 548.614L296.332 548.977C296.196 549.417 295.967 549.803 295.645 550.136C295.323 550.466 294.925 550.723 294.452 550.909C293.978 551.091 293.446 551.182 292.855 551.182ZM299.486 551.091C299.205 551.091 298.965 550.991 298.764 550.79C298.563 550.589 298.463 550.348 298.463 550.068C298.463 549.788 298.563 549.547 298.764 549.347C298.965 549.146 299.205 549.045 299.486 549.045C299.766 549.045 300.007 549.146 300.207 549.347C300.408 549.547 300.509 549.788 300.509 550.068C300.509 550.254 300.461 550.424 300.366 550.58C300.276 550.735 300.152 550.86 299.997 550.955C299.846 551.045 299.675 551.091 299.486 551.091ZM299.486 544.614C299.205 544.614 298.965 544.513 298.764 544.312C298.563 544.112 298.463 543.871 298.463 543.591C298.463 543.311 298.563 543.07 298.764 542.869C298.965 542.669 299.205 542.568 299.486 542.568C299.766 542.568 300.007 542.669 300.207 542.869C300.408 543.07 300.509 543.311 300.509 543.591C300.509 543.777 300.461 543.947 300.366 544.102C300.276 544.258 300.152 544.383 299.997 544.477C299.846 544.568 299.675 544.614 299.486 544.614Z" fill="#2F2E2E"/>
<path d="M316.295 539.364V551H314.886V540.841H314.818L311.977 542.727V541.295L314.886 539.364H316.295ZM320.642 549.511C320.362 549.511 320.121 549.411 319.92 549.21C319.72 549.009 319.619 548.769 319.619 548.489C319.619 548.208 319.72 547.968 319.92 547.767C320.121 547.566 320.362 547.466 320.642 547.466C320.922 547.466 321.163 547.566 321.364 547.767C321.564 547.968 321.665 548.208 321.665 548.489C321.665 548.674 321.617 548.845 321.523 549C321.432 549.155 321.309 549.28 321.153 549.375C321.002 549.466 320.831 549.511 320.642 549.511ZM320.642 543.625C320.362 543.625 320.121 543.525 319.92 543.324C319.72 543.123 319.619 542.883 319.619 542.602C319.619 542.322 319.72 542.081 319.92 541.881C320.121 541.68 320.362 541.58 320.642 541.58C320.922 541.58 321.163 541.68 321.364 541.881C321.564 542.081 321.665 542.322 321.665 542.602C321.665 542.788 321.617 542.958 321.523 543.114C321.432 543.269 321.309 543.394 321.153 543.489C321.002 543.58 320.831 543.625 320.642 543.625ZM327.844 551.159C326.988 551.159 326.259 550.926 325.656 550.46C325.054 549.991 324.594 549.311 324.276 548.42C323.957 547.527 323.798 546.447 323.798 545.182C323.798 543.924 323.957 542.85 324.276 541.96C324.598 541.066 325.06 540.384 325.662 539.915C326.268 539.441 326.995 539.205 327.844 539.205C328.692 539.205 329.418 539.441 330.02 539.915C330.626 540.384 331.088 541.066 331.406 541.96C331.728 542.85 331.889 543.924 331.889 545.182C331.889 546.447 331.73 547.527 331.412 548.42C331.094 549.311 330.634 549.991 330.031 550.46C329.429 550.926 328.7 551.159 327.844 551.159ZM327.844 549.909C328.692 549.909 329.351 549.5 329.821 548.682C330.291 547.864 330.526 546.697 330.526 545.182C330.526 544.174 330.418 543.316 330.202 542.608C329.99 541.9 329.683 541.36 329.281 540.989C328.884 540.617 328.404 540.432 327.844 540.432C327.003 540.432 326.346 540.847 325.872 541.676C325.399 542.502 325.162 543.67 325.162 545.182C325.162 546.189 325.268 547.045 325.48 547.75C325.692 548.455 325.997 548.991 326.395 549.358C326.796 549.725 327.279 549.909 327.844 549.909ZM337.844 551.159C336.988 551.159 336.259 550.926 335.656 550.46C335.054 549.991 334.594 549.311 334.276 548.42C333.957 547.527 333.798 546.447 333.798 545.182C333.798 543.924 333.957 542.85 334.276 541.96C334.598 541.066 335.06 540.384 335.662 539.915C336.268 539.441 336.995 539.205 337.844 539.205C338.692 539.205 339.418 539.441 340.02 539.915C340.626 540.384 341.088 541.066 341.406 541.96C341.728 542.85 341.889 543.924 341.889 545.182C341.889 546.447 341.73 547.527 341.412 548.42C341.094 549.311 340.634 549.991 340.031 550.46C339.429 550.926 338.7 551.159 337.844 551.159ZM337.844 549.909C338.692 549.909 339.351 549.5 339.821 548.682C340.291 547.864 340.526 546.697 340.526 545.182C340.526 544.174 340.418 543.316 340.202 542.608C339.99 541.9 339.683 541.36 339.281 540.989C338.884 540.617 338.404 540.432 337.844 540.432C337.003 540.432 336.346 540.847 335.872 541.676C335.399 542.502 335.162 543.67 335.162 545.182C335.162 546.189 335.268 547.045 335.48 547.75C335.692 548.455 335.997 548.991 336.395 549.358C336.796 549.725 337.279 549.909 337.844 549.909ZM344.071 554.273V542.273H345.366V543.659H345.526C345.624 543.508 345.76 543.314 345.935 543.08C346.113 542.841 346.366 542.629 346.696 542.443C347.029 542.254 347.48 542.159 348.048 542.159C348.783 542.159 349.431 542.343 349.991 542.71C350.552 543.078 350.99 543.598 351.304 544.273C351.618 544.947 351.776 545.742 351.776 546.659C351.776 547.583 351.618 548.384 351.304 549.062C350.99 549.737 350.554 550.259 349.997 550.631C349.44 550.998 348.798 551.182 348.071 551.182C347.51 551.182 347.062 551.089 346.724 550.903C346.387 550.714 346.128 550.5 345.946 550.261C345.764 550.019 345.624 549.818 345.526 549.659H345.412V554.273H344.071ZM345.389 546.636C345.389 547.295 345.486 547.877 345.679 548.381C345.872 548.881 346.154 549.273 346.526 549.557C346.897 549.837 347.351 549.977 347.889 549.977C348.45 549.977 348.918 549.83 349.293 549.534C349.671 549.235 349.955 548.833 350.145 548.33C350.338 547.822 350.435 547.258 350.435 546.636C350.435 546.023 350.34 545.47 350.151 544.977C349.965 544.481 349.683 544.089 349.304 543.801C348.929 543.509 348.457 543.364 347.889 543.364C347.344 543.364 346.885 543.502 346.514 543.778C346.143 544.051 345.863 544.434 345.673 544.926C345.484 545.415 345.389 545.985 345.389 546.636ZM353.821 551V542.273H355.116V543.636H355.23C355.412 543.17 355.705 542.809 356.111 542.551C356.516 542.29 357.003 542.159 357.571 542.159C358.147 542.159 358.626 542.29 359.009 542.551C359.395 542.809 359.696 543.17 359.912 543.636H360.003C360.226 543.186 360.562 542.828 361.009 542.562C361.455 542.294 361.991 542.159 362.616 542.159C363.397 542.159 364.035 542.403 364.531 542.892C365.027 543.377 365.276 544.133 365.276 545.159V551H363.935V545.159C363.935 544.515 363.759 544.055 363.406 543.778C363.054 543.502 362.639 543.364 362.162 543.364C361.548 543.364 361.073 543.549 360.736 543.92C360.399 544.288 360.23 544.754 360.23 545.318V551H358.866V545.023C358.866 544.527 358.705 544.127 358.384 543.824C358.062 543.517 357.647 543.364 357.139 543.364C356.791 543.364 356.465 543.456 356.162 543.642C355.863 543.828 355.62 544.085 355.435 544.415C355.253 544.741 355.162 545.117 355.162 545.545V551H353.821Z" fill="#2F2E2E"/>
<path d="M261.409 507V495.364H265.341C266.254 495.364 267 495.528 267.58 495.858C268.163 496.184 268.595 496.625 268.875 497.182C269.155 497.739 269.295 498.36 269.295 499.045C269.295 499.731 269.155 500.354 268.875 500.915C268.598 501.475 268.17 501.922 267.591 502.256C267.011 502.585 266.269 502.75 265.364 502.75H262.545V501.5H265.318C265.943 501.5 266.445 501.392 266.824 501.176C267.203 500.96 267.477 500.669 267.648 500.301C267.822 499.93 267.909 499.511 267.909 499.045C267.909 498.58 267.822 498.163 267.648 497.795C267.477 497.428 267.201 497.14 266.818 496.932C266.436 496.72 265.928 496.614 265.295 496.614H262.818V507H261.409ZM273.952 507.205C273.399 507.205 272.897 507.1 272.446 506.892C271.995 506.68 271.637 506.375 271.372 505.977C271.107 505.576 270.974 505.091 270.974 504.523C270.974 504.023 271.073 503.617 271.27 503.307C271.467 502.992 271.73 502.746 272.06 502.568C272.389 502.39 272.753 502.258 273.151 502.17C273.552 502.08 273.955 502.008 274.361 501.955C274.891 501.886 275.321 501.835 275.651 501.801C275.984 501.763 276.226 501.701 276.378 501.614C276.533 501.527 276.611 501.375 276.611 501.159V501.114C276.611 500.553 276.457 500.117 276.151 499.807C275.848 499.496 275.387 499.341 274.77 499.341C274.13 499.341 273.628 499.481 273.264 499.761C272.901 500.042 272.645 500.341 272.497 500.659L271.224 500.205C271.452 499.674 271.755 499.261 272.134 498.966C272.516 498.667 272.933 498.458 273.384 498.341C273.838 498.22 274.285 498.159 274.724 498.159C275.005 498.159 275.327 498.193 275.69 498.261C276.058 498.326 276.412 498.46 276.753 498.665C277.098 498.869 277.384 499.178 277.611 499.591C277.838 500.004 277.952 500.557 277.952 501.25V507H276.611V505.818H276.543C276.452 506.008 276.3 506.21 276.088 506.426C275.876 506.642 275.594 506.826 275.241 506.977C274.889 507.129 274.459 507.205 273.952 507.205ZM274.156 506C274.687 506 275.134 505.896 275.497 505.688C275.865 505.479 276.141 505.21 276.327 504.881C276.516 504.551 276.611 504.205 276.611 503.841V502.614C276.554 502.682 276.429 502.744 276.236 502.801C276.046 502.854 275.827 502.902 275.577 502.943C275.33 502.981 275.09 503.015 274.855 503.045C274.624 503.072 274.437 503.095 274.293 503.114C273.944 503.159 273.618 503.233 273.315 503.335C273.016 503.434 272.774 503.583 272.588 503.784C272.406 503.981 272.315 504.25 272.315 504.591C272.315 505.057 272.488 505.409 272.832 505.648C273.181 505.883 273.622 506 274.156 506ZM284.195 498.273V499.409H279.672V498.273H284.195ZM280.99 496.182H282.331V504.5C282.331 504.879 282.386 505.163 282.496 505.352C282.609 505.538 282.753 505.663 282.928 505.727C283.106 505.788 283.293 505.818 283.49 505.818C283.638 505.818 283.759 505.811 283.854 505.795C283.948 505.777 284.024 505.761 284.081 505.75L284.354 506.955C284.263 506.989 284.136 507.023 283.973 507.057C283.81 507.095 283.604 507.114 283.354 507.114C282.975 507.114 282.604 507.032 282.24 506.869C281.88 506.706 281.581 506.458 281.342 506.125C281.107 505.792 280.99 505.371 280.99 504.864V496.182ZM286.212 507V498.273H287.553V507H286.212ZM286.893 496.818C286.632 496.818 286.407 496.729 286.217 496.551C286.032 496.373 285.939 496.159 285.939 495.909C285.939 495.659 286.032 495.445 286.217 495.267C286.407 495.089 286.632 495 286.893 495C287.155 495 287.378 495.089 287.564 495.267C287.753 495.445 287.848 495.659 287.848 495.909C287.848 496.159 287.753 496.373 287.564 496.551C287.378 496.729 287.155 496.818 286.893 496.818ZM293.668 507.182C292.827 507.182 292.101 506.996 291.491 506.625C290.885 506.25 290.418 505.727 290.088 505.057C289.762 504.383 289.599 503.598 289.599 502.705C289.599 501.811 289.762 501.023 290.088 500.341C290.418 499.655 290.876 499.121 291.463 498.739C292.054 498.352 292.743 498.159 293.531 498.159C293.986 498.159 294.435 498.235 294.878 498.386C295.321 498.538 295.724 498.784 296.088 499.125C296.452 499.462 296.741 499.909 296.957 500.466C297.173 501.023 297.281 501.708 297.281 502.523V503.091H290.554V501.932H295.918C295.918 501.439 295.819 501 295.622 500.614C295.429 500.227 295.152 499.922 294.793 499.699C294.437 499.475 294.016 499.364 293.531 499.364C292.997 499.364 292.535 499.496 292.145 499.761C291.759 500.023 291.461 500.364 291.253 500.784C291.045 501.205 290.94 501.655 290.94 502.136V502.909C290.94 503.568 291.054 504.127 291.281 504.585C291.512 505.04 291.832 505.386 292.241 505.625C292.651 505.86 293.126 505.977 293.668 505.977C294.02 505.977 294.338 505.928 294.622 505.83C294.91 505.727 295.158 505.576 295.366 505.375C295.575 505.17 295.736 504.917 295.849 504.614L297.145 504.977C297.009 505.417 296.779 505.803 296.457 506.136C296.135 506.466 295.738 506.723 295.264 506.909C294.791 507.091 294.259 507.182 293.668 507.182ZM300.662 501.75V507H299.321V498.273H300.616V499.636H300.73C300.935 499.193 301.245 498.837 301.662 498.568C302.079 498.295 302.616 498.159 303.276 498.159C303.866 498.159 304.384 498.28 304.827 498.523C305.27 498.761 305.615 499.125 305.861 499.614C306.107 500.098 306.23 500.712 306.23 501.455V507H304.889V501.545C304.889 500.86 304.711 500.326 304.355 499.943C303.999 499.557 303.51 499.364 302.889 499.364C302.461 499.364 302.079 499.456 301.741 499.642C301.408 499.828 301.145 500.098 300.952 500.455C300.759 500.811 300.662 501.242 300.662 501.75ZM312.476 498.273V499.409H307.953V498.273H312.476ZM309.271 496.182H310.612V504.5C310.612 504.879 310.667 505.163 310.777 505.352C310.891 505.538 311.035 505.663 311.209 505.727C311.387 505.788 311.574 505.818 311.771 505.818C311.919 505.818 312.04 505.811 312.135 505.795C312.23 505.777 312.305 505.761 312.362 505.75L312.635 506.955C312.544 506.989 312.417 507.023 312.254 507.057C312.091 507.095 311.885 507.114 311.635 507.114C311.256 507.114 310.885 507.032 310.521 506.869C310.161 506.706 309.862 506.458 309.624 506.125C309.389 505.792 309.271 505.371 309.271 504.864V496.182ZM315.47 507.091C315.19 507.091 314.949 506.991 314.749 506.79C314.548 506.589 314.447 506.348 314.447 506.068C314.447 505.788 314.548 505.547 314.749 505.347C314.949 505.146 315.19 505.045 315.47 505.045C315.75 505.045 315.991 505.146 316.192 505.347C316.393 505.547 316.493 505.788 316.493 506.068C316.493 506.254 316.446 506.424 316.351 506.58C316.26 506.735 316.137 506.86 315.982 506.955C315.83 507.045 315.66 507.091 315.47 507.091ZM315.47 500.614C315.19 500.614 314.949 500.513 314.749 500.312C314.548 500.112 314.447 499.871 314.447 499.591C314.447 499.311 314.548 499.07 314.749 498.869C314.949 498.669 315.19 498.568 315.47 498.568C315.75 498.568 315.991 498.669 316.192 498.869C316.393 499.07 316.493 499.311 316.493 499.591C316.493 499.777 316.446 499.947 316.351 500.102C316.26 500.258 316.137 500.383 315.982 500.477C315.83 500.568 315.66 500.614 315.47 500.614Z" fill="#2F2E2E"/>
<path d="M273.5 756C273.5 750.753 277.753 746.5 283 746.5H407C412.247 746.5 416.5 750.753 416.5 756V780C416.5 785.247 412.247 789.5 407 789.5H283C277.753 789.5 273.5 785.247 273.5 780V756Z" fill="#DD00A9" stroke="#2F2E2E"/>
<path d="M331.119 764H329.534C329.44 763.544 329.276 763.143 329.042 762.798C328.812 762.453 328.531 762.163 328.198 761.929C327.87 761.69 327.506 761.511 327.105 761.392C326.705 761.273 326.287 761.213 325.852 761.213C325.06 761.213 324.342 761.413 323.698 761.814C323.059 762.214 322.55 762.805 322.17 763.585C321.795 764.364 321.608 765.321 321.608 766.455C321.608 767.588 321.795 768.545 322.17 769.325C322.55 770.104 323.059 770.695 323.698 771.095C324.342 771.496 325.06 771.696 325.852 771.696C326.287 771.696 326.705 771.636 327.105 771.517C327.506 771.398 327.87 771.221 328.198 770.987C328.531 770.748 328.812 770.456 329.042 770.111C329.276 769.761 329.44 769.361 329.534 768.909H331.119C331 769.578 330.783 770.177 330.467 770.705C330.152 771.234 329.76 771.683 329.291 772.054C328.822 772.42 328.296 772.7 327.712 772.891C327.133 773.083 326.513 773.179 325.852 773.179C324.736 773.179 323.743 772.906 322.874 772.361C322.004 771.815 321.32 771.04 320.822 770.034C320.323 769.028 320.074 767.835 320.074 766.455C320.074 765.074 320.323 763.881 320.822 762.875C321.32 761.869 322.004 761.094 322.874 760.548C323.743 760.003 324.736 759.73 325.852 759.73C326.513 759.73 327.133 759.826 327.712 760.018C328.296 760.21 328.822 760.491 329.291 760.862C329.76 761.228 330.152 761.675 330.467 762.204C330.783 762.728 331 763.327 331.119 764ZM334.985 759.909V773H333.476V759.909H334.985ZM341.737 773.205C340.85 773.205 340.072 772.994 339.403 772.572C338.739 772.15 338.219 771.56 337.844 770.801C337.473 770.043 337.288 769.156 337.288 768.142C337.288 767.119 337.473 766.227 337.844 765.464C338.219 764.701 338.739 764.109 339.403 763.687C340.072 763.265 340.85 763.054 341.737 763.054C342.623 763.054 343.398 763.265 344.063 763.687C344.732 764.109 345.252 764.701 345.623 765.464C345.998 766.227 346.185 767.119 346.185 768.142C346.185 769.156 345.998 770.043 345.623 770.801C345.252 771.56 344.732 772.15 344.063 772.572C343.398 772.994 342.623 773.205 341.737 773.205ZM341.737 771.849C342.41 771.849 342.964 771.677 343.398 771.332C343.833 770.987 344.155 770.533 344.364 769.97C344.572 769.408 344.677 768.798 344.677 768.142C344.677 767.486 344.572 766.874 344.364 766.308C344.155 765.741 343.833 765.283 343.398 764.933C342.964 764.584 342.41 764.409 341.737 764.409C341.063 764.409 340.509 764.584 340.075 764.933C339.64 765.283 339.318 765.741 339.109 766.308C338.901 766.874 338.796 767.486 338.796 768.142C338.796 768.798 338.901 769.408 339.109 769.97C339.318 770.533 339.64 770.987 340.075 771.332C340.509 771.677 341.063 771.849 341.737 771.849ZM355.443 765.381L354.088 765.764C354.002 765.538 353.877 765.319 353.71 765.106C353.548 764.888 353.327 764.71 353.046 764.569C352.764 764.428 352.404 764.358 351.965 764.358C351.365 764.358 350.864 764.496 350.463 764.773C350.067 765.046 349.869 765.393 349.869 765.815C349.869 766.19 350.005 766.487 350.278 766.704C350.551 766.921 350.977 767.102 351.556 767.247L353.014 767.605C353.892 767.818 354.546 768.144 354.976 768.583C355.406 769.018 355.622 769.578 355.622 770.264C355.622 770.827 355.46 771.33 355.136 771.773C354.816 772.216 354.369 772.565 353.794 772.821C353.218 773.077 352.549 773.205 351.786 773.205C350.785 773.205 349.956 772.987 349.3 772.553C348.644 772.118 348.228 771.483 348.053 770.648L349.485 770.29C349.622 770.818 349.879 771.214 350.259 771.479C350.642 771.743 351.143 771.875 351.761 771.875C352.464 771.875 353.022 771.726 353.436 771.428C353.853 771.125 354.062 770.763 354.062 770.341C354.062 770 353.943 769.714 353.704 769.484C353.465 769.25 353.099 769.075 352.605 768.96L350.968 768.577C350.069 768.364 349.409 768.033 348.987 767.586C348.569 767.134 348.36 766.57 348.36 765.892C348.36 765.338 348.516 764.848 348.827 764.422C349.142 763.996 349.57 763.661 350.112 763.418C350.657 763.175 351.275 763.054 351.965 763.054C352.937 763.054 353.7 763.267 354.254 763.693C354.812 764.119 355.208 764.682 355.443 765.381ZM362.009 773.205C361.063 773.205 360.247 772.996 359.561 772.578C358.879 772.156 358.353 771.568 357.982 770.814C357.615 770.055 357.432 769.173 357.432 768.168C357.432 767.162 357.615 766.276 357.982 765.509C358.353 764.737 358.868 764.136 359.529 763.706C360.194 763.271 360.969 763.054 361.855 763.054C362.367 763.054 362.872 763.139 363.37 763.31C363.869 763.48 364.323 763.757 364.732 764.141C365.141 764.52 365.467 765.023 365.71 765.649C365.953 766.276 366.074 767.047 366.074 767.963V768.602H358.506V767.298H364.54C364.54 766.744 364.429 766.25 364.208 765.815C363.99 765.381 363.679 765.038 363.275 764.786C362.874 764.535 362.401 764.409 361.855 764.409C361.255 764.409 360.735 764.558 360.296 764.857C359.861 765.151 359.527 765.534 359.292 766.007C359.058 766.48 358.941 766.987 358.941 767.528V768.398C358.941 769.139 359.069 769.768 359.324 770.283C359.584 770.795 359.944 771.185 360.404 771.453C360.865 771.717 361.4 771.849 362.009 771.849C362.405 771.849 362.763 771.794 363.083 771.683C363.407 771.568 363.686 771.398 363.92 771.172C364.154 770.942 364.336 770.656 364.463 770.315L365.921 770.724C365.767 771.219 365.51 771.653 365.147 772.028C364.785 772.399 364.338 772.689 363.805 772.898C363.272 773.102 362.674 773.205 362.009 773.205Z" fill="#2F2E2E"/>
<path d="M127.202 94V75.8182H138.104V77.7713H129.403V83.9148H137.287V85.8679H129.403V94H127.202ZM141.444 94V80.3636H143.468V82.4233H143.61C143.859 81.7486 144.309 81.2011 144.96 80.7809C145.611 80.3607 146.345 80.1506 147.161 80.1506C147.315 80.1506 147.508 80.1535 147.738 80.1594C147.969 80.1654 148.144 80.1742 148.262 80.1861V82.3168C148.191 82.299 148.028 82.2724 147.774 82.2369C147.525 82.1954 147.262 82.1747 146.984 82.1747C146.321 82.1747 145.729 82.3138 145.208 82.592C144.693 82.8642 144.285 83.243 143.983 83.7283C143.687 84.2077 143.539 84.7552 143.539 85.3707V94H141.444ZM150.746 94V80.3636H152.841V94H150.746ZM151.811 78.0909C151.403 78.0909 151.051 77.9518 150.755 77.6737C150.465 77.3955 150.32 77.0611 150.32 76.6705C150.32 76.2798 150.465 75.9454 150.755 75.6673C151.051 75.3891 151.403 75.25 151.811 75.25C152.219 75.25 152.569 75.3891 152.859 75.6673C153.155 75.9454 153.303 76.2798 153.303 76.6705C153.303 77.0611 153.155 77.3955 152.859 77.6737C152.569 77.9518 152.219 78.0909 151.811 78.0909ZM162.396 94.2841C161.082 94.2841 159.948 93.9941 158.995 93.4141C158.049 92.8281 157.318 92.0114 156.803 90.9638C156.294 89.9103 156.039 88.6851 156.039 87.2884C156.039 85.8916 156.294 84.6605 156.803 83.5952C157.318 82.5239 158.034 81.6894 158.951 81.0916C159.874 80.4879 160.952 80.1861 162.183 80.1861C162.893 80.1861 163.594 80.3045 164.287 80.5412C164.979 80.7779 165.609 81.1626 166.178 81.6953C166.746 82.2221 167.199 82.9205 167.536 83.7905C167.873 84.6605 168.042 85.7318 168.042 87.0043V87.892H157.531V86.081H165.911C165.911 85.3116 165.757 84.625 165.45 84.0213C165.148 83.4176 164.716 82.9412 164.153 82.592C163.597 82.2428 162.94 82.0682 162.183 82.0682C161.348 82.0682 160.626 82.2753 160.016 82.6896C159.413 83.098 158.948 83.6307 158.623 84.2876C158.297 84.9446 158.134 85.6489 158.134 86.4006V87.608C158.134 88.6378 158.312 89.5108 158.667 90.2269C159.028 90.9371 159.528 91.4787 160.167 91.8516C160.807 92.2185 161.549 92.402 162.396 92.402C162.946 92.402 163.443 92.325 163.887 92.1712C164.337 92.0114 164.725 91.7746 165.05 91.4609C165.376 91.1413 165.627 90.7448 165.805 90.2713L167.829 90.8395C167.616 91.526 167.258 92.1297 166.755 92.6506C166.252 93.1655 165.63 93.5679 164.89 93.858C164.151 94.142 163.319 94.2841 162.396 94.2841ZM173.324 85.7969V94H171.229V80.3636H173.253V82.4943H173.431C173.75 81.8018 174.236 81.2455 174.887 80.8253C175.538 80.3991 176.378 80.1861 177.408 80.1861C178.331 80.1861 179.139 80.3755 179.832 80.7543C180.524 81.1271 181.063 81.6953 181.448 82.4588C181.832 83.2164 182.025 84.1752 182.025 85.3352V94H179.929V85.4773C179.929 84.406 179.651 83.5715 179.095 82.9737C178.539 82.37 177.775 82.0682 176.804 82.0682C176.136 82.0682 175.538 82.2132 175.011 82.5032C174.49 82.7932 174.079 83.2164 173.777 83.7727C173.475 84.3291 173.324 85.0038 173.324 85.7969ZM191.002 94.2841C189.866 94.2841 188.863 93.997 187.993 93.4229C187.123 92.8429 186.442 92.0262 185.951 90.9727C185.46 89.9132 185.214 88.6615 185.214 87.2173C185.214 85.785 185.46 84.5421 185.951 83.4886C186.442 82.4351 187.126 81.6213 188.002 81.0472C188.878 80.4731 189.89 80.1861 191.038 80.1861C191.926 80.1861 192.627 80.334 193.142 80.63C193.663 80.92 194.059 81.2514 194.331 81.6243C194.61 81.9912 194.826 82.2931 194.98 82.5298H195.157V75.8182H197.252V94H195.228V91.9048H194.98C194.826 92.1534 194.607 92.4671 194.323 92.8459C194.039 93.2187 193.633 93.5531 193.106 93.8491C192.58 94.1391 191.878 94.2841 191.002 94.2841ZM191.286 92.402C192.127 92.402 192.837 92.183 193.417 91.745C193.997 91.3011 194.438 90.6886 194.74 89.9073C195.042 89.1201 195.193 88.2116 195.193 87.1818C195.193 86.1638 195.045 85.2731 194.749 84.5096C194.453 83.7402 194.015 83.1424 193.435 82.7163C192.855 82.2842 192.139 82.0682 191.286 82.0682C190.399 82.0682 189.659 82.296 189.067 82.7518C188.481 83.2016 188.04 83.8142 187.744 84.5895C187.454 85.3589 187.309 86.223 187.309 87.1818C187.309 88.1525 187.457 89.0343 187.753 89.8274C188.055 90.6146 188.499 91.242 189.085 91.7095C189.677 92.1712 190.41 92.402 191.286 92.402ZM203.476 75.8182V94H201.381V75.8182H203.476ZM208.663 99.1136C208.307 99.1136 207.991 99.084 207.713 99.0249C207.434 98.9716 207.242 98.9183 207.136 98.8651L207.668 97.0185C208.177 97.1487 208.627 97.196 209.018 97.1605C209.408 97.125 209.755 96.9504 210.056 96.6367C210.364 96.329 210.645 95.8288 210.9 95.1364L211.29 94.071L206.248 80.3636H208.521L212.285 91.2301H212.427L216.191 80.3636H218.464L212.675 95.9886C212.415 96.6929 212.092 97.2759 211.708 97.7376C211.323 98.2051 210.876 98.5514 210.367 98.7763C209.864 99.0012 209.296 99.1136 208.663 99.1136ZM221.513 94V75.8182H232.415V77.7713H223.715V83.9148H231.598V85.8679H223.715V94H221.513ZM240.618 94.2841C239.304 94.2841 238.171 93.9941 237.218 93.4141C236.271 92.8281 235.54 92.0114 235.025 90.9638C234.516 89.9103 234.262 88.6851 234.262 87.2884C234.262 85.8916 234.516 84.6605 235.025 83.5952C235.54 82.5239 236.256 81.6894 237.174 81.0916C238.097 80.4879 239.174 80.1861 240.405 80.1861C241.116 80.1861 241.817 80.3045 242.509 80.5412C243.202 80.7779 243.832 81.1626 244.4 81.6953C244.968 82.2221 245.421 82.9205 245.759 83.7905C246.096 84.6605 246.265 85.7318 246.265 87.0043V87.892H235.753V86.081H244.134C244.134 85.3116 243.98 84.625 243.672 84.0213C243.37 83.4176 242.938 82.9412 242.376 82.592C241.82 82.2428 241.163 82.0682 240.405 82.0682C239.571 82.0682 238.849 82.2753 238.239 82.6896C237.635 83.098 237.171 83.6307 236.845 84.2876C236.52 84.9446 236.357 85.6489 236.357 86.4006V87.608C236.357 88.6378 236.535 89.5108 236.89 90.2269C237.251 90.9371 237.751 91.4787 238.39 91.8516C239.029 92.2185 239.772 92.402 240.618 92.402C241.169 92.402 241.666 92.325 242.11 92.1712C242.56 92.0114 242.947 91.7746 243.273 91.4609C243.598 91.1413 243.85 90.7448 244.027 90.2713L246.052 90.8395C245.839 91.526 245.48 92.1297 244.977 92.6506C244.474 93.1655 243.853 93.5679 243.113 93.858C242.373 94.142 241.542 94.2841 240.618 94.2841ZM253.465 94.3196C252.6 94.3196 251.816 94.1568 251.112 93.8313C250.408 93.4999 249.848 93.0234 249.434 92.402C249.02 91.7746 248.813 91.017 248.813 90.1293C248.813 89.348 248.966 88.7147 249.274 88.2294C249.582 87.7382 249.993 87.3535 250.508 87.0753C251.023 86.7971 251.591 86.59 252.213 86.4538C252.84 86.3118 253.47 86.1993 254.104 86.1165C254.932 86.0099 255.604 85.93 256.119 85.8768C256.64 85.8176 257.019 85.7199 257.255 85.5838C257.498 85.4477 257.619 85.2109 257.619 84.8736V84.8026C257.619 83.9266 257.38 83.246 256.9 82.7607C256.427 82.2753 255.708 82.0327 254.743 82.0327C253.743 82.0327 252.959 82.2517 252.39 82.6896C251.822 83.1276 251.423 83.5952 251.192 84.0923L249.203 83.3821C249.558 82.5535 250.032 81.9084 250.624 81.4467C251.221 80.9792 251.872 80.6536 252.577 80.4702C253.287 80.2808 253.985 80.1861 254.672 80.1861C255.11 80.1861 255.613 80.2393 256.181 80.3459C256.755 80.4465 257.309 80.6566 257.841 80.9762C258.38 81.2958 258.827 81.7782 259.182 82.4233C259.537 83.0684 259.715 83.9325 259.715 85.0156V94H257.619V92.1534H257.513C257.371 92.4493 257.134 92.766 256.803 93.1033C256.471 93.4407 256.03 93.7277 255.48 93.9645C254.929 94.2012 254.258 94.3196 253.465 94.3196ZM253.784 92.4375C254.613 92.4375 255.311 92.2747 255.879 91.9492C256.453 91.6237 256.886 91.2035 257.176 90.6886C257.471 90.1737 257.619 89.6321 257.619 89.0639V87.1463C257.531 87.2528 257.335 87.3505 257.033 87.4393C256.738 87.5221 256.394 87.5961 256.004 87.6612C255.619 87.7204 255.243 87.7737 254.876 87.821C254.515 87.8625 254.222 87.898 253.997 87.9276C253.453 87.9986 252.944 88.114 252.47 88.2738C252.003 88.4277 251.624 88.6615 251.334 88.9751C251.05 89.2829 250.908 89.7031 250.908 90.2358C250.908 90.9638 251.177 91.5142 251.716 91.8871C252.26 92.254 252.95 92.4375 253.784 92.4375ZM269.469 80.3636V82.1392H262.402V80.3636H269.469ZM264.462 77.0966H266.557V90.0938C266.557 90.6856 266.643 91.1295 266.815 91.4254C266.992 91.7154 267.217 91.9107 267.489 92.0114C267.768 92.1061 268.06 92.1534 268.368 92.1534C268.599 92.1534 268.788 92.1416 268.936 92.1179C269.084 92.0883 269.203 92.0646 269.292 92.0469L269.718 93.929C269.576 93.9822 269.377 94.0355 269.123 94.0888C268.868 94.148 268.546 94.1776 268.155 94.1776C267.563 94.1776 266.983 94.0503 266.415 93.7958C265.853 93.5413 265.385 93.1536 265.012 92.6328C264.645 92.112 264.462 91.455 264.462 90.6619V77.0966ZM275.009 85.7969V94H272.914V75.8182H275.009V82.4943H275.186C275.506 81.79 275.985 81.2307 276.625 80.8164C277.27 80.3962 278.128 80.1861 279.199 80.1861C280.128 80.1861 280.942 80.3725 281.641 80.7454C282.339 81.1123 282.881 81.6776 283.265 82.4411C283.656 83.1986 283.851 84.1634 283.851 85.3352V94H281.756V85.4773C281.756 84.3942 281.475 83.5567 280.913 82.9648C280.356 82.3671 279.584 82.0682 278.596 82.0682C277.909 82.0682 277.293 82.2132 276.749 82.5032C276.21 82.7932 275.784 83.2164 275.471 83.7727C275.163 84.3291 275.009 85.0038 275.009 85.7969ZM293.402 94.2841C292.088 94.2841 290.954 93.9941 290.001 93.4141C289.054 92.8281 288.323 92.0114 287.809 90.9638C287.3 89.9103 287.045 88.6851 287.045 87.2884C287.045 85.8916 287.3 84.6605 287.809 83.5952C288.323 82.5239 289.04 81.6894 289.957 81.0916C290.88 80.4879 291.957 80.1861 293.188 80.1861C293.899 80.1861 294.6 80.3045 295.293 80.5412C295.985 80.7779 296.615 81.1626 297.184 81.6953C297.752 82.2221 298.204 82.9205 298.542 83.7905C298.879 84.6605 299.048 85.7318 299.048 87.0043V87.892H288.536V86.081H296.917C296.917 85.3116 296.763 84.625 296.456 84.0213C296.154 83.4176 295.722 82.9412 295.159 82.592C294.603 82.2428 293.946 82.0682 293.188 82.0682C292.354 82.0682 291.632 82.2753 291.022 82.6896C290.419 83.098 289.954 83.6307 289.628 84.2876C289.303 84.9446 289.14 85.6489 289.14 86.4006V87.608C289.14 88.6378 289.318 89.5108 289.673 90.2269C290.034 90.9371 290.534 91.4787 291.173 91.8516C291.812 92.2185 292.555 92.402 293.402 92.402C293.952 92.402 294.449 92.325 294.893 92.1712C295.343 92.0114 295.73 91.7746 296.056 91.4609C296.382 91.1413 296.633 90.7448 296.811 90.2713L298.835 90.8395C298.622 91.526 298.264 92.1297 297.761 92.6506C297.257 93.1655 296.636 93.5679 295.896 93.858C295.156 94.142 294.325 94.2841 293.402 94.2841ZM302.235 94V80.3636H304.259V82.4233H304.401C304.65 81.7486 305.1 81.2011 305.751 80.7809C306.402 80.3607 307.136 80.1506 307.952 80.1506C308.106 80.1506 308.299 80.1535 308.529 80.1594C308.76 80.1654 308.935 80.1742 309.053 80.1861V82.3168C308.982 82.299 308.819 82.2724 308.565 82.2369C308.316 82.1954 308.053 82.1747 307.775 82.1747C307.112 82.1747 306.52 82.3138 305.999 82.592C305.484 82.8642 305.076 83.243 304.774 83.7283C304.478 84.2077 304.33 84.7552 304.33 85.3707V94H302.235ZM321.196 83.4176L319.314 83.9503C319.195 83.6366 319.021 83.3318 318.79 83.0359C318.565 82.734 318.257 82.4854 317.867 82.2901C317.476 82.0948 316.976 81.9972 316.366 81.9972C315.532 81.9972 314.836 82.1895 314.28 82.5742C313.73 82.953 313.454 83.4354 313.454 84.0213C313.454 84.5421 313.644 84.9535 314.023 85.2553C314.401 85.5572 314.993 85.8087 315.798 86.0099L317.822 86.5071C319.041 86.803 319.95 87.2558 320.548 87.8654C321.146 88.4691 321.444 89.2474 321.444 90.2003C321.444 90.9815 321.22 91.6799 320.77 92.2955C320.326 92.911 319.704 93.3963 318.905 93.7514C318.106 94.1065 317.177 94.2841 316.118 94.2841C314.727 94.2841 313.576 93.9822 312.664 93.3786C311.753 92.7749 311.176 91.893 310.933 90.733L312.922 90.2358C313.111 90.9697 313.469 91.5201 313.996 91.8871C314.529 92.254 315.224 92.4375 316.082 92.4375C317.059 92.4375 317.834 92.2304 318.408 91.8161C318.988 91.3958 319.278 90.8928 319.278 90.3068C319.278 89.8333 319.113 89.4368 318.781 89.1172C318.45 88.7917 317.941 88.549 317.254 88.3892L314.981 87.8565C313.733 87.5606 312.815 87.1019 312.229 86.4805C311.649 85.8531 311.359 85.0689 311.359 84.1278C311.359 83.3584 311.575 82.6778 312.007 82.0859C312.445 81.4941 313.04 81.0295 313.792 80.6921C314.549 80.3548 315.407 80.1861 316.366 80.1861C317.716 80.1861 318.775 80.482 319.545 81.0739C320.32 81.6657 320.87 82.447 321.196 83.4176Z" fill="#DD00A9"/>
<path fill-rule="evenodd" clip-rule="evenodd" d="M366 36.6667C366 35.1939 367.194 34 368.667 34H385.333C386.806 34 388 35.1939 388 36.6667V42.6667C388 44.1394 386.806 45.3333 385.333 45.3333H368.667C367.194 45.3333 366 44.1394 366 42.6667V36.6667Z" stroke="#2F2E2E"/>
<path d="M389 37.667V41.667C389.805 41.3282 390.328 40.5401 390.328 39.667C390.328 38.7939 389.805 38.0058 389 37.667" stroke="#2F2E2E"/>
<path d="M368 37.3333C368 36.597 368.597 36 369.333 36H384.667C385.403 36 386 36.597 386 37.3333V42C386 42.7364 385.403 43.3333 384.667 43.3333H369.333C368.597 43.3333 368 42.7364 368 42V37.3333Z" stroke="#2F2E2E"/>
<path d="M337 41.6665H338C338.552 41.6665 339 42.1142 339 42.6665V44.6665C339 45.2188 338.552 45.6665 338 45.6665H337C336.448 45.6665 336 45.2188 336 44.6665V42.6665C336 42.1142 336.448 41.6665 337 41.6665Z" stroke="#2F2E2E"/>
<path d="M341.666 39.6665H342.666C343.218 39.6665 343.666 40.1142 343.666 40.6665V44.6665C343.666 45.2188 343.218 45.6665 342.666 45.6665H341.666C341.114 45.6665 340.666 45.2188 340.666 44.6665V40.6665C340.666 40.1142 341.114 39.6665 341.666 39.6665Z" stroke="#2F2E2E"/>
<path d="M346.334 37.3335H347.334C347.886 37.3335 348.334 37.7812 348.334 38.3335V44.6668C348.334 45.2191 347.886 45.6668 347.334 45.6668H346.334C345.782 45.6668 345.334 45.2191 345.334 44.6668V38.3335C345.334 37.7812 345.782 37.3335 346.334 37.3335Z" stroke="#2F2E2E"/>
<path d="M351 35H352C352.552 35 353 35.4477 353 36V44.6667C353 45.219 352.552 45.6667 352 45.6667H351C350.448 45.6667 350 45.219 350 44.6667V36C350 35.4477 350.448 35 351 35V35Z" stroke="#2F2E2E"/>
<path d="M52.3418 42.7628V41.6761L57.1359 34.0909H57.9242V35.7741H57.3916L53.7694 41.5057V41.5909H60.2254V42.7628H52.3418ZM57.4768 45V42.4325V41.9265V34.0909H58.7339V45H57.4768ZM63.159 43.6044C62.8963 43.6044 62.6708 43.5103 62.4826 43.3221C62.2943 43.1339 62.2002 42.9084 62.2002 42.6456C62.2002 42.3828 62.2943 42.1573 62.4826 41.9691C62.6708 41.7809 62.8963 41.6868 63.159 41.6868C63.4218 41.6868 63.6473 41.7809 63.8355 41.9691C64.0237 42.1573 64.1179 42.3828 64.1179 42.6456C64.1179 42.8196 64.0735 42.9794 63.9847 43.125C63.8995 43.2706 63.784 43.3878 63.6385 43.4766C63.4964 43.5618 63.3366 43.6044 63.159 43.6044ZM63.159 38.0859C62.8963 38.0859 62.6708 37.9918 62.4826 37.8036C62.2943 37.6154 62.2002 37.3899 62.2002 37.1271C62.2002 36.8643 62.2943 36.6388 62.4826 36.4506C62.6708 36.2624 62.8963 36.1683 63.159 36.1683C63.4218 36.1683 63.6473 36.2624 63.8355 36.4506C64.0237 36.6388 64.1179 36.8643 64.1179 37.1271C64.1179 37.3011 64.0735 37.4609 63.9847 37.6065C63.8995 37.7521 63.784 37.8693 63.6385 37.9581C63.4964 38.0433 63.3366 38.0859 63.159 38.0859ZM66.3524 45V44.0412L69.9533 40.0994C70.3758 39.6378 70.7239 39.2365 70.9973 38.8956C71.2707 38.5511 71.4731 38.228 71.6045 37.9261C71.7395 37.6207 71.807 37.3011 71.807 36.9673C71.807 36.5838 71.7146 36.2518 71.53 35.9712C71.3489 35.6907 71.1003 35.4741 70.7842 35.3214C70.4682 35.1687 70.1131 35.0923 69.7189 35.0923C69.2998 35.0923 68.9341 35.1793 68.6216 35.3533C68.3126 35.5238 68.0729 35.7635 67.9025 36.0724C67.7356 36.3814 67.6521 36.7436 67.6521 37.1591H66.395C66.395 36.5199 66.5424 35.9588 66.8371 35.4759C67.1319 34.9929 67.5332 34.6165 68.041 34.3466C68.5523 34.0767 69.1258 33.9418 69.7615 33.9418C70.4007 33.9418 70.9671 34.0767 71.4607 34.3466C71.9543 34.6165 72.3414 34.9805 72.6219 35.4386C72.9025 35.8967 73.0427 36.4062 73.0427 36.9673C73.0427 37.3686 72.9699 37.761 72.8244 38.1445C72.6823 38.5245 72.4337 38.9489 72.0786 39.4176C71.7271 39.8828 71.2388 40.451 70.6138 41.1222L68.1635 43.7429V43.8281H73.2345V45H66.3524ZM79.0566 45.1491C78.6092 45.142 78.1617 45.0568 77.7143 44.8935C77.2668 44.7301 76.8584 44.4549 76.4891 44.0678C76.1198 43.6772 75.8233 43.1499 75.5996 42.4858C75.3758 41.8182 75.264 40.9801 75.264 39.9716C75.264 39.0057 75.3545 38.1499 75.5356 37.4041C75.7168 36.6548 75.9795 36.0245 76.324 35.5131C76.6685 34.9982 77.0839 34.6076 77.5704 34.3413C78.0605 34.0749 78.6127 33.9418 79.2271 33.9418C79.8378 33.9418 80.3812 34.0643 80.857 34.3093C81.3364 34.5508 81.7271 34.8881 82.0289 35.3214C82.3307 35.7546 82.5261 36.2536 82.6148 36.8182H81.3151C81.1944 36.3281 80.96 35.9215 80.612 35.5984C80.264 35.2752 79.8023 35.1136 79.2271 35.1136C78.3819 35.1136 77.716 35.4812 77.2295 36.2163C76.7466 36.9513 76.5033 37.983 76.4998 39.3111H76.585C76.7839 39.0092 77.02 38.7518 77.2935 38.5387C77.5704 38.3221 77.8758 38.1552 78.2097 38.038C78.5435 37.9208 78.8968 37.8622 79.2697 37.8622C79.8947 37.8622 80.4664 38.0185 80.9849 38.331C81.5033 38.6399 81.9188 39.0678 82.2313 39.6147C82.5438 40.158 82.7001 40.7812 82.7001 41.4844C82.7001 42.1591 82.5491 42.777 82.2473 43.3381C81.9454 43.8956 81.5211 44.3395 80.9742 44.6697C80.4309 44.9964 79.7917 45.1562 79.0566 45.1491ZM79.0566 43.9773C79.504 43.9773 79.9053 43.8654 80.2604 43.6417C80.6191 43.418 80.9014 43.1179 81.1074 42.7415C81.3169 42.3651 81.4217 41.946 81.4217 41.4844C81.4217 41.0334 81.3204 40.6232 81.118 40.2539C80.9192 39.881 80.644 39.5845 80.2924 39.3643C79.9444 39.1442 79.5467 39.0341 79.0992 39.0341C78.7619 39.0341 78.4476 39.1016 78.1564 39.2365C77.8652 39.3679 77.6095 39.549 77.3893 39.7798C77.1727 40.0107 77.0023 40.2752 76.878 40.5735C76.7537 40.8683 76.6915 41.179 76.6915 41.5057C76.6915 41.9389 76.7927 42.3437 76.9952 42.7202C77.2011 43.0966 77.4817 43.4002 77.8368 43.631C78.1954 43.8619 78.6021 43.9773 79.0566 43.9773ZM84.9866 45V34.0909H88.6726C89.5285 34.0909 90.228 34.2454 90.7714 34.5543C91.3182 34.8597 91.7231 35.2734 91.9858 35.7955C92.2486 36.3175 92.38 36.8999 92.38 37.5426C92.38 38.1854 92.2486 38.7695 91.9858 39.2951C91.7266 39.8207 91.3253 40.2397 90.782 40.5522C90.2387 40.8612 89.5427 41.0156 88.6939 41.0156H86.0519V39.8438H88.6513C89.2373 39.8438 89.7078 39.7425 90.0629 39.5401C90.418 39.3377 90.6755 39.0643 90.8353 38.7198C90.9986 38.3718 91.0803 37.9794 91.0803 37.5426C91.0803 37.1058 90.9986 36.7152 90.8353 36.3707C90.6755 36.0263 90.4162 35.7564 90.0576 35.5611C89.6989 35.3622 89.2231 35.2628 88.63 35.2628H86.3076V45H84.9866ZM94.508 34.0909H96.0847L99.7921 43.1463H99.92L103.627 34.0909H105.204V45H103.968V36.7116H103.862L100.453 45H99.2595L95.8504 36.7116H95.7438V45H94.508V34.0909Z" fill="#2F2E2E"/>
<path d="M413.349 90.4242C413.349 95.9052 408.905 100.348 403.424 100.348C397.943 100.348 393.5 95.9052 393.5 90.4242C393.5 84.9432 397.943 80.5 403.424 80.5C408.905 80.5 413.349 84.9432 413.349 90.4242Z" fill="white" stroke="#2F2E2E"/>
<path d="M416.101 103.808C416.296 104.003 416.613 104.003 416.808 103.808C417.003 103.613 417.003 103.296 416.808 103.101L416.101 103.808ZM416.808 103.101L410.944 97.2373L410.237 97.9444L416.101 103.808L416.808 103.101Z" fill="#2F2E2E"/>
<rect x="36" y="185" width="374" height="20" rx="10" fill="#D0D0D0"/>
<rect x="36" y="209" width="375" height="20" rx="10" fill="#D0D0D0"/>
<rect x="36" y="233" width="217" height="20" rx="10" fill="#D0D0D0"/>
<rect x="73" y="494" width="133" height="20" rx="10" fill="#D0D0D0"/>
<rect x="52" y="595" width="144" height="20" rx="10" fill="#D0D0D0"/>
<rect x="15" y="625" width="181" height="20" rx="10" fill="#D0D0D0"/>
<rect x="15" y="663" width="315" height="20" rx="10" fill="#D0D0D0"/>
<rect x="15" y="697" width="108" height="20" rx="10" fill="#D0D0D0"/>
<rect x="329" y="494" width="99" height="20" rx="10" fill="#D0D0D0"/>
<g clip-path="url(#clip1_1543_11721)" filter="url(#filter0_i_1543_11721)">
<rect width="440" height="56" transform="translate(0 900)" fill="#F9F9F9"/>
<g filter="url(#filter1_d_1543_11721)">
<path d="M48 941.334V928H56V941.334M40 924L52 914.667L64 924V938.667C64 939.374 63.719 940.053 63.219 940.553C62.7189 941.053 62.0406 941.334 61.3333 941.334H42.6667C41.9594 941.334 41.2811 941.053 40.781 940.553C40.281 940.053 40 939.374 40 938.667V924Z" stroke="#2F2E2E" stroke-width="3" stroke-linecap="round" stroke-linejoin="round"/>
</g>
<g filter="url(#filter2_d_1543_11721)">
<path d="M48 941.334V928H56V941.334M40 924L52 914.667L64 924V938.667C64 939.374 63.719 940.053 63.219 940.553C62.7189 941.053 62.0406 941.334 61.3333 941.334H42.6667C41.9594 941.334 41.2811 941.053 40.781 940.553C40.281 940.053 40 939.374 40 938.667V924Z" stroke="#2F2E2E" stroke-width="3" stroke-linecap="round" stroke-linejoin="round"/>
</g>
<g filter="url(#filter3_d_1543_11721)">
<path d="M163.252 912V944" stroke="#2F2E2E" stroke-width="13.9"/>
<path d="M180 928.299L148 928.299" stroke="#2F2E2E" stroke-width="13.9"/>
</g>
<g filter="url(#filter4_d_1543_11721)">
<path d="M266.537 940.702C269.794 940.601 275.661 939.882 278.289 937.808C280.186 936.311 282.455 934.629 284.655 933.637" stroke="#2F2E2E" stroke-width="3" stroke-linecap="round"/>
<path d="M275.352 934.52C280.292 933.883 287.271 930.245 289.552 926.13" stroke="#2F2E2E" stroke-width="3" stroke-linecap="round"/>
<path d="M282.207 927.455C285.292 924.926 292 923.863 292 919.507" stroke="#2F2E2E" stroke-width="3" stroke-linecap="round"/>
<path d="M286.124 919.507C286.905 919.419 286.95 916.047 287.131 915.312C287.472 913.925 289.491 912.993 290.041 912" stroke="#2F2E2E" stroke-width="3" stroke-linecap="round"/>
<path d="M261.641 936.728C261.208 933.218 260.395 929.26 262.13 926.13" stroke="#2F2E2E" stroke-width="3" stroke-linecap="round"/>
<path d="M266.048 930.546C267.887 928.68 268.194 925.7 269.476 923.677C270.358 922.284 270.693 920.283 272.414 919.507" stroke="#2F2E2E" stroke-width="3" stroke-linecap="round"/>
<path d="M274.372 922.598C274.372 921.389 275.88 918.248 276.929 917.397C278.765 915.907 280.263 915.974 282.696 915.974" stroke="#2F2E2E" stroke-width="3" stroke-linecap="round"/>
<path d="M283.061 920.583L260 944" stroke="#2F2E2E" stroke-width="3" stroke-linecap="round"/>
</g>
<g filter="url(#filter5_d_1543_11721)">
<circle cx="388" cy="928" r="14.5" fill="#FAF8FA" stroke="#2F2E2E" stroke-width="3"/>
<path d="M388.533 922.347V933.76" stroke="#2F2E2E" stroke-width="3"/>
<path d="M394.507 928.16L383.094 928.16" stroke="#2F2E2E" stroke-width="3"/>
</g>
</g>
</g>
<defs>
<filter id="filter0_i_1543_11721" x="0" y="900" width="440" height="60" filterUnits="userSpaceOnUse" color-interpolation-filters="sRGB">
<feFlood flood-opacity="0" result="BackgroundImageFix"/>
<feBlend mode="normal" in="SourceGraphic" in2="BackgroundImageFix" result="shape"/>
<feColorMatrix in="SourceAlpha" type="matrix" values="0 0 0 0 0 0 0 0 0 0 0 0 0 0 0 0 0 0 127 0" result="hardAlpha"/>
<feOffset dy="5"/>
<feGaussianBlur stdDeviation="2"/>
<feComposite in2="hardAlpha" operator="arithmetic" k2="-1" k3="1"/>
<feColorMatrix type="matrix" values="0 0 0 0 0.770833 0 0 0 0 0.631441 0 0 0 0 0.722046 0 0 0 0.5 0"/>
<feBlend mode="normal" in2="shape" result="effect1_innerShadow_1543_11721"/>
</filter>
<filter id="filter1_d_1543_11721" x="31" y="912" width="42" height="44" filterUnits="userSpaceOnUse" color-interpolation-filters="sRGB">
<feFlood flood-opacity="0" result="BackgroundImageFix"/>
<feColorMatrix in="SourceAlpha" type="matrix" values="0 0 0 0 0 0 0 0 0 0 0 0 0 0 0 0 0 0 127 0" result="hardAlpha"/>
<feOffset dy="7"/>
<feGaussianBlur stdDeviation="2.5"/>
<feComposite in2="hardAlpha" operator="out"/>
<feColorMatrix type="matrix" values="0 0 0 0 0.770833 0 0 0 0 0.631441 0 0 0 0 0.722046 0 0 0 1 0"/>
<feBlend mode="normal" in2="BackgroundImageFix" result="effect1_dropShadow_1543_11721"/>
<feBlend mode="normal" in="SourceGraphic" in2="effect1_dropShadow_1543_11721" result="shape"/>
</filter>
<filter id="filter2_d_1543_11721" x="31" y="912" width="42" height="44" filterUnits="userSpaceOnUse" color-interpolation-filters="sRGB">
<feFlood flood-opacity="0" result="BackgroundImageFix"/>
<feColorMatrix in="SourceAlpha" type="matrix" values="0 0 0 0 0 0 0 0 0 0 0 0 0 0 0 0 0 0 127 0" result="hardAlpha"/>
<feOffset dy="7"/>
<feGaussianBlur stdDeviation="2.5"/>
<feComposite in2="hardAlpha" operator="out"/>
<feColorMatrix type="matrix" values="0 0 0 0 0.770833 0 0 0 0 0.631441 0 0 0 0 0.722046 0 0 0 1 0"/>
<feBlend mode="normal" in2="BackgroundImageFix" result="effect1_dropShadow_1543_11721"/>
<feBlend mode="normal" in="SourceGraphic" in2="effect1_dropShadow_1543_11721" result="shape"/>
</filter>
<filter id="filter3_d_1543_11721" x="143" y="912" width="42" height="44" filterUnits="userSpaceOnUse" color-interpolation-filters="sRGB">
<feFlood flood-opacity="0" result="BackgroundImageFix"/>
<feColorMatrix in="SourceAlpha" type="matrix" values="0 0 0 0 0 0 0 0 0 0 0 0 0 0 0 0 0 0 127 0" result="hardAlpha"/>
<feOffset dy="7"/>
<feGaussianBlur stdDeviation="2.5"/>
<feComposite in2="hardAlpha" operator="out"/>
<feColorMatrix type="matrix" values="0 0 0 0 0.770833 0 0 0 0 0.631441 0 0 0 0 0.722046 0 0 0 1 0"/>
<feBlend mode="normal" in2="BackgroundImageFix" result="effect1_dropShadow_1543_11721"/>
<feBlend mode="normal" in="SourceGraphic" in2="effect1_dropShadow_1543_11721" result="shape"/>
</filter>
<filter id="filter4_d_1543_11721" x="253.425" y="910.5" width="45.0747" height="46.9224" filterUnits="userSpaceOnUse" color-interpolation-filters="sRGB">
<feFlood flood-opacity="0" result="BackgroundImageFix"/>
<feColorMatrix in="SourceAlpha" type="matrix" values="0 0 0 0 0 0 0 0 0 0 0 0 0 0 0 0 0 0 127 0" result="hardAlpha"/>
<feOffset dy="7"/>
<feGaussianBlur stdDeviation="2.5"/>
<feComposite in2="hardAlpha" operator="out"/>
<feColorMatrix type="matrix" values="0 0 0 0 0.770833 0 0 0 0 0.631441 0 0 0 0 0.722046 0 0 0 1 0"/>
<feBlend mode="normal" in2="BackgroundImageFix" result="effect1_dropShadow_1543_11721"/>
<feBlend mode="normal" in="SourceGraphic" in2="effect1_dropShadow_1543_11721" result="shape"/>
</filter>
<filter id="filter5_d_1543_11721" x="367" y="912" width="42" height="44" filterUnits="userSpaceOnUse" color-interpolation-filters="sRGB">
<feFlood flood-opacity="0" result="BackgroundImageFix"/>
<feColorMatrix in="SourceAlpha" type="matrix" values="0 0 0 0 0 0 0 0 0 0 0 0 0 0 0 0 0 0 127 0" result="hardAlpha"/>
<feOffset dy="7"/>
<feGaussianBlur stdDeviation="2.5"/>
<feComposite in2="hardAlpha" operator="out"/>
<feColorMatrix type="matrix" values="0 0 0 0 0.770833 0 0 0 0 0.631441 0 0 0 0 0.722046 0 0 0 1 0"/>
<feBlend mode="normal" in2="BackgroundImageFix" result="effect1_dropShadow_1543_11721"/>
<feBlend mode="normal" in="SourceGraphic" in2="effect1_dropShadow_1543_11721" result="shape"/>
</filter>
<clipPath id="clip0_1543_11721">
<rect width="440" height="956" fill="white"/>
</clipPath>
<clipPath id="clip1_1543_11721">
<rect width="440" height="56" fill="white" transform="translate(0 900)"/>
</clipPath>
</defs>
</svg>
