<svg width="440" height="956" viewBox="0 0 440 956" fill="none" xmlns="http://www.w3.org/2000/svg">
<g clip-path="url(#clip0_1543_11226)">
<rect width="440" height="956" fill="white"/>
<rect x="0.5" y="0.5" width="439" height="955" fill="white" stroke="#2F2E2E"/>
<rect y="184" width="440" height="200" fill="#B3B3B3"/>
<rect x="34" y="546" width="240" height="250" fill="#B3B3B3"/>
<path d="M274.5 826.976C274.5 821.19 279.19 816.5 284.976 816.5H407.024C412.81 816.5 417.5 821.19 417.5 826.976V849.024C417.5 854.81 412.81 859.5 407.024 859.5H284.976C279.19 859.5 274.5 854.81 274.5 849.024V826.976Z" fill="white" stroke="#2F2E2E"/>
<path d="M324.582 843V829.937H329.149C330.059 829.937 330.809 830.095 331.4 830.409C331.991 830.72 332.431 831.138 332.721 831.666C333.01 832.189 333.154 832.769 333.154 833.407C333.154 833.968 333.054 834.432 332.855 834.797C332.659 835.163 332.4 835.452 332.076 835.665C331.757 835.878 331.411 836.035 331.037 836.137V836.264C331.436 836.29 331.838 836.43 332.242 836.685C332.646 836.941 332.984 837.306 333.256 837.783C333.528 838.259 333.665 838.841 333.665 839.53C333.665 840.185 333.516 840.774 333.218 841.297C332.92 841.82 332.451 842.235 331.808 842.541C331.166 842.847 330.331 843 329.302 843H324.582ZM326.164 841.597H329.302C330.335 841.597 331.069 841.397 331.502 840.997C331.94 840.593 332.159 840.104 332.159 839.53C332.159 839.088 332.047 838.68 331.821 838.306C331.596 837.927 331.275 837.625 330.858 837.4C330.441 837.17 329.948 837.055 329.378 837.055H326.164V841.597ZM326.164 835.678H329.098C329.574 835.678 330.003 835.584 330.386 835.397C330.773 835.21 331.079 834.946 331.305 834.606C331.534 834.266 331.649 833.866 331.649 833.407C331.649 832.833 331.449 832.346 331.049 831.946C330.65 831.542 330.016 831.34 329.149 831.34H326.164V835.678ZM340.04 843.204C339.155 843.204 338.379 842.994 337.712 842.573C337.048 842.152 336.529 841.563 336.155 840.806C335.785 840.049 335.6 839.165 335.6 838.152C335.6 837.132 335.785 836.241 336.155 835.48C336.529 834.719 337.048 834.128 337.712 833.707C338.379 833.286 339.155 833.075 340.04 833.075C340.924 833.075 341.698 833.286 342.361 833.707C343.029 834.128 343.548 834.719 343.918 835.48C344.292 836.241 344.479 837.132 344.479 838.152C344.479 839.165 344.292 840.049 343.918 840.806C343.548 841.563 343.029 842.152 342.361 842.573C341.698 842.994 340.924 843.204 340.04 843.204ZM340.04 841.852C340.712 841.852 341.264 841.68 341.698 841.335C342.132 840.991 342.453 840.538 342.661 839.977C342.87 839.415 342.974 838.807 342.974 838.152C342.974 837.498 342.87 836.887 342.661 836.322C342.453 835.756 342.132 835.299 341.698 834.951C341.264 834.602 340.712 834.428 340.04 834.428C339.368 834.428 338.815 834.602 338.381 834.951C337.948 835.299 337.627 835.756 337.418 836.322C337.21 836.887 337.106 837.498 337.106 838.152C337.106 838.807 337.21 839.415 337.418 839.977C337.627 840.538 337.948 840.991 338.381 841.335C338.815 841.68 339.368 841.852 340.04 841.852ZM350.757 843.204C349.872 843.204 349.096 842.994 348.429 842.573C347.765 842.152 347.247 841.563 346.872 840.806C346.503 840.049 346.318 839.165 346.318 838.152C346.318 837.132 346.503 836.241 346.872 835.48C347.247 834.719 347.765 834.128 348.429 833.707C349.096 833.286 349.872 833.075 350.757 833.075C351.641 833.075 352.415 833.286 353.079 833.707C353.746 834.128 354.265 834.719 354.635 835.48C355.009 836.241 355.196 837.132 355.196 838.152C355.196 839.165 355.009 840.049 354.635 840.806C354.265 841.563 353.746 842.152 353.079 842.573C352.415 842.994 351.641 843.204 350.757 843.204ZM350.757 841.852C351.429 841.852 351.981 841.68 352.415 841.335C352.849 840.991 353.17 840.538 353.378 839.977C353.587 839.415 353.691 838.807 353.691 838.152C353.691 837.498 353.587 836.887 353.378 836.322C353.17 835.756 352.849 835.299 352.415 834.951C351.981 834.602 351.429 834.428 350.757 834.428C350.085 834.428 349.532 834.602 349.098 834.951C348.665 835.299 348.344 835.756 348.135 836.322C347.927 836.887 347.823 837.498 347.823 838.152C347.823 838.807 347.927 839.415 348.135 839.977C348.344 840.538 348.665 840.991 349.098 841.335C349.532 841.68 350.085 841.852 350.757 841.852ZM358.897 839.428L358.872 837.566H359.178L363.464 833.203H365.327L360.76 837.821H360.632L358.897 839.428ZM357.494 843V829.937H358.999V843H357.494ZM363.719 843L359.892 838.152L360.964 837.106L365.633 843H363.719Z" fill="#2F2E2E"/>
<path d="M273.5 826.976C273.5 821.19 278.19 816.5 283.976 816.5H406.024C411.81 816.5 416.5 821.19 416.5 826.976V849.024C416.5 854.81 411.81 859.5 406.024 859.5H283.976C278.19 859.5 273.5 854.81 273.5 849.024V826.976Z" fill="#DD00A9" stroke="#2F2E2E"/>
<path d="M323.582 843V829.937H328.149C329.059 829.937 329.809 830.095 330.4 830.409C330.991 830.72 331.431 831.138 331.721 831.666C332.01 832.189 332.154 832.769 332.154 833.407C332.154 833.968 332.054 834.432 331.855 834.797C331.659 835.163 331.4 835.452 331.076 835.665C330.757 835.878 330.411 836.035 330.037 836.137V836.264C330.436 836.29 330.838 836.43 331.242 836.685C331.646 836.941 331.984 837.306 332.256 837.783C332.528 838.259 332.665 838.841 332.665 839.53C332.665 840.185 332.516 840.774 332.218 841.297C331.92 841.82 331.451 842.235 330.808 842.541C330.166 842.847 329.331 843 328.302 843H323.582ZM325.164 841.597H328.302C329.335 841.597 330.069 841.397 330.502 840.997C330.94 840.593 331.159 840.104 331.159 839.53C331.159 839.088 331.047 838.68 330.821 838.306C330.596 837.927 330.275 837.625 329.858 837.4C329.441 837.17 328.948 837.055 328.378 837.055H325.164V841.597ZM325.164 835.678H328.098C328.574 835.678 329.003 835.584 329.386 835.397C329.773 835.21 330.079 834.946 330.305 834.606C330.534 834.266 330.649 833.866 330.649 833.407C330.649 832.833 330.449 832.346 330.049 831.946C329.65 831.542 329.016 831.34 328.149 831.34H325.164V835.678ZM339.04 843.204C338.155 843.204 337.379 842.994 336.712 842.573C336.048 842.152 335.529 841.563 335.155 840.806C334.785 840.049 334.6 839.165 334.6 838.152C334.6 837.132 334.785 836.241 335.155 835.48C335.529 834.719 336.048 834.128 336.712 833.707C337.379 833.286 338.155 833.075 339.04 833.075C339.924 833.075 340.698 833.286 341.361 833.707C342.029 834.128 342.548 834.719 342.918 835.48C343.292 836.241 343.479 837.132 343.479 838.152C343.479 839.165 343.292 840.049 342.918 840.806C342.548 841.563 342.029 842.152 341.361 842.573C340.698 842.994 339.924 843.204 339.04 843.204ZM339.04 841.852C339.712 841.852 340.264 841.68 340.698 841.335C341.132 840.991 341.453 840.538 341.661 839.977C341.87 839.415 341.974 838.807 341.974 838.152C341.974 837.498 341.87 836.887 341.661 836.322C341.453 835.756 341.132 835.299 340.698 834.951C340.264 834.602 339.712 834.428 339.04 834.428C338.368 834.428 337.815 834.602 337.381 834.951C336.948 835.299 336.627 835.756 336.418 836.322C336.21 836.887 336.106 837.498 336.106 838.152C336.106 838.807 336.21 839.415 336.418 839.977C336.627 840.538 336.948 840.991 337.381 841.335C337.815 841.68 338.368 841.852 339.04 841.852ZM349.757 843.204C348.872 843.204 348.096 842.994 347.429 842.573C346.765 842.152 346.247 841.563 345.872 840.806C345.503 840.049 345.318 839.165 345.318 838.152C345.318 837.132 345.503 836.241 345.872 835.48C346.247 834.719 346.765 834.128 347.429 833.707C348.096 833.286 348.872 833.075 349.757 833.075C350.641 833.075 351.415 833.286 352.079 833.707C352.746 834.128 353.265 834.719 353.635 835.48C354.009 836.241 354.196 837.132 354.196 838.152C354.196 839.165 354.009 840.049 353.635 840.806C353.265 841.563 352.746 842.152 352.079 842.573C351.415 842.994 350.641 843.204 349.757 843.204ZM349.757 841.852C350.429 841.852 350.981 841.68 351.415 841.335C351.849 840.991 352.17 840.538 352.378 839.977C352.587 839.415 352.691 838.807 352.691 838.152C352.691 837.498 352.587 836.887 352.378 836.322C352.17 835.756 351.849 835.299 351.415 834.951C350.981 834.602 350.429 834.428 349.757 834.428C349.085 834.428 348.532 834.602 348.098 834.951C347.665 835.299 347.344 835.756 347.135 836.322C346.927 836.887 346.823 837.498 346.823 838.152C346.823 838.807 346.927 839.415 347.135 839.977C347.344 840.538 347.665 840.991 348.098 841.335C348.532 841.68 349.085 841.852 349.757 841.852ZM357.897 839.428L357.872 837.566H358.178L362.464 833.203H364.327L359.76 837.821H359.632L357.897 839.428ZM356.494 843V829.937H357.999V843H356.494ZM362.719 843L358.892 838.152L359.964 837.106L364.633 843H362.719Z" fill="#2F2E2E"/>
<path d="M127.202 94V75.8182H138.104V77.7713H129.403V83.9148H137.287V85.8679H129.403V94H127.202ZM141.444 94V80.3636H143.468V82.4233H143.61C143.859 81.7486 144.309 81.2011 144.96 80.7809C145.611 80.3607 146.345 80.1506 147.161 80.1506C147.315 80.1506 147.508 80.1535 147.738 80.1594C147.969 80.1654 148.144 80.1742 148.262 80.1861V82.3168C148.191 82.299 148.028 82.2724 147.774 82.2369C147.525 82.1954 147.262 82.1747 146.984 82.1747C146.321 82.1747 145.729 82.3138 145.208 82.592C144.693 82.8642 144.285 83.243 143.983 83.7283C143.687 84.2077 143.539 84.7552 143.539 85.3707V94H141.444ZM150.746 94V80.3636H152.841V94H150.746ZM151.811 78.0909C151.403 78.0909 151.051 77.9518 150.755 77.6737C150.465 77.3955 150.32 77.0611 150.32 76.6705C150.32 76.2798 150.465 75.9454 150.755 75.6673C151.051 75.3891 151.403 75.25 151.811 75.25C152.219 75.25 152.569 75.3891 152.859 75.6673C153.155 75.9454 153.303 76.2798 153.303 76.6705C153.303 77.0611 153.155 77.3955 152.859 77.6737C152.569 77.9518 152.219 78.0909 151.811 78.0909ZM162.396 94.2841C161.082 94.2841 159.948 93.9941 158.995 93.4141C158.049 92.8281 157.318 92.0114 156.803 90.9638C156.294 89.9103 156.039 88.6851 156.039 87.2884C156.039 85.8916 156.294 84.6605 156.803 83.5952C157.318 82.5239 158.034 81.6894 158.951 81.0916C159.874 80.4879 160.952 80.1861 162.183 80.1861C162.893 80.1861 163.594 80.3045 164.287 80.5412C164.979 80.7779 165.609 81.1626 166.178 81.6953C166.746 82.2221 167.199 82.9205 167.536 83.7905C167.873 84.6605 168.042 85.7318 168.042 87.0043V87.892H157.531V86.081H165.911C165.911 85.3116 165.757 84.625 165.45 84.0213C165.148 83.4176 164.716 82.9412 164.153 82.592C163.597 82.2428 162.94 82.0682 162.183 82.0682C161.348 82.0682 160.626 82.2753 160.016 82.6896C159.413 83.098 158.948 83.6307 158.623 84.2876C158.297 84.9446 158.134 85.6489 158.134 86.4006V87.608C158.134 88.6378 158.312 89.5108 158.667 90.2269C159.028 90.9371 159.528 91.4787 160.167 91.8516C160.807 92.2185 161.549 92.402 162.396 92.402C162.946 92.402 163.443 92.325 163.887 92.1712C164.337 92.0114 164.725 91.7746 165.05 91.4609C165.376 91.1413 165.627 90.7448 165.805 90.2713L167.829 90.8395C167.616 91.526 167.258 92.1297 166.755 92.6506C166.252 93.1655 165.63 93.5679 164.89 93.858C164.151 94.142 163.319 94.2841 162.396 94.2841ZM173.324 85.7969V94H171.229V80.3636H173.253V82.4943H173.431C173.75 81.8018 174.236 81.2455 174.887 80.8253C175.538 80.3991 176.378 80.1861 177.408 80.1861C178.331 80.1861 179.139 80.3755 179.832 80.7543C180.524 81.1271 181.063 81.6953 181.448 82.4588C181.832 83.2164 182.025 84.1752 182.025 85.3352V94H179.929V85.4773C179.929 84.406 179.651 83.5715 179.095 82.9737C178.539 82.37 177.775 82.0682 176.804 82.0682C176.136 82.0682 175.538 82.2132 175.011 82.5032C174.49 82.7932 174.079 83.2164 173.777 83.7727C173.475 84.3291 173.324 85.0038 173.324 85.7969ZM191.002 94.2841C189.866 94.2841 188.863 93.997 187.993 93.4229C187.123 92.8429 186.442 92.0262 185.951 90.9727C185.46 89.9132 185.214 88.6615 185.214 87.2173C185.214 85.785 185.46 84.5421 185.951 83.4886C186.442 82.4351 187.126 81.6213 188.002 81.0472C188.878 80.4731 189.89 80.1861 191.038 80.1861C191.926 80.1861 192.627 80.334 193.142 80.63C193.663 80.92 194.059 81.2514 194.331 81.6243C194.61 81.9912 194.826 82.2931 194.98 82.5298H195.157V75.8182H197.252V94H195.228V91.9048H194.98C194.826 92.1534 194.607 92.4671 194.323 92.8459C194.039 93.2187 193.633 93.5531 193.106 93.8491C192.58 94.1391 191.878 94.2841 191.002 94.2841ZM191.286 92.402C192.127 92.402 192.837 92.183 193.417 91.745C193.997 91.3011 194.438 90.6886 194.74 89.9073C195.042 89.1201 195.193 88.2116 195.193 87.1818C195.193 86.1638 195.045 85.2731 194.749 84.5096C194.453 83.7402 194.015 83.1424 193.435 82.7163C192.855 82.2842 192.139 82.0682 191.286 82.0682C190.399 82.0682 189.659 82.296 189.067 82.7518C188.481 83.2016 188.04 83.8142 187.744 84.5895C187.454 85.3589 187.309 86.223 187.309 87.1818C187.309 88.1525 187.457 89.0343 187.753 89.8274C188.055 90.6146 188.499 91.242 189.085 91.7095C189.677 92.1712 190.41 92.402 191.286 92.402ZM203.476 75.8182V94H201.381V75.8182H203.476ZM208.663 99.1136C208.307 99.1136 207.991 99.084 207.713 99.0249C207.434 98.9716 207.242 98.9183 207.136 98.8651L207.668 97.0185C208.177 97.1487 208.627 97.196 209.018 97.1605C209.408 97.125 209.755 96.9504 210.056 96.6367C210.364 96.329 210.645 95.8288 210.9 95.1364L211.29 94.071L206.248 80.3636H208.521L212.285 91.2301H212.427L216.191 80.3636H218.464L212.675 95.9886C212.415 96.6929 212.092 97.2759 211.708 97.7376C211.323 98.2051 210.876 98.5514 210.367 98.7763C209.864 99.0012 209.296 99.1136 208.663 99.1136ZM221.513 94V75.8182H232.415V77.7713H223.715V83.9148H231.598V85.8679H223.715V94H221.513ZM240.618 94.2841C239.304 94.2841 238.171 93.9941 237.218 93.4141C236.271 92.8281 235.54 92.0114 235.025 90.9638C234.516 89.9103 234.262 88.6851 234.262 87.2884C234.262 85.8916 234.516 84.6605 235.025 83.5952C235.54 82.5239 236.256 81.6894 237.174 81.0916C238.097 80.4879 239.174 80.1861 240.405 80.1861C241.116 80.1861 241.817 80.3045 242.509 80.5412C243.202 80.7779 243.832 81.1626 244.4 81.6953C244.968 82.2221 245.421 82.9205 245.759 83.7905C246.096 84.6605 246.265 85.7318 246.265 87.0043V87.892H235.753V86.081H244.134C244.134 85.3116 243.98 84.625 243.672 84.0213C243.37 83.4176 242.938 82.9412 242.376 82.592C241.82 82.2428 241.163 82.0682 240.405 82.0682C239.571 82.0682 238.849 82.2753 238.239 82.6896C237.635 83.098 237.171 83.6307 236.845 84.2876C236.52 84.9446 236.357 85.6489 236.357 86.4006V87.608C236.357 88.6378 236.535 89.5108 236.89 90.2269C237.251 90.9371 237.751 91.4787 238.39 91.8516C239.029 92.2185 239.772 92.402 240.618 92.402C241.169 92.402 241.666 92.325 242.11 92.1712C242.56 92.0114 242.947 91.7746 243.273 91.4609C243.598 91.1413 243.85 90.7448 244.027 90.2713L246.052 90.8395C245.839 91.526 245.48 92.1297 244.977 92.6506C244.474 93.1655 243.853 93.5679 243.113 93.858C242.373 94.142 241.542 94.2841 240.618 94.2841ZM253.465 94.3196C252.6 94.3196 251.816 94.1568 251.112 93.8313C250.408 93.4999 249.848 93.0234 249.434 92.402C249.02 91.7746 248.813 91.017 248.813 90.1293C248.813 89.348 248.966 88.7147 249.274 88.2294C249.582 87.7382 249.993 87.3535 250.508 87.0753C251.023 86.7971 251.591 86.59 252.213 86.4538C252.84 86.3118 253.47 86.1993 254.104 86.1165C254.932 86.0099 255.604 85.93 256.119 85.8768C256.64 85.8176 257.019 85.7199 257.255 85.5838C257.498 85.4477 257.619 85.2109 257.619 84.8736V84.8026C257.619 83.9266 257.38 83.246 256.9 82.7607C256.427 82.2753 255.708 82.0327 254.743 82.0327C253.743 82.0327 252.959 82.2517 252.39 82.6896C251.822 83.1276 251.423 83.5952 251.192 84.0923L249.203 83.3821C249.558 82.5535 250.032 81.9084 250.624 81.4467C251.221 80.9792 251.872 80.6536 252.577 80.4702C253.287 80.2808 253.985 80.1861 254.672 80.1861C255.11 80.1861 255.613 80.2393 256.181 80.3459C256.755 80.4465 257.309 80.6566 257.841 80.9762C258.38 81.2958 258.827 81.7782 259.182 82.4233C259.537 83.0684 259.715 83.9325 259.715 85.0156V94H257.619V92.1534H257.513C257.371 92.4493 257.134 92.766 256.803 93.1033C256.471 93.4407 256.03 93.7277 255.48 93.9645C254.929 94.2012 254.258 94.3196 253.465 94.3196ZM253.784 92.4375C254.613 92.4375 255.311 92.2747 255.879 91.9492C256.453 91.6237 256.886 91.2035 257.176 90.6886C257.471 90.1737 257.619 89.6321 257.619 89.0639V87.1463C257.531 87.2528 257.335 87.3505 257.033 87.4393C256.738 87.5221 256.394 87.5961 256.004 87.6612C255.619 87.7204 255.243 87.7737 254.876 87.821C254.515 87.8625 254.222 87.898 253.997 87.9276C253.453 87.9986 252.944 88.114 252.47 88.2738C252.003 88.4277 251.624 88.6615 251.334 88.9751C251.05 89.2829 250.908 89.7031 250.908 90.2358C250.908 90.9638 251.177 91.5142 251.716 91.8871C252.26 92.254 252.95 92.4375 253.784 92.4375ZM269.469 80.3636V82.1392H262.402V80.3636H269.469ZM264.462 77.0966H266.557V90.0938C266.557 90.6856 266.643 91.1295 266.815 91.4254C266.992 91.7154 267.217 91.9107 267.489 92.0114C267.768 92.1061 268.06 92.1534 268.368 92.1534C268.599 92.1534 268.788 92.1416 268.936 92.1179C269.084 92.0883 269.203 92.0646 269.292 92.0469L269.718 93.929C269.576 93.9822 269.377 94.0355 269.123 94.0888C268.868 94.148 268.546 94.1776 268.155 94.1776C267.563 94.1776 266.983 94.0503 266.415 93.7958C265.853 93.5413 265.385 93.1536 265.012 92.6328C264.645 92.112 264.462 91.455 264.462 90.6619V77.0966ZM275.009 85.7969V94H272.914V75.8182H275.009V82.4943H275.186C275.506 81.79 275.985 81.2307 276.625 80.8164C277.27 80.3962 278.128 80.1861 279.199 80.1861C280.128 80.1861 280.942 80.3725 281.641 80.7454C282.339 81.1123 282.881 81.6776 283.265 82.4411C283.656 83.1986 283.851 84.1634 283.851 85.3352V94H281.756V85.4773C281.756 84.3942 281.475 83.5567 280.913 82.9648C280.356 82.3671 279.584 82.0682 278.596 82.0682C277.909 82.0682 277.293 82.2132 276.749 82.5032C276.21 82.7932 275.784 83.2164 275.471 83.7727C275.163 84.3291 275.009 85.0038 275.009 85.7969ZM293.402 94.2841C292.088 94.2841 290.954 93.9941 290.001 93.4141C289.054 92.8281 288.323 92.0114 287.809 90.9638C287.3 89.9103 287.045 88.6851 287.045 87.2884C287.045 85.8916 287.3 84.6605 287.809 83.5952C288.323 82.5239 289.04 81.6894 289.957 81.0916C290.88 80.4879 291.957 80.1861 293.188 80.1861C293.899 80.1861 294.6 80.3045 295.293 80.5412C295.985 80.7779 296.615 81.1626 297.184 81.6953C297.752 82.2221 298.204 82.9205 298.542 83.7905C298.879 84.6605 299.048 85.7318 299.048 87.0043V87.892H288.536V86.081H296.917C296.917 85.3116 296.763 84.625 296.456 84.0213C296.154 83.4176 295.722 82.9412 295.159 82.592C294.603 82.2428 293.946 82.0682 293.188 82.0682C292.354 82.0682 291.632 82.2753 291.022 82.6896C290.419 83.098 289.954 83.6307 289.628 84.2876C289.303 84.9446 289.14 85.6489 289.14 86.4006V87.608C289.14 88.6378 289.318 89.5108 289.673 90.2269C290.034 90.9371 290.534 91.4787 291.173 91.8516C291.812 92.2185 292.555 92.402 293.402 92.402C293.952 92.402 294.449 92.325 294.893 92.1712C295.343 92.0114 295.73 91.7746 296.056 91.4609C296.382 91.1413 296.633 90.7448 296.811 90.2713L298.835 90.8395C298.622 91.526 298.264 92.1297 297.761 92.6506C297.257 93.1655 296.636 93.5679 295.896 93.858C295.156 94.142 294.325 94.2841 293.402 94.2841ZM302.235 94V80.3636H304.259V82.4233H304.401C304.65 81.7486 305.1 81.2011 305.751 80.7809C306.402 80.3607 307.136 80.1506 307.952 80.1506C308.106 80.1506 308.299 80.1535 308.529 80.1594C308.76 80.1654 308.935 80.1742 309.053 80.1861V82.3168C308.982 82.299 308.819 82.2724 308.565 82.2369C308.316 82.1954 308.053 82.1747 307.775 82.1747C307.112 82.1747 306.52 82.3138 305.999 82.592C305.484 82.8642 305.076 83.243 304.774 83.7283C304.478 84.2077 304.33 84.7552 304.33 85.3707V94H302.235ZM321.196 83.4176L319.314 83.9503C319.195 83.6366 319.021 83.3318 318.79 83.0359C318.565 82.734 318.257 82.4854 317.867 82.2901C317.476 82.0948 316.976 81.9972 316.366 81.9972C315.532 81.9972 314.836 82.1895 314.28 82.5742C313.73 82.953 313.454 83.4354 313.454 84.0213C313.454 84.5421 313.644 84.9535 314.023 85.2553C314.401 85.5572 314.993 85.8087 315.798 86.0099L317.822 86.5071C319.041 86.803 319.95 87.2558 320.548 87.8654C321.146 88.4691 321.444 89.2474 321.444 90.2003C321.444 90.9815 321.22 91.6799 320.77 92.2955C320.326 92.911 319.704 93.3963 318.905 93.7514C318.106 94.1065 317.177 94.2841 316.118 94.2841C314.727 94.2841 313.576 93.9822 312.664 93.3786C311.753 92.7749 311.176 91.893 310.933 90.733L312.922 90.2358C313.111 90.9697 313.469 91.5201 313.996 91.8871C314.529 92.254 315.224 92.4375 316.082 92.4375C317.059 92.4375 317.834 92.2304 318.408 91.8161C318.988 91.3958 319.278 90.8928 319.278 90.3068C319.278 89.8333 319.113 89.4368 318.781 89.1172C318.45 88.7917 317.941 88.549 317.254 88.3892L314.981 87.8565C313.733 87.5606 312.815 87.1019 312.229 86.4805C311.649 85.8531 311.359 85.0689 311.359 84.1278C311.359 83.3584 311.575 82.6778 312.007 82.0859C312.445 81.4941 313.04 81.0295 313.792 80.6921C314.549 80.3548 315.407 80.1861 316.366 80.1861C317.716 80.1861 318.775 80.482 319.545 81.0739C320.32 81.6657 320.87 82.447 321.196 83.4176Z" fill="#DD00A9"/>
<path fill-rule="evenodd" clip-rule="evenodd" d="M366 36.6667C366 35.1939 367.194 34 368.667 34H385.333C386.806 34 388 35.1939 388 36.6667V42.6667C388 44.1394 386.806 45.3333 385.333 45.3333H368.667C367.194 45.3333 366 44.1394 366 42.6667V36.6667Z" stroke="#2F2E2E"/>
<path d="M389 37.667V41.667C389.805 41.3282 390.328 40.5401 390.328 39.667C390.328 38.7939 389.805 38.0058 389 37.667" stroke="#2F2E2E"/>
<path d="M368 37.3333C368 36.597 368.597 36 369.333 36H384.667C385.403 36 386 36.597 386 37.3333V42C386 42.7364 385.403 43.3333 384.667 43.3333H369.333C368.597 43.3333 368 42.7364 368 42V37.3333Z" stroke="#2F2E2E"/>
<path d="M337 41.6665H338C338.552 41.6665 339 42.1142 339 42.6665V44.6665C339 45.2188 338.552 45.6665 338 45.6665H337C336.448 45.6665 336 45.2188 336 44.6665V42.6665C336 42.1142 336.448 41.6665 337 41.6665Z" stroke="#2F2E2E"/>
<path d="M341.666 39.6665H342.666C343.218 39.6665 343.666 40.1142 343.666 40.6665V44.6665C343.666 45.2188 343.218 45.6665 342.666 45.6665H341.666C341.114 45.6665 340.666 45.2188 340.666 44.6665V40.6665C340.666 40.1142 341.114 39.6665 341.666 39.6665Z" stroke="#2F2E2E"/>
<path d="M346.334 37.3335H347.334C347.886 37.3335 348.334 37.7812 348.334 38.3335V44.6668C348.334 45.2191 347.886 45.6668 347.334 45.6668H346.334C345.782 45.6668 345.334 45.2191 345.334 44.6668V38.3335C345.334 37.7812 345.782 37.3335 346.334 37.3335Z" stroke="#2F2E2E"/>
<path d="M351 35H352C352.552 35 353 35.4477 353 36V44.6667C353 45.219 352.552 45.6667 352 45.6667H351C350.448 45.6667 350 45.219 350 44.6667V36C350 35.4477 350.448 35 351 35V35Z" stroke="#2F2E2E"/>
<path d="M52.3418 42.7628V41.6761L57.1359 34.0909H57.9242V35.7741H57.3916L53.7694 41.5057V41.5909H60.2254V42.7628H52.3418ZM57.4768 45V42.4325V41.9265V34.0909H58.7339V45H57.4768ZM63.159 43.6044C62.8963 43.6044 62.6708 43.5103 62.4826 43.3221C62.2943 43.1339 62.2002 42.9084 62.2002 42.6456C62.2002 42.3828 62.2943 42.1573 62.4826 41.9691C62.6708 41.7809 62.8963 41.6868 63.159 41.6868C63.4218 41.6868 63.6473 41.7809 63.8355 41.9691C64.0237 42.1573 64.1179 42.3828 64.1179 42.6456C64.1179 42.8196 64.0735 42.9794 63.9847 43.125C63.8995 43.2706 63.784 43.3878 63.6385 43.4766C63.4964 43.5618 63.3366 43.6044 63.159 43.6044ZM63.159 38.0859C62.8963 38.0859 62.6708 37.9918 62.4826 37.8036C62.2943 37.6154 62.2002 37.3899 62.2002 37.1271C62.2002 36.8643 62.2943 36.6388 62.4826 36.4506C62.6708 36.2624 62.8963 36.1683 63.159 36.1683C63.4218 36.1683 63.6473 36.2624 63.8355 36.4506C64.0237 36.6388 64.1179 36.8643 64.1179 37.1271C64.1179 37.3011 64.0735 37.4609 63.9847 37.6065C63.8995 37.7521 63.784 37.8693 63.6385 37.9581C63.4964 38.0433 63.3366 38.0859 63.159 38.0859ZM66.3524 45V44.0412L69.9533 40.0994C70.3758 39.6378 70.7239 39.2365 70.9973 38.8956C71.2707 38.5511 71.4731 38.228 71.6045 37.9261C71.7395 37.6207 71.807 37.3011 71.807 36.9673C71.807 36.5838 71.7146 36.2518 71.53 35.9712C71.3489 35.6907 71.1003 35.4741 70.7842 35.3214C70.4682 35.1687 70.1131 35.0923 69.7189 35.0923C69.2998 35.0923 68.9341 35.1793 68.6216 35.3533C68.3126 35.5238 68.0729 35.7635 67.9025 36.0724C67.7356 36.3814 67.6521 36.7436 67.6521 37.1591H66.395C66.395 36.5199 66.5424 35.9588 66.8371 35.4759C67.1319 34.9929 67.5332 34.6165 68.041 34.3466C68.5523 34.0767 69.1258 33.9418 69.7615 33.9418C70.4007 33.9418 70.9671 34.0767 71.4607 34.3466C71.9543 34.6165 72.3414 34.9805 72.6219 35.4386C72.9025 35.8967 73.0427 36.4062 73.0427 36.9673C73.0427 37.3686 72.9699 37.761 72.8244 38.1445C72.6823 38.5245 72.4337 38.9489 72.0786 39.4176C71.7271 39.8828 71.2388 40.451 70.6138 41.1222L68.1635 43.7429V43.8281H73.2345V45H66.3524ZM79.0566 45.1491C78.6092 45.142 78.1617 45.0568 77.7143 44.8935C77.2668 44.7301 76.8584 44.4549 76.4891 44.0678C76.1198 43.6772 75.8233 43.1499 75.5996 42.4858C75.3758 41.8182 75.264 40.9801 75.264 39.9716C75.264 39.0057 75.3545 38.1499 75.5356 37.4041C75.7168 36.6548 75.9795 36.0245 76.324 35.5131C76.6685 34.9982 77.0839 34.6076 77.5704 34.3413C78.0605 34.0749 78.6127 33.9418 79.2271 33.9418C79.8378 33.9418 80.3812 34.0643 80.857 34.3093C81.3364 34.5508 81.7271 34.8881 82.0289 35.3214C82.3307 35.7546 82.5261 36.2536 82.6148 36.8182H81.3151C81.1944 36.3281 80.96 35.9215 80.612 35.5984C80.264 35.2752 79.8023 35.1136 79.2271 35.1136C78.3819 35.1136 77.716 35.4812 77.2295 36.2163C76.7466 36.9513 76.5033 37.983 76.4998 39.3111H76.585C76.7839 39.0092 77.02 38.7518 77.2935 38.5387C77.5704 38.3221 77.8758 38.1552 78.2097 38.038C78.5435 37.9208 78.8968 37.8622 79.2697 37.8622C79.8947 37.8622 80.4664 38.0185 80.9849 38.331C81.5033 38.6399 81.9188 39.0678 82.2313 39.6147C82.5438 40.158 82.7001 40.7812 82.7001 41.4844C82.7001 42.1591 82.5491 42.777 82.2473 43.3381C81.9454 43.8956 81.5211 44.3395 80.9742 44.6697C80.4309 44.9964 79.7917 45.1562 79.0566 45.1491ZM79.0566 43.9773C79.504 43.9773 79.9053 43.8654 80.2604 43.6417C80.6191 43.418 80.9014 43.1179 81.1074 42.7415C81.3169 42.3651 81.4217 41.946 81.4217 41.4844C81.4217 41.0334 81.3204 40.6232 81.118 40.2539C80.9192 39.881 80.644 39.5845 80.2924 39.3643C79.9444 39.1442 79.5467 39.0341 79.0992 39.0341C78.7619 39.0341 78.4476 39.1016 78.1564 39.2365C77.8652 39.3679 77.6095 39.549 77.3893 39.7798C77.1727 40.0107 77.0023 40.2752 76.878 40.5735C76.7537 40.8683 76.6915 41.179 76.6915 41.5057C76.6915 41.9389 76.7927 42.3437 76.9952 42.7202C77.2011 43.0966 77.4817 43.4002 77.8368 43.631C78.1954 43.8619 78.6021 43.9773 79.0566 43.9773ZM84.9866 45V34.0909H88.6726C89.5285 34.0909 90.228 34.2454 90.7714 34.5543C91.3182 34.8597 91.7231 35.2734 91.9858 35.7955C92.2486 36.3175 92.38 36.8999 92.38 37.5426C92.38 38.1854 92.2486 38.7695 91.9858 39.2951C91.7266 39.8207 91.3253 40.2397 90.782 40.5522C90.2387 40.8612 89.5427 41.0156 88.6939 41.0156H86.0519V39.8438H88.6513C89.2373 39.8438 89.7078 39.7425 90.0629 39.5401C90.418 39.3377 90.6755 39.0643 90.8353 38.7198C90.9986 38.3718 91.0803 37.9794 91.0803 37.5426C91.0803 37.1058 90.9986 36.7152 90.8353 36.3707C90.6755 36.0263 90.4162 35.7564 90.0576 35.5611C89.6989 35.3622 89.2231 35.2628 88.63 35.2628H86.3076V45H84.9866ZM94.508 34.0909H96.0847L99.7921 43.1463H99.92L103.627 34.0909H105.204V45H103.968V36.7116H103.862L100.453 45H99.2595L95.8504 36.7116H95.7438V45H94.508V34.0909Z" fill="#2F2E2E"/>
<path d="M413.349 90.4242C413.349 95.9052 408.905 100.348 403.424 100.348C397.943 100.348 393.5 95.9052 393.5 90.4242C393.5 84.9432 397.943 80.5 403.424 80.5C408.905 80.5 413.349 84.9432 413.349 90.4242Z" fill="white" stroke="#2F2E2E"/>
<path d="M416.101 103.808C416.296 104.003 416.613 104.003 416.808 103.808C417.003 103.613 417.003 103.296 416.808 103.101L416.101 103.808ZM416.808 103.101L410.944 97.2373L410.237 97.9444L416.101 103.808L416.808 103.101Z" fill="#2F2E2E"/>
<path d="M304.358 155.955V137.773H308.562V139.165H305.949V154.562H308.562V155.955H304.358ZM312.03 142.091L314.644 146.551L317.257 142.091H319.189L315.667 147.545L319.189 153H317.257L314.644 148.767L312.03 153H310.098L313.564 147.545L310.098 142.091H312.03ZM324.933 137.773V155.955H320.729V154.562H323.342V139.165H320.729V137.773H324.933ZM329.651 155.955V137.773H333.855V139.165H331.242V154.562H333.855V155.955H329.651ZM337.323 142.091L339.937 146.551L342.55 142.091H344.482L340.96 147.545L344.482 153H342.55L339.937 148.767L337.323 153H335.391L338.857 147.545L335.391 142.091H337.323ZM350.226 137.773V155.955H346.022V154.562H348.635V139.165H346.022V137.773H350.226ZM354.944 155.955V137.773H359.148V139.165H356.535V154.562H359.148V155.955H354.944ZM362.616 142.091L365.23 146.551L367.843 142.091H369.775L366.252 147.545L369.775 153H367.843L365.23 148.767L362.616 153H360.684L364.15 147.545L360.684 142.091H362.616ZM375.519 137.773V155.955H371.315V154.562H373.928V139.165H371.315V137.773H375.519ZM380.237 155.955V137.773H384.441V139.165H381.828V154.562H384.441V155.955H380.237ZM387.909 142.091L390.523 146.551L393.136 142.091H395.068L391.545 147.545L395.068 153H393.136L390.523 148.767L387.909 153H385.977L389.443 147.545L385.977 142.091H387.909ZM400.812 137.773V155.955H396.608V154.562H399.221V139.165H396.608V137.773H400.812ZM405.53 155.955V137.773H409.734V139.165H407.121V154.562H409.734V155.955H405.53ZM413.202 142.091L415.816 146.551L418.429 142.091H420.361L416.838 147.545L420.361 153H418.429L415.816 148.767L413.202 153H411.27L414.736 147.545L411.27 142.091H413.202ZM426.105 137.773V155.955H421.901V154.562H424.514V139.165H421.901V137.773H426.105Z" fill="black"/>
<g clip-path="url(#clip1_1543_11226)" filter="url(#filter0_i_1543_11226)">
<rect width="440" height="56" transform="translate(0 900)" fill="#F9F9F9"/>
<g filter="url(#filter1_d_1543_11226)">
<path d="M48 941.334V928H56V941.334M40 924L52 914.667L64 924V938.667C64 939.374 63.719 940.053 63.219 940.553C62.7189 941.053 62.0406 941.334 61.3333 941.334H42.6667C41.9594 941.334 41.2811 941.053 40.781 940.553C40.281 940.053 40 939.374 40 938.667V924Z" stroke="#2F2E2E" stroke-width="3" stroke-linecap="round" stroke-linejoin="round"/>
</g>
<g filter="url(#filter2_d_1543_11226)">
<path d="M48 941.334V928H56V941.334M40 924L52 914.667L64 924V938.667C64 939.374 63.719 940.053 63.219 940.553C62.7189 941.053 62.0406 941.334 61.3333 941.334H42.6667C41.9594 941.334 41.2811 941.053 40.781 940.553C40.281 940.053 40 939.374 40 938.667V924Z" stroke="#2F2E2E" stroke-width="3" stroke-linecap="round" stroke-linejoin="round"/>
</g>
<g filter="url(#filter3_d_1543_11226)">
<path d="M163.252 912V944" stroke="#2F2E2E" stroke-width="13.9"/>
<path d="M180 928.299L148 928.299" stroke="#2F2E2E" stroke-width="13.9"/>
</g>
<g filter="url(#filter4_d_1543_11226)">
<path d="M266.537 940.702C269.794 940.601 275.661 939.882 278.289 937.808C280.186 936.311 282.455 934.629 284.655 933.637" stroke="#2F2E2E" stroke-width="3" stroke-linecap="round"/>
<path d="M275.352 934.52C280.292 933.883 287.271 930.245 289.552 926.13" stroke="#2F2E2E" stroke-width="3" stroke-linecap="round"/>
<path d="M282.207 927.455C285.292 924.926 292 923.863 292 919.507" stroke="#2F2E2E" stroke-width="3" stroke-linecap="round"/>
<path d="M286.124 919.507C286.905 919.419 286.95 916.047 287.131 915.312C287.472 913.925 289.491 912.993 290.041 912" stroke="#2F2E2E" stroke-width="3" stroke-linecap="round"/>
<path d="M261.641 936.728C261.208 933.218 260.395 929.26 262.13 926.13" stroke="#2F2E2E" stroke-width="3" stroke-linecap="round"/>
<path d="M266.048 930.546C267.887 928.68 268.194 925.7 269.476 923.677C270.358 922.284 270.693 920.283 272.414 919.507" stroke="#2F2E2E" stroke-width="3" stroke-linecap="round"/>
<path d="M274.372 922.598C274.372 921.389 275.88 918.248 276.929 917.397C278.765 915.907 280.263 915.974 282.696 915.974" stroke="#2F2E2E" stroke-width="3" stroke-linecap="round"/>
<path d="M283.061 920.583L260 944" stroke="#2F2E2E" stroke-width="3" stroke-linecap="round"/>
</g>
<g filter="url(#filter5_d_1543_11226)">
<circle cx="388" cy="928" r="14.5" fill="#FAF8FA" stroke="#2F2E2E" stroke-width="3"/>
<path d="M388.533 922.347V933.76" stroke="#2F2E2E" stroke-width="3"/>
<path d="M394.507 928.16L383.094 928.16" stroke="#2F2E2E" stroke-width="3"/>
</g>
</g>
<rect x="7" y="134" width="248" height="20" rx="10" fill="#D0D0D0"/>
<rect x="34" y="402" width="363" height="20" rx="10" fill="#D0D0D0"/>
<rect x="34" y="438" width="259" height="20" rx="10" fill="#D0D0D0"/>
<rect x="34" y="472" width="259" height="20" rx="10" fill="#D0D0D0"/>
<rect x="34" y="510" width="201" height="20" rx="10" fill="#D0D0D0"/>
</g>
<defs>
<filter id="filter0_i_1543_11226" x="0" y="900" width="440" height="60" filterUnits="userSpaceOnUse" color-interpolation-filters="sRGB">
<feFlood flood-opacity="0" result="BackgroundImageFix"/>
<feBlend mode="normal" in="SourceGraphic" in2="BackgroundImageFix" result="shape"/>
<feColorMatrix in="SourceAlpha" type="matrix" values="0 0 0 0 0 0 0 0 0 0 0 0 0 0 0 0 0 0 127 0" result="hardAlpha"/>
<feOffset dy="5"/>
<feGaussianBlur stdDeviation="2"/>
<feComposite in2="hardAlpha" operator="arithmetic" k2="-1" k3="1"/>
<feColorMatrix type="matrix" values="0 0 0 0 0.770833 0 0 0 0 0.631441 0 0 0 0 0.722046 0 0 0 0.5 0"/>
<feBlend mode="normal" in2="shape" result="effect1_innerShadow_1543_11226"/>
</filter>
<filter id="filter1_d_1543_11226" x="31" y="912" width="42" height="44" filterUnits="userSpaceOnUse" color-interpolation-filters="sRGB">
<feFlood flood-opacity="0" result="BackgroundImageFix"/>
<feColorMatrix in="SourceAlpha" type="matrix" values="0 0 0 0 0 0 0 0 0 0 0 0 0 0 0 0 0 0 127 0" result="hardAlpha"/>
<feOffset dy="7"/>
<feGaussianBlur stdDeviation="2.5"/>
<feComposite in2="hardAlpha" operator="out"/>
<feColorMatrix type="matrix" values="0 0 0 0 0.770833 0 0 0 0 0.631441 0 0 0 0 0.722046 0 0 0 1 0"/>
<feBlend mode="normal" in2="BackgroundImageFix" result="effect1_dropShadow_1543_11226"/>
<feBlend mode="normal" in="SourceGraphic" in2="effect1_dropShadow_1543_11226" result="shape"/>
</filter>
<filter id="filter2_d_1543_11226" x="31" y="912" width="42" height="44" filterUnits="userSpaceOnUse" color-interpolation-filters="sRGB">
<feFlood flood-opacity="0" result="BackgroundImageFix"/>
<feColorMatrix in="SourceAlpha" type="matrix" values="0 0 0 0 0 0 0 0 0 0 0 0 0 0 0 0 0 0 127 0" result="hardAlpha"/>
<feOffset dy="7"/>
<feGaussianBlur stdDeviation="2.5"/>
<feComposite in2="hardAlpha" operator="out"/>
<feColorMatrix type="matrix" values="0 0 0 0 0.770833 0 0 0 0 0.631441 0 0 0 0 0.722046 0 0 0 1 0"/>
<feBlend mode="normal" in2="BackgroundImageFix" result="effect1_dropShadow_1543_11226"/>
<feBlend mode="normal" in="SourceGraphic" in2="effect1_dropShadow_1543_11226" result="shape"/>
</filter>
<filter id="filter3_d_1543_11226" x="143" y="912" width="42" height="44" filterUnits="userSpaceOnUse" color-interpolation-filters="sRGB">
<feFlood flood-opacity="0" result="BackgroundImageFix"/>
<feColorMatrix in="SourceAlpha" type="matrix" values="0 0 0 0 0 0 0 0 0 0 0 0 0 0 0 0 0 0 127 0" result="hardAlpha"/>
<feOffset dy="7"/>
<feGaussianBlur stdDeviation="2.5"/>
<feComposite in2="hardAlpha" operator="out"/>
<feColorMatrix type="matrix" values="0 0 0 0 0.770833 0 0 0 0 0.631441 0 0 0 0 0.722046 0 0 0 1 0"/>
<feBlend mode="normal" in2="BackgroundImageFix" result="effect1_dropShadow_1543_11226"/>
<feBlend mode="normal" in="SourceGraphic" in2="effect1_dropShadow_1543_11226" result="shape"/>
</filter>
<filter id="filter4_d_1543_11226" x="253.425" y="910.5" width="45.0747" height="46.9224" filterUnits="userSpaceOnUse" color-interpolation-filters="sRGB">
<feFlood flood-opacity="0" result="BackgroundImageFix"/>
<feColorMatrix in="SourceAlpha" type="matrix" values="0 0 0 0 0 0 0 0 0 0 0 0 0 0 0 0 0 0 127 0" result="hardAlpha"/>
<feOffset dy="7"/>
<feGaussianBlur stdDeviation="2.5"/>
<feComposite in2="hardAlpha" operator="out"/>
<feColorMatrix type="matrix" values="0 0 0 0 0.770833 0 0 0 0 0.631441 0 0 0 0 0.722046 0 0 0 1 0"/>
<feBlend mode="normal" in2="BackgroundImageFix" result="effect1_dropShadow_1543_11226"/>
<feBlend mode="normal" in="SourceGraphic" in2="effect1_dropShadow_1543_11226" result="shape"/>
</filter>
<filter id="filter5_d_1543_11226" x="367" y="912" width="42" height="44" filterUnits="userSpaceOnUse" color-interpolation-filters="sRGB">
<feFlood flood-opacity="0" result="BackgroundImageFix"/>
<feColorMatrix in="SourceAlpha" type="matrix" values="0 0 0 0 0 0 0 0 0 0 0 0 0 0 0 0 0 0 127 0" result="hardAlpha"/>
<feOffset dy="7"/>
<feGaussianBlur stdDeviation="2.5"/>
<feComposite in2="hardAlpha" operator="out"/>
<feColorMatrix type="matrix" values="0 0 0 0 0.770833 0 0 0 0 0.631441 0 0 0 0 0.722046 0 0 0 1 0"/>
<feBlend mode="normal" in2="BackgroundImageFix" result="effect1_dropShadow_1543_11226"/>
<feBlend mode="normal" in="SourceGraphic" in2="effect1_dropShadow_1543_11226" result="shape"/>
</filter>
<clipPath id="clip0_1543_11226">
<rect width="440" height="956" fill="white"/>
</clipPath>
<clipPath id="clip1_1543_11226">
<rect width="440" height="56" fill="white" transform="translate(0 900)"/>
</clipPath>
</defs>
</svg>
