<svg width="440" height="956" viewBox="0 0 440 956" fill="none" xmlns="http://www.w3.org/2000/svg">
<g clip-path="url(#clip0_1516_13299)">
<rect width="440" height="956" fill="white"/>
<rect x="0.5" y="0.5" width="439" height="955" fill="white" stroke="#2F2E2E"/>
<rect x="0.5" y="216.5" width="439" height="99" fill="white" stroke="#2F2E2E"/>
<rect x="0.5" y="426.5" width="439" height="99" fill="white" stroke="#2F2E2E"/>
<rect x="0.5" y="636.5" width="439" height="99" fill="white" stroke="#2F2E2E"/>
<rect x="0.5" y="846.5" width="439" height="99" fill="white" stroke="#2F2E2E"/>
<circle cx="67" cy="161" r="40" fill="#B3B3B3"/>
<circle cx="67" cy="266" r="40" fill="#B3B3B3"/>
<circle cx="67" cy="371" r="40" fill="#B3B3B3"/>
<circle cx="67" cy="476" r="40" fill="#B3B3B3"/>
<circle cx="67" cy="581" r="40" fill="#B3B3B3"/>
<circle cx="67" cy="686" r="40" fill="#B3B3B3"/>
<circle cx="67" cy="791" r="40" fill="#B3B3B3"/>
<circle cx="67" cy="896" r="40" fill="#B3B3B3"/>
<rect x="0.5" y="0.5" width="439" height="105" fill="white" stroke="#2F2E2E"/>
<path fill-rule="evenodd" clip-rule="evenodd" d="M366 33.6667C366 32.1939 367.194 31 368.667 31H385.333C386.806 31 388 32.1939 388 33.6667V39.6667C388 41.1394 386.806 42.3333 385.333 42.3333H368.667C367.194 42.3333 366 41.1394 366 39.6667V33.6667Z" stroke="#2F2E2E"/>
<path d="M389 34.667V38.667C389.805 38.3282 390.328 37.5401 390.328 36.667C390.328 35.7939 389.805 35.0058 389 34.667" stroke="#2F2E2E"/>
<path d="M368 34.3333C368 33.597 368.597 33 369.333 33H384.667C385.403 33 386 33.597 386 34.3333V39C386 39.7364 385.403 40.3333 384.667 40.3333H369.333C368.597 40.3333 368 39.7364 368 39V34.3333Z" stroke="#2F2E2E"/>
<path d="M337 38.6665H338C338.552 38.6665 339 39.1142 339 39.6665V41.6665C339 42.2188 338.552 42.6665 338 42.6665H337C336.448 42.6665 336 42.2188 336 41.6665V39.6665C336 39.1142 336.448 38.6665 337 38.6665Z" stroke="#2F2E2E"/>
<path d="M341.667 36.6665H342.667C343.219 36.6665 343.667 37.1142 343.667 37.6665V41.6665C343.667 42.2188 343.219 42.6665 342.667 42.6665H341.667C341.115 42.6665 340.667 42.2188 340.667 41.6665V37.6665C340.667 37.1142 341.115 36.6665 341.667 36.6665Z" stroke="#2F2E2E"/>
<path d="M346.333 34.3335H347.333C347.885 34.3335 348.333 34.7812 348.333 35.3335V41.6668C348.333 42.2191 347.885 42.6668 347.333 42.6668H346.333C345.781 42.6668 345.333 42.2191 345.333 41.6668V35.3335C345.333 34.7812 345.781 34.3335 346.333 34.3335Z" stroke="#2F2E2E"/>
<path d="M351 32H352C352.552 32 353 32.4477 353 33V41.6667C353 42.219 352.552 42.6667 352 42.6667H351C350.448 42.6667 350 42.219 350 41.6667V33C350 32.4477 350.448 32 351 32V32Z" stroke="#2F2E2E"/>
<path d="M52.3418 39.7628V38.6761L57.1359 31.0909H57.9242V32.7741H57.3916L53.7694 38.5057V38.5909H60.2254V39.7628H52.3418ZM57.4768 42V39.4325V38.9265V31.0909H58.7339V42H57.4768ZM63.159 40.6044C62.8963 40.6044 62.6708 40.5103 62.4826 40.3221C62.2943 40.1339 62.2002 39.9084 62.2002 39.6456C62.2002 39.3828 62.2943 39.1573 62.4826 38.9691C62.6708 38.7809 62.8963 38.6868 63.159 38.6868C63.4218 38.6868 63.6473 38.7809 63.8355 38.9691C64.0237 39.1573 64.1179 39.3828 64.1179 39.6456C64.1179 39.8196 64.0735 39.9794 63.9847 40.125C63.8995 40.2706 63.784 40.3878 63.6385 40.4766C63.4964 40.5618 63.3366 40.6044 63.159 40.6044ZM63.159 35.0859C62.8963 35.0859 62.6708 34.9918 62.4826 34.8036C62.2943 34.6154 62.2002 34.3899 62.2002 34.1271C62.2002 33.8643 62.2943 33.6388 62.4826 33.4506C62.6708 33.2624 62.8963 33.1683 63.159 33.1683C63.4218 33.1683 63.6473 33.2624 63.8355 33.4506C64.0237 33.6388 64.1179 33.8643 64.1179 34.1271C64.1179 34.3011 64.0735 34.4609 63.9847 34.6065C63.8995 34.7521 63.784 34.8693 63.6385 34.9581C63.4964 35.0433 63.3366 35.0859 63.159 35.0859ZM66.3524 42V41.0412L69.9533 37.0994C70.3758 36.6378 70.7239 36.2365 70.9973 35.8956C71.2707 35.5511 71.4731 35.228 71.6045 34.9261C71.7395 34.6207 71.807 34.3011 71.807 33.9673C71.807 33.5838 71.7146 33.2518 71.53 32.9712C71.3489 32.6907 71.1003 32.4741 70.7842 32.3214C70.4682 32.1687 70.1131 32.0923 69.7189 32.0923C69.2998 32.0923 68.9341 32.1793 68.6216 32.3533C68.3126 32.5238 68.0729 32.7635 67.9025 33.0724C67.7356 33.3814 67.6521 33.7436 67.6521 34.1591H66.395C66.395 33.5199 66.5424 32.9588 66.8371 32.4759C67.1319 31.9929 67.5332 31.6165 68.041 31.3466C68.5523 31.0767 69.1258 30.9418 69.7615 30.9418C70.4007 30.9418 70.9671 31.0767 71.4607 31.3466C71.9543 31.6165 72.3414 31.9805 72.6219 32.4386C72.9025 32.8967 73.0427 33.4062 73.0427 33.9673C73.0427 34.3686 72.9699 34.761 72.8244 35.1445C72.6823 35.5245 72.4337 35.9489 72.0786 36.4176C71.7271 36.8828 71.2388 37.451 70.6138 38.1222L68.1635 40.7429V40.8281H73.2345V42H66.3524ZM79.0566 42.1491C78.6092 42.142 78.1617 42.0568 77.7143 41.8935C77.2668 41.7301 76.8584 41.4549 76.4891 41.0678C76.1198 40.6772 75.8233 40.1499 75.5996 39.4858C75.3758 38.8182 75.264 37.9801 75.264 36.9716C75.264 36.0057 75.3545 35.1499 75.5356 34.4041C75.7168 33.6548 75.9795 33.0245 76.324 32.5131C76.6685 31.9982 77.0839 31.6076 77.5704 31.3413C78.0605 31.0749 78.6127 30.9418 79.2271 30.9418C79.8378 30.9418 80.3812 31.0643 80.857 31.3093C81.3364 31.5508 81.7271 31.8881 82.0289 32.3214C82.3307 32.7546 82.5261 33.2536 82.6148 33.8182H81.3151C81.1944 33.3281 80.96 32.9215 80.612 32.5984C80.264 32.2752 79.8023 32.1136 79.2271 32.1136C78.3819 32.1136 77.716 32.4812 77.2295 33.2163C76.7466 33.9513 76.5033 34.983 76.4998 36.3111H76.585C76.7839 36.0092 77.02 35.7518 77.2935 35.5387C77.5704 35.3221 77.8758 35.1552 78.2097 35.038C78.5435 34.9208 78.8968 34.8622 79.2697 34.8622C79.8947 34.8622 80.4664 35.0185 80.9849 35.331C81.5033 35.6399 81.9188 36.0678 82.2313 36.6147C82.5438 37.158 82.7001 37.7812 82.7001 38.4844C82.7001 39.1591 82.5491 39.777 82.2473 40.3381C81.9454 40.8956 81.5211 41.3395 80.9742 41.6697C80.4309 41.9964 79.7917 42.1562 79.0566 42.1491ZM79.0566 40.9773C79.504 40.9773 79.9053 40.8654 80.2604 40.6417C80.6191 40.418 80.9014 40.1179 81.1074 39.7415C81.3169 39.3651 81.4217 38.946 81.4217 38.4844C81.4217 38.0334 81.3204 37.6232 81.118 37.2539C80.9192 36.881 80.644 36.5845 80.2924 36.3643C79.9444 36.1442 79.5467 36.0341 79.0992 36.0341C78.7619 36.0341 78.4476 36.1016 78.1564 36.2365C77.8652 36.3679 77.6095 36.549 77.3893 36.7798C77.1727 37.0107 77.0023 37.2752 76.878 37.5735C76.7537 37.8683 76.6915 38.179 76.6915 38.5057C76.6915 38.9389 76.7927 39.3437 76.9952 39.7202C77.2011 40.0966 77.4817 40.4002 77.8368 40.631C78.1954 40.8619 78.6021 40.9773 79.0566 40.9773ZM84.9866 42V31.0909H88.6726C89.5285 31.0909 90.228 31.2454 90.7714 31.5543C91.3182 31.8597 91.7231 32.2734 91.9858 32.7955C92.2486 33.3175 92.38 33.8999 92.38 34.5426C92.38 35.1854 92.2486 35.7695 91.9858 36.2951C91.7266 36.8207 91.3253 37.2397 90.782 37.5522C90.2387 37.8612 89.5427 38.0156 88.6939 38.0156H86.0519V36.8438H88.6513C89.2373 36.8438 89.7078 36.7425 90.0629 36.5401C90.418 36.3377 90.6755 36.0643 90.8353 35.7198C90.9986 35.3718 91.0803 34.9794 91.0803 34.5426C91.0803 34.1058 90.9986 33.7152 90.8353 33.3707C90.6755 33.0263 90.4162 32.7564 90.0576 32.5611C89.6989 32.3622 89.2231 32.2628 88.63 32.2628H86.3076V42H84.9866ZM94.508 31.0909H96.0847L99.7921 40.1463H99.92L103.627 31.0909H105.204V42H103.968V33.7116H103.862L100.453 42H99.2595L95.8504 33.7116H95.7438V42H94.508V31.0909Z" fill="#2F2E2E"/>
<path d="M162.202 58.8182H164.83L171.009 73.9105H171.222L177.401 58.8182H180.028V77H177.969V63.1861H177.791L172.109 77H170.121L164.439 63.1861H164.261V77H162.202V58.8182ZM189.876 77.2841C188.562 77.2841 187.429 76.9941 186.476 76.4141C185.529 75.8281 184.798 75.0114 184.283 73.9638C183.774 72.9103 183.52 71.6851 183.52 70.2884C183.52 68.8916 183.774 67.6605 184.283 66.5952C184.798 65.5239 185.514 64.6894 186.432 64.0916C187.355 63.4879 188.432 63.1861 189.663 63.1861C190.373 63.1861 191.075 63.3045 191.767 63.5412C192.46 63.7779 193.09 64.1626 193.658 64.6953C194.226 65.2221 194.679 65.9205 195.016 66.7905C195.354 67.6605 195.522 68.7318 195.522 70.0043V70.892H185.011V69.081H193.392C193.392 68.3116 193.238 67.625 192.93 67.0213C192.628 66.4176 192.196 65.9412 191.634 65.592C191.078 65.2428 190.421 65.0682 189.663 65.0682C188.829 65.0682 188.107 65.2753 187.497 65.6896C186.893 66.098 186.429 66.6307 186.103 67.2876C185.778 67.9446 185.615 68.6489 185.615 69.4006V70.608C185.615 71.6378 185.792 72.5108 186.147 73.2269C186.508 73.9371 187.009 74.4787 187.648 74.8516C188.287 75.2185 189.03 75.402 189.876 75.402C190.427 75.402 190.924 75.325 191.368 75.1712C191.817 75.0114 192.205 74.7746 192.531 74.4609C192.856 74.1413 193.108 73.7448 193.285 73.2713L195.309 73.8395C195.096 74.526 194.738 75.1297 194.235 75.6506C193.732 76.1655 193.111 76.5679 192.371 76.858C191.631 77.142 190.799 77.2841 189.876 77.2841ZM208.369 66.4176L206.487 66.9503C206.368 66.6366 206.194 66.3318 205.963 66.0359C205.738 65.734 205.43 65.4854 205.04 65.2901C204.649 65.0948 204.149 64.9972 203.539 64.9972C202.705 64.9972 202.009 65.1895 201.453 65.5742C200.902 65.953 200.627 66.4354 200.627 67.0213C200.627 67.5421 200.817 67.9535 201.195 68.2553C201.574 68.5572 202.166 68.8087 202.971 69.0099L204.995 69.5071C206.214 69.803 207.123 70.2558 207.721 70.8654C208.318 71.4691 208.617 72.2474 208.617 73.2003C208.617 73.9815 208.392 74.6799 207.943 75.2955C207.499 75.911 206.877 76.3963 206.078 76.7514C205.279 77.1065 204.35 77.2841 203.291 77.2841C201.9 77.2841 200.749 76.9822 199.837 76.3786C198.926 75.7749 198.349 74.893 198.106 73.733L200.095 73.2358C200.284 73.9697 200.642 74.5201 201.169 74.8871C201.701 75.254 202.397 75.4375 203.255 75.4375C204.232 75.4375 205.007 75.2304 205.581 74.8161C206.161 74.3958 206.451 73.8928 206.451 73.3068C206.451 72.8333 206.285 72.4368 205.954 72.1172C205.622 71.7917 205.113 71.549 204.427 71.3892L202.154 70.8565C200.905 70.5606 199.988 70.1019 199.402 69.4805C198.822 68.8531 198.532 68.0689 198.532 67.1278C198.532 66.3584 198.748 65.6778 199.18 65.0859C199.618 64.4941 200.213 64.0295 200.965 63.6921C201.722 63.3548 202.58 63.1861 203.539 63.1861C204.889 63.1861 205.948 63.482 206.717 64.0739C207.493 64.6657 208.043 65.447 208.369 66.4176ZM221.43 66.4176L219.548 66.9503C219.43 66.6366 219.255 66.3318 219.024 66.0359C218.799 65.734 218.492 65.4854 218.101 65.2901C217.71 65.0948 217.21 64.9972 216.601 64.9972C215.766 64.9972 215.071 65.1895 214.514 65.5742C213.964 65.953 213.689 66.4354 213.689 67.0213C213.689 67.5421 213.878 67.9535 214.257 68.2553C214.636 68.5572 215.228 68.8087 216.032 69.0099L218.057 69.5071C219.276 69.803 220.184 70.2558 220.782 70.8654C221.38 71.4691 221.679 72.2474 221.679 73.2003C221.679 73.9815 221.454 74.6799 221.004 75.2955C220.56 75.911 219.939 76.3963 219.14 76.7514C218.341 77.1065 217.412 77.2841 216.352 77.2841C214.961 77.2841 213.81 76.9822 212.899 76.3786C211.987 75.7749 211.41 74.893 211.167 73.733L213.156 73.2358C213.345 73.9697 213.704 74.5201 214.23 74.8871C214.763 75.254 215.458 75.4375 216.317 75.4375C217.293 75.4375 218.068 75.2304 218.643 74.8161C219.223 74.3958 219.513 73.8928 219.513 73.3068C219.513 72.8333 219.347 72.4368 219.015 72.1172C218.684 71.7917 218.175 71.549 217.488 71.3892L215.216 70.8565C213.967 70.5606 213.05 70.1019 212.464 69.4805C211.884 68.8531 211.594 68.0689 211.594 67.1278C211.594 66.3584 211.81 65.6778 212.242 65.0859C212.68 64.4941 213.274 64.0295 214.026 63.6921C214.784 63.3548 215.642 63.1861 216.601 63.1861C217.95 63.1861 219.01 63.482 219.779 64.0739C220.554 64.6657 221.105 65.447 221.43 66.4176ZM228.845 77.3196C227.981 77.3196 227.197 77.1568 226.493 76.8313C225.789 76.4999 225.229 76.0234 224.815 75.402C224.401 74.7746 224.193 74.017 224.193 73.1293C224.193 72.348 224.347 71.7147 224.655 71.2294C224.963 70.7382 225.374 70.3535 225.889 70.0753C226.404 69.7971 226.972 69.59 227.594 69.4538C228.221 69.3118 228.851 69.1993 229.485 69.1165C230.313 69.0099 230.985 68.93 231.5 68.8768C232.021 68.8176 232.4 68.7199 232.636 68.5838C232.879 68.4477 233 68.2109 233 67.8736V67.8026C233 66.9266 232.761 66.246 232.281 65.7607C231.808 65.2753 231.089 65.0327 230.124 65.0327C229.124 65.0327 228.339 65.2517 227.771 65.6896C227.203 66.1276 226.804 66.5952 226.573 67.0923L224.584 66.3821C224.939 65.5535 225.413 64.9084 226.005 64.4467C226.602 63.9792 227.253 63.6536 227.958 63.4702C228.668 63.2808 229.366 63.1861 230.053 63.1861C230.491 63.1861 230.994 63.2393 231.562 63.3459C232.136 63.4465 232.69 63.6566 233.222 63.9762C233.761 64.2958 234.208 64.7782 234.563 65.4233C234.918 66.0684 235.095 66.9325 235.095 68.0156V77H233V75.1534H232.894C232.752 75.4493 232.515 75.766 232.184 76.1033C231.852 76.4407 231.411 76.7277 230.861 76.9645C230.31 77.2012 229.639 77.3196 228.845 77.3196ZM229.165 75.4375C229.994 75.4375 230.692 75.2747 231.26 74.9492C231.834 74.6237 232.266 74.2035 232.556 73.6886C232.852 73.1737 233 72.6321 233 72.0639V70.1463C232.911 70.2528 232.716 70.3505 232.414 70.4393C232.118 70.5221 231.775 70.5961 231.384 70.6612C231 70.7204 230.624 70.7737 230.257 70.821C229.896 70.8625 229.603 70.898 229.378 70.9276C228.834 70.9986 228.325 71.114 227.851 71.2738C227.384 71.4277 227.005 71.6615 226.715 71.9751C226.431 72.2829 226.289 72.7031 226.289 73.2358C226.289 73.9638 226.558 74.5142 227.097 74.8871C227.641 75.254 228.331 75.4375 229.165 75.4375ZM244.424 82.3977C243.412 82.3977 242.542 82.2675 241.814 82.0071C241.086 81.7526 240.479 81.4152 239.994 80.995C239.514 80.5807 239.133 80.1368 238.849 79.6634L240.518 78.4915C240.707 78.7401 240.947 79.0241 241.237 79.3438C241.527 79.6693 241.923 79.9504 242.426 80.1871C242.935 80.4298 243.601 80.5511 244.424 80.5511C245.525 80.5511 246.433 80.2848 247.149 79.7521C247.865 79.2195 248.224 78.3849 248.224 77.2486V74.4787H248.046C247.892 74.7273 247.673 75.035 247.389 75.402C247.111 75.763 246.708 76.0856 246.182 76.3697C245.661 76.6478 244.956 76.7869 244.069 76.7869C242.968 76.7869 241.979 76.5265 241.104 76.0057C240.233 75.4848 239.544 74.7273 239.035 73.733C238.532 72.7386 238.28 71.5312 238.28 70.1108C238.28 68.714 238.526 67.4978 239.017 66.462C239.508 65.4203 240.192 64.6154 241.068 64.0472C241.944 63.4731 242.956 63.1861 244.104 63.1861C244.992 63.1861 245.696 63.334 246.217 63.63C246.744 63.92 247.146 64.2514 247.425 64.6243C247.709 64.9912 247.928 65.2931 248.081 65.5298H248.295V63.3636H250.319V77.3906C250.319 78.5625 250.052 79.5154 249.52 80.2493C248.993 80.9891 248.283 81.5307 247.389 81.8739C246.501 82.2231 245.513 82.3977 244.424 82.3977ZM244.353 74.9048C245.193 74.9048 245.903 74.7125 246.483 74.3278C247.064 73.9431 247.504 73.3897 247.806 72.6676C248.108 71.9455 248.259 71.0814 248.259 70.0753C248.259 69.0928 248.111 68.2257 247.815 67.4741C247.519 66.7224 247.081 66.1335 246.501 65.7074C245.921 65.2812 245.205 65.0682 244.353 65.0682C243.465 65.0682 242.725 65.2931 242.133 65.7429C241.547 66.1927 241.106 66.7964 240.811 67.554C240.521 68.3116 240.376 69.152 240.376 70.0753C240.376 71.0223 240.523 71.8597 240.819 72.5877C241.121 73.3098 241.565 73.878 242.151 74.2923C242.743 74.7006 243.477 74.9048 244.353 74.9048ZM259.871 77.2841C258.557 77.2841 257.424 76.9941 256.471 76.4141C255.524 75.8281 254.793 75.0114 254.278 73.9638C253.769 72.9103 253.515 71.6851 253.515 70.2884C253.515 68.8916 253.769 67.6605 254.278 66.5952C254.793 65.5239 255.509 64.6894 256.427 64.0916C257.35 63.4879 258.427 63.1861 259.658 63.1861C260.368 63.1861 261.07 63.3045 261.762 63.5412C262.455 63.7779 263.085 64.1626 263.653 64.6953C264.221 65.2221 264.674 65.9205 265.012 66.7905C265.349 67.6605 265.518 68.7318 265.518 70.0043V70.892H255.006V69.081H263.387C263.387 68.3116 263.233 67.625 262.925 67.0213C262.623 66.4176 262.191 65.9412 261.629 65.592C261.073 65.2428 260.416 65.0682 259.658 65.0682C258.824 65.0682 258.102 65.2753 257.492 65.6896C256.888 66.098 256.424 66.6307 256.098 67.2876C255.773 67.9446 255.61 68.6489 255.61 69.4006V70.608C255.61 71.6378 255.787 72.5108 256.143 73.2269C256.504 73.9371 257.004 74.4787 257.643 74.8516C258.282 75.2185 259.025 75.402 259.871 75.402C260.422 75.402 260.919 75.325 261.363 75.1712C261.813 75.0114 262.2 74.7746 262.526 74.4609C262.851 74.1413 263.103 73.7448 263.28 73.2713L265.305 73.8395C265.091 74.526 264.733 75.1297 264.23 75.6506C263.727 76.1655 263.106 76.5679 262.366 76.858C261.626 77.142 260.795 77.2841 259.871 77.2841ZM278.364 66.4176L276.482 66.9503C276.363 66.6366 276.189 66.3318 275.958 66.0359C275.733 65.734 275.425 65.4854 275.035 65.2901C274.644 65.0948 274.144 64.9972 273.534 64.9972C272.7 64.9972 272.004 65.1895 271.448 65.5742C270.898 65.953 270.622 66.4354 270.622 67.0213C270.622 67.5421 270.812 67.9535 271.191 68.2553C271.569 68.5572 272.161 68.8087 272.966 69.0099L274.99 69.5071C276.209 69.803 277.118 70.2558 277.716 70.8654C278.314 71.4691 278.612 72.2474 278.612 73.2003C278.612 73.9815 278.387 74.6799 277.938 75.2955C277.494 75.911 276.872 76.3963 276.073 76.7514C275.274 77.1065 274.345 77.2841 273.286 77.2841C271.895 77.2841 270.744 76.9822 269.832 76.3786C268.921 75.7749 268.344 74.893 268.101 73.733L270.09 73.2358C270.279 73.9697 270.637 74.5201 271.164 74.8871C271.697 75.254 272.392 75.4375 273.25 75.4375C274.227 75.4375 275.002 75.2304 275.576 74.8161C276.156 74.3958 276.446 73.8928 276.446 73.3068C276.446 72.8333 276.28 72.4368 275.949 72.1172C275.618 71.7917 275.109 71.549 274.422 71.3892L272.149 70.8565C270.901 70.5606 269.983 70.1019 269.397 69.4805C268.817 68.8531 268.527 68.0689 268.527 67.1278C268.527 66.3584 268.743 65.6778 269.175 65.0859C269.613 64.4941 270.208 64.0295 270.96 63.6921C271.717 63.3548 272.575 63.1861 273.534 63.1861C274.884 63.1861 275.943 63.482 276.713 64.0739C277.488 64.6657 278.038 65.447 278.364 66.4176Z" fill="#2F2E2E"/>
<path d="M30.8757 83C31.6327 83 32.1781 82.3457 32.1781 81.4689V76.47H32.5009C36.82 76.47 39.5362 77.7525 41.4842 82.0316C41.8738 82.8691 42.3859 83 42.8534 83C43.4434 83 44 82.3719 44 81.2465C44 71.5758 40.5158 65.5431 32.5009 65.5431H32.1781V60.5965C32.1781 59.7197 31.6327 59 30.8534 59C30.308 59 29.9406 59.2748 29.3506 59.9291L20.5677 69.5867C20.1336 70.0709 20 70.5551 20 71C20 71.4318 20.1447 71.9291 20.5677 72.4002L29.3506 82.1494C29.885 82.7383 30.3302 83 30.8757 83ZM30.2412 80.1865C30.1744 80.1865 30.1076 80.1472 30.0519 80.0687L22.115 71.2486C22.026 71.1439 21.9926 71.0785 21.9926 71C21.9926 70.9215 22.026 70.843 22.115 70.7514L30.0408 61.8135C30.0965 61.7612 30.1633 61.7088 30.2301 61.7088C30.3302 61.7088 30.3859 61.7874 30.3859 61.892V67.0872C30.3859 67.3882 30.5083 67.5191 30.7644 67.5191H32.256C39.8924 67.5191 42.1967 73.7481 42.4193 79.9248C42.4193 80.0294 42.3859 80.0687 42.3302 80.0687C42.2857 80.0687 42.2635 80.0294 42.2301 79.9378C40.9165 76.6532 37.5436 74.494 32.256 74.494H30.7644C30.5083 74.494 30.3859 74.6249 30.3859 74.9258V79.9902C30.3859 80.108 30.3302 80.1865 30.2412 80.1865Z" fill="#2F2E2E"/>
<rect x="133" y="121" width="97" height="20" rx="10" fill="#B3B3B3"/>
<rect x="133" y="335" width="73" height="20" rx="10" fill="#B3B3B3"/>
<rect x="133" y="436" width="73" height="20" rx="10" fill="#B3B3B3"/>
<rect x="133" y="650" width="73" height="20" rx="10" fill="#B3B3B3"/>
<rect x="133" y="226" width="115" height="20" rx="10" fill="#B3B3B3"/>
<rect x="133" y="545" width="90" height="20" rx="10" fill="#B3B3B3"/>
<rect x="133" y="755" width="126" height="20" rx="10" fill="#B3B3B3"/>
<rect x="133" y="860" width="108" height="20" rx="10" fill="#B3B3B3"/>
<rect x="133" y="151" width="233" height="38" rx="19" fill="#D0D0D0"/>
<rect x="133" y="256" width="252" height="38" rx="19" fill="#D0D0D0"/>
<rect x="133" y="365" width="261" height="38" rx="19" fill="#D0D0D0"/>
<rect x="133" y="471" width="261" height="38" rx="19" fill="#D0D0D0"/>
<rect x="133" y="571" width="248" height="38" rx="19" fill="#D0D0D0"/>
<rect x="133" y="681" width="248" height="38" rx="19" fill="#D0D0D0"/>
<rect x="133" y="786" width="248" height="38" rx="19" fill="#D0D0D0"/>
<rect x="133" y="891" width="248" height="38" rx="19" fill="#D0D0D0"/>
</g>
<defs>
<clipPath id="clip0_1516_13299">
<rect width="440" height="956" fill="white"/>
</clipPath>
</defs>
</svg>
