<svg width="440" height="956" viewBox="0 0 440 956" fill="none" xmlns="http://www.w3.org/2000/svg">
<g clip-path="url(#clip0_1517_14684)">
<rect width="440" height="956" fill="white"/>
<rect x="0.5" y="0.5" width="439" height="955" fill="white" stroke="#2F2E2E"/>
<circle cx="219" cy="224" r="100" fill="#B3B3B3"/>
<path fill-rule="evenodd" clip-rule="evenodd" d="M366 31.6667C366 30.1939 367.194 29 368.667 29H385.333C386.806 29 388 30.1939 388 31.6667V37.6667C388 39.1394 386.806 40.3333 385.333 40.3333H368.667C367.194 40.3333 366 39.1394 366 37.6667V31.6667Z" stroke="#2F2E2E"/>
<path d="M389 32.667V36.667C389.805 36.3282 390.328 35.5401 390.328 34.667C390.328 33.7939 389.805 33.0058 389 32.667" stroke="#2F2E2E"/>
<path d="M368 32.3333C368 31.597 368.597 31 369.333 31H384.667C385.403 31 386 31.597 386 32.3333V37C386 37.7364 385.403 38.3333 384.667 38.3333H369.333C368.597 38.3333 368 37.7364 368 37V32.3333Z" stroke="#2F2E2E"/>
<path d="M337 36.6665H338C338.552 36.6665 339 37.1142 339 37.6665V39.6665C339 40.2188 338.552 40.6665 338 40.6665H337C336.448 40.6665 336 40.2188 336 39.6665V37.6665C336 37.1142 336.448 36.6665 337 36.6665Z" stroke="#2F2E2E"/>
<path d="M341.667 34.6665H342.667C343.219 34.6665 343.667 35.1142 343.667 35.6665V39.6665C343.667 40.2188 343.219 40.6665 342.667 40.6665H341.667C341.114 40.6665 340.667 40.2188 340.667 39.6665V35.6665C340.667 35.1142 341.114 34.6665 341.667 34.6665Z" stroke="#2F2E2E"/>
<path d="M346.333 32.3335H347.333C347.886 32.3335 348.333 32.7812 348.333 33.3335V39.6668C348.333 40.2191 347.886 40.6668 347.333 40.6668H346.333C345.781 40.6668 345.333 40.2191 345.333 39.6668V33.3335C345.333 32.7812 345.781 32.3335 346.333 32.3335Z" stroke="#2F2E2E"/>
<path d="M351 30H352C352.552 30 353 30.4477 353 31V39.6667C353 40.219 352.552 40.6667 352 40.6667H351C350.448 40.6667 350 40.219 350 39.6667V31C350 30.4477 350.448 30 351 30V30Z" stroke="#2F2E2E"/>
<path d="M52.3418 37.7628V36.6761L57.1359 29.0909H57.9242V30.7741H57.3916L53.7694 36.5057V36.5909H60.2254V37.7628H52.3418ZM57.4768 40V37.4325V36.9265V29.0909H58.7339V40H57.4768ZM63.159 38.6044C62.8963 38.6044 62.6708 38.5103 62.4826 38.3221C62.2943 38.1339 62.2002 37.9084 62.2002 37.6456C62.2002 37.3828 62.2943 37.1573 62.4826 36.9691C62.6708 36.7809 62.8963 36.6868 63.159 36.6868C63.4218 36.6868 63.6473 36.7809 63.8355 36.9691C64.0237 37.1573 64.1179 37.3828 64.1179 37.6456C64.1179 37.8196 64.0735 37.9794 63.9847 38.125C63.8995 38.2706 63.784 38.3878 63.6385 38.4766C63.4964 38.5618 63.3366 38.6044 63.159 38.6044ZM63.159 33.0859C62.8963 33.0859 62.6708 32.9918 62.4826 32.8036C62.2943 32.6154 62.2002 32.3899 62.2002 32.1271C62.2002 31.8643 62.2943 31.6388 62.4826 31.4506C62.6708 31.2624 62.8963 31.1683 63.159 31.1683C63.4218 31.1683 63.6473 31.2624 63.8355 31.4506C64.0237 31.6388 64.1179 31.8643 64.1179 32.1271C64.1179 32.3011 64.0735 32.4609 63.9847 32.6065C63.8995 32.7521 63.784 32.8693 63.6385 32.9581C63.4964 33.0433 63.3366 33.0859 63.159 33.0859ZM66.3524 40V39.0412L69.9533 35.0994C70.3758 34.6378 70.7239 34.2365 70.9973 33.8956C71.2707 33.5511 71.4731 33.228 71.6045 32.9261C71.7395 32.6207 71.807 32.3011 71.807 31.9673C71.807 31.5838 71.7146 31.2518 71.53 30.9712C71.3489 30.6907 71.1003 30.4741 70.7842 30.3214C70.4682 30.1687 70.1131 30.0923 69.7189 30.0923C69.2998 30.0923 68.9341 30.1793 68.6216 30.3533C68.3126 30.5238 68.0729 30.7635 67.9025 31.0724C67.7356 31.3814 67.6521 31.7436 67.6521 32.1591H66.395C66.395 31.5199 66.5424 30.9588 66.8371 30.4759C67.1319 29.9929 67.5332 29.6165 68.041 29.3466C68.5523 29.0767 69.1258 28.9418 69.7615 28.9418C70.4007 28.9418 70.9671 29.0767 71.4607 29.3466C71.9543 29.6165 72.3414 29.9805 72.6219 30.4386C72.9025 30.8967 73.0427 31.4062 73.0427 31.9673C73.0427 32.3686 72.9699 32.761 72.8244 33.1445C72.6823 33.5245 72.4337 33.9489 72.0786 34.4176C71.7271 34.8828 71.2388 35.451 70.6138 36.1222L68.1635 38.7429V38.8281H73.2345V40H66.3524ZM79.0566 40.1491C78.6092 40.142 78.1617 40.0568 77.7143 39.8935C77.2668 39.7301 76.8584 39.4549 76.4891 39.0678C76.1198 38.6772 75.8233 38.1499 75.5996 37.4858C75.3758 36.8182 75.264 35.9801 75.264 34.9716C75.264 34.0057 75.3545 33.1499 75.5356 32.4041C75.7168 31.6548 75.9795 31.0245 76.324 30.5131C76.6685 29.9982 77.0839 29.6076 77.5704 29.3413C78.0605 29.0749 78.6127 28.9418 79.2271 28.9418C79.8378 28.9418 80.3812 29.0643 80.857 29.3093C81.3364 29.5508 81.7271 29.8881 82.0289 30.3214C82.3307 30.7546 82.5261 31.2536 82.6148 31.8182H81.3151C81.1944 31.3281 80.96 30.9215 80.612 30.5984C80.264 30.2752 79.8023 30.1136 79.2271 30.1136C78.3819 30.1136 77.716 30.4812 77.2295 31.2163C76.7466 31.9513 76.5033 32.983 76.4998 34.3111H76.585C76.7839 34.0092 77.02 33.7518 77.2935 33.5387C77.5704 33.3221 77.8758 33.1552 78.2097 33.038C78.5435 32.9208 78.8968 32.8622 79.2697 32.8622C79.8947 32.8622 80.4664 33.0185 80.9849 33.331C81.5033 33.6399 81.9188 34.0678 82.2313 34.6147C82.5438 35.158 82.7001 35.7812 82.7001 36.4844C82.7001 37.1591 82.5491 37.777 82.2473 38.3381C81.9454 38.8956 81.5211 39.3395 80.9742 39.6697C80.4309 39.9964 79.7917 40.1562 79.0566 40.1491ZM79.0566 38.9773C79.504 38.9773 79.9053 38.8654 80.2604 38.6417C80.6191 38.418 80.9014 38.1179 81.1074 37.7415C81.3169 37.3651 81.4217 36.946 81.4217 36.4844C81.4217 36.0334 81.3204 35.6232 81.118 35.2539C80.9192 34.881 80.644 34.5845 80.2924 34.3643C79.9444 34.1442 79.5467 34.0341 79.0992 34.0341C78.7619 34.0341 78.4476 34.1016 78.1564 34.2365C77.8652 34.3679 77.6095 34.549 77.3893 34.7798C77.1727 35.0107 77.0023 35.2752 76.878 35.5735C76.7537 35.8683 76.6915 36.179 76.6915 36.5057C76.6915 36.9389 76.7927 37.3437 76.9952 37.7202C77.2011 38.0966 77.4817 38.4002 77.8368 38.631C78.1954 38.8619 78.6021 38.9773 79.0566 38.9773ZM84.9866 40V29.0909H88.6726C89.5285 29.0909 90.228 29.2454 90.7714 29.5543C91.3182 29.8597 91.7231 30.2734 91.9858 30.7955C92.2486 31.3175 92.38 31.8999 92.38 32.5426C92.38 33.1854 92.2486 33.7695 91.9858 34.2951C91.7266 34.8207 91.3253 35.2397 90.782 35.5522C90.2387 35.8612 89.5427 36.0156 88.6939 36.0156H86.0519V34.8438H88.6513C89.2373 34.8438 89.7078 34.7425 90.0629 34.5401C90.418 34.3377 90.6755 34.0643 90.8353 33.7198C90.9986 33.3718 91.0803 32.9794 91.0803 32.5426C91.0803 32.1058 90.9986 31.7152 90.8353 31.3707C90.6755 31.0263 90.4162 30.7564 90.0576 30.5611C89.6989 30.3622 89.2231 30.2628 88.63 30.2628H86.3076V40H84.9866ZM94.508 29.0909H96.0847L99.7921 38.1463H99.92L103.627 29.0909H105.204V40H103.968V31.7116H103.862L100.453 40H99.2595L95.8504 31.7116H95.7438V40H94.508V29.0909Z" fill="#2F2E2E"/>
<path d="M30.8757 83C31.6327 83 32.1781 82.3457 32.1781 81.4689V76.47H32.5009C36.82 76.47 39.5362 77.7525 41.4842 82.0316C41.8738 82.8691 42.3859 83 42.8534 83C43.4434 83 44 82.3719 44 81.2465C44 71.5758 40.5158 65.5431 32.5009 65.5431H32.1781V60.5965C32.1781 59.7197 31.6327 59 30.8534 59C30.308 59 29.9406 59.2748 29.3506 59.9291L20.5677 69.5867C20.1336 70.0709 20 70.5551 20 71C20 71.4318 20.1447 71.9291 20.5677 72.4002L29.3506 82.1494C29.885 82.7383 30.3302 83 30.8757 83ZM30.2412 80.1865C30.1744 80.1865 30.1076 80.1472 30.0519 80.0687L22.115 71.2486C22.026 71.1439 21.9926 71.0785 21.9926 71C21.9926 70.9215 22.026 70.843 22.115 70.7514L30.0408 61.8135C30.0965 61.7612 30.1633 61.7088 30.2301 61.7088C30.3302 61.7088 30.3859 61.7874 30.3859 61.892V67.0872C30.3859 67.3882 30.5083 67.5191 30.7644 67.5191H32.256C39.8924 67.5191 42.1967 73.7481 42.4193 79.9248C42.4193 80.0294 42.3859 80.0687 42.3302 80.0687C42.2857 80.0687 42.2635 80.0294 42.2301 79.9378C40.9165 76.6532 37.5436 74.494 32.256 74.494H30.7644C30.5083 74.494 30.3859 74.6249 30.3859 74.9258V79.9902C30.3859 80.108 30.3302 80.1865 30.2412 80.1865Z" stroke="#2F2E2E"/>
<path d="M59.1867 793.24L51.0933 801.334L43 793.24M51.0933 778.667V801.107" stroke="#2F2E2E" stroke-linecap="round" stroke-linejoin="round"/>
<path d="M101.041 796H98.7325L105.409 777.818H107.681L114.358 796H112.049L106.616 780.695H106.474L101.041 796ZM101.893 788.898H111.197V790.851H101.893V788.898ZM122.055 796.284C120.918 796.284 119.915 795.997 119.045 795.423C118.175 794.843 117.494 794.026 117.003 792.973C116.512 791.913 116.266 790.661 116.266 789.217C116.266 787.785 116.512 786.542 117.003 785.489C117.494 784.435 118.178 783.621 119.054 783.047C119.93 782.473 120.942 782.186 122.09 782.186C122.978 782.186 123.679 782.334 124.194 782.63C124.715 782.92 125.112 783.251 125.384 783.624C125.662 783.991 125.878 784.293 126.032 784.53H126.209V777.818H128.305V796H126.28V793.905H126.032C125.878 794.153 125.659 794.467 125.375 794.846C125.091 795.219 124.685 795.553 124.159 795.849C123.632 796.139 122.931 796.284 122.055 796.284ZM122.339 794.402C123.179 794.402 123.889 794.183 124.469 793.745C125.049 793.301 125.49 792.689 125.792 791.907C126.094 791.12 126.245 790.212 126.245 789.182C126.245 788.164 126.097 787.273 125.801 786.51C125.505 785.74 125.067 785.142 124.487 784.716C123.907 784.284 123.191 784.068 122.339 784.068C121.451 784.068 120.711 784.296 120.119 784.752C119.533 785.202 119.092 785.814 118.796 786.589C118.506 787.359 118.361 788.223 118.361 789.182C118.361 790.152 118.509 791.034 118.805 791.827C119.107 792.615 119.551 793.242 120.137 793.71C120.729 794.171 121.463 794.402 122.339 794.402ZM137.973 796.284C136.742 796.284 135.661 795.991 134.732 795.405C133.809 794.819 133.087 794 132.566 792.946C132.051 791.893 131.794 790.661 131.794 789.253C131.794 787.832 132.051 786.592 132.566 785.533C133.087 784.474 133.809 783.651 134.732 783.065C135.661 782.479 136.742 782.186 137.973 782.186C139.204 782.186 140.281 782.479 141.204 783.065C142.133 783.651 142.855 784.474 143.37 785.533C143.891 786.592 144.152 787.832 144.152 789.253C144.152 790.661 143.891 791.893 143.37 792.946C142.855 794 142.133 794.819 141.204 795.405C140.281 795.991 139.204 796.284 137.973 796.284ZM137.973 794.402C138.908 794.402 139.677 794.162 140.281 793.683C140.885 793.203 141.331 792.573 141.621 791.792C141.911 791.011 142.056 790.164 142.056 789.253C142.056 788.341 141.911 787.492 141.621 786.705C141.331 785.918 140.885 785.281 140.281 784.796C139.677 784.311 138.908 784.068 137.973 784.068C137.037 784.068 136.268 784.311 135.664 784.796C135.061 785.281 134.614 785.918 134.324 786.705C134.034 787.492 133.889 788.341 133.889 789.253C133.889 790.164 134.034 791.011 134.324 791.792C134.614 792.573 135.061 793.203 135.664 793.683C136.268 794.162 137.037 794.402 137.973 794.402ZM147.35 801.114V782.364H149.374V784.53H149.623C149.776 784.293 149.989 783.991 150.262 783.624C150.54 783.251 150.936 782.92 151.451 782.63C151.972 782.334 152.677 782.186 153.564 782.186C154.712 782.186 155.725 782.473 156.601 783.047C157.476 783.621 158.16 784.435 158.651 785.489C159.143 786.542 159.388 787.785 159.388 789.217C159.388 790.661 159.143 791.913 158.651 792.973C158.16 794.026 157.479 794.843 156.609 795.423C155.739 795.997 154.736 796.284 153.6 796.284C152.724 796.284 152.023 796.139 151.496 795.849C150.969 795.553 150.564 795.219 150.279 794.846C149.995 794.467 149.776 794.153 149.623 793.905H149.445V801.114H147.35ZM149.409 789.182C149.409 790.212 149.56 791.12 149.862 791.907C150.164 792.689 150.605 793.301 151.185 793.745C151.765 794.183 152.475 794.402 153.316 794.402C154.192 794.402 154.923 794.171 155.509 793.71C156.1 793.242 156.544 792.615 156.84 791.827C157.142 791.034 157.293 790.152 157.293 789.182C157.293 788.223 157.145 787.359 156.849 786.589C156.559 785.814 156.118 785.202 155.526 784.752C154.94 784.296 154.203 784.068 153.316 784.068C152.463 784.068 151.747 784.284 151.167 784.716C150.587 785.142 150.149 785.74 149.853 786.51C149.557 787.273 149.409 788.164 149.409 789.182ZM168.515 782.364V784.139H161.448V782.364H168.515ZM163.507 779.097H165.603V792.094C165.603 792.686 165.688 793.129 165.86 793.425C166.038 793.715 166.263 793.911 166.535 794.011C166.813 794.106 167.106 794.153 167.414 794.153C167.645 794.153 167.834 794.142 167.982 794.118C168.13 794.088 168.248 794.065 168.337 794.047L168.763 795.929C168.621 795.982 168.423 796.036 168.168 796.089C167.914 796.148 167.591 796.178 167.201 796.178C166.609 796.178 166.029 796.05 165.461 795.796C164.898 795.541 164.431 795.154 164.058 794.633C163.691 794.112 163.507 793.455 163.507 792.662V779.097ZM182.71 796.32C181.846 796.32 181.062 796.157 180.358 795.831C179.653 795.5 179.094 795.023 178.68 794.402C178.265 793.775 178.058 793.017 178.058 792.129C178.058 791.348 178.212 790.715 178.52 790.229C178.828 789.738 179.239 789.353 179.754 789.075C180.269 788.797 180.837 788.59 181.458 788.454C182.086 788.312 182.716 788.199 183.349 788.116C184.178 788.01 184.85 787.93 185.365 787.877C185.886 787.818 186.264 787.72 186.501 787.584C186.744 787.448 186.865 787.211 186.865 786.874V786.803C186.865 785.927 186.625 785.246 186.146 784.761C185.672 784.275 184.953 784.033 183.989 784.033C182.988 784.033 182.204 784.252 181.636 784.69C181.068 785.128 180.668 785.595 180.438 786.092L178.449 785.382C178.804 784.554 179.277 783.908 179.869 783.447C180.467 782.979 181.118 782.654 181.822 782.47C182.533 782.281 183.231 782.186 183.918 782.186C184.356 782.186 184.859 782.239 185.427 782.346C186.001 782.446 186.554 782.657 187.087 782.976C187.626 783.296 188.072 783.778 188.428 784.423C188.783 785.068 188.96 785.933 188.96 787.016V796H186.865V794.153H186.759C186.616 794.449 186.38 794.766 186.048 795.103C185.717 795.441 185.276 795.728 184.726 795.964C184.175 796.201 183.503 796.32 182.71 796.32ZM183.03 794.438C183.858 794.438 184.557 794.275 185.125 793.949C185.699 793.624 186.131 793.203 186.421 792.689C186.717 792.174 186.865 791.632 186.865 791.064V789.146C186.776 789.253 186.581 789.35 186.279 789.439C185.983 789.522 185.64 789.596 185.249 789.661C184.865 789.72 184.489 789.774 184.122 789.821C183.761 789.862 183.468 789.898 183.243 789.928C182.698 789.999 182.189 790.114 181.716 790.274C181.248 790.428 180.87 790.661 180.58 790.975C180.295 791.283 180.153 791.703 180.153 792.236C180.153 792.964 180.423 793.514 180.961 793.887C181.506 794.254 182.195 794.438 183.03 794.438ZM205.888 782.364V784.139H198.537V782.364H205.888ZM200.739 796V780.482C200.739 779.7 200.922 779.049 201.289 778.528C201.656 778.008 202.133 777.617 202.719 777.357C203.305 777.096 203.923 776.966 204.574 776.966C205.089 776.966 205.509 777.007 205.835 777.09C206.16 777.173 206.403 777.25 206.563 777.321L205.959 779.132C205.853 779.097 205.705 779.052 205.515 778.999C205.332 778.946 205.089 778.919 204.787 778.919C204.095 778.919 203.595 779.094 203.287 779.443C202.985 779.792 202.834 780.304 202.834 780.979V796H200.739ZM213.98 796.284C212.666 796.284 211.533 795.994 210.58 795.414C209.633 794.828 208.902 794.011 208.387 792.964C207.878 791.91 207.624 790.685 207.624 789.288C207.624 787.892 207.878 786.661 208.387 785.595C208.902 784.524 209.618 783.689 210.536 783.092C211.459 782.488 212.536 782.186 213.767 782.186C214.477 782.186 215.179 782.304 215.871 782.541C216.564 782.778 217.194 783.163 217.762 783.695C218.33 784.222 218.783 784.92 219.12 785.79C219.458 786.661 219.627 787.732 219.627 789.004V789.892H209.115V788.081H217.496C217.496 787.312 217.342 786.625 217.034 786.021C216.732 785.418 216.3 784.941 215.738 784.592C215.182 784.243 214.525 784.068 213.767 784.068C212.933 784.068 212.211 784.275 211.601 784.69C210.997 785.098 210.533 785.631 210.207 786.288C209.882 786.945 209.719 787.649 209.719 788.401V789.608C209.719 790.638 209.896 791.511 210.252 792.227C210.613 792.937 211.113 793.479 211.752 793.852C212.391 794.219 213.134 794.402 213.98 794.402C214.531 794.402 215.028 794.325 215.472 794.171C215.922 794.011 216.309 793.775 216.635 793.461C216.96 793.141 217.212 792.745 217.389 792.271L219.413 792.839C219.2 793.526 218.842 794.13 218.339 794.651C217.836 795.165 217.215 795.568 216.475 795.858C215.735 796.142 214.904 796.284 213.98 796.284ZM226.826 796.32C225.962 796.32 225.178 796.157 224.474 795.831C223.77 795.5 223.21 795.023 222.796 794.402C222.382 793.775 222.174 793.017 222.174 792.129C222.174 791.348 222.328 790.715 222.636 790.229C222.944 789.738 223.355 789.353 223.87 789.075C224.385 788.797 224.953 788.59 225.575 788.454C226.202 788.312 226.832 788.199 227.466 788.116C228.294 788.01 228.966 787.93 229.481 787.877C230.002 787.818 230.381 787.72 230.617 787.584C230.86 787.448 230.981 787.211 230.981 786.874V786.803C230.981 785.927 230.742 785.246 230.262 784.761C229.789 784.275 229.07 784.033 228.105 784.033C227.105 784.033 226.32 784.252 225.752 784.69C225.184 785.128 224.785 785.595 224.554 786.092L222.565 785.382C222.92 784.554 223.394 783.908 223.986 783.447C224.583 782.979 225.234 782.654 225.939 782.47C226.649 782.281 227.347 782.186 228.034 782.186C228.472 782.186 228.975 782.239 229.543 782.346C230.117 782.446 230.671 782.657 231.203 782.976C231.742 783.296 232.189 783.778 232.544 784.423C232.899 785.068 233.076 785.933 233.076 787.016V796H230.981V794.153H230.875C230.733 794.449 230.496 794.766 230.165 795.103C229.833 795.441 229.392 795.728 228.842 795.964C228.291 796.201 227.62 796.32 226.826 796.32ZM227.146 794.438C227.975 794.438 228.673 794.275 229.241 793.949C229.815 793.624 230.247 793.203 230.537 792.689C230.833 792.174 230.981 791.632 230.981 791.064V789.146C230.893 789.253 230.697 789.35 230.395 789.439C230.099 789.522 229.756 789.596 229.366 789.661C228.981 789.72 228.605 789.774 228.238 789.821C227.877 789.862 227.584 789.898 227.359 789.928C226.815 789.999 226.306 790.114 225.832 790.274C225.365 790.428 224.986 790.661 224.696 790.975C224.412 791.283 224.27 791.703 224.27 792.236C224.27 792.964 224.539 793.514 225.078 793.887C225.622 794.254 226.312 794.438 227.146 794.438ZM242.831 782.364V784.139H235.764V782.364H242.831ZM237.824 779.097H239.919V792.094C239.919 792.686 240.005 793.129 240.177 793.425C240.354 793.715 240.579 793.911 240.851 794.011C241.129 794.106 241.422 794.153 241.73 794.153C241.961 794.153 242.15 794.142 242.298 794.118C242.446 794.088 242.565 794.065 242.653 794.047L243.08 795.929C242.938 795.982 242.739 796.036 242.485 796.089C242.23 796.148 241.908 796.178 241.517 796.178C240.925 796.178 240.345 796.05 239.777 795.796C239.215 795.541 238.747 795.154 238.374 794.633C238.007 794.112 237.824 793.455 237.824 792.662V779.097ZM248.371 787.797V796H246.276V777.818H248.371V784.494H248.548C248.868 783.79 249.347 783.231 249.987 782.816C250.632 782.396 251.49 782.186 252.561 782.186C253.49 782.186 254.304 782.373 255.003 782.745C255.701 783.112 256.242 783.678 256.627 784.441C257.018 785.199 257.213 786.163 257.213 787.335V796H255.118V787.477C255.118 786.394 254.837 785.557 254.275 784.965C253.718 784.367 252.946 784.068 251.957 784.068C251.271 784.068 250.655 784.213 250.111 784.503C249.572 784.793 249.146 785.216 248.832 785.773C248.525 786.329 248.371 787.004 248.371 787.797ZM266.763 796.284C265.45 796.284 264.316 795.994 263.363 795.414C262.416 794.828 261.685 794.011 261.17 792.964C260.661 791.91 260.407 790.685 260.407 789.288C260.407 787.892 260.661 786.661 261.17 785.595C261.685 784.524 262.401 783.689 263.319 783.092C264.242 782.488 265.319 782.186 266.55 782.186C267.261 782.186 267.962 782.304 268.654 782.541C269.347 782.778 269.977 783.163 270.545 783.695C271.114 784.222 271.566 784.92 271.904 785.79C272.241 786.661 272.41 787.732 272.41 789.004V789.892H261.898V788.081H270.279C270.279 787.312 270.125 786.625 269.817 786.021C269.516 785.418 269.083 784.941 268.521 784.592C267.965 784.243 267.308 784.068 266.55 784.068C265.716 784.068 264.994 784.275 264.384 784.69C263.78 785.098 263.316 785.631 262.99 786.288C262.665 786.945 262.502 787.649 262.502 788.401V789.608C262.502 790.638 262.68 791.511 263.035 792.227C263.396 792.937 263.896 793.479 264.535 793.852C265.174 794.219 265.917 794.402 266.763 794.402C267.314 794.402 267.811 794.325 268.255 794.171C268.705 794.011 269.092 793.775 269.418 793.461C269.743 793.141 269.995 792.745 270.173 792.271L272.197 792.839C271.984 793.526 271.626 794.13 271.122 794.651C270.619 795.165 269.998 795.568 269.258 795.858C268.518 796.142 267.687 796.284 266.763 796.284ZM275.597 796V782.364H277.621V784.423H277.763C278.012 783.749 278.461 783.201 279.112 782.781C279.764 782.361 280.497 782.151 281.314 782.151C281.468 782.151 281.66 782.154 281.891 782.159C282.122 782.165 282.297 782.174 282.415 782.186V784.317C282.344 784.299 282.181 784.272 281.927 784.237C281.678 784.195 281.415 784.175 281.137 784.175C280.474 784.175 279.882 784.314 279.361 784.592C278.846 784.864 278.438 785.243 278.136 785.728C277.84 786.208 277.692 786.755 277.692 787.371V796H275.597ZM290.201 796.284C288.887 796.284 287.754 795.994 286.801 795.414C285.854 794.828 285.123 794.011 284.608 792.964C284.099 791.91 283.844 790.685 283.844 789.288C283.844 787.892 284.099 786.661 284.608 785.595C285.123 784.524 285.839 783.689 286.756 783.092C287.68 782.488 288.757 782.186 289.988 782.186C290.698 782.186 291.399 782.304 292.092 782.541C292.784 782.778 293.415 783.163 293.983 783.695C294.551 784.222 295.004 784.92 295.341 785.79C295.679 786.661 295.847 787.732 295.847 789.004V789.892H285.336V788.081H293.717C293.717 787.312 293.563 786.625 293.255 786.021C292.953 785.418 292.521 784.941 291.959 784.592C291.402 784.243 290.745 784.068 289.988 784.068C289.153 784.068 288.431 784.275 287.822 784.69C287.218 785.098 286.753 785.631 286.428 786.288C286.102 786.945 285.94 787.649 285.94 788.401V789.608C285.94 790.638 286.117 791.511 286.472 792.227C286.833 792.937 287.333 793.479 287.973 793.852C288.612 794.219 289.355 794.402 290.201 794.402C290.751 794.402 291.249 794.325 291.692 794.171C292.142 794.011 292.53 793.775 292.855 793.461C293.181 793.141 293.432 792.745 293.61 792.271L295.634 792.839C295.421 793.526 295.063 794.13 294.56 794.651C294.057 795.165 293.435 795.568 292.696 795.858C291.956 796.142 291.124 796.284 290.201 796.284ZM304.184 796.284C303.047 796.284 302.044 795.997 301.174 795.423C300.304 794.843 299.623 794.026 299.132 792.973C298.641 791.913 298.395 790.661 298.395 789.217C298.395 787.785 298.641 786.542 299.132 785.489C299.623 784.435 300.307 783.621 301.183 783.047C302.059 782.473 303.071 782.186 304.219 782.186C305.107 782.186 305.808 782.334 306.323 782.63C306.844 782.92 307.24 783.251 307.513 783.624C307.791 783.991 308.007 784.293 308.161 784.53H308.338V777.818H310.434V796H308.409V793.905H308.161C308.007 794.153 307.788 794.467 307.504 794.846C307.22 795.219 306.814 795.553 306.288 795.849C305.761 796.139 305.059 796.284 304.184 796.284ZM304.468 794.402C305.308 794.402 306.018 794.183 306.598 793.745C307.178 793.301 307.619 792.689 307.921 791.907C308.223 791.12 308.374 790.212 308.374 789.182C308.374 788.164 308.226 787.273 307.93 786.51C307.634 785.74 307.196 785.142 306.616 784.716C306.036 784.284 305.32 784.068 304.468 784.068C303.58 784.068 302.84 784.296 302.248 784.752C301.662 785.202 301.221 785.814 300.925 786.589C300.635 787.359 300.49 788.223 300.49 789.182C300.49 790.152 300.638 791.034 300.934 791.827C301.236 792.615 301.68 793.242 302.266 793.71C302.858 794.171 303.592 794.402 304.468 794.402ZM327.665 782.364V784.139H320.315V782.364H327.665ZM322.516 796V780.482C322.516 779.7 322.7 779.049 323.067 778.528C323.434 778.008 323.91 777.617 324.496 777.357C325.082 777.096 325.7 776.966 326.351 776.966C326.866 776.966 327.287 777.007 327.612 777.09C327.938 777.173 328.18 777.25 328.34 777.321L327.736 779.132C327.63 779.097 327.482 779.052 327.293 778.999C327.109 778.946 326.866 778.919 326.565 778.919C325.872 778.919 325.372 779.094 325.064 779.443C324.762 779.792 324.611 780.304 324.611 780.979V796H322.516ZM330.602 796V782.364H332.626V784.423H332.768C333.017 783.749 333.466 783.201 334.117 782.781C334.768 782.361 335.502 782.151 336.319 782.151C336.473 782.151 336.665 782.154 336.896 782.159C337.127 782.165 337.302 782.174 337.42 782.186V784.317C337.349 784.299 337.186 784.272 336.932 784.237C336.683 784.195 336.42 784.175 336.142 784.175C335.479 784.175 334.887 784.314 334.366 784.592C333.851 784.864 333.443 785.243 333.141 785.728C332.845 786.208 332.697 786.755 332.697 787.371V796H330.602ZM339.904 796V782.364H341.999V796H339.904ZM340.969 780.091C340.56 780.091 340.208 779.952 339.912 779.674C339.622 779.395 339.477 779.061 339.477 778.67C339.477 778.28 339.622 777.945 339.912 777.667C340.208 777.389 340.56 777.25 340.969 777.25C341.377 777.25 341.726 777.389 342.016 777.667C342.312 777.945 342.46 778.28 342.46 778.67C342.46 779.061 342.312 779.395 342.016 779.674C341.726 779.952 341.377 780.091 340.969 780.091ZM351.553 796.284C350.24 796.284 349.106 795.994 348.153 795.414C347.206 794.828 346.475 794.011 345.96 792.964C345.451 791.91 345.197 790.685 345.197 789.288C345.197 787.892 345.451 786.661 345.96 785.595C346.475 784.524 347.191 783.689 348.109 783.092C349.032 782.488 350.109 782.186 351.34 782.186C352.051 782.186 352.752 782.304 353.444 782.541C354.137 782.778 354.767 783.163 355.335 783.695C355.904 784.222 356.356 784.92 356.694 785.79C357.031 786.661 357.2 787.732 357.2 789.004V789.892H346.688V788.081H355.069C355.069 787.312 354.915 786.625 354.607 786.021C354.306 785.418 353.874 784.941 353.311 784.592C352.755 784.243 352.098 784.068 351.34 784.068C350.506 784.068 349.784 784.275 349.174 784.69C348.571 785.098 348.106 785.631 347.78 786.288C347.455 786.945 347.292 787.649 347.292 788.401V789.608C347.292 790.638 347.47 791.511 347.825 792.227C348.186 792.937 348.686 793.479 349.325 793.852C349.964 794.219 350.707 794.402 351.553 794.402C352.104 794.402 352.601 794.325 353.045 794.171C353.495 794.011 353.882 793.775 354.208 793.461C354.533 793.141 354.785 792.745 354.963 792.271L356.987 792.839C356.774 793.526 356.416 794.13 355.912 794.651C355.409 795.165 354.788 795.568 354.048 795.858C353.308 796.142 352.477 796.284 351.553 796.284ZM362.482 787.797V796H360.387V782.364H362.411V784.494H362.589C362.908 783.802 363.394 783.246 364.045 782.825C364.696 782.399 365.536 782.186 366.566 782.186C367.489 782.186 368.297 782.375 368.99 782.754C369.682 783.127 370.221 783.695 370.605 784.459C370.99 785.216 371.182 786.175 371.182 787.335V796H369.087V787.477C369.087 786.406 368.809 785.571 368.253 784.974C367.696 784.37 366.933 784.068 365.962 784.068C365.293 784.068 364.696 784.213 364.169 784.503C363.648 784.793 363.237 785.216 362.935 785.773C362.633 786.329 362.482 787.004 362.482 787.797ZM380.16 796.284C379.024 796.284 378.021 795.997 377.15 795.423C376.28 794.843 375.6 794.026 375.109 792.973C374.617 791.913 374.372 790.661 374.372 789.217C374.372 787.785 374.617 786.542 375.109 785.489C375.6 784.435 376.283 783.621 377.159 783.047C378.035 782.473 379.047 782.186 380.196 782.186C381.083 782.186 381.785 782.334 382.3 782.63C382.82 782.92 383.217 783.251 383.489 783.624C383.767 783.991 383.983 784.293 384.137 784.53H384.315V777.818H386.41V796H384.386V793.905H384.137C383.983 794.153 383.764 794.467 383.48 794.846C383.196 795.219 382.791 795.553 382.264 795.849C381.737 796.139 381.036 796.284 380.16 796.284ZM380.444 794.402C381.285 794.402 381.995 794.183 382.575 793.745C383.155 793.301 383.596 792.689 383.898 791.907C384.2 791.12 384.35 790.212 384.35 789.182C384.35 788.164 384.202 787.273 383.907 786.51C383.611 785.74 383.173 785.142 382.593 784.716C382.013 784.284 381.296 784.068 380.444 784.068C379.556 784.068 378.817 784.296 378.225 784.752C377.639 785.202 377.198 785.814 376.902 786.589C376.612 787.359 376.467 788.223 376.467 789.182C376.467 790.152 376.615 791.034 376.911 791.827C377.213 792.615 377.657 793.242 378.242 793.71C378.834 794.171 379.568 794.402 380.444 794.402Z" fill="#2F2E2E"/>
<circle cx="48.8378" cy="664.838" r="13.3378" fill="white" stroke="#2F2E2E"/>
<path d="M65.7815 682.489C65.9768 682.684 66.2934 682.684 66.4887 682.489C66.6839 682.294 66.6839 681.977 66.4887 681.782L65.7815 682.489ZM66.4887 681.782L58.7049 673.998L57.9978 674.705L65.7815 682.489L66.4887 681.782Z" fill="#2F2E2E"/>
<path d="M118.145 657.364C118.038 656.464 117.606 655.766 116.849 655.268C116.091 654.771 115.162 654.523 114.061 654.523C113.256 654.523 112.552 654.653 111.948 654.913C111.35 655.174 110.883 655.532 110.545 655.988C110.214 656.443 110.048 656.961 110.048 657.541C110.048 658.027 110.164 658.444 110.395 658.793C110.631 659.136 110.933 659.423 111.3 659.654C111.667 659.879 112.052 660.065 112.454 660.213C112.857 660.355 113.227 660.471 113.564 660.56L115.411 661.057C115.884 661.181 116.411 661.353 116.991 661.572C117.577 661.791 118.136 662.09 118.669 662.468C119.207 662.841 119.651 663.321 120 663.907C120.35 664.493 120.524 665.212 120.524 666.064C120.524 667.046 120.267 667.934 119.752 668.727C119.243 669.52 118.497 670.151 117.515 670.618C116.538 671.086 115.351 671.32 113.955 671.32C112.652 671.32 111.525 671.109 110.572 670.689C109.625 670.269 108.879 669.683 108.335 668.931C107.796 668.18 107.491 667.307 107.42 666.312H109.693C109.752 666.999 109.983 667.567 110.386 668.017C110.794 668.461 111.309 668.792 111.93 669.011C112.558 669.224 113.232 669.331 113.955 669.331C114.795 669.331 115.55 669.195 116.218 668.923C116.887 668.644 117.417 668.26 117.808 667.768C118.198 667.271 118.393 666.691 118.393 666.028C118.393 665.425 118.225 664.933 117.887 664.555C117.55 664.176 117.106 663.868 116.556 663.631C116.005 663.395 115.411 663.187 114.771 663.01L112.534 662.371C111.114 661.962 109.989 661.379 109.161 660.622C108.332 659.864 107.918 658.873 107.918 657.648C107.918 656.63 108.193 655.742 108.743 654.984C109.3 654.221 110.045 653.629 110.98 653.209C111.922 652.783 112.972 652.57 114.132 652.57C115.304 652.57 116.346 652.78 117.257 653.2C118.169 653.614 118.891 654.182 119.423 654.904C119.962 655.627 120.246 656.446 120.276 657.364H118.145ZM129.577 671.284C128.263 671.284 127.13 670.994 126.177 670.414C125.23 669.828 124.499 669.011 123.984 667.964C123.475 666.91 123.221 665.685 123.221 664.288C123.221 662.892 123.475 661.661 123.984 660.595C124.499 659.524 125.215 658.689 126.133 658.092C127.056 657.488 128.133 657.186 129.364 657.186C130.074 657.186 130.776 657.304 131.468 657.541C132.161 657.778 132.791 658.163 133.359 658.695C133.927 659.222 134.38 659.92 134.718 660.79C135.055 661.661 135.224 662.732 135.224 664.004V664.892H124.712V663.081H133.093C133.093 662.312 132.939 661.625 132.631 661.021C132.329 660.418 131.897 659.941 131.335 659.592C130.779 659.243 130.122 659.068 129.364 659.068C128.53 659.068 127.808 659.275 127.198 659.69C126.594 660.098 126.13 660.631 125.804 661.288C125.479 661.945 125.316 662.649 125.316 663.401V664.608C125.316 665.638 125.494 666.511 125.849 667.227C126.21 667.937 126.71 668.479 127.349 668.852C127.988 669.219 128.731 669.402 129.577 669.402C130.128 669.402 130.625 669.325 131.069 669.171C131.519 669.011 131.906 668.775 132.232 668.461C132.557 668.141 132.809 667.745 132.986 667.271L135.011 667.839C134.797 668.526 134.439 669.13 133.936 669.651C133.433 670.165 132.812 670.568 132.072 670.858C131.332 671.142 130.501 671.284 129.577 671.284ZM142.424 671.32C141.559 671.32 140.775 671.157 140.071 670.831C139.367 670.5 138.807 670.023 138.393 669.402C137.979 668.775 137.772 668.017 137.772 667.129C137.772 666.348 137.925 665.715 138.233 665.229C138.541 664.738 138.952 664.353 139.467 664.075C139.982 663.797 140.55 663.59 141.172 663.454C141.799 663.312 142.429 663.199 143.063 663.116C143.891 663.01 144.563 662.93 145.078 662.877C145.599 662.818 145.978 662.72 146.214 662.584C146.457 662.448 146.578 662.211 146.578 661.874V661.803C146.578 660.927 146.339 660.246 145.859 659.761C145.386 659.275 144.667 659.033 143.702 659.033C142.702 659.033 141.918 659.252 141.349 659.69C140.781 660.128 140.382 660.595 140.151 661.092L138.162 660.382C138.517 659.554 138.991 658.908 139.583 658.447C140.18 657.979 140.831 657.654 141.536 657.47C142.246 657.281 142.944 657.186 143.631 657.186C144.069 657.186 144.572 657.239 145.14 657.346C145.714 657.446 146.268 657.657 146.8 657.976C147.339 658.296 147.786 658.778 148.141 659.423C148.496 660.068 148.674 660.933 148.674 662.016V671H146.578V669.153H146.472C146.33 669.449 146.093 669.766 145.762 670.103C145.43 670.441 144.989 670.728 144.439 670.964C143.888 671.201 143.217 671.32 142.424 671.32ZM142.743 669.438C143.572 669.438 144.27 669.275 144.838 668.949C145.412 668.624 145.844 668.203 146.134 667.689C146.43 667.174 146.578 666.632 146.578 666.064V664.146C146.49 664.253 146.294 664.35 145.992 664.439C145.697 664.522 145.353 664.596 144.963 664.661C144.578 664.72 144.202 664.774 143.835 664.821C143.474 664.862 143.181 664.898 142.956 664.928C142.412 664.999 141.903 665.114 141.429 665.274C140.962 665.428 140.583 665.661 140.293 665.975C140.009 666.283 139.867 666.703 139.867 667.236C139.867 667.964 140.136 668.514 140.675 668.887C141.219 669.254 141.909 669.438 142.743 669.438ZM152.498 671V657.364H154.522V659.423H154.664C154.912 658.749 155.362 658.201 156.013 657.781C156.664 657.361 157.398 657.151 158.215 657.151C158.369 657.151 158.561 657.154 158.792 657.159C159.023 657.165 159.198 657.174 159.316 657.186V659.317C159.245 659.299 159.082 659.272 158.828 659.237C158.579 659.195 158.316 659.175 158.037 659.175C157.375 659.175 156.783 659.314 156.262 659.592C155.747 659.864 155.339 660.243 155.037 660.728C154.741 661.208 154.593 661.755 154.593 662.371V671H152.498ZM166.924 671.284C165.646 671.284 164.545 670.982 163.622 670.379C162.698 669.775 161.988 668.943 161.491 667.884C160.994 666.824 160.745 665.614 160.745 664.253C160.745 662.868 161 661.646 161.509 660.586C162.024 659.521 162.74 658.689 163.657 658.092C164.58 657.488 165.658 657.186 166.889 657.186C167.847 657.186 168.712 657.364 169.481 657.719C170.25 658.074 170.881 658.571 171.372 659.21C171.863 659.849 172.168 660.595 172.286 661.447H170.191C170.031 660.826 169.676 660.276 169.126 659.796C168.581 659.311 167.847 659.068 166.924 659.068C166.107 659.068 165.391 659.281 164.776 659.707C164.166 660.128 163.69 660.722 163.346 661.492C163.009 662.255 162.84 663.152 162.84 664.182C162.84 665.235 163.006 666.153 163.338 666.934C163.675 667.715 164.148 668.322 164.758 668.754C165.374 669.186 166.096 669.402 166.924 669.402C167.469 669.402 167.963 669.307 168.407 669.118C168.851 668.929 169.227 668.656 169.534 668.301C169.842 667.946 170.061 667.52 170.191 667.023H172.286C172.168 667.828 171.875 668.553 171.407 669.198C170.946 669.837 170.333 670.346 169.57 670.725C168.812 671.098 167.93 671.284 166.924 671.284ZM177.444 662.797V671H175.349V652.818H177.444V659.494H177.622C177.942 658.79 178.421 658.231 179.06 657.816C179.705 657.396 180.564 657.186 181.635 657.186C182.564 657.186 183.378 657.373 184.076 657.745C184.775 658.112 185.316 658.678 185.701 659.441C186.091 660.199 186.287 661.163 186.287 662.335V671H184.192V662.477C184.192 661.394 183.91 660.557 183.348 659.965C182.792 659.367 182.019 659.068 181.031 659.068C180.345 659.068 179.729 659.213 179.184 659.503C178.646 659.793 178.22 660.216 177.906 660.773C177.598 661.329 177.444 662.004 177.444 662.797Z" fill="#2F2E2E"/>
<path d="M51.3555 613.086H53.7227C54.625 613.086 55.3164 612.535 55.5273 611.668L56.0312 609.477L56.4062 609.348L58.3164 610.52C59.0781 611 59.957 610.883 60.6016 610.238L62.2422 608.609C62.8867 607.965 63.0039 607.074 62.5234 606.324L61.3281 604.426L61.4688 604.074L63.6602 603.559C64.5156 603.348 65.0781 602.645 65.0781 601.754V599.434C65.0781 598.543 64.5273 597.84 63.6602 597.629L61.4922 597.102L61.3398 596.727L62.5352 594.828C63.0156 594.078 62.8984 593.199 62.2539 592.543L60.6133 590.902C59.9805 590.27 59.1016 590.152 58.3398 590.621L56.4297 591.793L56.0312 591.641L55.5273 589.449C55.3164 588.582 54.625 588.031 53.7227 588.031H51.3555C50.4531 588.031 49.7617 588.582 49.5508 589.449L49.0352 591.641L48.6367 591.793L46.7383 590.621C45.9766 590.152 45.0859 590.27 44.4531 590.902L42.8242 592.543C42.1797 593.199 42.0508 594.078 42.543 594.828L43.7266 596.727L43.5859 597.102L41.418 597.629C40.5508 597.84 40 598.543 40 599.434V601.754C40 602.645 40.5625 603.348 41.418 603.559L43.6094 604.074L43.7383 604.426L42.5547 606.324C42.0625 607.074 42.1914 607.965 42.8359 608.609L44.4648 610.238C45.1094 610.883 46 611 46.7617 610.52L48.6602 609.348L49.0352 609.477L49.5508 611.668C49.7617 612.535 50.4531 613.086 51.3555 613.086ZM51.543 611.258C51.3438 611.258 51.2383 611.176 51.2031 610.988L50.5 608.082C49.7852 607.906 49.1172 607.625 48.6133 607.309L46.0586 608.879C45.918 608.984 45.7656 608.961 45.625 608.82L44.2422 607.438C44.1133 607.309 44.1016 607.168 44.1953 607.004L45.7656 604.473C45.4961 603.98 45.1914 603.312 45.0039 602.598L42.0977 601.906C41.9102 601.871 41.8281 601.766 41.8281 601.566V599.609C41.8281 599.398 41.8984 599.305 42.0977 599.27L44.9922 598.566C45.1797 597.805 45.5312 597.113 45.7422 596.68L44.1836 594.148C44.0781 593.973 44.0898 593.832 44.2188 593.691L45.6133 592.332C45.7539 592.191 45.8828 592.168 46.0586 592.273L48.5898 593.809C49.0938 593.527 49.8086 593.234 50.5117 593.035L51.2031 590.129C51.2383 589.941 51.3438 589.859 51.543 589.859H53.5352C53.7344 589.859 53.8398 589.941 53.8633 590.129L54.5781 593.059C55.3047 593.246 55.9375 593.539 56.4648 593.82L59.0078 592.273C59.1953 592.168 59.3125 592.191 59.4648 592.332L60.8477 593.691C60.9883 593.832 60.9883 593.973 60.8828 594.148L59.3242 596.68C59.5469 597.113 59.8867 597.805 60.0742 598.566L62.9805 599.27C63.168 599.305 63.25 599.398 63.25 599.609V601.566C63.25 601.766 63.1562 601.871 62.9805 601.906L60.0625 602.598C59.875 603.312 59.582 603.98 59.3008 604.473L60.8711 607.004C60.9648 607.168 60.9648 607.309 60.8242 607.438L59.4531 608.82C59.3008 608.961 59.1602 608.984 59.0078 608.879L56.4531 607.309C55.9492 607.625 55.293 607.906 54.5781 608.082L53.8633 610.988C53.8398 611.176 53.7344 611.258 53.5352 611.258H51.543ZM52.5391 605.035C54.9883 605.035 57.0039 603.02 57.0039 600.559C57.0039 598.121 54.9883 596.105 52.5391 596.105C50.0898 596.105 48.0625 598.121 48.0625 600.559C48.0625 603.008 50.0781 605.035 52.5391 605.035ZM52.5391 603.219C51.0859 603.219 49.8906 602.023 49.8906 600.559C49.8906 599.117 51.0859 597.922 52.5391 597.922C53.9688 597.922 55.1641 599.117 55.1641 600.559C55.1641 602.012 53.9688 603.219 52.5391 603.219Z" stroke="#2F2E2E"/>
<path d="M112.145 591.364C112.038 590.464 111.606 589.766 110.849 589.268C110.091 588.771 109.162 588.523 108.061 588.523C107.256 588.523 106.552 588.653 105.948 588.913C105.35 589.174 104.883 589.532 104.545 589.988C104.214 590.443 104.048 590.961 104.048 591.541C104.048 592.027 104.164 592.444 104.395 592.793C104.631 593.136 104.933 593.423 105.3 593.654C105.667 593.879 106.052 594.065 106.454 594.213C106.857 594.355 107.227 594.471 107.564 594.56L109.411 595.057C109.884 595.181 110.411 595.353 110.991 595.572C111.577 595.791 112.136 596.09 112.669 596.468C113.207 596.841 113.651 597.321 114 597.907C114.35 598.493 114.524 599.212 114.524 600.064C114.524 601.046 114.267 601.934 113.752 602.727C113.243 603.52 112.497 604.151 111.515 604.618C110.538 605.086 109.351 605.32 107.955 605.32C106.652 605.32 105.525 605.109 104.572 604.689C103.625 604.269 102.879 603.683 102.335 602.931C101.796 602.18 101.491 601.307 101.42 600.312H103.693C103.752 600.999 103.983 601.567 104.386 602.017C104.794 602.461 105.309 602.792 105.93 603.011C106.558 603.224 107.232 603.331 107.955 603.331C108.795 603.331 109.55 603.195 110.218 602.923C110.887 602.644 111.417 602.26 111.808 601.768C112.198 601.271 112.393 600.691 112.393 600.028C112.393 599.425 112.225 598.933 111.887 598.555C111.55 598.176 111.106 597.868 110.556 597.631C110.005 597.395 109.411 597.187 108.771 597.01L106.534 596.371C105.114 595.962 103.989 595.379 103.161 594.622C102.332 593.864 101.918 592.873 101.918 591.648C101.918 590.63 102.193 589.742 102.743 588.984C103.3 588.221 104.045 587.629 104.98 587.209C105.922 586.783 106.972 586.57 108.132 586.57C109.304 586.57 110.346 586.78 111.257 587.2C112.169 587.614 112.891 588.182 113.423 588.904C113.962 589.627 114.246 590.446 114.276 591.364H112.145ZM123.577 605.284C122.263 605.284 121.13 604.994 120.177 604.414C119.23 603.828 118.499 603.011 117.984 601.964C117.475 600.91 117.221 599.685 117.221 598.288C117.221 596.892 117.475 595.661 117.984 594.595C118.499 593.524 119.215 592.689 120.133 592.092C121.056 591.488 122.133 591.186 123.364 591.186C124.074 591.186 124.776 591.304 125.468 591.541C126.161 591.778 126.791 592.163 127.359 592.695C127.927 593.222 128.38 593.92 128.718 594.79C129.055 595.661 129.224 596.732 129.224 598.004V598.892H118.712V597.081H127.093C127.093 596.312 126.939 595.625 126.631 595.021C126.329 594.418 125.897 593.941 125.335 593.592C124.779 593.243 124.122 593.068 123.364 593.068C122.53 593.068 121.808 593.275 121.198 593.69C120.594 594.098 120.13 594.631 119.804 595.288C119.479 595.945 119.316 596.649 119.316 597.401V598.608C119.316 599.638 119.494 600.511 119.849 601.227C120.21 601.937 120.71 602.479 121.349 602.852C121.988 603.219 122.731 603.402 123.577 603.402C124.128 603.402 124.625 603.325 125.069 603.171C125.519 603.011 125.906 602.775 126.232 602.461C126.557 602.141 126.809 601.745 126.986 601.271L129.011 601.839C128.797 602.526 128.439 603.13 127.936 603.651C127.433 604.165 126.812 604.568 126.072 604.858C125.332 605.142 124.501 605.284 123.577 605.284ZM138.341 591.364V593.139H131.274V591.364H138.341ZM133.334 588.097H135.429V601.094C135.429 601.686 135.515 602.129 135.687 602.425C135.864 602.715 136.089 602.911 136.361 603.011C136.64 603.106 136.933 603.153 137.24 603.153C137.471 603.153 137.661 603.142 137.809 603.118C137.956 603.088 138.075 603.065 138.164 603.047L138.59 604.929C138.448 604.982 138.249 605.036 137.995 605.089C137.74 605.148 137.418 605.178 137.027 605.178C136.435 605.178 135.855 605.05 135.287 604.796C134.725 604.541 134.257 604.154 133.884 603.633C133.518 603.112 133.334 602.455 133.334 601.662V588.097ZM147.423 591.364V593.139H140.356V591.364H147.423ZM142.416 588.097H144.511V601.094C144.511 601.686 144.597 602.129 144.769 602.425C144.946 602.715 145.171 602.911 145.443 603.011C145.722 603.106 146.015 603.153 146.322 603.153C146.553 603.153 146.743 603.142 146.891 603.118C147.039 603.088 147.157 603.065 147.246 603.047L147.672 604.929C147.53 604.982 147.331 605.036 147.077 605.089C146.822 605.148 146.5 605.178 146.109 605.178C145.517 605.178 144.937 605.05 144.369 604.796C143.807 604.541 143.339 604.154 142.967 603.633C142.6 603.112 142.416 602.455 142.416 601.662V588.097ZM150.575 605V591.364H152.67V605H150.575ZM151.64 589.091C151.232 589.091 150.88 588.952 150.584 588.674C150.294 588.395 150.149 588.061 150.149 587.67C150.149 587.28 150.294 586.945 150.584 586.667C150.88 586.389 151.232 586.25 151.64 586.25C152.049 586.25 152.398 586.389 152.688 586.667C152.984 586.945 153.132 587.28 153.132 587.67C153.132 588.061 152.984 588.395 152.688 588.674C152.398 588.952 152.049 589.091 151.64 589.091ZM158.603 596.797V605H156.507V591.364H158.532V593.494H158.709C159.029 592.802 159.514 592.246 160.165 591.825C160.816 591.399 161.657 591.186 162.686 591.186C163.61 591.186 164.418 591.375 165.11 591.754C165.803 592.127 166.341 592.695 166.726 593.459C167.111 594.216 167.303 595.175 167.303 596.335V605H165.208V596.477C165.208 595.406 164.93 594.571 164.373 593.974C163.817 593.37 163.053 593.068 162.083 593.068C161.414 593.068 160.816 593.213 160.289 593.503C159.769 593.793 159.357 594.216 159.055 594.773C158.754 595.329 158.603 596.004 158.603 596.797ZM176.636 610.398C175.624 610.398 174.754 610.268 174.026 610.007C173.298 609.753 172.691 609.415 172.206 608.995C171.726 608.581 171.345 608.137 171.06 607.663L172.729 606.491C172.919 606.74 173.159 607.024 173.449 607.344C173.739 607.669 174.135 607.95 174.638 608.187C175.147 608.43 175.813 608.551 176.636 608.551C177.737 608.551 178.645 608.285 179.361 607.752C180.077 607.219 180.435 606.385 180.435 605.249V602.479H180.258C180.104 602.727 179.885 603.035 179.601 603.402C179.323 603.763 178.92 604.086 178.394 604.37C177.873 604.648 177.168 604.787 176.281 604.787C175.18 604.787 174.191 604.527 173.315 604.006C172.445 603.485 171.756 602.727 171.247 601.733C170.744 600.739 170.492 599.531 170.492 598.111C170.492 596.714 170.738 595.498 171.229 594.462C171.72 593.42 172.404 592.615 173.28 592.047C174.156 591.473 175.168 591.186 176.316 591.186C177.204 591.186 177.908 591.334 178.429 591.63C178.956 591.92 179.358 592.251 179.636 592.624C179.921 592.991 180.14 593.293 180.293 593.53H180.506V591.364H182.531V605.391C182.531 606.562 182.264 607.515 181.732 608.249C181.205 608.989 180.495 609.531 179.601 609.874C178.713 610.223 177.725 610.398 176.636 610.398ZM176.565 602.905C177.405 602.905 178.115 602.712 178.695 602.328C179.275 601.943 179.716 601.39 180.018 600.668C180.32 599.946 180.471 599.081 180.471 598.075C180.471 597.093 180.323 596.226 180.027 595.474C179.731 594.722 179.293 594.134 178.713 593.707C178.133 593.281 177.417 593.068 176.565 593.068C175.677 593.068 174.937 593.293 174.345 593.743C173.759 594.193 173.318 594.796 173.022 595.554C172.732 596.312 172.587 597.152 172.587 598.075C172.587 599.022 172.735 599.86 173.031 600.588C173.333 601.31 173.777 601.878 174.363 602.292C174.955 602.701 175.689 602.905 176.565 602.905ZM196.025 594.418L194.143 594.95C194.024 594.637 193.85 594.332 193.619 594.036C193.394 593.734 193.086 593.485 192.696 593.29C192.305 593.095 191.805 592.997 191.195 592.997C190.361 592.997 189.665 593.19 189.109 593.574C188.559 593.953 188.283 594.435 188.283 595.021C188.283 595.542 188.473 595.953 188.852 596.255C189.23 596.557 189.822 596.809 190.627 597.01L192.651 597.507C193.871 597.803 194.779 598.256 195.377 598.865C195.975 599.469 196.274 600.247 196.274 601.2C196.274 601.982 196.049 602.68 195.599 603.295C195.155 603.911 194.533 604.396 193.734 604.751C192.935 605.107 192.006 605.284 190.947 605.284C189.556 605.284 188.405 604.982 187.493 604.379C186.582 603.775 186.005 602.893 185.762 601.733L187.751 601.236C187.94 601.97 188.298 602.52 188.825 602.887C189.358 603.254 190.053 603.438 190.911 603.438C191.888 603.438 192.663 603.23 193.237 602.816C193.817 602.396 194.107 601.893 194.107 601.307C194.107 600.833 193.942 600.437 193.61 600.117C193.279 599.792 192.77 599.549 192.083 599.389L189.81 598.857C188.562 598.561 187.644 598.102 187.058 597.48C186.478 596.853 186.188 596.069 186.188 595.128C186.188 594.358 186.404 593.678 186.836 593.086C187.274 592.494 187.869 592.029 188.621 591.692C189.378 591.355 190.237 591.186 191.195 591.186C192.545 591.186 193.604 591.482 194.374 592.074C195.149 592.666 195.699 593.447 196.025 594.418Z" fill="#2F2E2E"/>
<path d="M45.6797 487.363H59.8945C62.3555 487.363 63.5742 486.145 63.5742 483.73V469.422C63.5742 467.008 62.3555 465.789 59.8945 465.789H45.6797C43.2305 465.789 42 466.996 42 469.422V483.73C42 486.156 43.2305 487.363 45.6797 487.363ZM43.8867 483.637V469.516C43.8867 468.297 44.5312 467.676 45.7031 467.676H59.8711C61.0312 467.676 61.6875 468.297 61.6875 469.516V483.637C61.6875 484.551 61.3125 485.137 60.6328 485.359C59.6133 482.488 56.5195 480.484 52.793 480.484C49.0547 480.484 45.9727 482.488 44.9531 485.371C44.2617 485.137 43.8867 484.551 43.8867 483.637ZM52.793 478.527C55.0312 478.551 56.7891 476.641 56.7891 474.133C56.7891 471.777 55.0312 469.832 52.793 469.832C50.5547 469.832 48.7734 471.777 48.7852 474.133C48.7969 476.641 50.5547 478.504 52.793 478.527Z" stroke="#2F2E2E"/>
<path d="M101.311 481V462.818H107.455C108.881 462.818 110.047 463.076 110.952 463.591C111.864 464.1 112.539 464.789 112.977 465.659C113.415 466.529 113.634 467.5 113.634 468.571C113.634 469.642 113.415 470.616 112.977 471.492C112.545 472.368 111.876 473.066 110.97 473.587C110.065 474.102 108.905 474.359 107.49 474.359H103.087V472.406H107.419C108.396 472.406 109.18 472.238 109.772 471.9C110.364 471.563 110.793 471.107 111.059 470.533C111.331 469.953 111.467 469.299 111.467 468.571C111.467 467.843 111.331 467.192 111.059 466.618C110.793 466.044 110.361 465.594 109.763 465.268C109.165 464.937 108.372 464.771 107.384 464.771H103.513V481H101.311ZM116.896 481V467.364H118.92V469.423H119.062C119.311 468.749 119.761 468.201 120.412 467.781C121.063 467.361 121.797 467.151 122.613 467.151C122.767 467.151 122.96 467.154 123.191 467.159C123.421 467.165 123.596 467.174 123.714 467.186V469.317C123.643 469.299 123.481 469.272 123.226 469.237C122.977 469.195 122.714 469.175 122.436 469.175C121.773 469.175 121.181 469.314 120.66 469.592C120.145 469.864 119.737 470.243 119.435 470.728C119.139 471.208 118.991 471.755 118.991 472.371V481H116.896ZM131.323 481.284C130.092 481.284 129.011 480.991 128.082 480.405C127.159 479.819 126.437 479 125.916 477.946C125.401 476.893 125.144 475.661 125.144 474.253C125.144 472.832 125.401 471.592 125.916 470.533C126.437 469.474 127.159 468.651 128.082 468.065C129.011 467.479 130.092 467.186 131.323 467.186C132.554 467.186 133.631 467.479 134.554 468.065C135.483 468.651 136.205 469.474 136.72 470.533C137.241 471.592 137.502 472.832 137.502 474.253C137.502 475.661 137.241 476.893 136.72 477.946C136.205 479 135.483 479.819 134.554 480.405C133.631 480.991 132.554 481.284 131.323 481.284ZM131.323 479.402C132.258 479.402 133.027 479.162 133.631 478.683C134.235 478.203 134.681 477.573 134.971 476.792C135.261 476.011 135.406 475.164 135.406 474.253C135.406 473.341 135.261 472.492 134.971 471.705C134.681 470.918 134.235 470.281 133.631 469.796C133.027 469.311 132.258 469.068 131.323 469.068C130.387 469.068 129.618 469.311 129.014 469.796C128.411 470.281 127.964 470.918 127.674 471.705C127.384 472.492 127.239 473.341 127.239 474.253C127.239 475.164 127.384 476.011 127.674 476.792C127.964 477.573 128.411 478.203 129.014 478.683C129.618 479.162 130.387 479.402 131.323 479.402ZM146.772 467.364V469.139H139.421V467.364H146.772ZM141.623 481V465.482C141.623 464.7 141.807 464.049 142.174 463.528C142.541 463.008 143.017 462.617 143.603 462.357C144.189 462.096 144.807 461.966 145.458 461.966C145.973 461.966 146.393 462.007 146.719 462.09C147.045 462.173 147.287 462.25 147.447 462.321L146.843 464.132C146.737 464.097 146.589 464.052 146.399 463.999C146.216 463.946 145.973 463.919 145.671 463.919C144.979 463.919 144.479 464.094 144.171 464.443C143.869 464.792 143.718 465.304 143.718 465.979V481H141.623ZM149.709 481V467.364H151.804V481H149.709ZM150.774 465.091C150.366 465.091 150.013 464.952 149.718 464.674C149.427 464.395 149.282 464.061 149.282 463.67C149.282 463.28 149.427 462.945 149.718 462.667C150.013 462.389 150.366 462.25 150.774 462.25C151.182 462.25 151.532 462.389 151.822 462.667C152.117 462.945 152.265 463.28 152.265 463.67C152.265 464.061 152.117 464.395 151.822 464.674C151.532 464.952 151.182 465.091 150.774 465.091ZM157.736 462.818V481H155.641V462.818H157.736ZM167.291 481.284C165.977 481.284 164.844 480.994 163.891 480.414C162.944 479.828 162.213 479.011 161.698 477.964C161.189 476.91 160.935 475.685 160.935 474.288C160.935 472.892 161.189 471.661 161.698 470.595C162.213 469.524 162.929 468.689 163.847 468.092C164.77 467.488 165.847 467.186 167.078 467.186C167.788 467.186 168.49 467.304 169.182 467.541C169.875 467.778 170.505 468.163 171.073 468.695C171.641 469.222 172.094 469.92 172.431 470.79C172.769 471.661 172.938 472.732 172.938 474.004V474.892H162.426V473.081H170.807C170.807 472.312 170.653 471.625 170.345 471.021C170.043 470.418 169.611 469.941 169.049 469.592C168.493 469.243 167.836 469.068 167.078 469.068C166.244 469.068 165.522 469.275 164.912 469.69C164.308 470.098 163.844 470.631 163.518 471.288C163.193 471.945 163.03 472.649 163.03 473.401V474.608C163.03 475.638 163.207 476.511 163.562 477.227C163.924 477.937 164.424 478.479 165.063 478.852C165.702 479.219 166.445 479.402 167.291 479.402C167.842 479.402 168.339 479.325 168.783 479.171C169.232 479.011 169.62 478.775 169.946 478.461C170.271 478.141 170.523 477.745 170.7 477.271L172.724 477.839C172.511 478.526 172.153 479.13 171.65 479.651C171.147 480.165 170.526 480.568 169.786 480.858C169.046 481.142 168.214 481.284 167.291 481.284Z" fill="#2F2E2E"/>
<path d="M58.8281 535.445C61.043 535.445 62.8945 533.605 62.8945 531.379C62.8945 529.152 61.043 527.312 58.8281 527.312C56.5898 527.312 54.7617 529.152 54.7617 531.379C54.7617 533.605 56.5898 535.445 58.8281 535.445ZM43.7695 547.375H55.5703C55.4766 548.957 54.4688 549.965 53.0508 549.965C51.6445 549.965 50.625 548.957 50.543 547.375H48.7148C48.8086 549.625 50.5781 551.605 53.0508 551.605C55.5352 551.605 57.3047 549.625 57.3984 547.375H62.3438C63.4453 547.375 64.1133 546.801 64.1133 545.957C64.1133 544.785 62.918 543.73 61.9102 542.688C61.1367 541.879 60.9258 540.215 60.832 538.867C60.8203 538.082 60.7617 537.367 60.6914 536.676C60.1406 536.863 59.4141 536.969 58.8398 536.934C58.9102 537.555 58.957 538.234 58.9688 539.008C59.0742 541.305 59.4727 542.805 60.3047 543.742C60.9258 544.434 61.6172 545.113 61.8281 545.465V545.605H44.2734V545.465C44.4844 545.113 45.1875 544.434 45.7969 543.742C46.6406 542.805 47.0391 541.305 47.1445 539.008C47.2383 533.898 48.7617 532.258 50.7656 531.719C51.0586 531.648 51.2227 531.496 51.2344 531.203C51.2695 529.973 51.9727 529.117 53.0508 529.117C53.2617 529.117 53.4609 529.152 53.625 529.211C53.8477 528.672 54.1406 528.168 54.5156 527.723C54.082 527.523 53.5898 527.395 53.0508 527.395C51.3281 527.395 50.0625 528.613 49.6758 530.137C46.5586 531.262 45.3633 534.25 45.2812 538.867C45.1875 540.215 44.9766 541.879 44.2031 542.688C43.1836 543.73 42 544.785 42 545.957C42 546.801 42.6562 547.375 43.7695 547.375Z" stroke="#2F2E2E"/>
<path d="M117.233 524.818V543H115.102L105.194 528.724H105.017V543H102.815V524.818H104.946L114.889 539.129H115.066V524.818H117.233ZM126.894 543.284C125.663 543.284 124.583 542.991 123.653 542.405C122.73 541.819 122.008 541 121.487 539.946C120.972 538.893 120.715 537.661 120.715 536.253C120.715 534.832 120.972 533.592 121.487 532.533C122.008 531.474 122.73 530.651 123.653 530.065C124.583 529.479 125.663 529.186 126.894 529.186C128.125 529.186 129.202 529.479 130.125 530.065C131.055 530.651 131.777 531.474 132.292 532.533C132.812 533.592 133.073 534.832 133.073 536.253C133.073 537.661 132.812 538.893 132.292 539.946C131.777 541 131.055 541.819 130.125 542.405C129.202 542.991 128.125 543.284 126.894 543.284ZM126.894 541.402C127.829 541.402 128.598 541.162 129.202 540.683C129.806 540.203 130.253 539.573 130.543 538.792C130.833 538.011 130.978 537.164 130.978 536.253C130.978 535.341 130.833 534.492 130.543 533.705C130.253 532.918 129.806 532.281 129.202 531.796C128.598 531.311 127.829 531.068 126.894 531.068C125.959 531.068 125.189 531.311 124.586 531.796C123.982 532.281 123.535 532.918 123.245 533.705C122.955 534.492 122.81 535.341 122.81 536.253C122.81 537.164 122.955 538.011 123.245 538.792C123.535 539.573 123.982 540.203 124.586 540.683C125.189 541.162 125.959 541.402 126.894 541.402ZM142.202 529.364V531.139H135.135V529.364H142.202ZM137.194 526.097H139.29V539.094C139.29 539.686 139.375 540.129 139.547 540.425C139.725 540.715 139.95 540.911 140.222 541.011C140.5 541.106 140.793 541.153 141.101 541.153C141.331 541.153 141.521 541.142 141.669 541.118C141.817 541.088 141.935 541.065 142.024 541.047L142.45 542.929C142.308 542.982 142.11 543.036 141.855 543.089C141.601 543.148 141.278 543.178 140.888 543.178C140.296 543.178 139.716 543.05 139.148 542.796C138.585 542.541 138.118 542.154 137.745 541.633C137.378 541.112 137.194 540.455 137.194 539.662V526.097ZM145.353 543V529.364H147.448V543H145.353ZM146.419 527.091C146.01 527.091 145.658 526.952 145.362 526.674C145.072 526.395 144.927 526.061 144.927 525.67C144.927 525.28 145.072 524.945 145.362 524.667C145.658 524.389 146.01 524.25 146.419 524.25C146.827 524.25 147.176 524.389 147.466 524.667C147.762 524.945 147.91 525.28 147.91 525.67C147.91 526.061 147.762 526.395 147.466 526.674C147.176 526.952 146.827 527.091 146.419 527.091ZM157.358 529.364V531.139H150.007V529.364H157.358ZM152.209 543V527.482C152.209 526.7 152.393 526.049 152.759 525.528C153.126 525.008 153.603 524.617 154.189 524.357C154.775 524.096 155.393 523.966 156.044 523.966C156.559 523.966 156.979 524.007 157.305 524.09C157.63 524.173 157.873 524.25 158.033 524.321L157.429 526.132C157.323 526.097 157.175 526.052 156.985 525.999C156.802 525.946 156.559 525.919 156.257 525.919C155.565 525.919 155.065 526.094 154.757 526.443C154.455 526.792 154.304 527.304 154.304 527.979V543H152.209ZM160.295 543V529.364H162.39V543H160.295ZM161.36 527.091C160.952 527.091 160.599 526.952 160.303 526.674C160.013 526.395 159.868 526.061 159.868 525.67C159.868 525.28 160.013 524.945 160.303 524.667C160.599 524.389 160.952 524.25 161.36 524.25C161.768 524.25 162.117 524.389 162.407 524.667C162.703 524.945 162.851 525.28 162.851 525.67C162.851 526.061 162.703 526.395 162.407 526.674C162.117 526.952 161.768 527.091 161.36 527.091ZM171.767 543.284C170.489 543.284 169.388 542.982 168.464 542.379C167.541 541.775 166.831 540.943 166.334 539.884C165.837 538.824 165.588 537.614 165.588 536.253C165.588 534.868 165.842 533.646 166.351 532.586C166.866 531.521 167.583 530.689 168.5 530.092C169.423 529.488 170.5 529.186 171.731 529.186C172.69 529.186 173.554 529.364 174.324 529.719C175.093 530.074 175.724 530.571 176.215 531.21C176.706 531.849 177.011 532.595 177.129 533.447H175.034C174.874 532.826 174.519 532.276 173.969 531.796C173.424 531.311 172.69 531.068 171.767 531.068C170.95 531.068 170.234 531.281 169.619 531.707C169.009 532.128 168.532 532.722 168.189 533.492C167.852 534.255 167.683 535.152 167.683 536.182C167.683 537.235 167.849 538.153 168.18 538.934C168.518 539.715 168.991 540.322 169.601 540.754C170.216 541.186 170.938 541.402 171.767 541.402C172.311 541.402 172.806 541.307 173.25 541.118C173.693 540.929 174.069 540.656 174.377 540.301C174.685 539.946 174.904 539.52 175.034 539.023H177.129C177.011 539.828 176.718 540.553 176.25 541.198C175.789 541.837 175.176 542.346 174.413 542.725C173.655 543.098 172.773 543.284 171.767 543.284ZM184.205 543.32C183.341 543.32 182.556 543.157 181.852 542.831C181.148 542.5 180.589 542.023 180.174 541.402C179.76 540.775 179.553 540.017 179.553 539.129C179.553 538.348 179.707 537.715 180.014 537.229C180.322 536.738 180.734 536.353 181.248 536.075C181.763 535.797 182.332 535.59 182.953 535.454C183.58 535.312 184.211 535.199 184.844 535.116C185.673 535.01 186.344 534.93 186.859 534.877C187.38 534.818 187.759 534.72 187.996 534.584C188.238 534.448 188.36 534.211 188.36 533.874V533.803C188.36 532.927 188.12 532.246 187.641 531.761C187.167 531.275 186.448 531.033 185.483 531.033C184.483 531.033 183.699 531.252 183.131 531.69C182.562 532.128 182.163 532.595 181.932 533.092L179.943 532.382C180.299 531.554 180.772 530.908 181.364 530.447C181.962 529.979 182.613 529.654 183.317 529.47C184.027 529.281 184.726 529.186 185.412 529.186C185.85 529.186 186.353 529.239 186.921 529.346C187.496 529.446 188.049 529.657 188.582 529.976C189.12 530.296 189.567 530.778 189.922 531.423C190.277 532.068 190.455 532.933 190.455 534.016V543H188.36V541.153H188.253C188.111 541.449 187.874 541.766 187.543 542.103C187.211 542.441 186.771 542.728 186.22 542.964C185.67 543.201 184.998 543.32 184.205 543.32ZM184.524 541.438C185.353 541.438 186.051 541.275 186.62 540.949C187.194 540.624 187.626 540.203 187.916 539.689C188.212 539.174 188.36 538.632 188.36 538.064V536.146C188.271 536.253 188.076 536.35 187.774 536.439C187.478 536.522 187.134 536.596 186.744 536.661C186.359 536.72 185.983 536.774 185.616 536.821C185.255 536.862 184.962 536.898 184.737 536.928C184.193 536.999 183.684 537.114 183.21 537.274C182.743 537.428 182.364 537.661 182.074 537.975C181.79 538.283 181.648 538.703 181.648 539.236C181.648 539.964 181.917 540.514 182.456 540.887C183 541.254 183.69 541.438 184.524 541.438ZM200.209 529.364V531.139H193.143V529.364H200.209ZM195.202 526.097H197.297V539.094C197.297 539.686 197.383 540.129 197.555 540.425C197.732 540.715 197.957 540.911 198.23 541.011C198.508 541.106 198.801 541.153 199.108 541.153C199.339 541.153 199.529 541.142 199.677 541.118C199.825 541.088 199.943 541.065 200.032 541.047L200.458 542.929C200.316 542.982 200.118 543.036 199.863 543.089C199.609 543.148 199.286 543.178 198.895 543.178C198.304 543.178 197.724 543.05 197.155 542.796C196.593 542.541 196.126 542.154 195.753 541.633C195.386 541.112 195.202 540.455 195.202 539.662V526.097ZM203.361 543V529.364H205.456V543H203.361ZM204.426 527.091C204.018 527.091 203.666 526.952 203.37 526.674C203.08 526.395 202.935 526.061 202.935 525.67C202.935 525.28 203.08 524.945 203.37 524.667C203.666 524.389 204.018 524.25 204.426 524.25C204.835 524.25 205.184 524.389 205.474 524.667C205.77 524.945 205.918 525.28 205.918 525.67C205.918 526.061 205.77 526.395 205.474 526.674C205.184 526.952 204.835 527.091 204.426 527.091ZM214.833 543.284C213.602 543.284 212.522 542.991 211.593 542.405C210.67 541.819 209.948 541 209.427 539.946C208.912 538.893 208.654 537.661 208.654 536.253C208.654 534.832 208.912 533.592 209.427 532.533C209.948 531.474 210.67 530.651 211.593 530.065C212.522 529.479 213.602 529.186 214.833 529.186C216.064 529.186 217.142 529.479 218.065 530.065C218.994 530.651 219.716 531.474 220.231 532.533C220.752 533.592 221.012 534.832 221.012 536.253C221.012 537.661 220.752 538.893 220.231 539.946C219.716 541 218.994 541.819 218.065 542.405C217.142 542.991 216.064 543.284 214.833 543.284ZM214.833 541.402C215.768 541.402 216.538 541.162 217.142 540.683C217.745 540.203 218.192 539.573 218.482 538.792C218.772 538.011 218.917 537.164 218.917 536.253C218.917 535.341 218.772 534.492 218.482 533.705C218.192 532.918 217.745 532.281 217.142 531.796C216.538 531.311 215.768 531.068 214.833 531.068C213.898 531.068 213.129 531.311 212.525 531.796C211.921 532.281 211.475 532.918 211.185 533.705C210.895 534.492 210.75 535.341 210.75 536.253C210.75 537.164 210.895 538.011 211.185 538.792C211.475 539.573 211.921 540.203 212.525 540.683C213.129 541.162 213.898 541.402 214.833 541.402ZM226.306 534.797V543H224.211V529.364H226.235V531.494H226.412C226.732 530.802 227.217 530.246 227.868 529.825C228.519 529.399 229.36 529.186 230.39 529.186C231.313 529.186 232.121 529.375 232.813 529.754C233.506 530.127 234.044 530.695 234.429 531.459C234.814 532.216 235.006 533.175 235.006 534.335V543H232.911V534.477C232.911 533.406 232.633 532.571 232.076 531.974C231.52 531.37 230.757 531.068 229.786 531.068C229.117 531.068 228.519 531.213 227.993 531.503C227.472 531.793 227.06 532.216 226.759 532.773C226.457 533.329 226.306 534.004 226.306 534.797ZM248.494 532.418L246.612 532.95C246.493 532.637 246.319 532.332 246.088 532.036C245.863 531.734 245.555 531.485 245.165 531.29C244.774 531.095 244.274 530.997 243.664 530.997C242.83 530.997 242.134 531.19 241.578 531.574C241.027 531.953 240.752 532.435 240.752 533.021C240.752 533.542 240.942 533.953 241.32 534.255C241.699 534.557 242.291 534.809 243.096 535.01L245.12 535.507C246.339 535.803 247.248 536.256 247.846 536.865C248.443 537.469 248.742 538.247 248.742 539.2C248.742 539.982 248.517 540.68 248.068 541.295C247.624 541.911 247.002 542.396 246.203 542.751C245.404 543.107 244.475 543.284 243.416 543.284C242.025 543.284 240.874 542.982 239.962 542.379C239.051 541.775 238.474 540.893 238.231 539.733L240.22 539.236C240.409 539.97 240.767 540.52 241.294 540.887C241.826 541.254 242.522 541.438 243.38 541.438C244.357 541.438 245.132 541.23 245.706 540.816C246.286 540.396 246.576 539.893 246.576 539.307C246.576 538.833 246.41 538.437 246.079 538.117C245.747 537.792 245.238 537.549 244.552 537.389L242.279 536.857C241.03 536.561 240.113 536.102 239.527 535.48C238.947 534.853 238.657 534.069 238.657 533.128C238.657 532.358 238.873 531.678 239.305 531.086C239.743 530.494 240.338 530.029 241.09 529.692C241.847 529.355 242.705 529.186 243.664 529.186C245.014 529.186 246.073 529.482 246.842 530.074C247.618 530.666 248.168 531.447 248.494 532.418Z" fill="#2F2E2E"/>
<path d="M105.202 711.818H107.83L114.009 726.911H114.222L120.401 711.818H123.028V730H120.969V716.186H120.791L115.109 730H113.121L107.439 716.186H107.261V730H105.202V711.818ZM132.876 730.284C131.562 730.284 130.429 729.994 129.476 729.414C128.529 728.828 127.798 728.011 127.283 726.964C126.774 725.91 126.52 724.685 126.52 723.288C126.52 721.892 126.774 720.661 127.283 719.595C127.798 718.524 128.514 717.689 129.432 717.092C130.355 716.488 131.432 716.186 132.663 716.186C133.373 716.186 134.075 716.304 134.767 716.541C135.46 716.778 136.09 717.163 136.658 717.695C137.226 718.222 137.679 718.92 138.016 719.79C138.354 720.661 138.522 721.732 138.522 723.004V723.892H128.011V722.081H136.392C136.392 721.312 136.238 720.625 135.93 720.021C135.628 719.418 135.196 718.941 134.634 718.592C134.078 718.243 133.421 718.068 132.663 718.068C131.829 718.068 131.107 718.275 130.497 718.69C129.893 719.098 129.429 719.631 129.103 720.288C128.778 720.945 128.615 721.649 128.615 722.401V723.608C128.615 724.638 128.792 725.511 129.147 726.227C129.508 726.937 130.009 727.479 130.648 727.852C131.287 728.219 132.03 728.402 132.876 728.402C133.427 728.402 133.924 728.325 134.368 728.171C134.817 728.011 135.205 727.775 135.531 727.461C135.856 727.141 136.108 726.745 136.285 726.271L138.309 726.839C138.096 727.526 137.738 728.13 137.235 728.651C136.732 729.165 136.111 729.568 135.371 729.858C134.631 730.142 133.799 730.284 132.876 730.284ZM151.369 719.418L149.487 719.95C149.368 719.637 149.194 719.332 148.963 719.036C148.738 718.734 148.43 718.485 148.04 718.29C147.649 718.095 147.149 717.997 146.539 717.997C145.705 717.997 145.009 718.19 144.453 718.574C143.902 718.953 143.627 719.435 143.627 720.021C143.627 720.542 143.817 720.953 144.195 721.255C144.574 721.557 145.166 721.809 145.971 722.01L147.995 722.507C149.214 722.803 150.123 723.256 150.721 723.865C151.318 724.469 151.617 725.247 151.617 726.2C151.617 726.982 151.392 727.68 150.943 728.295C150.499 728.911 149.877 729.396 149.078 729.751C148.279 730.107 147.35 730.284 146.291 730.284C144.9 730.284 143.749 729.982 142.837 729.379C141.926 728.775 141.349 727.893 141.106 726.733L143.095 726.236C143.284 726.97 143.642 727.52 144.169 727.887C144.701 728.254 145.397 728.438 146.255 728.438C147.232 728.438 148.007 728.23 148.581 727.816C149.161 727.396 149.451 726.893 149.451 726.307C149.451 725.833 149.285 725.437 148.954 725.117C148.622 724.792 148.113 724.549 147.427 724.389L145.154 723.857C143.905 723.561 142.988 723.102 142.402 722.48C141.822 721.853 141.532 721.069 141.532 720.128C141.532 719.358 141.748 718.678 142.18 718.086C142.618 717.494 143.213 717.029 143.965 716.692C144.722 716.355 145.58 716.186 146.539 716.186C147.889 716.186 148.948 716.482 149.717 717.074C150.493 717.666 151.043 718.447 151.369 719.418ZM164.43 719.418L162.548 719.95C162.43 719.637 162.255 719.332 162.024 719.036C161.799 718.734 161.492 718.485 161.101 718.29C160.71 718.095 160.21 717.997 159.601 717.997C158.766 717.997 158.071 718.19 157.514 718.574C156.964 718.953 156.689 719.435 156.689 720.021C156.689 720.542 156.878 720.953 157.257 721.255C157.636 721.557 158.228 721.809 159.032 722.01L161.057 722.507C162.276 722.803 163.184 723.256 163.782 723.865C164.38 724.469 164.679 725.247 164.679 726.2C164.679 726.982 164.454 727.68 164.004 728.295C163.56 728.911 162.939 729.396 162.14 729.751C161.341 730.107 160.412 730.284 159.352 730.284C157.961 730.284 156.81 729.982 155.899 729.379C154.987 728.775 154.41 727.893 154.167 726.733L156.156 726.236C156.345 726.97 156.704 727.52 157.23 727.887C157.763 728.254 158.458 728.438 159.317 728.438C160.293 728.438 161.068 728.23 161.643 727.816C162.223 727.396 162.513 726.893 162.513 726.307C162.513 725.833 162.347 725.437 162.015 725.117C161.684 724.792 161.175 724.549 160.488 724.389L158.216 723.857C156.967 723.561 156.05 723.102 155.464 722.48C154.884 721.853 154.594 721.069 154.594 720.128C154.594 719.358 154.81 718.678 155.242 718.086C155.68 717.494 156.274 717.029 157.026 716.692C157.784 716.355 158.642 716.186 159.601 716.186C160.95 716.186 162.01 716.482 162.779 717.074C163.554 717.666 164.105 718.447 164.43 719.418ZM171.845 730.32C170.981 730.32 170.197 730.157 169.493 729.831C168.789 729.5 168.229 729.023 167.815 728.402C167.401 727.775 167.193 727.017 167.193 726.129C167.193 725.348 167.347 724.715 167.655 724.229C167.963 723.738 168.374 723.353 168.889 723.075C169.404 722.797 169.972 722.59 170.594 722.454C171.221 722.312 171.851 722.199 172.485 722.116C173.313 722.01 173.985 721.93 174.5 721.877C175.021 721.818 175.4 721.72 175.636 721.584C175.879 721.448 176 721.211 176 720.874V720.803C176 719.927 175.761 719.246 175.281 718.761C174.808 718.275 174.089 718.033 173.124 718.033C172.124 718.033 171.339 718.252 170.771 718.69C170.203 719.128 169.804 719.595 169.573 720.092L167.584 719.382C167.939 718.554 168.413 717.908 169.005 717.447C169.602 716.979 170.253 716.654 170.958 716.47C171.668 716.281 172.366 716.186 173.053 716.186C173.491 716.186 173.994 716.239 174.562 716.346C175.136 716.446 175.69 716.657 176.222 716.976C176.761 717.296 177.208 717.778 177.563 718.423C177.918 719.068 178.095 719.933 178.095 721.016V730H176V728.153H175.894C175.752 728.449 175.515 728.766 175.184 729.103C174.852 729.441 174.411 729.728 173.861 729.964C173.31 730.201 172.639 730.32 171.845 730.32ZM172.165 728.438C172.994 728.438 173.692 728.275 174.26 727.949C174.834 727.624 175.266 727.203 175.556 726.689C175.852 726.174 176 725.632 176 725.064V723.146C175.911 723.253 175.716 723.35 175.414 723.439C175.118 723.522 174.775 723.596 174.384 723.661C174 723.72 173.624 723.774 173.257 723.821C172.896 723.862 172.603 723.898 172.378 723.928C171.834 723.999 171.325 724.114 170.851 724.274C170.384 724.428 170.005 724.661 169.715 724.975C169.431 725.283 169.289 725.703 169.289 726.236C169.289 726.964 169.558 727.514 170.097 727.887C170.641 728.254 171.331 728.438 172.165 728.438ZM187.424 735.398C186.412 735.398 185.542 735.268 184.814 735.007C184.086 734.753 183.479 734.415 182.994 733.995C182.514 733.581 182.133 733.137 181.849 732.663L183.518 731.491C183.707 731.74 183.947 732.024 184.237 732.344C184.527 732.669 184.923 732.95 185.426 733.187C185.935 733.43 186.601 733.551 187.424 733.551C188.525 733.551 189.433 733.285 190.149 732.752C190.865 732.219 191.224 731.385 191.224 730.249V727.479H191.046C190.892 727.727 190.673 728.035 190.389 728.402C190.111 728.763 189.708 729.086 189.182 729.37C188.661 729.648 187.956 729.787 187.069 729.787C185.968 729.787 184.979 729.527 184.104 729.006C183.233 728.485 182.544 727.727 182.035 726.733C181.532 725.739 181.28 724.531 181.28 723.111C181.28 721.714 181.526 720.498 182.017 719.462C182.508 718.42 183.192 717.615 184.068 717.047C184.944 716.473 185.956 716.186 187.104 716.186C187.992 716.186 188.696 716.334 189.217 716.63C189.744 716.92 190.146 717.251 190.425 717.624C190.709 717.991 190.928 718.293 191.081 718.53H191.295V716.364H193.319V730.391C193.319 731.562 193.052 732.515 192.52 733.249C191.993 733.989 191.283 734.531 190.389 734.874C189.501 735.223 188.513 735.398 187.424 735.398ZM187.353 727.905C188.193 727.905 188.903 727.712 189.483 727.328C190.064 726.943 190.504 726.39 190.806 725.668C191.108 724.946 191.259 724.081 191.259 723.075C191.259 722.093 191.111 721.226 190.815 720.474C190.519 719.722 190.081 719.134 189.501 718.707C188.921 718.281 188.205 718.068 187.353 718.068C186.465 718.068 185.725 718.293 185.133 718.743C184.547 719.193 184.106 719.796 183.811 720.554C183.521 721.312 183.376 722.152 183.376 723.075C183.376 724.022 183.523 724.86 183.819 725.588C184.121 726.31 184.565 726.878 185.151 727.292C185.743 727.701 186.477 727.905 187.353 727.905ZM202.871 730.284C201.557 730.284 200.424 729.994 199.471 729.414C198.524 728.828 197.793 728.011 197.278 726.964C196.769 725.91 196.515 724.685 196.515 723.288C196.515 721.892 196.769 720.661 197.278 719.595C197.793 718.524 198.509 717.689 199.427 717.092C200.35 716.488 201.427 716.186 202.658 716.186C203.368 716.186 204.07 716.304 204.762 716.541C205.455 716.778 206.085 717.163 206.653 717.695C207.221 718.222 207.674 718.92 208.012 719.79C208.349 720.661 208.518 721.732 208.518 723.004V723.892H198.006V722.081H206.387C206.387 721.312 206.233 720.625 205.925 720.021C205.623 719.418 205.191 718.941 204.629 718.592C204.073 718.243 203.416 718.068 202.658 718.068C201.824 718.068 201.102 718.275 200.492 718.69C199.888 719.098 199.424 719.631 199.098 720.288C198.773 720.945 198.61 721.649 198.61 722.401V723.608C198.61 724.638 198.787 725.511 199.143 726.227C199.504 726.937 200.004 727.479 200.643 727.852C201.282 728.219 202.025 728.402 202.871 728.402C203.422 728.402 203.919 728.325 204.363 728.171C204.813 728.011 205.2 727.775 205.526 727.461C205.851 727.141 206.103 726.745 206.28 726.271L208.305 726.839C208.091 727.526 207.733 728.13 207.23 728.651C206.727 729.165 206.106 729.568 205.366 729.858C204.626 730.142 203.795 730.284 202.871 730.284ZM221.364 719.418L219.482 719.95C219.363 719.637 219.189 719.332 218.958 719.036C218.733 718.734 218.425 718.485 218.035 718.29C217.644 718.095 217.144 717.997 216.534 717.997C215.7 717.997 215.004 718.19 214.448 718.574C213.898 718.953 213.622 719.435 213.622 720.021C213.622 720.542 213.812 720.953 214.191 721.255C214.569 721.557 215.161 721.809 215.966 722.01L217.99 722.507C219.209 722.803 220.118 723.256 220.716 723.865C221.314 724.469 221.612 725.247 221.612 726.2C221.612 726.982 221.387 727.68 220.938 728.295C220.494 728.911 219.872 729.396 219.073 729.751C218.274 730.107 217.345 730.284 216.286 730.284C214.895 730.284 213.744 729.982 212.832 729.379C211.921 728.775 211.344 727.893 211.101 726.733L213.09 726.236C213.279 726.97 213.637 727.52 214.164 727.887C214.697 728.254 215.392 728.438 216.25 728.438C217.227 728.438 218.002 728.23 218.576 727.816C219.156 727.396 219.446 726.893 219.446 726.307C219.446 725.833 219.28 725.437 218.949 725.117C218.618 724.792 218.109 724.549 217.422 724.389L215.149 723.857C213.901 723.561 212.983 723.102 212.397 722.48C211.817 721.853 211.527 721.069 211.527 720.128C211.527 719.358 211.743 718.678 212.175 718.086C212.613 717.494 213.208 717.029 213.96 716.692C214.717 716.355 215.575 716.186 216.534 716.186C217.884 716.186 218.943 716.482 219.713 717.074C220.488 717.666 221.038 718.447 221.364 719.418Z" fill="#2F2E2E"/>
<path d="M45.0859 735.945C46.668 735.945 49.9023 734.352 52.2812 732.664C60.4492 732.887 66.5781 728.188 66.5781 722.047C66.5781 716.152 60.6719 711.395 53.2891 711.395C45.9062 711.395 40 716.152 40 722.047C40 725.891 42.4609 729.301 46.1641 731.012C45.6367 732.043 44.6523 733.426 44.125 734.117C43.5039 734.926 43.8789 735.945 45.0859 735.945ZM46.3164 734C46.2227 734.035 46.1875 733.965 46.2461 733.895C46.9023 733.086 47.8398 731.867 48.2383 731.105C48.5664 730.508 48.4844 729.969 47.7344 729.617C44.0547 727.906 41.9453 725.176 41.9453 722.047C41.9453 717.254 46.9727 713.34 53.2891 713.34C59.6172 713.34 64.6445 717.254 64.6445 722.047C64.6445 726.852 59.6172 730.766 53.2891 730.766C53.0547 730.766 52.6914 730.754 52.2227 730.742C51.7305 730.73 51.3555 730.895 50.9102 731.246C49.4688 732.289 47.3828 733.566 46.3164 734Z" stroke="#2F2E2E"/>
<path d="M46.25 425.5V413H53.75V425.5M38.75 409.25L50 400.5L61.25 409.25V423C61.25 423.663 60.9866 424.299 60.5178 424.768C60.0489 425.237 59.413 425.5 58.75 425.5H41.25C40.587 425.5 39.9511 425.237 39.4822 424.768C39.0134 424.299 38.75 423.663 38.75 423V409.25Z" stroke="#2F2E2E" stroke-linecap="round" stroke-linejoin="round"/>
<path d="M104.202 419V400.818H106.403V408.915H116.098V400.818H118.3V419H116.098V410.868H106.403V419H104.202ZM127.963 419.284C126.732 419.284 125.652 418.991 124.723 418.405C123.8 417.819 123.077 417 122.557 415.946C122.042 414.893 121.784 413.661 121.784 412.253C121.784 410.832 122.042 409.592 122.557 408.533C123.077 407.474 123.8 406.651 124.723 406.065C125.652 405.479 126.732 405.186 127.963 405.186C129.194 405.186 130.271 405.479 131.195 406.065C132.124 406.651 132.846 407.474 133.361 408.533C133.882 409.592 134.142 410.832 134.142 412.253C134.142 413.661 133.882 414.893 133.361 415.946C132.846 417 132.124 417.819 131.195 418.405C130.271 418.991 129.194 419.284 127.963 419.284ZM127.963 417.402C128.898 417.402 129.668 417.162 130.271 416.683C130.875 416.203 131.322 415.573 131.612 414.792C131.902 414.011 132.047 413.164 132.047 412.253C132.047 411.341 131.902 410.492 131.612 409.705C131.322 408.918 130.875 408.281 130.271 407.796C129.668 407.311 128.898 407.068 127.963 407.068C127.028 407.068 126.259 407.311 125.655 407.796C125.051 408.281 124.604 408.918 124.314 409.705C124.024 410.492 123.879 411.341 123.879 412.253C123.879 413.164 124.024 414.011 124.314 414.792C124.604 415.573 125.051 416.203 125.655 416.683C126.259 417.162 127.028 417.402 127.963 417.402ZM137.34 419V405.364H139.365V407.494H139.542C139.826 406.766 140.285 406.201 140.918 405.799C141.552 405.39 142.312 405.186 143.2 405.186C144.099 405.186 144.848 405.39 145.446 405.799C146.05 406.201 146.52 406.766 146.858 407.494H147C147.349 406.79 147.873 406.231 148.571 405.816C149.269 405.396 150.107 405.186 151.083 405.186C152.303 405.186 153.3 405.568 154.075 406.331C154.851 407.089 155.238 408.27 155.238 409.874V419H153.143V409.874C153.143 408.867 152.868 408.148 152.317 407.716C151.767 407.284 151.119 407.068 150.373 407.068C149.414 407.068 148.672 407.358 148.145 407.938C147.618 408.512 147.355 409.24 147.355 410.122V419H145.224V409.661C145.224 408.885 144.972 408.261 144.469 407.787C143.966 407.308 143.318 407.068 142.525 407.068C141.981 407.068 141.472 407.213 140.998 407.503C140.531 407.793 140.152 408.196 139.862 408.711C139.578 409.22 139.436 409.808 139.436 410.477V419H137.34ZM164.786 419.284C163.472 419.284 162.339 418.994 161.386 418.414C160.439 417.828 159.708 417.011 159.193 415.964C158.684 414.91 158.43 413.685 158.43 412.288C158.43 410.892 158.684 409.661 159.193 408.595C159.708 407.524 160.424 406.689 161.342 406.092C162.265 405.488 163.342 405.186 164.573 405.186C165.283 405.186 165.985 405.304 166.677 405.541C167.37 405.778 168 406.163 168.568 406.695C169.136 407.222 169.589 407.92 169.927 408.79C170.264 409.661 170.433 410.732 170.433 412.004V412.892H159.921V411.081H168.302C168.302 410.312 168.148 409.625 167.84 409.021C167.538 408.418 167.106 407.941 166.544 407.592C165.988 407.243 165.331 407.068 164.573 407.068C163.739 407.068 163.017 407.275 162.407 407.69C161.803 408.098 161.339 408.631 161.013 409.288C160.688 409.945 160.525 410.649 160.525 411.401V412.608C160.525 413.638 160.703 414.511 161.058 415.227C161.419 415.937 161.919 416.479 162.558 416.852C163.197 417.219 163.94 417.402 164.786 417.402C165.337 417.402 165.834 417.325 166.278 417.171C166.728 417.011 167.115 416.775 167.441 416.461C167.766 416.141 168.018 415.745 168.195 415.271L170.22 415.839C170.006 416.526 169.648 417.13 169.145 417.651C168.642 418.165 168.021 418.568 167.281 418.858C166.541 419.142 165.71 419.284 164.786 419.284Z" fill="#2F2E2E"/>
<path d="M102.202 859V840.818H113.104V842.771H104.403V848.915H112.287V850.868H104.403V859H102.202ZM116.59 859V845.364H118.686V859H116.59ZM117.656 843.091C117.247 843.091 116.895 842.952 116.599 842.674C116.309 842.395 116.164 842.061 116.164 841.67C116.164 841.28 116.309 840.945 116.599 840.667C116.895 840.389 117.247 840.25 117.656 840.25C118.064 840.25 118.413 840.389 118.703 840.667C118.999 840.945 119.147 841.28 119.147 841.67C119.147 842.061 118.999 842.395 118.703 842.674C118.413 842.952 118.064 843.091 117.656 843.091ZM124.618 850.797V859H122.523V845.364H124.547V847.494H124.725C125.044 846.802 125.53 846.246 126.181 845.825C126.832 845.399 127.672 845.186 128.702 845.186C129.625 845.186 130.433 845.375 131.126 845.754C131.818 846.127 132.357 846.695 132.741 847.459C133.126 848.216 133.319 849.175 133.319 850.335V859H131.223V850.477C131.223 849.406 130.945 848.571 130.389 847.974C129.833 847.37 129.069 847.068 128.098 847.068C127.43 847.068 126.832 847.213 126.305 847.503C125.784 847.793 125.373 848.216 125.071 848.773C124.769 849.329 124.618 850.004 124.618 850.797ZM142.296 859.284C141.16 859.284 140.157 858.997 139.287 858.423C138.417 857.843 137.736 857.026 137.245 855.973C136.754 854.913 136.508 853.661 136.508 852.217C136.508 850.785 136.754 849.542 137.245 848.489C137.736 847.435 138.42 846.621 139.296 846.047C140.171 845.473 141.184 845.186 142.332 845.186C143.22 845.186 143.921 845.334 144.436 845.63C144.957 845.92 145.353 846.251 145.625 846.624C145.904 846.991 146.12 847.293 146.274 847.53H146.451V840.818H148.546V859H146.522V856.905H146.274C146.12 857.153 145.901 857.467 145.617 857.846C145.332 858.219 144.927 858.553 144.4 858.849C143.874 859.139 143.172 859.284 142.296 859.284ZM142.58 857.402C143.421 857.402 144.131 857.183 144.711 856.745C145.291 856.301 145.732 855.689 146.034 854.907C146.336 854.12 146.487 853.212 146.487 852.182C146.487 851.164 146.339 850.273 146.043 849.51C145.747 848.74 145.309 848.142 144.729 847.716C144.149 847.284 143.433 847.068 142.58 847.068C141.693 847.068 140.953 847.296 140.361 847.752C139.775 848.202 139.334 848.814 139.038 849.589C138.748 850.359 138.603 851.223 138.603 852.182C138.603 853.152 138.751 854.034 139.047 854.827C139.349 855.615 139.793 856.242 140.379 856.71C140.97 857.171 141.704 857.402 142.58 857.402ZM163.718 859.32C162.854 859.32 162.07 859.157 161.366 858.831C160.662 858.5 160.102 858.023 159.688 857.402C159.274 856.775 159.066 856.017 159.066 855.129C159.066 854.348 159.22 853.715 159.528 853.229C159.836 852.738 160.247 852.353 160.762 852.075C161.277 851.797 161.845 851.59 162.467 851.454C163.094 851.312 163.724 851.199 164.358 851.116C165.186 851.01 165.858 850.93 166.373 850.877C166.894 850.818 167.273 850.72 167.509 850.584C167.752 850.448 167.873 850.211 167.873 849.874V849.803C167.873 848.927 167.634 848.246 167.154 847.761C166.681 847.275 165.962 847.033 164.997 847.033C163.997 847.033 163.212 847.252 162.644 847.69C162.076 848.128 161.677 848.595 161.446 849.092L159.457 848.382C159.812 847.554 160.286 846.908 160.878 846.447C161.475 845.979 162.126 845.654 162.831 845.47C163.541 845.281 164.239 845.186 164.926 845.186C165.364 845.186 165.867 845.239 166.435 845.346C167.009 845.446 167.563 845.657 168.095 845.976C168.634 846.296 169.081 846.778 169.436 847.423C169.791 848.068 169.968 848.933 169.968 850.016V859H167.873V857.153H167.767C167.625 857.449 167.388 857.766 167.057 858.103C166.725 858.441 166.284 858.728 165.734 858.964C165.183 859.201 164.512 859.32 163.718 859.32ZM164.038 857.438C164.867 857.438 165.565 857.275 166.133 856.949C166.707 856.624 167.139 856.203 167.429 855.689C167.725 855.174 167.873 854.632 167.873 854.064V852.146C167.785 852.253 167.589 852.35 167.287 852.439C166.991 852.522 166.648 852.596 166.258 852.661C165.873 852.72 165.497 852.774 165.13 852.821C164.769 852.862 164.476 852.898 164.251 852.928C163.707 852.999 163.198 853.114 162.724 853.274C162.257 853.428 161.878 853.661 161.588 853.975C161.304 854.283 161.162 854.703 161.162 855.236C161.162 855.964 161.431 856.514 161.97 856.887C162.514 857.254 163.204 857.438 164.038 857.438ZM175.888 850.797V859H173.793V845.364H175.817V847.494H175.994C176.314 846.802 176.799 846.246 177.45 845.825C178.101 845.399 178.942 845.186 179.972 845.186C180.895 845.186 181.703 845.375 182.395 845.754C183.088 846.127 183.626 846.695 184.011 847.459C184.396 848.216 184.588 849.175 184.588 850.335V859H182.493V850.477C182.493 849.406 182.215 848.571 181.658 847.974C181.102 847.37 180.339 847.068 179.368 847.068C178.699 847.068 178.101 847.213 177.575 847.503C177.054 847.793 176.642 848.216 176.341 848.773C176.039 849.329 175.888 850.004 175.888 850.797ZM199.461 859.32C198.597 859.32 197.812 859.157 197.108 858.831C196.404 858.5 195.844 858.023 195.43 857.402C195.016 856.775 194.809 856.017 194.809 855.129C194.809 854.348 194.963 853.715 195.27 853.229C195.578 852.738 195.989 852.353 196.504 852.075C197.019 851.797 197.587 851.59 198.209 851.454C198.836 851.312 199.467 851.199 200.1 851.116C200.928 851.01 201.6 850.93 202.115 850.877C202.636 850.818 203.015 850.72 203.252 850.584C203.494 850.448 203.616 850.211 203.616 849.874V849.803C203.616 848.927 203.376 848.246 202.896 847.761C202.423 847.275 201.704 847.033 200.739 847.033C199.739 847.033 198.955 847.252 198.386 847.69C197.818 848.128 197.419 848.595 197.188 849.092L195.199 848.382C195.554 847.554 196.028 846.908 196.62 846.447C197.218 845.979 197.869 845.654 198.573 845.47C199.283 845.281 199.982 845.186 200.668 845.186C201.106 845.186 201.609 845.239 202.177 845.346C202.751 845.446 203.305 845.657 203.837 845.976C204.376 846.296 204.823 846.778 205.178 847.423C205.533 848.068 205.711 848.933 205.711 850.016V859H203.616V857.153H203.509C203.367 857.449 203.13 857.766 202.799 858.103C202.467 858.441 202.026 858.728 201.476 858.964C200.926 859.201 200.254 859.32 199.461 859.32ZM199.78 857.438C200.609 857.438 201.307 857.275 201.875 856.949C202.45 856.624 202.882 856.203 203.172 855.689C203.468 855.174 203.616 854.632 203.616 854.064V852.146C203.527 852.253 203.331 852.35 203.03 852.439C202.734 852.522 202.39 852.596 202 852.661C201.615 852.72 201.239 852.774 200.872 852.821C200.511 852.862 200.218 852.898 199.993 852.928C199.449 852.999 198.94 853.114 198.466 853.274C197.999 853.428 197.62 853.661 197.33 853.975C197.046 854.283 196.904 854.703 196.904 855.236C196.904 855.964 197.173 856.514 197.712 856.887C198.256 857.254 198.946 857.438 199.78 857.438ZM220.197 845.364L215.154 859H213.024L207.981 845.364H210.254L214.018 856.23H214.16L217.924 845.364H220.197ZM222.963 859V845.364H225.058V859H222.963ZM224.028 843.091C223.619 843.091 223.267 842.952 222.971 842.674C222.681 842.395 222.536 842.061 222.536 841.67C222.536 841.28 222.681 840.945 222.971 840.667C223.267 840.389 223.619 840.25 224.028 840.25C224.436 840.25 224.785 840.389 225.075 840.667C225.371 840.945 225.519 841.28 225.519 841.67C225.519 842.061 225.371 842.395 225.075 842.674C224.785 842.952 224.436 843.091 224.028 843.091ZM232.908 859.32C232.044 859.32 231.26 859.157 230.555 858.831C229.851 858.5 229.292 858.023 228.877 857.402C228.463 856.775 228.256 856.017 228.256 855.129C228.256 854.348 228.41 853.715 228.718 853.229C229.025 852.738 229.437 852.353 229.952 852.075C230.467 851.797 231.035 851.59 231.656 851.454C232.284 851.312 232.914 851.199 233.547 851.116C234.376 851.01 235.047 850.93 235.562 850.877C236.083 850.818 236.462 850.72 236.699 850.584C236.941 850.448 237.063 850.211 237.063 849.874V849.803C237.063 848.927 236.823 848.246 236.344 847.761C235.87 847.275 235.151 847.033 234.186 847.033C233.186 847.033 232.402 847.252 231.834 847.69C231.266 848.128 230.866 848.595 230.635 849.092L228.647 848.382C229.002 847.554 229.475 846.908 230.067 846.447C230.665 845.979 231.316 845.654 232.02 845.47C232.73 845.281 233.429 845.186 234.115 845.186C234.553 845.186 235.056 845.239 235.625 845.346C236.199 845.446 236.752 845.657 237.285 845.976C237.823 846.296 238.27 846.778 238.625 847.423C238.98 848.068 239.158 848.933 239.158 850.016V859H237.063V857.153H236.956C236.814 857.449 236.577 857.766 236.246 858.103C235.915 858.441 235.474 858.728 234.923 858.964C234.373 859.201 233.701 859.32 232.908 859.32ZM233.228 857.438C234.056 857.438 234.755 857.275 235.323 856.949C235.897 856.624 236.329 856.203 236.619 855.689C236.915 855.174 237.063 854.632 237.063 854.064V852.146C236.974 852.253 236.779 852.35 236.477 852.439C236.181 852.522 235.838 852.596 235.447 852.661C235.062 852.72 234.686 852.774 234.32 852.821C233.958 852.862 233.666 852.898 233.441 852.928C232.896 852.999 232.387 853.114 231.914 853.274C231.446 853.428 231.067 853.661 230.777 853.975C230.493 854.283 230.351 854.703 230.351 855.236C230.351 855.964 230.62 856.514 231.159 856.887C231.704 857.254 232.393 857.438 233.228 857.438ZM245.077 850.797V859H242.982V845.364H245.006V847.494H245.184C245.503 846.802 245.989 846.246 246.64 845.825C247.291 845.399 248.131 845.186 249.161 845.186C250.084 845.186 250.892 845.375 251.585 845.754C252.277 846.127 252.816 846.695 253.2 847.459C253.585 848.216 253.778 849.175 253.778 850.335V859H251.682V850.477C251.682 849.406 251.404 848.571 250.848 847.974C250.291 847.37 249.528 847.068 248.557 847.068C247.889 847.068 247.291 847.213 246.764 847.503C246.243 847.793 245.832 848.216 245.53 848.773C245.228 849.329 245.077 850.004 245.077 850.797ZM275.788 845.364L270.745 859H268.615L263.572 845.364H265.845L269.609 856.23H269.751L273.515 845.364H275.788ZM283.782 859.284C282.468 859.284 281.335 858.994 280.382 858.414C279.435 857.828 278.704 857.011 278.189 855.964C277.68 854.91 277.426 853.685 277.426 852.288C277.426 850.892 277.68 849.661 278.189 848.595C278.704 847.524 279.42 846.689 280.338 846.092C281.261 845.488 282.338 845.186 283.569 845.186C284.28 845.186 284.981 845.304 285.673 845.541C286.366 845.778 286.996 846.163 287.564 846.695C288.133 847.222 288.585 847.92 288.923 848.79C289.26 849.661 289.429 850.732 289.429 852.004V852.892H278.917V851.081H287.298C287.298 850.312 287.144 849.625 286.836 849.021C286.535 848.418 286.102 847.941 285.54 847.592C284.984 847.243 284.327 847.068 283.569 847.068C282.735 847.068 282.013 847.275 281.403 847.69C280.799 848.098 280.335 848.631 280.009 849.288C279.684 849.945 279.521 850.649 279.521 851.401V852.608C279.521 853.638 279.699 854.511 280.054 855.227C280.415 855.937 280.915 856.479 281.554 856.852C282.193 857.219 282.936 857.402 283.782 857.402C284.333 857.402 284.83 857.325 285.274 857.171C285.724 857.011 286.111 856.775 286.437 856.461C286.762 856.141 287.014 855.745 287.191 855.271L289.216 855.839C289.003 856.526 288.645 857.13 288.141 857.651C287.638 858.165 287.017 858.568 286.277 858.858C285.537 859.142 284.706 859.284 283.782 859.284ZM298.546 845.364V847.139H291.479V845.364H298.546ZM293.539 842.097H295.634V855.094C295.634 855.686 295.72 856.129 295.892 856.425C296.069 856.715 296.294 856.911 296.566 857.011C296.845 857.106 297.138 857.153 297.445 857.153C297.676 857.153 297.866 857.142 298.014 857.118C298.162 857.088 298.28 857.065 298.369 857.047L298.795 858.929C298.653 858.982 298.455 859.036 298.2 859.089C297.946 859.148 297.623 859.178 297.232 859.178C296.64 859.178 296.06 859.05 295.492 858.796C294.93 858.541 294.462 858.154 294.09 857.633C293.723 857.112 293.539 856.455 293.539 855.662V842.097Z" fill="#2F2E2E"/>
<path d="M52.2522 835V867" stroke="#2F2E2E" stroke-width="15"/>
<path d="M69 851.299L37 851.299" stroke="#2F2E2E" stroke-width="15"/>
<path d="M97.2017 920V901.818H103.558C104.825 901.818 105.869 902.037 106.692 902.475C107.515 902.907 108.127 903.49 108.53 904.224C108.932 904.952 109.134 905.76 109.134 906.648C109.134 907.429 108.994 908.074 108.716 908.583C108.444 909.092 108.083 909.495 107.633 909.79C107.189 910.086 106.707 910.305 106.186 910.447V910.625C106.742 910.661 107.302 910.856 107.864 911.211C108.426 911.566 108.897 912.075 109.276 912.738C109.654 913.401 109.844 914.212 109.844 915.17C109.844 916.082 109.637 916.902 109.222 917.63C108.808 918.358 108.154 918.935 107.26 919.361C106.367 919.787 105.204 920 103.771 920H97.2017ZM99.4034 918.047H103.771C105.21 918.047 106.23 917.769 106.834 917.212C107.444 916.65 107.749 915.969 107.749 915.17C107.749 914.555 107.592 913.987 107.278 913.466C106.964 912.939 106.518 912.519 105.938 912.205C105.357 911.886 104.671 911.726 103.878 911.726H99.4034V918.047ZM99.4034 909.808H103.487C104.15 909.808 104.748 909.678 105.281 909.418C105.819 909.157 106.245 908.79 106.559 908.317C106.879 907.843 107.038 907.287 107.038 906.648C107.038 905.849 106.76 905.171 106.204 904.615C105.647 904.052 104.766 903.771 103.558 903.771H99.4034V909.808ZM113.177 920V906.364H115.273V920H113.177ZM114.243 904.091C113.834 904.091 113.482 903.952 113.186 903.674C112.896 903.395 112.751 903.061 112.751 902.67C112.751 902.28 112.896 901.945 113.186 901.667C113.482 901.389 113.834 901.25 114.243 901.25C114.651 901.25 115 901.389 115.29 901.667C115.586 901.945 115.734 902.28 115.734 902.67C115.734 903.061 115.586 903.395 115.29 903.674C115 903.952 114.651 904.091 114.243 904.091ZM119.11 920V906.364H121.134V908.423H121.276C121.525 907.749 121.975 907.201 122.626 906.781C123.277 906.361 124.011 906.151 124.827 906.151C124.981 906.151 125.174 906.154 125.404 906.159C125.635 906.165 125.81 906.174 125.928 906.186V908.317C125.857 908.299 125.694 908.272 125.44 908.237C125.191 908.195 124.928 908.175 124.65 908.175C123.987 908.175 123.395 908.314 122.874 908.592C122.359 908.864 121.951 909.243 121.649 909.728C121.353 910.208 121.205 910.755 121.205 911.371V920H119.11ZM133.146 920.284C132.009 920.284 131.006 919.997 130.136 919.423C129.266 918.843 128.586 918.026 128.094 916.973C127.603 915.913 127.358 914.661 127.358 913.217C127.358 911.785 127.603 910.542 128.094 909.489C128.586 908.435 129.269 907.621 130.145 907.047C131.021 906.473 132.033 906.186 133.181 906.186C134.069 906.186 134.771 906.334 135.285 906.63C135.806 906.92 136.203 907.251 136.475 907.624C136.753 907.991 136.969 908.293 137.123 908.53H137.301V901.818H139.396V920H137.372V917.905H137.123C136.969 918.153 136.75 918.467 136.466 918.846C136.182 919.219 135.777 919.553 135.25 919.849C134.723 920.139 134.022 920.284 133.146 920.284ZM133.43 918.402C134.27 918.402 134.981 918.183 135.561 917.745C136.141 917.301 136.582 916.689 136.883 915.907C137.185 915.12 137.336 914.212 137.336 913.182C137.336 912.164 137.188 911.273 136.892 910.51C136.596 909.74 136.158 909.142 135.578 908.716C134.998 908.284 134.282 908.068 133.43 908.068C132.542 908.068 131.802 908.296 131.21 908.752C130.625 909.202 130.184 909.814 129.888 910.589C129.598 911.359 129.453 912.223 129.453 913.182C129.453 914.152 129.601 915.034 129.897 915.827C130.198 916.615 130.642 917.242 131.228 917.71C131.82 918.171 132.554 918.402 133.43 918.402ZM148.673 920.284C147.537 920.284 146.534 919.997 145.664 919.423C144.794 918.843 144.113 918.026 143.622 916.973C143.13 915.913 142.885 914.661 142.885 913.217C142.885 911.785 143.13 910.542 143.622 909.489C144.113 908.435 144.797 907.621 145.672 907.047C146.548 906.473 147.561 906.186 148.709 906.186C149.597 906.186 150.298 906.334 150.813 906.63C151.334 906.92 151.73 907.251 152.002 907.624C152.281 907.991 152.497 908.293 152.65 908.53H152.828V901.818H154.923V920H152.899V917.905H152.65C152.497 918.153 152.278 918.467 151.994 918.846C151.709 919.219 151.304 919.553 150.777 919.849C150.251 920.139 149.549 920.284 148.673 920.284ZM148.957 918.402C149.798 918.402 150.508 918.183 151.088 917.745C151.668 917.301 152.109 916.689 152.411 915.907C152.713 915.12 152.864 914.212 152.864 913.182C152.864 912.164 152.716 911.273 152.42 910.51C152.124 909.74 151.686 909.142 151.106 908.716C150.526 908.284 149.81 908.068 148.957 908.068C148.07 908.068 147.33 908.296 146.738 908.752C146.152 909.202 145.711 909.814 145.415 910.589C145.125 911.359 144.98 912.223 144.98 913.182C144.98 914.152 145.128 915.034 145.424 915.827C145.726 916.615 146.17 917.242 146.756 917.71C147.347 918.171 148.081 918.402 148.957 918.402ZM164.769 920.284C163.455 920.284 162.321 919.994 161.369 919.414C160.422 918.828 159.691 918.011 159.176 916.964C158.667 915.91 158.412 914.685 158.412 913.288C158.412 911.892 158.667 910.661 159.176 909.595C159.691 908.524 160.407 907.689 161.324 907.092C162.247 906.488 163.325 906.186 164.556 906.186C165.266 906.186 165.967 906.304 166.66 906.541C167.352 906.778 167.983 907.163 168.551 907.695C169.119 908.222 169.572 908.92 169.909 909.79C170.246 910.661 170.415 911.732 170.415 913.004V913.892H159.904V912.081H168.284C168.284 911.312 168.13 910.625 167.823 910.021C167.521 909.418 167.089 908.941 166.527 908.592C165.97 908.243 165.313 908.068 164.556 908.068C163.721 908.068 162.999 908.275 162.389 908.69C161.786 909.098 161.321 909.631 160.996 910.288C160.67 910.945 160.507 911.649 160.507 912.401V913.608C160.507 914.638 160.685 915.511 161.04 916.227C161.401 916.937 161.901 917.479 162.54 917.852C163.18 918.219 163.922 918.402 164.769 918.402C165.319 918.402 165.816 918.325 166.26 918.171C166.71 918.011 167.098 917.775 167.423 917.461C167.749 917.141 168 916.745 168.178 916.271L170.202 916.839C169.989 917.526 169.631 918.13 169.128 918.651C168.625 919.165 168.003 919.568 167.263 919.858C166.524 920.142 165.692 920.284 164.769 920.284ZM174.798 906.364L178.066 911.939L181.333 906.364H183.747L179.344 913.182L183.747 920H181.333L178.066 914.709L174.798 920H172.384L176.716 913.182L172.384 906.364H174.798Z" fill="#2F2E2E"/>
<path d="M43.5371 925.702C46.7938 925.601 52.6607 924.882 55.2892 922.808C57.1857 921.311 59.4555 919.629 61.6549 918.637" stroke="#2F2E2E" stroke-width="3" stroke-linecap="round"/>
<path d="M52.3511 919.52C57.2911 918.884 64.2701 915.245 66.5515 911.13" stroke="#2F2E2E" stroke-width="3" stroke-linecap="round"/>
<path d="M59.2065 912.455C62.2921 909.926 68.9999 908.863 68.9999 904.507" stroke="#2F2E2E" stroke-width="3" stroke-linecap="round"/>
<path d="M63.124 904.507C63.9045 904.419 63.9494 901.047 64.1305 900.312C64.4722 898.925 66.4909 897.993 67.0413 897" stroke="#2F2E2E" stroke-width="3" stroke-linecap="round"/>
<path d="M38.6405 921.728C38.2081 918.219 37.395 914.26 39.1302 911.13" stroke="#2F2E2E" stroke-width="3" stroke-linecap="round"/>
<path d="M43.0476 915.546C44.8869 913.68 45.1937 910.7 46.4753 908.677C47.3582 907.284 47.6925 905.283 49.4133 904.507" stroke="#2F2E2E" stroke-width="3" stroke-linecap="round"/>
<path d="M51.3718 907.598C51.3718 906.389 52.8801 903.248 53.929 902.397C55.7647 900.907 57.2624 900.974 59.6962 900.974" stroke="#2F2E2E" stroke-width="3" stroke-linecap="round"/>
<path d="M60.061 905.583L37 929" stroke="#2F2E2E" stroke-width="3" stroke-linecap="round"/>
<rect x="136" y="337" width="169" height="25" rx="12.5" fill="#B3B3B3"/>
</g>
<defs>
<clipPath id="clip0_1517_14684">
<rect width="440" height="956" fill="white"/>
</clipPath>
</defs>
</svg>
