<svg width="440" height="956" viewBox="0 0 440 956" fill="none" xmlns="http://www.w3.org/2000/svg">
<g clip-path="url(#clip0_1516_12509)">
<rect width="440" height="956" fill="white"/>
<rect x="0.5" y="0.5" width="439" height="955" fill="white" stroke="#2F2E2E"/>
<rect x="0.5" y="211.5" width="439" height="99" fill="white" stroke="#2F2E2E"/>
<rect x="0.5" y="421.5" width="439" height="99" fill="white" stroke="#2F2E2E"/>
<rect x="0.5" y="631.5" width="439" height="99" fill="white" stroke="#2F2E2E"/>
<rect x="0.5" y="841.5" width="439" height="99" fill="white" stroke="#2F2E2E"/>
<circle cx="68" cy="153" r="40" fill="#B3B3B3"/>
<circle cx="68" cy="258" r="40" fill="#B3B3B3"/>
<circle cx="68" cy="363" r="40" fill="#B3B3B3"/>
<circle cx="68" cy="468" r="40" fill="#B3B3B3"/>
<circle cx="68" cy="573" r="40" fill="#B3B3B3"/>
<circle cx="68" cy="678" r="40" fill="#B3B3B3"/>
<circle cx="68" cy="783" r="40" fill="#B3B3B3"/>
<circle cx="68" cy="889" r="40" fill="#B3B3B3"/>
<rect x="0.5" y="0.5" width="439" height="105" fill="white" stroke="#2F2E2E"/>
<path fill-rule="evenodd" clip-rule="evenodd" d="M366 33.6667C366 32.1939 367.194 31 368.667 31H385.333C386.806 31 388 32.1939 388 33.6667V39.6667C388 41.1394 386.806 42.3333 385.333 42.3333H368.667C367.194 42.3333 366 41.1394 366 39.6667V33.6667Z" stroke="#2F2E2E"/>
<path d="M389 34.667V38.667C389.805 38.3282 390.328 37.5401 390.328 36.667C390.328 35.7939 389.805 35.0058 389 34.667" stroke="#2F2E2E"/>
<path d="M368 34.3333C368 33.597 368.597 33 369.333 33H384.667C385.403 33 386 33.597 386 34.3333V39C386 39.7364 385.403 40.3333 384.667 40.3333H369.333C368.597 40.3333 368 39.7364 368 39V34.3333Z" stroke="#2F2E2E"/>
<path d="M337 38.6665H338C338.552 38.6665 339 39.1142 339 39.6665V41.6665C339 42.2188 338.552 42.6665 338 42.6665H337C336.448 42.6665 336 42.2188 336 41.6665V39.6665C336 39.1142 336.448 38.6665 337 38.6665Z" stroke="#2F2E2E"/>
<path d="M341.667 36.6665H342.667C343.219 36.6665 343.667 37.1142 343.667 37.6665V41.6665C343.667 42.2188 343.219 42.6665 342.667 42.6665H341.667C341.114 42.6665 340.667 42.2188 340.667 41.6665V37.6665C340.667 37.1142 341.114 36.6665 341.667 36.6665Z" stroke="#2F2E2E"/>
<path d="M346.333 34.3335H347.333C347.886 34.3335 348.333 34.7812 348.333 35.3335V41.6668C348.333 42.2191 347.886 42.6668 347.333 42.6668H346.333C345.781 42.6668 345.333 42.2191 345.333 41.6668V35.3335C345.333 34.7812 345.781 34.3335 346.333 34.3335Z" stroke="#2F2E2E"/>
<path d="M351 32H352C352.552 32 353 32.4477 353 33V41.6667C353 42.219 352.552 42.6667 352 42.6667H351C350.448 42.6667 350 42.219 350 41.6667V33C350 32.4477 350.448 32 351 32V32Z" stroke="#2F2E2E"/>
<path d="M52.3418 39.7628V38.6761L57.1359 31.0909H57.9242V32.7741H57.3916L53.7694 38.5057V38.5909H60.2254V39.7628H52.3418ZM57.4768 42V39.4325V38.9265V31.0909H58.7339V42H57.4768ZM63.159 40.6044C62.8963 40.6044 62.6708 40.5103 62.4826 40.3221C62.2943 40.1339 62.2002 39.9084 62.2002 39.6456C62.2002 39.3828 62.2943 39.1573 62.4826 38.9691C62.6708 38.7809 62.8963 38.6868 63.159 38.6868C63.4218 38.6868 63.6473 38.7809 63.8355 38.9691C64.0237 39.1573 64.1179 39.3828 64.1179 39.6456C64.1179 39.8196 64.0735 39.9794 63.9847 40.125C63.8995 40.2706 63.784 40.3878 63.6385 40.4766C63.4964 40.5618 63.3366 40.6044 63.159 40.6044ZM63.159 35.0859C62.8963 35.0859 62.6708 34.9918 62.4826 34.8036C62.2943 34.6154 62.2002 34.3899 62.2002 34.1271C62.2002 33.8643 62.2943 33.6388 62.4826 33.4506C62.6708 33.2624 62.8963 33.1683 63.159 33.1683C63.4218 33.1683 63.6473 33.2624 63.8355 33.4506C64.0237 33.6388 64.1179 33.8643 64.1179 34.1271C64.1179 34.3011 64.0735 34.4609 63.9847 34.6065C63.8995 34.7521 63.784 34.8693 63.6385 34.9581C63.4964 35.0433 63.3366 35.0859 63.159 35.0859ZM66.3524 42V41.0412L69.9533 37.0994C70.3758 36.6378 70.7239 36.2365 70.9973 35.8956C71.2707 35.5511 71.4731 35.228 71.6045 34.9261C71.7395 34.6207 71.807 34.3011 71.807 33.9673C71.807 33.5838 71.7146 33.2518 71.53 32.9712C71.3489 32.6907 71.1003 32.4741 70.7842 32.3214C70.4682 32.1687 70.1131 32.0923 69.7189 32.0923C69.2998 32.0923 68.9341 32.1793 68.6216 32.3533C68.3126 32.5238 68.0729 32.7635 67.9025 33.0724C67.7356 33.3814 67.6521 33.7436 67.6521 34.1591H66.395C66.395 33.5199 66.5424 32.9588 66.8371 32.4759C67.1319 31.9929 67.5332 31.6165 68.041 31.3466C68.5523 31.0767 69.1258 30.9418 69.7615 30.9418C70.4007 30.9418 70.9671 31.0767 71.4607 31.3466C71.9543 31.6165 72.3414 31.9805 72.6219 32.4386C72.9025 32.8967 73.0427 33.4062 73.0427 33.9673C73.0427 34.3686 72.9699 34.761 72.8244 35.1445C72.6823 35.5245 72.4337 35.9489 72.0786 36.4176C71.7271 36.8828 71.2388 37.451 70.6138 38.1222L68.1635 40.7429V40.8281H73.2345V42H66.3524ZM79.0566 42.1491C78.6092 42.142 78.1617 42.0568 77.7143 41.8935C77.2668 41.7301 76.8584 41.4549 76.4891 41.0678C76.1198 40.6772 75.8233 40.1499 75.5996 39.4858C75.3758 38.8182 75.264 37.9801 75.264 36.9716C75.264 36.0057 75.3545 35.1499 75.5356 34.4041C75.7168 33.6548 75.9795 33.0245 76.324 32.5131C76.6685 31.9982 77.0839 31.6076 77.5704 31.3413C78.0605 31.0749 78.6127 30.9418 79.2271 30.9418C79.8378 30.9418 80.3812 31.0643 80.857 31.3093C81.3364 31.5508 81.7271 31.8881 82.0289 32.3214C82.3307 32.7546 82.5261 33.2536 82.6148 33.8182H81.3151C81.1944 33.3281 80.96 32.9215 80.612 32.5984C80.264 32.2752 79.8023 32.1136 79.2271 32.1136C78.3819 32.1136 77.716 32.4812 77.2295 33.2163C76.7466 33.9513 76.5033 34.983 76.4998 36.3111H76.585C76.7839 36.0092 77.02 35.7518 77.2935 35.5387C77.5704 35.3221 77.8758 35.1552 78.2097 35.038C78.5435 34.9208 78.8968 34.8622 79.2697 34.8622C79.8947 34.8622 80.4664 35.0185 80.9849 35.331C81.5033 35.6399 81.9188 36.0678 82.2313 36.6147C82.5438 37.158 82.7001 37.7812 82.7001 38.4844C82.7001 39.1591 82.5491 39.777 82.2473 40.3381C81.9454 40.8956 81.5211 41.3395 80.9742 41.6697C80.4309 41.9964 79.7917 42.1562 79.0566 42.1491ZM79.0566 40.9773C79.504 40.9773 79.9053 40.8654 80.2604 40.6417C80.6191 40.418 80.9014 40.1179 81.1074 39.7415C81.3169 39.3651 81.4217 38.946 81.4217 38.4844C81.4217 38.0334 81.3204 37.6232 81.118 37.2539C80.9192 36.881 80.644 36.5845 80.2924 36.3643C79.9444 36.1442 79.5467 36.0341 79.0992 36.0341C78.7619 36.0341 78.4476 36.1016 78.1564 36.2365C77.8652 36.3679 77.6095 36.549 77.3893 36.7798C77.1727 37.0107 77.0023 37.2752 76.878 37.5735C76.7537 37.8683 76.6915 38.179 76.6915 38.5057C76.6915 38.9389 76.7927 39.3437 76.9952 39.7202C77.2011 40.0966 77.4817 40.4002 77.8368 40.631C78.1954 40.8619 78.6021 40.9773 79.0566 40.9773ZM84.9866 42V31.0909H88.6726C89.5285 31.0909 90.228 31.2454 90.7714 31.5543C91.3182 31.8597 91.7231 32.2734 91.9858 32.7955C92.2486 33.3175 92.38 33.8999 92.38 34.5426C92.38 35.1854 92.2486 35.7695 91.9858 36.2951C91.7266 36.8207 91.3253 37.2397 90.782 37.5522C90.2387 37.8612 89.5427 38.0156 88.6939 38.0156H86.0519V36.8438H88.6513C89.2373 36.8438 89.7078 36.7425 90.0629 36.5401C90.418 36.3377 90.6755 36.0643 90.8353 35.7198C90.9986 35.3718 91.0803 34.9794 91.0803 34.5426C91.0803 34.1058 90.9986 33.7152 90.8353 33.3707C90.6755 33.0263 90.4162 32.7564 90.0576 32.5611C89.6989 32.3622 89.2231 32.2628 88.63 32.2628H86.3076V42H84.9866ZM94.508 31.0909H96.0847L99.7921 40.1463H99.92L103.627 31.0909H105.204V42H103.968V33.7116H103.862L100.453 42H99.2595L95.8504 33.7116H95.7438V42H94.508V31.0909Z" fill="#2F2E2E"/>
<path d="M160.619 58.8182V77H158.489L148.581 62.7244H148.403V77H146.202V58.8182H148.332L158.276 73.1293H158.453V58.8182H160.619ZM170.281 77.2841C169.05 77.2841 167.969 76.9911 167.04 76.4052C166.117 75.8192 165.395 74.9995 164.874 73.946C164.359 72.8925 164.102 71.6615 164.102 70.2528C164.102 68.8324 164.359 67.5924 164.874 66.533C165.395 65.4736 166.117 64.6509 167.04 64.065C167.969 63.479 169.05 63.1861 170.281 63.1861C171.512 63.1861 172.589 63.479 173.512 64.065C174.441 64.6509 175.163 65.4736 175.678 66.533C176.199 67.5924 176.46 68.8324 176.46 70.2528C176.46 71.6615 176.199 72.8925 175.678 73.946C175.163 74.9995 174.441 75.8192 173.512 76.4052C172.589 76.9911 171.512 77.2841 170.281 77.2841ZM170.281 75.402C171.216 75.402 171.985 75.1623 172.589 74.6829C173.193 74.2035 173.639 73.5732 173.929 72.7919C174.219 72.0107 174.364 71.1643 174.364 70.2528C174.364 69.3414 174.219 68.4921 173.929 67.7049C173.639 66.9177 173.193 66.2815 172.589 65.7962C171.985 65.3108 171.216 65.0682 170.281 65.0682C169.345 65.0682 168.576 65.3108 167.972 65.7962C167.369 66.2815 166.922 66.9177 166.632 67.7049C166.342 68.4921 166.197 69.3414 166.197 70.2528C166.197 71.1643 166.342 72.0107 166.632 72.7919C166.922 73.5732 167.369 74.2035 167.972 74.6829C168.576 75.1623 169.345 75.402 170.281 75.402ZM185.588 63.3636V65.1392H178.521V63.3636H185.588ZM180.581 60.0966H182.676V73.0938C182.676 73.6856 182.762 74.1295 182.934 74.4254C183.111 74.7154 183.336 74.9107 183.608 75.0114C183.887 75.1061 184.18 75.1534 184.487 75.1534C184.718 75.1534 184.908 75.1416 185.056 75.1179C185.204 75.0883 185.322 75.0646 185.411 75.0469L185.837 76.929C185.695 76.9822 185.497 77.0355 185.242 77.0888C184.988 77.148 184.665 77.1776 184.274 77.1776C183.682 77.1776 183.102 77.0503 182.534 76.7958C181.972 76.5413 181.504 76.1536 181.132 75.6328C180.765 75.112 180.581 74.455 180.581 73.6619V60.0966ZM188.74 77V63.3636H190.835V77H188.74ZM189.805 61.0909C189.397 61.0909 189.045 60.9518 188.749 60.6737C188.459 60.3955 188.314 60.0611 188.314 59.6705C188.314 59.2798 188.459 58.9454 188.749 58.6673C189.045 58.3891 189.397 58.25 189.805 58.25C190.214 58.25 190.563 58.3891 190.853 58.6673C191.149 58.9454 191.297 59.2798 191.297 59.6705C191.297 60.0611 191.149 60.3955 190.853 60.6737C190.563 60.9518 190.214 61.0909 189.805 61.0909ZM200.745 63.3636V65.1392H193.394V63.3636H200.745ZM195.596 77V61.4815C195.596 60.7003 195.779 60.0492 196.146 59.5284C196.513 59.0076 196.99 58.6169 197.576 58.3565C198.161 58.0961 198.78 57.9659 199.431 57.9659C199.946 57.9659 200.366 58.0073 200.692 58.0902C201.017 58.1731 201.26 58.25 201.42 58.321L200.816 60.1321C200.709 60.0966 200.561 60.0522 200.372 59.9989C200.189 59.9457 199.946 59.919 199.644 59.919C198.952 59.919 198.451 60.0936 198.144 60.4428C197.842 60.792 197.691 61.304 197.691 61.9787V77H195.596ZM203.681 77V63.3636H205.776V77H203.681ZM204.747 61.0909C204.338 61.0909 203.986 60.9518 203.69 60.6737C203.4 60.3955 203.255 60.0611 203.255 59.6705C203.255 59.2798 203.4 58.9454 203.69 58.6673C203.986 58.3891 204.338 58.25 204.747 58.25C205.155 58.25 205.504 58.3891 205.794 58.6673C206.09 58.9454 206.238 59.2798 206.238 59.6705C206.238 60.0611 206.09 60.3955 205.794 60.6737C205.504 60.9518 205.155 61.0909 204.747 61.0909ZM215.154 77.2841C213.875 77.2841 212.774 76.9822 211.851 76.3786C210.928 75.7749 210.218 74.9433 209.72 73.8839C209.223 72.8245 208.975 71.6141 208.975 70.2528C208.975 68.8679 209.229 67.6457 209.738 66.5863C210.253 65.521 210.969 64.6894 211.887 64.0916C212.81 63.4879 213.887 63.1861 215.118 63.1861C216.077 63.1861 216.941 63.3636 217.71 63.7188C218.48 64.0739 219.11 64.571 219.601 65.2102C220.093 65.8494 220.398 66.5952 220.516 67.4474H218.421C218.261 66.826 217.906 66.2756 217.355 65.7962C216.811 65.3108 216.077 65.0682 215.154 65.0682C214.337 65.0682 213.621 65.2812 213.005 65.7074C212.396 66.1276 211.919 66.7224 211.576 67.4918C211.239 68.2553 211.07 69.152 211.07 70.1818C211.07 71.2353 211.236 72.1527 211.567 72.9339C211.904 73.7152 212.378 74.3219 212.987 74.7539C213.603 75.186 214.325 75.402 215.154 75.402C215.698 75.402 216.192 75.3073 216.636 75.1179C217.08 74.9285 217.456 74.6562 217.764 74.3011C218.072 73.946 218.291 73.5199 218.421 73.0227H220.516C220.398 73.8277 220.105 74.5527 219.637 75.1978C219.175 75.837 218.563 76.346 217.799 76.7248C217.042 77.0977 216.16 77.2841 215.154 77.2841ZM227.592 77.3196C226.727 77.3196 225.943 77.1568 225.239 76.8313C224.535 76.4999 223.975 76.0234 223.561 75.402C223.147 74.7746 222.94 74.017 222.94 73.1293C222.94 72.348 223.093 71.7147 223.401 71.2294C223.709 70.7382 224.12 70.3535 224.635 70.0753C225.15 69.7971 225.718 69.59 226.34 69.4538C226.967 69.3118 227.597 69.1993 228.231 69.1165C229.059 69.0099 229.731 68.93 230.246 68.8768C230.767 68.8176 231.146 68.7199 231.382 68.5838C231.625 68.4477 231.746 68.2109 231.746 67.8736V67.8026C231.746 66.9266 231.507 66.246 231.027 65.7607C230.554 65.2753 229.835 65.0327 228.87 65.0327C227.87 65.0327 227.085 65.2517 226.517 65.6896C225.949 66.1276 225.55 66.5952 225.319 67.0923L223.33 66.3821C223.685 65.5535 224.159 64.9084 224.751 64.4467C225.348 63.9792 225.999 63.6536 226.704 63.4702C227.414 63.2808 228.112 63.1861 228.799 63.1861C229.237 63.1861 229.74 63.2393 230.308 63.3459C230.882 63.4465 231.436 63.6566 231.968 63.9762C232.507 64.2958 232.954 64.7782 233.309 65.4233C233.664 66.0684 233.842 66.9325 233.842 68.0156V77H231.746V75.1534H231.64C231.498 75.4493 231.261 75.766 230.93 76.1033C230.598 76.4407 230.157 76.7277 229.607 76.9645C229.056 77.2012 228.385 77.3196 227.592 77.3196ZM227.911 75.4375C228.74 75.4375 229.438 75.2747 230.006 74.9492C230.58 74.6237 231.012 74.2035 231.302 73.6886C231.598 73.1737 231.746 72.6321 231.746 72.0639V70.1463C231.658 70.2528 231.462 70.3505 231.16 70.4393C230.864 70.5221 230.521 70.5961 230.131 70.6612C229.746 70.7204 229.37 70.7737 229.003 70.821C228.642 70.8625 228.349 70.898 228.124 70.9276C227.58 70.9986 227.071 71.114 226.597 71.2738C226.13 71.4277 225.751 71.6615 225.461 71.9751C225.177 72.2829 225.035 72.7031 225.035 73.2358C225.035 73.9638 225.304 74.5142 225.843 74.8871C226.387 75.254 227.077 75.4375 227.911 75.4375ZM243.596 63.3636V65.1392H236.529V63.3636H243.596ZM238.589 60.0966H240.684V73.0938C240.684 73.6856 240.77 74.1295 240.942 74.4254C241.119 74.7154 241.344 74.9107 241.616 75.0114C241.894 75.1061 242.187 75.1534 242.495 75.1534C242.726 75.1534 242.915 75.1416 243.063 75.1179C243.211 75.0883 243.33 75.0646 243.419 75.0469L243.845 76.929C243.703 76.9822 243.504 77.0355 243.25 77.0888C242.995 77.148 242.673 77.1776 242.282 77.1776C241.69 77.1776 241.11 77.0503 240.542 76.7958C239.98 76.5413 239.512 76.1536 239.139 75.6328C238.772 75.112 238.589 74.455 238.589 73.6619V60.0966ZM246.748 77V63.3636H248.843V77H246.748ZM247.813 61.0909C247.405 61.0909 247.052 60.9518 246.757 60.6737C246.467 60.3955 246.322 60.0611 246.322 59.6705C246.322 59.2798 246.467 58.9454 246.757 58.6673C247.052 58.3891 247.405 58.25 247.813 58.25C248.221 58.25 248.571 58.3891 248.861 58.6673C249.157 58.9454 249.305 59.2798 249.305 59.6705C249.305 60.0611 249.157 60.3955 248.861 60.6737C248.571 60.9518 248.221 61.0909 247.813 61.0909ZM258.22 77.2841C256.989 77.2841 255.909 76.9911 254.98 76.4052C254.056 75.8192 253.334 74.9995 252.813 73.946C252.299 72.8925 252.041 71.6615 252.041 70.2528C252.041 68.8324 252.299 67.5924 252.813 66.533C253.334 65.4736 254.056 64.6509 254.98 64.065C255.909 63.479 256.989 63.1861 258.22 63.1861C259.451 63.1861 260.528 63.479 261.452 64.065C262.381 64.6509 263.103 65.4736 263.618 66.533C264.139 67.5924 264.399 68.8324 264.399 70.2528C264.399 71.6615 264.139 72.8925 263.618 73.946C263.103 74.9995 262.381 75.8192 261.452 76.4052C260.528 76.9911 259.451 77.2841 258.22 77.2841ZM258.22 75.402C259.155 75.402 259.925 75.1623 260.528 74.6829C261.132 74.2035 261.579 73.5732 261.869 72.7919C262.159 72.0107 262.304 71.1643 262.304 70.2528C262.304 69.3414 262.159 68.4921 261.869 67.7049C261.579 66.9177 261.132 66.2815 260.528 65.7962C259.925 65.3108 259.155 65.0682 258.22 65.0682C257.285 65.0682 256.516 65.3108 255.912 65.7962C255.308 66.2815 254.861 66.9177 254.571 67.7049C254.281 68.4921 254.136 69.3414 254.136 70.2528C254.136 71.1643 254.281 72.0107 254.571 72.7919C254.861 73.5732 255.308 74.2035 255.912 74.6829C256.516 75.1623 257.285 75.402 258.22 75.402ZM269.692 68.7969V77H267.597V63.3636H269.621V65.4943H269.799C270.119 64.8018 270.604 64.2455 271.255 63.8253C271.906 63.3991 272.746 63.1861 273.776 63.1861C274.7 63.1861 275.507 63.3755 276.2 63.7543C276.892 64.1271 277.431 64.6953 277.816 65.4588C278.2 66.2164 278.393 67.1752 278.393 68.3352V77H276.298V68.4773C276.298 67.406 276.019 66.5715 275.463 65.9737C274.907 65.37 274.143 65.0682 273.173 65.0682C272.504 65.0682 271.906 65.2132 271.379 65.5032C270.858 65.7932 270.447 66.2164 270.145 66.7727C269.843 67.3291 269.692 68.0038 269.692 68.7969ZM291.88 66.4176L289.998 66.9503C289.88 66.6366 289.705 66.3318 289.475 66.0359C289.25 65.734 288.942 65.4854 288.551 65.2901C288.161 65.0948 287.66 64.9972 287.051 64.9972C286.216 64.9972 285.521 65.1895 284.965 65.5742C284.414 65.953 284.139 66.4354 284.139 67.0213C284.139 67.5421 284.328 67.9535 284.707 68.2553C285.086 68.5572 285.678 68.8087 286.483 69.0099L288.507 69.5071C289.726 69.803 290.635 70.2558 291.232 70.8654C291.83 71.4691 292.129 72.2474 292.129 73.2003C292.129 73.9815 291.904 74.6799 291.454 75.2955C291.01 75.911 290.389 76.3963 289.59 76.7514C288.791 77.1065 287.862 77.2841 286.802 77.2841C285.411 77.2841 284.26 76.9822 283.349 76.3786C282.437 75.7749 281.86 74.893 281.618 73.733L283.606 73.2358C283.796 73.9697 284.154 74.5201 284.68 74.8871C285.213 75.254 285.909 75.4375 286.767 75.4375C287.743 75.4375 288.519 75.2304 289.093 74.8161C289.673 74.3958 289.963 73.8928 289.963 73.3068C289.963 72.8333 289.797 72.4368 289.466 72.1172C289.134 71.7917 288.625 71.549 287.939 71.3892L285.666 70.8565C284.417 70.5606 283.5 70.1019 282.914 69.4805C282.334 68.8531 282.044 68.0689 282.044 67.1278C282.044 66.3584 282.26 65.6778 282.692 65.0859C283.13 64.4941 283.725 64.0295 284.476 63.6921C285.234 63.3548 286.092 63.1861 287.051 63.1861C288.4 63.1861 289.46 63.482 290.229 64.0739C291.004 64.6657 291.555 65.447 291.88 66.4176Z" fill="#2F2E2E"/>
<rect x="133" y="116" width="90" height="20" rx="10" fill="#B3B3B3"/>
<rect x="133" y="540" width="103" height="20" rx="10" fill="#B3B3B3"/>
<rect x="133" y="540" width="103" height="20" rx="10" fill="#B3B3B3"/>
<rect x="133" y="221" width="90" height="20" rx="10" fill="#B3B3B3"/>
<rect x="133" y="435" width="90" height="20" rx="10" fill="#B3B3B3"/>
<rect x="133" y="749" width="90" height="20" rx="10" fill="#B3B3B3"/>
<rect x="133" y="330" width="66" height="20" rx="10" fill="#B3B3B3"/>
<rect x="133" y="645" width="66" height="20" rx="10" fill="#B3B3B3"/>
<rect x="133" y="856" width="66" height="20" rx="10" fill="#B3B3B3"/>
<rect x="133" y="578" width="246" height="18" rx="9" fill="#D0D0D0"/>
<rect x="133" y="683" width="150" height="18" rx="9" fill="#D0D0D0"/>
<rect x="133" y="368" width="150" height="18" rx="9" fill="#D0D0D0"/>
<rect x="133" y="894" width="150" height="18" rx="9" fill="#D0D0D0"/>
<rect x="133" y="473" width="161" height="18" rx="9" fill="#D0D0D0"/>
<rect x="133" y="154" width="161" height="18" rx="9" fill="#D0D0D0"/>
<rect x="133" y="789" width="161" height="18" rx="9" fill="#D0D0D0"/>
<rect x="133" y="259" width="161" height="18" rx="9" fill="#D0D0D0"/>
<g clip-path="url(#clip1_1516_12509)" filter="url(#filter0_i_1516_12509)">
<rect width="440" height="56" transform="translate(0 900)" fill="#F9F9F9"/>
<g filter="url(#filter1_d_1516_12509)">
<path d="M48 941.334V928H56V941.334M40 924L52 914.667L64 924V938.667C64 939.374 63.719 940.053 63.219 940.553C62.7189 941.053 62.0406 941.334 61.3333 941.334H42.6667C41.9594 941.334 41.2811 941.053 40.781 940.553C40.281 940.053 40 939.374 40 938.667V924Z" stroke="#2F2E2E" stroke-width="3" stroke-linecap="round" stroke-linejoin="round"/>
</g>
<g filter="url(#filter2_d_1516_12509)">
<path d="M48 941.334V928H56V941.334M40 924L52 914.667L64 924V938.667C64 939.374 63.719 940.053 63.219 940.553C62.7189 941.053 62.0406 941.334 61.3333 941.334H42.6667C41.9594 941.334 41.2811 941.053 40.781 940.553C40.281 940.053 40 939.374 40 938.667V924Z" stroke="#2F2E2E" stroke-width="3" stroke-linecap="round" stroke-linejoin="round"/>
</g>
<g filter="url(#filter3_d_1516_12509)">
<path d="M163.252 912V944" stroke="#2F2E2E" stroke-width="13.9"/>
<path d="M180 928.299L148 928.299" stroke="#2F2E2E" stroke-width="13.9"/>
</g>
<g filter="url(#filter4_d_1516_12509)">
<path d="M266.537 940.702C269.794 940.601 275.661 939.882 278.289 937.808C280.186 936.311 282.455 934.629 284.655 933.637" stroke="#2F2E2E" stroke-width="3" stroke-linecap="round"/>
<path d="M275.351 934.52C280.291 933.883 287.27 930.245 289.552 926.13" stroke="#2F2E2E" stroke-width="3" stroke-linecap="round"/>
<path d="M282.207 927.455C285.292 924.926 292 923.863 292 919.507" stroke="#2F2E2E" stroke-width="3" stroke-linecap="round"/>
<path d="M286.124 919.507C286.904 919.419 286.949 916.047 287.13 915.312C287.472 913.925 289.491 912.993 290.041 912" stroke="#2F2E2E" stroke-width="3" stroke-linecap="round"/>
<path d="M261.641 936.728C261.208 933.218 260.395 929.26 262.13 926.13" stroke="#2F2E2E" stroke-width="3" stroke-linecap="round"/>
<path d="M266.048 930.546C267.887 928.68 268.194 925.7 269.475 923.677C270.358 922.284 270.693 920.283 272.413 919.507" stroke="#2F2E2E" stroke-width="3" stroke-linecap="round"/>
<path d="M274.372 922.598C274.372 921.389 275.88 918.248 276.929 917.397C278.765 915.907 280.262 915.974 282.696 915.974" stroke="#2F2E2E" stroke-width="3" stroke-linecap="round"/>
<path d="M283.061 920.583L260 944" stroke="#2F2E2E" stroke-width="3" stroke-linecap="round"/>
</g>
<g filter="url(#filter5_d_1516_12509)">
<circle cx="388" cy="928" r="14.5" fill="#FAF8FA" stroke="#2F2E2E" stroke-width="3"/>
<path d="M388.533 922.347V933.76" stroke="#2F2E2E" stroke-width="3"/>
<path d="M394.507 928.16L383.093 928.16" stroke="#2F2E2E" stroke-width="3"/>
</g>
</g>
<path d="M30.8757 83C31.6327 83 32.1781 82.3457 32.1781 81.4689V76.47H32.5009C36.82 76.47 39.5362 77.7525 41.4842 82.0316C41.8738 82.8691 42.3859 83 42.8534 83C43.4434 83 44 82.3719 44 81.2465C44 71.5758 40.5158 65.5431 32.5009 65.5431H32.1781V60.5965C32.1781 59.7197 31.6327 59 30.8534 59C30.308 59 29.9406 59.2748 29.3506 59.9291L20.5677 69.5867C20.1336 70.0709 20 70.5551 20 71C20 71.4318 20.1447 71.9291 20.5677 72.4002L29.3506 82.1494C29.885 82.7383 30.3302 83 30.8757 83ZM30.2412 80.1865C30.1744 80.1865 30.1076 80.1472 30.0519 80.0687L22.115 71.2486C22.026 71.1439 21.9926 71.0785 21.9926 71C21.9926 70.9215 22.026 70.843 22.115 70.7514L30.0408 61.8135C30.0965 61.7612 30.1633 61.7088 30.2301 61.7088C30.3302 61.7088 30.3859 61.7874 30.3859 61.892V67.0872C30.3859 67.3882 30.5083 67.5191 30.7644 67.5191H32.256C39.8924 67.5191 42.1967 73.7481 42.4193 79.9248C42.4193 80.0294 42.3859 80.0687 42.3302 80.0687C42.2857 80.0687 42.2635 80.0294 42.2301 79.9378C40.9165 76.6532 37.5436 74.494 32.256 74.494H30.7644C30.5083 74.494 30.3859 74.6249 30.3859 74.9258V79.9902C30.3859 80.108 30.3302 80.1865 30.2412 80.1865Z" stroke="#2F2E2E"/>
</g>
<defs>
<filter id="filter0_i_1516_12509" x="0" y="900" width="440" height="60" filterUnits="userSpaceOnUse" color-interpolation-filters="sRGB">
<feFlood flood-opacity="0" result="BackgroundImageFix"/>
<feBlend mode="normal" in="SourceGraphic" in2="BackgroundImageFix" result="shape"/>
<feColorMatrix in="SourceAlpha" type="matrix" values="0 0 0 0 0 0 0 0 0 0 0 0 0 0 0 0 0 0 127 0" result="hardAlpha"/>
<feOffset dy="5"/>
<feGaussianBlur stdDeviation="2"/>
<feComposite in2="hardAlpha" operator="arithmetic" k2="-1" k3="1"/>
<feColorMatrix type="matrix" values="0 0 0 0 0.770833 0 0 0 0 0.631441 0 0 0 0 0.722046 0 0 0 0.5 0"/>
<feBlend mode="normal" in2="shape" result="effect1_innerShadow_1516_12509"/>
</filter>
<filter id="filter1_d_1516_12509" x="31" y="912" width="42" height="44" filterUnits="userSpaceOnUse" color-interpolation-filters="sRGB">
<feFlood flood-opacity="0" result="BackgroundImageFix"/>
<feColorMatrix in="SourceAlpha" type="matrix" values="0 0 0 0 0 0 0 0 0 0 0 0 0 0 0 0 0 0 127 0" result="hardAlpha"/>
<feOffset dy="7"/>
<feGaussianBlur stdDeviation="2.5"/>
<feComposite in2="hardAlpha" operator="out"/>
<feColorMatrix type="matrix" values="0 0 0 0 0.770833 0 0 0 0 0.631441 0 0 0 0 0.722046 0 0 0 1 0"/>
<feBlend mode="normal" in2="BackgroundImageFix" result="effect1_dropShadow_1516_12509"/>
<feBlend mode="normal" in="SourceGraphic" in2="effect1_dropShadow_1516_12509" result="shape"/>
</filter>
<filter id="filter2_d_1516_12509" x="31" y="912" width="42" height="44" filterUnits="userSpaceOnUse" color-interpolation-filters="sRGB">
<feFlood flood-opacity="0" result="BackgroundImageFix"/>
<feColorMatrix in="SourceAlpha" type="matrix" values="0 0 0 0 0 0 0 0 0 0 0 0 0 0 0 0 0 0 127 0" result="hardAlpha"/>
<feOffset dy="7"/>
<feGaussianBlur stdDeviation="2.5"/>
<feComposite in2="hardAlpha" operator="out"/>
<feColorMatrix type="matrix" values="0 0 0 0 0.770833 0 0 0 0 0.631441 0 0 0 0 0.722046 0 0 0 1 0"/>
<feBlend mode="normal" in2="BackgroundImageFix" result="effect1_dropShadow_1516_12509"/>
<feBlend mode="normal" in="SourceGraphic" in2="effect1_dropShadow_1516_12509" result="shape"/>
</filter>
<filter id="filter3_d_1516_12509" x="143" y="912" width="42" height="44" filterUnits="userSpaceOnUse" color-interpolation-filters="sRGB">
<feFlood flood-opacity="0" result="BackgroundImageFix"/>
<feColorMatrix in="SourceAlpha" type="matrix" values="0 0 0 0 0 0 0 0 0 0 0 0 0 0 0 0 0 0 127 0" result="hardAlpha"/>
<feOffset dy="7"/>
<feGaussianBlur stdDeviation="2.5"/>
<feComposite in2="hardAlpha" operator="out"/>
<feColorMatrix type="matrix" values="0 0 0 0 0.770833 0 0 0 0 0.631441 0 0 0 0 0.722046 0 0 0 1 0"/>
<feBlend mode="normal" in2="BackgroundImageFix" result="effect1_dropShadow_1516_12509"/>
<feBlend mode="normal" in="SourceGraphic" in2="effect1_dropShadow_1516_12509" result="shape"/>
</filter>
<filter id="filter4_d_1516_12509" x="253.425" y="910.5" width="45.0745" height="46.9224" filterUnits="userSpaceOnUse" color-interpolation-filters="sRGB">
<feFlood flood-opacity="0" result="BackgroundImageFix"/>
<feColorMatrix in="SourceAlpha" type="matrix" values="0 0 0 0 0 0 0 0 0 0 0 0 0 0 0 0 0 0 127 0" result="hardAlpha"/>
<feOffset dy="7"/>
<feGaussianBlur stdDeviation="2.5"/>
<feComposite in2="hardAlpha" operator="out"/>
<feColorMatrix type="matrix" values="0 0 0 0 0.770833 0 0 0 0 0.631441 0 0 0 0 0.722046 0 0 0 1 0"/>
<feBlend mode="normal" in2="BackgroundImageFix" result="effect1_dropShadow_1516_12509"/>
<feBlend mode="normal" in="SourceGraphic" in2="effect1_dropShadow_1516_12509" result="shape"/>
</filter>
<filter id="filter5_d_1516_12509" x="367" y="912" width="42" height="44" filterUnits="userSpaceOnUse" color-interpolation-filters="sRGB">
<feFlood flood-opacity="0" result="BackgroundImageFix"/>
<feColorMatrix in="SourceAlpha" type="matrix" values="0 0 0 0 0 0 0 0 0 0 0 0 0 0 0 0 0 0 127 0" result="hardAlpha"/>
<feOffset dy="7"/>
<feGaussianBlur stdDeviation="2.5"/>
<feComposite in2="hardAlpha" operator="out"/>
<feColorMatrix type="matrix" values="0 0 0 0 0.770833 0 0 0 0 0.631441 0 0 0 0 0.722046 0 0 0 1 0"/>
<feBlend mode="normal" in2="BackgroundImageFix" result="effect1_dropShadow_1516_12509"/>
<feBlend mode="normal" in="SourceGraphic" in2="effect1_dropShadow_1516_12509" result="shape"/>
</filter>
<clipPath id="clip0_1516_12509">
<rect width="440" height="956" fill="white"/>
</clipPath>
<clipPath id="clip1_1516_12509">
<rect width="440" height="56" fill="white" transform="translate(0 900)"/>
</clipPath>
</defs>
</svg>
