<svg width="440" height="956" viewBox="0 0 440 956" fill="none" xmlns="http://www.w3.org/2000/svg">
<g clip-path="url(#clip0_1564_12589)">
<rect width="440" height="956" fill="white"/>
<rect x="0.5" y="0.5" width="439" height="955" fill="white" stroke="#2F2E2E"/>
<rect x="0.5" y="574.5" width="439" height="36" fill="#D0D0D0" stroke="#2F2E2E"/>
<path d="M176.119 589H174.534C174.44 588.544 174.276 588.143 174.042 587.798C173.812 587.453 173.531 587.163 173.198 586.929C172.87 586.69 172.506 586.511 172.105 586.392C171.705 586.273 171.287 586.213 170.852 586.213C170.06 586.213 169.342 586.413 168.698 586.814C168.059 587.214 167.55 587.805 167.17 588.585C166.795 589.364 166.608 590.321 166.608 591.455C166.608 592.588 166.795 593.545 167.17 594.325C167.55 595.104 168.059 595.695 168.698 596.095C169.342 596.496 170.06 596.696 170.852 596.696C171.287 596.696 171.705 596.636 172.105 596.517C172.506 596.398 172.87 596.221 173.198 595.987C173.531 595.748 173.812 595.456 174.042 595.111C174.276 594.761 174.44 594.361 174.534 593.909H176.119C176 594.578 175.783 595.177 175.467 595.705C175.152 596.234 174.76 596.683 174.291 597.054C173.822 597.42 173.296 597.7 172.712 597.891C172.133 598.083 171.513 598.179 170.852 598.179C169.736 598.179 168.743 597.906 167.874 597.361C167.004 596.815 166.32 596.04 165.822 595.034C165.323 594.028 165.074 592.835 165.074 591.455C165.074 590.074 165.323 588.881 165.822 587.875C166.32 586.869 167.004 586.094 167.874 585.548C168.743 585.003 169.736 584.73 170.852 584.73C171.513 584.73 172.133 584.826 172.712 585.018C173.296 585.21 173.822 585.491 174.291 585.862C174.76 586.228 175.152 586.675 175.467 587.204C175.783 587.728 176 588.327 176.119 589ZM181.366 598.23C180.743 598.23 180.179 598.113 179.672 597.879C179.165 597.64 178.762 597.297 178.464 596.849C178.165 596.398 178.016 595.852 178.016 595.213C178.016 594.651 178.127 594.195 178.349 593.845C178.57 593.491 178.866 593.214 179.237 593.014C179.608 592.814 180.017 592.665 180.464 592.567C180.916 592.464 181.37 592.384 181.826 592.324C182.422 592.247 182.906 592.19 183.277 592.151C183.652 592.109 183.925 592.038 184.095 591.94C184.27 591.842 184.357 591.672 184.357 591.429V591.378C184.357 590.747 184.184 590.257 183.839 589.908C183.498 589.558 182.981 589.384 182.286 589.384C181.566 589.384 181.001 589.541 180.592 589.857C180.183 590.172 179.895 590.509 179.729 590.866L178.297 590.355C178.553 589.759 178.894 589.294 179.32 588.962C179.751 588.625 180.219 588.391 180.726 588.259C181.238 588.122 181.741 588.054 182.235 588.054C182.55 588.054 182.912 588.092 183.322 588.169C183.735 588.241 184.133 588.393 184.517 588.623C184.905 588.853 185.226 589.2 185.482 589.665C185.738 590.129 185.866 590.751 185.866 591.531V598H184.357V596.67H184.28C184.178 596.884 184.008 597.112 183.769 597.354C183.53 597.597 183.213 597.804 182.817 597.974C182.42 598.145 181.937 598.23 181.366 598.23ZM181.596 596.875C182.192 596.875 182.695 596.758 183.104 596.523C183.518 596.289 183.829 595.987 184.037 595.616C184.251 595.245 184.357 594.855 184.357 594.446V593.065C184.293 593.142 184.153 593.212 183.935 593.276C183.722 593.336 183.475 593.389 183.194 593.436C182.917 593.479 182.646 593.517 182.382 593.551C182.122 593.581 181.911 593.607 181.749 593.628C181.357 593.679 180.991 593.762 180.65 593.877C180.313 593.988 180.04 594.156 179.831 594.382C179.627 594.604 179.525 594.906 179.525 595.29C179.525 595.814 179.719 596.21 180.106 596.479C180.498 596.743 180.995 596.875 181.596 596.875ZM188.619 598V588.182H190.076V589.716H190.204C190.409 589.192 190.739 588.785 191.195 588.495C191.651 588.201 192.199 588.054 192.838 588.054C193.485 588.054 194.025 588.201 194.455 588.495C194.89 588.785 195.228 589.192 195.471 589.716H195.574C195.825 589.209 196.202 588.806 196.705 588.508C197.208 588.205 197.811 588.054 198.514 588.054C199.392 588.054 200.11 588.329 200.668 588.879C201.226 589.424 201.505 590.274 201.505 591.429V598H199.997V591.429C199.997 590.705 199.799 590.187 199.402 589.876C199.006 589.565 198.539 589.409 198.002 589.409C197.312 589.409 196.777 589.618 196.398 590.036C196.019 590.449 195.829 590.973 195.829 591.608V598H194.295V591.276C194.295 590.717 194.114 590.268 193.752 589.927C193.39 589.582 192.923 589.409 192.352 589.409C191.96 589.409 191.593 589.513 191.252 589.722C190.916 589.931 190.643 590.221 190.434 590.592C190.23 590.958 190.127 591.382 190.127 591.864V598H188.619ZM208.38 598.205C207.434 598.205 206.618 597.996 205.932 597.578C205.25 597.156 204.724 596.568 204.353 595.814C203.987 595.055 203.803 594.173 203.803 593.168C203.803 592.162 203.987 591.276 204.353 590.509C204.724 589.737 205.239 589.136 205.9 588.706C206.565 588.271 207.34 588.054 208.227 588.054C208.738 588.054 209.243 588.139 209.741 588.31C210.24 588.48 210.694 588.757 211.103 589.141C211.512 589.52 211.838 590.023 212.081 590.649C212.324 591.276 212.445 592.047 212.445 592.963V593.602H204.877V592.298H210.911C210.911 591.744 210.8 591.25 210.579 590.815C210.362 590.381 210.05 590.038 209.646 589.786C209.245 589.535 208.772 589.409 208.227 589.409C207.626 589.409 207.106 589.558 206.667 589.857C206.232 590.151 205.898 590.534 205.663 591.007C205.429 591.48 205.312 591.987 205.312 592.528V593.398C205.312 594.139 205.44 594.768 205.695 595.283C205.955 595.795 206.315 596.185 206.776 596.453C207.236 596.717 207.771 596.849 208.38 596.849C208.776 596.849 209.134 596.794 209.454 596.683C209.778 596.568 210.057 596.398 210.291 596.172C210.526 595.942 210.707 595.656 210.835 595.315L212.292 595.724C212.138 596.219 211.881 596.653 211.518 597.028C211.156 597.399 210.709 597.689 210.176 597.898C209.643 598.102 209.045 598.205 208.38 598.205ZM214.74 598V588.182H216.197V589.665H216.3C216.479 589.179 216.803 588.785 217.271 588.482C217.74 588.18 218.268 588.028 218.857 588.028C218.967 588.028 219.106 588.031 219.272 588.035C219.438 588.039 219.564 588.045 219.649 588.054V589.588C219.598 589.575 219.481 589.556 219.298 589.531C219.119 589.501 218.929 589.486 218.729 589.486C218.251 589.486 217.825 589.586 217.45 589.786C217.08 589.982 216.786 590.255 216.568 590.604C216.355 590.95 216.249 591.344 216.249 591.787V598H214.74ZM224.327 598.23C223.704 598.23 223.14 598.113 222.633 597.879C222.126 597.64 221.723 597.297 221.425 596.849C221.126 596.398 220.977 595.852 220.977 595.213C220.977 594.651 221.088 594.195 221.309 593.845C221.531 593.491 221.827 593.214 222.198 593.014C222.569 592.814 222.978 592.665 223.425 592.567C223.877 592.464 224.331 592.384 224.787 592.324C225.383 592.247 225.867 592.19 226.238 592.151C226.613 592.109 226.885 592.038 227.056 591.94C227.231 591.842 227.318 591.672 227.318 591.429V591.378C227.318 590.747 227.145 590.257 226.8 589.908C226.459 589.558 225.942 589.384 225.247 589.384C224.527 589.384 223.962 589.541 223.553 589.857C223.144 590.172 222.856 590.509 222.69 590.866L221.258 590.355C221.514 589.759 221.855 589.294 222.281 588.962C222.711 588.625 223.18 588.391 223.687 588.259C224.199 588.122 224.702 588.054 225.196 588.054C225.511 588.054 225.873 588.092 226.282 588.169C226.696 588.241 227.094 588.393 227.478 588.623C227.866 588.853 228.187 589.2 228.443 589.665C228.699 590.129 228.827 590.751 228.827 591.531V598H227.318V596.67H227.241C227.139 596.884 226.969 597.112 226.73 597.354C226.491 597.597 226.174 597.804 225.778 597.974C225.381 598.145 224.898 598.23 224.327 598.23ZM224.557 596.875C225.153 596.875 225.656 596.758 226.065 596.523C226.479 596.289 226.79 595.987 226.998 595.616C227.211 595.245 227.318 594.855 227.318 594.446V593.065C227.254 593.142 227.113 593.212 226.896 593.276C226.683 593.336 226.436 593.389 226.155 593.436C225.878 593.479 225.607 593.517 225.343 593.551C225.083 593.581 224.872 593.607 224.71 593.628C224.318 593.679 223.952 593.762 223.611 593.877C223.274 593.988 223.001 594.156 222.792 594.382C222.588 594.604 222.486 594.906 222.486 595.29C222.486 595.814 222.68 596.21 223.067 596.479C223.459 596.743 223.956 596.875 224.557 596.875ZM236.847 598V584.909H241.27C242.293 584.909 243.132 585.084 243.789 585.433C244.445 585.778 244.931 586.254 245.246 586.859C245.561 587.464 245.719 588.152 245.719 588.923C245.719 589.695 245.561 590.379 245.246 590.975C244.931 591.572 244.447 592.04 243.795 592.381C243.143 592.718 242.31 592.886 241.296 592.886H237.716V591.455H241.245C241.944 591.455 242.506 591.352 242.932 591.148C243.363 590.943 243.674 590.653 243.865 590.278C244.061 589.899 244.159 589.447 244.159 588.923C244.159 588.399 244.061 587.941 243.865 587.549C243.669 587.157 243.356 586.854 242.926 586.641C242.495 586.424 241.926 586.315 241.219 586.315H238.432V598H236.847ZM243.009 592.119L246.23 598H244.39L241.219 592.119H243.009ZM252.039 598.205C251.153 598.205 250.375 597.994 249.706 597.572C249.041 597.15 248.521 596.56 248.146 595.801C247.776 595.043 247.59 594.156 247.59 593.142C247.59 592.119 247.776 591.227 248.146 590.464C248.521 589.701 249.041 589.109 249.706 588.687C250.375 588.265 251.153 588.054 252.039 588.054C252.926 588.054 253.701 588.265 254.366 588.687C255.035 589.109 255.555 589.701 255.926 590.464C256.301 591.227 256.488 592.119 256.488 593.142C256.488 594.156 256.301 595.043 255.926 595.801C255.555 596.56 255.035 597.15 254.366 597.572C253.701 597.994 252.926 598.205 252.039 598.205ZM252.039 596.849C252.713 596.849 253.267 596.677 253.701 596.332C254.136 595.987 254.458 595.533 254.666 594.97C254.875 594.408 254.98 593.798 254.98 593.142C254.98 592.486 254.875 591.874 254.666 591.308C254.458 590.741 254.136 590.283 253.701 589.933C253.267 589.584 252.713 589.409 252.039 589.409C251.366 589.409 250.812 589.584 250.377 589.933C249.943 590.283 249.621 590.741 249.412 591.308C249.203 591.874 249.099 592.486 249.099 593.142C249.099 593.798 249.203 594.408 249.412 594.97C249.621 595.533 249.943 595.987 250.377 596.332C250.812 596.677 251.366 596.849 252.039 596.849ZM260.299 584.909V598H258.791V584.909H260.299ZM264.571 584.909V598H263.062V584.909H264.571Z" fill="#2F2E2E"/>
<path d="M6.5 634C6.5 631.515 8.51472 629.5 11 629.5H135C137.485 629.5 139.5 631.515 139.5 634V758C139.5 760.485 137.485 762.5 135 762.5H11C8.51472 762.5 6.5 760.485 6.5 758V634Z" fill="#D0D0D0" stroke="#2F2E2E"/>
<path d="M6.5 780C6.5 777.515 8.51472 775.5 11 775.5H135C137.485 775.5 139.5 777.515 139.5 780V904C139.5 906.485 137.485 908.5 135 908.5H11C8.51472 908.5 6.5 906.485 6.5 904V780Z" fill="#D0D0D0" stroke="#2F2E2E"/>
<path d="M7.5 926C7.5 923.515 9.51472 921.5 12 921.5H136C138.485 921.5 140.5 923.515 140.5 926V1050C140.5 1052.49 138.485 1054.5 136 1054.5H12C9.51472 1054.5 7.5 1052.49 7.5 1050V926Z" fill="#D0D0D0" stroke="#2F2E2E"/>
<path d="M153.5 926C153.5 923.515 155.515 921.5 158 921.5H282C284.485 921.5 286.5 923.515 286.5 926V1050C286.5 1052.49 284.485 1054.5 282 1054.5H158C155.515 1054.5 153.5 1052.49 153.5 1050V926Z" fill="#D0D0D0" stroke="#2F2E2E"/>
<path d="M299.5 926C299.5 923.515 301.515 921.5 304 921.5H428C430.485 921.5 432.5 923.515 432.5 926V1050C432.5 1052.49 430.485 1054.5 428 1054.5H304C301.515 1054.5 299.5 1052.49 299.5 1050V926Z" fill="#D0D0D0" stroke="#2F2E2E"/>
<path d="M152.5 634C152.5 631.515 154.515 629.5 157 629.5H281C283.485 629.5 285.5 631.515 285.5 634V758C285.5 760.485 283.485 762.5 281 762.5H157C154.515 762.5 152.5 760.485 152.5 758V634Z" fill="#D0D0D0" stroke="#2F2E2E"/>
<path d="M152.5 780C152.5 777.515 154.515 775.5 157 775.5H281C283.485 775.5 285.5 777.515 285.5 780V904C285.5 906.485 283.485 908.5 281 908.5H157C154.515 908.5 152.5 906.485 152.5 904V780Z" fill="#D0D0D0" stroke="#2F2E2E"/>
<path d="M298.5 634C298.5 631.515 300.515 629.5 303 629.5H427C429.485 629.5 431.5 631.515 431.5 634V758C431.5 760.485 429.485 762.5 427 762.5H303C300.515 762.5 298.5 760.485 298.5 758V634Z" fill="#D0D0D0" stroke="#2F2E2E"/>
<path d="M298.5 780C298.5 777.515 300.515 775.5 303 775.5H427C429.485 775.5 431.5 777.515 431.5 780V904C431.5 906.485 429.485 908.5 427 908.5H303C300.515 908.5 298.5 906.485 298.5 904V780Z" fill="#D0D0D0" stroke="#2F2E2E"/>
<path d="M39.5 197C39.5 194.515 41.5147 192.5 44 192.5H394C396.485 192.5 398.5 194.515 398.5 197V547C398.5 549.485 396.485 551.5 394 551.5H44C41.5147 551.5 39.5 549.485 39.5 547V197Z" fill="#D0D0D0" stroke="#2F2E2E"/>
<path d="M332.5 136C332.5 127.992 338.992 121.5 347 121.5H417C425.008 121.5 431.5 127.992 431.5 136V150C431.5 158.008 425.008 164.5 417 164.5H347C338.992 164.5 332.5 158.008 332.5 150V136Z" fill="#DD00A9" stroke="#2F2E2E"/>
<path d="M371.466 134.909V148H369.932L362.798 137.722H362.67V148H361.085V134.909H362.619L369.778 145.213H369.906V134.909H371.466ZM378.55 148.205C377.604 148.205 376.788 147.996 376.102 147.578C375.42 147.156 374.894 146.568 374.523 145.814C374.156 145.055 373.973 144.173 373.973 143.168C373.973 142.162 374.156 141.276 374.523 140.509C374.894 139.737 375.409 139.136 376.07 138.706C376.735 138.271 377.51 138.054 378.396 138.054C378.908 138.054 379.413 138.139 379.911 138.31C380.41 138.48 380.864 138.757 381.273 139.141C381.682 139.52 382.008 140.023 382.251 140.649C382.494 141.276 382.615 142.047 382.615 142.963V143.602H375.047V142.298H381.081C381.081 141.744 380.97 141.25 380.749 140.815C380.531 140.381 380.22 140.038 379.816 139.786C379.415 139.535 378.942 139.409 378.396 139.409C377.796 139.409 377.276 139.558 376.837 139.857C376.402 140.151 376.068 140.534 375.833 141.007C375.599 141.48 375.482 141.987 375.482 142.528V143.398C375.482 144.139 375.61 144.768 375.865 145.283C376.125 145.795 376.485 146.185 376.945 146.453C377.406 146.717 377.941 146.849 378.55 146.849C378.946 146.849 379.304 146.794 379.624 146.683C379.948 146.568 380.227 146.398 380.461 146.172C380.695 145.942 380.877 145.656 381.004 145.315L382.462 145.724C382.308 146.219 382.051 146.653 381.688 147.028C381.326 147.399 380.879 147.689 380.346 147.898C379.813 148.102 379.215 148.205 378.55 148.205ZM385.771 138.182L388.124 142.196L390.476 138.182H392.214L389.044 143.091L392.214 148H390.476L388.124 144.19L385.771 148H384.033L387.152 143.091L384.033 138.182H385.771ZM398.637 138.182V139.46H393.549V138.182H398.637ZM395.032 135.83H396.54V145.188C396.54 145.614 396.602 145.933 396.726 146.146C396.854 146.355 397.015 146.496 397.211 146.568C397.412 146.636 397.623 146.67 397.844 146.67C398.01 146.67 398.147 146.662 398.253 146.645C398.36 146.624 398.445 146.607 398.509 146.594L398.816 147.949C398.714 147.987 398.571 148.026 398.388 148.064C398.204 148.107 397.972 148.128 397.691 148.128C397.265 148.128 396.847 148.036 396.438 147.853C396.033 147.67 395.697 147.391 395.428 147.016C395.164 146.641 395.032 146.168 395.032 145.597V135.83Z" fill="#2F2E2E"/>
<path d="M32.1193 139H30.5341C30.4403 138.544 30.2763 138.143 30.0419 137.798C29.8118 137.453 29.5305 137.163 29.1982 136.929C28.87 136.69 28.5057 136.511 28.1051 136.392C27.7045 136.273 27.2869 136.213 26.8523 136.213C26.0597 136.213 25.3416 136.413 24.6982 136.814C24.0589 137.214 23.5497 137.805 23.1705 138.585C22.7955 139.364 22.608 140.321 22.608 141.455C22.608 142.588 22.7955 143.545 23.1705 144.325C23.5497 145.104 24.0589 145.695 24.6982 146.095C25.3416 146.496 26.0597 146.696 26.8523 146.696C27.2869 146.696 27.7045 146.636 28.1051 146.517C28.5057 146.398 28.87 146.221 29.1982 145.987C29.5305 145.748 29.8118 145.456 30.0419 145.111C30.2763 144.761 30.4403 144.361 30.5341 143.909H32.1193C32 144.578 31.7827 145.177 31.4673 145.705C31.152 146.234 30.7599 146.683 30.2912 147.054C29.8224 147.42 29.2962 147.7 28.7124 147.891C28.1328 148.083 27.5128 148.179 26.8523 148.179C25.7358 148.179 24.7429 147.906 23.8736 147.361C23.0043 146.815 22.3203 146.04 21.8217 145.034C21.3232 144.028 21.0739 142.835 21.0739 141.455C21.0739 140.074 21.3232 138.881 21.8217 137.875C22.3203 136.869 23.0043 136.094 23.8736 135.548C24.7429 135.003 25.7358 134.73 26.8523 134.73C27.5128 134.73 28.1328 134.826 28.7124 135.018C29.2962 135.21 29.8224 135.491 30.2912 135.862C30.7599 136.228 31.152 136.675 31.4673 137.204C31.7827 137.728 32 138.327 32.1193 139ZM37.3656 148.23C36.7434 148.23 36.1788 148.113 35.6717 147.879C35.1646 147.64 34.7619 147.297 34.4636 146.849C34.1653 146.398 34.0162 145.852 34.0162 145.213C34.0162 144.651 34.127 144.195 34.3485 143.845C34.5701 143.491 34.8663 143.214 35.237 143.014C35.6078 142.814 36.0169 142.665 36.4643 142.567C36.916 142.464 37.3699 142.384 37.8258 142.324C38.4224 142.247 38.9061 142.19 39.2768 142.151C39.6518 142.109 39.9245 142.038 40.095 141.94C40.2697 141.842 40.3571 141.672 40.3571 141.429V141.378C40.3571 140.747 40.1845 140.257 39.8393 139.908C39.4984 139.558 38.9806 139.384 38.286 139.384C37.5659 139.384 37.0012 139.541 36.5922 139.857C36.1831 140.172 35.8954 140.509 35.7292 140.866L34.2974 140.355C34.5531 139.759 34.894 139.294 35.3201 138.962C35.7505 138.625 36.2193 138.391 36.7264 138.259C37.2377 138.122 37.7406 138.054 38.2349 138.054C38.5502 138.054 38.9125 138.092 39.3216 138.169C39.7349 138.241 40.1333 138.393 40.5169 138.623C40.9047 138.853 41.2264 139.2 41.4821 139.665C41.7377 140.129 41.8656 140.751 41.8656 141.531V148H40.3571V146.67H40.2804C40.1781 146.884 40.0076 147.112 39.769 147.354C39.5304 147.597 39.2129 147.804 38.8166 147.974C38.4203 148.145 37.9366 148.23 37.3656 148.23ZM37.5957 146.875C38.1923 146.875 38.6951 146.758 39.1042 146.523C39.5176 146.289 39.8287 145.987 40.0375 145.616C40.2505 145.245 40.3571 144.855 40.3571 144.446V143.065C40.2931 143.142 40.1525 143.212 39.9352 143.276C39.7221 143.336 39.475 143.389 39.1937 143.436C38.9167 143.479 38.6461 143.517 38.3819 143.551C38.122 143.581 37.911 143.607 37.7491 143.628C37.3571 143.679 36.9906 143.762 36.6497 143.877C36.313 143.988 36.0403 144.156 35.8315 144.382C35.627 144.604 35.5247 144.906 35.5247 145.29C35.5247 145.814 35.7186 146.21 36.1064 146.479C36.4984 146.743 36.9949 146.875 37.5957 146.875ZM46.1275 142.094V148H44.619V138.182H46.0763V139.716H46.2042C46.4343 139.217 46.7837 138.817 47.2525 138.514C47.7212 138.207 48.3263 138.054 49.0678 138.054C49.7326 138.054 50.3143 138.19 50.8129 138.463C51.3114 138.732 51.6992 139.141 51.9762 139.69C52.2532 140.236 52.3917 140.926 52.3917 141.761V148H50.8832V141.864C50.8832 141.092 50.6829 140.491 50.2823 140.061C49.8817 139.626 49.332 139.409 48.6332 139.409C48.1516 139.409 47.7212 139.513 47.342 139.722C46.967 139.931 46.6708 140.236 46.4535 140.636C46.2362 141.037 46.1275 141.523 46.1275 142.094ZM59.1369 148.205C58.2164 148.205 57.4238 147.987 56.7591 147.553C56.0943 147.118 55.5829 146.519 55.225 145.756C54.867 144.994 54.688 144.122 54.688 143.142C54.688 142.145 54.8713 141.265 55.2377 140.502C55.6085 139.735 56.1241 139.136 56.7846 138.706C57.4494 138.271 58.225 138.054 59.1113 138.054C59.8017 138.054 60.4238 138.182 60.9778 138.438C61.5318 138.693 61.9856 139.051 62.3393 139.511C62.693 139.972 62.9125 140.509 62.9977 141.122H61.4892C61.3741 140.675 61.1184 140.278 60.7221 139.933C60.3301 139.584 59.8017 139.409 59.1369 139.409C58.5488 139.409 58.0332 139.562 57.59 139.869C57.1511 140.172 56.8081 140.6 56.5609 141.154C56.318 141.704 56.1966 142.349 56.1966 143.091C56.1966 143.849 56.3159 144.51 56.5545 145.072C56.7974 145.635 57.1383 146.072 57.5772 146.383C58.0204 146.694 58.5403 146.849 59.1369 146.849C59.5289 146.849 59.8848 146.781 60.2044 146.645C60.524 146.509 60.7946 146.312 61.0162 146.057C61.2377 145.801 61.3954 145.494 61.4892 145.136H62.9977C62.9125 145.716 62.7015 146.238 62.3649 146.702C62.0325 147.163 61.5914 147.529 61.0417 147.802C60.4963 148.07 59.8613 148.205 59.1369 148.205ZM69.3194 148.205C68.3734 148.205 67.5574 147.996 66.8713 147.578C66.1895 147.156 65.6632 146.568 65.2924 145.814C64.926 145.055 64.7427 144.173 64.7427 143.168C64.7427 142.162 64.926 141.276 65.2924 140.509C65.6632 139.737 66.1788 139.136 66.8393 138.706C67.5041 138.271 68.2797 138.054 69.166 138.054C69.6774 138.054 70.1824 138.139 70.6809 138.31C71.1795 138.48 71.6333 138.757 72.0424 139.141C72.4515 139.52 72.7775 140.023 73.0204 140.649C73.2633 141.276 73.3848 142.047 73.3848 142.963V143.602H65.8166V142.298H71.8507C71.8507 141.744 71.7399 141.25 71.5183 140.815C71.301 140.381 70.9899 140.038 70.5851 139.786C70.1845 139.535 69.7115 139.409 69.166 139.409C68.5652 139.409 68.0453 139.558 67.6064 139.857C67.1717 140.151 66.8372 140.534 66.6028 141.007C66.3684 141.48 66.2512 141.987 66.2512 142.528V143.398C66.2512 144.139 66.3791 144.768 66.6348 145.283C66.8947 145.795 67.2548 146.185 67.715 146.453C68.1752 146.717 68.7101 146.849 69.3194 146.849C69.7157 146.849 70.0737 146.794 70.3933 146.683C70.7172 146.568 70.9963 146.398 71.2306 146.172C71.465 145.942 71.6461 145.656 71.774 145.315L73.2314 145.724C73.0779 146.219 72.8201 146.653 72.4579 147.028C72.0957 147.399 71.6483 147.689 71.1156 147.898C70.5829 148.102 69.9842 148.205 69.3194 148.205ZM77.188 134.909V148H75.6795V134.909H77.188Z" fill="#2F2E2E"/>
<rect x="0.5" y="0.5" width="439" height="105" fill="white" stroke="#2F2E2E"/>
<path d="M30.8757 85C31.6327 85 32.1781 84.3457 32.1781 83.4689V78.47H32.5009C36.82 78.47 39.5362 79.7525 41.4842 84.0316C41.8738 84.8691 42.3859 85 42.8534 85C43.4434 85 44 84.3719 44 83.2465C44 73.5758 40.5158 67.5431 32.5009 67.5431H32.1781V62.5965C32.1781 61.7197 31.6327 61 30.8534 61C30.308 61 29.9406 61.2748 29.3506 61.9291L20.5677 71.5867C20.1336 72.0709 20 72.5551 20 73C20 73.4318 20.1447 73.9291 20.5677 74.4002L29.3506 84.1494C29.885 84.7383 30.3302 85 30.8757 85ZM30.2412 82.1865C30.1744 82.1865 30.1076 82.1472 30.0519 82.0687L22.115 73.2486C22.026 73.1439 21.9926 73.0785 21.9926 73C21.9926 72.9215 22.026 72.843 22.115 72.7514L30.0408 63.8135C30.0965 63.7612 30.1633 63.7088 30.2301 63.7088C30.3302 63.7088 30.3859 63.7874 30.3859 63.892V69.0872C30.3859 69.3882 30.5083 69.5191 30.7644 69.5191H32.256C39.8924 69.5191 42.1967 75.7481 42.4193 81.9248C42.4193 82.0294 42.3859 82.0687 42.3302 82.0687C42.2857 82.0687 42.2635 82.0294 42.2301 81.9378C40.9165 78.6532 37.5436 76.494 32.256 76.494H30.7644C30.5083 76.494 30.3859 76.6249 30.3859 76.9258V81.9902C30.3859 82.108 30.3302 82.1865 30.2412 82.1865Z" stroke="#2F2E2E"/>
<path fill-rule="evenodd" clip-rule="evenodd" d="M366 33.6667C366 32.1939 367.194 31 368.667 31H385.333C386.806 31 388 32.1939 388 33.6667V39.6667C388 41.1394 386.806 42.3333 385.333 42.3333H368.667C367.194 42.3333 366 41.1394 366 39.6667V33.6667Z" stroke="#2F2E2E"/>
<path d="M389 34.667V38.667C389.805 38.3282 390.328 37.5401 390.328 36.667C390.328 35.7939 389.805 35.0058 389 34.667" stroke="#2F2E2E"/>
<path d="M368 34.3333C368 33.597 368.597 33 369.333 33H384.667C385.403 33 386 33.597 386 34.3333V39C386 39.7364 385.403 40.3333 384.667 40.3333H369.333C368.597 40.3333 368 39.7364 368 39V34.3333Z" stroke="#2F2E2E"/>
<path d="M337 38.6665H338C338.552 38.6665 339 39.1142 339 39.6665V41.6665C339 42.2188 338.552 42.6665 338 42.6665H337C336.448 42.6665 336 42.2188 336 41.6665V39.6665C336 39.1142 336.448 38.6665 337 38.6665Z" stroke="#2F2E2E"/>
<path d="M341.668 36.6665H342.668C343.22 36.6665 343.668 37.1142 343.668 37.6665V41.6665C343.668 42.2188 343.22 42.6665 342.668 42.6665H341.668C341.116 42.6665 340.668 42.2188 340.668 41.6665V37.6665C340.668 37.1142 341.116 36.6665 341.668 36.6665Z" stroke="#2F2E2E"/>
<path d="M346.332 34.3335H347.332C347.884 34.3335 348.332 34.7812 348.332 35.3335V41.6668C348.332 42.2191 347.884 42.6668 347.332 42.6668H346.332C345.78 42.6668 345.332 42.2191 345.332 41.6668V35.3335C345.332 34.7812 345.78 34.3335 346.332 34.3335Z" stroke="#2F2E2E"/>
<path d="M351 32H352C352.552 32 353 32.4477 353 33V41.6667C353 42.219 352.552 42.6667 352 42.6667H351C350.448 42.6667 350 42.219 350 41.6667V33C350 32.4477 350.448 32 351 32V32Z" stroke="#2F2E2E"/>
<path d="M52.3418 39.7628V38.6761L57.1359 31.0909H57.9242V32.7741H57.3916L53.7694 38.5057V38.5909H60.2254V39.7628H52.3418ZM57.4768 42V39.4325V38.9265V31.0909H58.7339V42H57.4768ZM63.159 40.6044C62.8963 40.6044 62.6708 40.5103 62.4826 40.3221C62.2943 40.1339 62.2002 39.9084 62.2002 39.6456C62.2002 39.3828 62.2943 39.1573 62.4826 38.9691C62.6708 38.7809 62.8963 38.6868 63.159 38.6868C63.4218 38.6868 63.6473 38.7809 63.8355 38.9691C64.0237 39.1573 64.1179 39.3828 64.1179 39.6456C64.1179 39.8196 64.0735 39.9794 63.9847 40.125C63.8995 40.2706 63.784 40.3878 63.6385 40.4766C63.4964 40.5618 63.3366 40.6044 63.159 40.6044ZM63.159 35.0859C62.8963 35.0859 62.6708 34.9918 62.4826 34.8036C62.2943 34.6154 62.2002 34.3899 62.2002 34.1271C62.2002 33.8643 62.2943 33.6388 62.4826 33.4506C62.6708 33.2624 62.8963 33.1683 63.159 33.1683C63.4218 33.1683 63.6473 33.2624 63.8355 33.4506C64.0237 33.6388 64.1179 33.8643 64.1179 34.1271C64.1179 34.3011 64.0735 34.4609 63.9847 34.6065C63.8995 34.7521 63.784 34.8693 63.6385 34.9581C63.4964 35.0433 63.3366 35.0859 63.159 35.0859ZM66.3524 42V41.0412L69.9533 37.0994C70.3758 36.6378 70.7239 36.2365 70.9973 35.8956C71.2707 35.5511 71.4731 35.228 71.6045 34.9261C71.7395 34.6207 71.807 34.3011 71.807 33.9673C71.807 33.5838 71.7146 33.2518 71.53 32.9712C71.3489 32.6907 71.1003 32.4741 70.7842 32.3214C70.4682 32.1687 70.1131 32.0923 69.7189 32.0923C69.2998 32.0923 68.9341 32.1793 68.6216 32.3533C68.3126 32.5238 68.0729 32.7635 67.9025 33.0724C67.7356 33.3814 67.6521 33.7436 67.6521 34.1591H66.395C66.395 33.5199 66.5424 32.9588 66.8371 32.4759C67.1319 31.9929 67.5332 31.6165 68.041 31.3466C68.5523 31.0767 69.1258 30.9418 69.7615 30.9418C70.4007 30.9418 70.9671 31.0767 71.4607 31.3466C71.9543 31.6165 72.3414 31.9805 72.6219 32.4386C72.9025 32.8967 73.0427 33.4062 73.0427 33.9673C73.0427 34.3686 72.9699 34.761 72.8244 35.1445C72.6823 35.5245 72.4337 35.9489 72.0786 36.4176C71.7271 36.8828 71.2388 37.451 70.6138 38.1222L68.1635 40.7429V40.8281H73.2345V42H66.3524ZM79.0566 42.1491C78.6092 42.142 78.1617 42.0568 77.7143 41.8935C77.2668 41.7301 76.8584 41.4549 76.4891 41.0678C76.1198 40.6772 75.8233 40.1499 75.5996 39.4858C75.3758 38.8182 75.264 37.9801 75.264 36.9716C75.264 36.0057 75.3545 35.1499 75.5356 34.4041C75.7168 33.6548 75.9795 33.0245 76.324 32.5131C76.6685 31.9982 77.0839 31.6076 77.5704 31.3413C78.0605 31.0749 78.6127 30.9418 79.2271 30.9418C79.8378 30.9418 80.3812 31.0643 80.857 31.3093C81.3364 31.5508 81.7271 31.8881 82.0289 32.3214C82.3307 32.7546 82.5261 33.2536 82.6148 33.8182H81.3151C81.1944 33.3281 80.96 32.9215 80.612 32.5984C80.264 32.2752 79.8023 32.1136 79.2271 32.1136C78.3819 32.1136 77.716 32.4812 77.2295 33.2163C76.7466 33.9513 76.5033 34.983 76.4998 36.3111H76.585C76.7839 36.0092 77.02 35.7518 77.2935 35.5387C77.5704 35.3221 77.8758 35.1552 78.2097 35.038C78.5435 34.9208 78.8968 34.8622 79.2697 34.8622C79.8947 34.8622 80.4664 35.0185 80.9849 35.331C81.5033 35.6399 81.9188 36.0678 82.2313 36.6147C82.5438 37.158 82.7001 37.7812 82.7001 38.4844C82.7001 39.1591 82.5491 39.777 82.2473 40.3381C81.9454 40.8956 81.5211 41.3395 80.9742 41.6697C80.4309 41.9964 79.7917 42.1562 79.0566 42.1491ZM79.0566 40.9773C79.504 40.9773 79.9053 40.8654 80.2604 40.6417C80.6191 40.418 80.9014 40.1179 81.1074 39.7415C81.3169 39.3651 81.4217 38.946 81.4217 38.4844C81.4217 38.0334 81.3204 37.6232 81.118 37.2539C80.9192 36.881 80.644 36.5845 80.2924 36.3643C79.9444 36.1442 79.5467 36.0341 79.0992 36.0341C78.7619 36.0341 78.4476 36.1016 78.1564 36.2365C77.8652 36.3679 77.6095 36.549 77.3893 36.7798C77.1727 37.0107 77.0023 37.2752 76.878 37.5735C76.7537 37.8683 76.6915 38.179 76.6915 38.5057C76.6915 38.9389 76.7927 39.3437 76.9952 39.7202C77.2011 40.0966 77.4817 40.4002 77.8368 40.631C78.1954 40.8619 78.6021 40.9773 79.0566 40.9773ZM84.9866 42V31.0909H88.6726C89.5285 31.0909 90.228 31.2454 90.7714 31.5543C91.3182 31.8597 91.7231 32.2734 91.9858 32.7955C92.2486 33.3175 92.38 33.8999 92.38 34.5426C92.38 35.1854 92.2486 35.7695 91.9858 36.2951C91.7266 36.8207 91.3253 37.2397 90.782 37.5522C90.2387 37.8612 89.5427 38.0156 88.6939 38.0156H86.0519V36.8438H88.6513C89.2373 36.8438 89.7078 36.7425 90.0629 36.5401C90.418 36.3377 90.6755 36.0643 90.8353 35.7198C90.9986 35.3718 91.0803 34.9794 91.0803 34.5426C91.0803 34.1058 90.9986 33.7152 90.8353 33.3707C90.6755 33.0263 90.4162 32.7564 90.0576 32.5611C89.6989 32.3622 89.2231 32.2628 88.63 32.2628H86.3076V42H84.9866ZM94.508 31.0909H96.0847L99.7921 40.1463H99.92L103.627 31.0909H105.204V42H103.968V33.7116H103.862L100.453 42H99.2595L95.8504 33.7116H95.7438V42H94.508V31.0909Z" fill="#2F2E2E"/>
<path d="M166.619 58.8182V77H164.489L154.581 62.7244H154.403V77H152.202V58.8182H154.332L164.276 73.1293H164.453V58.8182H166.619ZM176.458 77.2841C175.144 77.2841 174.011 76.9941 173.058 76.4141C172.111 75.8281 171.38 75.0114 170.865 73.9638C170.356 72.9103 170.102 71.6851 170.102 70.2884C170.102 68.8916 170.356 67.6605 170.865 66.5952C171.38 65.5239 172.096 64.6894 173.014 64.0916C173.937 63.4879 175.014 63.1861 176.245 63.1861C176.955 63.1861 177.657 63.3045 178.349 63.5412C179.042 63.7779 179.672 64.1626 180.24 64.6953C180.808 65.2221 181.261 65.9205 181.598 66.7905C181.936 67.6605 182.104 68.7318 182.104 70.0043V70.892H171.593V69.081H179.974C179.974 68.3116 179.82 67.625 179.512 67.0213C179.21 66.4176 178.778 65.9412 178.216 65.592C177.66 65.2428 177.003 65.0682 176.245 65.0682C175.411 65.0682 174.689 65.2753 174.079 65.6896C173.475 66.098 173.011 66.6307 172.685 67.2876C172.36 67.9446 172.197 68.6489 172.197 69.4006V70.608C172.197 71.6378 172.374 72.5108 172.729 73.2269C173.091 73.9371 173.591 74.4787 174.23 74.8516C174.869 75.2185 175.612 75.402 176.458 75.402C177.009 75.402 177.506 75.325 177.95 75.1712C178.399 75.0114 178.787 74.7746 179.113 74.4609C179.438 74.1413 179.69 73.7448 179.867 73.2713L181.891 73.8395C181.678 74.526 181.32 75.1297 180.817 75.6506C180.314 76.1655 179.693 76.5679 178.953 76.858C178.213 77.142 177.381 77.2841 176.458 77.2841ZM188.381 77L184.226 63.3636H186.428L189.375 73.804H189.517L192.429 63.3636H194.667L197.543 73.7685H197.685L200.633 63.3636H202.834L198.679 77H196.62L193.637 66.5241H193.424L190.441 77H188.381ZM222.863 63.3636C222.756 62.464 222.324 61.7656 221.566 61.2685C220.809 60.7713 219.88 60.5227 218.779 60.5227C217.974 60.5227 217.27 60.6529 216.666 60.9134C216.068 61.1738 215.601 61.5318 215.263 61.9876C214.932 62.4433 214.766 62.9612 214.766 63.5412C214.766 64.0265 214.881 64.4438 215.112 64.793C215.349 65.1362 215.651 65.4233 216.018 65.6541C216.385 65.879 216.77 66.0655 217.172 66.2134C217.574 66.3555 217.944 66.4709 218.282 66.5597L220.128 67.0568C220.602 67.1811 221.129 67.3527 221.709 67.5717C222.294 67.7907 222.854 68.0896 223.386 68.4684C223.925 68.8413 224.369 69.3207 224.718 69.9066C225.067 70.4925 225.242 71.2116 225.242 72.0639C225.242 73.0464 224.984 73.9342 224.47 74.7273C223.961 75.5204 223.215 76.1507 222.232 76.6183C221.256 77.0858 220.069 77.3196 218.672 77.3196C217.37 77.3196 216.243 77.1095 215.29 76.6893C214.343 76.2691 213.597 75.6831 213.053 74.9315C212.514 74.1798 212.209 73.3068 212.138 72.3125H214.411C214.47 72.9991 214.701 73.5672 215.103 74.017C215.512 74.4609 216.027 74.7924 216.648 75.0114C217.276 75.2244 217.95 75.331 218.672 75.331C219.513 75.331 220.267 75.1948 220.936 74.9226C221.605 74.6444 222.135 74.2597 222.525 73.7685C222.916 73.2713 223.111 72.6913 223.111 72.0284C223.111 71.4247 222.943 70.9335 222.605 70.5547C222.268 70.1759 221.824 69.8681 221.274 69.6314C220.723 69.3946 220.128 69.1875 219.489 69.0099L217.252 68.3707C215.831 67.9624 214.707 67.3794 213.878 66.6218C213.05 65.8642 212.635 64.8729 212.635 63.6477C212.635 62.6297 212.911 61.742 213.461 60.9844C214.017 60.2209 214.763 59.629 215.698 59.2088C216.639 58.7827 217.69 58.5696 218.85 58.5696C220.022 58.5696 221.063 58.7797 221.975 59.1999C222.886 59.6142 223.608 60.1824 224.141 60.9045C224.68 61.6265 224.964 62.4463 224.993 63.3636H222.863ZM237.882 82.1136V74.9048H237.704C237.55 75.1534 237.331 75.4671 237.047 75.8459C236.763 76.2187 236.358 76.5531 235.831 76.8491C235.304 77.1391 234.603 77.2841 233.727 77.2841C232.591 77.2841 231.587 76.997 230.717 76.4229C229.847 75.8429 229.167 75.0262 228.675 73.9727C228.184 72.9132 227.939 71.6615 227.939 70.2173C227.939 68.785 228.184 67.5421 228.675 66.4886C229.167 65.4351 229.85 64.6213 230.726 64.0472C231.602 63.4731 232.614 63.1861 233.762 63.1861C234.65 63.1861 235.352 63.334 235.866 63.63C236.387 63.92 236.784 64.2514 237.056 64.6243C237.334 64.9912 237.55 65.2931 237.704 65.5298H237.953V63.3636H239.977V82.1136H237.882ZM234.011 75.402C234.851 75.402 235.562 75.183 236.142 74.745C236.722 74.3011 237.163 73.6886 237.464 72.9073C237.766 72.1201 237.917 71.2116 237.917 70.1818C237.917 69.1638 237.769 68.2731 237.473 67.5096C237.177 66.7402 236.739 66.1424 236.159 65.7163C235.579 65.2842 234.863 65.0682 234.011 65.0682C233.123 65.0682 232.383 65.296 231.792 65.7518C231.206 66.2016 230.765 66.8142 230.469 67.5895C230.179 68.3589 230.034 69.223 230.034 70.1818C230.034 71.1525 230.182 72.0343 230.478 72.8274C230.779 73.6146 231.223 74.242 231.809 74.7095C232.401 75.1712 233.135 75.402 234.011 75.402ZM252.406 71.4247V63.3636H254.501V77H252.406V74.6918H252.264C251.944 75.3842 251.447 75.9731 250.772 76.4585C250.098 76.9379 249.245 77.1776 248.216 77.1776C247.363 77.1776 246.606 76.9911 245.943 76.6183C245.28 76.2395 244.759 75.6713 244.38 74.9137C244.002 74.1502 243.812 73.1884 243.812 72.0284V63.3636H245.907V71.8864C245.907 72.8807 246.185 73.6738 246.742 74.2656C247.304 74.8575 248.02 75.1534 248.89 75.1534C249.411 75.1534 249.941 75.0202 250.479 74.7539C251.024 74.4876 251.48 74.0792 251.847 73.5288C252.219 72.9783 252.406 72.277 252.406 71.4247ZM262.351 77.3196C261.487 77.3196 260.703 77.1568 259.999 76.8313C259.294 76.4999 258.735 76.0234 258.321 75.402C257.906 74.7746 257.699 74.017 257.699 73.1293C257.699 72.348 257.853 71.7147 258.161 71.2294C258.469 70.7382 258.88 70.3535 259.395 70.0753C259.91 69.7971 260.478 69.59 261.1 69.4538C261.727 69.3118 262.357 69.1993 262.991 69.1165C263.819 69.0099 264.491 68.93 265.006 68.8768C265.527 68.8176 265.905 68.7199 266.142 68.5838C266.385 68.4477 266.506 68.2109 266.506 67.8736V67.8026C266.506 66.9266 266.266 66.246 265.787 65.7607C265.314 65.2753 264.594 65.0327 263.63 65.0327C262.629 65.0327 261.845 65.2517 261.277 65.6896C260.709 66.1276 260.309 66.5952 260.079 67.0923L258.09 66.3821C258.445 65.5535 258.919 64.9084 259.51 64.4467C260.108 63.9792 260.759 63.6536 261.464 63.4702C262.174 63.2808 262.872 63.1861 263.559 63.1861C263.997 63.1861 264.5 63.2393 265.068 63.3459C265.642 63.4465 266.195 63.6566 266.728 63.9762C267.267 64.2958 267.714 64.7782 268.069 65.4233C268.424 66.0684 268.601 66.9325 268.601 68.0156V77H266.506V75.1534H266.4C266.258 75.4493 266.021 75.766 265.689 76.1033C265.358 76.4407 264.917 76.7277 264.367 76.9645C263.816 77.2012 263.144 77.3196 262.351 77.3196ZM262.671 75.4375C263.499 75.4375 264.198 75.2747 264.766 74.9492C265.34 74.6237 265.772 74.2035 266.062 73.6886C266.358 73.1737 266.506 72.6321 266.506 72.0639V70.1463C266.417 70.2528 266.222 70.3505 265.92 70.4393C265.624 70.5221 265.281 70.5961 264.89 70.6612C264.506 70.7204 264.13 70.7737 263.763 70.821C263.402 70.8625 263.109 70.898 262.884 70.9276C262.339 70.9986 261.83 71.114 261.357 71.2738C260.889 71.4277 260.511 71.6615 260.221 71.9751C259.937 72.2829 259.794 72.7031 259.794 73.2358C259.794 73.9638 260.064 74.5142 260.602 74.8871C261.147 75.254 261.836 75.4375 262.671 75.4375ZM275.515 77L271.36 63.3636H273.562L276.509 73.804H276.651L279.563 63.3636H281.8L284.677 73.7685H284.819L287.766 63.3636H289.968L285.813 77H283.754L280.771 66.5241H280.558L277.575 77H275.515ZM294.691 72.0284L294.656 69.4361H295.082L301.048 63.3636H303.64L297.283 69.7912H297.106L294.691 72.0284ZM292.738 77V58.8182H294.833V77H292.738ZM301.403 77L296.076 70.2528L297.567 68.7969L304.066 77H301.403Z" fill="#2F2E2E"/>
</g>
<defs>
<clipPath id="clip0_1564_12589">
<rect width="440" height="956" fill="white"/>
</clipPath>
</defs>
</svg>
