<svg width="440" height="956" viewBox="0 0 440 956" fill="none" xmlns="http://www.w3.org/2000/svg">
<g clip-path="url(#clip0_1574_14480)">
<rect width="440" height="956" fill="white"/>
<rect x="0.5" y="0.5" width="439" height="955" fill="white" stroke="#2F2E2E"/>
<rect x="0.5" y="574.5" width="439" height="36" fill="white" stroke="#2F2E2E"/>
<path d="M197.119 589H195.534C195.44 588.544 195.276 588.143 195.042 587.798C194.812 587.453 194.531 587.163 194.198 586.929C193.87 586.69 193.506 586.511 193.105 586.392C192.705 586.273 192.287 586.213 191.852 586.213C191.06 586.213 190.342 586.413 189.698 586.814C189.059 587.214 188.55 587.805 188.17 588.585C187.795 589.364 187.608 590.321 187.608 591.455C187.608 592.588 187.795 593.545 188.17 594.325C188.55 595.104 189.059 595.695 189.698 596.095C190.342 596.496 191.06 596.696 191.852 596.696C192.287 596.696 192.705 596.636 193.105 596.517C193.506 596.398 193.87 596.221 194.198 595.987C194.531 595.748 194.812 595.456 195.042 595.111C195.276 594.761 195.44 594.361 195.534 593.909H197.119C197 594.578 196.783 595.177 196.467 595.705C196.152 596.234 195.76 596.683 195.291 597.054C194.822 597.42 194.296 597.7 193.712 597.891C193.133 598.083 192.513 598.179 191.852 598.179C190.736 598.179 189.743 597.906 188.874 597.361C188.004 596.815 187.32 596.04 186.822 595.034C186.323 594.028 186.074 592.835 186.074 591.455C186.074 590.074 186.323 588.881 186.822 587.875C187.32 586.869 188.004 586.094 188.874 585.548C189.743 585.003 190.736 584.73 191.852 584.73C192.513 584.73 193.133 584.826 193.712 585.018C194.296 585.21 194.822 585.491 195.291 585.862C195.76 586.228 196.152 586.675 196.467 587.204C196.783 587.728 197 588.327 197.119 589ZM202.366 598.23C201.743 598.23 201.179 598.113 200.672 597.879C200.165 597.64 199.762 597.297 199.464 596.849C199.165 596.398 199.016 595.852 199.016 595.213C199.016 594.651 199.127 594.195 199.349 593.845C199.57 593.491 199.866 593.214 200.237 593.014C200.608 592.814 201.017 592.665 201.464 592.567C201.916 592.464 202.37 592.384 202.826 592.324C203.422 592.247 203.906 592.19 204.277 592.151C204.652 592.109 204.925 592.038 205.095 591.94C205.27 591.842 205.357 591.672 205.357 591.429V591.378C205.357 590.747 205.184 590.257 204.839 589.908C204.498 589.558 203.981 589.384 203.286 589.384C202.566 589.384 202.001 589.541 201.592 589.857C201.183 590.172 200.895 590.509 200.729 590.866L199.297 590.355C199.553 589.759 199.894 589.294 200.32 588.962C200.751 588.625 201.219 588.391 201.726 588.259C202.238 588.122 202.741 588.054 203.235 588.054C203.55 588.054 203.912 588.092 204.322 588.169C204.735 588.241 205.133 588.393 205.517 588.623C205.905 588.853 206.226 589.2 206.482 589.665C206.738 590.129 206.866 590.751 206.866 591.531V598H205.357V596.67H205.28C205.178 596.884 205.008 597.112 204.769 597.354C204.53 597.597 204.213 597.804 203.817 597.974C203.42 598.145 202.937 598.23 202.366 598.23ZM202.596 596.875C203.192 596.875 203.695 596.758 204.104 596.523C204.518 596.289 204.829 595.987 205.037 595.616C205.251 595.245 205.357 594.855 205.357 594.446V593.065C205.293 593.142 205.153 593.212 204.935 593.276C204.722 593.336 204.475 593.389 204.194 593.436C203.917 593.479 203.646 593.517 203.382 593.551C203.122 593.581 202.911 593.607 202.749 593.628C202.357 593.679 201.991 593.762 201.65 593.877C201.313 593.988 201.04 594.156 200.831 594.382C200.627 594.604 200.525 594.906 200.525 595.29C200.525 595.814 200.719 596.21 201.106 596.479C201.498 596.743 201.995 596.875 202.596 596.875ZM209.619 601.682V588.182H211.076V589.741H211.255C211.366 589.571 211.52 589.354 211.716 589.089C211.916 588.821 212.201 588.582 212.572 588.374C212.947 588.161 213.454 588.054 214.093 588.054C214.92 588.054 215.649 588.261 216.279 588.674C216.91 589.087 217.402 589.673 217.756 590.432C218.11 591.19 218.287 592.085 218.287 593.116C218.287 594.156 218.11 595.058 217.756 595.82C217.402 596.579 216.912 597.167 216.286 597.585C215.659 597.998 214.937 598.205 214.119 598.205C213.488 598.205 212.983 598.1 212.604 597.891C212.225 597.678 211.933 597.437 211.728 597.169C211.524 596.896 211.366 596.67 211.255 596.491H211.127V601.682H209.619ZM211.102 593.091C211.102 593.832 211.211 594.487 211.428 595.053C211.645 595.616 211.963 596.057 212.38 596.376C212.798 596.692 213.309 596.849 213.914 596.849C214.545 596.849 215.071 596.683 215.493 596.351C215.919 596.014 216.239 595.562 216.452 594.996C216.669 594.425 216.778 593.79 216.778 593.091C216.778 592.401 216.672 591.778 216.458 591.224C216.25 590.666 215.932 590.225 215.506 589.901C215.084 589.573 214.554 589.409 213.914 589.409C213.301 589.409 212.785 589.565 212.368 589.876C211.95 590.183 211.635 590.613 211.422 591.167C211.208 591.717 211.102 592.358 211.102 593.091ZM224.858 588.182V589.46H219.77V588.182H224.858ZM221.252 585.83H222.761V595.188C222.761 595.614 222.823 595.933 222.946 596.146C223.074 596.355 223.236 596.496 223.432 596.568C223.632 596.636 223.843 596.67 224.065 596.67C224.231 596.67 224.368 596.662 224.474 596.645C224.581 596.624 224.666 596.607 224.73 596.594L225.037 597.949C224.934 597.987 224.792 598.026 224.608 598.064C224.425 598.107 224.193 598.128 223.912 598.128C223.485 598.128 223.068 598.036 222.659 597.853C222.254 597.67 221.917 597.391 221.649 597.016C221.385 596.641 221.252 596.168 221.252 595.597V585.83ZM227.127 598V588.182H228.635V598H227.127ZM227.894 586.545C227.6 586.545 227.346 586.445 227.133 586.245C226.924 586.045 226.82 585.804 226.82 585.523C226.82 585.241 226.924 585.001 227.133 584.8C227.346 584.6 227.6 584.5 227.894 584.5C228.188 584.5 228.439 584.6 228.648 584.8C228.861 585.001 228.968 585.241 228.968 585.523C228.968 585.804 228.861 586.045 228.648 586.245C228.439 586.445 228.188 586.545 227.894 586.545ZM235.387 598.205C234.501 598.205 233.723 597.994 233.054 597.572C232.389 597.15 231.869 596.56 231.494 595.801C231.123 595.043 230.938 594.156 230.938 593.142C230.938 592.119 231.123 591.227 231.494 590.464C231.869 589.701 232.389 589.109 233.054 588.687C233.723 588.265 234.501 588.054 235.387 588.054C236.273 588.054 237.049 588.265 237.714 588.687C238.383 589.109 238.903 589.701 239.273 590.464C239.648 591.227 239.836 592.119 239.836 593.142C239.836 594.156 239.648 595.043 239.273 595.801C238.903 596.56 238.383 597.15 237.714 597.572C237.049 597.994 236.273 598.205 235.387 598.205ZM235.387 596.849C236.06 596.849 236.614 596.677 237.049 596.332C237.483 595.987 237.805 595.533 238.014 594.97C238.223 594.408 238.327 593.798 238.327 593.142C238.327 592.486 238.223 591.874 238.014 591.308C237.805 590.741 237.483 590.283 237.049 589.933C236.614 589.584 236.06 589.409 235.387 589.409C234.714 589.409 234.16 589.584 233.725 589.933C233.29 590.283 232.969 590.741 232.76 591.308C232.551 591.874 232.447 592.486 232.447 593.142C232.447 593.798 232.551 594.408 232.76 594.97C232.969 595.533 233.29 595.987 233.725 596.332C234.16 596.677 234.714 596.849 235.387 596.849ZM243.647 592.094V598H242.138V588.182H243.596V589.716H243.724C243.954 589.217 244.303 588.817 244.772 588.514C245.241 588.207 245.846 588.054 246.587 588.054C247.252 588.054 247.834 588.19 248.332 588.463C248.831 588.732 249.219 589.141 249.496 589.69C249.773 590.236 249.911 590.926 249.911 591.761V598H248.403V591.864C248.403 591.092 248.202 590.491 247.802 590.061C247.401 589.626 246.852 589.409 246.153 589.409C245.671 589.409 245.241 589.513 244.862 589.722C244.487 589.931 244.19 590.236 243.973 590.636C243.756 591.037 243.647 591.523 243.647 592.094Z" fill="#2F2E2E"/>
<path d="M39 197C39 194.239 41.2386 192 44 192H394C396.761 192 399 194.239 399 197V547C399 549.761 396.761 552 394 552H44C41.2386 552 39 549.761 39 547V197Z" fill="#D0D0D0"/>
<path d="M32.1193 139H30.5341C30.4403 138.544 30.2763 138.143 30.0419 137.798C29.8118 137.453 29.5305 137.163 29.1982 136.929C28.87 136.69 28.5057 136.511 28.1051 136.392C27.7045 136.273 27.2869 136.213 26.8523 136.213C26.0597 136.213 25.3416 136.413 24.6982 136.814C24.0589 137.214 23.5497 137.805 23.1705 138.585C22.7955 139.364 22.608 140.321 22.608 141.455C22.608 142.588 22.7955 143.545 23.1705 144.325C23.5497 145.104 24.0589 145.695 24.6982 146.095C25.3416 146.496 26.0597 146.696 26.8523 146.696C27.2869 146.696 27.7045 146.636 28.1051 146.517C28.5057 146.398 28.87 146.221 29.1982 145.987C29.5305 145.748 29.8118 145.456 30.0419 145.111C30.2763 144.761 30.4403 144.361 30.5341 143.909H32.1193C32 144.578 31.7827 145.177 31.4673 145.705C31.152 146.234 30.7599 146.683 30.2912 147.054C29.8224 147.42 29.2962 147.7 28.7124 147.891C28.1328 148.083 27.5128 148.179 26.8523 148.179C25.7358 148.179 24.7429 147.906 23.8736 147.361C23.0043 146.815 22.3203 146.04 21.8217 145.034C21.3232 144.028 21.0739 142.835 21.0739 141.455C21.0739 140.074 21.3232 138.881 21.8217 137.875C22.3203 136.869 23.0043 136.094 23.8736 135.548C24.7429 135.003 25.7358 134.73 26.8523 134.73C27.5128 134.73 28.1328 134.826 28.7124 135.018C29.2962 135.21 29.8224 135.491 30.2912 135.862C30.7599 136.228 31.152 136.675 31.4673 137.204C31.7827 137.728 32 138.327 32.1193 139ZM37.3656 148.23C36.7434 148.23 36.1788 148.113 35.6717 147.879C35.1646 147.64 34.7619 147.297 34.4636 146.849C34.1653 146.398 34.0162 145.852 34.0162 145.213C34.0162 144.651 34.127 144.195 34.3485 143.845C34.5701 143.491 34.8663 143.214 35.237 143.014C35.6078 142.814 36.0169 142.665 36.4643 142.567C36.916 142.464 37.3699 142.384 37.8258 142.324C38.4224 142.247 38.9061 142.19 39.2768 142.151C39.6518 142.109 39.9245 142.038 40.095 141.94C40.2697 141.842 40.3571 141.672 40.3571 141.429V141.378C40.3571 140.747 40.1845 140.257 39.8393 139.908C39.4984 139.558 38.9806 139.384 38.286 139.384C37.5659 139.384 37.0012 139.541 36.5922 139.857C36.1831 140.172 35.8954 140.509 35.7292 140.866L34.2974 140.355C34.5531 139.759 34.894 139.294 35.3201 138.962C35.7505 138.625 36.2193 138.391 36.7264 138.259C37.2377 138.122 37.7406 138.054 38.2349 138.054C38.5502 138.054 38.9125 138.092 39.3216 138.169C39.7349 138.241 40.1333 138.393 40.5169 138.623C40.9047 138.853 41.2264 139.2 41.4821 139.665C41.7377 140.129 41.8656 140.751 41.8656 141.531V148H40.3571V146.67H40.2804C40.1781 146.884 40.0076 147.112 39.769 147.354C39.5304 147.597 39.2129 147.804 38.8166 147.974C38.4203 148.145 37.9366 148.23 37.3656 148.23ZM37.5957 146.875C38.1923 146.875 38.6951 146.758 39.1042 146.523C39.5176 146.289 39.8287 145.987 40.0375 145.616C40.2505 145.245 40.3571 144.855 40.3571 144.446V143.065C40.2931 143.142 40.1525 143.212 39.9352 143.276C39.7221 143.336 39.475 143.389 39.1937 143.436C38.9167 143.479 38.6461 143.517 38.3819 143.551C38.122 143.581 37.911 143.607 37.7491 143.628C37.3571 143.679 36.9906 143.762 36.6497 143.877C36.313 143.988 36.0403 144.156 35.8315 144.382C35.627 144.604 35.5247 144.906 35.5247 145.29C35.5247 145.814 35.7186 146.21 36.1064 146.479C36.4984 146.743 36.9949 146.875 37.5957 146.875ZM46.1275 142.094V148H44.619V138.182H46.0763V139.716H46.2042C46.4343 139.217 46.7837 138.817 47.2525 138.514C47.7212 138.207 48.3263 138.054 49.0678 138.054C49.7326 138.054 50.3143 138.19 50.8129 138.463C51.3114 138.732 51.6992 139.141 51.9762 139.69C52.2532 140.236 52.3917 140.926 52.3917 141.761V148H50.8832V141.864C50.8832 141.092 50.6829 140.491 50.2823 140.061C49.8817 139.626 49.332 139.409 48.6332 139.409C48.1516 139.409 47.7212 139.513 47.342 139.722C46.967 139.931 46.6708 140.236 46.4535 140.636C46.2362 141.037 46.1275 141.523 46.1275 142.094ZM59.1369 148.205C58.2164 148.205 57.4238 147.987 56.7591 147.553C56.0943 147.118 55.5829 146.519 55.225 145.756C54.867 144.994 54.688 144.122 54.688 143.142C54.688 142.145 54.8713 141.265 55.2377 140.502C55.6085 139.735 56.1241 139.136 56.7846 138.706C57.4494 138.271 58.225 138.054 59.1113 138.054C59.8017 138.054 60.4238 138.182 60.9778 138.438C61.5318 138.693 61.9856 139.051 62.3393 139.511C62.693 139.972 62.9125 140.509 62.9977 141.122H61.4892C61.3741 140.675 61.1184 140.278 60.7221 139.933C60.3301 139.584 59.8017 139.409 59.1369 139.409C58.5488 139.409 58.0332 139.562 57.59 139.869C57.1511 140.172 56.8081 140.6 56.5609 141.154C56.318 141.704 56.1966 142.349 56.1966 143.091C56.1966 143.849 56.3159 144.51 56.5545 145.072C56.7974 145.635 57.1383 146.072 57.5772 146.383C58.0204 146.694 58.5403 146.849 59.1369 146.849C59.5289 146.849 59.8848 146.781 60.2044 146.645C60.524 146.509 60.7946 146.312 61.0162 146.057C61.2377 145.801 61.3954 145.494 61.4892 145.136H62.9977C62.9125 145.716 62.7015 146.238 62.3649 146.702C62.0325 147.163 61.5914 147.529 61.0417 147.802C60.4963 148.07 59.8613 148.205 59.1369 148.205ZM69.3194 148.205C68.3734 148.205 67.5574 147.996 66.8713 147.578C66.1895 147.156 65.6632 146.568 65.2924 145.814C64.926 145.055 64.7427 144.173 64.7427 143.168C64.7427 142.162 64.926 141.276 65.2924 140.509C65.6632 139.737 66.1788 139.136 66.8393 138.706C67.5041 138.271 68.2797 138.054 69.166 138.054C69.6774 138.054 70.1824 138.139 70.6809 138.31C71.1795 138.48 71.6333 138.757 72.0424 139.141C72.4515 139.52 72.7775 140.023 73.0204 140.649C73.2633 141.276 73.3848 142.047 73.3848 142.963V143.602H65.8166V142.298H71.8507C71.8507 141.744 71.7399 141.25 71.5183 140.815C71.301 140.381 70.9899 140.038 70.5851 139.786C70.1845 139.535 69.7115 139.409 69.166 139.409C68.5652 139.409 68.0453 139.558 67.6064 139.857C67.1717 140.151 66.8372 140.534 66.6028 141.007C66.3684 141.48 66.2512 141.987 66.2512 142.528V143.398C66.2512 144.139 66.3791 144.768 66.6348 145.283C66.8947 145.795 67.2548 146.185 67.715 146.453C68.1752 146.717 68.7101 146.849 69.3194 146.849C69.7157 146.849 70.0737 146.794 70.3933 146.683C70.7172 146.568 70.9963 146.398 71.2306 146.172C71.465 145.942 71.6461 145.656 71.774 145.315L73.2314 145.724C73.0779 146.219 72.8201 146.653 72.4579 147.028C72.0957 147.399 71.6483 147.689 71.1156 147.898C70.5829 148.102 69.9842 148.205 69.3194 148.205ZM77.188 134.909V148H75.6795V134.909H77.188Z" fill="#2F2E2E"/>
<rect x="0.5" y="0.5" width="439" height="105" fill="white" stroke="#2F2E2E"/>
<path d="M30.8757 85C31.6327 85 32.1781 84.3457 32.1781 83.4689V78.47H32.5009C36.82 78.47 39.5362 79.7525 41.4842 84.0316C41.8738 84.8691 42.3859 85 42.8534 85C43.4434 85 44 84.3719 44 83.2465C44 73.5758 40.5158 67.5431 32.5009 67.5431H32.1781V62.5965C32.1781 61.7197 31.6327 61 30.8534 61C30.308 61 29.9406 61.2748 29.3506 61.9291L20.5677 71.5867C20.1336 72.0709 20 72.5551 20 73C20 73.4318 20.1447 73.9291 20.5677 74.4002L29.3506 84.1494C29.885 84.7383 30.3302 85 30.8757 85ZM30.2412 82.1865C30.1744 82.1865 30.1076 82.1472 30.0519 82.0687L22.115 73.2486C22.026 73.1439 21.9926 73.0785 21.9926 73C21.9926 72.9215 22.026 72.843 22.115 72.7514L30.0408 63.8135C30.0965 63.7612 30.1633 63.7088 30.2301 63.7088C30.3302 63.7088 30.3859 63.7874 30.3859 63.892V69.0872C30.3859 69.3882 30.5083 69.5191 30.7644 69.5191H32.256C39.8924 69.5191 42.1967 75.7481 42.4193 81.9248C42.4193 82.0294 42.3859 82.0687 42.3302 82.0687C42.2857 82.0687 42.2635 82.0294 42.2301 81.9378C40.9165 78.6532 37.5436 76.494 32.256 76.494H30.7644C30.5083 76.494 30.3859 76.6249 30.3859 76.9258V81.9902C30.3859 82.108 30.3302 82.1865 30.2412 82.1865Z" stroke="#2F2E2E"/>
<path fill-rule="evenodd" clip-rule="evenodd" d="M366 33.6667C366 32.1939 367.194 31 368.667 31H385.333C386.806 31 388 32.1939 388 33.6667V39.6667C388 41.1394 386.806 42.3333 385.333 42.3333H368.667C367.194 42.3333 366 41.1394 366 39.6667V33.6667Z" stroke="#2F2E2E"/>
<path d="M389 34.667V38.667C389.805 38.3282 390.328 37.5401 390.328 36.667C390.328 35.7939 389.805 35.0058 389 34.667" stroke="#2F2E2E"/>
<path d="M368 34.3333C368 33.597 368.597 33 369.333 33H384.667C385.403 33 386 33.597 386 34.3333V39C386 39.7364 385.403 40.3333 384.667 40.3333H369.333C368.597 40.3333 368 39.7364 368 39V34.3333Z" stroke="#2F2E2E"/>
<path d="M337 38.6665H338C338.552 38.6665 339 39.1142 339 39.6665V41.6665C339 42.2188 338.552 42.6665 338 42.6665H337C336.448 42.6665 336 42.2188 336 41.6665V39.6665C336 39.1142 336.448 38.6665 337 38.6665Z" stroke="#2F2E2E"/>
<path d="M341.668 36.6665H342.668C343.22 36.6665 343.668 37.1142 343.668 37.6665V41.6665C343.668 42.2188 343.22 42.6665 342.668 42.6665H341.668C341.116 42.6665 340.668 42.2188 340.668 41.6665V37.6665C340.668 37.1142 341.116 36.6665 341.668 36.6665Z" stroke="#2F2E2E"/>
<path d="M346.332 34.3335H347.332C347.884 34.3335 348.332 34.7812 348.332 35.3335V41.6668C348.332 42.2191 347.884 42.6668 347.332 42.6668H346.332C345.78 42.6668 345.332 42.2191 345.332 41.6668V35.3335C345.332 34.7812 345.78 34.3335 346.332 34.3335Z" stroke="#2F2E2E"/>
<path d="M351 32H352C352.552 32 353 32.4477 353 33V41.6667C353 42.219 352.552 42.6667 352 42.6667H351C350.448 42.6667 350 42.219 350 41.6667V33C350 32.4477 350.448 32 351 32V32Z" stroke="#2F2E2E"/>
<path d="M52.3418 39.7628V38.6761L57.1359 31.0909H57.9242V32.7741H57.3916L53.7694 38.5057V38.5909H60.2254V39.7628H52.3418ZM57.4768 42V39.4325V38.9265V31.0909H58.7339V42H57.4768ZM63.159 40.6044C62.8963 40.6044 62.6708 40.5103 62.4826 40.3221C62.2943 40.1339 62.2002 39.9084 62.2002 39.6456C62.2002 39.3828 62.2943 39.1573 62.4826 38.9691C62.6708 38.7809 62.8963 38.6868 63.159 38.6868C63.4218 38.6868 63.6473 38.7809 63.8355 38.9691C64.0237 39.1573 64.1179 39.3828 64.1179 39.6456C64.1179 39.8196 64.0735 39.9794 63.9847 40.125C63.8995 40.2706 63.784 40.3878 63.6385 40.4766C63.4964 40.5618 63.3366 40.6044 63.159 40.6044ZM63.159 35.0859C62.8963 35.0859 62.6708 34.9918 62.4826 34.8036C62.2943 34.6154 62.2002 34.3899 62.2002 34.1271C62.2002 33.8643 62.2943 33.6388 62.4826 33.4506C62.6708 33.2624 62.8963 33.1683 63.159 33.1683C63.4218 33.1683 63.6473 33.2624 63.8355 33.4506C64.0237 33.6388 64.1179 33.8643 64.1179 34.1271C64.1179 34.3011 64.0735 34.4609 63.9847 34.6065C63.8995 34.7521 63.784 34.8693 63.6385 34.9581C63.4964 35.0433 63.3366 35.0859 63.159 35.0859ZM66.3524 42V41.0412L69.9533 37.0994C70.3758 36.6378 70.7239 36.2365 70.9973 35.8956C71.2707 35.5511 71.4731 35.228 71.6045 34.9261C71.7395 34.6207 71.807 34.3011 71.807 33.9673C71.807 33.5838 71.7146 33.2518 71.53 32.9712C71.3489 32.6907 71.1003 32.4741 70.7842 32.3214C70.4682 32.1687 70.1131 32.0923 69.7189 32.0923C69.2998 32.0923 68.9341 32.1793 68.6216 32.3533C68.3126 32.5238 68.0729 32.7635 67.9025 33.0724C67.7356 33.3814 67.6521 33.7436 67.6521 34.1591H66.395C66.395 33.5199 66.5424 32.9588 66.8371 32.4759C67.1319 31.9929 67.5332 31.6165 68.041 31.3466C68.5523 31.0767 69.1258 30.9418 69.7615 30.9418C70.4007 30.9418 70.9671 31.0767 71.4607 31.3466C71.9543 31.6165 72.3414 31.9805 72.6219 32.4386C72.9025 32.8967 73.0427 33.4062 73.0427 33.9673C73.0427 34.3686 72.9699 34.761 72.8244 35.1445C72.6823 35.5245 72.4337 35.9489 72.0786 36.4176C71.7271 36.8828 71.2388 37.451 70.6138 38.1222L68.1635 40.7429V40.8281H73.2345V42H66.3524ZM79.0566 42.1491C78.6092 42.142 78.1617 42.0568 77.7143 41.8935C77.2668 41.7301 76.8584 41.4549 76.4891 41.0678C76.1198 40.6772 75.8233 40.1499 75.5996 39.4858C75.3758 38.8182 75.264 37.9801 75.264 36.9716C75.264 36.0057 75.3545 35.1499 75.5356 34.4041C75.7168 33.6548 75.9795 33.0245 76.324 32.5131C76.6685 31.9982 77.0839 31.6076 77.5704 31.3413C78.0605 31.0749 78.6127 30.9418 79.2271 30.9418C79.8378 30.9418 80.3812 31.0643 80.857 31.3093C81.3364 31.5508 81.7271 31.8881 82.0289 32.3214C82.3307 32.7546 82.5261 33.2536 82.6148 33.8182H81.3151C81.1944 33.3281 80.96 32.9215 80.612 32.5984C80.264 32.2752 79.8023 32.1136 79.2271 32.1136C78.3819 32.1136 77.716 32.4812 77.2295 33.2163C76.7466 33.9513 76.5033 34.983 76.4998 36.3111H76.585C76.7839 36.0092 77.02 35.7518 77.2935 35.5387C77.5704 35.3221 77.8758 35.1552 78.2097 35.038C78.5435 34.9208 78.8968 34.8622 79.2697 34.8622C79.8947 34.8622 80.4664 35.0185 80.9849 35.331C81.5033 35.6399 81.9188 36.0678 82.2313 36.6147C82.5438 37.158 82.7001 37.7812 82.7001 38.4844C82.7001 39.1591 82.5491 39.777 82.2473 40.3381C81.9454 40.8956 81.5211 41.3395 80.9742 41.6697C80.4309 41.9964 79.7917 42.1562 79.0566 42.1491ZM79.0566 40.9773C79.504 40.9773 79.9053 40.8654 80.2604 40.6417C80.6191 40.418 80.9014 40.1179 81.1074 39.7415C81.3169 39.3651 81.4217 38.946 81.4217 38.4844C81.4217 38.0334 81.3204 37.6232 81.118 37.2539C80.9192 36.881 80.644 36.5845 80.2924 36.3643C79.9444 36.1442 79.5467 36.0341 79.0992 36.0341C78.7619 36.0341 78.4476 36.1016 78.1564 36.2365C77.8652 36.3679 77.6095 36.549 77.3893 36.7798C77.1727 37.0107 77.0023 37.2752 76.878 37.5735C76.7537 37.8683 76.6915 38.179 76.6915 38.5057C76.6915 38.9389 76.7927 39.3437 76.9952 39.7202C77.2011 40.0966 77.4817 40.4002 77.8368 40.631C78.1954 40.8619 78.6021 40.9773 79.0566 40.9773ZM84.9866 42V31.0909H88.6726C89.5285 31.0909 90.228 31.2454 90.7714 31.5543C91.3182 31.8597 91.7231 32.2734 91.9858 32.7955C92.2486 33.3175 92.38 33.8999 92.38 34.5426C92.38 35.1854 92.2486 35.7695 91.9858 36.2951C91.7266 36.8207 91.3253 37.2397 90.782 37.5522C90.2387 37.8612 89.5427 38.0156 88.6939 38.0156H86.0519V36.8438H88.6513C89.2373 36.8438 89.7078 36.7425 90.0629 36.5401C90.418 36.3377 90.6755 36.0643 90.8353 35.7198C90.9986 35.3718 91.0803 34.9794 91.0803 34.5426C91.0803 34.1058 90.9986 33.7152 90.8353 33.3707C90.6755 33.0263 90.4162 32.7564 90.0576 32.5611C89.6989 32.3622 89.2231 32.2628 88.63 32.2628H86.3076V42H84.9866ZM94.508 31.0909H96.0847L99.7921 40.1463H99.92L103.627 31.0909H105.204V42H103.968V33.7116H103.862L100.453 42H99.2595L95.8504 33.7116H95.7438V42H94.508V31.0909Z" fill="#2F2E2E"/>
<path d="M158.619 58.8182V77H156.489L146.581 62.7244H146.403V77H144.202V58.8182H146.332L156.276 73.1293H156.453V58.8182H158.619ZM168.458 77.2841C167.144 77.2841 166.011 76.9941 165.058 76.4141C164.111 75.8281 163.38 75.0114 162.865 73.9638C162.356 72.9103 162.102 71.6851 162.102 70.2884C162.102 68.8916 162.356 67.6605 162.865 66.5952C163.38 65.5239 164.096 64.6894 165.014 64.0916C165.937 63.4879 167.014 63.1861 168.245 63.1861C168.955 63.1861 169.657 63.3045 170.349 63.5412C171.042 63.7779 171.672 64.1626 172.24 64.6953C172.808 65.2221 173.261 65.9205 173.598 66.7905C173.936 67.6605 174.104 68.7318 174.104 70.0043V70.892H163.593V69.081H171.974C171.974 68.3116 171.82 67.625 171.512 67.0213C171.21 66.4176 170.778 65.9412 170.216 65.592C169.66 65.2428 169.003 65.0682 168.245 65.0682C167.411 65.0682 166.689 65.2753 166.079 65.6896C165.475 66.098 165.011 66.6307 164.685 67.2876C164.36 67.9446 164.197 68.6489 164.197 69.4006V70.608C164.197 71.6378 164.374 72.5108 164.729 73.2269C165.091 73.9371 165.591 74.4787 166.23 74.8516C166.869 75.2185 167.612 75.402 168.458 75.402C169.009 75.402 169.506 75.325 169.95 75.1712C170.399 75.0114 170.787 74.7746 171.113 74.4609C171.438 74.1413 171.69 73.7448 171.867 73.2713L173.891 73.8395C173.678 74.526 173.32 75.1297 172.817 75.6506C172.314 76.1655 171.693 76.5679 170.953 76.858C170.213 77.142 169.381 77.2841 168.458 77.2841ZM180.381 77L176.226 63.3636H178.428L181.375 73.804H181.517L184.429 63.3636H186.667L189.543 73.7685H189.685L192.633 63.3636H194.834L190.679 77H188.62L185.637 66.5241H185.424L182.441 77H180.381ZM214.863 63.3636C214.756 62.464 214.324 61.7656 213.566 61.2685C212.809 60.7713 211.88 60.5227 210.779 60.5227C209.974 60.5227 209.27 60.6529 208.666 60.9134C208.068 61.1738 207.601 61.5318 207.263 61.9876C206.932 62.4433 206.766 62.9612 206.766 63.5412C206.766 64.0265 206.881 64.4438 207.112 64.793C207.349 65.1362 207.651 65.4233 208.018 65.6541C208.385 65.879 208.77 66.0655 209.172 66.2134C209.574 66.3555 209.944 66.4709 210.282 66.5597L212.128 67.0568C212.602 67.1811 213.129 67.3527 213.709 67.5717C214.294 67.7907 214.854 68.0896 215.386 68.4684C215.925 68.8413 216.369 69.3207 216.718 69.9066C217.067 70.4925 217.242 71.2116 217.242 72.0639C217.242 73.0464 216.984 73.9342 216.47 74.7273C215.961 75.5204 215.215 76.1507 214.232 76.6183C213.256 77.0858 212.069 77.3196 210.672 77.3196C209.37 77.3196 208.243 77.1095 207.29 76.6893C206.343 76.2691 205.597 75.6831 205.053 74.9315C204.514 74.1798 204.209 73.3068 204.138 72.3125H206.411C206.47 72.9991 206.701 73.5672 207.103 74.017C207.512 74.4609 208.027 74.7924 208.648 75.0114C209.276 75.2244 209.95 75.331 210.672 75.331C211.513 75.331 212.267 75.1948 212.936 74.9226C213.605 74.6444 214.135 74.2597 214.525 73.7685C214.916 73.2713 215.111 72.6913 215.111 72.0284C215.111 71.4247 214.943 70.9335 214.605 70.5547C214.268 70.1759 213.824 69.8681 213.274 69.6314C212.723 69.3946 212.128 69.1875 211.489 69.0099L209.252 68.3707C207.831 67.9624 206.707 67.3794 205.878 66.6218C205.05 65.8642 204.635 64.8729 204.635 63.6477C204.635 62.6297 204.911 61.742 205.461 60.9844C206.017 60.2209 206.763 59.629 207.698 59.2088C208.639 58.7827 209.69 58.5696 210.85 58.5696C212.022 58.5696 213.063 58.7797 213.975 59.1999C214.886 59.6142 215.608 60.1824 216.141 60.9045C216.68 61.6265 216.964 62.4463 216.993 63.3636H214.863ZM229.882 82.1136V74.9048H229.704C229.55 75.1534 229.331 75.4671 229.047 75.8459C228.763 76.2187 228.358 76.5531 227.831 76.8491C227.304 77.1391 226.603 77.2841 225.727 77.2841C224.591 77.2841 223.587 76.997 222.717 76.4229C221.847 75.8429 221.167 75.0262 220.675 73.9727C220.184 72.9132 219.939 71.6615 219.939 70.2173C219.939 68.785 220.184 67.5421 220.675 66.4886C221.167 65.4351 221.85 64.6213 222.726 64.0472C223.602 63.4731 224.614 63.1861 225.762 63.1861C226.65 63.1861 227.352 63.334 227.866 63.63C228.387 63.92 228.784 64.2514 229.056 64.6243C229.334 64.9912 229.55 65.2931 229.704 65.5298H229.953V63.3636H231.977V82.1136H229.882ZM226.011 75.402C226.851 75.402 227.562 75.183 228.142 74.745C228.722 74.3011 229.163 73.6886 229.464 72.9073C229.766 72.1201 229.917 71.2116 229.917 70.1818C229.917 69.1638 229.769 68.2731 229.473 67.5096C229.177 66.7402 228.739 66.1424 228.159 65.7163C227.579 65.2842 226.863 65.0682 226.011 65.0682C225.123 65.0682 224.383 65.296 223.792 65.7518C223.206 66.2016 222.765 66.8142 222.469 67.5895C222.179 68.3589 222.034 69.223 222.034 70.1818C222.034 71.1525 222.182 72.0343 222.478 72.8274C222.779 73.6146 223.223 74.242 223.809 74.7095C224.401 75.1712 225.135 75.402 226.011 75.402ZM244.406 71.4247V63.3636H246.501V77H244.406V74.6918H244.264C243.944 75.3842 243.447 75.9731 242.772 76.4585C242.098 76.9379 241.245 77.1776 240.216 77.1776C239.363 77.1776 238.606 76.9911 237.943 76.6183C237.28 76.2395 236.759 75.6713 236.38 74.9137C236.002 74.1502 235.812 73.1884 235.812 72.0284V63.3636H237.907V71.8864C237.907 72.8807 238.185 73.6738 238.742 74.2656C239.304 74.8575 240.02 75.1534 240.89 75.1534C241.411 75.1534 241.941 75.0202 242.479 74.7539C243.024 74.4876 243.48 74.0792 243.847 73.5288C244.219 72.9783 244.406 72.277 244.406 71.4247ZM254.351 77.3196C253.487 77.3196 252.703 77.1568 251.999 76.8313C251.294 76.4999 250.735 76.0234 250.321 75.402C249.906 74.7746 249.699 74.017 249.699 73.1293C249.699 72.348 249.853 71.7147 250.161 71.2294C250.469 70.7382 250.88 70.3535 251.395 70.0753C251.91 69.7971 252.478 69.59 253.1 69.4538C253.727 69.3118 254.357 69.1993 254.991 69.1165C255.819 69.0099 256.491 68.93 257.006 68.8768C257.527 68.8176 257.905 68.7199 258.142 68.5838C258.385 68.4477 258.506 68.2109 258.506 67.8736V67.8026C258.506 66.9266 258.266 66.246 257.787 65.7607C257.314 65.2753 256.594 65.0327 255.63 65.0327C254.629 65.0327 253.845 65.2517 253.277 65.6896C252.709 66.1276 252.309 66.5952 252.079 67.0923L250.09 66.3821C250.445 65.5535 250.919 64.9084 251.51 64.4467C252.108 63.9792 252.759 63.6536 253.464 63.4702C254.174 63.2808 254.872 63.1861 255.559 63.1861C255.997 63.1861 256.5 63.2393 257.068 63.3459C257.642 63.4465 258.195 63.6566 258.728 63.9762C259.267 64.2958 259.714 64.7782 260.069 65.4233C260.424 66.0684 260.601 66.9325 260.601 68.0156V77H258.506V75.1534H258.4C258.258 75.4493 258.021 75.766 257.689 76.1033C257.358 76.4407 256.917 76.7277 256.367 76.9645C255.816 77.2012 255.144 77.3196 254.351 77.3196ZM254.671 75.4375C255.499 75.4375 256.198 75.2747 256.766 74.9492C257.34 74.6237 257.772 74.2035 258.062 73.6886C258.358 73.1737 258.506 72.6321 258.506 72.0639V70.1463C258.417 70.2528 258.222 70.3505 257.92 70.4393C257.624 70.5221 257.281 70.5961 256.89 70.6612C256.506 70.7204 256.13 70.7737 255.763 70.821C255.402 70.8625 255.109 70.898 254.884 70.9276C254.339 70.9986 253.83 71.114 253.357 71.2738C252.889 71.4277 252.511 71.6615 252.221 71.9751C251.937 72.2829 251.794 72.7031 251.794 73.2358C251.794 73.9638 252.064 74.5142 252.602 74.8871C253.147 75.254 253.836 75.4375 254.671 75.4375ZM267.515 77L263.36 63.3636H265.562L268.509 73.804H268.651L271.563 63.3636H273.8L276.677 73.7685H276.819L279.766 63.3636H281.968L277.813 77H275.754L272.771 66.5241H272.558L269.575 77H267.515ZM286.691 72.0284L286.656 69.4361H287.082L293.048 63.3636H295.64L289.283 69.7912H289.106L286.691 72.0284ZM284.738 77V58.8182H286.833V77H284.738ZM293.403 77L288.076 70.2528L289.567 68.7969L296.066 77H293.403Z" fill="#2F2E2E"/>
<path d="M32.5 623C32.5 620.515 34.5147 618.5 37 618.5H403C405.485 618.5 407.5 620.515 407.5 623V829C407.5 831.485 405.485 833.5 403 833.5H37C34.5147 833.5 32.5 831.485 32.5 829V623Z" fill="white" stroke="#2F2E2E"/>
<rect x="263.5" y="846.5" width="143" height="43" rx="14.5" fill="#DD00A9"/>
<rect x="263.5" y="846.5" width="143" height="43" rx="14.5" stroke="#2F2E2E"/>
<path d="M267.24 866.298C267.204 866.766 267.3 867.15 267.528 867.45C267.768 867.75 268.092 868.002 268.5 868.206C268.92 868.398 269.376 868.572 269.868 868.728C270.372 868.884 270.876 869.052 271.38 869.232C271.896 869.412 272.364 869.64 272.784 869.916C273.216 870.192 273.558 870.546 273.81 870.978C274.074 871.41 274.206 871.95 274.206 872.598C274.206 873.354 274.002 874.014 273.594 874.578C273.198 875.13 272.664 875.562 271.992 875.874C271.32 876.174 270.588 876.324 269.796 876.324C268.74 876.324 267.858 876.132 267.15 875.748C266.442 875.364 265.896 874.944 265.512 874.488C265.368 874.32 265.26 874.146 265.188 873.966C265.116 873.774 265.08 873.594 265.08 873.426C265.08 873.126 265.176 872.868 265.368 872.652C265.572 872.436 265.86 872.328 266.232 872.328C266.532 872.328 266.778 872.442 266.97 872.67C267.174 872.898 267.276 873.15 267.276 873.426C267.276 873.618 267.234 873.792 267.15 873.948C267.114 874.044 267.126 874.122 267.186 874.182C267.51 874.458 267.876 874.662 268.284 874.794C268.704 874.914 269.13 874.974 269.562 874.974C270.114 874.974 270.636 874.878 271.128 874.686C271.62 874.494 272.022 874.218 272.334 873.858C272.646 873.498 272.802 873.078 272.802 872.598C272.802 872.166 272.676 871.812 272.424 871.536C272.172 871.248 271.836 871.008 271.416 870.816C271.008 870.624 270.558 870.45 270.066 870.294C269.574 870.126 269.076 869.952 268.572 869.772C268.08 869.58 267.624 869.346 267.204 869.07C266.796 868.794 266.466 868.452 266.214 868.044C265.962 867.636 265.836 867.126 265.836 866.514C265.836 865.614 266.04 864.894 266.448 864.354C266.868 863.814 267.402 863.424 268.05 863.184C268.71 862.944 269.388 862.824 270.084 862.824C270.756 862.824 271.392 862.92 271.992 863.112C272.592 863.292 273.084 863.544 273.468 863.868C273.852 864.192 274.044 864.564 274.044 864.984C274.032 865.284 273.918 865.548 273.702 865.776C273.498 865.992 273.24 866.1 272.928 866.1C272.628 866.1 272.37 865.992 272.154 865.776C271.938 865.548 271.83 865.284 271.83 864.984C271.83 864.936 271.83 864.888 271.83 864.84C271.842 864.792 271.854 864.744 271.866 864.696C271.89 864.588 271.896 864.534 271.884 864.534C271.74 864.438 271.5 864.354 271.164 864.282C270.828 864.198 270.456 864.156 270.048 864.156C269.628 864.156 269.208 864.222 268.788 864.354C268.38 864.474 268.032 864.69 267.744 865.002C267.456 865.302 267.288 865.734 267.24 866.298ZM286.084 874.974C286.288 874.95 286.462 875.004 286.606 875.136C286.75 875.268 286.822 875.436 286.822 875.64C286.822 875.832 286.75 875.994 286.606 876.126C286.462 876.27 286.288 876.33 286.084 876.306C285.916 876.282 285.736 876.252 285.544 876.216C285.352 876.192 285.166 876.174 284.986 876.162C284.686 876.15 284.428 876.042 284.212 875.838C284.008 875.634 283.906 875.382 283.906 875.082V874.83C283.906 874.758 283.882 874.716 283.834 874.704C283.798 874.68 283.756 874.698 283.708 874.758C283.348 875.214 282.934 875.586 282.466 875.874C281.998 876.162 281.464 876.306 280.864 876.306C280.036 876.306 279.31 876.09 278.686 875.658C278.422 875.466 278.158 875.184 277.894 874.812C277.642 874.428 277.516 873.924 277.516 873.3V868.134C277.516 868.038 277.474 867.99 277.39 867.99C277.246 867.99 277.102 868.002 276.958 868.026C276.826 868.038 276.694 868.044 276.562 868.044C276.394 868.044 276.25 867.984 276.13 867.864C276.01 867.744 275.95 867.594 275.95 867.414C275.95 867.234 276.016 867.084 276.148 866.964C276.28 866.832 276.436 866.778 276.616 866.802C276.892 866.826 277.108 866.844 277.264 866.856C277.432 866.856 277.606 866.862 277.786 866.874C278.086 866.874 278.338 866.982 278.542 867.198C278.758 867.402 278.866 867.654 278.866 867.954V873.3C278.866 873.696 278.95 874.008 279.118 874.236C279.286 874.452 279.49 874.614 279.73 874.722C279.97 874.83 280.198 874.896 280.414 874.92C280.63 874.944 280.78 874.956 280.864 874.956C281.464 874.956 282.016 874.764 282.52 874.38C283.036 873.984 283.48 873.492 283.852 872.904C283.888 872.832 283.906 872.766 283.906 872.706V868.134C283.906 868.038 283.864 867.99 283.78 867.99C283.648 867.99 283.504 868.002 283.348 868.026C283.204 868.038 283.072 868.044 282.952 868.044C282.784 868.044 282.64 867.984 282.52 867.864C282.4 867.744 282.34 867.594 282.34 867.414C282.34 867.234 282.406 867.084 282.538 866.964C282.67 866.832 282.826 866.778 283.006 866.802C283.282 866.826 283.498 866.844 283.654 866.856C283.822 866.856 283.996 866.862 284.176 866.874C284.476 866.874 284.728 866.982 284.932 867.198C285.148 867.402 285.256 867.654 285.256 867.954V874.92C285.256 875.016 285.304 875.064 285.4 875.064C285.52 875.064 285.634 875.052 285.742 875.028C285.85 875.004 285.964 874.986 286.084 874.974ZM293.622 866.802C294.366 866.802 295.008 866.946 295.548 867.234C296.1 867.51 296.556 867.882 296.916 868.35C297.276 868.818 297.54 869.334 297.708 869.898C297.888 870.45 297.978 871.002 297.978 871.554C297.978 872.118 297.876 872.682 297.672 873.246C297.48 873.81 297.192 874.326 296.808 874.794C296.424 875.25 295.95 875.616 295.386 875.892C294.822 876.168 294.174 876.306 293.442 876.306C292.962 876.306 292.506 876.21 292.074 876.018C291.654 875.838 291.276 875.598 290.94 875.298C290.904 875.262 290.868 875.244 290.832 875.244C290.772 875.244 290.742 875.286 290.742 875.37V875.478C290.742 875.67 290.676 875.832 290.544 875.964C290.412 876.096 290.25 876.162 290.058 876.162C289.878 876.162 289.722 876.096 289.59 875.964C289.458 875.832 289.392 875.67 289.392 875.478V864.084C289.392 863.988 289.35 863.94 289.266 863.94C289.134 863.94 288.99 863.952 288.834 863.976C288.69 863.988 288.558 863.994 288.438 863.994C288.27 863.994 288.126 863.934 288.006 863.814C287.886 863.694 287.826 863.55 287.826 863.382C287.826 863.19 287.892 863.034 288.024 862.914C288.156 862.782 288.312 862.728 288.492 862.752C288.672 862.764 288.864 862.782 289.068 862.806C289.272 862.818 289.47 862.83 289.662 862.842C289.962 862.854 290.214 862.962 290.418 863.166C290.634 863.37 290.742 863.622 290.742 863.922V868.008C290.742 868.08 290.76 868.122 290.796 868.134C290.832 868.146 290.874 868.128 290.922 868.08C291.27 867.708 291.672 867.402 292.128 867.162C292.584 866.922 293.082 866.802 293.622 866.802ZM293.46 874.992C294.06 874.992 294.594 874.842 295.062 874.542C295.53 874.23 295.896 873.81 296.16 873.282C296.436 872.754 296.574 872.172 296.574 871.536C296.574 870.888 296.442 870.306 296.178 869.79C295.926 869.274 295.566 868.866 295.098 868.566C294.642 868.254 294.102 868.098 293.478 868.098C292.962 868.098 292.47 868.218 292.002 868.458C291.546 868.686 291.15 868.998 290.814 869.394C290.766 869.454 290.742 869.52 290.742 869.592V873.516C290.742 873.576 290.76 873.636 290.796 873.696C291.072 874.068 291.426 874.38 291.858 874.632C292.302 874.872 292.836 874.992 293.46 874.992ZM315.217 875.064C315.385 875.064 315.529 875.124 315.649 875.244C315.769 875.364 315.829 875.514 315.829 875.694C315.829 875.874 315.763 876.024 315.631 876.144C315.499 876.276 315.343 876.336 315.163 876.324C314.791 876.288 314.497 876.258 314.281 876.234C314.065 876.222 313.861 876.216 313.669 876.216C313.453 876.216 313.237 876.222 313.021 876.234C312.817 876.258 312.535 876.288 312.175 876.324C311.995 876.336 311.839 876.276 311.707 876.144C311.575 876.024 311.509 875.874 311.509 875.694C311.509 875.514 311.569 875.364 311.689 875.244C311.809 875.124 311.953 875.064 312.121 875.064C312.229 875.064 312.343 875.07 312.463 875.082C312.583 875.094 312.703 875.106 312.823 875.118H312.859C312.943 875.118 312.985 875.07 312.985 874.974V870.276C312.985 869.712 312.901 869.256 312.733 868.908C312.577 868.56 312.379 868.35 312.139 868.278C312.007 868.23 311.833 868.206 311.617 868.206C311.281 868.206 310.861 868.326 310.357 868.566C309.865 868.806 309.271 869.286 308.575 870.006C308.515 870.066 308.485 870.132 308.485 870.204V874.974C308.485 875.07 308.527 875.118 308.611 875.118C308.743 875.118 308.875 875.112 309.007 875.1C309.139 875.076 309.265 875.064 309.385 875.064C309.553 875.064 309.697 875.124 309.817 875.244C309.937 875.364 309.997 875.514 309.997 875.694C309.997 875.874 309.931 876.024 309.799 876.144C309.667 876.276 309.505 876.336 309.313 876.324C308.941 876.288 308.647 876.258 308.431 876.234C308.215 876.222 308.017 876.216 307.837 876.216C307.609 876.216 307.393 876.222 307.189 876.234C306.985 876.258 306.703 876.288 306.343 876.324C306.151 876.336 305.989 876.276 305.857 876.144C305.725 876.024 305.659 875.874 305.659 875.694C305.659 875.514 305.719 875.364 305.839 875.244C305.959 875.124 306.103 875.064 306.271 875.064C306.379 875.064 306.499 875.07 306.631 875.082C306.763 875.094 306.889 875.106 307.009 875.118H307.045C307.129 875.118 307.171 875.07 307.171 874.974V870.276C307.171 869.1 306.919 868.428 306.415 868.26C306.355 868.236 306.289 868.218 306.217 868.206C306.145 868.194 306.067 868.188 305.983 868.188C305.647 868.188 305.221 868.314 304.705 868.566C304.189 868.818 303.577 869.31 302.869 870.042C302.809 870.102 302.779 870.168 302.779 870.24V874.974C302.779 875.07 302.821 875.118 302.905 875.118C303.037 875.118 303.163 875.112 303.283 875.1C303.415 875.076 303.541 875.064 303.661 875.064C303.829 875.064 303.973 875.124 304.093 875.244C304.213 875.364 304.273 875.514 304.273 875.694C304.273 875.874 304.207 876.024 304.075 876.144C303.943 876.276 303.787 876.336 303.607 876.324C303.235 876.288 302.941 876.258 302.725 876.234C302.509 876.222 302.305 876.216 302.113 876.216C301.897 876.216 301.681 876.222 301.465 876.234C301.261 876.258 300.979 876.288 300.619 876.324C300.439 876.336 300.283 876.276 300.151 876.144C300.019 876.024 299.953 875.874 299.953 875.694C299.953 875.514 300.013 875.364 300.133 875.244C300.253 875.124 300.397 875.064 300.565 875.064C300.661 875.064 300.775 875.07 300.907 875.082C301.039 875.094 301.165 875.106 301.285 875.118H301.321C301.405 875.118 301.447 875.07 301.447 874.974V868.17C301.447 868.074 301.405 868.026 301.321 868.026C301.201 868.026 301.069 868.032 300.925 868.044C300.793 868.056 300.661 868.074 300.529 868.098C300.337 868.122 300.169 868.068 300.025 867.936C299.881 867.804 299.809 867.642 299.809 867.45C299.809 867.258 299.881 867.096 300.025 866.964C300.169 866.832 300.337 866.778 300.529 866.802C300.805 866.85 301.111 866.886 301.447 866.91H302.113C302.305 866.91 302.461 866.976 302.581 867.108C302.713 867.228 302.779 867.384 302.779 867.576V868.26C302.779 868.332 302.797 868.374 302.833 868.386C302.881 868.398 302.929 868.38 302.977 868.332C303.541 867.804 304.087 867.414 304.615 867.162C305.155 866.91 305.653 866.784 306.109 866.784C306.481 866.784 306.847 866.868 307.207 867.036C307.483 867.168 307.705 867.36 307.873 867.612C308.053 867.864 308.185 868.14 308.269 868.44C308.305 868.584 308.377 868.602 308.485 868.494C309.085 867.894 309.661 867.462 310.213 867.198C310.765 866.922 311.287 866.784 311.779 866.784C312.199 866.784 312.589 866.874 312.949 867.054C313.333 867.234 313.621 867.516 313.813 867.9C314.017 868.272 314.155 868.674 314.227 869.106C314.299 869.538 314.335 869.928 314.335 870.276V874.974C314.335 875.07 314.383 875.118 314.479 875.118C314.611 875.118 314.737 875.112 314.857 875.1C314.977 875.076 315.097 875.064 315.217 875.064ZM319.728 865.218C319.428 865.218 319.17 865.116 318.954 864.912C318.75 864.696 318.648 864.438 318.648 864.138C318.648 863.826 318.75 863.568 318.954 863.364C319.17 863.16 319.428 863.058 319.728 863.058C320.028 863.058 320.28 863.16 320.484 863.364C320.7 863.568 320.808 863.826 320.808 864.138C320.808 864.438 320.7 864.696 320.484 864.912C320.28 865.116 320.028 865.218 319.728 865.218ZM318.162 876.324C317.958 876.336 317.778 876.27 317.622 876.126C317.478 875.994 317.406 875.826 317.406 875.622C317.406 875.418 317.478 875.244 317.622 875.1C317.778 874.956 317.958 874.896 318.162 874.92C318.27 874.932 318.384 874.944 318.504 874.956C318.636 874.968 318.762 874.98 318.882 874.992H318.918C319.002 874.992 319.044 874.938 319.044 874.83V868.278C319.044 868.182 319.002 868.134 318.918 868.134C318.654 868.134 318.402 868.152 318.162 868.188C317.958 868.2 317.778 868.14 317.622 868.008C317.478 867.864 317.406 867.69 317.406 867.486C317.406 867.282 317.478 867.108 317.622 866.964C317.778 866.82 317.958 866.76 318.162 866.784C318.498 866.808 318.732 866.832 318.864 866.856C318.996 866.868 319.086 866.874 319.134 866.874C319.194 866.874 319.26 866.874 319.332 866.874C319.632 866.874 319.884 866.982 320.088 867.198C320.304 867.402 320.412 867.654 320.412 867.954V874.83C320.412 874.938 320.454 874.992 320.538 874.992C320.67 874.992 320.796 874.986 320.916 874.974C321.048 874.95 321.174 874.932 321.294 874.92C321.498 874.896 321.672 874.956 321.816 875.1C321.96 875.244 322.032 875.418 322.032 875.622C322.032 875.826 321.96 875.994 321.816 876.126C321.672 876.27 321.498 876.336 321.294 876.324C321.054 876.3 320.796 876.276 320.52 876.252C320.244 876.228 319.98 876.216 319.728 876.216C319.476 876.216 319.212 876.228 318.936 876.252C318.66 876.276 318.402 876.3 318.162 876.324ZM328.939 873.21C329.143 873.21 329.317 873.282 329.461 873.426C329.605 873.57 329.665 873.744 329.641 873.948C329.461 875.532 328.675 876.324 327.283 876.324C326.827 876.324 326.425 876.216 326.077 876C325.741 875.784 325.477 875.502 325.285 875.154C325.093 874.794 324.997 874.404 324.997 873.984V868.332C324.997 868.224 324.943 868.17 324.835 868.17H323.755C323.587 868.17 323.437 868.11 323.305 867.99C323.185 867.858 323.125 867.708 323.125 867.54C323.125 867.372 323.185 867.228 323.305 867.108C323.437 866.988 323.587 866.928 323.755 866.928H324.835C324.943 866.928 324.997 866.874 324.997 866.766V863.688C324.997 863.496 325.063 863.334 325.195 863.202C325.327 863.07 325.489 863.004 325.681 863.004C325.861 863.004 326.017 863.07 326.149 863.202C326.281 863.334 326.347 863.496 326.347 863.688V866.766C326.347 866.874 326.401 866.928 326.509 866.928H328.687C328.855 866.928 328.999 866.988 329.119 867.108C329.239 867.228 329.299 867.372 329.299 867.54C329.299 867.708 329.239 867.858 329.119 867.99C328.999 868.11 328.855 868.17 328.687 868.17H326.509C326.401 868.17 326.347 868.224 326.347 868.332V873.984C326.347 874.02 326.359 874.122 326.383 874.29C326.419 874.446 326.503 874.602 326.635 874.758C326.767 874.902 326.983 874.974 327.283 874.974C327.631 874.974 327.877 874.878 328.021 874.686C328.165 874.494 328.261 874.2 328.309 873.804C328.333 873.636 328.405 873.498 328.525 873.39C328.645 873.27 328.783 873.21 328.939 873.21ZM338.062 866.298C338.026 866.766 338.122 867.15 338.35 867.45C338.59 867.75 338.914 868.002 339.322 868.206C339.742 868.398 340.198 868.572 340.69 868.728C341.194 868.884 341.698 869.052 342.202 869.232C342.718 869.412 343.186 869.64 343.606 869.916C344.038 870.192 344.38 870.546 344.632 870.978C344.896 871.41 345.028 871.95 345.028 872.598C345.028 873.354 344.824 874.014 344.416 874.578C344.02 875.13 343.486 875.562 342.814 875.874C342.142 876.174 341.41 876.324 340.618 876.324C339.562 876.324 338.68 876.132 337.972 875.748C337.264 875.364 336.718 874.944 336.334 874.488C336.19 874.32 336.082 874.146 336.01 873.966C335.938 873.774 335.902 873.594 335.902 873.426C335.902 873.126 335.998 872.868 336.19 872.652C336.394 872.436 336.682 872.328 337.054 872.328C337.354 872.328 337.6 872.442 337.792 872.67C337.996 872.898 338.098 873.15 338.098 873.426C338.098 873.618 338.056 873.792 337.972 873.948C337.936 874.044 337.948 874.122 338.008 874.182C338.332 874.458 338.698 874.662 339.106 874.794C339.526 874.914 339.952 874.974 340.384 874.974C340.936 874.974 341.458 874.878 341.95 874.686C342.442 874.494 342.844 874.218 343.156 873.858C343.468 873.498 343.624 873.078 343.624 872.598C343.624 872.166 343.498 871.812 343.246 871.536C342.994 871.248 342.658 871.008 342.238 870.816C341.83 870.624 341.38 870.45 340.888 870.294C340.396 870.126 339.898 869.952 339.394 869.772C338.902 869.58 338.446 869.346 338.026 869.07C337.618 868.794 337.288 868.452 337.036 868.044C336.784 867.636 336.658 867.126 336.658 866.514C336.658 865.614 336.862 864.894 337.27 864.354C337.69 863.814 338.224 863.424 338.872 863.184C339.532 862.944 340.21 862.824 340.906 862.824C341.578 862.824 342.214 862.92 342.814 863.112C343.414 863.292 343.906 863.544 344.29 863.868C344.674 864.192 344.866 864.564 344.866 864.984C344.854 865.284 344.74 865.548 344.524 865.776C344.32 865.992 344.062 866.1 343.75 866.1C343.45 866.1 343.192 865.992 342.976 865.776C342.76 865.548 342.652 865.284 342.652 864.984C342.652 864.936 342.652 864.888 342.652 864.84C342.664 864.792 342.676 864.744 342.688 864.696C342.712 864.588 342.718 864.534 342.706 864.534C342.562 864.438 342.322 864.354 341.986 864.282C341.65 864.198 341.278 864.156 340.87 864.156C340.45 864.156 340.03 864.222 339.61 864.354C339.202 864.474 338.854 864.69 338.566 865.002C338.278 865.302 338.11 865.734 338.062 866.298ZM356.367 879.366C356.559 879.342 356.721 879.39 356.853 879.51C356.985 879.642 357.051 879.804 357.051 879.996C357.051 880.176 356.985 880.326 356.853 880.446C356.721 880.566 356.559 880.62 356.367 880.608C355.995 880.572 355.701 880.548 355.485 880.536C355.269 880.524 355.065 880.518 354.873 880.518C354.657 880.518 354.441 880.524 354.225 880.536C354.021 880.56 353.745 880.584 353.397 880.608C353.205 880.62 353.043 880.566 352.911 880.446C352.779 880.326 352.713 880.176 352.713 879.996C352.713 879.804 352.779 879.642 352.911 879.51C353.043 879.39 353.205 879.342 353.397 879.366L354.045 879.42H354.081C354.165 879.42 354.207 879.372 354.207 879.276V875.46C354.207 875.4 354.189 875.358 354.153 875.334C354.117 875.31 354.069 875.322 354.009 875.37C353.673 875.658 353.301 875.886 352.893 876.054C352.485 876.222 352.053 876.306 351.597 876.306C350.865 876.306 350.217 876.168 349.653 875.892C349.089 875.616 348.609 875.25 348.213 874.794C347.829 874.326 347.535 873.81 347.331 873.246C347.139 872.682 347.043 872.118 347.043 871.554C347.043 871.002 347.133 870.45 347.313 869.898C347.493 869.334 347.763 868.818 348.123 868.35C348.483 867.882 348.933 867.51 349.473 867.234C350.025 866.946 350.673 866.802 351.417 866.802C351.945 866.802 352.425 866.916 352.857 867.144C353.289 867.36 353.673 867.642 354.009 867.99C354.045 868.026 354.081 868.044 354.117 868.044C354.177 868.044 354.207 868.002 354.207 867.918V867.576C354.207 867.384 354.273 867.222 354.405 867.09C354.537 866.958 354.693 866.892 354.873 866.892C355.137 866.892 355.407 866.88 355.683 866.856C355.959 866.832 356.217 866.808 356.457 866.784C356.661 866.76 356.835 866.82 356.979 866.964C357.123 867.108 357.195 867.282 357.195 867.486C357.195 867.69 357.123 867.864 356.979 868.008C356.835 868.14 356.661 868.2 356.457 868.188C356.337 868.164 356.217 868.152 356.097 868.152C355.977 868.14 355.851 868.128 355.719 868.116H355.683C355.599 868.116 355.557 868.164 355.557 868.26V879.276C355.557 879.396 355.617 879.444 355.737 879.42L356.367 879.366ZM351.561 875.028C352.149 875.028 352.659 874.914 353.091 874.686C353.523 874.458 353.871 874.17 354.135 873.822C354.183 873.762 354.207 873.696 354.207 873.624V869.7C354.207 869.628 354.183 869.562 354.135 869.502C353.823 869.07 353.445 868.734 353.001 868.494C352.557 868.242 352.071 868.116 351.543 868.116C350.919 868.116 350.373 868.266 349.905 868.566C349.449 868.866 349.095 869.274 348.843 869.79C348.591 870.306 348.465 870.888 348.465 871.536C348.465 872.172 348.597 872.76 348.861 873.3C349.137 873.828 349.509 874.248 349.977 874.56C350.445 874.872 350.973 875.028 351.561 875.028ZM368.051 874.974C368.255 874.95 368.429 875.004 368.573 875.136C368.717 875.268 368.789 875.436 368.789 875.64C368.789 875.832 368.717 875.994 368.573 876.126C368.429 876.27 368.255 876.33 368.051 876.306C367.883 876.282 367.703 876.252 367.511 876.216C367.319 876.192 367.133 876.174 366.953 876.162C366.653 876.15 366.395 876.042 366.179 875.838C365.975 875.634 365.873 875.382 365.873 875.082V874.83C365.873 874.758 365.849 874.716 365.801 874.704C365.765 874.68 365.723 874.698 365.675 874.758C365.315 875.214 364.901 875.586 364.433 875.874C363.965 876.162 363.431 876.306 362.831 876.306C362.003 876.306 361.277 876.09 360.653 875.658C360.389 875.466 360.125 875.184 359.861 874.812C359.609 874.428 359.483 873.924 359.483 873.3V868.134C359.483 868.038 359.441 867.99 359.357 867.99C359.213 867.99 359.069 868.002 358.925 868.026C358.793 868.038 358.661 868.044 358.529 868.044C358.361 868.044 358.217 867.984 358.097 867.864C357.977 867.744 357.917 867.594 357.917 867.414C357.917 867.234 357.983 867.084 358.115 866.964C358.247 866.832 358.403 866.778 358.583 866.802C358.859 866.826 359.075 866.844 359.231 866.856C359.399 866.856 359.573 866.862 359.753 866.874C360.053 866.874 360.305 866.982 360.509 867.198C360.725 867.402 360.833 867.654 360.833 867.954V873.3C360.833 873.696 360.917 874.008 361.085 874.236C361.253 874.452 361.457 874.614 361.697 874.722C361.937 874.83 362.165 874.896 362.381 874.92C362.597 874.944 362.747 874.956 362.831 874.956C363.431 874.956 363.983 874.764 364.487 874.38C365.003 873.984 365.447 873.492 365.819 872.904C365.855 872.832 365.873 872.766 365.873 872.706V868.134C365.873 868.038 365.831 867.99 365.747 867.99C365.615 867.99 365.471 868.002 365.315 868.026C365.171 868.038 365.039 868.044 364.919 868.044C364.751 868.044 364.607 867.984 364.487 867.864C364.367 867.744 364.307 867.594 364.307 867.414C364.307 867.234 364.373 867.084 364.505 866.964C364.637 866.832 364.793 866.778 364.973 866.802C365.249 866.826 365.465 866.844 365.621 866.856C365.789 866.856 365.963 866.862 366.143 866.874C366.443 866.874 366.695 866.982 366.899 867.198C367.115 867.402 367.223 867.654 367.223 867.954V874.92C367.223 875.016 367.271 875.064 367.367 875.064C367.487 875.064 367.601 875.052 367.709 875.028C367.817 875.004 367.931 874.986 368.051 874.974ZM378.577 874.938C378.757 874.938 378.907 875.01 379.027 875.154C379.159 875.286 379.225 875.442 379.225 875.622C379.225 875.838 379.147 876.012 378.991 876.144C378.835 876.288 378.655 876.342 378.451 876.306C378.295 876.27 378.127 876.24 377.947 876.216C377.767 876.192 377.587 876.174 377.407 876.162C377.167 876.162 376.951 876.09 376.759 875.946C376.567 875.802 376.435 875.616 376.363 875.388C376.327 875.28 376.267 875.262 376.183 875.334C375.775 875.646 375.331 875.886 374.851 876.054C374.371 876.222 373.801 876.306 373.141 876.306C372.349 876.306 371.689 876.078 371.161 875.622C370.633 875.154 370.369 874.548 370.369 873.804C370.369 872.952 370.669 872.256 371.269 871.716C371.869 871.176 372.661 870.906 373.645 870.906C374.017 870.906 374.413 870.948 374.833 871.032C375.253 871.116 375.685 871.248 376.129 871.428C376.141 871.428 376.153 871.434 376.165 871.446C376.177 871.446 376.189 871.446 376.201 871.446C376.285 871.446 376.327 871.398 376.327 871.302V870.582C376.327 869.73 376.099 869.094 375.643 868.674C375.199 868.254 374.677 868.044 374.077 868.044C373.681 868.044 373.273 868.134 372.853 868.314C372.769 868.362 372.739 868.434 372.763 868.53C372.799 868.638 372.817 868.74 372.817 868.836C372.817 869.1 372.721 869.34 372.529 869.556C372.349 869.772 372.103 869.88 371.791 869.88C371.467 869.88 371.209 869.772 371.017 869.556C370.837 869.328 370.747 869.07 370.747 868.782C370.747 868.482 370.855 868.206 371.071 867.954C371.395 867.582 371.797 867.294 372.277 867.09C372.769 866.886 373.291 866.784 373.843 866.784C374.779 866.784 375.523 866.958 376.075 867.306C376.639 867.654 377.041 868.116 377.281 868.692C377.533 869.268 377.659 869.898 377.659 870.582V874.92C377.659 875.016 377.707 875.064 377.803 875.064C377.935 875.064 378.067 875.046 378.199 875.01C378.331 874.962 378.457 874.938 378.577 874.938ZM373.141 875.01C373.837 874.986 374.419 874.872 374.887 874.668C375.355 874.464 375.811 874.134 376.255 873.678C376.303 873.618 376.327 873.552 376.327 873.48V872.976C376.327 872.892 376.291 872.832 376.219 872.796C375.967 872.652 375.649 872.508 375.265 872.364C374.881 872.22 374.365 872.148 373.717 872.148C372.973 872.148 372.439 872.316 372.115 872.652C371.803 872.988 371.647 873.372 371.647 873.804C371.647 874.092 371.725 874.326 371.881 874.506C372.037 874.674 372.229 874.8 372.457 874.884C372.697 874.968 372.925 875.01 373.141 875.01ZM393.756 866.784C393.936 866.772 394.092 866.832 394.224 866.964C394.356 867.084 394.422 867.234 394.422 867.414C394.422 867.606 394.356 867.762 394.224 867.882C394.092 868.002 393.936 868.056 393.756 868.044L393.216 868.008C393.108 868.008 393.042 868.05 393.018 868.134L390.498 875.748C390.45 875.916 390.348 876.054 390.192 876.162C390.048 876.27 389.886 876.324 389.706 876.324C389.526 876.324 389.364 876.27 389.22 876.162C389.088 876.054 388.992 875.916 388.932 875.748L386.916 869.25C386.904 869.178 386.868 869.142 386.808 869.142C386.76 869.142 386.724 869.178 386.7 869.25L384.666 875.73C384.618 875.91 384.516 876.054 384.36 876.162C384.216 876.27 384.054 876.324 383.874 876.324C383.694 876.324 383.532 876.27 383.388 876.162C383.244 876.054 383.142 875.91 383.082 875.73L380.598 868.134C380.574 868.05 380.508 868.008 380.4 868.008L379.896 868.044C379.716 868.056 379.56 868.002 379.428 867.882C379.296 867.762 379.23 867.606 379.23 867.414C379.23 867.234 379.296 867.084 379.428 866.964C379.56 866.832 379.716 866.772 379.896 866.784C380.208 866.808 380.478 866.832 380.706 866.856C380.946 866.868 381.174 866.874 381.39 866.874C381.606 866.874 381.828 866.868 382.056 866.856C382.296 866.832 382.572 866.808 382.884 866.784C383.064 866.772 383.22 866.832 383.352 866.964C383.484 867.084 383.55 867.234 383.55 867.414C383.55 867.594 383.49 867.744 383.37 867.864C383.25 867.984 383.106 868.044 382.938 868.044C382.794 868.044 382.644 868.038 382.488 868.026C382.344 868.002 382.194 867.984 382.038 867.972C381.906 867.972 381.858 868.032 381.894 868.152L383.802 874.056C383.826 874.128 383.862 874.164 383.91 874.164C383.958 874.164 383.994 874.122 384.018 874.038L385.926 867.648C385.986 867.444 386.1 867.282 386.268 867.162C386.436 867.042 386.616 866.982 386.808 866.982C387.012 866.982 387.192 867.042 387.348 867.162C387.516 867.282 387.63 867.444 387.69 867.648L389.598 874.038C389.622 874.122 389.658 874.164 389.706 874.164C389.766 874.164 389.802 874.128 389.814 874.056L391.722 868.17C391.722 868.158 391.722 868.146 391.722 868.134C391.734 868.122 391.74 868.11 391.74 868.098C391.74 868.026 391.698 867.99 391.614 867.99C391.458 867.99 391.302 868.002 391.146 868.026C391.002 868.038 390.858 868.044 390.714 868.044C390.546 868.044 390.402 867.984 390.282 867.864C390.162 867.744 390.102 867.594 390.102 867.414C390.102 867.234 390.168 867.084 390.3 866.964C390.432 866.832 390.588 866.772 390.768 866.784C391.08 866.808 391.35 866.832 391.578 866.856C391.818 866.868 392.046 866.874 392.262 866.874C392.478 866.874 392.706 866.868 392.946 866.856C393.186 866.832 393.456 866.808 393.756 866.784ZM404.594 875.064C404.762 875.064 404.906 875.124 405.026 875.244C405.146 875.364 405.206 875.514 405.206 875.694C405.206 875.874 405.14 876.024 405.008 876.144C404.876 876.264 404.714 876.318 404.522 876.306C404.15 876.27 403.856 876.246 403.64 876.234C403.424 876.222 403.22 876.216 403.028 876.216C402.812 876.216 402.596 876.222 402.38 876.234C402.176 876.258 401.9 876.282 401.552 876.306C401.36 876.318 401.198 876.264 401.066 876.144C400.934 876.024 400.868 875.874 400.868 875.694C400.868 875.502 400.934 875.346 401.066 875.226C401.198 875.094 401.36 875.04 401.552 875.064H401.66C401.708 875.064 401.738 875.046 401.75 875.01C401.774 874.974 401.768 874.932 401.732 874.884L399.536 871.662C399.476 871.554 399.404 871.542 399.32 871.626L398.276 872.508C398.216 872.568 398.186 872.634 398.186 872.706V874.974C398.186 875.07 398.228 875.118 398.312 875.118C398.444 875.118 398.57 875.112 398.69 875.1C398.822 875.076 398.948 875.064 399.068 875.064C399.236 875.064 399.38 875.124 399.5 875.244C399.62 875.364 399.68 875.514 399.68 875.694C399.68 875.874 399.614 876.024 399.482 876.144C399.35 876.264 399.188 876.318 398.996 876.306C398.624 876.27 398.33 876.246 398.114 876.234C397.898 876.222 397.7 876.216 397.52 876.216C397.388 876.216 397.262 876.216 397.142 876.216C397.034 876.228 396.896 876.24 396.728 876.252C396.572 876.264 396.338 876.282 396.026 876.306C395.834 876.318 395.672 876.264 395.54 876.144C395.408 876.024 395.342 875.874 395.342 875.694C395.342 875.514 395.402 875.364 395.522 875.244C395.642 875.124 395.786 875.064 395.954 875.064C396.062 875.064 396.176 875.07 396.296 875.082C396.428 875.094 396.554 875.106 396.674 875.118H396.71C396.794 875.118 396.836 875.07 396.836 874.974V864.084C396.836 863.988 396.794 863.94 396.71 863.94C396.578 863.94 396.452 863.952 396.332 863.976C396.212 863.988 396.086 863.994 395.954 863.994C395.786 863.994 395.642 863.934 395.522 863.814C395.402 863.694 395.342 863.55 395.342 863.382C395.342 863.19 395.408 863.034 395.54 862.914C395.672 862.782 395.834 862.728 396.026 862.752C396.194 862.764 396.368 862.782 396.548 862.806C396.74 862.818 396.926 862.83 397.106 862.842C397.406 862.854 397.658 862.962 397.862 863.166C398.078 863.37 398.186 863.622 398.186 863.922V870.78C398.186 870.84 398.204 870.882 398.24 870.906C398.288 870.93 398.336 870.918 398.384 870.87L401.552 868.206C401.588 868.17 401.606 868.134 401.606 868.098C401.606 868.014 401.558 867.984 401.462 868.008L401.084 868.044C400.892 868.056 400.73 868.002 400.598 867.882C400.466 867.75 400.4 867.594 400.4 867.414C400.4 867.234 400.466 867.078 400.598 866.946C400.73 866.814 400.892 866.76 401.084 866.784C401.468 866.82 401.762 866.85 401.966 866.874C402.182 866.886 402.38 866.892 402.56 866.892C402.788 866.892 403.004 866.886 403.208 866.874C403.412 866.85 403.694 866.82 404.054 866.784C404.246 866.76 404.408 866.814 404.54 866.946C404.672 867.078 404.738 867.234 404.738 867.414C404.738 867.582 404.678 867.732 404.558 867.864C404.438 867.984 404.288 868.044 404.108 868.044C404.06 868.044 404.012 868.044 403.964 868.044C403.928 868.032 403.886 868.026 403.838 868.026H403.766C403.706 868.026 403.658 868.044 403.622 868.08L400.598 870.636C400.514 870.72 400.502 870.798 400.562 870.87L403.424 875.028C403.484 875.1 403.55 875.136 403.622 875.136C403.79 875.124 403.952 875.112 404.108 875.1C404.276 875.076 404.438 875.064 404.594 875.064Z" fill="#2F2E2E"/>
</g>
<defs>
<clipPath id="clip0_1574_14480">
<rect width="440" height="956" fill="white"/>
</clipPath>
</defs>
</svg>
