<svg width="440" height="959" viewBox="0 0 440 959" fill="none" xmlns="http://www.w3.org/2000/svg">
<g clip-path="url(#clip0_1520_8806)">
<rect width="440" height="959" fill="#F9F9F9"/>
<g opacity="0.2">
<rect x="134" y="437" width="160" height="25" rx="12.5" fill="#858585"/>
</g>
<rect x="15" y="116" width="410" height="245" rx="8" fill="#B3B3B3"/>
<g opacity="0.2">
<rect x="35" y="545" width="81" height="18" rx="9" fill="#2E2E2E"/>
</g>
<g opacity="0.2">
<rect x="30" y="382.5" width="59" height="15" rx="7.5" fill="#2E2E2E"/>
</g>
<g opacity="0.2">
<rect x="27" y="408.5" width="69" height="15" rx="7.5" fill="#2E2E2E"/>
</g>
<g opacity="0.2">
<rect x="358" y="412.5" width="22" height="15" rx="7.5" fill="#2E2E2E"/>
</g>
<g opacity="0.2">
<rect x="332" y="386.5" width="74" height="15" rx="7.5" fill="#2E2E2E"/>
</g>
<g opacity="0.2">
<rect x="64" y="580" width="24" height="18" rx="9" fill="#2E2E2E"/>
</g>
<g opacity="0.2">
<rect x="207" y="580" width="23" height="18" rx="9" fill="#2E2E2E"/>
</g>
<g opacity="0.2">
<rect x="353" y="580" width="23" height="18" rx="9" fill="#2E2E2E"/>
</g>
<g opacity="0.2" clip-path="url(#clip1_1520_8806)">
<rect x="15" y="479" width="410" height="18" rx="9" fill="#2E2E2E"/>
<rect x="15" y="520" width="247" height="18" rx="9" fill="#2E2E2E"/>
</g>
<rect x="7" y="663" width="134" height="134" rx="5" fill="#B3B3B3"/>
<rect x="7" y="809" width="134" height="134" rx="5" fill="#B3B3B3"/>
<rect x="8" y="955" width="134" height="134" rx="5" fill="#B3B3B3"/>
<rect x="154" y="955" width="134" height="134" rx="5" fill="#B3B3B3"/>
<rect x="300" y="955" width="134" height="134" rx="5" fill="#B3B3B3"/>
<rect x="153" y="663" width="134" height="134" rx="5" fill="#B3B3B3"/>
<rect x="153" y="809" width="134" height="134" rx="5" fill="#B3B3B3"/>
<rect x="299" y="663" width="134" height="134" rx="5" fill="#B3B3B3"/>
<rect x="299" y="809" width="134" height="134" rx="5" fill="#B3B3B3"/>
<rect x="7" y="663" width="134" height="134" rx="5" fill="#B3B3B3"/>
<rect x="7" y="809" width="134" height="134" rx="5" fill="#B3B3B3"/>
<rect x="8" y="955" width="134" height="134" rx="5" fill="#B3B3B3"/>
<rect x="154" y="955" width="134" height="134" rx="5" fill="#B3B3B3"/>
<rect x="300" y="955" width="134" height="134" rx="5" fill="#B3B3B3"/>
<rect x="153" y="663" width="134" height="134" rx="5" fill="#B3B3B3"/>
<rect x="153" y="809" width="134" height="134" rx="5" fill="#B3B3B3"/>
<rect x="299" y="663" width="134" height="134" rx="5" fill="#B3B3B3"/>
<rect x="299" y="809" width="134" height="134" rx="5" fill="#B3B3B3"/>
<rect width="80" height="26" transform="translate(180 541)" fill="white"/>
<g opacity="0.2">
<rect x="180" y="545" width="80" height="18" rx="9" fill="#2E2E2E"/>
</g>
<rect width="81" height="26" transform="translate(324 541)" fill="white"/>
<g opacity="0.2">
<rect x="324" y="545" width="81" height="18" rx="9" fill="#2E2E2E"/>
</g>
<rect width="410" height="46" transform="translate(15 617)" fill="white"/>
<rect x="16" y="618" width="100" height="44" rx="4" stroke="#AD538D" stroke-width="2"/>
<g opacity="0.2" clip-path="url(#clip2_1520_8806)">
<rect x="25.5" y="631" width="81" height="18" rx="9" fill="#858585"/>
</g>
<rect width="16" height="16" transform="translate(160 632)" fill="#EEEEEE"/>
<path d="M160 637.702C160 641.724 163.116 645.68 168.038 649.078C168.222 649.201 168.483 649.333 168.667 649.333C168.85 649.333 169.112 649.201 169.304 649.078C174.218 645.68 177.333 641.724 177.333 637.702C177.333 634.36 175.212 632 172.385 632C170.77 632 169.461 632.831 168.667 634.105C167.89 632.84 166.563 632 164.949 632C162.121 632 160 634.36 160 637.702ZM161.405 637.702C161.405 635.191 162.906 633.52 164.931 633.52C166.572 633.52 167.515 634.625 168.073 635.569C168.309 635.946 168.457 636.05 168.667 636.05C168.876 636.05 169.007 635.937 169.26 635.569C169.862 634.643 170.77 633.52 172.402 633.52C174.427 633.52 175.928 635.191 175.928 637.702C175.928 641.214 172.498 645 168.85 647.625C168.763 647.691 168.702 647.738 168.667 647.738C168.632 647.738 168.571 647.691 168.492 647.625C164.835 645 161.405 641.214 161.405 637.702Z" fill="#2E2E2E"/>
<rect width="24" height="24" transform="translate(260 628)" fill="white"/>
<path d="M260.782 646.286C261.215 646.286 261.565 645.978 261.565 645.587V640.405C261.822 640.302 262.79 639.967 264.304 639.967C268.113 639.967 270.502 641.654 274.126 641.654C275.732 641.654 276.329 641.495 277.112 641.178C277.822 640.889 278.286 640.405 278.286 639.547V630.088C278.286 629.584 277.812 629.295 277.215 629.295C276.71 629.295 275.763 629.687 273.992 629.687C270.368 629.687 267.99 628 264.17 628C262.564 628 261.956 628.158 261.174 628.475C260.463 628.764 260 629.249 260 630.097V645.587C260 645.969 260.36 646.286 260.782 646.286ZM274.126 640.246C270.698 640.246 268.268 638.559 264.304 638.559C263.171 638.559 262.142 638.681 261.565 638.895V630.144C261.709 629.836 262.564 629.407 264.17 629.407C267.794 629.407 270.214 631.094 273.992 631.094C275.115 631.094 276.041 630.973 276.731 630.796V639.51C276.587 639.818 275.732 640.246 274.126 640.246Z" fill="#2E2E2E"/>
<path d="M369.269 646.352C370.897 646.301 373.83 645.941 375.145 644.904C376.093 644.156 377.228 643.315 378.328 642.819" stroke="#2F2E2E" stroke-width="2" stroke-linecap="round"/>
<path d="M373.676 643.261C376.146 642.943 379.635 641.123 380.776 639.066" stroke="#2F2E2E" stroke-width="2" stroke-linecap="round"/>
<path d="M377.103 639.728C378.646 638.463 382 637.932 382 635.753" stroke="#2F2E2E" stroke-width="2" stroke-linecap="round"/>
<path d="M379.062 635.753C379.452 635.709 379.475 634.023 379.565 633.656C379.736 632.963 380.746 632.496 381.021 632" stroke="#2F2E2E" stroke-width="2" stroke-linecap="round"/>
<path d="M366.82 644.365C366.604 642.61 366.197 640.631 367.065 639.066" stroke="#2F2E2E" stroke-width="2" stroke-linecap="round"/>
<path d="M369.024 641.273C369.944 640.34 370.097 638.85 370.738 637.839C371.179 637.142 371.346 636.141 372.207 635.753" stroke="#2F2E2E" stroke-width="2" stroke-linecap="round"/>
<path d="M373.186 637.299C373.186 636.694 373.94 635.124 374.465 634.698C375.383 633.954 376.131 633.987 377.348 633.987" stroke="#2F2E2E" stroke-width="2" stroke-linecap="round"/>
<path d="M377.531 636.292L366 648" stroke="#2F2E2E" stroke-width="2" stroke-linecap="round"/>
<rect width="24" height="24" transform="translate(390 441)" fill="white"/>
<path d="M394.8 456.6L399 460.2M394.2 456.6L406.031 444.355C407.305 443.081 409.371 443.081 410.645 444.355C411.918 445.629 411.918 447.695 410.645 448.969L398.4 460.8L392.4 462.6L394.2 456.6Z" stroke="#2F2E2E" stroke-width="2" stroke-linecap="round" stroke-linejoin="round"/>
<rect x="0.5" y="0.5" width="439" height="105" fill="white" stroke="#2F2E2E"/>
<path d="M127.202 77V58.8182H138.104V60.7713H129.403V66.9148H137.287V68.8679H129.403V77H127.202ZM141.444 77V63.3636H143.468V65.4233H143.61C143.859 64.7486 144.309 64.2011 144.96 63.7809C145.611 63.3607 146.345 63.1506 147.161 63.1506C147.315 63.1506 147.508 63.1535 147.738 63.1594C147.969 63.1654 148.144 63.1742 148.262 63.1861V65.3168C148.191 65.299 148.028 65.2724 147.774 65.2369C147.525 65.1954 147.262 65.1747 146.984 65.1747C146.321 65.1747 145.729 65.3138 145.208 65.592C144.693 65.8642 144.285 66.243 143.983 66.7283C143.687 67.2077 143.539 67.7552 143.539 68.3707V77H141.444ZM150.746 77V63.3636H152.841V77H150.746ZM151.811 61.0909C151.403 61.0909 151.051 60.9518 150.755 60.6737C150.465 60.3955 150.32 60.0611 150.32 59.6705C150.32 59.2798 150.465 58.9454 150.755 58.6673C151.051 58.3891 151.403 58.25 151.811 58.25C152.219 58.25 152.569 58.3891 152.859 58.6673C153.155 58.9454 153.303 59.2798 153.303 59.6705C153.303 60.0611 153.155 60.3955 152.859 60.6737C152.569 60.9518 152.219 61.0909 151.811 61.0909ZM162.396 77.2841C161.082 77.2841 159.948 76.9941 158.995 76.4141C158.049 75.8281 157.318 75.0114 156.803 73.9638C156.294 72.9103 156.039 71.6851 156.039 70.2884C156.039 68.8916 156.294 67.6605 156.803 66.5952C157.318 65.5239 158.034 64.6894 158.951 64.0916C159.874 63.4879 160.952 63.1861 162.183 63.1861C162.893 63.1861 163.594 63.3045 164.287 63.5412C164.979 63.7779 165.609 64.1626 166.178 64.6953C166.746 65.2221 167.199 65.9205 167.536 66.7905C167.873 67.6605 168.042 68.7318 168.042 70.0043V70.892H157.531V69.081H165.911C165.911 68.3116 165.757 67.625 165.45 67.0213C165.148 66.4176 164.716 65.9412 164.153 65.592C163.597 65.2428 162.94 65.0682 162.183 65.0682C161.348 65.0682 160.626 65.2753 160.016 65.6896C159.413 66.098 158.948 66.6307 158.623 67.2876C158.297 67.9446 158.134 68.6489 158.134 69.4006V70.608C158.134 71.6378 158.312 72.5108 158.667 73.2269C159.028 73.9371 159.528 74.4787 160.167 74.8516C160.807 75.2185 161.549 75.402 162.396 75.402C162.946 75.402 163.443 75.325 163.887 75.1712C164.337 75.0114 164.725 74.7746 165.05 74.4609C165.376 74.1413 165.627 73.7448 165.805 73.2713L167.829 73.8395C167.616 74.526 167.258 75.1297 166.755 75.6506C166.252 76.1655 165.63 76.5679 164.89 76.858C164.151 77.142 163.319 77.2841 162.396 77.2841ZM173.324 68.7969V77H171.229V63.3636H173.253V65.4943H173.431C173.75 64.8018 174.236 64.2455 174.887 63.8253C175.538 63.3991 176.378 63.1861 177.408 63.1861C178.331 63.1861 179.139 63.3755 179.832 63.7543C180.524 64.1271 181.063 64.6953 181.448 65.4588C181.832 66.2164 182.025 67.1752 182.025 68.3352V77H179.929V68.4773C179.929 67.406 179.651 66.5715 179.095 65.9737C178.539 65.37 177.775 65.0682 176.804 65.0682C176.136 65.0682 175.538 65.2132 175.011 65.5032C174.49 65.7932 174.079 66.2164 173.777 66.7727C173.475 67.3291 173.324 68.0038 173.324 68.7969ZM191.002 77.2841C189.866 77.2841 188.863 76.997 187.993 76.4229C187.123 75.8429 186.442 75.0262 185.951 73.9727C185.46 72.9132 185.214 71.6615 185.214 70.2173C185.214 68.785 185.46 67.5421 185.951 66.4886C186.442 65.4351 187.126 64.6213 188.002 64.0472C188.878 63.4731 189.89 63.1861 191.038 63.1861C191.926 63.1861 192.627 63.334 193.142 63.63C193.663 63.92 194.059 64.2514 194.331 64.6243C194.61 64.9912 194.826 65.2931 194.98 65.5298H195.157V58.8182H197.252V77H195.228V74.9048H194.98C194.826 75.1534 194.607 75.4671 194.323 75.8459C194.039 76.2187 193.633 76.5531 193.106 76.8491C192.58 77.1391 191.878 77.2841 191.002 77.2841ZM191.286 75.402C192.127 75.402 192.837 75.183 193.417 74.745C193.997 74.3011 194.438 73.6886 194.74 72.9073C195.042 72.1201 195.193 71.2116 195.193 70.1818C195.193 69.1638 195.045 68.2731 194.749 67.5096C194.453 66.7402 194.015 66.1424 193.435 65.7163C192.855 65.2842 192.139 65.0682 191.286 65.0682C190.399 65.0682 189.659 65.296 189.067 65.7518C188.481 66.2016 188.04 66.8142 187.744 67.5895C187.454 68.3589 187.309 69.223 187.309 70.1818C187.309 71.1525 187.457 72.0343 187.753 72.8274C188.055 73.6146 188.499 74.242 189.085 74.7095C189.677 75.1712 190.41 75.402 191.286 75.402ZM203.476 58.8182V77H201.381V58.8182H203.476ZM208.663 82.1136C208.307 82.1136 207.991 82.084 207.713 82.0249C207.434 81.9716 207.242 81.9183 207.136 81.8651L207.668 80.0185C208.177 80.1487 208.627 80.196 209.018 80.1605C209.408 80.125 209.755 79.9504 210.056 79.6367C210.364 79.329 210.645 78.8288 210.9 78.1364L211.29 77.071L206.248 63.3636H208.521L212.285 74.2301H212.427L216.191 63.3636H218.464L212.675 78.9886C212.415 79.6929 212.092 80.2759 211.708 80.7376C211.323 81.2051 210.876 81.5514 210.367 81.7763C209.864 82.0012 209.296 82.1136 208.663 82.1136ZM221.513 77V58.8182H232.415V60.7713H223.715V66.9148H231.598V68.8679H223.715V77H221.513ZM240.618 77.2841C239.304 77.2841 238.171 76.9941 237.218 76.4141C236.271 75.8281 235.54 75.0114 235.025 73.9638C234.516 72.9103 234.262 71.6851 234.262 70.2884C234.262 68.8916 234.516 67.6605 235.025 66.5952C235.54 65.5239 236.256 64.6894 237.174 64.0916C238.097 63.4879 239.174 63.1861 240.405 63.1861C241.116 63.1861 241.817 63.3045 242.509 63.5412C243.202 63.7779 243.832 64.1626 244.4 64.6953C244.968 65.2221 245.421 65.9205 245.759 66.7905C246.096 67.6605 246.265 68.7318 246.265 70.0043V70.892H235.753V69.081H244.134C244.134 68.3116 243.98 67.625 243.672 67.0213C243.37 66.4176 242.938 65.9412 242.376 65.592C241.82 65.2428 241.163 65.0682 240.405 65.0682C239.571 65.0682 238.849 65.2753 238.239 65.6896C237.635 66.098 237.171 66.6307 236.845 67.2876C236.52 67.9446 236.357 68.6489 236.357 69.4006V70.608C236.357 71.6378 236.535 72.5108 236.89 73.2269C237.251 73.9371 237.751 74.4787 238.39 74.8516C239.029 75.2185 239.772 75.402 240.618 75.402C241.169 75.402 241.666 75.325 242.11 75.1712C242.56 75.0114 242.947 74.7746 243.273 74.4609C243.598 74.1413 243.85 73.7448 244.027 73.2713L246.052 73.8395C245.839 74.526 245.48 75.1297 244.977 75.6506C244.474 76.1655 243.853 76.5679 243.113 76.858C242.373 77.142 241.542 77.2841 240.618 77.2841ZM253.465 77.3196C252.6 77.3196 251.816 77.1568 251.112 76.8313C250.408 76.4999 249.848 76.0234 249.434 75.402C249.02 74.7746 248.813 74.017 248.813 73.1293C248.813 72.348 248.966 71.7147 249.274 71.2294C249.582 70.7382 249.993 70.3535 250.508 70.0753C251.023 69.7971 251.591 69.59 252.213 69.4538C252.84 69.3118 253.47 69.1993 254.104 69.1165C254.932 69.0099 255.604 68.93 256.119 68.8768C256.64 68.8176 257.019 68.7199 257.255 68.5838C257.498 68.4477 257.619 68.2109 257.619 67.8736V67.8026C257.619 66.9266 257.38 66.246 256.9 65.7607C256.427 65.2753 255.708 65.0327 254.743 65.0327C253.743 65.0327 252.959 65.2517 252.39 65.6896C251.822 66.1276 251.423 66.5952 251.192 67.0923L249.203 66.3821C249.558 65.5535 250.032 64.9084 250.624 64.4467C251.221 63.9792 251.872 63.6536 252.577 63.4702C253.287 63.2808 253.985 63.1861 254.672 63.1861C255.11 63.1861 255.613 63.2393 256.181 63.3459C256.755 63.4465 257.309 63.6566 257.841 63.9762C258.38 64.2958 258.827 64.7782 259.182 65.4233C259.537 66.0684 259.715 66.9325 259.715 68.0156V77H257.619V75.1534H257.513C257.371 75.4493 257.134 75.766 256.803 76.1033C256.471 76.4407 256.03 76.7277 255.48 76.9645C254.929 77.2012 254.258 77.3196 253.465 77.3196ZM253.784 75.4375C254.613 75.4375 255.311 75.2747 255.879 74.9492C256.453 74.6237 256.886 74.2035 257.176 73.6886C257.471 73.1737 257.619 72.6321 257.619 72.0639V70.1463C257.531 70.2528 257.335 70.3505 257.033 70.4393C256.738 70.5221 256.394 70.5961 256.004 70.6612C255.619 70.7204 255.243 70.7737 254.876 70.821C254.515 70.8625 254.222 70.898 253.997 70.9276C253.453 70.9986 252.944 71.114 252.47 71.2738C252.003 71.4277 251.624 71.6615 251.334 71.9751C251.05 72.2829 250.908 72.7031 250.908 73.2358C250.908 73.9638 251.177 74.5142 251.716 74.8871C252.26 75.254 252.95 75.4375 253.784 75.4375ZM269.469 63.3636V65.1392H262.402V63.3636H269.469ZM264.462 60.0966H266.557V73.0938C266.557 73.6856 266.643 74.1295 266.815 74.4254C266.992 74.7154 267.217 74.9107 267.489 75.0114C267.768 75.1061 268.06 75.1534 268.368 75.1534C268.599 75.1534 268.788 75.1416 268.936 75.1179C269.084 75.0883 269.203 75.0646 269.292 75.0469L269.718 76.929C269.576 76.9822 269.377 77.0355 269.123 77.0888C268.868 77.148 268.546 77.1776 268.155 77.1776C267.563 77.1776 266.983 77.0503 266.415 76.7958C265.853 76.5413 265.385 76.1536 265.012 75.6328C264.645 75.112 264.462 74.455 264.462 73.6619V60.0966ZM275.009 68.7969V77H272.914V58.8182H275.009V65.4943H275.186C275.506 64.79 275.985 64.2307 276.625 63.8164C277.27 63.3962 278.128 63.1861 279.199 63.1861C280.128 63.1861 280.942 63.3725 281.641 63.7454C282.339 64.1123 282.881 64.6776 283.265 65.4411C283.656 66.1986 283.851 67.1634 283.851 68.3352V77H281.756V68.4773C281.756 67.3942 281.475 66.5567 280.913 65.9648C280.356 65.3671 279.584 65.0682 278.596 65.0682C277.909 65.0682 277.293 65.2132 276.749 65.5032C276.21 65.7932 275.784 66.2164 275.471 66.7727C275.163 67.3291 275.009 68.0038 275.009 68.7969ZM293.402 77.2841C292.088 77.2841 290.954 76.9941 290.001 76.4141C289.054 75.8281 288.323 75.0114 287.809 73.9638C287.3 72.9103 287.045 71.6851 287.045 70.2884C287.045 68.8916 287.3 67.6605 287.809 66.5952C288.323 65.5239 289.04 64.6894 289.957 64.0916C290.88 63.4879 291.957 63.1861 293.188 63.1861C293.899 63.1861 294.6 63.3045 295.293 63.5412C295.985 63.7779 296.615 64.1626 297.184 64.6953C297.752 65.2221 298.204 65.9205 298.542 66.7905C298.879 67.6605 299.048 68.7318 299.048 70.0043V70.892H288.536V69.081H296.917C296.917 68.3116 296.763 67.625 296.456 67.0213C296.154 66.4176 295.722 65.9412 295.159 65.592C294.603 65.2428 293.946 65.0682 293.188 65.0682C292.354 65.0682 291.632 65.2753 291.022 65.6896C290.419 66.098 289.954 66.6307 289.628 67.2876C289.303 67.9446 289.14 68.6489 289.14 69.4006V70.608C289.14 71.6378 289.318 72.5108 289.673 73.2269C290.034 73.9371 290.534 74.4787 291.173 74.8516C291.812 75.2185 292.555 75.402 293.402 75.402C293.952 75.402 294.449 75.325 294.893 75.1712C295.343 75.0114 295.73 74.7746 296.056 74.4609C296.382 74.1413 296.633 73.7448 296.811 73.2713L298.835 73.8395C298.622 74.526 298.264 75.1297 297.761 75.6506C297.257 76.1655 296.636 76.5679 295.896 76.858C295.156 77.142 294.325 77.2841 293.402 77.2841ZM302.235 77V63.3636H304.259V65.4233H304.401C304.65 64.7486 305.1 64.2011 305.751 63.7809C306.402 63.3607 307.136 63.1506 307.952 63.1506C308.106 63.1506 308.299 63.1535 308.529 63.1594C308.76 63.1654 308.935 63.1742 309.053 63.1861V65.3168C308.982 65.299 308.819 65.2724 308.565 65.2369C308.316 65.1954 308.053 65.1747 307.775 65.1747C307.112 65.1747 306.52 65.3138 305.999 65.592C305.484 65.8642 305.076 66.243 304.774 66.7283C304.478 67.2077 304.33 67.7552 304.33 68.3707V77H302.235ZM321.196 66.4176L319.314 66.9503C319.195 66.6366 319.021 66.3318 318.79 66.0359C318.565 65.734 318.257 65.4854 317.867 65.2901C317.476 65.0948 316.976 64.9972 316.366 64.9972C315.532 64.9972 314.836 65.1895 314.28 65.5742C313.73 65.953 313.454 66.4354 313.454 67.0213C313.454 67.5421 313.644 67.9535 314.023 68.2553C314.401 68.5572 314.993 68.8087 315.798 69.0099L317.822 69.5071C319.041 69.803 319.95 70.2558 320.548 70.8654C321.146 71.4691 321.444 72.2474 321.444 73.2003C321.444 73.9815 321.22 74.6799 320.77 75.2955C320.326 75.911 319.704 76.3963 318.905 76.7514C318.106 77.1065 317.177 77.2841 316.118 77.2841C314.727 77.2841 313.576 76.9822 312.664 76.3786C311.753 75.7749 311.176 74.893 310.933 73.733L312.922 73.2358C313.111 73.9697 313.469 74.5201 313.996 74.8871C314.529 75.254 315.224 75.4375 316.082 75.4375C317.059 75.4375 317.834 75.2304 318.408 74.8161C318.988 74.3958 319.278 73.8928 319.278 73.3068C319.278 72.8333 319.113 72.4368 318.781 72.1172C318.45 71.7917 317.941 71.549 317.254 71.3892L314.981 70.8565C313.733 70.5606 312.815 70.1019 312.229 69.4805C311.649 68.8531 311.359 68.0689 311.359 67.1278C311.359 66.3584 311.575 65.6778 312.007 65.0859C312.445 64.4941 313.04 64.0295 313.792 63.6921C314.549 63.3548 315.407 63.1861 316.366 63.1861C317.716 63.1861 318.775 63.482 319.545 64.0739C320.32 64.6657 320.87 65.447 321.196 66.4176Z" fill="#DD00A9"/>
<path fill-rule="evenodd" clip-rule="evenodd" d="M366 19.6667C366 18.1939 367.194 17 368.667 17H385.333C386.806 17 388 18.1939 388 19.6667V25.6667C388 27.1394 386.806 28.3333 385.333 28.3333H368.667C367.194 28.3333 366 27.1394 366 25.6667V19.6667Z" stroke="#2F2E2E"/>
<path d="M389 20.667V24.667C389.805 24.3282 390.328 23.5401 390.328 22.667C390.328 21.7939 389.805 21.0058 389 20.667" stroke="#2F2E2E"/>
<path d="M368 20.3333C368 19.597 368.597 19 369.333 19H384.667C385.403 19 386 19.597 386 20.3333V25C386 25.7364 385.403 26.3333 384.667 26.3333H369.333C368.597 26.3333 368 25.7364 368 25V20.3333Z" stroke="#2F2E2E"/>
<path d="M337 24.6665H338C338.552 24.6665 339 25.1142 339 25.6665V27.6665C339 28.2188 338.552 28.6665 338 28.6665H337C336.448 28.6665 336 28.2188 336 27.6665V25.6665C336 25.1142 336.448 24.6665 337 24.6665Z" stroke="#2F2E2E"/>
<path d="M341.667 22.6665H342.667C343.219 22.6665 343.667 23.1142 343.667 23.6665V27.6665C343.667 28.2188 343.219 28.6665 342.667 28.6665H341.667C341.114 28.6665 340.667 28.2188 340.667 27.6665V23.6665C340.667 23.1142 341.114 22.6665 341.667 22.6665Z" stroke="#2F2E2E"/>
<path d="M346.333 20.3335H347.333C347.886 20.3335 348.333 20.7812 348.333 21.3335V27.6668C348.333 28.2191 347.886 28.6668 347.333 28.6668H346.333C345.781 28.6668 345.333 28.2191 345.333 27.6668V21.3335C345.333 20.7812 345.781 20.3335 346.333 20.3335Z" stroke="#2F2E2E"/>
<path d="M351 18H352C352.552 18 353 18.4477 353 19V27.6667C353 28.219 352.552 28.6667 352 28.6667H351C350.448 28.6667 350 28.219 350 27.6667V19C350 18.4477 350.448 18 351 18V18Z" stroke="#2F2E2E"/>
<path d="M52.3418 25.7628V24.6761L57.1359 17.0909H57.9242V18.7741H57.3916L53.7694 24.5057V24.5909H60.2254V25.7628H52.3418ZM57.4768 28V25.4325V24.9265V17.0909H58.7339V28H57.4768ZM63.159 26.6044C62.8963 26.6044 62.6708 26.5103 62.4826 26.3221C62.2943 26.1339 62.2002 25.9084 62.2002 25.6456C62.2002 25.3828 62.2943 25.1573 62.4826 24.9691C62.6708 24.7809 62.8963 24.6868 63.159 24.6868C63.4218 24.6868 63.6473 24.7809 63.8355 24.9691C64.0237 25.1573 64.1179 25.3828 64.1179 25.6456C64.1179 25.8196 64.0735 25.9794 63.9847 26.125C63.8995 26.2706 63.784 26.3878 63.6385 26.4766C63.4964 26.5618 63.3366 26.6044 63.159 26.6044ZM63.159 21.0859C62.8963 21.0859 62.6708 20.9918 62.4826 20.8036C62.2943 20.6154 62.2002 20.3899 62.2002 20.1271C62.2002 19.8643 62.2943 19.6388 62.4826 19.4506C62.6708 19.2624 62.8963 19.1683 63.159 19.1683C63.4218 19.1683 63.6473 19.2624 63.8355 19.4506C64.0237 19.6388 64.1179 19.8643 64.1179 20.1271C64.1179 20.3011 64.0735 20.4609 63.9847 20.6065C63.8995 20.7521 63.784 20.8693 63.6385 20.9581C63.4964 21.0433 63.3366 21.0859 63.159 21.0859ZM66.3524 28V27.0412L69.9533 23.0994C70.3758 22.6378 70.7239 22.2365 70.9973 21.8956C71.2707 21.5511 71.4731 21.228 71.6045 20.9261C71.7395 20.6207 71.807 20.3011 71.807 19.9673C71.807 19.5838 71.7146 19.2518 71.53 18.9712C71.3489 18.6907 71.1003 18.4741 70.7842 18.3214C70.4682 18.1687 70.1131 18.0923 69.7189 18.0923C69.2998 18.0923 68.9341 18.1793 68.6216 18.3533C68.3126 18.5238 68.0729 18.7635 67.9025 19.0724C67.7356 19.3814 67.6521 19.7436 67.6521 20.1591H66.395C66.395 19.5199 66.5424 18.9588 66.8371 18.4759C67.1319 17.9929 67.5332 17.6165 68.041 17.3466C68.5523 17.0767 69.1258 16.9418 69.7615 16.9418C70.4007 16.9418 70.9671 17.0767 71.4607 17.3466C71.9543 17.6165 72.3414 17.9805 72.6219 18.4386C72.9025 18.8967 73.0427 19.4062 73.0427 19.9673C73.0427 20.3686 72.9699 20.761 72.8244 21.1445C72.6823 21.5245 72.4337 21.9489 72.0786 22.4176C71.7271 22.8828 71.2388 23.451 70.6138 24.1222L68.1635 26.7429V26.8281H73.2345V28H66.3524ZM79.0566 28.1491C78.6092 28.142 78.1617 28.0568 77.7143 27.8935C77.2668 27.7301 76.8584 27.4549 76.4891 27.0678C76.1198 26.6772 75.8233 26.1499 75.5996 25.4858C75.3758 24.8182 75.264 23.9801 75.264 22.9716C75.264 22.0057 75.3545 21.1499 75.5356 20.4041C75.7168 19.6548 75.9795 19.0245 76.324 18.5131C76.6685 17.9982 77.0839 17.6076 77.5704 17.3413C78.0605 17.0749 78.6127 16.9418 79.2271 16.9418C79.8378 16.9418 80.3812 17.0643 80.857 17.3093C81.3364 17.5508 81.7271 17.8881 82.0289 18.3214C82.3307 18.7546 82.5261 19.2536 82.6148 19.8182H81.3151C81.1944 19.3281 80.96 18.9215 80.612 18.5984C80.264 18.2752 79.8023 18.1136 79.2271 18.1136C78.3819 18.1136 77.716 18.4812 77.2295 19.2163C76.7466 19.9513 76.5033 20.983 76.4998 22.3111H76.585C76.7839 22.0092 77.02 21.7518 77.2935 21.5387C77.5704 21.3221 77.8758 21.1552 78.2097 21.038C78.5435 20.9208 78.8968 20.8622 79.2697 20.8622C79.8947 20.8622 80.4664 21.0185 80.9849 21.331C81.5033 21.6399 81.9188 22.0678 82.2313 22.6147C82.5438 23.158 82.7001 23.7812 82.7001 24.4844C82.7001 25.1591 82.5491 25.777 82.2473 26.3381C81.9454 26.8956 81.5211 27.3395 80.9742 27.6697C80.4309 27.9964 79.7917 28.1562 79.0566 28.1491ZM79.0566 26.9773C79.504 26.9773 79.9053 26.8654 80.2604 26.6417C80.6191 26.418 80.9014 26.1179 81.1074 25.7415C81.3169 25.3651 81.4217 24.946 81.4217 24.4844C81.4217 24.0334 81.3204 23.6232 81.118 23.2539C80.9192 22.881 80.644 22.5845 80.2924 22.3643C79.9444 22.1442 79.5467 22.0341 79.0992 22.0341C78.7619 22.0341 78.4476 22.1016 78.1564 22.2365C77.8652 22.3679 77.6095 22.549 77.3893 22.7798C77.1727 23.0107 77.0023 23.2752 76.878 23.5735C76.7537 23.8683 76.6915 24.179 76.6915 24.5057C76.6915 24.9389 76.7927 25.3437 76.9952 25.7202C77.2011 26.0966 77.4817 26.4002 77.8368 26.631C78.1954 26.8619 78.6021 26.9773 79.0566 26.9773ZM84.9866 28V17.0909H88.6726C89.5285 17.0909 90.228 17.2454 90.7714 17.5543C91.3182 17.8597 91.7231 18.2734 91.9858 18.7955C92.2486 19.3175 92.38 19.8999 92.38 20.5426C92.38 21.1854 92.2486 21.7695 91.9858 22.2951C91.7266 22.8207 91.3253 23.2397 90.782 23.5522C90.2387 23.8612 89.5427 24.0156 88.6939 24.0156H86.0519V22.8438H88.6513C89.2373 22.8438 89.7078 22.7425 90.0629 22.5401C90.418 22.3377 90.6755 22.0643 90.8353 21.7198C90.9986 21.3718 91.0803 20.9794 91.0803 20.5426C91.0803 20.1058 90.9986 19.7152 90.8353 19.3707C90.6755 19.0263 90.4162 18.7564 90.0576 18.5611C89.6989 18.3622 89.2231 18.2628 88.63 18.2628H86.3076V28H84.9866ZM94.508 17.0909H96.0847L99.7921 26.1463H99.92L103.627 17.0909H105.204V28H103.968V19.7116H103.862L100.453 28H99.2595L95.8504 19.7116H95.7438V28H94.508V17.0909Z" fill="#2F2E2E"/>
<path d="M413.349 73.4242C413.349 78.9052 408.905 83.3485 403.424 83.3485C397.943 83.3485 393.5 78.9052 393.5 73.4242C393.5 67.9432 397.943 63.5 403.424 63.5C408.905 63.5 413.349 67.9432 413.349 73.4242Z" fill="white" stroke="#2F2E2E"/>
<path d="M416.101 86.808C416.296 87.0033 416.613 87.0033 416.808 86.808C417.003 86.6127 417.003 86.2962 416.808 86.1009L416.101 86.808ZM416.808 86.1009L410.944 80.2373L410.237 80.9444L416.101 86.808L416.808 86.1009Z" fill="#2F2E2E"/>
<circle cx="214" cy="324" r="99.5" fill="#F9F9F9" stroke="#2F2E2E"/>
<path d="M22 65H46" stroke="#2F2E2E" stroke-width="4" stroke-linecap="round"/>
<path d="M22 77H46" stroke="#2F2E2E" stroke-width="4" stroke-linecap="round"/>
<path d="M22 89H46" stroke="#2F2E2E" stroke-width="4" stroke-linecap="round"/>
<g clip-path="url(#clip3_1520_8806)" filter="url(#filter0_i_1520_8806)">
<rect width="440" height="56" transform="translate(0 900)" fill="#F9F9F9"/>
<g filter="url(#filter1_d_1520_8806)">
<path d="M48 941.334V928H56V941.334M40 924L52 914.667L64 924V938.667C64 939.374 63.719 940.053 63.219 940.553C62.7189 941.053 62.0406 941.334 61.3333 941.334H42.6667C41.9594 941.334 41.2811 941.053 40.781 940.553C40.281 940.053 40 939.374 40 938.667V924Z" stroke="#2F2E2E" stroke-width="3" stroke-linecap="round" stroke-linejoin="round"/>
</g>
<g filter="url(#filter2_d_1520_8806)">
<path d="M48 941.334V928H56V941.334M40 924L52 914.667L64 924V938.667C64 939.374 63.719 940.053 63.219 940.553C62.7189 941.053 62.0406 941.334 61.3333 941.334H42.6667C41.9594 941.334 41.2811 941.053 40.781 940.553C40.281 940.053 40 939.374 40 938.667V924Z" stroke="#2F2E2E" stroke-width="3" stroke-linecap="round" stroke-linejoin="round"/>
</g>
<g filter="url(#filter3_d_1520_8806)">
<path d="M163.252 912V944" stroke="#2F2E2E" stroke-width="13.9"/>
<path d="M180 928.299L148 928.299" stroke="#2F2E2E" stroke-width="13.9"/>
</g>
<g filter="url(#filter4_d_1520_8806)">
<path d="M266.537 940.702C269.794 940.601 275.661 939.882 278.289 937.808C280.186 936.311 282.455 934.629 284.655 933.637" stroke="#2F2E2E" stroke-width="3" stroke-linecap="round"/>
<path d="M275.351 934.52C280.291 933.883 287.27 930.245 289.552 926.13" stroke="#2F2E2E" stroke-width="3" stroke-linecap="round"/>
<path d="M282.207 927.455C285.292 924.926 292 923.863 292 919.507" stroke="#2F2E2E" stroke-width="3" stroke-linecap="round"/>
<path d="M286.124 919.507C286.904 919.419 286.949 916.047 287.13 915.312C287.472 913.925 289.491 912.993 290.041 912" stroke="#2F2E2E" stroke-width="3" stroke-linecap="round"/>
<path d="M261.641 936.728C261.208 933.218 260.395 929.26 262.13 926.13" stroke="#2F2E2E" stroke-width="3" stroke-linecap="round"/>
<path d="M266.048 930.546C267.887 928.68 268.194 925.7 269.475 923.677C270.358 922.284 270.693 920.283 272.413 919.507" stroke="#2F2E2E" stroke-width="3" stroke-linecap="round"/>
<path d="M274.372 922.598C274.372 921.389 275.88 918.248 276.929 917.397C278.765 915.907 280.262 915.974 282.696 915.974" stroke="#2F2E2E" stroke-width="3" stroke-linecap="round"/>
<path d="M283.061 920.583L260 944" stroke="#2F2E2E" stroke-width="3" stroke-linecap="round"/>
</g>
<g filter="url(#filter5_d_1520_8806)">
<circle cx="388" cy="928" r="14.5" fill="#FAF8FA" stroke="#2F2E2E" stroke-width="3"/>
<path d="M388.533 922.347V933.76" stroke="#2F2E2E" stroke-width="3"/>
<path d="M394.507 928.16L383.093 928.16" stroke="#2F2E2E" stroke-width="3"/>
</g>
</g>
</g>
<defs>
<filter id="filter0_i_1520_8806" x="0" y="900" width="440" height="60" filterUnits="userSpaceOnUse" color-interpolation-filters="sRGB">
<feFlood flood-opacity="0" result="BackgroundImageFix"/>
<feBlend mode="normal" in="SourceGraphic" in2="BackgroundImageFix" result="shape"/>
<feColorMatrix in="SourceAlpha" type="matrix" values="0 0 0 0 0 0 0 0 0 0 0 0 0 0 0 0 0 0 127 0" result="hardAlpha"/>
<feOffset dy="5"/>
<feGaussianBlur stdDeviation="2"/>
<feComposite in2="hardAlpha" operator="arithmetic" k2="-1" k3="1"/>
<feColorMatrix type="matrix" values="0 0 0 0 0.770833 0 0 0 0 0.631441 0 0 0 0 0.722046 0 0 0 0.5 0"/>
<feBlend mode="normal" in2="shape" result="effect1_innerShadow_1520_8806"/>
</filter>
<filter id="filter1_d_1520_8806" x="31" y="912" width="42" height="44" filterUnits="userSpaceOnUse" color-interpolation-filters="sRGB">
<feFlood flood-opacity="0" result="BackgroundImageFix"/>
<feColorMatrix in="SourceAlpha" type="matrix" values="0 0 0 0 0 0 0 0 0 0 0 0 0 0 0 0 0 0 127 0" result="hardAlpha"/>
<feOffset dy="7"/>
<feGaussianBlur stdDeviation="2.5"/>
<feComposite in2="hardAlpha" operator="out"/>
<feColorMatrix type="matrix" values="0 0 0 0 0.770833 0 0 0 0 0.631441 0 0 0 0 0.722046 0 0 0 1 0"/>
<feBlend mode="normal" in2="BackgroundImageFix" result="effect1_dropShadow_1520_8806"/>
<feBlend mode="normal" in="SourceGraphic" in2="effect1_dropShadow_1520_8806" result="shape"/>
</filter>
<filter id="filter2_d_1520_8806" x="31" y="912" width="42" height="44" filterUnits="userSpaceOnUse" color-interpolation-filters="sRGB">
<feFlood flood-opacity="0" result="BackgroundImageFix"/>
<feColorMatrix in="SourceAlpha" type="matrix" values="0 0 0 0 0 0 0 0 0 0 0 0 0 0 0 0 0 0 127 0" result="hardAlpha"/>
<feOffset dy="7"/>
<feGaussianBlur stdDeviation="2.5"/>
<feComposite in2="hardAlpha" operator="out"/>
<feColorMatrix type="matrix" values="0 0 0 0 0.770833 0 0 0 0 0.631441 0 0 0 0 0.722046 0 0 0 1 0"/>
<feBlend mode="normal" in2="BackgroundImageFix" result="effect1_dropShadow_1520_8806"/>
<feBlend mode="normal" in="SourceGraphic" in2="effect1_dropShadow_1520_8806" result="shape"/>
</filter>
<filter id="filter3_d_1520_8806" x="143" y="912" width="42" height="44" filterUnits="userSpaceOnUse" color-interpolation-filters="sRGB">
<feFlood flood-opacity="0" result="BackgroundImageFix"/>
<feColorMatrix in="SourceAlpha" type="matrix" values="0 0 0 0 0 0 0 0 0 0 0 0 0 0 0 0 0 0 127 0" result="hardAlpha"/>
<feOffset dy="7"/>
<feGaussianBlur stdDeviation="2.5"/>
<feComposite in2="hardAlpha" operator="out"/>
<feColorMatrix type="matrix" values="0 0 0 0 0.770833 0 0 0 0 0.631441 0 0 0 0 0.722046 0 0 0 1 0"/>
<feBlend mode="normal" in2="BackgroundImageFix" result="effect1_dropShadow_1520_8806"/>
<feBlend mode="normal" in="SourceGraphic" in2="effect1_dropShadow_1520_8806" result="shape"/>
</filter>
<filter id="filter4_d_1520_8806" x="253.425" y="910.5" width="45.0745" height="46.9224" filterUnits="userSpaceOnUse" color-interpolation-filters="sRGB">
<feFlood flood-opacity="0" result="BackgroundImageFix"/>
<feColorMatrix in="SourceAlpha" type="matrix" values="0 0 0 0 0 0 0 0 0 0 0 0 0 0 0 0 0 0 127 0" result="hardAlpha"/>
<feOffset dy="7"/>
<feGaussianBlur stdDeviation="2.5"/>
<feComposite in2="hardAlpha" operator="out"/>
<feColorMatrix type="matrix" values="0 0 0 0 0.770833 0 0 0 0 0.631441 0 0 0 0 0.722046 0 0 0 1 0"/>
<feBlend mode="normal" in2="BackgroundImageFix" result="effect1_dropShadow_1520_8806"/>
<feBlend mode="normal" in="SourceGraphic" in2="effect1_dropShadow_1520_8806" result="shape"/>
</filter>
<filter id="filter5_d_1520_8806" x="367" y="912" width="42" height="44" filterUnits="userSpaceOnUse" color-interpolation-filters="sRGB">
<feFlood flood-opacity="0" result="BackgroundImageFix"/>
<feColorMatrix in="SourceAlpha" type="matrix" values="0 0 0 0 0 0 0 0 0 0 0 0 0 0 0 0 0 0 127 0" result="hardAlpha"/>
<feOffset dy="7"/>
<feGaussianBlur stdDeviation="2.5"/>
<feComposite in2="hardAlpha" operator="out"/>
<feColorMatrix type="matrix" values="0 0 0 0 0.770833 0 0 0 0 0.631441 0 0 0 0 0.722046 0 0 0 1 0"/>
<feBlend mode="normal" in2="BackgroundImageFix" result="effect1_dropShadow_1520_8806"/>
<feBlend mode="normal" in="SourceGraphic" in2="effect1_dropShadow_1520_8806" result="shape"/>
</filter>
<clipPath id="clip0_1520_8806">
<rect width="440" height="959" fill="white"/>
</clipPath>
<clipPath id="clip1_1520_8806">
<rect width="410" height="59" fill="white" transform="translate(15 479)"/>
</clipPath>
<clipPath id="clip2_1520_8806">
<rect width="81" height="26" fill="white" transform="translate(25.5 627)"/>
</clipPath>
<clipPath id="clip3_1520_8806">
<rect width="440" height="56" fill="white" transform="translate(0 900)"/>
</clipPath>
</defs>
</svg>
