<svg width="440" height="956" viewBox="0 0 440 956" fill="none" xmlns="http://www.w3.org/2000/svg">
<g clip-path="url(#clip0_1516_13092)">
<rect width="440" height="956" fill="white"/>
<rect x="0.5" y="0.5" width="439" height="955" fill="white" stroke="#2F2E2E"/>
<path d="M7 192C7 189.239 9.23858 187 12 187H136C138.761 187 141 189.239 141 192V316C141 318.761 138.761 321 136 321H12C9.23858 321 7 318.761 7 316V192Z" fill="#B3B3B3"/>
<path d="M153 192C153 189.239 155.239 187 158 187H282C284.761 187 287 189.239 287 192V316C287 318.761 284.761 321 282 321H158C155.239 321 153 318.761 153 316V192Z" fill="#B3B3B3"/>
<path d="M299 192C299 189.239 301.239 187 304 187H428C430.761 187 433 189.239 433 192V316C433 318.761 430.761 321 428 321H304C301.239 321 299 318.761 299 316V192Z" fill="#B3B3B3"/>
<path d="M7 389C7 386.239 9.23858 384 12 384H136C138.761 384 141 386.239 141 389V513C141 515.761 138.761 518 136 518H12C9.23858 518 7 515.761 7 513V389Z" fill="#B3B3B3"/>
<path d="M153 389C153 386.239 155.239 384 158 384H282C284.761 384 287 386.239 287 389V513C287 515.761 284.761 518 282 518H158C155.239 518 153 515.761 153 513V389Z" fill="#B3B3B3"/>
<path d="M299 389C299 386.239 301.239 384 304 384H428C430.761 384 433 386.239 433 389V513C433 515.761 430.761 518 428 518H304C301.239 518 299 515.761 299 513V389Z" fill="#B3B3B3"/>
<path d="M7 783C7 780.239 9.23858 778 12 778H136C138.761 778 141 780.239 141 783V907C141 909.761 138.761 912 136 912H12C9.23858 912 7 909.761 7 907V783Z" fill="#B3B3B3"/>
<path d="M153 783C153 780.239 155.239 778 158 778H282C284.761 778 287 780.239 287 783V907C287 909.761 284.761 912 282 912H158C155.239 912 153 909.761 153 907V783Z" fill="#B3B3B3"/>
<path d="M299 783C299 780.239 301.239 778 304 778H428C430.761 778 433 780.239 433 783V907C433 909.761 430.761 912 428 912H304C301.239 912 299 909.761 299 907V783Z" fill="#B3B3B3"/>
<path d="M7 586C7 583.239 9.23858 581 12 581H136C138.761 581 141 583.239 141 586V710C141 712.761 138.761 715 136 715H12C9.23858 715 7 712.761 7 710V586Z" fill="#B3B3B3"/>
<path d="M153 586C153 583.239 155.239 581 158 581H282C284.761 581 287 583.239 287 586V710C287 712.761 284.761 715 282 715H158C155.239 715 153 712.761 153 710V586Z" fill="#B3B3B3"/>
<path d="M299 586C299 583.239 301.239 581 304 581H428C430.761 581 433 583.239 433 586V710C433 712.761 430.761 715 428 715H304C301.239 715 299 712.761 299 710V586Z" fill="#B3B3B3"/>
<path d="M127.202 73.7236V55.5418H138.104V57.4949H129.403V63.6384H137.287V65.5915H129.403V73.7236H127.202ZM141.444 73.7236V60.0873H143.468V62.1469H143.61C143.859 61.4722 144.309 60.9247 144.96 60.5045C145.611 60.0843 146.345 59.8742 147.161 59.8742C147.315 59.8742 147.508 59.8772 147.738 59.8831C147.969 59.889 148.144 59.8979 148.262 59.9097V62.0404C148.191 62.0226 148.028 61.996 147.774 61.9605C147.525 61.9191 147.262 61.8983 146.984 61.8983C146.321 61.8983 145.729 62.0374 145.208 62.3156C144.693 62.5879 144.285 62.9666 143.983 63.452C143.687 63.9314 143.539 64.4788 143.539 65.0944V73.7236H141.444ZM150.746 73.7236V60.0873H152.841V73.7236H150.746ZM151.811 57.8145C151.403 57.8145 151.051 57.6755 150.755 57.3973C150.465 57.1191 150.32 56.7847 150.32 56.3941C150.32 56.0035 150.465 55.6691 150.755 55.3909C151.051 55.1127 151.403 54.9736 151.811 54.9736C152.219 54.9736 152.569 55.1127 152.859 55.3909C153.155 55.6691 153.303 56.0035 153.303 56.3941C153.303 56.7847 153.155 57.1191 152.859 57.3973C152.569 57.6755 152.219 57.8145 151.811 57.8145ZM162.396 74.0077C161.082 74.0077 159.948 73.7177 158.995 73.1377C158.049 72.5518 157.318 71.735 156.803 70.6874C156.294 69.6339 156.039 68.4088 156.039 67.012C156.039 65.6152 156.294 64.3841 156.803 63.3188C157.318 62.2475 158.034 61.413 158.951 60.8153C159.874 60.2116 160.952 59.9097 162.183 59.9097C162.893 59.9097 163.594 60.0281 164.287 60.2648C164.979 60.5016 165.609 60.8863 166.178 61.4189C166.746 61.9457 167.199 62.6441 167.536 63.5141C167.873 64.3841 168.042 65.4554 168.042 66.7279V67.6157H157.531V65.8046H165.911C165.911 65.0352 165.757 64.3486 165.45 63.7449C165.148 63.1412 164.716 62.6648 164.153 62.3156C163.597 61.9664 162.94 61.7918 162.183 61.7918C161.348 61.7918 160.626 61.999 160.016 62.4133C159.413 62.8216 158.948 63.3543 158.623 64.0113C158.297 64.6682 158.134 65.3725 158.134 66.1242V67.3316C158.134 68.3614 158.312 69.2344 158.667 69.9506C159.028 70.6608 159.528 71.2023 160.167 71.5752C160.807 71.9421 161.549 72.1256 162.396 72.1256C162.946 72.1256 163.443 72.0487 163.887 71.8948C164.337 71.735 164.725 71.4983 165.05 71.1846C165.376 70.865 165.627 70.4684 165.805 69.9949L167.829 70.5631C167.616 71.2497 167.258 71.8534 166.755 72.3742C166.252 72.8891 165.63 73.2916 164.89 73.5816C164.151 73.8657 163.319 74.0077 162.396 74.0077ZM173.324 65.5205V73.7236H171.229V60.0873H173.253V62.218H173.431C173.75 61.5255 174.236 60.9691 174.887 60.5489C175.538 60.1228 176.378 59.9097 177.408 59.9097C178.331 59.9097 179.139 60.0991 179.832 60.4779C180.524 60.8508 181.063 61.4189 181.448 62.1824C181.832 62.94 182.025 63.8988 182.025 65.0589V73.7236H179.929V65.2009C179.929 64.1296 179.651 63.2951 179.095 62.6974C178.539 62.0937 177.775 61.7918 176.804 61.7918C176.136 61.7918 175.538 61.9368 175.011 62.2268C174.49 62.5168 174.079 62.94 173.777 63.4964C173.475 64.0527 173.324 64.7274 173.324 65.5205ZM191.002 74.0077C189.866 74.0077 188.863 73.7207 187.993 73.1466C187.123 72.5666 186.442 71.7498 185.951 70.6963C185.46 69.6369 185.214 68.3851 185.214 66.941C185.214 65.5087 185.46 64.2658 185.951 63.2123C186.442 62.1588 187.126 61.345 188.002 60.7709C188.878 60.1968 189.89 59.9097 191.038 59.9097C191.926 59.9097 192.627 60.0577 193.142 60.3536C193.663 60.6436 194.059 60.9751 194.331 61.3479C194.61 61.7149 194.826 62.0167 194.98 62.2535H195.157V55.5418H197.252V73.7236H195.228V71.6285H194.98C194.826 71.877 194.607 72.1907 194.323 72.5695C194.039 72.9424 193.633 73.2768 193.106 73.5727C192.58 73.8627 191.878 74.0077 191.002 74.0077ZM191.286 72.1256C192.127 72.1256 192.837 71.9066 193.417 71.4687C193.997 71.0248 194.438 70.4122 194.74 69.6309C195.042 68.8438 195.193 67.9353 195.193 66.9055C195.193 65.8875 195.045 64.9967 194.749 64.2332C194.453 63.4638 194.015 62.866 193.435 62.4399C192.855 62.0078 192.139 61.7918 191.286 61.7918C190.399 61.7918 189.659 62.0197 189.067 62.4754C188.481 62.9252 188.04 63.5378 187.744 64.3131C187.454 65.0825 187.309 65.9466 187.309 66.9055C187.309 67.8761 187.457 68.758 187.753 69.551C188.055 70.3382 188.499 70.9656 189.085 71.4331C189.677 71.8948 190.41 72.1256 191.286 72.1256ZM203.476 55.5418V73.7236H201.381V55.5418H203.476ZM208.663 78.8373C208.307 78.8373 207.991 78.8077 207.713 78.7485C207.434 78.6952 207.242 78.642 207.136 78.5887L207.668 76.7421C208.177 76.8723 208.627 76.9197 209.018 76.8841C209.408 76.8486 209.755 76.674 210.056 76.3604C210.364 76.0526 210.645 75.5525 210.9 74.86L211.29 73.7947L206.248 60.0873H208.521L212.285 70.9537H212.427L216.191 60.0873H218.464L212.675 75.7123C212.415 76.4166 212.092 76.9996 211.708 77.4612C211.323 77.9288 210.876 78.275 210.367 78.4999C209.864 78.7248 209.296 78.8373 208.663 78.8373ZM221.513 73.7236V55.5418H232.415V57.4949H223.715V63.6384H231.598V65.5915H223.715V73.7236H221.513ZM240.618 74.0077C239.304 74.0077 238.171 73.7177 237.218 73.1377C236.271 72.5518 235.54 71.735 235.025 70.6874C234.516 69.6339 234.262 68.4088 234.262 67.012C234.262 65.6152 234.516 64.3841 235.025 63.3188C235.54 62.2475 236.256 61.413 237.174 60.8153C238.097 60.2116 239.174 59.9097 240.405 59.9097C241.116 59.9097 241.817 60.0281 242.509 60.2648C243.202 60.5016 243.832 60.8863 244.4 61.4189C244.968 61.9457 245.421 62.6441 245.759 63.5141C246.096 64.3841 246.265 65.4554 246.265 66.7279V67.6157H235.753V65.8046H244.134C244.134 65.0352 243.98 64.3486 243.672 63.7449C243.37 63.1412 242.938 62.6648 242.376 62.3156C241.82 61.9664 241.163 61.7918 240.405 61.7918C239.571 61.7918 238.849 61.999 238.239 62.4133C237.635 62.8216 237.171 63.3543 236.845 64.0113C236.52 64.6682 236.357 65.3725 236.357 66.1242V67.3316C236.357 68.3614 236.535 69.2344 236.89 69.9506C237.251 70.6608 237.751 71.2023 238.39 71.5752C239.029 71.9421 239.772 72.1256 240.618 72.1256C241.169 72.1256 241.666 72.0487 242.11 71.8948C242.56 71.735 242.947 71.4983 243.273 71.1846C243.598 70.865 243.85 70.4684 244.027 69.9949L246.052 70.5631C245.839 71.2497 245.48 71.8534 244.977 72.3742C244.474 72.8891 243.853 73.2916 243.113 73.5816C242.373 73.8657 241.542 74.0077 240.618 74.0077ZM253.465 74.0432C252.6 74.0432 251.816 73.8805 251.112 73.555C250.408 73.2235 249.848 72.7471 249.434 72.1256C249.02 71.4983 248.813 70.7407 248.813 69.8529C248.813 69.0716 248.966 68.4384 249.274 67.953C249.582 67.4618 249.993 67.0771 250.508 66.7989C251.023 66.5207 251.591 66.3136 252.213 66.1775C252.84 66.0354 253.47 65.923 254.104 65.8401C254.932 65.7336 255.604 65.6537 256.119 65.6004C256.64 65.5412 257.019 65.4436 257.255 65.3074C257.498 65.1713 257.619 64.9346 257.619 64.5972V64.5262C257.619 63.6502 257.38 62.9696 256.9 62.4843C256.427 61.999 255.708 61.7563 254.743 61.7563C253.743 61.7563 252.959 61.9753 252.39 62.4133C251.822 62.8512 251.423 63.3188 251.192 63.816L249.203 63.1057C249.558 62.2771 250.032 61.632 250.624 61.1704C251.221 60.7028 251.872 60.3773 252.577 60.1938C253.287 60.0044 253.985 59.9097 254.672 59.9097C255.11 59.9097 255.613 59.963 256.181 60.0695C256.755 60.1701 257.309 60.3802 257.841 60.6998C258.38 61.0194 258.827 61.5018 259.182 62.1469C259.537 62.7921 259.715 63.6562 259.715 64.7393V73.7236H257.619V71.877H257.513C257.371 72.173 257.134 72.4896 256.803 72.827C256.471 73.1643 256.03 73.4514 255.48 73.6881C254.929 73.9249 254.258 74.0432 253.465 74.0432ZM253.784 72.1611C254.613 72.1611 255.311 71.9984 255.879 71.6729C256.453 71.3473 256.886 70.9271 257.176 70.4122C257.471 69.8973 257.619 69.3557 257.619 68.7876V66.8699C257.531 66.9765 257.335 67.0741 257.033 67.1629C256.738 67.2458 256.394 67.3197 256.004 67.3849C255.619 67.444 255.243 67.4973 254.876 67.5447C254.515 67.5861 254.222 67.6216 253.997 67.6512C253.453 67.7222 252.944 67.8376 252.47 67.9974C252.003 68.1513 251.624 68.3851 251.334 68.6988C251.05 69.0065 250.908 69.4268 250.908 69.9594C250.908 70.6874 251.177 71.2378 251.716 71.6107C252.26 71.9777 252.95 72.1611 253.784 72.1611ZM269.469 60.0873V61.8628H262.402V60.0873H269.469ZM264.462 56.8202H266.557V69.8174C266.557 70.4092 266.643 70.8531 266.815 71.1491C266.992 71.4391 267.217 71.6344 267.489 71.735C267.768 71.8297 268.06 71.877 268.368 71.877C268.599 71.877 268.788 71.8652 268.936 71.8415C269.084 71.8119 269.203 71.7883 269.292 71.7705L269.718 73.6526C269.576 73.7059 269.377 73.7591 269.123 73.8124C268.868 73.8716 268.546 73.9012 268.155 73.9012C267.563 73.9012 266.983 73.7739 266.415 73.5194C265.853 73.2649 265.385 72.8773 265.012 72.3564C264.645 71.8356 264.462 71.1787 264.462 70.3856V56.8202ZM275.009 65.5205V73.7236H272.914V55.5418H275.009V62.218H275.186C275.506 61.5136 275.985 60.9543 276.625 60.54C277.27 60.1198 278.128 59.9097 279.199 59.9097C280.128 59.9097 280.942 60.0961 281.641 60.469C282.339 60.836 282.881 61.4012 283.265 62.1647C283.656 62.9223 283.851 63.887 283.851 65.0589V73.7236H281.756V65.2009C281.756 64.1178 281.475 63.2803 280.913 62.6885C280.356 62.0907 279.584 61.7918 278.596 61.7918C277.909 61.7918 277.293 61.9368 276.749 62.2268C276.21 62.5168 275.784 62.94 275.471 63.4964C275.163 64.0527 275.009 64.7274 275.009 65.5205ZM293.402 74.0077C292.088 74.0077 290.954 73.7177 290.001 73.1377C289.054 72.5518 288.323 71.735 287.809 70.6874C287.3 69.6339 287.045 68.4088 287.045 67.012C287.045 65.6152 287.3 64.3841 287.809 63.3188C288.323 62.2475 289.04 61.413 289.957 60.8153C290.88 60.2116 291.957 59.9097 293.188 59.9097C293.899 59.9097 294.6 60.0281 295.293 60.2648C295.985 60.5016 296.615 60.8863 297.184 61.4189C297.752 61.9457 298.204 62.6441 298.542 63.5141C298.879 64.3841 299.048 65.4554 299.048 66.7279V67.6157H288.536V65.8046H296.917C296.917 65.0352 296.763 64.3486 296.456 63.7449C296.154 63.1412 295.722 62.6648 295.159 62.3156C294.603 61.9664 293.946 61.7918 293.188 61.7918C292.354 61.7918 291.632 61.999 291.022 62.4133C290.419 62.8216 289.954 63.3543 289.628 64.0113C289.303 64.6682 289.14 65.3725 289.14 66.1242V67.3316C289.14 68.3614 289.318 69.2344 289.673 69.9506C290.034 70.6608 290.534 71.2023 291.173 71.5752C291.812 71.9421 292.555 72.1256 293.402 72.1256C293.952 72.1256 294.449 72.0487 294.893 71.8948C295.343 71.735 295.73 71.4983 296.056 71.1846C296.382 70.865 296.633 70.4684 296.811 69.9949L298.835 70.5631C298.622 71.2497 298.264 71.8534 297.761 72.3742C297.257 72.8891 296.636 73.2916 295.896 73.5816C295.156 73.8657 294.325 74.0077 293.402 74.0077ZM302.235 73.7236V60.0873H304.259V62.1469H304.401C304.65 61.4722 305.1 60.9247 305.751 60.5045C306.402 60.0843 307.136 59.8742 307.952 59.8742C308.106 59.8742 308.299 59.8772 308.529 59.8831C308.76 59.889 308.935 59.8979 309.053 59.9097V62.0404C308.982 62.0226 308.819 61.996 308.565 61.9605C308.316 61.9191 308.053 61.8983 307.775 61.8983C307.112 61.8983 306.52 62.0374 305.999 62.3156C305.484 62.5879 305.076 62.9666 304.774 63.452C304.478 63.9314 304.33 64.4788 304.33 65.0944V73.7236H302.235ZM321.196 63.1412L319.314 63.6739C319.195 63.3602 319.021 63.0554 318.79 62.7595C318.565 62.4577 318.257 62.2091 317.867 62.0138C317.476 61.8184 316.976 61.7208 316.366 61.7208C315.532 61.7208 314.836 61.9131 314.28 62.2979C313.73 62.6766 313.454 63.159 313.454 63.7449C313.454 64.2658 313.644 64.6771 314.023 64.979C314.401 65.2808 314.993 65.5323 315.798 65.7336L317.822 66.2307C319.041 66.5267 319.95 66.9794 320.548 67.589C321.146 68.1927 321.444 68.971 321.444 69.9239C321.444 70.7052 321.22 71.4036 320.77 72.0191C320.326 72.6346 319.704 73.1199 318.905 73.4751C318.106 73.8302 317.177 74.0077 316.118 74.0077C314.727 74.0077 313.576 73.7059 312.664 73.1022C311.753 72.4985 311.176 71.6166 310.933 70.4566L312.922 69.9594C313.111 70.6933 313.469 71.2438 313.996 71.6107C314.529 71.9777 315.224 72.1611 316.082 72.1611C317.059 72.1611 317.834 71.954 318.408 71.5397C318.988 71.1195 319.278 70.6164 319.278 70.0305C319.278 69.557 319.113 69.1604 318.781 68.8408C318.45 68.5153 317.941 68.2726 317.254 68.1128L314.981 67.5802C313.733 67.2842 312.815 66.8256 312.229 66.2041C311.649 65.5767 311.359 64.7925 311.359 63.8515C311.359 63.0821 311.575 62.4014 312.007 61.8096C312.445 61.2177 313.04 60.7531 313.792 60.4157C314.549 60.0784 315.407 59.9097 316.366 59.9097C317.716 59.9097 318.775 60.2056 319.545 60.7975C320.32 61.3894 320.87 62.1706 321.196 63.1412Z" fill="#DD00A9"/>
<path fill-rule="evenodd" clip-rule="evenodd" d="M366 31.6667C366 30.1939 367.194 29 368.667 29H385.333C386.806 29 388 30.1939 388 31.6667V37.6667C388 39.1394 386.806 40.3333 385.333 40.3333H368.667C367.194 40.3333 366 39.1394 366 37.6667V31.6667Z" stroke="#2F2E2E"/>
<path d="M389 32.667V36.667C389.805 36.3282 390.328 35.5401 390.328 34.667C390.328 33.7939 389.805 33.0058 389 32.667" stroke="#2F2E2E"/>
<path d="M368 32.3333C368 31.597 368.597 31 369.333 31H384.667C385.403 31 386 31.597 386 32.3333V37C386 37.7364 385.403 38.3333 384.667 38.3333H369.333C368.597 38.3333 368 37.7364 368 37V32.3333Z" stroke="#2F2E2E"/>
<path d="M337 36.6665H338C338.552 36.6665 339 37.1142 339 37.6665V39.6665C339 40.2188 338.552 40.6665 338 40.6665H337C336.448 40.6665 336 40.2188 336 39.6665V37.6665C336 37.1142 336.448 36.6665 337 36.6665Z" stroke="#2F2E2E"/>
<path d="M341.667 34.6665H342.667C343.219 34.6665 343.667 35.1142 343.667 35.6665V39.6665C343.667 40.2188 343.219 40.6665 342.667 40.6665H341.667C341.115 40.6665 340.667 40.2188 340.667 39.6665V35.6665C340.667 35.1142 341.115 34.6665 341.667 34.6665Z" stroke="#2F2E2E"/>
<path d="M346.333 32.3335H347.333C347.885 32.3335 348.333 32.7812 348.333 33.3335V39.6668C348.333 40.2191 347.885 40.6668 347.333 40.6668H346.333C345.781 40.6668 345.333 40.2191 345.333 39.6668V33.3335C345.333 32.7812 345.781 32.3335 346.333 32.3335Z" stroke="#2F2E2E"/>
<path d="M351 30H352C352.552 30 353 30.4477 353 31V39.6667C353 40.219 352.552 40.6667 352 40.6667H351C350.448 40.6667 350 40.219 350 39.6667V31C350 30.4477 350.448 30 351 30V30Z" stroke="#2F2E2E"/>
<path d="M52.3418 37.7628V36.6761L57.1359 29.0909H57.9242V30.7741H57.3916L53.7694 36.5057V36.5909H60.2254V37.7628H52.3418ZM57.4768 40V37.4325V36.9265V29.0909H58.7339V40H57.4768ZM63.159 38.6044C62.8963 38.6044 62.6708 38.5103 62.4826 38.3221C62.2943 38.1339 62.2002 37.9084 62.2002 37.6456C62.2002 37.3828 62.2943 37.1573 62.4826 36.9691C62.6708 36.7809 62.8963 36.6868 63.159 36.6868C63.4218 36.6868 63.6473 36.7809 63.8355 36.9691C64.0237 37.1573 64.1179 37.3828 64.1179 37.6456C64.1179 37.8196 64.0735 37.9794 63.9847 38.125C63.8995 38.2706 63.784 38.3878 63.6385 38.4766C63.4964 38.5618 63.3366 38.6044 63.159 38.6044ZM63.159 33.0859C62.8963 33.0859 62.6708 32.9918 62.4826 32.8036C62.2943 32.6154 62.2002 32.3899 62.2002 32.1271C62.2002 31.8643 62.2943 31.6388 62.4826 31.4506C62.6708 31.2624 62.8963 31.1683 63.159 31.1683C63.4218 31.1683 63.6473 31.2624 63.8355 31.4506C64.0237 31.6388 64.1179 31.8643 64.1179 32.1271C64.1179 32.3011 64.0735 32.4609 63.9847 32.6065C63.8995 32.7521 63.784 32.8693 63.6385 32.9581C63.4964 33.0433 63.3366 33.0859 63.159 33.0859ZM66.3524 40V39.0412L69.9533 35.0994C70.3758 34.6378 70.7239 34.2365 70.9973 33.8956C71.2707 33.5511 71.4731 33.228 71.6045 32.9261C71.7395 32.6207 71.807 32.3011 71.807 31.9673C71.807 31.5838 71.7146 31.2518 71.53 30.9712C71.3489 30.6907 71.1003 30.4741 70.7842 30.3214C70.4682 30.1687 70.1131 30.0923 69.7189 30.0923C69.2998 30.0923 68.9341 30.1793 68.6216 30.3533C68.3126 30.5238 68.0729 30.7635 67.9025 31.0724C67.7356 31.3814 67.6521 31.7436 67.6521 32.1591H66.395C66.395 31.5199 66.5424 30.9588 66.8371 30.4759C67.1319 29.9929 67.5332 29.6165 68.041 29.3466C68.5523 29.0767 69.1258 28.9418 69.7615 28.9418C70.4007 28.9418 70.9671 29.0767 71.4607 29.3466C71.9543 29.6165 72.3414 29.9805 72.6219 30.4386C72.9025 30.8967 73.0427 31.4062 73.0427 31.9673C73.0427 32.3686 72.9699 32.761 72.8244 33.1445C72.6823 33.5245 72.4337 33.9489 72.0786 34.4176C71.7271 34.8828 71.2388 35.451 70.6138 36.1222L68.1635 38.7429V38.8281H73.2345V40H66.3524ZM79.0566 40.1491C78.6092 40.142 78.1617 40.0568 77.7143 39.8935C77.2668 39.7301 76.8584 39.4549 76.4891 39.0678C76.1198 38.6772 75.8233 38.1499 75.5996 37.4858C75.3758 36.8182 75.264 35.9801 75.264 34.9716C75.264 34.0057 75.3545 33.1499 75.5356 32.4041C75.7168 31.6548 75.9795 31.0245 76.324 30.5131C76.6685 29.9982 77.0839 29.6076 77.5704 29.3413C78.0605 29.0749 78.6127 28.9418 79.2271 28.9418C79.8378 28.9418 80.3812 29.0643 80.857 29.3093C81.3364 29.5508 81.7271 29.8881 82.0289 30.3214C82.3307 30.7546 82.5261 31.2536 82.6148 31.8182H81.3151C81.1944 31.3281 80.96 30.9215 80.612 30.5984C80.264 30.2752 79.8023 30.1136 79.2271 30.1136C78.3819 30.1136 77.716 30.4812 77.2295 31.2163C76.7466 31.9513 76.5033 32.983 76.4998 34.3111H76.585C76.7839 34.0092 77.02 33.7518 77.2935 33.5387C77.5704 33.3221 77.8758 33.1552 78.2097 33.038C78.5435 32.9208 78.8968 32.8622 79.2697 32.8622C79.8947 32.8622 80.4664 33.0185 80.9849 33.331C81.5033 33.6399 81.9188 34.0678 82.2313 34.6147C82.5438 35.158 82.7001 35.7812 82.7001 36.4844C82.7001 37.1591 82.5491 37.777 82.2473 38.3381C81.9454 38.8956 81.5211 39.3395 80.9742 39.6697C80.4309 39.9964 79.7917 40.1562 79.0566 40.1491ZM79.0566 38.9773C79.504 38.9773 79.9053 38.8654 80.2604 38.6417C80.6191 38.418 80.9014 38.1179 81.1074 37.7415C81.3169 37.3651 81.4217 36.946 81.4217 36.4844C81.4217 36.0334 81.3204 35.6232 81.118 35.2539C80.9192 34.881 80.644 34.5845 80.2924 34.3643C79.9444 34.1442 79.5467 34.0341 79.0992 34.0341C78.7619 34.0341 78.4476 34.1016 78.1564 34.2365C77.8652 34.3679 77.6095 34.549 77.3893 34.7798C77.1727 35.0107 77.0023 35.2752 76.878 35.5735C76.7537 35.8683 76.6915 36.179 76.6915 36.5057C76.6915 36.9389 76.7927 37.3437 76.9952 37.7202C77.2011 38.0966 77.4817 38.4002 77.8368 38.631C78.1954 38.8619 78.6021 38.9773 79.0566 38.9773ZM84.9866 40V29.0909H88.6726C89.5285 29.0909 90.228 29.2454 90.7714 29.5543C91.3182 29.8597 91.7231 30.2734 91.9858 30.7955C92.2486 31.3175 92.38 31.8999 92.38 32.5426C92.38 33.1854 92.2486 33.7695 91.9858 34.2951C91.7266 34.8207 91.3253 35.2397 90.782 35.5522C90.2387 35.8612 89.5427 36.0156 88.6939 36.0156H86.0519V34.8438H88.6513C89.2373 34.8438 89.7078 34.7425 90.0629 34.5401C90.418 34.3377 90.6755 34.0643 90.8353 33.7198C90.9986 33.3718 91.0803 32.9794 91.0803 32.5426C91.0803 32.1058 90.9986 31.7152 90.8353 31.3707C90.6755 31.0263 90.4162 30.7564 90.0576 30.5611C89.6989 30.3622 89.2231 30.2628 88.63 30.2628H86.3076V40H84.9866ZM94.508 29.0909H96.0847L99.7921 38.1463H99.92L103.627 29.0909H105.204V40H103.968V31.7116H103.862L100.453 40H99.2595L95.8504 31.7116H95.7438V40H94.508V29.0909Z" fill="#2F2E2E"/>
<path d="M14.5 113C14.5 101.126 24.1259 91.5 36 91.5H390C401.874 91.5 411.5 101.126 411.5 113C411.5 124.874 401.874 134.5 390 134.5H36C24.1259 134.5 14.5 124.874 14.5 113Z" fill="white" stroke="#2F2E2E"/>
<path d="M37.7443 108.182C37.6676 107.534 37.3565 107.031 36.8111 106.673C36.2656 106.315 35.5966 106.136 34.804 106.136C34.2244 106.136 33.7173 106.23 33.2827 106.418C32.8523 106.605 32.5156 106.863 32.2727 107.191C32.0341 107.519 31.9148 107.892 31.9148 108.31C31.9148 108.659 31.9979 108.96 32.1641 109.211C32.3345 109.458 32.5518 109.665 32.8161 109.831C33.0803 109.993 33.3572 110.127 33.647 110.234C33.9368 110.336 34.2031 110.419 34.446 110.483L35.7756 110.841C36.1165 110.93 36.4957 111.054 36.9134 111.212C37.3352 111.369 37.7379 111.585 38.1214 111.857C38.5092 112.126 38.8288 112.471 39.0803 112.893C39.3317 113.315 39.4574 113.832 39.4574 114.446C39.4574 115.153 39.272 115.793 38.9013 116.364C38.5348 116.935 37.9979 117.388 37.2905 117.725C36.5874 118.062 35.733 118.23 34.7273 118.23C33.7898 118.23 32.978 118.079 32.2919 117.776C31.6101 117.474 31.0732 117.052 30.6811 116.511C30.2933 115.969 30.0739 115.341 30.0227 114.625H31.6591C31.7017 115.119 31.8679 115.528 32.1577 115.852C32.4517 116.172 32.8224 116.411 33.2699 116.568C33.7216 116.722 34.2074 116.798 34.7273 116.798C35.3324 116.798 35.8757 116.7 36.3572 116.504C36.8388 116.304 37.2202 116.027 37.5014 115.673C37.7827 115.315 37.9233 114.898 37.9233 114.42C37.9233 113.986 37.8018 113.632 37.5589 113.359C37.3161 113.087 36.9964 112.865 36.6001 112.695C36.2038 112.524 35.7756 112.375 35.3153 112.247L33.7045 111.787C32.6818 111.493 31.8722 111.073 31.2756 110.528C30.679 109.982 30.3807 109.268 30.3807 108.386C30.3807 107.653 30.5788 107.014 30.9751 106.469C31.3757 105.919 31.9126 105.493 32.5859 105.19C33.2635 104.884 34.0199 104.73 34.8551 104.73C35.6989 104.73 36.4489 104.881 37.1051 105.184C37.7614 105.482 38.2813 105.891 38.6648 106.411C39.0526 106.931 39.2571 107.521 39.2784 108.182H37.7443ZM45.9757 118.205C45.0297 118.205 44.2136 117.996 43.5275 117.578C42.8457 117.156 42.3194 116.568 41.9487 115.814C41.5822 115.055 41.399 114.173 41.399 113.168C41.399 112.162 41.5822 111.276 41.9487 110.509C42.3194 109.737 42.835 109.136 43.4956 108.706C44.1603 108.271 44.9359 108.054 45.8223 108.054C46.3336 108.054 46.8386 108.139 47.3372 108.31C47.8358 108.48 48.2896 108.757 48.6987 109.141C49.1078 109.52 49.4338 110.023 49.6767 110.649C49.9196 111.276 50.041 112.047 50.041 112.963V113.602H42.4728V112.298H48.5069C48.5069 111.744 48.3961 111.25 48.1745 110.815C47.9572 110.381 47.6461 110.038 47.2413 109.786C46.8407 109.535 46.3677 109.409 45.8223 109.409C45.2214 109.409 44.7015 109.558 44.2626 109.857C43.8279 110.151 43.4934 110.534 43.2591 111.007C43.0247 111.48 42.9075 111.987 42.9075 112.528V113.398C42.9075 114.139 43.0353 114.768 43.291 115.283C43.551 115.795 43.911 116.185 44.3713 116.453C44.8315 116.717 45.3663 116.849 45.9757 116.849C46.372 116.849 46.7299 116.794 47.0495 116.683C47.3734 116.568 47.6525 116.398 47.8869 116.172C48.1213 115.942 48.3024 115.656 48.4302 115.315L49.8876 115.724C49.7342 116.219 49.4764 116.653 49.1142 117.028C48.752 117.399 48.3045 117.689 47.7718 117.898C47.2392 118.102 46.6404 118.205 45.9757 118.205ZM55.225 118.23C54.6028 118.23 54.0382 118.113 53.5311 117.879C53.024 117.64 52.6213 117.297 52.323 116.849C52.0247 116.398 51.8755 115.852 51.8755 115.213C51.8755 114.651 51.9863 114.195 52.2079 113.845C52.4295 113.491 52.7257 113.214 53.0964 113.014C53.4672 112.814 53.8762 112.665 54.3237 112.567C54.7754 112.464 55.2292 112.384 55.6852 112.324C56.2818 112.247 56.7654 112.19 57.1362 112.151C57.5112 112.109 57.7839 112.038 57.9544 111.94C58.1291 111.842 58.2164 111.672 58.2164 111.429V111.378C58.2164 110.747 58.0439 110.257 57.6987 109.908C57.3578 109.558 56.84 109.384 56.1454 109.384C55.4252 109.384 54.8606 109.541 54.4515 109.857C54.0424 110.172 53.7548 110.509 53.5886 110.866L52.1568 110.355C52.4125 109.759 52.7534 109.294 53.1795 108.962C53.6099 108.625 54.0787 108.391 54.5858 108.259C55.0971 108.122 55.6 108.054 56.0943 108.054C56.4096 108.054 56.7718 108.092 57.1809 108.169C57.5943 108.241 57.9927 108.393 58.3762 108.623C58.764 108.853 59.0858 109.2 59.3414 109.665C59.5971 110.129 59.725 110.751 59.725 111.531V118H58.2164V116.67H58.1397C58.0375 116.884 57.867 117.112 57.6284 117.354C57.3897 117.597 57.0723 117.804 56.676 117.974C56.2797 118.145 55.796 118.23 55.225 118.23ZM55.4551 116.875C56.0517 116.875 56.5545 116.758 56.9636 116.523C57.377 116.289 57.688 115.987 57.8968 115.616C58.1099 115.245 58.2164 114.855 58.2164 114.446V113.065C58.1525 113.142 58.0119 113.212 57.7946 113.276C57.5815 113.336 57.3343 113.389 57.0531 113.436C56.7761 113.479 56.5055 113.517 56.2413 113.551C55.9814 113.581 55.7704 113.607 55.6085 113.628C55.2164 113.679 54.85 113.762 54.5091 113.877C54.1724 113.988 53.8997 114.156 53.6909 114.382C53.4863 114.604 53.3841 114.906 53.3841 115.29C53.3841 115.814 53.5779 116.21 53.9657 116.479C54.3578 116.743 54.8542 116.875 55.4551 116.875ZM62.4783 118V108.182H63.9357V109.665H64.038C64.217 109.179 64.5408 108.785 65.0096 108.482C65.4783 108.18 66.0067 108.028 66.5948 108.028C66.7056 108.028 66.8441 108.031 67.0103 108.035C67.1765 108.039 67.3022 108.045 67.3874 108.054V109.588C67.3363 109.575 67.2191 109.556 67.0359 109.531C66.8569 109.501 66.6673 109.486 66.467 109.486C65.9897 109.486 65.5636 109.586 65.1886 109.786C64.8178 109.982 64.5238 110.255 64.3065 110.604C64.0934 110.95 63.9869 111.344 63.9869 111.787V118H62.4783ZM72.8654 118.205C71.945 118.205 71.1523 117.987 70.4876 117.553C69.8228 117.118 69.3114 116.519 68.9535 115.756C68.5955 114.994 68.4165 114.122 68.4165 113.142C68.4165 112.145 68.5998 111.265 68.9663 110.502C69.337 109.735 69.8526 109.136 70.5131 108.706C71.1779 108.271 71.9535 108.054 72.8398 108.054C73.5302 108.054 74.1523 108.182 74.7063 108.438C75.2603 108.693 75.7141 109.051 76.0678 109.511C76.4215 109.972 76.641 110.509 76.7262 111.122H75.2177C75.1026 110.675 74.8469 110.278 74.4506 109.933C74.0586 109.584 73.5302 109.409 72.8654 109.409C72.2773 109.409 71.7617 109.562 71.3185 109.869C70.8796 110.172 70.5366 110.6 70.2894 111.154C70.0465 111.704 69.9251 112.349 69.9251 113.091C69.9251 113.849 70.0444 114.51 70.283 115.072C70.5259 115.635 70.8668 116.072 71.3058 116.383C71.7489 116.694 72.2688 116.849 72.8654 116.849C73.2575 116.849 73.6133 116.781 73.9329 116.645C74.2525 116.509 74.5231 116.312 74.7447 116.057C74.9663 115.801 75.1239 115.494 75.2177 115.136H76.7262C76.641 115.716 76.43 116.238 76.0934 116.702C75.761 117.163 75.32 117.529 74.7702 117.802C74.2248 118.07 73.5898 118.205 72.8654 118.205ZM80.44 112.094V118H78.9315V104.909H80.44V109.716H80.5678C80.7979 109.209 81.1431 108.806 81.6033 108.508C82.0678 108.205 82.6857 108.054 83.457 108.054C84.1261 108.054 84.712 108.188 85.2148 108.457C85.7177 108.721 86.1076 109.128 86.3846 109.678C86.6658 110.223 86.8065 110.918 86.8065 111.761V118H85.2979V111.864C85.2979 111.084 85.0955 110.481 84.6907 110.055C84.2901 109.624 83.734 109.409 83.0224 109.409C82.5281 109.409 82.0849 109.513 81.6928 109.722C81.305 109.931 80.9982 110.236 80.7724 110.636C80.5508 111.037 80.44 111.523 80.44 112.094Z" fill="#2F2E2E"/>
<path d="M393.349 111.424C393.349 116.905 388.905 121.348 383.424 121.348C377.943 121.348 373.5 116.905 373.5 111.424C373.5 105.943 377.943 101.5 383.424 101.5C388.905 101.5 393.349 105.943 393.349 111.424Z" fill="white" stroke="#2F2E2E"/>
<path d="M396.101 124.808C396.296 125.003 396.613 125.003 396.808 124.808C397.003 124.613 397.003 124.296 396.808 124.101L396.101 124.808ZM396.808 124.101L390.944 118.237L390.237 118.944L396.101 124.808L396.808 124.101Z" fill="#2F2E2E"/>
<rect x="7" y="146" width="209" height="20" rx="10" fill="#D0D0D0"/>
<rect x="7" y="738" width="160" height="20" rx="10" fill="#D0D0D0"/>
<rect x="7" y="343" width="141" height="20" rx="10" fill="#D0D0D0"/>
<rect x="7" y="541" width="125" height="20" rx="10" fill="#D0D0D0"/>
<rect x="7" y="936" width="125" height="20" rx="10" fill="#D0D0D0"/>
<path d="M22 55H46" stroke="#2F2E2E" stroke-width="4" stroke-linecap="round"/>
<path d="M22 67H46" stroke="#2F2E2E" stroke-width="4" stroke-linecap="round"/>
<path d="M22 79H46" stroke="#2F2E2E" stroke-width="4" stroke-linecap="round"/>
<g clip-path="url(#clip1_1516_13092)" filter="url(#filter0_i_1516_13092)">
<rect width="440" height="56" transform="translate(0 900)" fill="#F9F9F9"/>
<g filter="url(#filter1_d_1516_13092)">
<path d="M48 941.334V928H56V941.334M40 924L52 914.667L64 924V938.667C64 939.374 63.719 940.053 63.219 940.553C62.7189 941.053 62.0406 941.334 61.3333 941.334H42.6667C41.9594 941.334 41.2811 941.053 40.781 940.553C40.281 940.053 40 939.374 40 938.667V924Z" stroke="#2F2E2E" stroke-width="3" stroke-linecap="round" stroke-linejoin="round"/>
</g>
<g filter="url(#filter2_d_1516_13092)">
<path d="M48 941.334V928H56V941.334M40 924L52 914.667L64 924V938.667C64 939.374 63.719 940.053 63.219 940.553C62.7189 941.053 62.0406 941.334 61.3333 941.334H42.6667C41.9594 941.334 41.2811 941.053 40.781 940.553C40.281 940.053 40 939.374 40 938.667V924Z" stroke="#2F2E2E" stroke-width="3" stroke-linecap="round" stroke-linejoin="round"/>
</g>
<g filter="url(#filter3_d_1516_13092)">
<path d="M163.252 912V944" stroke="#2F2E2E" stroke-width="13.9"/>
<path d="M180 928.299L148 928.299" stroke="#2F2E2E" stroke-width="13.9"/>
</g>
<g filter="url(#filter4_d_1516_13092)">
<path d="M266.537 940.702C269.794 940.601 275.661 939.882 278.289 937.808C280.186 936.311 282.455 934.629 284.655 933.637" stroke="#2F2E2E" stroke-width="3" stroke-linecap="round"/>
<path d="M275.351 934.52C280.291 933.883 287.27 930.245 289.552 926.13" stroke="#2F2E2E" stroke-width="3" stroke-linecap="round"/>
<path d="M282.207 927.455C285.292 924.926 292 923.863 292 919.507" stroke="#2F2E2E" stroke-width="3" stroke-linecap="round"/>
<path d="M286.124 919.507C286.904 919.419 286.949 916.047 287.13 915.312C287.472 913.925 289.491 912.993 290.041 912" stroke="#2F2E2E" stroke-width="3" stroke-linecap="round"/>
<path d="M261.641 936.728C261.208 933.218 260.395 929.26 262.13 926.13" stroke="#2F2E2E" stroke-width="3" stroke-linecap="round"/>
<path d="M266.048 930.546C267.887 928.68 268.194 925.7 269.475 923.677C270.358 922.284 270.693 920.283 272.413 919.507" stroke="#2F2E2E" stroke-width="3" stroke-linecap="round"/>
<path d="M274.372 922.598C274.372 921.389 275.88 918.248 276.929 917.397C278.765 915.907 280.262 915.974 282.696 915.974" stroke="#2F2E2E" stroke-width="3" stroke-linecap="round"/>
<path d="M283.061 920.583L260 944" stroke="#2F2E2E" stroke-width="3" stroke-linecap="round"/>
</g>
<g filter="url(#filter5_d_1516_13092)">
<circle cx="388" cy="928" r="14.5" fill="#FAF8FA" stroke="#2F2E2E" stroke-width="3"/>
<path d="M388.533 922.347V933.76" stroke="#2F2E2E" stroke-width="3"/>
<path d="M394.507 928.16L383.093 928.16" stroke="#2F2E2E" stroke-width="3"/>
</g>
</g>
</g>
<defs>
<filter id="filter0_i_1516_13092" x="0" y="900" width="440" height="60" filterUnits="userSpaceOnUse" color-interpolation-filters="sRGB">
<feFlood flood-opacity="0" result="BackgroundImageFix"/>
<feBlend mode="normal" in="SourceGraphic" in2="BackgroundImageFix" result="shape"/>
<feColorMatrix in="SourceAlpha" type="matrix" values="0 0 0 0 0 0 0 0 0 0 0 0 0 0 0 0 0 0 127 0" result="hardAlpha"/>
<feOffset dy="5"/>
<feGaussianBlur stdDeviation="2"/>
<feComposite in2="hardAlpha" operator="arithmetic" k2="-1" k3="1"/>
<feColorMatrix type="matrix" values="0 0 0 0 0.770833 0 0 0 0 0.631441 0 0 0 0 0.722046 0 0 0 0.5 0"/>
<feBlend mode="normal" in2="shape" result="effect1_innerShadow_1516_13092"/>
</filter>
<filter id="filter1_d_1516_13092" x="31" y="912" width="42" height="44" filterUnits="userSpaceOnUse" color-interpolation-filters="sRGB">
<feFlood flood-opacity="0" result="BackgroundImageFix"/>
<feColorMatrix in="SourceAlpha" type="matrix" values="0 0 0 0 0 0 0 0 0 0 0 0 0 0 0 0 0 0 127 0" result="hardAlpha"/>
<feOffset dy="7"/>
<feGaussianBlur stdDeviation="2.5"/>
<feComposite in2="hardAlpha" operator="out"/>
<feColorMatrix type="matrix" values="0 0 0 0 0.770833 0 0 0 0 0.631441 0 0 0 0 0.722046 0 0 0 1 0"/>
<feBlend mode="normal" in2="BackgroundImageFix" result="effect1_dropShadow_1516_13092"/>
<feBlend mode="normal" in="SourceGraphic" in2="effect1_dropShadow_1516_13092" result="shape"/>
</filter>
<filter id="filter2_d_1516_13092" x="31" y="912" width="42" height="44" filterUnits="userSpaceOnUse" color-interpolation-filters="sRGB">
<feFlood flood-opacity="0" result="BackgroundImageFix"/>
<feColorMatrix in="SourceAlpha" type="matrix" values="0 0 0 0 0 0 0 0 0 0 0 0 0 0 0 0 0 0 127 0" result="hardAlpha"/>
<feOffset dy="7"/>
<feGaussianBlur stdDeviation="2.5"/>
<feComposite in2="hardAlpha" operator="out"/>
<feColorMatrix type="matrix" values="0 0 0 0 0.770833 0 0 0 0 0.631441 0 0 0 0 0.722046 0 0 0 1 0"/>
<feBlend mode="normal" in2="BackgroundImageFix" result="effect1_dropShadow_1516_13092"/>
<feBlend mode="normal" in="SourceGraphic" in2="effect1_dropShadow_1516_13092" result="shape"/>
</filter>
<filter id="filter3_d_1516_13092" x="143" y="912" width="42" height="44" filterUnits="userSpaceOnUse" color-interpolation-filters="sRGB">
<feFlood flood-opacity="0" result="BackgroundImageFix"/>
<feColorMatrix in="SourceAlpha" type="matrix" values="0 0 0 0 0 0 0 0 0 0 0 0 0 0 0 0 0 0 127 0" result="hardAlpha"/>
<feOffset dy="7"/>
<feGaussianBlur stdDeviation="2.5"/>
<feComposite in2="hardAlpha" operator="out"/>
<feColorMatrix type="matrix" values="0 0 0 0 0.770833 0 0 0 0 0.631441 0 0 0 0 0.722046 0 0 0 1 0"/>
<feBlend mode="normal" in2="BackgroundImageFix" result="effect1_dropShadow_1516_13092"/>
<feBlend mode="normal" in="SourceGraphic" in2="effect1_dropShadow_1516_13092" result="shape"/>
</filter>
<filter id="filter4_d_1516_13092" x="253.426" y="910.5" width="45.0745" height="46.9224" filterUnits="userSpaceOnUse" color-interpolation-filters="sRGB">
<feFlood flood-opacity="0" result="BackgroundImageFix"/>
<feColorMatrix in="SourceAlpha" type="matrix" values="0 0 0 0 0 0 0 0 0 0 0 0 0 0 0 0 0 0 127 0" result="hardAlpha"/>
<feOffset dy="7"/>
<feGaussianBlur stdDeviation="2.5"/>
<feComposite in2="hardAlpha" operator="out"/>
<feColorMatrix type="matrix" values="0 0 0 0 0.770833 0 0 0 0 0.631441 0 0 0 0 0.722046 0 0 0 1 0"/>
<feBlend mode="normal" in2="BackgroundImageFix" result="effect1_dropShadow_1516_13092"/>
<feBlend mode="normal" in="SourceGraphic" in2="effect1_dropShadow_1516_13092" result="shape"/>
</filter>
<filter id="filter5_d_1516_13092" x="367" y="912" width="42" height="44" filterUnits="userSpaceOnUse" color-interpolation-filters="sRGB">
<feFlood flood-opacity="0" result="BackgroundImageFix"/>
<feColorMatrix in="SourceAlpha" type="matrix" values="0 0 0 0 0 0 0 0 0 0 0 0 0 0 0 0 0 0 127 0" result="hardAlpha"/>
<feOffset dy="7"/>
<feGaussianBlur stdDeviation="2.5"/>
<feComposite in2="hardAlpha" operator="out"/>
<feColorMatrix type="matrix" values="0 0 0 0 0.770833 0 0 0 0 0.631441 0 0 0 0 0.722046 0 0 0 1 0"/>
<feBlend mode="normal" in2="BackgroundImageFix" result="effect1_dropShadow_1516_13092"/>
<feBlend mode="normal" in="SourceGraphic" in2="effect1_dropShadow_1516_13092" result="shape"/>
</filter>
<clipPath id="clip0_1516_13092">
<rect width="440" height="956" fill="white"/>
</clipPath>
<clipPath id="clip1_1516_13092">
<rect width="440" height="56" fill="white" transform="translate(0 900)"/>
</clipPath>
</defs>
</svg>
