<svg width="1440" height="1024" viewBox="0 0 1440 1024" fill="none" xmlns="http://www.w3.org/2000/svg">
<rect width="1440" height="1024" fill="white"/>
<rect width="1440" height="56" fill="#6A6A6A"/>
<path d="M72.642 39V17.1818H75.2841V36.6562H85.4261V39H72.642ZM95.8239 39.3409C94.3466 39.3409 93.0504 38.9893 91.9354 38.2862C90.8274 37.5831 89.9609 36.5994 89.3359 35.3352C88.718 34.071 88.4091 32.5937 88.4091 30.9034C88.4091 29.1989 88.718 27.7109 89.3359 26.4396C89.9609 25.1683 90.8274 24.1811 91.9354 23.478C93.0504 22.7749 94.3466 22.4233 95.8239 22.4233C97.3011 22.4233 98.5938 22.7749 99.7017 23.478C100.817 24.1811 101.683 25.1683 102.301 26.4396C102.926 27.7109 103.239 29.1989 103.239 30.9034C103.239 32.5937 102.926 34.071 102.301 35.3352C101.683 36.5994 100.817 37.5831 99.7017 38.2862C98.5938 38.9893 97.3011 39.3409 95.8239 39.3409ZM95.8239 37.0824C96.946 37.0824 97.8693 36.7947 98.5938 36.2195C99.3182 35.6442 99.8544 34.8878 100.202 33.9503C100.55 33.0128 100.724 31.9972 100.724 30.9034C100.724 29.8097 100.55 28.7905 100.202 27.8459C99.8544 26.9013 99.3182 26.1378 98.5938 25.5554C97.8693 24.973 96.946 24.6818 95.8239 24.6818C94.7017 24.6818 93.7784 24.973 93.054 25.5554C92.3295 26.1378 91.7933 26.9013 91.4453 27.8459C91.0973 28.7905 90.9233 29.8097 90.9233 30.9034C90.9233 31.9972 91.0973 33.0128 91.4453 33.9503C91.7933 34.8878 92.3295 35.6442 93.054 36.2195C93.7784 36.7947 94.7017 37.0824 95.8239 37.0824ZM113.682 45.4773C112.467 45.4773 111.423 45.321 110.55 45.0085C109.676 44.7031 108.948 44.2983 108.366 43.794C107.79 43.2969 107.332 42.7642 106.991 42.196L108.994 40.7898C109.221 41.0881 109.509 41.429 109.857 41.8125C110.205 42.2031 110.681 42.5405 111.285 42.8246C111.895 43.1158 112.694 43.2614 113.682 43.2614C115.003 43.2614 116.093 42.9418 116.952 42.3026C117.812 41.6634 118.241 40.6619 118.241 39.2983V35.9744H118.028C117.844 36.2727 117.581 36.642 117.24 37.0824C116.906 37.5156 116.423 37.9027 115.791 38.2436C115.166 38.5774 114.321 38.7443 113.256 38.7443C111.934 38.7443 110.748 38.4318 109.697 37.8068C108.653 37.1818 107.826 36.2727 107.215 35.0795C106.611 33.8864 106.309 32.4375 106.309 30.733C106.309 29.0568 106.604 27.5973 107.194 26.3544C107.783 25.1044 108.604 24.1385 109.655 23.4567C110.706 22.7678 111.92 22.4233 113.298 22.4233C114.363 22.4233 115.209 22.6009 115.834 22.956C116.466 23.304 116.949 23.7017 117.282 24.1491C117.623 24.5895 117.886 24.9517 118.071 25.2358H118.327V22.6364H120.756V39.4688C120.756 40.875 120.436 42.0185 119.797 42.8991C119.165 43.7869 118.312 44.4368 117.24 44.8487C116.175 45.2678 114.988 45.4773 113.682 45.4773ZM113.596 36.4858C114.605 36.4858 115.457 36.255 116.153 35.7933C116.849 35.3317 117.378 34.6676 117.741 33.8011C118.103 32.9347 118.284 31.8977 118.284 30.6903C118.284 29.5114 118.106 28.4709 117.751 27.5689C117.396 26.6669 116.871 25.9602 116.175 25.4489C115.479 24.9375 114.619 24.6818 113.596 24.6818C112.531 24.6818 111.643 24.9517 110.933 25.4915C110.23 26.0312 109.701 26.7557 109.346 27.6648C108.998 28.5739 108.824 29.5824 108.824 30.6903C108.824 31.8267 109.001 32.8317 109.356 33.7053C109.719 34.5717 110.251 35.2536 110.954 35.7507C111.665 36.2408 112.545 36.4858 113.596 36.4858ZM132.006 39.3409C130.528 39.3409 129.232 38.9893 128.117 38.2862C127.009 37.5831 126.143 36.5994 125.518 35.3352C124.9 34.071 124.591 32.5937 124.591 30.9034C124.591 29.1989 124.9 27.7109 125.518 26.4396C126.143 25.1683 127.009 24.1811 128.117 23.478C129.232 22.7749 130.528 22.4233 132.006 22.4233C133.483 22.4233 134.775 22.7749 135.883 23.478C136.998 24.1811 137.865 25.1683 138.483 26.4396C139.108 27.7109 139.42 29.1989 139.42 30.9034C139.42 32.5937 139.108 34.071 138.483 35.3352C137.865 36.5994 136.998 37.5831 135.883 38.2862C134.775 38.9893 133.483 39.3409 132.006 39.3409ZM132.006 37.0824C133.128 37.0824 134.051 36.7947 134.775 36.2195C135.5 35.6442 136.036 34.8878 136.384 33.9503C136.732 33.0128 136.906 31.9972 136.906 30.9034C136.906 29.8097 136.732 28.7905 136.384 27.8459C136.036 26.9013 135.5 26.1378 134.775 25.5554C134.051 24.973 133.128 24.6818 132.006 24.6818C130.883 24.6818 129.96 24.973 129.236 25.5554C128.511 26.1378 127.975 26.9013 127.627 27.8459C127.279 28.7905 127.105 29.8097 127.105 30.9034C127.105 31.9972 127.279 33.0128 127.627 33.9503C127.975 34.8878 128.511 35.6442 129.236 36.2195C129.96 36.7947 130.883 37.0824 132.006 37.0824ZM154.21 29.1562V39H151.696V17.1818H154.21V25.1932H154.423C154.806 24.348 155.382 23.6768 156.149 23.1797C156.923 22.6754 157.953 22.4233 159.238 22.4233C160.353 22.4233 161.33 22.647 162.168 23.0945C163.006 23.5348 163.656 24.2131 164.118 25.1293C164.586 26.0384 164.821 27.196 164.821 28.6023V39H162.306V28.7727C162.306 27.473 161.969 26.468 161.294 25.7578C160.627 25.0405 159.7 24.6818 158.514 24.6818C157.69 24.6818 156.951 24.8558 156.298 25.2038C155.652 25.5518 155.14 26.0597 154.764 26.7273C154.395 27.3949 154.21 28.2045 154.21 29.1562ZM176.281 39.3409C174.704 39.3409 173.344 38.9929 172.201 38.2969C171.064 37.5938 170.187 36.6136 169.569 35.3565C168.959 34.0923 168.653 32.6222 168.653 30.946C168.653 29.2699 168.959 27.7926 169.569 26.5142C170.187 25.2287 171.047 24.2273 172.148 23.5099C173.256 22.7855 174.548 22.4233 176.025 22.4233C176.878 22.4233 177.719 22.5653 178.55 22.8494C179.381 23.1335 180.138 23.5952 180.819 24.2344C181.501 24.8665 182.045 25.7045 182.449 26.7486C182.854 27.7926 183.057 29.0781 183.057 30.6051V31.6705H170.443V29.4972H180.5C180.5 28.5739 180.315 27.75 179.946 27.0256C179.584 26.3011 179.065 25.7294 178.39 25.3104C177.723 24.8913 176.934 24.6818 176.025 24.6818C175.024 24.6818 174.157 24.9304 173.426 25.4276C172.702 25.9176 172.144 26.5568 171.753 27.3452C171.363 28.1335 171.167 28.9787 171.167 29.8807V31.3295C171.167 32.5653 171.381 33.6129 171.807 34.4723C172.24 35.3246 172.84 35.9744 173.607 36.4219C174.374 36.8622 175.265 37.0824 176.281 37.0824C176.942 37.0824 177.538 36.9901 178.071 36.8054C178.611 36.6136 179.076 36.3295 179.466 35.9531C179.857 35.5696 180.159 35.0937 180.372 34.5256L182.801 35.2074C182.545 36.0312 182.116 36.7557 181.512 37.3807C180.908 37.9986 180.162 38.4815 179.275 38.8295C178.387 39.1705 177.389 39.3409 176.281 39.3409ZM186.881 39V22.6364H189.31V25.108H189.481C189.779 24.2983 190.319 23.6413 191.1 23.1371C191.881 22.6328 192.762 22.3807 193.742 22.3807C193.927 22.3807 194.157 22.3842 194.434 22.3913C194.711 22.3984 194.921 22.4091 195.063 22.4233V24.9801C194.978 24.9588 194.782 24.9268 194.477 24.8842C194.179 24.8345 193.863 24.8097 193.529 24.8097C192.733 24.8097 192.023 24.9766 191.398 25.3104C190.78 25.6371 190.29 26.0916 189.928 26.674C189.573 27.2493 189.395 27.9062 189.395 28.6449V39H186.881ZM204.406 39.3409C202.829 39.3409 201.469 38.9929 200.326 38.2969C199.189 37.5938 198.312 36.6136 197.694 35.3565C197.084 34.0923 196.778 32.6222 196.778 30.946C196.778 29.2699 197.084 27.7926 197.694 26.5142C198.312 25.2287 199.172 24.2273 200.273 23.5099C201.381 22.7855 202.673 22.4233 204.15 22.4233C205.003 22.4233 205.844 22.5653 206.675 22.8494C207.506 23.1335 208.263 23.5952 208.944 24.2344C209.626 24.8665 210.17 25.7045 210.574 26.7486C210.979 27.7926 211.182 29.0781 211.182 30.6051V31.6705H198.568V29.4972H208.625C208.625 28.5739 208.44 27.75 208.071 27.0256C207.709 26.3011 207.19 25.7294 206.515 25.3104C205.848 24.8913 205.059 24.6818 204.15 24.6818C203.149 24.6818 202.282 24.9304 201.551 25.4276C200.827 25.9176 200.269 26.5568 199.878 27.3452C199.488 28.1335 199.292 28.9787 199.292 29.8807V31.3295C199.292 32.5653 199.506 33.6129 199.932 34.4723C200.365 35.3246 200.965 35.9744 201.732 36.4219C202.499 36.8622 203.39 37.0824 204.406 37.0824C205.067 37.0824 205.663 36.9901 206.196 36.8054C206.736 36.6136 207.201 36.3295 207.591 35.9531C207.982 35.5696 208.284 35.0937 208.497 34.5256L210.926 35.2074C210.67 36.0312 210.241 36.7557 209.637 37.3807C209.033 37.9986 208.287 38.4815 207.4 38.8295C206.512 39.1705 205.514 39.3409 204.406 39.3409Z" fill="white"/>
<path d="M693.642 39V17.1818H706.81V19.5256H696.284V26.8977H706.128V29.2415H696.284V36.6562H706.98V39H693.642ZM713.106 22.6364L717.026 29.3267L720.947 22.6364H723.844L718.56 30.8182L723.844 39H720.947L717.026 32.6506L713.106 39H710.208L715.407 30.8182L710.208 22.6364H713.106ZM727.432 45.1364V22.6364H729.861V25.2358H730.159C730.344 24.9517 730.6 24.5895 730.926 24.1491C731.26 23.7017 731.736 23.304 732.354 22.956C732.979 22.6009 733.824 22.4233 734.889 22.4233C736.267 22.4233 737.482 22.7678 738.533 23.4567C739.584 24.1456 740.404 25.1222 740.994 26.3864C741.583 27.6506 741.878 29.142 741.878 30.8608C741.878 32.5938 741.583 34.0959 740.994 35.3672C740.404 36.6314 739.588 37.6115 738.544 38.3075C737.499 38.9964 736.296 39.3409 734.932 39.3409C733.881 39.3409 733.039 39.1669 732.407 38.8189C731.775 38.4638 731.289 38.0625 730.948 37.6151C730.607 37.1605 730.344 36.7841 730.159 36.4858H729.946V45.1364H727.432ZM729.904 30.8182C729.904 32.054 730.085 33.1442 730.447 34.0888C730.809 35.0263 731.338 35.7614 732.034 36.294C732.73 36.8196 733.583 37.0824 734.591 37.0824C735.642 37.0824 736.519 36.8054 737.222 36.2514C737.933 35.6903 738.465 34.9375 738.82 33.9929C739.183 33.0412 739.364 31.983 739.364 30.8182C739.364 29.6676 739.186 28.6307 738.831 27.7074C738.483 26.777 737.954 26.0419 737.244 25.5021C736.541 24.9553 735.656 24.6818 734.591 24.6818C733.568 24.6818 732.709 24.9411 732.013 25.4595C731.317 25.9709 730.791 26.6882 730.436 27.6115C730.081 28.5277 729.904 29.5966 729.904 30.8182ZM752.574 39.3409C750.997 39.3409 749.637 38.9929 748.494 38.2969C747.357 37.5938 746.48 36.6136 745.862 35.3565C745.252 34.0923 744.946 32.6222 744.946 30.946C744.946 29.2699 745.252 27.7926 745.862 26.5142C746.48 25.2287 747.34 24.2273 748.441 23.5099C749.548 22.7855 750.841 22.4233 752.318 22.4233C753.171 22.4233 754.012 22.5653 754.843 22.8494C755.674 23.1335 756.431 23.5952 757.112 24.2344C757.794 24.8665 758.338 25.7045 758.742 26.7486C759.147 27.7926 759.35 29.0781 759.35 30.6051V31.6705H746.736V29.4972H756.793C756.793 28.5739 756.608 27.75 756.239 27.0256C755.877 26.3011 755.358 25.7294 754.683 25.3104C754.016 24.8913 753.227 24.6818 752.318 24.6818C751.317 24.6818 750.45 24.9304 749.719 25.4276C748.994 25.9176 748.437 26.5568 748.046 27.3452C747.656 28.1335 747.46 28.9787 747.46 29.8807V31.3295C747.46 32.5653 747.673 33.6129 748.1 34.4723C748.533 35.3246 749.133 35.9744 749.9 36.4219C750.667 36.8622 751.558 37.0824 752.574 37.0824C753.235 37.0824 753.831 36.9901 754.364 36.8054C754.904 36.6136 755.369 36.3295 755.759 35.9531C756.15 35.5696 756.452 35.0937 756.665 34.5256L759.094 35.2074C758.838 36.0312 758.409 36.7557 757.805 37.3807C757.201 37.9986 756.455 38.4815 755.568 38.8295C754.68 39.1705 753.682 39.3409 752.574 39.3409ZM769.353 39.3409C767.99 39.3409 766.786 38.9964 765.742 38.3075C764.698 37.6115 763.881 36.6314 763.291 35.3672C762.702 34.0959 762.407 32.5938 762.407 30.8608C762.407 29.142 762.702 27.6506 763.291 26.3864C763.881 25.1222 764.701 24.1456 765.752 23.4567C766.803 22.7678 768.018 22.4233 769.396 22.4233C770.461 22.4233 771.303 22.6009 771.921 22.956C772.546 23.304 773.021 23.7017 773.348 24.1491C773.682 24.5895 773.941 24.9517 774.126 25.2358H774.339V17.1818H776.853V39H774.424V36.4858H774.126C773.941 36.7841 773.678 37.1605 773.338 37.6151C772.997 38.0625 772.51 38.4638 771.878 38.8189C771.246 39.1669 770.404 39.3409 769.353 39.3409ZM769.694 37.0824C770.703 37.0824 771.555 36.8196 772.251 36.294C772.947 35.7614 773.476 35.0263 773.838 34.0888C774.2 33.1442 774.382 32.054 774.382 30.8182C774.382 29.5966 774.204 28.5277 773.849 27.6115C773.494 26.6882 772.968 25.9709 772.272 25.4595C771.576 24.9411 770.717 24.6818 769.694 24.6818C768.629 24.6818 767.741 24.9553 767.031 25.5021C766.328 26.0419 765.798 26.777 765.443 27.7074C765.095 28.6307 764.921 29.6676 764.921 30.8182C764.921 31.983 765.099 33.0412 765.454 33.9929C765.816 34.9375 766.349 35.6903 767.052 36.2514C767.762 36.8054 768.643 37.0824 769.694 37.0824ZM781.807 39V22.6364H784.321V39H781.807ZM783.085 19.9091C782.595 19.9091 782.173 19.7422 781.818 19.4084C781.47 19.0746 781.296 18.6733 781.296 18.2045C781.296 17.7358 781.47 17.3345 781.818 17.0007C782.173 16.6669 782.595 16.5 783.085 16.5C783.575 16.5 783.994 16.6669 784.343 17.0007C784.698 17.3345 784.875 17.7358 784.875 18.2045C784.875 18.6733 784.698 19.0746 784.343 19.4084C783.994 19.7422 783.575 19.9091 783.085 19.9091ZM796.043 22.6364V24.767H787.562V22.6364H796.043ZM790.034 18.7159H792.548V34.3125C792.548 35.0227 792.651 35.5554 792.857 35.9105C793.07 36.2585 793.34 36.4929 793.667 36.6136C794.001 36.7273 794.352 36.7841 794.722 36.7841C794.999 36.7841 795.226 36.7699 795.403 36.7415C795.581 36.706 795.723 36.6776 795.83 36.6562L796.341 38.9148C796.17 38.9787 795.933 39.0426 795.627 39.1065C795.322 39.1776 794.935 39.2131 794.466 39.2131C793.756 39.2131 793.06 39.0604 792.378 38.755C791.703 38.4496 791.142 37.9844 790.695 37.3594C790.254 36.7344 790.034 35.946 790.034 34.9943V18.7159ZM799.825 39V22.6364H802.339V39H799.825ZM801.103 19.9091C800.613 19.9091 800.19 19.7422 799.835 19.4084C799.487 19.0746 799.313 18.6733 799.313 18.2045C799.313 17.7358 799.487 17.3345 799.835 17.0007C800.19 16.6669 800.613 16.5 801.103 16.5C801.593 16.5 802.012 16.6669 802.36 17.0007C802.715 17.3345 802.893 17.7358 802.893 18.2045C802.893 18.6733 802.715 19.0746 802.36 19.4084C802.012 19.7422 801.593 19.9091 801.103 19.9091ZM813.591 39.3409C812.114 39.3409 810.818 38.9893 809.703 38.2862C808.595 37.5831 807.729 36.5994 807.104 35.3352C806.486 34.071 806.177 32.5937 806.177 30.9034C806.177 29.1989 806.486 27.7109 807.104 26.4396C807.729 25.1683 808.595 24.1811 809.703 23.478C810.818 22.7749 812.114 22.4233 813.591 22.4233C815.069 22.4233 816.361 22.7749 817.469 23.478C818.584 24.1811 819.451 25.1683 820.069 26.4396C820.694 27.7109 821.006 29.1989 821.006 30.9034C821.006 32.5937 820.694 34.071 820.069 35.3352C819.451 36.5994 818.584 37.5831 817.469 38.2862C816.361 38.9893 815.069 39.3409 813.591 39.3409ZM813.591 37.0824C814.714 37.0824 815.637 36.7947 816.361 36.2195C817.086 35.6442 817.622 34.8878 817.97 33.9503C818.318 33.0128 818.492 31.9972 818.492 30.9034C818.492 29.8097 818.318 28.7905 817.97 27.8459C817.622 26.9013 817.086 26.1378 816.361 25.5554C815.637 24.973 814.714 24.6818 813.591 24.6818C812.469 24.6818 811.546 24.973 810.822 25.5554C810.097 26.1378 809.561 26.9013 809.213 27.8459C808.865 28.7905 808.691 29.8097 808.691 30.9034C808.691 31.9972 808.865 33.0128 809.213 33.9503C809.561 34.8878 810.097 35.6442 810.822 36.2195C811.546 36.7947 812.469 37.0824 813.591 37.0824ZM827.358 29.1562V39H824.844V22.6364H827.273V25.1932H827.486C827.87 24.3622 828.452 23.6946 829.233 23.1903C830.015 22.679 831.023 22.4233 832.259 22.4233C833.367 22.4233 834.336 22.6506 835.167 23.1051C835.998 23.5526 836.645 24.2344 837.106 25.1506C837.568 26.0597 837.799 27.2102 837.799 28.6023V39H835.284V28.7727C835.284 27.4872 834.951 26.4858 834.283 25.7685C833.615 25.044 832.699 24.6818 831.534 24.6818C830.732 24.6818 830.015 24.8558 829.382 25.2038C828.757 25.5518 828.264 26.0597 827.902 26.7273C827.539 27.3949 827.358 28.2045 827.358 29.1562ZM853.984 26.3011L851.725 26.9403C851.583 26.5639 851.374 26.1982 851.097 25.843C850.827 25.4808 850.458 25.1825 849.989 24.9482C849.52 24.7138 848.92 24.5966 848.188 24.5966C847.187 24.5966 846.352 24.8274 845.685 25.2891C845.024 25.7436 844.694 26.3224 844.694 27.0256C844.694 27.6506 844.921 28.1442 845.376 28.5064C845.83 28.8686 846.541 29.1705 847.507 29.4119L849.936 30.0085C851.399 30.3636 852.489 30.907 853.206 31.6385C853.923 32.3629 854.282 33.2969 854.282 34.4403C854.282 35.3778 854.012 36.2159 853.472 36.9545C852.94 37.6932 852.194 38.2756 851.235 38.7017C850.276 39.1278 849.161 39.3409 847.89 39.3409C846.221 39.3409 844.84 38.9787 843.746 38.2543C842.652 37.5298 841.96 36.4716 841.669 35.0795L844.055 34.483C844.282 35.3636 844.712 36.0241 845.344 36.4645C845.983 36.9048 846.818 37.125 847.847 37.125C849.019 37.125 849.95 36.8764 850.639 36.3793C851.335 35.875 851.683 35.2713 851.683 34.5682C851.683 34 851.484 33.5241 851.086 33.1406C850.688 32.75 850.078 32.4588 849.254 32.267L846.526 31.6278C845.028 31.2727 843.927 30.7223 843.224 29.9766C842.528 29.2237 842.18 28.2827 842.18 27.1534C842.18 26.2301 842.439 25.4134 842.958 24.7031C843.483 23.9929 844.197 23.4354 845.099 23.0305C846.008 22.6257 847.038 22.4233 848.188 22.4233C849.808 22.4233 851.079 22.7784 852.002 23.4886C852.933 24.1989 853.593 25.1364 853.984 26.3011Z" fill="white"/>
<path d="M693.642 39V17.1818H706.81V19.5256H696.284V26.8977H706.128V29.2415H696.284V36.6562H706.98V39H693.642ZM713.106 22.6364L717.026 29.3267L720.947 22.6364H723.844L718.56 30.8182L723.844 39H720.947L717.026 32.6506L713.106 39H710.208L715.407 30.8182L710.208 22.6364H713.106ZM727.432 45.1364V22.6364H729.861V25.2358H730.159C730.344 24.9517 730.6 24.5895 730.926 24.1491C731.26 23.7017 731.736 23.304 732.354 22.956C732.979 22.6009 733.824 22.4233 734.889 22.4233C736.267 22.4233 737.482 22.7678 738.533 23.4567C739.584 24.1456 740.404 25.1222 740.994 26.3864C741.583 27.6506 741.878 29.142 741.878 30.8608C741.878 32.5938 741.583 34.0959 740.994 35.3672C740.404 36.6314 739.588 37.6115 738.544 38.3075C737.499 38.9964 736.296 39.3409 734.932 39.3409C733.881 39.3409 733.039 39.1669 732.407 38.8189C731.775 38.4638 731.289 38.0625 730.948 37.6151C730.607 37.1605 730.344 36.7841 730.159 36.4858H729.946V45.1364H727.432ZM729.904 30.8182C729.904 32.054 730.085 33.1442 730.447 34.0888C730.809 35.0263 731.338 35.7614 732.034 36.294C732.73 36.8196 733.583 37.0824 734.591 37.0824C735.642 37.0824 736.519 36.8054 737.222 36.2514C737.933 35.6903 738.465 34.9375 738.82 33.9929C739.183 33.0412 739.364 31.983 739.364 30.8182C739.364 29.6676 739.186 28.6307 738.831 27.7074C738.483 26.777 737.954 26.0419 737.244 25.5021C736.541 24.9553 735.656 24.6818 734.591 24.6818C733.568 24.6818 732.709 24.9411 732.013 25.4595C731.317 25.9709 730.791 26.6882 730.436 27.6115C730.081 28.5277 729.904 29.5966 729.904 30.8182ZM752.574 39.3409C750.997 39.3409 749.637 38.9929 748.494 38.2969C747.357 37.5938 746.48 36.6136 745.862 35.3565C745.252 34.0923 744.946 32.6222 744.946 30.946C744.946 29.2699 745.252 27.7926 745.862 26.5142C746.48 25.2287 747.34 24.2273 748.441 23.5099C749.548 22.7855 750.841 22.4233 752.318 22.4233C753.171 22.4233 754.012 22.5653 754.843 22.8494C755.674 23.1335 756.431 23.5952 757.112 24.2344C757.794 24.8665 758.338 25.7045 758.742 26.7486C759.147 27.7926 759.35 29.0781 759.35 30.6051V31.6705H746.736V29.4972H756.793C756.793 28.5739 756.608 27.75 756.239 27.0256C755.877 26.3011 755.358 25.7294 754.683 25.3104C754.016 24.8913 753.227 24.6818 752.318 24.6818C751.317 24.6818 750.45 24.9304 749.719 25.4276C748.994 25.9176 748.437 26.5568 748.046 27.3452C747.656 28.1335 747.46 28.9787 747.46 29.8807V31.3295C747.46 32.5653 747.673 33.6129 748.1 34.4723C748.533 35.3246 749.133 35.9744 749.9 36.4219C750.667 36.8622 751.558 37.0824 752.574 37.0824C753.235 37.0824 753.831 36.9901 754.364 36.8054C754.904 36.6136 755.369 36.3295 755.759 35.9531C756.15 35.5696 756.452 35.0937 756.665 34.5256L759.094 35.2074C758.838 36.0312 758.409 36.7557 757.805 37.3807C757.201 37.9986 756.455 38.4815 755.568 38.8295C754.68 39.1705 753.682 39.3409 752.574 39.3409ZM769.353 39.3409C767.99 39.3409 766.786 38.9964 765.742 38.3075C764.698 37.6115 763.881 36.6314 763.291 35.3672C762.702 34.0959 762.407 32.5938 762.407 30.8608C762.407 29.142 762.702 27.6506 763.291 26.3864C763.881 25.1222 764.701 24.1456 765.752 23.4567C766.803 22.7678 768.018 22.4233 769.396 22.4233C770.461 22.4233 771.303 22.6009 771.921 22.956C772.546 23.304 773.021 23.7017 773.348 24.1491C773.682 24.5895 773.941 24.9517 774.126 25.2358H774.339V17.1818H776.853V39H774.424V36.4858H774.126C773.941 36.7841 773.678 37.1605 773.338 37.6151C772.997 38.0625 772.51 38.4638 771.878 38.8189C771.246 39.1669 770.404 39.3409 769.353 39.3409ZM769.694 37.0824C770.703 37.0824 771.555 36.8196 772.251 36.294C772.947 35.7614 773.476 35.0263 773.838 34.0888C774.2 33.1442 774.382 32.054 774.382 30.8182C774.382 29.5966 774.204 28.5277 773.849 27.6115C773.494 26.6882 772.968 25.9709 772.272 25.4595C771.576 24.9411 770.717 24.6818 769.694 24.6818C768.629 24.6818 767.741 24.9553 767.031 25.5021C766.328 26.0419 765.798 26.777 765.443 27.7074C765.095 28.6307 764.921 29.6676 764.921 30.8182C764.921 31.983 765.099 33.0412 765.454 33.9929C765.816 34.9375 766.349 35.6903 767.052 36.2514C767.762 36.8054 768.643 37.0824 769.694 37.0824ZM781.807 39V22.6364H784.321V39H781.807ZM783.085 19.9091C782.595 19.9091 782.173 19.7422 781.818 19.4084C781.47 19.0746 781.296 18.6733 781.296 18.2045C781.296 17.7358 781.47 17.3345 781.818 17.0007C782.173 16.6669 782.595 16.5 783.085 16.5C783.575 16.5 783.994 16.6669 784.343 17.0007C784.698 17.3345 784.875 17.7358 784.875 18.2045C784.875 18.6733 784.698 19.0746 784.343 19.4084C783.994 19.7422 783.575 19.9091 783.085 19.9091ZM796.043 22.6364V24.767H787.562V22.6364H796.043ZM790.034 18.7159H792.548V34.3125C792.548 35.0227 792.651 35.5554 792.857 35.9105C793.07 36.2585 793.34 36.4929 793.667 36.6136C794.001 36.7273 794.352 36.7841 794.722 36.7841C794.999 36.7841 795.226 36.7699 795.403 36.7415C795.581 36.706 795.723 36.6776 795.83 36.6562L796.341 38.9148C796.17 38.9787 795.933 39.0426 795.627 39.1065C795.322 39.1776 794.935 39.2131 794.466 39.2131C793.756 39.2131 793.06 39.0604 792.378 38.755C791.703 38.4496 791.142 37.9844 790.695 37.3594C790.254 36.7344 790.034 35.946 790.034 34.9943V18.7159ZM799.825 39V22.6364H802.339V39H799.825ZM801.103 19.9091C800.613 19.9091 800.19 19.7422 799.835 19.4084C799.487 19.0746 799.313 18.6733 799.313 18.2045C799.313 17.7358 799.487 17.3345 799.835 17.0007C800.19 16.6669 800.613 16.5 801.103 16.5C801.593 16.5 802.012 16.6669 802.36 17.0007C802.715 17.3345 802.893 17.7358 802.893 18.2045C802.893 18.6733 802.715 19.0746 802.36 19.4084C802.012 19.7422 801.593 19.9091 801.103 19.9091ZM813.591 39.3409C812.114 39.3409 810.818 38.9893 809.703 38.2862C808.595 37.5831 807.729 36.5994 807.104 35.3352C806.486 34.071 806.177 32.5937 806.177 30.9034C806.177 29.1989 806.486 27.7109 807.104 26.4396C807.729 25.1683 808.595 24.1811 809.703 23.478C810.818 22.7749 812.114 22.4233 813.591 22.4233C815.069 22.4233 816.361 22.7749 817.469 23.478C818.584 24.1811 819.451 25.1683 820.069 26.4396C820.694 27.7109 821.006 29.1989 821.006 30.9034C821.006 32.5937 820.694 34.071 820.069 35.3352C819.451 36.5994 818.584 37.5831 817.469 38.2862C816.361 38.9893 815.069 39.3409 813.591 39.3409ZM813.591 37.0824C814.714 37.0824 815.637 36.7947 816.361 36.2195C817.086 35.6442 817.622 34.8878 817.97 33.9503C818.318 33.0128 818.492 31.9972 818.492 30.9034C818.492 29.8097 818.318 28.7905 817.97 27.8459C817.622 26.9013 817.086 26.1378 816.361 25.5554C815.637 24.973 814.714 24.6818 813.591 24.6818C812.469 24.6818 811.546 24.973 810.822 25.5554C810.097 26.1378 809.561 26.9013 809.213 27.8459C808.865 28.7905 808.691 29.8097 808.691 30.9034C808.691 31.9972 808.865 33.0128 809.213 33.9503C809.561 34.8878 810.097 35.6442 810.822 36.2195C811.546 36.7947 812.469 37.0824 813.591 37.0824ZM827.358 29.1562V39H824.844V22.6364H827.273V25.1932H827.486C827.87 24.3622 828.452 23.6946 829.233 23.1903C830.015 22.679 831.023 22.4233 832.259 22.4233C833.367 22.4233 834.336 22.6506 835.167 23.1051C835.998 23.5526 836.645 24.2344 837.106 25.1506C837.568 26.0597 837.799 27.2102 837.799 28.6023V39H835.284V28.7727C835.284 27.4872 834.951 26.4858 834.283 25.7685C833.615 25.044 832.699 24.6818 831.534 24.6818C830.732 24.6818 830.015 24.8558 829.382 25.2038C828.757 25.5518 828.264 26.0597 827.902 26.7273C827.539 27.3949 827.358 28.2045 827.358 29.1562ZM853.984 26.3011L851.725 26.9403C851.583 26.5639 851.374 26.1982 851.097 25.843C850.827 25.4808 850.458 25.1825 849.989 24.9482C849.52 24.7138 848.92 24.5966 848.188 24.5966C847.187 24.5966 846.352 24.8274 845.685 25.2891C845.024 25.7436 844.694 26.3224 844.694 27.0256C844.694 27.6506 844.921 28.1442 845.376 28.5064C845.83 28.8686 846.541 29.1705 847.507 29.4119L849.936 30.0085C851.399 30.3636 852.489 30.907 853.206 31.6385C853.923 32.3629 854.282 33.2969 854.282 34.4403C854.282 35.3778 854.012 36.2159 853.472 36.9545C852.94 37.6932 852.194 38.2756 851.235 38.7017C850.276 39.1278 849.161 39.3409 847.89 39.3409C846.221 39.3409 844.84 38.9787 843.746 38.2543C842.652 37.5298 841.96 36.4716 841.669 35.0795L844.055 34.483C844.282 35.3636 844.712 36.0241 845.344 36.4645C845.983 36.9048 846.818 37.125 847.847 37.125C849.019 37.125 849.95 36.8764 850.639 36.3793C851.335 35.875 851.683 35.2713 851.683 34.5682C851.683 34 851.484 33.5241 851.086 33.1406C850.688 32.75 850.078 32.4588 849.254 32.267L846.526 31.6278C845.028 31.2727 843.927 30.7223 843.224 29.9766C842.528 29.2237 842.18 28.2827 842.18 27.1534C842.18 26.2301 842.439 25.4134 842.958 24.7031C843.483 23.9929 844.197 23.4354 845.099 23.0305C846.008 22.6257 847.038 22.4233 848.188 22.4233C849.808 22.4233 851.079 22.7784 852.002 23.4886C852.933 24.1989 853.593 25.1364 853.984 26.3011Z" fill="white"/>
<path d="M888.642 39V17.1818H901.81V19.5256H891.284V26.8977H901.128V29.2415H891.284V36.6562H901.98V39H888.642ZM919.612 22.6364L913.56 39H911.004L904.952 22.6364H907.68L912.197 35.6761H912.367L916.884 22.6364H919.612ZM929.205 39.3409C927.628 39.3409 926.268 38.9929 925.125 38.2969C923.988 37.5938 923.111 36.6136 922.493 35.3565C921.882 34.0923 921.577 32.6222 921.577 30.946C921.577 29.2699 921.882 27.7926 922.493 26.5142C923.111 25.2287 923.971 24.2273 925.071 23.5099C926.179 22.7855 927.472 22.4233 928.949 22.4233C929.801 22.4233 930.643 22.5653 931.474 22.8494C932.305 23.1335 933.061 23.5952 933.743 24.2344C934.425 24.8665 934.968 25.7045 935.373 26.7486C935.778 27.7926 935.98 29.0781 935.98 30.6051V31.6705H923.367V29.4972H933.424C933.424 28.5739 933.239 27.75 932.87 27.0256C932.507 26.3011 931.989 25.7294 931.314 25.3104C930.647 24.8913 929.858 24.6818 928.949 24.6818C927.948 24.6818 927.081 24.9304 926.35 25.4276C925.625 25.9176 925.068 26.5568 924.677 27.3452C924.287 28.1335 924.091 28.9787 924.091 29.8807V31.3295C924.091 32.5653 924.304 33.6129 924.73 34.4723C925.164 35.3246 925.764 35.9744 926.531 36.4219C927.298 36.8622 928.189 37.0824 929.205 37.0824C929.865 37.0824 930.462 36.9901 930.995 36.8054C931.534 36.6136 932 36.3295 932.39 35.9531C932.781 35.5696 933.083 35.0937 933.296 34.5256L935.725 35.2074C935.469 36.0312 935.039 36.7557 934.436 37.3807C933.832 37.9986 933.086 38.4815 932.199 38.8295C931.311 39.1705 930.313 39.3409 929.205 39.3409ZM942.319 29.1562V39H939.805V22.6364H942.234V25.1932H942.447C942.831 24.3622 943.413 23.6946 944.194 23.1903C944.975 22.679 945.984 22.4233 947.22 22.4233C948.328 22.4233 949.297 22.6506 950.128 23.1051C950.959 23.5526 951.605 24.2344 952.067 25.1506C952.529 26.0597 952.76 27.2102 952.76 28.6023V39H950.245V28.7727C950.245 27.4872 949.912 26.4858 949.244 25.7685C948.576 25.044 947.66 24.6818 946.495 24.6818C945.693 24.6818 944.975 24.8558 944.343 25.2038C943.718 25.5518 943.225 26.0597 942.863 26.7273C942.5 27.3949 942.319 28.2045 942.319 29.1562ZM964.47 22.6364V24.767H955.99V22.6364H964.47ZM958.462 18.7159H960.976V34.3125C960.976 35.0227 961.079 35.5554 961.285 35.9105C961.498 36.2585 961.768 36.4929 962.095 36.6136C962.428 36.7273 962.78 36.7841 963.149 36.7841C963.426 36.7841 963.654 36.7699 963.831 36.7415C964.009 36.706 964.151 36.6776 964.257 36.6562L964.769 38.9148C964.598 38.9787 964.36 39.0426 964.055 39.1065C963.749 39.1776 963.362 39.2131 962.894 39.2131C962.183 39.2131 961.487 39.0604 960.806 38.755C960.131 38.4496 959.57 37.9844 959.122 37.3594C958.682 36.7344 958.462 35.946 958.462 34.9943V18.7159ZM979.55 26.3011L977.292 26.9403C977.15 26.5639 976.94 26.1982 976.663 25.843C976.393 25.4808 976.024 25.1825 975.555 24.9482C975.086 24.7138 974.486 24.5966 973.755 24.5966C972.753 24.5966 971.919 24.8274 971.251 25.2891C970.591 25.7436 970.26 26.3224 970.26 27.0256C970.26 27.6506 970.488 28.1442 970.942 28.5064C971.397 28.8686 972.107 29.1705 973.073 29.4119L975.502 30.0085C976.965 30.3636 978.055 30.907 978.773 31.6385C979.49 32.3629 979.849 33.2969 979.849 34.4403C979.849 35.3778 979.579 36.2159 979.039 36.9545C978.506 37.6932 977.76 38.2756 976.802 38.7017C975.843 39.1278 974.728 39.3409 973.456 39.3409C971.787 39.3409 970.406 38.9787 969.312 38.2543C968.219 37.5298 967.526 36.4716 967.235 35.0795L969.621 34.483C969.849 35.3636 970.278 36.0241 970.91 36.4645C971.55 36.9048 972.384 37.125 973.414 37.125C974.586 37.125 975.516 36.8764 976.205 36.3793C976.901 35.875 977.249 35.2713 977.249 34.5682C977.249 34 977.05 33.5241 976.653 33.1406C976.255 32.75 975.644 32.4588 974.82 32.267L972.093 31.6278C970.594 31.2727 969.493 30.7223 968.79 29.9766C968.094 29.2237 967.746 28.2827 967.746 27.1534C967.746 26.2301 968.006 25.4134 968.524 24.7031C969.05 23.9929 969.763 23.4354 970.665 23.0305C971.574 22.6257 972.604 22.4233 973.755 22.4233C975.374 22.4233 976.645 22.7784 977.569 23.4886C978.499 24.1989 979.16 25.1364 979.55 26.3011Z" fill="white"/>
<path d="M1015.54 39H1012.77L1020.78 17.1818H1023.51L1031.52 39H1028.75L1022.23 20.6335H1022.06L1015.54 39ZM1016.56 30.4773H1027.72V32.821H1016.56V30.4773ZM1034.92 39V17.1818H1037.43V25.2358H1037.64C1037.83 24.9517 1038.08 24.5895 1038.41 24.1491C1038.74 23.7017 1039.22 23.304 1039.84 22.956C1040.46 22.6009 1041.31 22.4233 1042.37 22.4233C1043.75 22.4233 1044.97 22.7678 1046.02 23.4567C1047.07 24.1456 1047.89 25.1222 1048.48 26.3864C1049.07 27.6506 1049.36 29.142 1049.36 30.8608C1049.36 32.5938 1049.07 34.0959 1048.48 35.3672C1047.89 36.6314 1047.07 37.6115 1046.03 38.3075C1044.98 38.9964 1043.78 39.3409 1042.42 39.3409C1041.36 39.3409 1040.52 39.1669 1039.89 38.8189C1039.26 38.4638 1038.77 38.0625 1038.43 37.6151C1038.09 37.1605 1037.83 36.7841 1037.64 36.4858H1037.34V39H1034.92ZM1037.39 30.8182C1037.39 32.054 1037.57 33.1442 1037.93 34.0888C1038.29 35.0263 1038.82 35.7614 1039.52 36.294C1040.21 36.8196 1041.07 37.0824 1042.07 37.0824C1043.13 37.0824 1044 36.8054 1044.71 36.2514C1045.42 35.6903 1045.95 34.9375 1046.3 33.9929C1046.67 33.0412 1046.85 31.983 1046.85 30.8182C1046.85 29.6676 1046.67 28.6307 1046.31 27.7074C1045.97 26.777 1045.44 26.0419 1044.73 25.5021C1044.02 24.9553 1043.14 24.6818 1042.07 24.6818C1041.05 24.6818 1040.19 24.9411 1039.5 25.4595C1038.8 25.9709 1038.27 26.6882 1037.92 27.6115C1037.56 28.5277 1037.39 29.5966 1037.39 30.8182ZM1059.86 39.3409C1058.38 39.3409 1057.08 38.9893 1055.97 38.2862C1054.86 37.5831 1053.99 36.5994 1053.37 35.3352C1052.75 34.071 1052.44 32.5937 1052.44 30.9034C1052.44 29.1989 1052.75 27.7109 1053.37 26.4396C1053.99 25.1683 1054.86 24.1811 1055.97 23.478C1057.08 22.7749 1058.38 22.4233 1059.86 22.4233C1061.33 22.4233 1062.63 22.7749 1063.73 23.478C1064.85 24.1811 1065.71 25.1683 1066.33 26.4396C1066.96 27.7109 1067.27 29.1989 1067.27 30.9034C1067.27 32.5937 1066.96 34.071 1066.33 35.3352C1065.71 36.5994 1064.85 37.5831 1063.73 38.2862C1062.63 38.9893 1061.33 39.3409 1059.86 39.3409ZM1059.86 37.0824C1060.98 37.0824 1061.9 36.7947 1062.62 36.2195C1063.35 35.6442 1063.89 34.8878 1064.23 33.9503C1064.58 33.0128 1064.76 31.9972 1064.76 30.9034C1064.76 29.8097 1064.58 28.7905 1064.23 27.8459C1063.89 26.9013 1063.35 26.1378 1062.62 25.5554C1061.9 24.973 1060.98 24.6818 1059.86 24.6818C1058.73 24.6818 1057.81 24.973 1057.09 25.5554C1056.36 26.1378 1055.82 26.9013 1055.48 27.8459C1055.13 28.7905 1054.95 29.8097 1054.95 30.9034C1054.95 31.9972 1055.13 33.0128 1055.48 33.9503C1055.82 34.8878 1056.36 35.6442 1057.09 36.2195C1057.81 36.7947 1058.73 37.0824 1059.86 37.0824ZM1081.42 32.3097V22.6364H1083.93V39H1081.42V36.2301H1081.25C1080.87 37.0611 1080.27 37.7678 1079.46 38.3501C1078.65 38.9254 1077.63 39.2131 1076.39 39.2131C1075.37 39.2131 1074.46 38.9893 1073.66 38.5419C1072.87 38.0874 1072.24 37.4055 1071.79 36.4964C1071.34 35.5803 1071.11 34.4261 1071.11 33.0341V22.6364H1073.62V32.8636C1073.62 34.0568 1073.96 35.0085 1074.62 35.7188C1075.3 36.429 1076.16 36.7841 1077.2 36.7841C1077.83 36.7841 1078.46 36.6243 1079.11 36.3047C1079.76 35.9851 1080.31 35.495 1080.75 34.8345C1081.2 34.174 1081.42 33.3324 1081.42 32.3097ZM1095.66 22.6364V24.767H1087.18V22.6364H1095.66ZM1089.65 18.7159H1092.16V34.3125C1092.16 35.0227 1092.26 35.5554 1092.47 35.9105C1092.68 36.2585 1092.95 36.4929 1093.28 36.6136C1093.61 36.7273 1093.97 36.7841 1094.33 36.7841C1094.61 36.7841 1094.84 36.7699 1095.02 36.7415C1095.19 36.706 1095.34 36.6776 1095.44 36.6562L1095.95 38.9148C1095.78 38.9787 1095.55 39.0426 1095.24 39.1065C1094.94 39.1776 1094.55 39.2131 1094.08 39.2131C1093.37 39.2131 1092.67 39.0604 1091.99 38.755C1091.32 38.4496 1090.76 37.9844 1090.31 37.3594C1089.87 36.7344 1089.65 35.946 1089.65 34.9943V18.7159Z" fill="white"/>
<path d="M1142.57 22.6364C1142.45 21.5568 1141.93 20.7188 1141.02 20.1222C1140.11 19.5256 1138.99 19.2273 1137.67 19.2273C1136.71 19.2273 1135.86 19.3835 1135.14 19.696C1134.42 20.0085 1133.86 20.4382 1133.45 20.9851C1133.06 21.532 1132.86 22.1534 1132.86 22.8494C1132.86 23.4318 1133 23.9325 1133.27 24.3516C1133.56 24.7635 1133.92 25.108 1134.36 25.3849C1134.8 25.6548 1135.26 25.8786 1135.75 26.0561C1136.23 26.2266 1136.67 26.3651 1137.08 26.4716L1139.29 27.0682C1139.86 27.2173 1140.49 27.4233 1141.19 27.6861C1141.89 27.9489 1142.56 28.3075 1143.2 28.7621C1143.85 29.2095 1144.38 29.7848 1144.8 30.4879C1145.22 31.1911 1145.43 32.054 1145.43 33.0767C1145.43 34.2557 1145.12 35.321 1144.5 36.2727C1143.89 37.2244 1143 37.9808 1141.82 38.5419C1140.65 39.103 1139.22 39.3835 1137.55 39.3835C1135.98 39.3835 1134.63 39.1314 1133.49 38.6271C1132.35 38.1229 1131.46 37.4197 1130.8 36.5178C1130.16 35.6158 1129.79 34.5682 1129.7 33.375H1132.43C1132.5 34.1989 1132.78 34.8807 1133.26 35.4205C1133.75 35.9531 1134.37 36.3509 1135.12 36.6136C1135.87 36.8693 1136.68 36.9972 1137.55 36.9972C1138.55 36.9972 1139.46 36.8338 1140.26 36.5071C1141.06 36.1733 1141.7 35.7116 1142.17 35.1222C1142.64 34.5256 1142.87 33.8295 1142.87 33.0341C1142.87 32.3097 1142.67 31.7202 1142.26 31.2656C1141.86 30.8111 1141.33 30.4418 1140.67 30.1577C1140.01 29.8736 1139.29 29.625 1138.53 29.4119L1135.84 28.6449C1134.14 28.1548 1132.79 27.4553 1131.79 26.5462C1130.8 25.6371 1130.3 24.4474 1130.3 22.9773C1130.3 21.7557 1130.63 20.6903 1131.29 19.7812C1131.96 18.8651 1132.85 18.1548 1133.98 17.6506C1135.11 17.1392 1136.37 16.8835 1137.76 16.8835C1139.16 16.8835 1140.41 17.1357 1141.51 17.6399C1142.6 18.1371 1143.47 18.8189 1144.11 19.6854C1144.75 20.5518 1145.1 21.5355 1145.13 22.6364H1142.57ZM1151.95 29.1562V39H1149.43V17.1818H1151.95V25.1932H1152.16C1152.54 24.348 1153.12 23.6768 1153.89 23.1797C1154.66 22.6754 1155.69 22.4233 1156.97 22.4233C1158.09 22.4233 1159.07 22.647 1159.9 23.0945C1160.74 23.5348 1161.39 24.2131 1161.85 25.1293C1162.32 26.0384 1162.56 27.196 1162.56 28.6023V39H1160.04V28.7727C1160.04 27.473 1159.71 26.468 1159.03 25.7578C1158.36 25.0405 1157.44 24.6818 1156.25 24.6818C1155.43 24.6818 1154.69 24.8558 1154.03 25.2038C1153.39 25.5518 1152.88 26.0597 1152.5 26.7273C1152.13 27.3949 1151.95 28.2045 1151.95 29.1562ZM1173.8 39.3409C1172.33 39.3409 1171.03 38.9893 1169.92 38.2862C1168.81 37.5831 1167.94 36.5994 1167.32 35.3352C1166.7 34.071 1166.39 32.5937 1166.39 30.9034C1166.39 29.1989 1166.7 27.7109 1167.32 26.4396C1167.94 25.1683 1168.81 24.1811 1169.92 23.478C1171.03 22.7749 1172.33 22.4233 1173.8 22.4233C1175.28 22.4233 1176.57 22.7749 1177.68 23.478C1178.8 24.1811 1179.66 25.1683 1180.28 26.4396C1180.91 27.7109 1181.22 29.1989 1181.22 30.9034C1181.22 32.5937 1180.91 34.071 1180.28 35.3352C1179.66 36.5994 1178.8 37.5831 1177.68 38.2862C1176.57 38.9893 1175.28 39.3409 1173.8 39.3409ZM1173.8 37.0824C1174.93 37.0824 1175.85 36.7947 1176.57 36.2195C1177.3 35.6442 1177.83 34.8878 1178.18 33.9503C1178.53 33.0128 1178.7 31.9972 1178.7 30.9034C1178.7 29.8097 1178.53 28.7905 1178.18 27.8459C1177.83 26.9013 1177.3 26.1378 1176.57 25.5554C1175.85 24.973 1174.93 24.6818 1173.8 24.6818C1172.68 24.6818 1171.76 24.973 1171.03 25.5554C1170.31 26.1378 1169.77 26.9013 1169.43 27.8459C1169.08 28.7905 1168.9 29.8097 1168.9 30.9034C1168.9 31.9972 1169.08 33.0128 1169.43 33.9503C1169.77 34.8878 1170.31 35.6442 1171.03 36.2195C1171.76 36.7947 1172.68 37.0824 1173.8 37.0824ZM1185.06 45.1364V22.6364H1187.49V25.2358H1187.78C1187.97 24.9517 1188.22 24.5895 1188.55 24.1491C1188.89 23.7017 1189.36 23.304 1189.98 22.956C1190.6 22.6009 1191.45 22.4233 1192.51 22.4233C1193.89 22.4233 1195.11 22.7678 1196.16 23.4567C1197.21 24.1456 1198.03 25.1222 1198.62 26.3864C1199.21 27.6506 1199.5 29.142 1199.5 30.8608C1199.5 32.5938 1199.21 34.0959 1198.62 35.3672C1198.03 36.6314 1197.21 37.6115 1196.17 38.3075C1195.12 38.9964 1193.92 39.3409 1192.56 39.3409C1191.51 39.3409 1190.66 39.1669 1190.03 38.8189C1189.4 38.4638 1188.91 38.0625 1188.57 37.6151C1188.23 37.1605 1187.97 36.7841 1187.78 36.4858H1187.57V45.1364H1185.06ZM1187.53 30.8182C1187.53 32.054 1187.71 33.1442 1188.07 34.0888C1188.43 35.0263 1188.96 35.7614 1189.66 36.294C1190.36 36.8196 1191.21 37.0824 1192.22 37.0824C1193.27 37.0824 1194.14 36.8054 1194.85 36.2514C1195.56 35.6903 1196.09 34.9375 1196.45 33.9929C1196.81 33.0412 1196.99 31.983 1196.99 30.8182C1196.99 29.6676 1196.81 28.6307 1196.46 27.7074C1196.11 26.777 1195.58 26.0419 1194.87 25.5021C1194.17 24.9553 1193.28 24.6818 1192.22 24.6818C1191.19 24.6818 1190.33 24.9411 1189.64 25.4595C1188.94 25.9709 1188.42 26.6882 1188.06 27.6115C1187.71 28.5277 1187.53 29.5966 1187.53 30.8182Z" fill="white"/>
<path d="M1234.64 17.1818H1237.8L1245.21 35.2926H1245.47L1252.88 17.1818H1256.03V39H1253.56V22.4233H1253.35L1246.53 39H1244.14L1237.33 22.4233H1237.11V39H1234.64V17.1818ZM1265.81 39.3835C1264.77 39.3835 1263.83 39.1882 1262.98 38.7976C1262.14 38.3999 1261.47 37.8281 1260.97 37.0824C1260.47 36.3295 1260.22 35.4205 1260.22 34.3551C1260.22 33.4176 1260.41 32.6577 1260.78 32.0753C1261.15 31.4858 1261.64 31.0241 1262.26 30.6903C1262.88 30.3565 1263.56 30.108 1264.3 29.9446C1265.06 29.7741 1265.81 29.6392 1266.57 29.5398C1267.57 29.4119 1268.37 29.3161 1268.99 29.2521C1269.62 29.1811 1270.07 29.0639 1270.35 28.9006C1270.65 28.7372 1270.79 28.4531 1270.79 28.0483V27.9631C1270.79 26.9119 1270.5 26.0952 1269.93 25.5128C1269.36 24.9304 1268.5 24.6392 1267.34 24.6392C1266.14 24.6392 1265.2 24.902 1264.52 25.4276C1263.84 25.9531 1263.36 26.5142 1263.08 27.1108L1260.69 26.2585C1261.12 25.2642 1261.69 24.4901 1262.4 23.9361C1263.11 23.375 1263.9 22.9844 1264.74 22.7642C1265.59 22.5369 1266.43 22.4233 1267.25 22.4233C1267.78 22.4233 1268.38 22.4872 1269.07 22.6151C1269.75 22.7358 1270.42 22.9879 1271.06 23.3714C1271.7 23.755 1272.24 24.3338 1272.67 25.108C1273.09 25.8821 1273.31 26.919 1273.31 28.2188V39H1270.79V36.7841H1270.66C1270.49 37.1392 1270.21 37.5192 1269.81 37.924C1269.41 38.3288 1268.88 38.6733 1268.22 38.9574C1267.56 39.2415 1266.76 39.3835 1265.81 39.3835ZM1266.19 37.125C1267.18 37.125 1268.02 36.9297 1268.7 36.5391C1269.39 36.1484 1269.91 35.6442 1270.26 35.0263C1270.61 34.4084 1270.79 33.7585 1270.79 33.0767V30.7756C1270.69 30.9034 1270.45 31.0206 1270.09 31.1271C1269.73 31.2266 1269.32 31.3153 1268.85 31.3935C1268.39 31.4645 1267.94 31.5284 1267.5 31.5852C1267.07 31.6349 1266.72 31.6776 1266.45 31.7131C1265.79 31.7983 1265.18 31.9368 1264.61 32.1286C1264.05 32.3132 1263.6 32.5937 1263.25 32.9702C1262.91 33.3395 1262.74 33.8437 1262.74 34.483C1262.74 35.3565 1263.06 36.017 1263.71 36.4645C1264.36 36.9048 1265.19 37.125 1266.19 37.125ZM1284.5 45.4773C1283.29 45.4773 1282.24 45.321 1281.37 45.0085C1280.49 44.7031 1279.77 44.2983 1279.18 43.794C1278.61 43.2969 1278.15 42.7642 1277.81 42.196L1279.81 40.7898C1280.04 41.0881 1280.33 41.429 1280.68 41.8125C1281.02 42.2031 1281.5 42.5405 1282.1 42.8246C1282.71 43.1158 1283.51 43.2614 1284.5 43.2614C1285.82 43.2614 1286.91 42.9418 1287.77 42.3026C1288.63 41.6634 1289.06 40.6619 1289.06 39.2983V35.9744H1288.85C1288.66 36.2727 1288.4 36.642 1288.06 37.0824C1287.72 37.5156 1287.24 37.9027 1286.61 38.2436C1285.98 38.5774 1285.14 38.7443 1284.07 38.7443C1282.75 38.7443 1281.57 38.4318 1280.52 37.8068C1279.47 37.1818 1278.64 36.2727 1278.03 35.0795C1277.43 33.8864 1277.13 32.4375 1277.13 30.733C1277.13 29.0568 1277.42 27.5973 1278.01 26.3544C1278.6 25.1044 1279.42 24.1385 1280.47 23.4567C1281.52 22.7678 1282.74 22.4233 1284.12 22.4233C1285.18 22.4233 1286.03 22.6009 1286.65 22.956C1287.28 23.304 1287.77 23.7017 1288.1 24.1491C1288.44 24.5895 1288.7 24.9517 1288.89 25.2358H1289.14V22.6364H1291.57V39.4688C1291.57 40.875 1291.25 42.0185 1290.62 42.8991C1289.98 43.7869 1289.13 44.4368 1288.06 44.8487C1286.99 45.2678 1285.81 45.4773 1284.5 45.4773ZM1284.41 36.4858C1285.42 36.4858 1286.28 36.255 1286.97 35.7933C1287.67 35.3317 1288.2 34.6676 1288.56 33.8011C1288.92 32.9347 1289.1 31.8977 1289.1 30.6903C1289.1 29.5114 1288.92 28.4709 1288.57 27.5689C1288.21 26.6669 1287.69 25.9602 1286.99 25.4489C1286.3 24.9375 1285.44 24.6818 1284.41 24.6818C1283.35 24.6818 1282.46 24.9517 1281.75 25.4915C1281.05 26.0312 1280.52 26.7557 1280.16 27.6648C1279.82 28.5739 1279.64 29.5824 1279.64 30.6903C1279.64 31.8267 1279.82 32.8317 1280.17 33.7053C1280.54 34.5717 1281.07 35.2536 1281.77 35.7507C1282.48 36.2408 1283.36 36.4858 1284.41 36.4858ZM1300.99 39.3835C1299.95 39.3835 1299.01 39.1882 1298.17 38.7976C1297.32 38.3999 1296.65 37.8281 1296.15 37.0824C1295.66 36.3295 1295.41 35.4205 1295.41 34.3551C1295.41 33.4176 1295.59 32.6577 1295.96 32.0753C1296.33 31.4858 1296.83 31.0241 1297.44 30.6903C1298.06 30.3565 1298.74 30.108 1299.49 29.9446C1300.24 29.7741 1301 29.6392 1301.76 29.5398C1302.75 29.4119 1303.56 29.3161 1304.18 29.2521C1304.8 29.1811 1305.26 29.0639 1305.54 28.9006C1305.83 28.7372 1305.98 28.4531 1305.98 28.0483V27.9631C1305.98 26.9119 1305.69 26.0952 1305.11 25.5128C1304.55 24.9304 1303.68 24.6392 1302.53 24.6392C1301.33 24.6392 1300.38 24.902 1299.7 25.4276C1299.02 25.9531 1298.54 26.5142 1298.26 27.1108L1295.88 26.2585C1296.3 25.2642 1296.87 24.4901 1297.58 23.9361C1298.3 23.375 1299.08 22.9844 1299.93 22.7642C1300.78 22.5369 1301.62 22.4233 1302.44 22.4233C1302.97 22.4233 1303.57 22.4872 1304.25 22.6151C1304.94 22.7358 1305.6 22.9879 1306.24 23.3714C1306.89 23.755 1307.43 24.3338 1307.85 25.108C1308.28 25.8821 1308.49 26.919 1308.49 28.2188V39H1305.98V36.7841H1305.85C1305.68 37.1392 1305.39 37.5192 1305 37.924C1304.6 38.3288 1304.07 38.6733 1303.41 38.9574C1302.75 39.2415 1301.94 39.3835 1300.99 39.3835ZM1301.38 37.125C1302.37 37.125 1303.21 36.9297 1303.89 36.5391C1304.58 36.1484 1305.1 35.6442 1305.44 35.0263C1305.8 34.4084 1305.98 33.7585 1305.98 33.0767V30.7756C1305.87 30.9034 1305.64 31.0206 1305.27 31.1271C1304.92 31.2266 1304.51 31.3153 1304.04 31.3935C1303.58 31.4645 1303.13 31.5284 1302.69 31.5852C1302.25 31.6349 1301.9 31.6776 1301.63 31.7131C1300.98 31.7983 1300.37 31.9368 1299.8 32.1286C1299.24 32.3132 1298.78 32.5937 1298.43 32.9702C1298.09 33.3395 1297.92 33.8437 1297.92 34.483C1297.92 35.3565 1298.25 36.017 1298.89 36.4645C1299.55 36.9048 1300.37 37.125 1301.38 37.125ZM1312.61 39V37.0824L1321.9 25.1506V24.9801H1312.91V22.6364H1325.14V24.6392L1316.11 36.4858V36.6562H1325.44V39H1312.61ZM1329.31 39V22.6364H1331.83V39H1329.31ZM1330.59 19.9091C1330.1 19.9091 1329.68 19.7422 1329.32 19.4084C1328.97 19.0746 1328.8 18.6733 1328.8 18.2045C1328.8 17.7358 1328.97 17.3345 1329.32 17.0007C1329.68 16.6669 1330.1 16.5 1330.59 16.5C1331.08 16.5 1331.5 16.6669 1331.85 17.0007C1332.2 17.3345 1332.38 17.7358 1332.38 18.2045C1332.38 18.6733 1332.2 19.0746 1331.85 19.4084C1331.5 19.7422 1331.08 19.9091 1330.59 19.9091ZM1338.94 29.1562V39H1336.43V22.6364H1338.86V25.1932H1339.07C1339.46 24.3622 1340.04 23.6946 1340.82 23.1903C1341.6 22.679 1342.61 22.4233 1343.84 22.4233C1344.95 22.4233 1345.92 22.6506 1346.75 23.1051C1347.58 23.5526 1348.23 24.2344 1348.69 25.1506C1349.15 26.0597 1349.38 27.2102 1349.38 28.6023V39H1346.87V28.7727C1346.87 27.4872 1346.54 26.4858 1345.87 25.7685C1345.2 25.044 1344.29 24.6818 1343.12 24.6818C1342.32 24.6818 1341.6 24.8558 1340.97 25.2038C1340.34 25.5518 1339.85 26.0597 1339.49 26.7273C1339.13 27.3949 1338.94 28.2045 1338.94 29.1562ZM1360.84 39.3409C1359.26 39.3409 1357.9 38.9929 1356.76 38.2969C1355.62 37.5938 1354.75 36.6136 1354.13 35.3565C1353.52 34.0923 1353.21 32.6222 1353.21 30.946C1353.21 29.2699 1353.52 27.7926 1354.13 26.5142C1354.75 25.2287 1355.61 24.2273 1356.71 23.5099C1357.81 22.7855 1359.11 22.4233 1360.58 22.4233C1361.44 22.4233 1362.28 22.5653 1363.11 22.8494C1363.94 23.1335 1364.7 23.5952 1365.38 24.2344C1366.06 24.8665 1366.6 25.7045 1367.01 26.7486C1367.41 27.7926 1367.62 29.0781 1367.62 30.6051V31.6705H1355V29.4972H1365.06C1365.06 28.5739 1364.87 27.75 1364.5 27.0256C1364.14 26.3011 1363.62 25.7294 1362.95 25.3104C1362.28 24.8913 1361.49 24.6818 1360.58 24.6818C1359.58 24.6818 1358.72 24.9304 1357.98 25.4276C1357.26 25.9176 1356.7 26.5568 1356.31 27.3452C1355.92 28.1335 1355.73 28.9787 1355.73 29.8807V31.3295C1355.73 32.5653 1355.94 33.6129 1356.37 34.4723C1356.8 35.3246 1357.4 35.9744 1358.17 36.4219C1358.93 36.8622 1359.82 37.0824 1360.84 37.0824C1361.5 37.0824 1362.1 36.9901 1362.63 36.8054C1363.17 36.6136 1363.63 36.3295 1364.03 35.9531C1364.42 35.5696 1364.72 35.0937 1364.93 34.5256L1367.36 35.2074C1367.1 36.0312 1366.67 36.7557 1366.07 37.3807C1365.47 37.9986 1364.72 38.4815 1363.83 38.8295C1362.95 39.1705 1361.95 39.3409 1360.84 39.3409Z" fill="white"/>
<line x1="689" y1="45.5" x2="856" y2="45.5" stroke="white"/>
<rect width="1260" height="618" transform="translate(90 231)" fill="#A5A5A5"/>
<path d="M102.122 812H100.46L105.267 798.909H106.903L111.71 812H110.048L106.136 800.98H106.034L102.122 812ZM102.736 806.886H109.435V808.293H102.736V806.886ZM113.545 812V802.182H115.002V803.665H115.104C115.283 803.179 115.607 802.785 116.076 802.482C116.545 802.18 117.073 802.028 117.661 802.028C117.772 802.028 117.911 802.031 118.077 802.035C118.243 802.039 118.369 802.045 118.454 802.054V803.588C118.403 803.575 118.286 803.556 118.102 803.531C117.923 803.501 117.734 803.486 117.533 803.486C117.056 803.486 116.63 803.586 116.255 803.786C115.884 803.982 115.59 804.255 115.373 804.604C115.16 804.95 115.053 805.344 115.053 805.787V812H113.545ZM125.127 802.182V803.46H120.039V802.182H125.127ZM121.522 799.83H123.031V809.188C123.031 809.614 123.092 809.933 123.216 810.146C123.344 810.355 123.506 810.496 123.702 810.568C123.902 810.636 124.113 810.67 124.335 810.67C124.501 810.67 124.637 810.662 124.744 810.645C124.85 810.624 124.935 810.607 124.999 810.594L125.306 811.949C125.204 811.987 125.061 812.026 124.878 812.064C124.695 812.107 124.462 812.128 124.181 812.128C123.755 812.128 123.337 812.036 122.928 811.853C122.523 811.67 122.187 811.391 121.918 811.016C121.654 810.641 121.522 810.168 121.522 809.597V799.83ZM127.396 812V802.182H128.905V812H127.396ZM128.163 800.545C127.869 800.545 127.616 800.445 127.403 800.245C127.194 800.045 127.089 799.804 127.089 799.523C127.089 799.241 127.194 799.001 127.403 798.8C127.616 798.6 127.869 798.5 128.163 798.5C128.457 798.5 128.709 798.6 128.918 798.8C129.131 799.001 129.237 799.241 129.237 799.523C129.237 799.804 129.131 800.045 128.918 800.245C128.709 800.445 128.457 800.545 128.163 800.545ZM138.622 804.381L137.267 804.764C137.182 804.538 137.056 804.319 136.89 804.106C136.728 803.888 136.507 803.71 136.225 803.569C135.944 803.428 135.584 803.358 135.145 803.358C134.544 803.358 134.044 803.496 133.643 803.773C133.247 804.046 133.048 804.393 133.048 804.815C133.048 805.19 133.185 805.487 133.458 805.704C133.73 805.921 134.156 806.102 134.736 806.247L136.193 806.605C137.071 806.818 137.725 807.144 138.156 807.583C138.586 808.018 138.801 808.578 138.801 809.264C138.801 809.827 138.639 810.33 138.316 810.773C137.996 811.216 137.548 811.565 136.973 811.821C136.398 812.077 135.729 812.205 134.966 812.205C133.965 812.205 133.136 811.987 132.48 811.553C131.823 811.118 131.408 810.483 131.233 809.648L132.665 809.29C132.801 809.818 133.059 810.214 133.438 810.479C133.822 810.743 134.323 810.875 134.941 810.875C135.644 810.875 136.202 810.726 136.615 810.428C137.033 810.125 137.242 809.763 137.242 809.341C137.242 809 137.122 808.714 136.884 808.484C136.645 808.25 136.279 808.075 135.784 807.96L134.148 807.577C133.249 807.364 132.588 807.033 132.166 806.586C131.749 806.134 131.54 805.57 131.54 804.892C131.54 804.338 131.695 803.848 132.007 803.422C132.322 802.996 132.75 802.661 133.291 802.418C133.837 802.175 134.455 802.054 135.145 802.054C136.117 802.054 136.879 802.267 137.433 802.693C137.992 803.119 138.388 803.682 138.622 804.381ZM145.342 802.182V803.46H140.254V802.182H145.342ZM141.737 799.83H143.245V809.188C143.245 809.614 143.307 809.933 143.431 810.146C143.559 810.355 143.721 810.496 143.917 810.568C144.117 810.636 144.328 810.67 144.549 810.67C144.716 810.67 144.852 810.662 144.958 810.645C145.065 810.624 145.15 810.607 145.214 810.594L145.521 811.949C145.419 811.987 145.276 812.026 145.093 812.064C144.909 812.107 144.677 812.128 144.396 812.128C143.97 812.128 143.552 812.036 143.143 811.853C142.738 811.67 142.402 811.391 142.133 811.016C141.869 810.641 141.737 810.168 141.737 809.597V799.83ZM163.259 798.909V812H161.725L154.591 801.722H154.463V812H152.878V798.909H154.412L161.571 809.213H161.699V798.909H163.259ZM169.116 812.23C168.493 812.23 167.929 812.113 167.422 811.879C166.915 811.64 166.512 811.297 166.214 810.849C165.915 810.398 165.766 809.852 165.766 809.213C165.766 808.651 165.877 808.195 166.099 807.845C166.32 807.491 166.616 807.214 166.987 807.014C167.358 806.814 167.767 806.665 168.214 806.567C168.666 806.464 169.12 806.384 169.576 806.324C170.172 806.247 170.656 806.19 171.027 806.151C171.402 806.109 171.675 806.038 171.845 805.94C172.02 805.842 172.107 805.672 172.107 805.429V805.378C172.107 804.747 171.934 804.257 171.589 803.908C171.248 803.558 170.731 803.384 170.036 803.384C169.316 803.384 168.751 803.541 168.342 803.857C167.933 804.172 167.645 804.509 167.479 804.866L166.047 804.355C166.303 803.759 166.644 803.294 167.07 802.962C167.501 802.625 167.969 802.391 168.476 802.259C168.988 802.122 169.491 802.054 169.985 802.054C170.3 802.054 170.662 802.092 171.072 802.169C171.485 802.241 171.883 802.393 172.267 802.623C172.655 802.853 172.976 803.2 173.232 803.665C173.488 804.129 173.616 804.751 173.616 805.531V812H172.107V810.67H172.03C171.928 810.884 171.758 811.112 171.519 811.354C171.28 811.597 170.963 811.804 170.567 811.974C170.17 812.145 169.687 812.23 169.116 812.23ZM169.346 810.875C169.942 810.875 170.445 810.758 170.854 810.523C171.268 810.289 171.579 809.987 171.787 809.616C172.001 809.245 172.107 808.855 172.107 808.446V807.065C172.043 807.142 171.903 807.212 171.685 807.276C171.472 807.336 171.225 807.389 170.944 807.436C170.667 807.479 170.396 807.517 170.132 807.551C169.872 807.581 169.661 807.607 169.499 807.628C169.107 807.679 168.741 807.762 168.4 807.877C168.063 807.988 167.79 808.156 167.581 808.382C167.377 808.604 167.275 808.906 167.275 809.29C167.275 809.814 167.469 810.21 167.856 810.479C168.248 810.743 168.745 810.875 169.346 810.875ZM176.369 812V802.182H177.826V803.716H177.954C178.159 803.192 178.489 802.785 178.945 802.495C179.401 802.201 179.949 802.054 180.588 802.054C181.235 802.054 181.775 802.201 182.205 802.495C182.64 802.785 182.978 803.192 183.221 803.716H183.324C183.575 803.209 183.952 802.806 184.455 802.508C184.958 802.205 185.561 802.054 186.264 802.054C187.142 802.054 187.86 802.329 188.418 802.879C188.976 803.424 189.255 804.274 189.255 805.429V812H187.747V805.429C187.747 804.705 187.549 804.187 187.152 803.876C186.756 803.565 186.289 803.409 185.752 803.409C185.062 803.409 184.527 803.618 184.148 804.036C183.769 804.449 183.579 804.973 183.579 805.608V812H182.045V805.276C182.045 804.717 181.864 804.268 181.502 803.927C181.14 803.582 180.673 803.409 180.102 803.409C179.71 803.409 179.343 803.513 179.002 803.722C178.666 803.931 178.393 804.221 178.184 804.592C177.98 804.958 177.877 805.382 177.877 805.864V812H176.369ZM196.13 812.205C195.184 812.205 194.368 811.996 193.682 811.578C193 811.156 192.474 810.568 192.103 809.814C191.737 809.055 191.553 808.173 191.553 807.168C191.553 806.162 191.737 805.276 192.103 804.509C192.474 803.737 192.989 803.136 193.65 802.706C194.315 802.271 195.09 802.054 195.977 802.054C196.488 802.054 196.993 802.139 197.491 802.31C197.99 802.48 198.444 802.757 198.853 803.141C199.262 803.52 199.588 804.023 199.831 804.649C200.074 805.276 200.195 806.047 200.195 806.963V807.602H192.627V806.298H198.661C198.661 805.744 198.55 805.25 198.329 804.815C198.112 804.381 197.8 804.038 197.396 803.786C196.995 803.535 196.522 803.409 195.977 803.409C195.376 803.409 194.856 803.558 194.417 803.857C193.982 804.151 193.648 804.534 193.413 805.007C193.179 805.48 193.062 805.987 193.062 806.528V807.398C193.062 808.139 193.19 808.768 193.445 809.283C193.705 809.795 194.065 810.185 194.526 810.453C194.986 810.717 195.521 810.849 196.13 810.849C196.526 810.849 196.884 810.794 197.204 810.683C197.528 810.568 197.807 810.398 198.041 810.172C198.276 809.942 198.457 809.656 198.585 809.315L200.042 809.724C199.888 810.219 199.631 810.653 199.268 811.028C198.906 811.399 198.459 811.689 197.926 811.898C197.393 812.102 196.795 812.205 196.13 812.205Z" fill="black"/>
<path d="M101.321 835V824.091H107.905V825.263H102.642V828.949H107.564V830.121H102.642V833.828H107.99V835H101.321ZM111.053 826.818L113.013 830.163L114.973 826.818H116.422L113.78 830.909L116.422 835H114.973L113.013 831.825L111.053 835H109.604L112.203 830.909L109.604 826.818H111.053ZM118.216 838.068V826.818H119.43V828.118H119.58C119.672 827.976 119.8 827.795 119.963 827.575C120.13 827.351 120.368 827.152 120.677 826.978C120.989 826.8 121.412 826.712 121.945 826.712C122.634 826.712 123.241 826.884 123.766 827.228C124.292 827.573 124.702 828.061 124.997 828.693C125.292 829.325 125.439 830.071 125.439 830.93C125.439 831.797 125.292 832.548 124.997 833.184C124.702 833.816 124.294 834.306 123.772 834.654C123.25 834.998 122.648 835.17 121.966 835.17C121.44 835.17 121.02 835.083 120.704 834.909C120.388 834.732 120.144 834.531 119.974 834.308C119.803 834.08 119.672 833.892 119.58 833.743H119.473V838.068H118.216ZM119.452 830.909C119.452 831.527 119.542 832.072 119.723 832.544C119.905 833.013 120.169 833.381 120.517 833.647C120.865 833.91 121.291 834.041 121.796 834.041C122.321 834.041 122.76 833.903 123.111 833.626C123.466 833.345 123.733 832.969 123.91 832.496C124.091 832.021 124.182 831.491 124.182 830.909C124.182 830.334 124.093 829.815 123.916 829.354C123.742 828.888 123.477 828.521 123.122 828.251C122.77 827.978 122.328 827.841 121.796 827.841C121.284 827.841 120.854 827.971 120.506 828.23C120.158 828.485 119.896 828.844 119.718 829.306C119.541 829.764 119.452 830.298 119.452 830.909ZM130.787 835.17C129.999 835.17 129.319 834.996 128.747 834.648C128.179 834.297 127.74 833.807 127.431 833.178C127.126 832.546 126.973 831.811 126.973 830.973C126.973 830.135 127.126 829.396 127.431 828.757C127.74 828.114 128.17 827.614 128.72 827.255C129.274 826.893 129.921 826.712 130.659 826.712C131.085 826.712 131.506 826.783 131.922 826.925C132.337 827.067 132.715 827.298 133.056 827.617C133.397 827.933 133.669 828.352 133.871 828.874C134.074 829.396 134.175 830.039 134.175 830.803V831.335H127.868V830.249H132.896C132.896 829.787 132.804 829.375 132.619 829.013C132.438 828.651 132.179 828.365 131.842 828.155C131.508 827.946 131.114 827.841 130.659 827.841C130.158 827.841 129.725 827.965 129.359 828.214C128.997 828.459 128.718 828.778 128.523 829.173C128.328 829.567 128.23 829.989 128.23 830.44V831.165C128.23 831.783 128.337 832.306 128.55 832.736C128.766 833.162 129.066 833.487 129.45 833.711C129.834 833.931 130.279 834.041 130.787 834.041C131.117 834.041 131.416 833.995 131.682 833.903C131.952 833.807 132.184 833.665 132.38 833.477C132.575 833.285 132.726 833.047 132.832 832.763L134.047 833.104C133.919 833.516 133.704 833.878 133.402 834.19C133.101 834.499 132.728 834.741 132.284 834.915C131.84 835.085 131.341 835.17 130.787 835.17ZM139.177 835.17C138.495 835.17 137.893 834.998 137.371 834.654C136.849 834.306 136.44 833.816 136.146 833.184C135.851 832.548 135.704 831.797 135.704 830.93C135.704 830.071 135.851 829.325 136.146 828.693C136.44 828.061 136.851 827.573 137.376 827.228C137.902 826.884 138.509 826.712 139.198 826.712C139.731 826.712 140.151 826.8 140.46 826.978C140.773 827.152 141.011 827.351 141.174 827.575C141.341 827.795 141.471 827.976 141.563 828.118H141.669V824.091H142.927V835H141.712V833.743H141.563C141.471 833.892 141.339 834.08 141.169 834.308C140.998 834.531 140.755 834.732 140.439 834.909C140.123 835.083 139.702 835.17 139.177 835.17ZM139.347 834.041C139.851 834.041 140.277 833.91 140.625 833.647C140.973 833.381 141.238 833.013 141.419 832.544C141.6 832.072 141.691 831.527 141.691 830.909C141.691 830.298 141.602 829.764 141.424 829.306C141.247 828.844 140.984 828.485 140.636 828.23C140.288 827.971 139.858 827.841 139.347 827.841C138.814 827.841 138.37 827.978 138.015 828.251C137.664 828.521 137.399 828.888 137.222 829.354C137.048 829.815 136.961 830.334 136.961 830.909C136.961 831.491 137.049 832.021 137.227 832.496C137.408 832.969 137.674 833.345 138.026 833.626C138.381 833.903 138.821 834.041 139.347 834.041ZM145.403 835V826.818H146.661V835H145.403ZM146.043 825.455C145.798 825.455 145.586 825.371 145.409 825.204C145.235 825.037 145.148 824.837 145.148 824.602C145.148 824.368 145.235 824.167 145.409 824C145.586 823.833 145.798 823.75 146.043 823.75C146.288 823.75 146.497 823.833 146.671 824C146.849 824.167 146.938 824.368 146.938 824.602C146.938 824.837 146.849 825.037 146.671 825.204C146.497 825.371 146.288 825.455 146.043 825.455ZM152.521 826.818V827.884H148.281V826.818H152.521ZM149.517 824.858H150.774V832.656C150.774 833.011 150.826 833.278 150.929 833.455C151.035 833.629 151.17 833.746 151.333 833.807C151.5 833.864 151.676 833.892 151.861 833.892C151.999 833.892 152.113 833.885 152.202 833.871C152.29 833.853 152.362 833.839 152.415 833.828L152.67 834.957C152.585 834.989 152.466 835.021 152.314 835.053C152.161 835.089 151.967 835.107 151.733 835.107C151.378 835.107 151.03 835.03 150.689 834.877C150.352 834.725 150.071 834.492 149.847 834.18C149.627 833.867 149.517 833.473 149.517 832.997V824.858ZM154.412 835V826.818H155.669V835H154.412ZM155.051 825.455C154.806 825.455 154.595 825.371 154.418 825.204C154.244 825.037 154.157 824.837 154.157 824.602C154.157 824.368 154.244 824.167 154.418 824C154.595 823.833 154.806 823.75 155.051 823.75C155.297 823.75 155.506 823.833 155.68 824C155.858 824.167 155.946 824.368 155.946 824.602C155.946 824.837 155.858 825.037 155.68 825.204C155.506 825.371 155.297 825.455 155.051 825.455ZM161.296 835.17C160.557 835.17 159.909 834.995 159.351 834.643C158.797 834.292 158.364 833.8 158.052 833.168C157.743 832.536 157.588 831.797 157.588 830.952C157.588 830.099 157.743 829.355 158.052 828.72C158.364 828.084 158.797 827.591 159.351 827.239C159.909 826.887 160.557 826.712 161.296 826.712C162.034 826.712 162.681 826.887 163.235 827.239C163.792 827.591 164.225 828.084 164.534 828.72C164.847 829.355 165.003 830.099 165.003 830.952C165.003 831.797 164.847 832.536 164.534 833.168C164.225 833.8 163.792 834.292 163.235 834.643C162.681 834.995 162.034 835.17 161.296 835.17ZM161.296 834.041C161.857 834.041 162.318 833.897 162.681 833.61C163.043 833.322 163.311 832.944 163.485 832.475C163.659 832.006 163.746 831.499 163.746 830.952C163.746 830.405 163.659 829.895 163.485 829.423C163.311 828.951 163.043 828.569 162.681 828.278C162.318 827.987 161.857 827.841 161.296 827.841C160.735 827.841 160.273 827.987 159.911 828.278C159.549 828.569 159.28 828.951 159.106 829.423C158.932 829.895 158.845 830.405 158.845 830.952C158.845 831.499 158.932 832.006 159.106 832.475C159.28 832.944 159.549 833.322 159.911 833.61C160.273 833.897 160.735 834.041 161.296 834.041ZM168.179 830.078V835H166.922V826.818H168.137V828.097H168.243C168.435 827.681 168.726 827.347 169.117 827.095C169.507 826.839 170.012 826.712 170.629 826.712C171.183 826.712 171.668 826.825 172.084 827.053C172.499 827.276 172.822 827.617 173.053 828.075C173.284 828.53 173.399 829.105 173.399 829.801V835H172.142V829.886C172.142 829.244 171.975 828.743 171.642 828.384C171.308 828.022 170.85 827.841 170.267 827.841C169.866 827.841 169.507 827.928 169.191 828.102C168.879 828.276 168.632 828.53 168.451 828.864C168.27 829.197 168.179 829.602 168.179 830.078ZM181.172 830.078V835H179.915V826.818H181.13V828.097H181.236C181.428 827.681 181.719 827.347 182.11 827.095C182.5 826.839 183.005 826.712 183.623 826.712C184.177 826.712 184.661 826.825 185.077 827.053C185.492 827.276 185.815 827.617 186.046 828.075C186.277 828.53 186.392 829.105 186.392 829.801V835H185.135V829.886C185.135 829.244 184.968 828.743 184.635 828.384C184.301 828.022 183.843 827.841 183.26 827.841C182.859 827.841 182.5 827.928 182.184 828.102C181.872 828.276 181.625 828.53 181.444 828.864C181.263 829.197 181.172 829.602 181.172 830.078ZM191.097 835.192C190.579 835.192 190.108 835.094 189.686 834.899C189.263 834.7 188.928 834.414 188.679 834.041C188.43 833.665 188.306 833.21 188.306 832.678C188.306 832.209 188.398 831.829 188.583 831.538C188.768 831.243 189.015 831.012 189.324 830.845C189.632 830.678 189.973 830.554 190.346 830.472C190.723 830.387 191.101 830.32 191.481 830.27C191.978 830.206 192.381 830.158 192.69 830.126C193.002 830.091 193.23 830.032 193.372 829.95C193.517 829.869 193.59 829.727 193.59 829.524V829.482C193.59 828.956 193.446 828.548 193.159 828.256C192.875 827.965 192.443 827.82 191.864 827.82C191.264 827.82 190.794 827.951 190.453 828.214C190.112 828.477 189.872 828.757 189.734 829.055L188.54 828.629C188.754 828.132 189.038 827.745 189.393 827.468C189.751 827.187 190.142 826.992 190.565 826.882C190.991 826.768 191.41 826.712 191.822 826.712C192.085 826.712 192.386 826.744 192.727 826.808C193.072 826.868 193.404 826.994 193.723 827.186C194.047 827.377 194.315 827.667 194.528 828.054C194.741 828.441 194.847 828.96 194.847 829.609V835H193.59V833.892H193.526C193.441 834.07 193.299 834.26 193.1 834.462C192.901 834.664 192.637 834.837 192.306 834.979C191.976 835.121 191.573 835.192 191.097 835.192ZM191.289 834.062C191.786 834.062 192.205 833.965 192.546 833.77C192.891 833.574 193.15 833.322 193.324 833.013C193.501 832.704 193.59 832.379 193.59 832.038V830.888C193.537 830.952 193.42 831.01 193.239 831.064C193.061 831.113 192.855 831.158 192.621 831.197C192.39 831.232 192.164 831.264 191.944 831.293C191.728 831.317 191.552 831.339 191.417 831.357C191.09 831.399 190.785 831.468 190.501 831.564C190.22 831.657 189.993 831.797 189.819 831.985C189.648 832.17 189.563 832.422 189.563 832.741C189.563 833.178 189.725 833.509 190.048 833.732C190.375 833.952 190.788 834.062 191.289 834.062ZM197.142 835V826.818H198.356V828.097H198.463C198.633 827.66 198.908 827.321 199.288 827.079C199.668 826.834 200.125 826.712 200.657 826.712C201.197 826.712 201.646 826.834 202.005 827.079C202.367 827.321 202.65 827.66 202.852 828.097H202.937C203.147 827.674 203.461 827.338 203.88 827.09C204.299 826.838 204.802 826.712 205.388 826.712C206.119 826.712 206.717 826.941 207.183 827.399C207.648 827.853 207.88 828.562 207.88 829.524V835H206.623V829.524C206.623 828.92 206.458 828.489 206.128 828.23C205.798 827.971 205.409 827.841 204.961 827.841C204.386 827.841 203.94 828.015 203.624 828.363C203.308 828.707 203.15 829.144 203.15 829.673V835H201.872V829.396C201.872 828.931 201.721 828.556 201.419 828.272C201.117 827.985 200.728 827.841 200.253 827.841C199.926 827.841 199.62 827.928 199.336 828.102C199.056 828.276 198.829 828.517 198.655 828.826C198.484 829.132 198.399 829.485 198.399 829.886V835H197.142ZM213.609 835.17C212.821 835.17 212.141 834.996 211.569 834.648C211.001 834.297 210.562 833.807 210.253 833.178C209.948 832.546 209.795 831.811 209.795 830.973C209.795 830.135 209.948 829.396 210.253 828.757C210.562 828.114 210.992 827.614 211.543 827.255C212.097 826.893 212.743 826.712 213.481 826.712C213.908 826.712 214.328 826.783 214.744 826.925C215.159 827.067 215.538 827.298 215.878 827.617C216.219 827.933 216.491 828.352 216.693 828.874C216.896 829.396 216.997 830.039 216.997 830.803V831.335H210.69V830.249H215.719C215.719 829.787 215.626 829.375 215.442 829.013C215.261 828.651 215.001 828.365 214.664 828.155C214.33 827.946 213.936 827.841 213.481 827.841C212.981 827.841 212.547 827.965 212.182 828.214C211.82 828.459 211.541 828.778 211.345 829.173C211.15 829.567 211.052 829.989 211.052 830.44V831.165C211.052 831.783 211.159 832.306 211.372 832.736C211.589 833.162 211.889 833.487 212.272 833.711C212.656 833.931 213.101 834.041 213.609 834.041C213.94 834.041 214.238 833.995 214.504 833.903C214.774 833.807 215.007 833.665 215.202 833.477C215.397 833.285 215.548 833.047 215.655 832.763L216.869 833.104C216.741 833.516 216.527 833.878 216.225 834.19C215.923 834.499 215.55 834.741 215.106 834.915C214.662 835.085 214.163 835.17 213.609 835.17Z" fill="black"/>
<line x1="16.3422" y1="541.891" x2="71.3422" y2="576.891" stroke="black" stroke-width="5"/>
<line x1="66.8888" y1="502.929" x2="16.5905" y2="544.403" stroke="black" stroke-width="5"/>
<line x1="16.3422" y1="541.891" x2="71.3422" y2="576.891" stroke="black" stroke-width="5"/>
<line x1="66.8888" y1="502.929" x2="16.5905" y2="544.403" stroke="black" stroke-width="5"/>
<line x1="1423.66" y1="538.109" x2="1368.66" y2="503.109" stroke="black" stroke-width="5"/>
<line x1="1373.11" y1="577.071" x2="1423.41" y2="535.597" stroke="black" stroke-width="5"/>
</svg>
