<svg width="1440" height="1024" viewBox="0 0 1440 1024" fill="none" xmlns="http://www.w3.org/2000/svg">
<rect width="1440" height="1024" fill="white"/>
<rect width="1440" height="56" fill="#6A6A6A"/>
<path d="M72.642 39V17.1818H75.2841V36.6562H85.4261V39H72.642ZM95.8239 39.3409C94.3466 39.3409 93.0504 38.9893 91.9354 38.2862C90.8274 37.5831 89.9609 36.5994 89.3359 35.3352C88.718 34.071 88.4091 32.5937 88.4091 30.9034C88.4091 29.1989 88.718 27.7109 89.3359 26.4396C89.9609 25.1683 90.8274 24.1811 91.9354 23.478C93.0504 22.7749 94.3466 22.4233 95.8239 22.4233C97.3011 22.4233 98.5938 22.7749 99.7017 23.478C100.817 24.1811 101.683 25.1683 102.301 26.4396C102.926 27.7109 103.239 29.1989 103.239 30.9034C103.239 32.5937 102.926 34.071 102.301 35.3352C101.683 36.5994 100.817 37.5831 99.7017 38.2862C98.5938 38.9893 97.3011 39.3409 95.8239 39.3409ZM95.8239 37.0824C96.946 37.0824 97.8693 36.7947 98.5938 36.2195C99.3182 35.6442 99.8544 34.8878 100.202 33.9503C100.55 33.0128 100.724 31.9972 100.724 30.9034C100.724 29.8097 100.55 28.7905 100.202 27.8459C99.8544 26.9013 99.3182 26.1378 98.5938 25.5554C97.8693 24.973 96.946 24.6818 95.8239 24.6818C94.7017 24.6818 93.7784 24.973 93.054 25.5554C92.3295 26.1378 91.7933 26.9013 91.4453 27.8459C91.0973 28.7905 90.9233 29.8097 90.9233 30.9034C90.9233 31.9972 91.0973 33.0128 91.4453 33.9503C91.7933 34.8878 92.3295 35.6442 93.054 36.2195C93.7784 36.7947 94.7017 37.0824 95.8239 37.0824ZM113.682 45.4773C112.467 45.4773 111.423 45.321 110.55 45.0085C109.676 44.7031 108.948 44.2983 108.366 43.794C107.79 43.2969 107.332 42.7642 106.991 42.196L108.994 40.7898C109.221 41.0881 109.509 41.429 109.857 41.8125C110.205 42.2031 110.681 42.5405 111.285 42.8246C111.895 43.1158 112.694 43.2614 113.682 43.2614C115.003 43.2614 116.093 42.9418 116.952 42.3026C117.812 41.6634 118.241 40.6619 118.241 39.2983V35.9744H118.028C117.844 36.2727 117.581 36.642 117.24 37.0824C116.906 37.5156 116.423 37.9027 115.791 38.2436C115.166 38.5774 114.321 38.7443 113.256 38.7443C111.934 38.7443 110.748 38.4318 109.697 37.8068C108.653 37.1818 107.826 36.2727 107.215 35.0795C106.611 33.8864 106.309 32.4375 106.309 30.733C106.309 29.0568 106.604 27.5973 107.194 26.3544C107.783 25.1044 108.604 24.1385 109.655 23.4567C110.706 22.7678 111.92 22.4233 113.298 22.4233C114.363 22.4233 115.209 22.6009 115.834 22.956C116.466 23.304 116.949 23.7017 117.282 24.1491C117.623 24.5895 117.886 24.9517 118.071 25.2358H118.327V22.6364H120.756V39.4688C120.756 40.875 120.436 42.0185 119.797 42.8991C119.165 43.7869 118.312 44.4368 117.24 44.8487C116.175 45.2678 114.988 45.4773 113.682 45.4773ZM113.596 36.4858C114.605 36.4858 115.457 36.255 116.153 35.7933C116.849 35.3317 117.378 34.6676 117.741 33.8011C118.103 32.9347 118.284 31.8977 118.284 30.6903C118.284 29.5114 118.106 28.4709 117.751 27.5689C117.396 26.6669 116.871 25.9602 116.175 25.4489C115.479 24.9375 114.619 24.6818 113.596 24.6818C112.531 24.6818 111.643 24.9517 110.933 25.4915C110.23 26.0312 109.701 26.7557 109.346 27.6648C108.998 28.5739 108.824 29.5824 108.824 30.6903C108.824 31.8267 109.001 32.8317 109.356 33.7053C109.719 34.5717 110.251 35.2536 110.954 35.7507C111.665 36.2408 112.545 36.4858 113.596 36.4858ZM132.006 39.3409C130.528 39.3409 129.232 38.9893 128.117 38.2862C127.009 37.5831 126.143 36.5994 125.518 35.3352C124.9 34.071 124.591 32.5937 124.591 30.9034C124.591 29.1989 124.9 27.7109 125.518 26.4396C126.143 25.1683 127.009 24.1811 128.117 23.478C129.232 22.7749 130.528 22.4233 132.006 22.4233C133.483 22.4233 134.775 22.7749 135.883 23.478C136.998 24.1811 137.865 25.1683 138.483 26.4396C139.108 27.7109 139.42 29.1989 139.42 30.9034C139.42 32.5937 139.108 34.071 138.483 35.3352C137.865 36.5994 136.998 37.5831 135.883 38.2862C134.775 38.9893 133.483 39.3409 132.006 39.3409ZM132.006 37.0824C133.128 37.0824 134.051 36.7947 134.775 36.2195C135.5 35.6442 136.036 34.8878 136.384 33.9503C136.732 33.0128 136.906 31.9972 136.906 30.9034C136.906 29.8097 136.732 28.7905 136.384 27.8459C136.036 26.9013 135.5 26.1378 134.775 25.5554C134.051 24.973 133.128 24.6818 132.006 24.6818C130.883 24.6818 129.96 24.973 129.236 25.5554C128.511 26.1378 127.975 26.9013 127.627 27.8459C127.279 28.7905 127.105 29.8097 127.105 30.9034C127.105 31.9972 127.279 33.0128 127.627 33.9503C127.975 34.8878 128.511 35.6442 129.236 36.2195C129.96 36.7947 130.883 37.0824 132.006 37.0824ZM154.21 29.1562V39H151.696V17.1818H154.21V25.1932H154.423C154.806 24.348 155.382 23.6768 156.149 23.1797C156.923 22.6754 157.953 22.4233 159.238 22.4233C160.353 22.4233 161.33 22.647 162.168 23.0945C163.006 23.5348 163.656 24.2131 164.118 25.1293C164.586 26.0384 164.821 27.196 164.821 28.6023V39H162.306V28.7727C162.306 27.473 161.969 26.468 161.294 25.7578C160.627 25.0405 159.7 24.6818 158.514 24.6818C157.69 24.6818 156.951 24.8558 156.298 25.2038C155.652 25.5518 155.14 26.0597 154.764 26.7273C154.395 27.3949 154.21 28.2045 154.21 29.1562ZM176.281 39.3409C174.704 39.3409 173.344 38.9929 172.201 38.2969C171.064 37.5938 170.187 36.6136 169.569 35.3565C168.959 34.0923 168.653 32.6222 168.653 30.946C168.653 29.2699 168.959 27.7926 169.569 26.5142C170.187 25.2287 171.047 24.2273 172.148 23.5099C173.256 22.7855 174.548 22.4233 176.025 22.4233C176.878 22.4233 177.719 22.5653 178.55 22.8494C179.381 23.1335 180.138 23.5952 180.819 24.2344C181.501 24.8665 182.045 25.7045 182.449 26.7486C182.854 27.7926 183.057 29.0781 183.057 30.6051V31.6705H170.443V29.4972H180.5C180.5 28.5739 180.315 27.75 179.946 27.0256C179.584 26.3011 179.065 25.7294 178.39 25.3104C177.723 24.8913 176.934 24.6818 176.025 24.6818C175.024 24.6818 174.157 24.9304 173.426 25.4276C172.702 25.9176 172.144 26.5568 171.753 27.3452C171.363 28.1335 171.167 28.9787 171.167 29.8807V31.3295C171.167 32.5653 171.381 33.6129 171.807 34.4723C172.24 35.3246 172.84 35.9744 173.607 36.4219C174.374 36.8622 175.265 37.0824 176.281 37.0824C176.942 37.0824 177.538 36.9901 178.071 36.8054C178.611 36.6136 179.076 36.3295 179.466 35.9531C179.857 35.5696 180.159 35.0937 180.372 34.5256L182.801 35.2074C182.545 36.0312 182.116 36.7557 181.512 37.3807C180.908 37.9986 180.162 38.4815 179.275 38.8295C178.387 39.1705 177.389 39.3409 176.281 39.3409ZM186.881 39V22.6364H189.31V25.108H189.481C189.779 24.2983 190.319 23.6413 191.1 23.1371C191.881 22.6328 192.762 22.3807 193.742 22.3807C193.927 22.3807 194.157 22.3842 194.434 22.3913C194.711 22.3984 194.921 22.4091 195.063 22.4233V24.9801C194.978 24.9588 194.782 24.9268 194.477 24.8842C194.179 24.8345 193.863 24.8097 193.529 24.8097C192.733 24.8097 192.023 24.9766 191.398 25.3104C190.78 25.6371 190.29 26.0916 189.928 26.674C189.573 27.2493 189.395 27.9062 189.395 28.6449V39H186.881ZM204.406 39.3409C202.829 39.3409 201.469 38.9929 200.326 38.2969C199.189 37.5938 198.312 36.6136 197.694 35.3565C197.084 34.0923 196.778 32.6222 196.778 30.946C196.778 29.2699 197.084 27.7926 197.694 26.5142C198.312 25.2287 199.172 24.2273 200.273 23.5099C201.381 22.7855 202.673 22.4233 204.15 22.4233C205.003 22.4233 205.844 22.5653 206.675 22.8494C207.506 23.1335 208.263 23.5952 208.944 24.2344C209.626 24.8665 210.17 25.7045 210.574 26.7486C210.979 27.7926 211.182 29.0781 211.182 30.6051V31.6705H198.568V29.4972H208.625C208.625 28.5739 208.44 27.75 208.071 27.0256C207.709 26.3011 207.19 25.7294 206.515 25.3104C205.848 24.8913 205.059 24.6818 204.15 24.6818C203.149 24.6818 202.282 24.9304 201.551 25.4276C200.827 25.9176 200.269 26.5568 199.878 27.3452C199.488 28.1335 199.292 28.9787 199.292 29.8807V31.3295C199.292 32.5653 199.506 33.6129 199.932 34.4723C200.365 35.3246 200.965 35.9744 201.732 36.4219C202.499 36.8622 203.39 37.0824 204.406 37.0824C205.067 37.0824 205.663 36.9901 206.196 36.8054C206.736 36.6136 207.201 36.3295 207.591 35.9531C207.982 35.5696 208.284 35.0937 208.497 34.5256L210.926 35.2074C210.67 36.0312 210.241 36.7557 209.637 37.3807C209.033 37.9986 208.287 38.4815 207.4 38.8295C206.512 39.1705 205.514 39.3409 204.406 39.3409Z" fill="white"/>
<path d="M693.642 39V17.1818H706.81V19.5256H696.284V26.8977H706.128V29.2415H696.284V36.6562H706.98V39H693.642ZM713.106 22.6364L717.026 29.3267L720.947 22.6364H723.844L718.56 30.8182L723.844 39H720.947L717.026 32.6506L713.106 39H710.208L715.407 30.8182L710.208 22.6364H713.106ZM727.432 45.1364V22.6364H729.861V25.2358H730.159C730.344 24.9517 730.6 24.5895 730.926 24.1491C731.26 23.7017 731.736 23.304 732.354 22.956C732.979 22.6009 733.824 22.4233 734.889 22.4233C736.267 22.4233 737.482 22.7678 738.533 23.4567C739.584 24.1456 740.404 25.1222 740.994 26.3864C741.583 27.6506 741.878 29.142 741.878 30.8608C741.878 32.5938 741.583 34.0959 740.994 35.3672C740.404 36.6314 739.588 37.6115 738.544 38.3075C737.499 38.9964 736.296 39.3409 734.932 39.3409C733.881 39.3409 733.039 39.1669 732.407 38.8189C731.775 38.4638 731.289 38.0625 730.948 37.6151C730.607 37.1605 730.344 36.7841 730.159 36.4858H729.946V45.1364H727.432ZM729.904 30.8182C729.904 32.054 730.085 33.1442 730.447 34.0888C730.809 35.0263 731.338 35.7614 732.034 36.294C732.73 36.8196 733.583 37.0824 734.591 37.0824C735.642 37.0824 736.519 36.8054 737.222 36.2514C737.933 35.6903 738.465 34.9375 738.82 33.9929C739.183 33.0412 739.364 31.983 739.364 30.8182C739.364 29.6676 739.186 28.6307 738.831 27.7074C738.483 26.777 737.954 26.0419 737.244 25.5021C736.541 24.9553 735.656 24.6818 734.591 24.6818C733.568 24.6818 732.709 24.9411 732.013 25.4595C731.317 25.9709 730.791 26.6882 730.436 27.6115C730.081 28.5277 729.904 29.5966 729.904 30.8182ZM752.574 39.3409C750.997 39.3409 749.637 38.9929 748.494 38.2969C747.357 37.5938 746.48 36.6136 745.862 35.3565C745.252 34.0923 744.946 32.6222 744.946 30.946C744.946 29.2699 745.252 27.7926 745.862 26.5142C746.48 25.2287 747.34 24.2273 748.441 23.5099C749.548 22.7855 750.841 22.4233 752.318 22.4233C753.171 22.4233 754.012 22.5653 754.843 22.8494C755.674 23.1335 756.431 23.5952 757.112 24.2344C757.794 24.8665 758.338 25.7045 758.742 26.7486C759.147 27.7926 759.35 29.0781 759.35 30.6051V31.6705H746.736V29.4972H756.793C756.793 28.5739 756.608 27.75 756.239 27.0256C755.877 26.3011 755.358 25.7294 754.683 25.3104C754.016 24.8913 753.227 24.6818 752.318 24.6818C751.317 24.6818 750.45 24.9304 749.719 25.4276C748.994 25.9176 748.437 26.5568 748.046 27.3452C747.656 28.1335 747.46 28.9787 747.46 29.8807V31.3295C747.46 32.5653 747.673 33.6129 748.1 34.4723C748.533 35.3246 749.133 35.9744 749.9 36.4219C750.667 36.8622 751.558 37.0824 752.574 37.0824C753.235 37.0824 753.831 36.9901 754.364 36.8054C754.904 36.6136 755.369 36.3295 755.759 35.9531C756.15 35.5696 756.452 35.0937 756.665 34.5256L759.094 35.2074C758.838 36.0312 758.409 36.7557 757.805 37.3807C757.201 37.9986 756.455 38.4815 755.568 38.8295C754.68 39.1705 753.682 39.3409 752.574 39.3409ZM769.353 39.3409C767.99 39.3409 766.786 38.9964 765.742 38.3075C764.698 37.6115 763.881 36.6314 763.291 35.3672C762.702 34.0959 762.407 32.5938 762.407 30.8608C762.407 29.142 762.702 27.6506 763.291 26.3864C763.881 25.1222 764.701 24.1456 765.752 23.4567C766.803 22.7678 768.018 22.4233 769.396 22.4233C770.461 22.4233 771.303 22.6009 771.921 22.956C772.546 23.304 773.021 23.7017 773.348 24.1491C773.682 24.5895 773.941 24.9517 774.126 25.2358H774.339V17.1818H776.853V39H774.424V36.4858H774.126C773.941 36.7841 773.678 37.1605 773.338 37.6151C772.997 38.0625 772.51 38.4638 771.878 38.8189C771.246 39.1669 770.404 39.3409 769.353 39.3409ZM769.694 37.0824C770.703 37.0824 771.555 36.8196 772.251 36.294C772.947 35.7614 773.476 35.0263 773.838 34.0888C774.2 33.1442 774.382 32.054 774.382 30.8182C774.382 29.5966 774.204 28.5277 773.849 27.6115C773.494 26.6882 772.968 25.9709 772.272 25.4595C771.576 24.9411 770.717 24.6818 769.694 24.6818C768.629 24.6818 767.741 24.9553 767.031 25.5021C766.328 26.0419 765.798 26.777 765.443 27.7074C765.095 28.6307 764.921 29.6676 764.921 30.8182C764.921 31.983 765.099 33.0412 765.454 33.9929C765.816 34.9375 766.349 35.6903 767.052 36.2514C767.762 36.8054 768.643 37.0824 769.694 37.0824ZM781.807 39V22.6364H784.321V39H781.807ZM783.085 19.9091C782.595 19.9091 782.173 19.7422 781.818 19.4084C781.47 19.0746 781.296 18.6733 781.296 18.2045C781.296 17.7358 781.47 17.3345 781.818 17.0007C782.173 16.6669 782.595 16.5 783.085 16.5C783.575 16.5 783.994 16.6669 784.343 17.0007C784.698 17.3345 784.875 17.7358 784.875 18.2045C784.875 18.6733 784.698 19.0746 784.343 19.4084C783.994 19.7422 783.575 19.9091 783.085 19.9091ZM796.043 22.6364V24.767H787.562V22.6364H796.043ZM790.034 18.7159H792.548V34.3125C792.548 35.0227 792.651 35.5554 792.857 35.9105C793.07 36.2585 793.34 36.4929 793.667 36.6136C794.001 36.7273 794.352 36.7841 794.722 36.7841C794.999 36.7841 795.226 36.7699 795.403 36.7415C795.581 36.706 795.723 36.6776 795.83 36.6562L796.341 38.9148C796.17 38.9787 795.933 39.0426 795.627 39.1065C795.322 39.1776 794.935 39.2131 794.466 39.2131C793.756 39.2131 793.06 39.0604 792.378 38.755C791.703 38.4496 791.142 37.9844 790.695 37.3594C790.254 36.7344 790.034 35.946 790.034 34.9943V18.7159ZM799.825 39V22.6364H802.339V39H799.825ZM801.103 19.9091C800.613 19.9091 800.19 19.7422 799.835 19.4084C799.487 19.0746 799.313 18.6733 799.313 18.2045C799.313 17.7358 799.487 17.3345 799.835 17.0007C800.19 16.6669 800.613 16.5 801.103 16.5C801.593 16.5 802.012 16.6669 802.36 17.0007C802.715 17.3345 802.893 17.7358 802.893 18.2045C802.893 18.6733 802.715 19.0746 802.36 19.4084C802.012 19.7422 801.593 19.9091 801.103 19.9091ZM813.591 39.3409C812.114 39.3409 810.818 38.9893 809.703 38.2862C808.595 37.5831 807.729 36.5994 807.104 35.3352C806.486 34.071 806.177 32.5937 806.177 30.9034C806.177 29.1989 806.486 27.7109 807.104 26.4396C807.729 25.1683 808.595 24.1811 809.703 23.478C810.818 22.7749 812.114 22.4233 813.591 22.4233C815.069 22.4233 816.361 22.7749 817.469 23.478C818.584 24.1811 819.451 25.1683 820.069 26.4396C820.694 27.7109 821.006 29.1989 821.006 30.9034C821.006 32.5937 820.694 34.071 820.069 35.3352C819.451 36.5994 818.584 37.5831 817.469 38.2862C816.361 38.9893 815.069 39.3409 813.591 39.3409ZM813.591 37.0824C814.714 37.0824 815.637 36.7947 816.361 36.2195C817.086 35.6442 817.622 34.8878 817.97 33.9503C818.318 33.0128 818.492 31.9972 818.492 30.9034C818.492 29.8097 818.318 28.7905 817.97 27.8459C817.622 26.9013 817.086 26.1378 816.361 25.5554C815.637 24.973 814.714 24.6818 813.591 24.6818C812.469 24.6818 811.546 24.973 810.822 25.5554C810.097 26.1378 809.561 26.9013 809.213 27.8459C808.865 28.7905 808.691 29.8097 808.691 30.9034C808.691 31.9972 808.865 33.0128 809.213 33.9503C809.561 34.8878 810.097 35.6442 810.822 36.2195C811.546 36.7947 812.469 37.0824 813.591 37.0824ZM827.358 29.1562V39H824.844V22.6364H827.273V25.1932H827.486C827.87 24.3622 828.452 23.6946 829.233 23.1903C830.015 22.679 831.023 22.4233 832.259 22.4233C833.367 22.4233 834.336 22.6506 835.167 23.1051C835.998 23.5526 836.645 24.2344 837.106 25.1506C837.568 26.0597 837.799 27.2102 837.799 28.6023V39H835.284V28.7727C835.284 27.4872 834.951 26.4858 834.283 25.7685C833.615 25.044 832.699 24.6818 831.534 24.6818C830.732 24.6818 830.015 24.8558 829.382 25.2038C828.757 25.5518 828.264 26.0597 827.902 26.7273C827.539 27.3949 827.358 28.2045 827.358 29.1562ZM853.984 26.3011L851.725 26.9403C851.583 26.5639 851.374 26.1982 851.097 25.843C850.827 25.4808 850.458 25.1825 849.989 24.9482C849.52 24.7138 848.92 24.5966 848.188 24.5966C847.187 24.5966 846.352 24.8274 845.685 25.2891C845.024 25.7436 844.694 26.3224 844.694 27.0256C844.694 27.6506 844.921 28.1442 845.376 28.5064C845.83 28.8686 846.541 29.1705 847.507 29.4119L849.936 30.0085C851.399 30.3636 852.489 30.907 853.206 31.6385C853.923 32.3629 854.282 33.2969 854.282 34.4403C854.282 35.3778 854.012 36.2159 853.472 36.9545C852.94 37.6932 852.194 38.2756 851.235 38.7017C850.276 39.1278 849.161 39.3409 847.89 39.3409C846.221 39.3409 844.84 38.9787 843.746 38.2543C842.652 37.5298 841.96 36.4716 841.669 35.0795L844.055 34.483C844.282 35.3636 844.712 36.0241 845.344 36.4645C845.983 36.9048 846.818 37.125 847.847 37.125C849.019 37.125 849.95 36.8764 850.639 36.3793C851.335 35.875 851.683 35.2713 851.683 34.5682C851.683 34 851.484 33.5241 851.086 33.1406C850.688 32.75 850.078 32.4588 849.254 32.267L846.526 31.6278C845.028 31.2727 843.927 30.7223 843.224 29.9766C842.528 29.2237 842.18 28.2827 842.18 27.1534C842.18 26.2301 842.439 25.4134 842.958 24.7031C843.483 23.9929 844.197 23.4354 845.099 23.0305C846.008 22.6257 847.038 22.4233 848.188 22.4233C849.808 22.4233 851.079 22.7784 852.002 23.4886C852.933 24.1989 853.593 25.1364 853.984 26.3011Z" fill="white"/>
<path d="M888.642 39V17.1818H901.81V19.5256H891.284V26.8977H901.128V29.2415H891.284V36.6562H901.98V39H888.642ZM919.612 22.6364L913.56 39H911.004L904.952 22.6364H907.68L912.197 35.6761H912.367L916.884 22.6364H919.612ZM929.205 39.3409C927.628 39.3409 926.268 38.9929 925.125 38.2969C923.988 37.5938 923.111 36.6136 922.493 35.3565C921.882 34.0923 921.577 32.6222 921.577 30.946C921.577 29.2699 921.882 27.7926 922.493 26.5142C923.111 25.2287 923.971 24.2273 925.071 23.5099C926.179 22.7855 927.472 22.4233 928.949 22.4233C929.801 22.4233 930.643 22.5653 931.474 22.8494C932.305 23.1335 933.061 23.5952 933.743 24.2344C934.425 24.8665 934.968 25.7045 935.373 26.7486C935.778 27.7926 935.98 29.0781 935.98 30.6051V31.6705H923.367V29.4972H933.424C933.424 28.5739 933.239 27.75 932.87 27.0256C932.507 26.3011 931.989 25.7294 931.314 25.3104C930.647 24.8913 929.858 24.6818 928.949 24.6818C927.948 24.6818 927.081 24.9304 926.35 25.4276C925.625 25.9176 925.068 26.5568 924.677 27.3452C924.287 28.1335 924.091 28.9787 924.091 29.8807V31.3295C924.091 32.5653 924.304 33.6129 924.73 34.4723C925.164 35.3246 925.764 35.9744 926.531 36.4219C927.298 36.8622 928.189 37.0824 929.205 37.0824C929.865 37.0824 930.462 36.9901 930.995 36.8054C931.534 36.6136 932 36.3295 932.39 35.9531C932.781 35.5696 933.083 35.0937 933.296 34.5256L935.725 35.2074C935.469 36.0312 935.039 36.7557 934.436 37.3807C933.832 37.9986 933.086 38.4815 932.199 38.8295C931.311 39.1705 930.313 39.3409 929.205 39.3409ZM942.319 29.1562V39H939.805V22.6364H942.234V25.1932H942.447C942.831 24.3622 943.413 23.6946 944.194 23.1903C944.975 22.679 945.984 22.4233 947.22 22.4233C948.328 22.4233 949.297 22.6506 950.128 23.1051C950.959 23.5526 951.605 24.2344 952.067 25.1506C952.529 26.0597 952.76 27.2102 952.76 28.6023V39H950.245V28.7727C950.245 27.4872 949.912 26.4858 949.244 25.7685C948.576 25.044 947.66 24.6818 946.495 24.6818C945.693 24.6818 944.975 24.8558 944.343 25.2038C943.718 25.5518 943.225 26.0597 942.863 26.7273C942.5 27.3949 942.319 28.2045 942.319 29.1562ZM964.47 22.6364V24.767H955.99V22.6364H964.47ZM958.462 18.7159H960.976V34.3125C960.976 35.0227 961.079 35.5554 961.285 35.9105C961.498 36.2585 961.768 36.4929 962.095 36.6136C962.428 36.7273 962.78 36.7841 963.149 36.7841C963.426 36.7841 963.654 36.7699 963.831 36.7415C964.009 36.706 964.151 36.6776 964.257 36.6562L964.769 38.9148C964.598 38.9787 964.36 39.0426 964.055 39.1065C963.749 39.1776 963.362 39.2131 962.894 39.2131C962.183 39.2131 961.487 39.0604 960.806 38.755C960.131 38.4496 959.57 37.9844 959.122 37.3594C958.682 36.7344 958.462 35.946 958.462 34.9943V18.7159ZM979.55 26.3011L977.292 26.9403C977.15 26.5639 976.94 26.1982 976.663 25.843C976.393 25.4808 976.024 25.1825 975.555 24.9482C975.086 24.7138 974.486 24.5966 973.755 24.5966C972.753 24.5966 971.919 24.8274 971.251 25.2891C970.591 25.7436 970.26 26.3224 970.26 27.0256C970.26 27.6506 970.488 28.1442 970.942 28.5064C971.397 28.8686 972.107 29.1705 973.073 29.4119L975.502 30.0085C976.965 30.3636 978.055 30.907 978.773 31.6385C979.49 32.3629 979.849 33.2969 979.849 34.4403C979.849 35.3778 979.579 36.2159 979.039 36.9545C978.506 37.6932 977.76 38.2756 976.802 38.7017C975.843 39.1278 974.728 39.3409 973.456 39.3409C971.787 39.3409 970.406 38.9787 969.312 38.2543C968.219 37.5298 967.526 36.4716 967.235 35.0795L969.621 34.483C969.849 35.3636 970.278 36.0241 970.91 36.4645C971.55 36.9048 972.384 37.125 973.414 37.125C974.586 37.125 975.516 36.8764 976.205 36.3793C976.901 35.875 977.249 35.2713 977.249 34.5682C977.249 34 977.05 33.5241 976.653 33.1406C976.255 32.75 975.644 32.4588 974.82 32.267L972.093 31.6278C970.594 31.2727 969.493 30.7223 968.79 29.9766C968.094 29.2237 967.746 28.2827 967.746 27.1534C967.746 26.2301 968.006 25.4134 968.524 24.7031C969.05 23.9929 969.763 23.4354 970.665 23.0305C971.574 22.6257 972.604 22.4233 973.755 22.4233C975.374 22.4233 976.645 22.7784 977.569 23.4886C978.499 24.1989 979.16 25.1364 979.55 26.3011Z" fill="white"/>
<path d="M1015.54 39H1012.77L1020.78 17.1818H1023.51L1031.52 39H1028.75L1022.23 20.6335H1022.06L1015.54 39ZM1016.56 30.4773H1027.72V32.821H1016.56V30.4773ZM1034.92 39V17.1818H1037.43V25.2358H1037.64C1037.83 24.9517 1038.08 24.5895 1038.41 24.1491C1038.74 23.7017 1039.22 23.304 1039.84 22.956C1040.46 22.6009 1041.31 22.4233 1042.37 22.4233C1043.75 22.4233 1044.97 22.7678 1046.02 23.4567C1047.07 24.1456 1047.89 25.1222 1048.48 26.3864C1049.07 27.6506 1049.36 29.142 1049.36 30.8608C1049.36 32.5938 1049.07 34.0959 1048.48 35.3672C1047.89 36.6314 1047.07 37.6115 1046.03 38.3075C1044.98 38.9964 1043.78 39.3409 1042.42 39.3409C1041.36 39.3409 1040.52 39.1669 1039.89 38.8189C1039.26 38.4638 1038.77 38.0625 1038.43 37.6151C1038.09 37.1605 1037.83 36.7841 1037.64 36.4858H1037.34V39H1034.92ZM1037.39 30.8182C1037.39 32.054 1037.57 33.1442 1037.93 34.0888C1038.29 35.0263 1038.82 35.7614 1039.52 36.294C1040.21 36.8196 1041.07 37.0824 1042.07 37.0824C1043.13 37.0824 1044 36.8054 1044.71 36.2514C1045.42 35.6903 1045.95 34.9375 1046.3 33.9929C1046.67 33.0412 1046.85 31.983 1046.85 30.8182C1046.85 29.6676 1046.67 28.6307 1046.31 27.7074C1045.97 26.777 1045.44 26.0419 1044.73 25.5021C1044.02 24.9553 1043.14 24.6818 1042.07 24.6818C1041.05 24.6818 1040.19 24.9411 1039.5 25.4595C1038.8 25.9709 1038.27 26.6882 1037.92 27.6115C1037.56 28.5277 1037.39 29.5966 1037.39 30.8182ZM1059.86 39.3409C1058.38 39.3409 1057.08 38.9893 1055.97 38.2862C1054.86 37.5831 1053.99 36.5994 1053.37 35.3352C1052.75 34.071 1052.44 32.5937 1052.44 30.9034C1052.44 29.1989 1052.75 27.7109 1053.37 26.4396C1053.99 25.1683 1054.86 24.1811 1055.97 23.478C1057.08 22.7749 1058.38 22.4233 1059.86 22.4233C1061.33 22.4233 1062.63 22.7749 1063.73 23.478C1064.85 24.1811 1065.71 25.1683 1066.33 26.4396C1066.96 27.7109 1067.27 29.1989 1067.27 30.9034C1067.27 32.5937 1066.96 34.071 1066.33 35.3352C1065.71 36.5994 1064.85 37.5831 1063.73 38.2862C1062.63 38.9893 1061.33 39.3409 1059.86 39.3409ZM1059.86 37.0824C1060.98 37.0824 1061.9 36.7947 1062.62 36.2195C1063.35 35.6442 1063.89 34.8878 1064.23 33.9503C1064.58 33.0128 1064.76 31.9972 1064.76 30.9034C1064.76 29.8097 1064.58 28.7905 1064.23 27.8459C1063.89 26.9013 1063.35 26.1378 1062.62 25.5554C1061.9 24.973 1060.98 24.6818 1059.86 24.6818C1058.73 24.6818 1057.81 24.973 1057.09 25.5554C1056.36 26.1378 1055.82 26.9013 1055.48 27.8459C1055.13 28.7905 1054.95 29.8097 1054.95 30.9034C1054.95 31.9972 1055.13 33.0128 1055.48 33.9503C1055.82 34.8878 1056.36 35.6442 1057.09 36.2195C1057.81 36.7947 1058.73 37.0824 1059.86 37.0824ZM1081.42 32.3097V22.6364H1083.93V39H1081.42V36.2301H1081.25C1080.87 37.0611 1080.27 37.7678 1079.46 38.3501C1078.65 38.9254 1077.63 39.2131 1076.39 39.2131C1075.37 39.2131 1074.46 38.9893 1073.66 38.5419C1072.87 38.0874 1072.24 37.4055 1071.79 36.4964C1071.34 35.5803 1071.11 34.4261 1071.11 33.0341V22.6364H1073.62V32.8636C1073.62 34.0568 1073.96 35.0085 1074.62 35.7188C1075.3 36.429 1076.16 36.7841 1077.2 36.7841C1077.83 36.7841 1078.46 36.6243 1079.11 36.3047C1079.76 35.9851 1080.31 35.495 1080.75 34.8345C1081.2 34.174 1081.42 33.3324 1081.42 32.3097ZM1095.66 22.6364V24.767H1087.18V22.6364H1095.66ZM1089.65 18.7159H1092.16V34.3125C1092.16 35.0227 1092.26 35.5554 1092.47 35.9105C1092.68 36.2585 1092.95 36.4929 1093.28 36.6136C1093.61 36.7273 1093.97 36.7841 1094.33 36.7841C1094.61 36.7841 1094.84 36.7699 1095.02 36.7415C1095.19 36.706 1095.34 36.6776 1095.44 36.6562L1095.95 38.9148C1095.78 38.9787 1095.55 39.0426 1095.24 39.1065C1094.94 39.1776 1094.55 39.2131 1094.08 39.2131C1093.37 39.2131 1092.67 39.0604 1091.99 38.755C1091.32 38.4496 1090.76 37.9844 1090.31 37.3594C1089.87 36.7344 1089.65 35.946 1089.65 34.9943V18.7159Z" fill="white"/>
<path d="M1142.57 22.6364C1142.45 21.5568 1141.93 20.7188 1141.02 20.1222C1140.11 19.5256 1138.99 19.2273 1137.67 19.2273C1136.71 19.2273 1135.86 19.3835 1135.14 19.696C1134.42 20.0085 1133.86 20.4382 1133.45 20.9851C1133.06 21.532 1132.86 22.1534 1132.86 22.8494C1132.86 23.4318 1133 23.9325 1133.27 24.3516C1133.56 24.7635 1133.92 25.108 1134.36 25.3849C1134.8 25.6548 1135.26 25.8786 1135.75 26.0561C1136.23 26.2266 1136.67 26.3651 1137.08 26.4716L1139.29 27.0682C1139.86 27.2173 1140.49 27.4233 1141.19 27.6861C1141.89 27.9489 1142.56 28.3075 1143.2 28.7621C1143.85 29.2095 1144.38 29.7848 1144.8 30.4879C1145.22 31.1911 1145.43 32.054 1145.43 33.0767C1145.43 34.2557 1145.12 35.321 1144.5 36.2727C1143.89 37.2244 1143 37.9808 1141.82 38.5419C1140.65 39.103 1139.22 39.3835 1137.55 39.3835C1135.98 39.3835 1134.63 39.1314 1133.49 38.6271C1132.35 38.1229 1131.46 37.4197 1130.8 36.5178C1130.16 35.6158 1129.79 34.5682 1129.7 33.375H1132.43C1132.5 34.1989 1132.78 34.8807 1133.26 35.4205C1133.75 35.9531 1134.37 36.3509 1135.12 36.6136C1135.87 36.8693 1136.68 36.9972 1137.55 36.9972C1138.55 36.9972 1139.46 36.8338 1140.26 36.5071C1141.06 36.1733 1141.7 35.7116 1142.17 35.1222C1142.64 34.5256 1142.87 33.8295 1142.87 33.0341C1142.87 32.3097 1142.67 31.7202 1142.26 31.2656C1141.86 30.8111 1141.33 30.4418 1140.67 30.1577C1140.01 29.8736 1139.29 29.625 1138.53 29.4119L1135.84 28.6449C1134.14 28.1548 1132.79 27.4553 1131.79 26.5462C1130.8 25.6371 1130.3 24.4474 1130.3 22.9773C1130.3 21.7557 1130.63 20.6903 1131.29 19.7812C1131.96 18.8651 1132.85 18.1548 1133.98 17.6506C1135.11 17.1392 1136.37 16.8835 1137.76 16.8835C1139.16 16.8835 1140.41 17.1357 1141.51 17.6399C1142.6 18.1371 1143.47 18.8189 1144.11 19.6854C1144.75 20.5518 1145.1 21.5355 1145.13 22.6364H1142.57ZM1151.95 29.1562V39H1149.43V17.1818H1151.95V25.1932H1152.16C1152.54 24.348 1153.12 23.6768 1153.89 23.1797C1154.66 22.6754 1155.69 22.4233 1156.97 22.4233C1158.09 22.4233 1159.07 22.647 1159.9 23.0945C1160.74 23.5348 1161.39 24.2131 1161.85 25.1293C1162.32 26.0384 1162.56 27.196 1162.56 28.6023V39H1160.04V28.7727C1160.04 27.473 1159.71 26.468 1159.03 25.7578C1158.36 25.0405 1157.44 24.6818 1156.25 24.6818C1155.43 24.6818 1154.69 24.8558 1154.03 25.2038C1153.39 25.5518 1152.88 26.0597 1152.5 26.7273C1152.13 27.3949 1151.95 28.2045 1151.95 29.1562ZM1173.8 39.3409C1172.33 39.3409 1171.03 38.9893 1169.92 38.2862C1168.81 37.5831 1167.94 36.5994 1167.32 35.3352C1166.7 34.071 1166.39 32.5937 1166.39 30.9034C1166.39 29.1989 1166.7 27.7109 1167.32 26.4396C1167.94 25.1683 1168.81 24.1811 1169.92 23.478C1171.03 22.7749 1172.33 22.4233 1173.8 22.4233C1175.28 22.4233 1176.57 22.7749 1177.68 23.478C1178.8 24.1811 1179.66 25.1683 1180.28 26.4396C1180.91 27.7109 1181.22 29.1989 1181.22 30.9034C1181.22 32.5937 1180.91 34.071 1180.28 35.3352C1179.66 36.5994 1178.8 37.5831 1177.68 38.2862C1176.57 38.9893 1175.28 39.3409 1173.8 39.3409ZM1173.8 37.0824C1174.93 37.0824 1175.85 36.7947 1176.57 36.2195C1177.3 35.6442 1177.83 34.8878 1178.18 33.9503C1178.53 33.0128 1178.7 31.9972 1178.7 30.9034C1178.7 29.8097 1178.53 28.7905 1178.18 27.8459C1177.83 26.9013 1177.3 26.1378 1176.57 25.5554C1175.85 24.973 1174.93 24.6818 1173.8 24.6818C1172.68 24.6818 1171.76 24.973 1171.03 25.5554C1170.31 26.1378 1169.77 26.9013 1169.43 27.8459C1169.08 28.7905 1168.9 29.8097 1168.9 30.9034C1168.9 31.9972 1169.08 33.0128 1169.43 33.9503C1169.77 34.8878 1170.31 35.6442 1171.03 36.2195C1171.76 36.7947 1172.68 37.0824 1173.8 37.0824ZM1185.06 45.1364V22.6364H1187.49V25.2358H1187.78C1187.97 24.9517 1188.22 24.5895 1188.55 24.1491C1188.89 23.7017 1189.36 23.304 1189.98 22.956C1190.6 22.6009 1191.45 22.4233 1192.51 22.4233C1193.89 22.4233 1195.11 22.7678 1196.16 23.4567C1197.21 24.1456 1198.03 25.1222 1198.62 26.3864C1199.21 27.6506 1199.5 29.142 1199.5 30.8608C1199.5 32.5938 1199.21 34.0959 1198.62 35.3672C1198.03 36.6314 1197.21 37.6115 1196.17 38.3075C1195.12 38.9964 1193.92 39.3409 1192.56 39.3409C1191.51 39.3409 1190.66 39.1669 1190.03 38.8189C1189.4 38.4638 1188.91 38.0625 1188.57 37.6151C1188.23 37.1605 1187.97 36.7841 1187.78 36.4858H1187.57V45.1364H1185.06ZM1187.53 30.8182C1187.53 32.054 1187.71 33.1442 1188.07 34.0888C1188.43 35.0263 1188.96 35.7614 1189.66 36.294C1190.36 36.8196 1191.21 37.0824 1192.22 37.0824C1193.27 37.0824 1194.14 36.8054 1194.85 36.2514C1195.56 35.6903 1196.09 34.9375 1196.45 33.9929C1196.81 33.0412 1196.99 31.983 1196.99 30.8182C1196.99 29.6676 1196.81 28.6307 1196.46 27.7074C1196.11 26.777 1195.58 26.0419 1194.87 25.5021C1194.17 24.9553 1193.28 24.6818 1192.22 24.6818C1191.19 24.6818 1190.33 24.9411 1189.64 25.4595C1188.94 25.9709 1188.42 26.6882 1188.06 27.6115C1187.71 28.5277 1187.53 29.5966 1187.53 30.8182Z" fill="white"/>
<path d="M1234.64 17.1818H1237.8L1245.21 35.2926H1245.47L1252.88 17.1818H1256.03V39H1253.56V22.4233H1253.35L1246.53 39H1244.14L1237.33 22.4233H1237.11V39H1234.64V17.1818ZM1265.81 39.3835C1264.77 39.3835 1263.83 39.1882 1262.98 38.7976C1262.14 38.3999 1261.47 37.8281 1260.97 37.0824C1260.47 36.3295 1260.22 35.4205 1260.22 34.3551C1260.22 33.4176 1260.41 32.6577 1260.78 32.0753C1261.15 31.4858 1261.64 31.0241 1262.26 30.6903C1262.88 30.3565 1263.56 30.108 1264.3 29.9446C1265.06 29.7741 1265.81 29.6392 1266.57 29.5398C1267.57 29.4119 1268.37 29.3161 1268.99 29.2521C1269.62 29.1811 1270.07 29.0639 1270.35 28.9006C1270.65 28.7372 1270.79 28.4531 1270.79 28.0483V27.9631C1270.79 26.9119 1270.5 26.0952 1269.93 25.5128C1269.36 24.9304 1268.5 24.6392 1267.34 24.6392C1266.14 24.6392 1265.2 24.902 1264.52 25.4276C1263.84 25.9531 1263.36 26.5142 1263.08 27.1108L1260.69 26.2585C1261.12 25.2642 1261.69 24.4901 1262.4 23.9361C1263.11 23.375 1263.9 22.9844 1264.74 22.7642C1265.59 22.5369 1266.43 22.4233 1267.25 22.4233C1267.78 22.4233 1268.38 22.4872 1269.07 22.6151C1269.75 22.7358 1270.42 22.9879 1271.06 23.3714C1271.7 23.755 1272.24 24.3338 1272.67 25.108C1273.09 25.8821 1273.31 26.919 1273.31 28.2188V39H1270.79V36.7841H1270.66C1270.49 37.1392 1270.21 37.5192 1269.81 37.924C1269.41 38.3288 1268.88 38.6733 1268.22 38.9574C1267.56 39.2415 1266.76 39.3835 1265.81 39.3835ZM1266.19 37.125C1267.18 37.125 1268.02 36.9297 1268.7 36.5391C1269.39 36.1484 1269.91 35.6442 1270.26 35.0263C1270.61 34.4084 1270.79 33.7585 1270.79 33.0767V30.7756C1270.69 30.9034 1270.45 31.0206 1270.09 31.1271C1269.73 31.2266 1269.32 31.3153 1268.85 31.3935C1268.39 31.4645 1267.94 31.5284 1267.5 31.5852C1267.07 31.6349 1266.72 31.6776 1266.45 31.7131C1265.79 31.7983 1265.18 31.9368 1264.61 32.1286C1264.05 32.3132 1263.6 32.5937 1263.25 32.9702C1262.91 33.3395 1262.74 33.8437 1262.74 34.483C1262.74 35.3565 1263.06 36.017 1263.71 36.4645C1264.36 36.9048 1265.19 37.125 1266.19 37.125ZM1284.5 45.4773C1283.29 45.4773 1282.24 45.321 1281.37 45.0085C1280.49 44.7031 1279.77 44.2983 1279.18 43.794C1278.61 43.2969 1278.15 42.7642 1277.81 42.196L1279.81 40.7898C1280.04 41.0881 1280.33 41.429 1280.68 41.8125C1281.02 42.2031 1281.5 42.5405 1282.1 42.8246C1282.71 43.1158 1283.51 43.2614 1284.5 43.2614C1285.82 43.2614 1286.91 42.9418 1287.77 42.3026C1288.63 41.6634 1289.06 40.6619 1289.06 39.2983V35.9744H1288.85C1288.66 36.2727 1288.4 36.642 1288.06 37.0824C1287.72 37.5156 1287.24 37.9027 1286.61 38.2436C1285.98 38.5774 1285.14 38.7443 1284.07 38.7443C1282.75 38.7443 1281.57 38.4318 1280.52 37.8068C1279.47 37.1818 1278.64 36.2727 1278.03 35.0795C1277.43 33.8864 1277.13 32.4375 1277.13 30.733C1277.13 29.0568 1277.42 27.5973 1278.01 26.3544C1278.6 25.1044 1279.42 24.1385 1280.47 23.4567C1281.52 22.7678 1282.74 22.4233 1284.12 22.4233C1285.18 22.4233 1286.03 22.6009 1286.65 22.956C1287.28 23.304 1287.77 23.7017 1288.1 24.1491C1288.44 24.5895 1288.7 24.9517 1288.89 25.2358H1289.14V22.6364H1291.57V39.4688C1291.57 40.875 1291.25 42.0185 1290.62 42.8991C1289.98 43.7869 1289.13 44.4368 1288.06 44.8487C1286.99 45.2678 1285.81 45.4773 1284.5 45.4773ZM1284.41 36.4858C1285.42 36.4858 1286.28 36.255 1286.97 35.7933C1287.67 35.3317 1288.2 34.6676 1288.56 33.8011C1288.92 32.9347 1289.1 31.8977 1289.1 30.6903C1289.1 29.5114 1288.92 28.4709 1288.57 27.5689C1288.21 26.6669 1287.69 25.9602 1286.99 25.4489C1286.3 24.9375 1285.44 24.6818 1284.41 24.6818C1283.35 24.6818 1282.46 24.9517 1281.75 25.4915C1281.05 26.0312 1280.52 26.7557 1280.16 27.6648C1279.82 28.5739 1279.64 29.5824 1279.64 30.6903C1279.64 31.8267 1279.82 32.8317 1280.17 33.7053C1280.54 34.5717 1281.07 35.2536 1281.77 35.7507C1282.48 36.2408 1283.36 36.4858 1284.41 36.4858ZM1300.99 39.3835C1299.95 39.3835 1299.01 39.1882 1298.17 38.7976C1297.32 38.3999 1296.65 37.8281 1296.15 37.0824C1295.66 36.3295 1295.41 35.4205 1295.41 34.3551C1295.41 33.4176 1295.59 32.6577 1295.96 32.0753C1296.33 31.4858 1296.83 31.0241 1297.44 30.6903C1298.06 30.3565 1298.74 30.108 1299.49 29.9446C1300.24 29.7741 1301 29.6392 1301.76 29.5398C1302.75 29.4119 1303.56 29.3161 1304.18 29.2521C1304.8 29.1811 1305.26 29.0639 1305.54 28.9006C1305.83 28.7372 1305.98 28.4531 1305.98 28.0483V27.9631C1305.98 26.9119 1305.69 26.0952 1305.11 25.5128C1304.55 24.9304 1303.68 24.6392 1302.53 24.6392C1301.33 24.6392 1300.38 24.902 1299.7 25.4276C1299.02 25.9531 1298.54 26.5142 1298.26 27.1108L1295.88 26.2585C1296.3 25.2642 1296.87 24.4901 1297.58 23.9361C1298.3 23.375 1299.08 22.9844 1299.93 22.7642C1300.78 22.5369 1301.62 22.4233 1302.44 22.4233C1302.97 22.4233 1303.57 22.4872 1304.25 22.6151C1304.94 22.7358 1305.6 22.9879 1306.24 23.3714C1306.89 23.755 1307.43 24.3338 1307.85 25.108C1308.28 25.8821 1308.49 26.919 1308.49 28.2188V39H1305.98V36.7841H1305.85C1305.68 37.1392 1305.39 37.5192 1305 37.924C1304.6 38.3288 1304.07 38.6733 1303.41 38.9574C1302.75 39.2415 1301.94 39.3835 1300.99 39.3835ZM1301.38 37.125C1302.37 37.125 1303.21 36.9297 1303.89 36.5391C1304.58 36.1484 1305.1 35.6442 1305.44 35.0263C1305.8 34.4084 1305.98 33.7585 1305.98 33.0767V30.7756C1305.87 30.9034 1305.64 31.0206 1305.27 31.1271C1304.92 31.2266 1304.51 31.3153 1304.04 31.3935C1303.58 31.4645 1303.13 31.5284 1302.69 31.5852C1302.25 31.6349 1301.9 31.6776 1301.63 31.7131C1300.98 31.7983 1300.37 31.9368 1299.8 32.1286C1299.24 32.3132 1298.78 32.5937 1298.43 32.9702C1298.09 33.3395 1297.92 33.8437 1297.92 34.483C1297.92 35.3565 1298.25 36.017 1298.89 36.4645C1299.55 36.9048 1300.37 37.125 1301.38 37.125ZM1312.61 39V37.0824L1321.9 25.1506V24.9801H1312.91V22.6364H1325.14V24.6392L1316.11 36.4858V36.6562H1325.44V39H1312.61ZM1329.31 39V22.6364H1331.83V39H1329.31ZM1330.59 19.9091C1330.1 19.9091 1329.68 19.7422 1329.32 19.4084C1328.97 19.0746 1328.8 18.6733 1328.8 18.2045C1328.8 17.7358 1328.97 17.3345 1329.32 17.0007C1329.68 16.6669 1330.1 16.5 1330.59 16.5C1331.08 16.5 1331.5 16.6669 1331.85 17.0007C1332.2 17.3345 1332.38 17.7358 1332.38 18.2045C1332.38 18.6733 1332.2 19.0746 1331.85 19.4084C1331.5 19.7422 1331.08 19.9091 1330.59 19.9091ZM1338.94 29.1562V39H1336.43V22.6364H1338.86V25.1932H1339.07C1339.46 24.3622 1340.04 23.6946 1340.82 23.1903C1341.6 22.679 1342.61 22.4233 1343.84 22.4233C1344.95 22.4233 1345.92 22.6506 1346.75 23.1051C1347.58 23.5526 1348.23 24.2344 1348.69 25.1506C1349.15 26.0597 1349.38 27.2102 1349.38 28.6023V39H1346.87V28.7727C1346.87 27.4872 1346.54 26.4858 1345.87 25.7685C1345.2 25.044 1344.29 24.6818 1343.12 24.6818C1342.32 24.6818 1341.6 24.8558 1340.97 25.2038C1340.34 25.5518 1339.85 26.0597 1339.49 26.7273C1339.13 27.3949 1338.94 28.2045 1338.94 29.1562ZM1360.84 39.3409C1359.26 39.3409 1357.9 38.9929 1356.76 38.2969C1355.62 37.5938 1354.75 36.6136 1354.13 35.3565C1353.52 34.0923 1353.21 32.6222 1353.21 30.946C1353.21 29.2699 1353.52 27.7926 1354.13 26.5142C1354.75 25.2287 1355.61 24.2273 1356.71 23.5099C1357.81 22.7855 1359.11 22.4233 1360.58 22.4233C1361.44 22.4233 1362.28 22.5653 1363.11 22.8494C1363.94 23.1335 1364.7 23.5952 1365.38 24.2344C1366.06 24.8665 1366.6 25.7045 1367.01 26.7486C1367.41 27.7926 1367.62 29.0781 1367.62 30.6051V31.6705H1355V29.4972H1365.06C1365.06 28.5739 1364.87 27.75 1364.5 27.0256C1364.14 26.3011 1363.62 25.7294 1362.95 25.3104C1362.28 24.8913 1361.49 24.6818 1360.58 24.6818C1359.58 24.6818 1358.72 24.9304 1357.98 25.4276C1357.26 25.9176 1356.7 26.5568 1356.31 27.3452C1355.92 28.1335 1355.73 28.9787 1355.73 29.8807V31.3295C1355.73 32.5653 1355.94 33.6129 1356.37 34.4723C1356.8 35.3246 1357.4 35.9744 1358.17 36.4219C1358.93 36.8622 1359.82 37.0824 1360.84 37.0824C1361.5 37.0824 1362.1 36.9901 1362.63 36.8054C1363.17 36.6136 1363.63 36.3295 1364.03 35.9531C1364.42 35.5696 1364.72 35.0937 1364.93 34.5256L1367.36 35.2074C1367.1 36.0312 1366.67 36.7557 1366.07 37.3807C1365.47 37.9986 1364.72 38.4815 1363.83 38.8295C1362.95 39.1705 1361.95 39.3409 1360.84 39.3409Z" fill="white"/>
<path d="M26.7386 112.631V109.818H46.375V112.631H38.142V136H34.9716V112.631H26.7386ZM53.8761 124.188V136H50.859V109.818H53.8761V119.432H54.1317C54.592 118.418 55.2823 117.612 56.2028 117.016C57.1317 116.411 58.3675 116.108 59.9102 116.108C61.2482 116.108 62.4201 116.376 63.4258 116.913C64.4315 117.442 65.2113 118.256 65.7653 119.355C66.3278 120.446 66.609 121.835 66.609 123.523V136H63.592V123.727C63.592 122.168 63.1871 120.962 62.3775 120.109C61.5763 119.249 60.4641 118.818 59.0408 118.818C58.0522 118.818 57.1658 119.027 56.3817 119.445C55.6062 119.862 54.9925 120.472 54.5408 121.273C54.0977 122.074 53.8761 123.045 53.8761 124.188ZM72.1286 136V116.364H75.1456V136H72.1286ZM73.6626 113.091C73.0746 113.091 72.5675 112.891 72.1413 112.49C71.7237 112.089 71.5149 111.608 71.5149 111.045C71.5149 110.483 71.7237 110.001 72.1413 109.601C72.5675 109.2 73.0746 109 73.6626 109C74.2507 109 74.7536 109.2 75.1712 109.601C75.5973 110.001 75.8104 110.483 75.8104 111.045C75.8104 111.608 75.5973 112.089 75.1712 112.49C74.7536 112.891 74.2507 113.091 73.6626 113.091ZM94.5806 120.761L91.8704 121.528C91.6999 121.077 91.4485 120.638 91.1161 120.212C90.7923 119.777 90.3491 119.419 89.7866 119.138C89.2241 118.857 88.5039 118.716 87.6261 118.716C86.4244 118.716 85.4229 118.993 84.6218 119.547C83.8292 120.092 83.4329 120.787 83.4329 121.631C83.4329 122.381 83.7056 122.973 84.2511 123.408C84.7965 123.842 85.6488 124.205 86.8079 124.494L89.7227 125.21C91.4783 125.636 92.7866 126.288 93.6474 127.166C94.5082 128.036 94.9386 129.156 94.9386 130.528C94.9386 131.653 94.6147 132.659 93.967 133.545C93.3278 134.432 92.4329 135.131 91.2823 135.642C90.1317 136.153 88.7937 136.409 87.2681 136.409C85.2653 136.409 83.6076 135.974 82.2951 135.105C80.9826 134.236 80.1516 132.966 79.8022 131.295L82.6658 130.58C82.9386 131.636 83.4542 132.429 84.2127 132.957C84.9798 133.486 85.9812 133.75 87.217 133.75C88.6232 133.75 89.7397 133.452 90.5664 132.855C91.4016 132.25 91.8192 131.526 91.8192 130.682C91.8192 130 91.5806 129.429 91.1033 128.969C90.6261 128.5 89.8931 128.151 88.9045 127.92L85.6317 127.153C83.8335 126.727 82.5124 126.067 81.6687 125.172C80.8335 124.268 80.4158 123.139 80.4158 121.784C80.4158 120.676 80.7269 119.696 81.3491 118.844C81.9798 117.991 82.8363 117.322 83.9187 116.837C85.0096 116.351 86.2454 116.108 87.6261 116.108C89.5692 116.108 91.0948 116.534 92.2028 117.386C93.3192 118.239 94.1119 119.364 94.5806 120.761ZM110.014 109.818H113.798L122.696 131.551H123.003L131.901 109.818H135.685V136H132.719V116.108H132.463L124.281 136H121.418L113.236 116.108H112.98V136H110.014V109.818ZM149.61 136.409C147.837 136.409 146.282 135.987 144.944 135.143C143.614 134.3 142.574 133.119 141.824 131.602C141.083 130.085 140.712 128.312 140.712 126.284C140.712 124.239 141.083 122.453 141.824 120.928C142.574 119.402 143.614 118.217 144.944 117.374C146.282 116.53 147.837 116.108 149.61 116.108C151.382 116.108 152.934 116.53 154.263 117.374C155.601 118.217 156.641 119.402 157.382 120.928C158.132 122.453 158.507 124.239 158.507 126.284C158.507 128.312 158.132 130.085 157.382 131.602C156.641 133.119 155.601 134.3 154.263 135.143C152.934 135.987 151.382 136.409 149.61 136.409ZM149.61 133.699C150.956 133.699 152.064 133.354 152.934 132.663C153.803 131.973 154.446 131.065 154.864 129.94C155.282 128.815 155.49 127.597 155.49 126.284C155.49 124.972 155.282 123.749 154.864 122.615C154.446 121.482 153.803 120.565 152.934 119.866C152.064 119.168 150.956 118.818 149.61 118.818C148.263 118.818 147.155 119.168 146.286 119.866C145.417 120.565 144.773 121.482 144.355 122.615C143.938 123.749 143.729 124.972 143.729 126.284C143.729 127.597 143.938 128.815 144.355 129.94C144.773 131.065 145.417 131.973 146.286 132.663C147.155 133.354 148.263 133.699 149.61 133.699ZM166.13 124.188V136H163.113V116.364H166.028V119.432H166.283C166.744 118.435 167.442 117.634 168.38 117.028C169.317 116.415 170.528 116.108 172.011 116.108C173.34 116.108 174.504 116.381 175.501 116.926C176.498 117.463 177.273 118.281 177.827 119.381C178.381 120.472 178.658 121.852 178.658 123.523V136H175.641V123.727C175.641 122.185 175.241 120.983 174.44 120.122C173.638 119.253 172.539 118.818 171.141 118.818C170.178 118.818 169.317 119.027 168.559 119.445C167.809 119.862 167.217 120.472 166.782 121.273C166.347 122.074 166.13 123.045 166.13 124.188ZM192.711 116.364V118.92H182.535V116.364H192.711ZM185.501 111.659H188.518V130.375C188.518 131.227 188.642 131.866 188.889 132.293C189.145 132.71 189.468 132.991 189.86 133.136C190.261 133.273 190.683 133.341 191.126 133.341C191.458 133.341 191.731 133.324 191.944 133.29C192.157 133.247 192.328 133.213 192.456 133.188L193.069 135.898C192.865 135.974 192.579 136.051 192.213 136.128C191.846 136.213 191.382 136.256 190.819 136.256C189.967 136.256 189.132 136.072 188.314 135.706C187.504 135.339 186.831 134.781 186.294 134.031C185.765 133.281 185.501 132.335 185.501 131.193V111.659ZM200.689 124.188V136H197.672V109.818H200.689V119.432H200.944C201.404 118.418 202.095 117.612 203.015 117.016C203.944 116.411 205.18 116.108 206.723 116.108C208.061 116.108 209.233 116.376 210.238 116.913C211.244 117.442 212.024 118.256 212.578 119.355C213.14 120.446 213.422 121.835 213.422 123.523V136H210.404V123.727C210.404 122.168 210 120.962 209.19 120.109C208.389 119.249 207.277 118.818 205.853 118.818C204.865 118.818 203.978 119.027 203.194 119.445C202.419 119.862 201.805 120.472 201.353 121.273C200.91 122.074 200.689 123.045 200.689 124.188ZM221.6 109.818V112.119C221.6 112.818 221.472 113.564 221.217 114.357C220.969 115.141 220.603 115.903 220.117 116.645C219.64 117.378 219.06 118.017 218.379 118.562L216.742 117.233C217.279 116.466 217.744 115.669 218.136 114.842C218.536 114.007 218.737 113.116 218.737 112.17V109.818H221.6ZM236.717 120.761L234.007 121.528C233.837 121.077 233.585 120.638 233.253 120.212C232.929 119.777 232.486 119.419 231.923 119.138C231.361 118.857 230.641 118.716 229.763 118.716C228.561 118.716 227.56 118.993 226.759 119.547C225.966 120.092 225.57 120.787 225.57 121.631C225.57 122.381 225.842 122.973 226.388 123.408C226.933 123.842 227.786 124.205 228.945 124.494L231.859 125.21C233.615 125.636 234.923 126.288 235.784 127.166C236.645 128.036 237.075 129.156 237.075 130.528C237.075 131.653 236.751 132.659 236.104 133.545C235.464 134.432 234.57 135.131 233.419 135.642C232.268 136.153 230.93 136.409 229.405 136.409C227.402 136.409 225.744 135.974 224.432 135.105C223.119 134.236 222.288 132.966 221.939 131.295L224.803 130.58C225.075 131.636 225.591 132.429 226.349 132.957C227.116 133.486 228.118 133.75 229.354 133.75C230.76 133.75 231.876 133.452 232.703 132.855C233.538 132.25 233.956 131.526 233.956 130.682C233.956 130 233.717 129.429 233.24 128.969C232.763 128.5 232.03 128.151 231.041 127.92L227.768 127.153C225.97 126.727 224.649 126.067 223.805 125.172C222.97 124.268 222.553 123.139 222.553 121.784C222.553 120.676 222.864 119.696 223.486 118.844C224.116 117.991 224.973 117.322 226.055 116.837C227.146 116.351 228.382 116.108 229.763 116.108C231.706 116.108 233.232 116.534 234.339 117.386C235.456 118.239 236.249 119.364 236.717 120.761ZM252.151 136V109.818H260.998C263.043 109.818 264.722 110.168 266.034 110.866C267.347 111.557 268.319 112.507 268.949 113.717C269.58 114.928 269.895 116.304 269.895 117.847C269.895 119.389 269.58 120.757 268.949 121.95C268.319 123.143 267.351 124.081 266.047 124.763C264.743 125.436 263.077 125.773 261.049 125.773H253.89V122.909H260.946C262.344 122.909 263.469 122.705 264.321 122.295C265.182 121.886 265.804 121.307 266.188 120.557C266.58 119.798 266.776 118.895 266.776 117.847C266.776 116.798 266.58 115.882 266.188 115.098C265.796 114.314 265.169 113.709 264.309 113.283C263.448 112.848 262.31 112.631 260.895 112.631H255.321V136H252.151ZM264.475 124.239L270.918 136H267.236L260.895 124.239H264.475ZM275.178 136V109.818H278.349V133.188H290.519V136H275.178ZM295.428 136V109.818H311.229V112.631H298.599V121.477H310.411V124.29H298.599V133.188H311.434V136H295.428ZM327.069 109.818H330.853L339.751 131.551H340.058L348.955 109.818H352.739V136H349.773V116.108H349.518L341.336 136H338.472L330.29 116.108H330.035V136H327.069V109.818ZM364.466 136.46C363.221 136.46 362.092 136.226 361.078 135.757C360.064 135.28 359.258 134.594 358.662 133.699C358.065 132.795 357.767 131.705 357.767 130.426C357.767 129.301 357.988 128.389 358.431 127.69C358.875 126.983 359.467 126.429 360.208 126.028C360.95 125.628 361.768 125.33 362.663 125.134C363.566 124.929 364.474 124.767 365.386 124.648C366.579 124.494 367.547 124.379 368.288 124.303C369.038 124.217 369.583 124.077 369.924 123.881C370.274 123.685 370.449 123.344 370.449 122.858V122.756C370.449 121.494 370.103 120.514 369.413 119.815C368.731 119.116 367.696 118.767 366.306 118.767C364.866 118.767 363.737 119.082 362.919 119.713C362.1 120.344 361.525 121.017 361.193 121.733L358.329 120.71C358.841 119.517 359.522 118.588 360.375 117.923C361.235 117.25 362.173 116.781 363.187 116.517C364.21 116.244 365.216 116.108 366.204 116.108C366.835 116.108 367.559 116.185 368.377 116.338C369.204 116.483 370.001 116.786 370.768 117.246C371.544 117.706 372.187 118.401 372.699 119.33C373.21 120.259 373.466 121.503 373.466 123.062V136H370.449V133.341H370.295C370.091 133.767 369.75 134.223 369.272 134.709C368.795 135.195 368.16 135.608 367.368 135.949C366.575 136.29 365.608 136.46 364.466 136.46ZM364.926 133.75C366.119 133.75 367.125 133.516 367.943 133.047C368.77 132.578 369.392 131.973 369.809 131.232C370.235 130.49 370.449 129.71 370.449 128.892V126.131C370.321 126.284 370.039 126.425 369.605 126.553C369.179 126.672 368.684 126.778 368.122 126.872C367.568 126.957 367.027 127.034 366.498 127.102C365.978 127.162 365.556 127.213 365.233 127.256C364.449 127.358 363.716 127.524 363.034 127.754C362.36 127.976 361.815 128.312 361.397 128.764C360.988 129.207 360.784 129.812 360.784 130.58C360.784 131.628 361.172 132.42 361.947 132.957C362.731 133.486 363.724 133.75 364.926 133.75ZM386.898 143.773C385.441 143.773 384.188 143.585 383.14 143.21C382.092 142.844 381.218 142.358 380.519 141.753C379.829 141.156 379.279 140.517 378.87 139.835L381.273 138.148C381.546 138.506 381.891 138.915 382.309 139.375C382.727 139.844 383.298 140.249 384.022 140.589C384.755 140.939 385.714 141.114 386.898 141.114C388.484 141.114 389.792 140.73 390.823 139.963C391.854 139.196 392.37 137.994 392.37 136.358V132.369H392.114C391.893 132.727 391.577 133.17 391.168 133.699C390.768 134.219 390.188 134.683 389.43 135.092C388.68 135.493 387.665 135.693 386.387 135.693C384.802 135.693 383.379 135.318 382.117 134.568C380.864 133.818 379.871 132.727 379.138 131.295C378.414 129.864 378.052 128.125 378.052 126.08C378.052 124.068 378.406 122.317 379.113 120.825C379.82 119.325 380.805 118.166 382.066 117.348C383.327 116.521 384.785 116.108 386.438 116.108C387.717 116.108 388.731 116.321 389.481 116.747C390.239 117.165 390.819 117.642 391.219 118.179C391.629 118.707 391.944 119.142 392.165 119.483H392.472V116.364H395.387V136.562C395.387 138.25 395.004 139.622 394.237 140.679C393.478 141.744 392.455 142.524 391.168 143.018C389.89 143.521 388.467 143.773 386.898 143.773ZM386.796 132.983C388.006 132.983 389.029 132.706 389.864 132.152C390.7 131.598 391.335 130.801 391.769 129.761C392.204 128.722 392.421 127.477 392.421 126.028C392.421 124.614 392.208 123.365 391.782 122.283C391.356 121.2 390.725 120.352 389.89 119.739C389.055 119.125 388.023 118.818 386.796 118.818C385.518 118.818 384.452 119.142 383.6 119.79C382.756 120.437 382.121 121.307 381.695 122.398C381.278 123.489 381.069 124.699 381.069 126.028C381.069 127.392 381.282 128.598 381.708 129.646C382.143 130.686 382.782 131.504 383.626 132.101C384.478 132.689 385.535 132.983 386.796 132.983ZM406.688 136.46C405.444 136.46 404.315 136.226 403.3 135.757C402.286 135.28 401.481 134.594 400.884 133.699C400.288 132.795 399.989 131.705 399.989 130.426C399.989 129.301 400.211 128.389 400.654 127.69C401.097 126.983 401.69 126.429 402.431 126.028C403.173 125.628 403.991 125.33 404.886 125.134C405.789 124.929 406.697 124.767 407.609 124.648C408.802 124.494 409.769 124.379 410.511 124.303C411.261 124.217 411.806 124.077 412.147 123.881C412.496 123.685 412.671 123.344 412.671 122.858V122.756C412.671 121.494 412.326 120.514 411.636 119.815C410.954 119.116 409.918 118.767 408.529 118.767C407.089 118.767 405.96 119.082 405.141 119.713C404.323 120.344 403.748 121.017 403.415 121.733L400.552 120.71C401.063 119.517 401.745 118.588 402.597 117.923C403.458 117.25 404.396 116.781 405.41 116.517C406.433 116.244 407.438 116.108 408.427 116.108C409.058 116.108 409.782 116.185 410.6 116.338C411.427 116.483 412.224 116.786 412.991 117.246C413.766 117.706 414.41 118.401 414.921 119.33C415.433 120.259 415.688 121.503 415.688 123.062V136H412.671V133.341H412.518C412.313 133.767 411.972 134.223 411.495 134.709C411.018 135.195 410.383 135.608 409.59 135.949C408.798 136.29 407.83 136.46 406.688 136.46ZM407.148 133.75C408.342 133.75 409.347 133.516 410.165 133.047C410.992 132.578 411.614 131.973 412.032 131.232C412.458 130.49 412.671 129.71 412.671 128.892V126.131C412.543 126.284 412.262 126.425 411.827 126.553C411.401 126.672 410.907 126.778 410.344 126.872C409.79 126.957 409.249 127.034 408.721 127.102C408.201 127.162 407.779 127.213 407.455 127.256C406.671 127.358 405.938 127.524 405.256 127.754C404.583 127.976 404.038 128.312 403.62 128.764C403.211 129.207 403.006 129.812 403.006 130.58C403.006 131.628 403.394 132.42 404.17 132.957C404.954 133.486 405.947 133.75 407.148 133.75ZM420.632 136V133.699L431.78 119.381V119.176H420.99V116.364H435.667V118.767L424.826 132.983V133.188H436.025V136H420.632ZM440.672 136V116.364H443.689V136H440.672ZM442.206 113.091C441.618 113.091 441.11 112.891 440.684 112.49C440.267 112.089 440.058 111.608 440.058 111.045C440.058 110.483 440.267 110.001 440.684 109.601C441.11 109.2 441.618 109 442.206 109C442.794 109 443.297 109.2 443.714 109.601C444.14 110.001 444.353 110.483 444.353 111.045C444.353 111.608 444.14 112.089 443.714 112.49C443.297 112.891 442.794 113.091 442.206 113.091ZM452.232 124.188V136H449.214V116.364H452.129V119.432H452.385C452.845 118.435 453.544 117.634 454.482 117.028C455.419 116.415 456.629 116.108 458.112 116.108C459.442 116.108 460.605 116.381 461.602 116.926C462.599 117.463 463.375 118.281 463.929 119.381C464.483 120.472 464.76 121.852 464.76 123.523V136H461.743V123.727C461.743 122.185 461.342 120.983 460.541 120.122C459.74 119.253 458.641 118.818 457.243 118.818C456.28 118.818 455.419 119.027 454.661 119.445C453.911 119.862 453.318 120.472 452.884 121.273C452.449 122.074 452.232 123.045 452.232 124.188ZM478.506 136.409C476.614 136.409 474.982 135.991 473.61 135.156C472.246 134.312 471.194 133.136 470.452 131.628C469.719 130.111 469.353 128.347 469.353 126.335C469.353 124.324 469.719 122.551 470.452 121.017C471.194 119.474 472.225 118.273 473.546 117.412C474.875 116.543 476.426 116.108 478.199 116.108C479.222 116.108 480.232 116.278 481.229 116.619C482.226 116.96 483.134 117.514 483.952 118.281C484.77 119.04 485.422 120.045 485.908 121.298C486.394 122.551 486.637 124.094 486.637 125.926V127.205H471.5V124.597H483.569C483.569 123.489 483.347 122.5 482.904 121.631C482.469 120.761 481.847 120.075 481.037 119.572C480.236 119.07 479.29 118.818 478.199 118.818C476.998 118.818 475.958 119.116 475.08 119.713C474.211 120.301 473.542 121.068 473.073 122.014C472.604 122.96 472.37 123.974 472.37 125.057V126.795C472.37 128.278 472.625 129.536 473.137 130.567C473.657 131.589 474.377 132.369 475.297 132.906C476.218 133.435 477.287 133.699 478.506 133.699C479.299 133.699 480.015 133.588 480.654 133.366C481.301 133.136 481.86 132.795 482.328 132.344C482.797 131.884 483.159 131.312 483.415 130.631L486.33 131.449C486.023 132.438 485.507 133.307 484.783 134.057C484.059 134.798 483.164 135.378 482.098 135.795C481.033 136.205 479.836 136.409 478.506 136.409ZM500.328 112.631V109.818H519.965V112.631H511.732V136H508.561V112.631H500.328ZM524.449 136V116.364H527.466V136H524.449ZM525.983 113.091C525.395 113.091 524.888 112.891 524.462 112.49C524.044 112.089 523.835 111.608 523.835 111.045C523.835 110.483 524.044 110.001 524.462 109.601C524.888 109.2 525.395 109 525.983 109C526.571 109 527.074 109.2 527.491 109.601C527.918 110.001 528.131 110.483 528.131 111.045C528.131 111.608 527.918 112.089 527.491 112.49C527.074 112.891 526.571 113.091 525.983 113.091ZM541.532 116.364V118.92H531.355V116.364H541.532ZM534.321 111.659H537.338V130.375C537.338 131.227 537.462 131.866 537.709 132.293C537.965 132.71 538.289 132.991 538.681 133.136C539.081 133.273 539.503 133.341 539.946 133.341C540.279 133.341 540.551 133.324 540.765 133.29C540.978 133.247 541.148 133.213 541.276 133.188L541.89 135.898C541.685 135.974 541.4 136.051 541.033 136.128C540.667 136.213 540.202 136.256 539.64 136.256C538.787 136.256 537.952 136.072 537.134 135.706C536.324 135.339 535.651 134.781 535.114 134.031C534.586 133.281 534.321 132.335 534.321 131.193V111.659ZM549.509 109.818V136H546.492V109.818H549.509ZM563.268 136.409C561.376 136.409 559.744 135.991 558.371 135.156C557.008 134.312 555.955 133.136 555.214 131.628C554.481 130.111 554.114 128.347 554.114 126.335C554.114 124.324 554.481 122.551 555.214 121.017C555.955 119.474 556.987 118.273 558.308 117.412C559.637 116.543 561.188 116.108 562.961 116.108C563.984 116.108 564.994 116.278 565.991 116.619C566.988 116.96 567.896 117.514 568.714 118.281C569.532 119.04 570.184 120.045 570.67 121.298C571.156 122.551 571.398 124.094 571.398 125.926V127.205H556.262V124.597H568.33C568.33 123.489 568.109 122.5 567.665 121.631C567.231 120.761 566.609 120.075 565.799 119.572C564.998 119.07 564.052 118.818 562.961 118.818C561.759 118.818 560.719 119.116 559.842 119.713C558.972 120.301 558.303 121.068 557.835 122.014C557.366 122.96 557.131 123.974 557.131 125.057V126.795C557.131 128.278 557.387 129.536 557.898 130.567C558.418 131.589 559.138 132.369 560.059 132.906C560.979 133.435 562.049 133.699 563.268 133.699C564.06 133.699 564.776 133.588 565.415 133.366C566.063 133.136 566.621 132.795 567.09 132.344C567.559 131.884 567.921 131.312 568.177 130.631L571.092 131.449C570.785 132.438 570.269 133.307 569.545 134.057C568.82 134.798 567.925 135.378 566.86 135.795C565.795 136.205 564.597 136.409 563.268 136.409Z" fill="black"/>
<path d="M27.642 167.182H30.7955L38.2102 185.293H38.4659L45.8807 167.182H49.0341V189H46.5625V172.423H46.3494L39.5312 189H37.1449L30.3267 172.423H30.1136V189H27.642V167.182ZM60.6383 189.341C59.161 189.341 57.8649 188.989 56.7498 188.286C55.6419 187.583 54.7754 186.599 54.1504 185.335C53.5325 184.071 53.2235 182.594 53.2235 180.903C53.2235 179.199 53.5325 177.711 54.1504 176.44C54.7754 175.168 55.6419 174.181 56.7498 173.478C57.8649 172.775 59.161 172.423 60.6383 172.423C62.1156 172.423 63.4082 172.775 64.5162 173.478C65.6312 174.181 66.4977 175.168 67.1156 176.44C67.7406 177.711 68.0531 179.199 68.0531 180.903C68.0531 182.594 67.7406 184.071 67.1156 185.335C66.4977 186.599 65.6312 187.583 64.5162 188.286C63.4082 188.989 62.1156 189.341 60.6383 189.341ZM60.6383 187.082C61.7605 187.082 62.6838 186.795 63.4082 186.219C64.1326 185.644 64.6689 184.888 65.0169 183.95C65.3649 183.013 65.5389 181.997 65.5389 180.903C65.5389 179.81 65.3649 178.79 65.0169 177.846C64.6689 176.901 64.1326 176.138 63.4082 175.555C62.6838 174.973 61.7605 174.682 60.6383 174.682C59.5162 174.682 58.5929 174.973 57.8684 175.555C57.144 176.138 56.6078 176.901 56.2598 177.846C55.9118 178.79 55.7377 179.81 55.7377 180.903C55.7377 181.997 55.9118 183.013 56.2598 183.95C56.6078 184.888 57.144 185.644 57.8684 186.219C58.5929 186.795 59.5162 187.082 60.6383 187.082ZM74.4052 179.156V189H71.891V172.636H74.32V175.193H74.533C74.9165 174.362 75.4989 173.695 76.2802 173.19C77.0614 172.679 78.07 172.423 79.3058 172.423C80.4137 172.423 81.3832 172.651 82.2141 173.105C83.0451 173.553 83.6914 174.234 84.1531 175.151C84.6147 176.06 84.8455 177.21 84.8455 178.602V189H82.3313V178.773C82.3313 177.487 81.9975 176.486 81.3299 175.768C80.6623 175.044 79.7461 174.682 78.5813 174.682C77.7788 174.682 77.0614 174.856 76.4293 175.204C75.8043 175.552 75.3107 176.06 74.9485 176.727C74.5863 177.395 74.4052 178.205 74.4052 179.156ZM96.5563 172.636V174.767H88.0762V172.636H96.5563ZM90.5478 168.716H93.062V184.312C93.062 185.023 93.165 185.555 93.3709 185.911C93.584 186.259 93.8539 186.493 94.1806 186.614C94.5144 186.727 94.8659 186.784 95.2353 186.784C95.5123 186.784 95.7395 186.77 95.9171 186.741C96.0946 186.706 96.2367 186.678 96.3432 186.656L96.8546 188.915C96.6841 188.979 96.4462 189.043 96.1408 189.107C95.8354 189.178 95.4483 189.213 94.9796 189.213C94.2694 189.213 93.5733 189.06 92.8915 188.755C92.2168 188.45 91.6557 187.984 91.2083 187.359C90.7679 186.734 90.5478 185.946 90.5478 184.994V168.716ZM103.204 179.156V189H100.69V167.182H103.204V175.193H103.417C103.801 174.348 104.376 173.677 105.143 173.18C105.917 172.675 106.947 172.423 108.232 172.423C109.347 172.423 110.324 172.647 111.162 173.094C112 173.535 112.65 174.213 113.112 175.129C113.58 176.038 113.815 177.196 113.815 178.602V189H111.301V178.773C111.301 177.473 110.963 176.468 110.289 175.758C109.621 175.04 108.694 174.682 107.508 174.682C106.684 174.682 105.945 174.856 105.292 175.204C104.646 175.552 104.134 176.06 103.758 176.727C103.389 177.395 103.204 178.205 103.204 179.156Z" fill="black"/>
<path d="M393.284 167.182V189H390.642V167.182H393.284ZM409.831 176.301L407.573 176.94C407.431 176.564 407.221 176.198 406.944 175.843C406.675 175.481 406.305 175.183 405.836 174.948C405.368 174.714 404.768 174.597 404.036 174.597C403.035 174.597 402.2 174.827 401.532 175.289C400.872 175.744 400.542 176.322 400.542 177.026C400.542 177.651 400.769 178.144 401.224 178.506C401.678 178.869 402.388 179.17 403.354 179.412L405.783 180.009C407.246 180.364 408.336 180.907 409.054 181.638C409.771 182.363 410.13 183.297 410.13 184.44C410.13 185.378 409.86 186.216 409.32 186.955C408.787 187.693 408.042 188.276 407.083 188.702C406.124 189.128 405.009 189.341 403.738 189.341C402.069 189.341 400.687 188.979 399.594 188.254C398.5 187.53 397.807 186.472 397.516 185.08L399.903 184.483C400.13 185.364 400.559 186.024 401.192 186.464C401.831 186.905 402.665 187.125 403.695 187.125C404.867 187.125 405.797 186.876 406.486 186.379C407.182 185.875 407.53 185.271 407.53 184.568C407.53 184 407.331 183.524 406.934 183.141C406.536 182.75 405.925 182.459 405.101 182.267L402.374 181.628C400.876 181.273 399.775 180.722 399.072 179.977C398.376 179.224 398.028 178.283 398.028 177.153C398.028 176.23 398.287 175.413 398.805 174.703C399.331 173.993 400.045 173.435 400.947 173.031C401.856 172.626 402.885 172.423 404.036 172.423C405.655 172.423 406.927 172.778 407.85 173.489C408.78 174.199 409.441 175.136 409.831 176.301ZM425.505 176.301L423.247 176.94C423.105 176.564 422.895 176.198 422.618 175.843C422.348 175.481 421.979 175.183 421.51 174.948C421.042 174.714 420.441 174.597 419.71 174.597C418.708 174.597 417.874 174.827 417.206 175.289C416.546 175.744 416.216 176.322 416.216 177.026C416.216 177.651 416.443 178.144 416.897 178.506C417.352 178.869 418.062 179.17 419.028 179.412L421.457 180.009C422.92 180.364 424.01 180.907 424.728 181.638C425.445 182.363 425.804 183.297 425.804 184.44C425.804 185.378 425.534 186.216 424.994 186.955C424.461 187.693 423.716 188.276 422.757 188.702C421.798 189.128 420.683 189.341 419.412 189.341C417.743 189.341 416.361 188.979 415.267 188.254C414.174 187.53 413.481 186.472 413.19 185.08L415.576 184.483C415.804 185.364 416.233 186.024 416.865 186.464C417.505 186.905 418.339 187.125 419.369 187.125C420.541 187.125 421.471 186.876 422.16 186.379C422.856 185.875 423.204 185.271 423.204 184.568C423.204 184 423.005 183.524 422.608 183.141C422.21 182.75 421.599 182.459 420.775 182.267L418.048 181.628C416.549 181.273 415.449 180.722 414.745 179.977C414.049 179.224 413.701 178.283 413.701 177.153C413.701 176.23 413.961 175.413 414.479 174.703C415.005 173.993 415.718 173.435 416.62 173.031C417.529 172.626 418.559 172.423 419.71 172.423C421.329 172.423 422.6 172.778 423.524 173.489C424.454 174.199 425.115 175.136 425.505 176.301ZM439.901 182.31V172.636H442.415V189H439.901V186.23H439.73C439.347 187.061 438.75 187.768 437.941 188.35C437.131 188.925 436.108 189.213 434.872 189.213C433.85 189.213 432.941 188.989 432.145 188.542C431.35 188.087 430.725 187.406 430.27 186.496C429.816 185.58 429.588 184.426 429.588 183.034V172.636H432.102V182.864C432.102 184.057 432.436 185.009 433.104 185.719C433.779 186.429 434.638 186.784 435.682 186.784C436.307 186.784 436.943 186.624 437.589 186.305C438.242 185.985 438.789 185.495 439.23 184.835C439.677 184.174 439.901 183.332 439.901 182.31ZM453.881 189.341C452.304 189.341 450.944 188.993 449.8 188.297C448.664 187.594 447.787 186.614 447.169 185.357C446.558 184.092 446.253 182.622 446.253 180.946C446.253 179.27 446.558 177.793 447.169 176.514C447.787 175.229 448.646 174.227 449.747 173.51C450.855 172.786 452.148 172.423 453.625 172.423C454.477 172.423 455.319 172.565 456.15 172.849C456.981 173.134 457.737 173.595 458.419 174.234C459.101 174.866 459.644 175.705 460.049 176.749C460.454 177.793 460.656 179.078 460.656 180.605V181.67H448.043V179.497H458.099C458.099 178.574 457.915 177.75 457.545 177.026C457.183 176.301 456.665 175.729 455.99 175.31C455.322 174.891 454.534 174.682 453.625 174.682C452.624 174.682 451.757 174.93 451.026 175.428C450.301 175.918 449.744 176.557 449.353 177.345C448.962 178.134 448.767 178.979 448.767 179.881V181.33C448.767 182.565 448.98 183.613 449.406 184.472C449.839 185.325 450.44 185.974 451.207 186.422C451.974 186.862 452.865 187.082 453.881 187.082C454.541 187.082 455.138 186.99 455.67 186.805C456.21 186.614 456.675 186.33 457.066 185.953C457.457 185.57 457.759 185.094 457.972 184.526L460.401 185.207C460.145 186.031 459.715 186.756 459.112 187.381C458.508 187.999 457.762 188.482 456.874 188.83C455.987 189.17 454.989 189.341 453.881 189.341ZM490.56 167.182V189H488.004L476.114 171.869H475.901V189H473.259V167.182H475.816L487.748 184.355H487.961V167.182H490.56ZM505.819 182.31V172.636H508.333V189H505.819V186.23H505.648C505.265 187.061 504.668 187.768 503.858 188.35C503.049 188.925 502.026 189.213 500.79 189.213C499.768 189.213 498.858 188.989 498.063 188.542C497.268 188.087 496.643 187.406 496.188 186.496C495.733 185.58 495.506 184.426 495.506 183.034V172.636H498.02V182.864C498.02 184.057 498.354 185.009 499.022 185.719C499.697 186.429 500.556 186.784 501.6 186.784C502.225 186.784 502.861 186.624 503.507 186.305C504.16 185.985 504.707 185.495 505.148 184.835C505.595 184.174 505.819 183.332 505.819 182.31ZM512.938 189V172.636H515.367V175.193H515.58C515.921 174.32 516.471 173.641 517.231 173.158C517.991 172.668 518.904 172.423 519.969 172.423C521.049 172.423 521.947 172.668 522.664 173.158C523.389 173.641 523.953 174.32 524.358 175.193H524.529C524.948 174.348 525.576 173.677 526.414 173.18C527.252 172.675 528.257 172.423 529.429 172.423C530.892 172.423 532.089 172.881 533.02 173.798C533.95 174.707 534.415 176.124 534.415 178.048V189H531.901V178.048C531.901 176.841 531.571 175.978 530.91 175.46C530.25 174.941 529.472 174.682 528.577 174.682C527.426 174.682 526.535 175.03 525.903 175.726C525.271 176.415 524.955 177.288 524.955 178.347V189H522.398V177.793C522.398 176.862 522.096 176.113 521.493 175.545C520.889 174.969 520.111 174.682 519.159 174.682C518.506 174.682 517.895 174.856 517.327 175.204C516.766 175.552 516.311 176.035 515.963 176.653C515.623 177.263 515.452 177.97 515.452 178.773V189H512.938ZM539.353 189V167.182H541.867V175.236H542.08C542.265 174.952 542.521 174.589 542.847 174.149C543.181 173.702 543.657 173.304 544.275 172.956C544.9 172.601 545.745 172.423 546.81 172.423C548.188 172.423 549.403 172.768 550.454 173.457C551.505 174.146 552.325 175.122 552.915 176.386C553.504 177.651 553.799 179.142 553.799 180.861C553.799 182.594 553.504 184.096 552.915 185.367C552.325 186.631 551.509 187.612 550.464 188.308C549.42 188.996 548.217 189.341 546.853 189.341C545.802 189.341 544.96 189.167 544.328 188.819C543.696 188.464 543.21 188.062 542.869 187.615C542.528 187.161 542.265 186.784 542.08 186.486H541.782V189H539.353ZM541.825 180.818C541.825 182.054 542.006 183.144 542.368 184.089C542.73 185.026 543.259 185.761 543.955 186.294C544.651 186.82 545.504 187.082 546.512 187.082C547.563 187.082 548.44 186.805 549.143 186.251C549.854 185.69 550.386 184.937 550.741 183.993C551.104 183.041 551.285 181.983 551.285 180.818C551.285 179.668 551.107 178.631 550.752 177.707C550.404 176.777 549.875 176.042 549.165 175.502C548.462 174.955 547.577 174.682 546.512 174.682C545.489 174.682 544.63 174.941 543.934 175.46C543.238 175.971 542.712 176.688 542.357 177.612C542.002 178.528 541.825 179.597 541.825 180.818ZM564.506 189.341C562.929 189.341 561.569 188.993 560.425 188.297C559.289 187.594 558.412 186.614 557.794 185.357C557.183 184.092 556.878 182.622 556.878 180.946C556.878 179.27 557.183 177.793 557.794 176.514C558.412 175.229 559.271 174.227 560.372 173.51C561.48 172.786 562.773 172.423 564.25 172.423C565.102 172.423 565.944 172.565 566.775 172.849C567.606 173.134 568.362 173.595 569.044 174.234C569.726 174.866 570.269 175.705 570.674 176.749C571.079 177.793 571.281 179.078 571.281 180.605V181.67H558.668V179.497H568.724C568.724 178.574 568.54 177.75 568.17 177.026C567.808 176.301 567.29 175.729 566.615 175.31C565.947 174.891 565.159 174.682 564.25 174.682C563.249 174.682 562.382 174.93 561.651 175.428C560.926 175.918 560.369 176.557 559.978 177.345C559.587 178.134 559.392 178.979 559.392 179.881V181.33C559.392 182.565 559.605 183.613 560.031 184.472C560.464 185.325 561.065 185.974 561.832 186.422C562.599 186.862 563.49 187.082 564.506 187.082C565.166 187.082 565.763 186.99 566.295 186.805C566.835 186.614 567.3 186.33 567.691 185.953C568.082 185.57 568.384 185.094 568.597 184.526L571.026 185.207C570.77 186.031 570.34 186.756 569.737 187.381C569.133 187.999 568.387 188.482 567.499 188.83C566.612 189.17 565.614 189.341 564.506 189.341ZM575.106 189V172.636H577.535V175.108H577.705C578.004 174.298 578.543 173.641 579.325 173.137C580.106 172.633 580.987 172.381 581.967 172.381C582.151 172.381 582.382 172.384 582.659 172.391C582.936 172.398 583.146 172.409 583.288 172.423V174.98C583.202 174.959 583.007 174.927 582.702 174.884C582.403 174.835 582.087 174.81 581.754 174.81C580.958 174.81 580.248 174.977 579.623 175.31C579.005 175.637 578.515 176.092 578.153 176.674C577.798 177.249 577.62 177.906 577.62 178.645V189H575.106Z" fill="black"/>
<rect width="695" height="748" transform="translate(373 246)" fill="#A5A5A5"/>
<path d="M406.585 812.909H408.477L412.926 823.776H413.08L417.528 812.909H419.42V826H417.938V816.054H417.81L413.719 826H412.287L408.196 816.054H408.068V826H406.585V812.909ZM425.284 826.23C424.661 826.23 424.097 826.113 423.59 825.879C423.083 825.64 422.68 825.297 422.382 824.849C422.083 824.398 421.934 823.852 421.934 823.213C421.934 822.651 422.045 822.195 422.267 821.845C422.488 821.491 422.784 821.214 423.155 821.014C423.526 820.814 423.935 820.665 424.382 820.567C424.834 820.464 425.288 820.384 425.744 820.324C426.34 820.247 426.824 820.19 427.195 820.151C427.57 820.109 427.843 820.038 428.013 819.94C428.188 819.842 428.275 819.672 428.275 819.429V819.378C428.275 818.747 428.102 818.257 427.757 817.908C427.416 817.558 426.899 817.384 426.204 817.384C425.484 817.384 424.919 817.541 424.51 817.857C424.101 818.172 423.813 818.509 423.647 818.866L422.215 818.355C422.471 817.759 422.812 817.294 423.238 816.962C423.669 816.625 424.137 816.391 424.644 816.259C425.156 816.122 425.659 816.054 426.153 816.054C426.468 816.054 426.83 816.092 427.24 816.169C427.653 816.241 428.051 816.393 428.435 816.623C428.823 816.853 429.144 817.2 429.4 817.665C429.656 818.129 429.784 818.751 429.784 819.531V826H428.275V824.67H428.198C428.096 824.884 427.926 825.112 427.687 825.354C427.448 825.597 427.131 825.804 426.735 825.974C426.338 826.145 425.855 826.23 425.284 826.23ZM425.514 824.875C426.11 824.875 426.613 824.758 427.022 824.523C427.436 824.289 427.747 823.987 427.955 823.616C428.169 823.245 428.275 822.855 428.275 822.446V821.065C428.211 821.142 428.07 821.212 427.853 821.276C427.64 821.336 427.393 821.389 427.112 821.436C426.835 821.479 426.564 821.517 426.3 821.551C426.04 821.581 425.829 821.607 425.667 821.628C425.275 821.679 424.909 821.762 424.568 821.877C424.231 821.988 423.958 822.156 423.749 822.382C423.545 822.604 423.443 822.906 423.443 823.29C423.443 823.814 423.637 824.21 424.024 824.479C424.416 824.743 424.913 824.875 425.514 824.875ZM436.5 829.886C435.771 829.886 435.145 829.793 434.621 829.605C434.097 829.422 433.66 829.179 433.31 828.876C432.965 828.578 432.69 828.259 432.486 827.918L433.688 827.074C433.824 827.253 433.996 827.457 434.205 827.688C434.414 827.922 434.7 828.124 435.062 828.295C435.428 828.469 435.908 828.557 436.5 828.557C437.293 828.557 437.947 828.365 438.462 827.982C438.978 827.598 439.236 826.997 439.236 826.179V824.185H439.108C438.997 824.364 438.839 824.585 438.635 824.849C438.435 825.109 438.145 825.342 437.766 825.546C437.391 825.746 436.884 825.847 436.244 825.847C435.452 825.847 434.74 825.659 434.109 825.284C433.483 824.909 432.987 824.364 432.62 823.648C432.258 822.932 432.077 822.062 432.077 821.04C432.077 820.034 432.254 819.158 432.607 818.413C432.961 817.663 433.453 817.083 434.084 816.674C434.714 816.261 435.443 816.054 436.27 816.054C436.909 816.054 437.416 816.161 437.791 816.374C438.17 816.582 438.46 816.821 438.661 817.089C438.865 817.354 439.023 817.571 439.134 817.741H439.287V816.182H440.744V826.281C440.744 827.125 440.553 827.811 440.169 828.339C439.79 828.872 439.278 829.262 438.635 829.509C437.996 829.761 437.284 829.886 436.5 829.886ZM436.449 824.491C437.054 824.491 437.565 824.353 437.983 824.076C438.401 823.799 438.718 823.401 438.935 822.881C439.153 822.361 439.261 821.739 439.261 821.014C439.261 820.307 439.155 819.683 438.942 819.141C438.729 818.6 438.413 818.176 437.996 817.869C437.578 817.562 437.063 817.409 436.449 817.409C435.81 817.409 435.277 817.571 434.851 817.895C434.429 818.219 434.112 818.653 433.898 819.199C433.69 819.744 433.585 820.349 433.585 821.014C433.585 821.696 433.692 822.299 433.905 822.823C434.122 823.343 434.442 823.752 434.864 824.05C435.29 824.344 435.818 824.491 436.449 824.491ZM446.395 826.23C445.773 826.23 445.208 826.113 444.701 825.879C444.194 825.64 443.791 825.297 443.493 824.849C443.195 824.398 443.045 823.852 443.045 823.213C443.045 822.651 443.156 822.195 443.378 821.845C443.599 821.491 443.896 821.214 444.266 821.014C444.637 820.814 445.046 820.665 445.494 820.567C445.945 820.464 446.399 820.384 446.855 820.324C447.452 820.247 447.935 820.19 448.306 820.151C448.681 820.109 448.954 820.038 449.124 819.94C449.299 819.842 449.386 819.672 449.386 819.429V819.378C449.386 818.747 449.214 818.257 448.869 817.908C448.528 817.558 448.01 817.384 447.315 817.384C446.595 817.384 446.031 817.541 445.621 817.857C445.212 818.172 444.925 818.509 444.759 818.866L443.327 818.355C443.582 817.759 443.923 817.294 444.349 816.962C444.78 816.625 445.249 816.391 445.756 816.259C446.267 816.122 446.77 816.054 447.264 816.054C447.58 816.054 447.942 816.092 448.351 816.169C448.764 816.241 449.163 816.393 449.546 816.623C449.934 816.853 450.256 817.2 450.511 817.665C450.767 818.129 450.895 818.751 450.895 819.531V826H449.386V824.67H449.31C449.207 824.884 449.037 825.112 448.798 825.354C448.56 825.597 448.242 825.804 447.846 825.974C447.45 826.145 446.966 826.23 446.395 826.23ZM446.625 824.875C447.222 824.875 447.724 824.758 448.134 824.523C448.547 824.289 448.858 823.987 449.067 823.616C449.28 823.245 449.386 822.855 449.386 822.446V821.065C449.322 821.142 449.182 821.212 448.964 821.276C448.751 821.336 448.504 821.389 448.223 821.436C447.946 821.479 447.675 821.517 447.411 821.551C447.151 821.581 446.94 821.607 446.778 821.628C446.386 821.679 446.02 821.762 445.679 821.877C445.342 821.988 445.07 822.156 444.861 822.382C444.656 822.604 444.554 822.906 444.554 823.29C444.554 823.814 444.748 824.21 445.136 824.479C445.528 824.743 446.024 824.875 446.625 824.875ZM453.367 826V824.849L458.941 817.69V817.588H453.546V816.182H460.884V817.384L455.464 824.491V824.594H461.063V826H453.367ZM463.387 826V816.182H464.895V826H463.387ZM464.154 814.545C463.86 814.545 463.606 814.445 463.393 814.245C463.184 814.045 463.08 813.804 463.08 813.523C463.08 813.241 463.184 813.001 463.393 812.8C463.606 812.6 463.86 812.5 464.154 812.5C464.448 812.5 464.699 812.6 464.908 812.8C465.121 813.001 465.227 813.241 465.227 813.523C465.227 813.804 465.121 814.045 464.908 814.245C464.699 814.445 464.448 814.545 464.154 814.545ZM469.167 820.094V826H467.658V816.182H469.115V817.716H469.243C469.473 817.217 469.823 816.817 470.292 816.514C470.76 816.207 471.365 816.054 472.107 816.054C472.772 816.054 473.353 816.19 473.852 816.463C474.35 816.732 474.738 817.141 475.015 817.69C475.292 818.236 475.431 818.926 475.431 819.761V826H473.922V819.864C473.922 819.092 473.722 818.491 473.321 818.061C472.921 817.626 472.371 817.409 471.672 817.409C471.191 817.409 470.76 817.513 470.381 817.722C470.006 817.931 469.71 818.236 469.493 818.636C469.275 819.037 469.167 819.523 469.167 820.094ZM482.304 826.205C481.358 826.205 480.542 825.996 479.856 825.578C479.174 825.156 478.648 824.568 478.277 823.814C477.91 823.055 477.727 822.173 477.727 821.168C477.727 820.162 477.91 819.276 478.277 818.509C478.648 817.737 479.163 817.136 479.824 816.706C480.488 816.271 481.264 816.054 482.15 816.054C482.662 816.054 483.167 816.139 483.665 816.31C484.164 816.48 484.618 816.757 485.027 817.141C485.436 817.52 485.762 818.023 486.005 818.649C486.248 819.276 486.369 820.047 486.369 820.963V821.602H478.801V820.298H484.835C484.835 819.744 484.724 819.25 484.503 818.815C484.285 818.381 483.974 818.038 483.569 817.786C483.169 817.535 482.696 817.409 482.15 817.409C481.55 817.409 481.03 817.558 480.591 817.857C480.156 818.151 479.822 818.534 479.587 819.007C479.353 819.48 479.236 819.987 479.236 820.528V821.398C479.236 822.139 479.363 822.768 479.619 823.283C479.879 823.795 480.239 824.185 480.699 824.453C481.16 824.717 481.694 824.849 482.304 824.849C482.7 824.849 483.058 824.794 483.378 824.683C483.702 824.568 483.981 824.398 484.215 824.172C484.449 823.942 484.631 823.656 484.758 823.315L486.216 823.724C486.062 824.219 485.805 824.653 485.442 825.028C485.08 825.399 484.633 825.689 484.1 825.898C483.567 826.102 482.969 826.205 482.304 826.205ZM497.715 826.205C496.795 826.205 496.002 825.987 495.337 825.553C494.672 825.118 494.161 824.519 493.803 823.756C493.445 822.994 493.266 822.122 493.266 821.142C493.266 820.145 493.449 819.265 493.816 818.502C494.187 817.735 494.702 817.136 495.363 816.706C496.028 816.271 496.803 816.054 497.689 816.054C498.38 816.054 499.002 816.182 499.556 816.438C500.11 816.693 500.564 817.051 500.917 817.511C501.271 817.972 501.491 818.509 501.576 819.122H500.067C499.952 818.675 499.697 818.278 499.3 817.933C498.908 817.584 498.38 817.409 497.715 817.409C497.127 817.409 496.611 817.562 496.168 817.869C495.729 818.172 495.386 818.6 495.139 819.154C494.896 819.704 494.775 820.349 494.775 821.091C494.775 821.849 494.894 822.51 495.133 823.072C495.376 823.635 495.716 824.072 496.155 824.383C496.599 824.694 497.118 824.849 497.715 824.849C498.107 824.849 498.463 824.781 498.782 824.645C499.102 824.509 499.373 824.312 499.594 824.057C499.816 823.801 499.974 823.494 500.067 823.136H501.576C501.491 823.716 501.28 824.238 500.943 824.702C500.611 825.163 500.17 825.529 499.62 825.802C499.074 826.07 498.439 826.205 497.715 826.205ZM507.77 826.205C506.883 826.205 506.106 825.994 505.437 825.572C504.772 825.15 504.252 824.56 503.877 823.801C503.506 823.043 503.321 822.156 503.321 821.142C503.321 820.119 503.506 819.227 503.877 818.464C504.252 817.701 504.772 817.109 505.437 816.687C506.106 816.265 506.883 816.054 507.77 816.054C508.656 816.054 509.432 816.265 510.096 816.687C510.765 817.109 511.285 817.701 511.656 818.464C512.031 819.227 512.219 820.119 512.219 821.142C512.219 822.156 512.031 823.043 511.656 823.801C511.285 824.56 510.765 825.15 510.096 825.572C509.432 825.994 508.656 826.205 507.77 826.205ZM507.77 824.849C508.443 824.849 508.997 824.677 509.432 824.332C509.866 823.987 510.188 823.533 510.397 822.97C510.606 822.408 510.71 821.798 510.71 821.142C510.71 820.486 510.606 819.874 510.397 819.308C510.188 818.741 509.866 818.283 509.432 817.933C508.997 817.584 508.443 817.409 507.77 817.409C507.096 817.409 506.542 817.584 506.108 817.933C505.673 818.283 505.351 818.741 505.143 819.308C504.934 819.874 504.829 820.486 504.829 821.142C504.829 821.798 504.934 822.408 505.143 822.97C505.351 823.533 505.673 823.987 506.108 824.332C506.542 824.677 507.096 824.849 507.77 824.849ZM522.198 816.182L518.567 826H517.033L513.403 816.182H515.039L517.749 824.006H517.852L520.562 816.182H522.198ZM527.954 826.205C527.008 826.205 526.192 825.996 525.506 825.578C524.824 825.156 524.298 824.568 523.927 823.814C523.561 823.055 523.377 822.173 523.377 821.168C523.377 820.162 523.561 819.276 523.927 818.509C524.298 817.737 524.814 817.136 525.474 816.706C526.139 816.271 526.914 816.054 527.801 816.054C528.312 816.054 528.817 816.139 529.316 816.31C529.814 816.48 530.268 816.757 530.677 817.141C531.086 817.52 531.412 818.023 531.655 818.649C531.898 819.276 532.02 820.047 532.02 820.963V821.602H524.451V820.298H530.485C530.485 819.744 530.375 819.25 530.153 818.815C529.936 818.381 529.625 818.038 529.22 817.786C528.819 817.535 528.346 817.409 527.801 817.409C527.2 817.409 526.68 817.558 526.241 817.857C525.806 818.151 525.472 818.534 525.238 819.007C525.003 819.48 524.886 819.987 524.886 820.528V821.398C524.886 822.139 525.014 822.768 525.27 823.283C525.529 823.795 525.89 824.185 526.35 824.453C526.81 824.717 527.345 824.849 527.954 824.849C528.35 824.849 528.708 824.794 529.028 824.683C529.352 824.568 529.631 824.398 529.865 824.172C530.1 823.942 530.281 823.656 530.409 823.315L531.866 823.724C531.713 824.219 531.455 824.653 531.093 825.028C530.73 825.399 530.283 825.689 529.75 825.898C529.218 826.102 528.619 826.205 527.954 826.205ZM534.314 826V816.182H535.772V817.665H535.874C536.053 817.179 536.377 816.785 536.846 816.482C537.314 816.18 537.843 816.028 538.431 816.028C538.542 816.028 538.68 816.031 538.846 816.035C539.012 816.039 539.138 816.045 539.223 816.054V817.588C539.172 817.575 539.055 817.556 538.872 817.531C538.693 817.501 538.503 817.486 538.303 817.486C537.826 817.486 537.4 817.586 537.025 817.786C536.654 817.982 536.36 818.255 536.142 818.604C535.929 818.95 535.823 819.344 535.823 819.787V826H534.314Z" fill="black"/>
<path d="M921.631 968.455C921.631 969.835 921.381 971.028 920.883 972.034C920.384 973.04 919.7 973.815 918.831 974.361C917.962 974.906 916.969 975.179 915.852 975.179C914.736 975.179 913.743 974.906 912.874 974.361C912.004 973.815 911.32 973.04 910.822 972.034C910.323 971.028 910.074 969.835 910.074 968.455C910.074 967.074 910.323 965.881 910.822 964.875C911.32 963.869 912.004 963.094 912.874 962.548C913.743 962.003 914.736 961.73 915.852 961.73C916.969 961.73 917.962 962.003 918.831 962.548C919.7 963.094 920.384 963.869 920.883 964.875C921.381 965.881 921.631 967.074 921.631 968.455ZM920.097 968.455C920.097 967.321 919.907 966.364 919.528 965.585C919.153 964.805 918.643 964.214 918 963.814C917.361 963.413 916.645 963.213 915.852 963.213C915.06 963.213 914.342 963.413 913.698 963.814C913.059 964.214 912.55 964.805 912.17 965.585C911.795 966.364 911.608 967.321 911.608 968.455C911.608 969.588 911.795 970.545 912.17 971.325C912.55 972.104 913.059 972.695 913.698 973.095C914.342 973.496 915.06 973.696 915.852 973.696C916.645 973.696 917.361 973.496 918 973.095C918.643 972.695 919.153 972.104 919.528 971.325C919.907 970.545 920.097 969.588 920.097 968.455ZM924.092 978.682V965.182H925.549V966.741H925.728C925.839 966.571 925.992 966.354 926.188 966.089C926.388 965.821 926.674 965.582 927.045 965.374C927.42 965.161 927.927 965.054 928.566 965.054C929.393 965.054 930.121 965.261 930.752 965.674C931.383 966.087 931.875 966.673 932.229 967.432C932.582 968.19 932.759 969.085 932.759 970.116C932.759 971.156 932.582 972.058 932.229 972.82C931.875 973.579 931.385 974.167 930.759 974.585C930.132 974.998 929.41 975.205 928.592 975.205C927.961 975.205 927.456 975.1 927.077 974.891C926.697 974.678 926.406 974.437 926.201 974.169C925.996 973.896 925.839 973.67 925.728 973.491H925.6V978.682H924.092ZM925.575 970.091C925.575 970.832 925.683 971.487 925.901 972.053C926.118 972.616 926.435 973.057 926.853 973.376C927.271 973.692 927.782 973.849 928.387 973.849C929.018 973.849 929.544 973.683 929.966 973.351C930.392 973.014 930.712 972.562 930.925 971.996C931.142 971.425 931.251 970.79 931.251 970.091C931.251 969.401 931.144 968.778 930.931 968.224C930.722 967.666 930.405 967.225 929.979 966.901C929.557 966.573 929.026 966.409 928.387 966.409C927.773 966.409 927.258 966.565 926.84 966.876C926.423 967.183 926.107 967.613 925.894 968.167C925.681 968.717 925.575 969.358 925.575 970.091ZM939.177 975.205C938.231 975.205 937.415 974.996 936.729 974.578C936.047 974.156 935.521 973.568 935.15 972.814C934.783 972.055 934.6 971.173 934.6 970.168C934.6 969.162 934.783 968.276 935.15 967.509C935.521 966.737 936.036 966.136 936.697 965.706C937.362 965.271 938.137 965.054 939.023 965.054C939.535 965.054 940.04 965.139 940.538 965.31C941.037 965.48 941.491 965.757 941.9 966.141C942.309 966.52 942.635 967.023 942.878 967.649C943.121 968.276 943.242 969.047 943.242 969.963V970.602H935.674V969.298H941.708C941.708 968.744 941.597 968.25 941.376 967.815C941.158 967.381 940.847 967.038 940.442 966.786C940.042 966.535 939.569 966.409 939.023 966.409C938.423 966.409 937.903 966.558 937.464 966.857C937.029 967.151 936.695 967.534 936.46 968.007C936.226 968.48 936.109 968.987 936.109 969.528V970.398C936.109 971.139 936.237 971.768 936.492 972.283C936.752 972.795 937.112 973.185 937.572 973.453C938.033 973.717 938.567 973.849 939.177 973.849C939.573 973.849 939.931 973.794 940.251 973.683C940.575 973.568 940.854 973.398 941.088 973.172C941.322 972.942 941.504 972.656 941.631 972.315L943.089 972.724C942.935 973.219 942.678 973.653 942.315 974.028C941.953 974.399 941.506 974.689 940.973 974.898C940.44 975.102 939.842 975.205 939.177 975.205ZM947.045 969.094V975H945.537V965.182H946.994V966.716H947.122C947.352 966.217 947.702 965.817 948.17 965.514C948.639 965.207 949.244 965.054 949.986 965.054C950.651 965.054 951.232 965.19 951.731 965.463C952.229 965.732 952.617 966.141 952.894 966.69C953.171 967.236 953.31 967.926 953.31 968.761V975H951.801V968.864C951.801 968.092 951.601 967.491 951.2 967.061C950.8 966.626 950.25 966.409 949.551 966.409C949.07 966.409 948.639 966.513 948.26 966.722C947.885 966.931 947.589 967.236 947.371 967.636C947.154 968.037 947.045 968.523 947.045 969.094ZM961.333 961.909H963.225L967.674 972.776H967.828L972.276 961.909H974.169V975H972.686V965.054H972.558L968.467 975H967.035L962.944 965.054H962.816V975H961.333V961.909ZM980.032 975.23C979.409 975.23 978.845 975.113 978.338 974.879C977.831 974.64 977.428 974.297 977.13 973.849C976.831 973.398 976.682 972.852 976.682 972.213C976.682 971.651 976.793 971.195 977.015 970.845C977.236 970.491 977.532 970.214 977.903 970.014C978.274 969.814 978.683 969.665 979.13 969.567C979.582 969.464 980.036 969.384 980.492 969.324C981.088 969.247 981.572 969.19 981.943 969.151C982.318 969.109 982.591 969.038 982.761 968.94C982.936 968.842 983.023 968.672 983.023 968.429V968.378C983.023 967.747 982.85 967.257 982.505 966.908C982.164 966.558 981.647 966.384 980.952 966.384C980.232 966.384 979.667 966.541 979.258 966.857C978.849 967.172 978.561 967.509 978.395 967.866L976.963 967.355C977.219 966.759 977.56 966.294 977.986 965.962C978.417 965.625 978.885 965.391 979.392 965.259C979.904 965.122 980.407 965.054 980.901 965.054C981.216 965.054 981.578 965.092 981.988 965.169C982.401 965.241 982.799 965.393 983.183 965.623C983.571 965.853 983.892 966.2 984.148 966.665C984.404 967.129 984.532 967.751 984.532 968.531V975H983.023V973.67H982.946C982.844 973.884 982.674 974.112 982.435 974.354C982.196 974.597 981.879 974.804 981.483 974.974C981.086 975.145 980.603 975.23 980.032 975.23ZM980.262 973.875C980.858 973.875 981.361 973.758 981.77 973.523C982.184 973.289 982.495 972.987 982.703 972.616C982.917 972.245 983.023 971.855 983.023 971.446V970.065C982.959 970.142 982.819 970.212 982.601 970.276C982.388 970.336 982.141 970.389 981.86 970.436C981.583 970.479 981.312 970.517 981.048 970.551C980.788 970.581 980.577 970.607 980.415 970.628C980.023 970.679 979.657 970.762 979.316 970.877C978.979 970.988 978.706 971.156 978.498 971.382C978.293 971.604 978.191 971.906 978.191 972.29C978.191 972.814 978.385 973.21 978.772 973.479C979.164 973.743 979.661 973.875 980.262 973.875ZM991.248 978.886C990.519 978.886 989.893 978.793 989.369 978.605C988.845 978.422 988.408 978.179 988.058 977.876C987.713 977.578 987.438 977.259 987.234 976.918L988.436 976.074C988.572 976.253 988.744 976.457 988.953 976.688C989.162 976.922 989.448 977.124 989.81 977.295C990.176 977.469 990.656 977.557 991.248 977.557C992.041 977.557 992.695 977.365 993.21 976.982C993.726 976.598 993.984 975.997 993.984 975.179V973.185H993.856C993.745 973.364 993.588 973.585 993.383 973.849C993.183 974.109 992.893 974.342 992.514 974.546C992.139 974.746 991.632 974.847 990.992 974.847C990.2 974.847 989.488 974.659 988.857 974.284C988.231 973.909 987.735 973.364 987.368 972.648C987.006 971.932 986.825 971.062 986.825 970.04C986.825 969.034 987.002 968.158 987.355 967.413C987.709 966.663 988.201 966.083 988.832 965.674C989.463 965.261 990.191 965.054 991.018 965.054C991.657 965.054 992.164 965.161 992.539 965.374C992.919 965.582 993.208 965.821 993.409 966.089C993.613 966.354 993.771 966.571 993.882 966.741H994.035V965.182H995.492V975.281C995.492 976.125 995.301 976.811 994.917 977.339C994.538 977.872 994.026 978.262 993.383 978.509C992.744 978.761 992.032 978.886 991.248 978.886ZM991.197 973.491C991.802 973.491 992.313 973.353 992.731 973.076C993.149 972.799 993.466 972.401 993.683 971.881C993.901 971.361 994.009 970.739 994.009 970.014C994.009 969.307 993.903 968.683 993.69 968.141C993.477 967.6 993.161 967.176 992.744 966.869C992.326 966.562 991.811 966.409 991.197 966.409C990.558 966.409 990.025 966.571 989.599 966.895C989.177 967.219 988.86 967.653 988.646 968.199C988.438 968.744 988.333 969.349 988.333 970.014C988.333 970.696 988.44 971.299 988.653 971.823C988.87 972.343 989.19 972.752 989.612 973.05C990.038 973.344 990.566 973.491 991.197 973.491ZM1001.14 975.23C1000.52 975.23 999.956 975.113 999.449 974.879C998.942 974.64 998.539 974.297 998.241 973.849C997.943 973.398 997.794 972.852 997.794 972.213C997.794 971.651 997.904 971.195 998.126 970.845C998.347 970.491 998.644 970.214 999.014 970.014C999.385 969.814 999.794 969.665 1000.24 969.567C1000.69 969.464 1001.15 969.384 1001.6 969.324C1002.2 969.247 1002.68 969.19 1003.05 969.151C1003.43 969.109 1003.7 969.038 1003.87 968.94C1004.05 968.842 1004.13 968.672 1004.13 968.429V968.378C1004.13 967.747 1003.96 967.257 1003.62 966.908C1003.28 966.558 1002.76 966.384 1002.06 966.384C1001.34 966.384 1000.78 966.541 1000.37 966.857C999.96 967.172 999.673 967.509 999.507 967.866L998.075 967.355C998.33 966.759 998.671 966.294 999.097 965.962C999.528 965.625 999.997 965.391 1000.5 965.259C1001.02 965.122 1001.52 965.054 1002.01 965.054C1002.33 965.054 1002.69 965.092 1003.1 965.169C1003.51 965.241 1003.91 965.393 1004.29 965.623C1004.68 965.853 1005 966.2 1005.26 966.665C1005.52 967.129 1005.64 967.751 1005.64 968.531V975H1004.13V973.67H1004.06C1003.96 973.884 1003.78 974.112 1003.55 974.354C1003.31 974.597 1002.99 974.804 1002.59 974.974C1002.2 975.145 1001.71 975.23 1001.14 975.23ZM1001.37 973.875C1001.97 973.875 1002.47 973.758 1002.88 973.523C1003.29 973.289 1003.61 972.987 1003.81 972.616C1004.03 972.245 1004.13 971.855 1004.13 971.446V970.065C1004.07 970.142 1003.93 970.212 1003.71 970.276C1003.5 970.336 1003.25 970.389 1002.97 970.436C1002.69 970.479 1002.42 970.517 1002.16 970.551C1001.9 970.581 1001.69 970.607 1001.53 970.628C1001.13 970.679 1000.77 970.762 1000.43 970.877C1000.09 970.988 999.818 971.156 999.609 971.382C999.404 971.604 999.302 971.906 999.302 972.29C999.302 972.814 999.496 973.21 999.884 973.479C1000.28 973.743 1000.77 973.875 1001.37 973.875ZM1008.12 975V973.849L1013.69 966.69V966.588H1008.29V965.182H1015.63V966.384L1010.21 973.491V973.594H1015.81V975H1008.12ZM1018.13 975V965.182H1019.64V975H1018.13ZM1018.9 963.545C1018.61 963.545 1018.35 963.445 1018.14 963.245C1017.93 963.045 1017.83 962.804 1017.83 962.523C1017.83 962.241 1017.93 962.001 1018.14 961.8C1018.35 961.6 1018.61 961.5 1018.9 961.5C1019.2 961.5 1019.45 961.6 1019.66 961.8C1019.87 962.001 1019.98 962.241 1019.98 962.523C1019.98 962.804 1019.87 963.045 1019.66 963.245C1019.45 963.445 1019.2 963.545 1018.9 963.545ZM1023.91 969.094V975H1022.41V965.182H1023.86V966.716H1023.99C1024.22 966.217 1024.57 965.817 1025.04 965.514C1025.51 965.207 1026.11 965.054 1026.85 965.054C1027.52 965.054 1028.1 965.19 1028.6 965.463C1029.1 965.732 1029.49 966.141 1029.76 966.69C1030.04 967.236 1030.18 967.926 1030.18 968.761V975H1028.67V968.864C1028.67 968.092 1028.47 967.491 1028.07 967.061C1027.67 966.626 1027.12 966.409 1026.42 966.409C1025.94 966.409 1025.51 966.513 1025.13 966.722C1024.75 966.931 1024.46 967.236 1024.24 967.636C1024.02 968.037 1023.91 968.523 1023.91 969.094ZM1037.05 975.205C1036.11 975.205 1035.29 974.996 1034.6 974.578C1033.92 974.156 1033.4 973.568 1033.02 972.814C1032.66 972.055 1032.48 971.173 1032.48 970.168C1032.48 969.162 1032.66 968.276 1033.02 967.509C1033.4 966.737 1033.91 966.136 1034.57 965.706C1035.24 965.271 1036.01 965.054 1036.9 965.054C1037.41 965.054 1037.91 965.139 1038.41 965.31C1038.91 965.48 1039.37 965.757 1039.77 966.141C1040.18 966.52 1040.51 967.023 1040.75 967.649C1041 968.276 1041.12 969.047 1041.12 969.963V970.602H1033.55V969.298H1039.58C1039.58 968.744 1039.47 968.25 1039.25 967.815C1039.03 967.381 1038.72 967.038 1038.32 966.786C1037.92 966.535 1037.44 966.409 1036.9 966.409C1036.3 966.409 1035.78 966.558 1035.34 966.857C1034.9 967.151 1034.57 967.534 1034.34 968.007C1034.1 968.48 1033.98 968.987 1033.98 969.528V970.398C1033.98 971.139 1034.11 971.768 1034.37 972.283C1034.63 972.795 1034.99 973.185 1035.45 973.453C1035.91 973.717 1036.44 973.849 1037.05 973.849C1037.45 973.849 1037.81 973.794 1038.13 973.683C1038.45 973.568 1038.73 973.398 1038.96 973.172C1039.2 972.942 1039.38 972.656 1039.51 972.315L1040.96 972.724C1040.81 973.219 1040.55 973.653 1040.19 974.028C1039.83 974.399 1039.38 974.689 1038.85 974.898C1038.32 975.102 1037.72 975.205 1037.05 975.205Z" fill="black"/>
<rect width="695" height="115" transform="translate(373 246)" fill="#6A6A6A"/>
<path d="M656.642 315V293.182H664.014C665.719 293.182 667.118 293.473 668.212 294.055C669.305 294.631 670.115 295.423 670.641 296.431C671.166 297.44 671.429 298.587 671.429 299.872C671.429 301.158 671.166 302.298 670.641 303.292C670.115 304.286 669.309 305.067 668.222 305.636C667.136 306.197 665.747 306.477 664.057 306.477H658.091V304.091H663.972C665.136 304.091 666.074 303.92 666.784 303.58C667.501 303.239 668.02 302.756 668.339 302.131C668.666 301.499 668.83 300.746 668.83 299.872C668.83 298.999 668.666 298.235 668.339 297.582C668.013 296.928 667.491 296.424 666.773 296.069C666.056 295.707 665.108 295.526 663.929 295.526H659.284V315H656.642ZM666.912 305.199L672.281 315H669.213L663.929 305.199H666.912ZM675.831 315V293.182H678.474V312.656H688.616V315H675.831ZM692.706 315V293.182H705.874V295.526H695.349V302.898H705.192V305.241H695.349V312.656H706.045V315H692.706ZM719.074 315V293.182H721.716V312.656H731.858V315H719.074ZM742.256 315.341C740.778 315.341 739.482 314.989 738.367 314.286C737.259 313.583 736.393 312.599 735.768 311.335C735.15 310.071 734.841 308.594 734.841 306.903C734.841 305.199 735.15 303.711 735.768 302.44C736.393 301.168 737.259 300.181 738.367 299.478C739.482 298.775 740.778 298.423 742.256 298.423C743.733 298.423 745.025 298.775 746.133 299.478C747.248 300.181 748.115 301.168 748.733 302.44C749.358 303.711 749.67 305.199 749.67 306.903C749.67 308.594 749.358 310.071 748.733 311.335C748.115 312.599 747.248 313.583 746.133 314.286C745.025 314.989 743.733 315.341 742.256 315.341ZM742.256 313.082C743.378 313.082 744.301 312.795 745.025 312.219C745.75 311.644 746.286 310.888 746.634 309.95C746.982 309.013 747.156 307.997 747.156 306.903C747.156 305.81 746.982 304.79 746.634 303.846C746.286 302.901 745.75 302.138 745.025 301.555C744.301 300.973 743.378 300.682 742.256 300.682C741.133 300.682 740.21 300.973 739.486 301.555C738.761 302.138 738.225 302.901 737.877 303.846C737.529 304.79 737.355 305.81 737.355 306.903C737.355 307.997 737.529 309.013 737.877 309.95C738.225 310.888 738.761 311.644 739.486 312.219C740.21 312.795 741.133 313.082 742.256 313.082ZM760.113 321.477C758.899 321.477 757.855 321.321 756.981 321.009C756.108 320.703 755.38 320.298 754.797 319.794C754.222 319.297 753.764 318.764 753.423 318.196L755.426 316.79C755.653 317.088 755.941 317.429 756.289 317.812C756.637 318.203 757.113 318.54 757.716 318.825C758.327 319.116 759.126 319.261 760.113 319.261C761.434 319.261 762.525 318.942 763.384 318.303C764.243 317.663 764.673 316.662 764.673 315.298V311.974H764.46C764.275 312.273 764.012 312.642 763.672 313.082C763.338 313.516 762.855 313.903 762.223 314.244C761.598 314.577 760.752 314.744 759.687 314.744C758.366 314.744 757.18 314.432 756.129 313.807C755.085 313.182 754.257 312.273 753.647 311.08C753.043 309.886 752.741 308.437 752.741 306.733C752.741 305.057 753.036 303.597 753.625 302.354C754.215 301.104 755.035 300.138 756.086 299.457C757.137 298.768 758.352 298.423 759.73 298.423C760.795 298.423 761.64 298.601 762.265 298.956C762.897 299.304 763.38 299.702 763.714 300.149C764.055 300.589 764.318 300.952 764.502 301.236H764.758V298.636H767.187V315.469C767.187 316.875 766.868 318.018 766.228 318.899C765.596 319.787 764.744 320.437 763.672 320.849C762.606 321.268 761.42 321.477 760.113 321.477ZM760.028 312.486C761.037 312.486 761.889 312.255 762.585 311.793C763.281 311.332 763.81 310.668 764.172 309.801C764.534 308.935 764.716 307.898 764.716 306.69C764.716 305.511 764.538 304.471 764.183 303.569C763.828 302.667 763.302 301.96 762.606 301.449C761.91 300.937 761.051 300.682 760.028 300.682C758.963 300.682 758.075 300.952 757.365 301.491C756.662 302.031 756.132 302.756 755.777 303.665C755.429 304.574 755.255 305.582 755.255 306.69C755.255 307.827 755.433 308.832 755.788 309.705C756.15 310.572 756.683 311.254 757.386 311.751C758.096 312.241 758.977 312.486 760.028 312.486ZM778.437 315.341C776.96 315.341 775.664 314.989 774.549 314.286C773.441 313.583 772.574 312.599 771.949 311.335C771.331 310.071 771.022 308.594 771.022 306.903C771.022 305.199 771.331 303.711 771.949 302.44C772.574 301.168 773.441 300.181 774.549 299.478C775.664 298.775 776.96 298.423 778.437 298.423C779.914 298.423 781.207 298.775 782.315 299.478C783.43 300.181 784.297 301.168 784.914 302.44C785.539 303.711 785.852 305.199 785.852 306.903C785.852 308.594 785.539 310.071 784.914 311.335C784.297 312.599 783.43 313.583 782.315 314.286C781.207 314.989 779.914 315.341 778.437 315.341ZM778.437 313.082C779.559 313.082 780.483 312.795 781.207 312.219C781.931 311.644 782.468 310.888 782.816 309.95C783.164 309.013 783.338 307.997 783.338 306.903C783.338 305.81 783.164 304.79 782.816 303.846C782.468 302.901 781.931 302.138 781.207 301.555C780.483 300.973 779.559 300.682 778.437 300.682C777.315 300.682 776.392 300.973 775.667 301.555C774.943 302.138 774.407 302.901 774.059 303.846C773.711 304.79 773.537 305.81 773.537 306.903C773.537 307.997 773.711 309.013 774.059 309.95C774.407 310.888 774.943 311.644 775.667 312.219C776.392 312.795 777.315 313.082 778.437 313.082Z" fill="black"/>
<path d="M1217 45.5H1384" stroke="white"/>
</svg>
