<svg width="1440" height="1024" viewBox="0 0 1440 1024" fill="none" xmlns="http://www.w3.org/2000/svg">
<rect width="1440" height="1024" fill="white"/>
<rect width="1440" height="56" fill="#6A6A6A"/>
<path d="M72.642 39V17.1818H75.2841V36.6562H85.4261V39H72.642ZM95.8239 39.3409C94.3466 39.3409 93.0504 38.9893 91.9354 38.2862C90.8274 37.5831 89.9609 36.5994 89.3359 35.3352C88.718 34.071 88.4091 32.5937 88.4091 30.9034C88.4091 29.1989 88.718 27.7109 89.3359 26.4396C89.9609 25.1683 90.8274 24.1811 91.9354 23.478C93.0504 22.7749 94.3466 22.4233 95.8239 22.4233C97.3011 22.4233 98.5938 22.7749 99.7017 23.478C100.817 24.1811 101.683 25.1683 102.301 26.4396C102.926 27.7109 103.239 29.1989 103.239 30.9034C103.239 32.5937 102.926 34.071 102.301 35.3352C101.683 36.5994 100.817 37.5831 99.7017 38.2862C98.5938 38.9893 97.3011 39.3409 95.8239 39.3409ZM95.8239 37.0824C96.946 37.0824 97.8693 36.7947 98.5938 36.2195C99.3182 35.6442 99.8544 34.8878 100.202 33.9503C100.55 33.0128 100.724 31.9972 100.724 30.9034C100.724 29.8097 100.55 28.7905 100.202 27.8459C99.8544 26.9013 99.3182 26.1378 98.5938 25.5554C97.8693 24.973 96.946 24.6818 95.8239 24.6818C94.7017 24.6818 93.7784 24.973 93.054 25.5554C92.3295 26.1378 91.7933 26.9013 91.4453 27.8459C91.0973 28.7905 90.9233 29.8097 90.9233 30.9034C90.9233 31.9972 91.0973 33.0128 91.4453 33.9503C91.7933 34.8878 92.3295 35.6442 93.054 36.2195C93.7784 36.7947 94.7017 37.0824 95.8239 37.0824ZM113.682 45.4773C112.467 45.4773 111.423 45.321 110.55 45.0085C109.676 44.7031 108.948 44.2983 108.366 43.794C107.79 43.2969 107.332 42.7642 106.991 42.196L108.994 40.7898C109.221 41.0881 109.509 41.429 109.857 41.8125C110.205 42.2031 110.681 42.5405 111.285 42.8246C111.895 43.1158 112.694 43.2614 113.682 43.2614C115.003 43.2614 116.093 42.9418 116.952 42.3026C117.812 41.6634 118.241 40.6619 118.241 39.2983V35.9744H118.028C117.844 36.2727 117.581 36.642 117.24 37.0824C116.906 37.5156 116.423 37.9027 115.791 38.2436C115.166 38.5774 114.321 38.7443 113.256 38.7443C111.934 38.7443 110.748 38.4318 109.697 37.8068C108.653 37.1818 107.826 36.2727 107.215 35.0795C106.611 33.8864 106.309 32.4375 106.309 30.733C106.309 29.0568 106.604 27.5973 107.194 26.3544C107.783 25.1044 108.604 24.1385 109.655 23.4567C110.706 22.7678 111.92 22.4233 113.298 22.4233C114.363 22.4233 115.209 22.6009 115.834 22.956C116.466 23.304 116.949 23.7017 117.282 24.1491C117.623 24.5895 117.886 24.9517 118.071 25.2358H118.327V22.6364H120.756V39.4688C120.756 40.875 120.436 42.0185 119.797 42.8991C119.165 43.7869 118.312 44.4368 117.24 44.8487C116.175 45.2678 114.988 45.4773 113.682 45.4773ZM113.596 36.4858C114.605 36.4858 115.457 36.255 116.153 35.7933C116.849 35.3317 117.378 34.6676 117.741 33.8011C118.103 32.9347 118.284 31.8977 118.284 30.6903C118.284 29.5114 118.106 28.4709 117.751 27.5689C117.396 26.6669 116.871 25.9602 116.175 25.4489C115.479 24.9375 114.619 24.6818 113.596 24.6818C112.531 24.6818 111.643 24.9517 110.933 25.4915C110.23 26.0312 109.701 26.7557 109.346 27.6648C108.998 28.5739 108.824 29.5824 108.824 30.6903C108.824 31.8267 109.001 32.8317 109.356 33.7053C109.719 34.5717 110.251 35.2536 110.954 35.7507C111.665 36.2408 112.545 36.4858 113.596 36.4858ZM132.006 39.3409C130.528 39.3409 129.232 38.9893 128.117 38.2862C127.009 37.5831 126.143 36.5994 125.518 35.3352C124.9 34.071 124.591 32.5937 124.591 30.9034C124.591 29.1989 124.9 27.7109 125.518 26.4396C126.143 25.1683 127.009 24.1811 128.117 23.478C129.232 22.7749 130.528 22.4233 132.006 22.4233C133.483 22.4233 134.775 22.7749 135.883 23.478C136.998 24.1811 137.865 25.1683 138.483 26.4396C139.108 27.7109 139.42 29.1989 139.42 30.9034C139.42 32.5937 139.108 34.071 138.483 35.3352C137.865 36.5994 136.998 37.5831 135.883 38.2862C134.775 38.9893 133.483 39.3409 132.006 39.3409ZM132.006 37.0824C133.128 37.0824 134.051 36.7947 134.775 36.2195C135.5 35.6442 136.036 34.8878 136.384 33.9503C136.732 33.0128 136.906 31.9972 136.906 30.9034C136.906 29.8097 136.732 28.7905 136.384 27.8459C136.036 26.9013 135.5 26.1378 134.775 25.5554C134.051 24.973 133.128 24.6818 132.006 24.6818C130.883 24.6818 129.96 24.973 129.236 25.5554C128.511 26.1378 127.975 26.9013 127.627 27.8459C127.279 28.7905 127.105 29.8097 127.105 30.9034C127.105 31.9972 127.279 33.0128 127.627 33.9503C127.975 34.8878 128.511 35.6442 129.236 36.2195C129.96 36.7947 130.883 37.0824 132.006 37.0824ZM154.21 29.1562V39H151.696V17.1818H154.21V25.1932H154.423C154.806 24.348 155.382 23.6768 156.149 23.1797C156.923 22.6754 157.953 22.4233 159.238 22.4233C160.353 22.4233 161.33 22.647 162.168 23.0945C163.006 23.5348 163.656 24.2131 164.118 25.1293C164.586 26.0384 164.821 27.196 164.821 28.6023V39H162.306V28.7727C162.306 27.473 161.969 26.468 161.294 25.7578C160.627 25.0405 159.7 24.6818 158.514 24.6818C157.69 24.6818 156.951 24.8558 156.298 25.2038C155.652 25.5518 155.14 26.0597 154.764 26.7273C154.395 27.3949 154.21 28.2045 154.21 29.1562ZM176.281 39.3409C174.704 39.3409 173.344 38.9929 172.201 38.2969C171.064 37.5938 170.187 36.6136 169.569 35.3565C168.959 34.0923 168.653 32.6222 168.653 30.946C168.653 29.2699 168.959 27.7926 169.569 26.5142C170.187 25.2287 171.047 24.2273 172.148 23.5099C173.256 22.7855 174.548 22.4233 176.025 22.4233C176.878 22.4233 177.719 22.5653 178.55 22.8494C179.381 23.1335 180.138 23.5952 180.819 24.2344C181.501 24.8665 182.045 25.7045 182.449 26.7486C182.854 27.7926 183.057 29.0781 183.057 30.6051V31.6705H170.443V29.4972H180.5C180.5 28.5739 180.315 27.75 179.946 27.0256C179.584 26.3011 179.065 25.7294 178.39 25.3104C177.723 24.8913 176.934 24.6818 176.025 24.6818C175.024 24.6818 174.157 24.9304 173.426 25.4276C172.702 25.9176 172.144 26.5568 171.753 27.3452C171.363 28.1335 171.167 28.9787 171.167 29.8807V31.3295C171.167 32.5653 171.381 33.6129 171.807 34.4723C172.24 35.3246 172.84 35.9744 173.607 36.4219C174.374 36.8622 175.265 37.0824 176.281 37.0824C176.942 37.0824 177.538 36.9901 178.071 36.8054C178.611 36.6136 179.076 36.3295 179.466 35.9531C179.857 35.5696 180.159 35.0937 180.372 34.5256L182.801 35.2074C182.545 36.0312 182.116 36.7557 181.512 37.3807C180.908 37.9986 180.162 38.4815 179.275 38.8295C178.387 39.1705 177.389 39.3409 176.281 39.3409ZM186.881 39V22.6364H189.31V25.108H189.481C189.779 24.2983 190.319 23.6413 191.1 23.1371C191.881 22.6328 192.762 22.3807 193.742 22.3807C193.927 22.3807 194.157 22.3842 194.434 22.3913C194.711 22.3984 194.921 22.4091 195.063 22.4233V24.9801C194.978 24.9588 194.782 24.9268 194.477 24.8842C194.179 24.8345 193.863 24.8097 193.529 24.8097C192.733 24.8097 192.023 24.9766 191.398 25.3104C190.78 25.6371 190.29 26.0916 189.928 26.674C189.573 27.2493 189.395 27.9062 189.395 28.6449V39H186.881ZM204.406 39.3409C202.829 39.3409 201.469 38.9929 200.326 38.2969C199.189 37.5938 198.312 36.6136 197.694 35.3565C197.084 34.0923 196.778 32.6222 196.778 30.946C196.778 29.2699 197.084 27.7926 197.694 26.5142C198.312 25.2287 199.172 24.2273 200.273 23.5099C201.381 22.7855 202.673 22.4233 204.15 22.4233C205.003 22.4233 205.844 22.5653 206.675 22.8494C207.506 23.1335 208.263 23.5952 208.944 24.2344C209.626 24.8665 210.17 25.7045 210.574 26.7486C210.979 27.7926 211.182 29.0781 211.182 30.6051V31.6705H198.568V29.4972H208.625C208.625 28.5739 208.44 27.75 208.071 27.0256C207.709 26.3011 207.19 25.7294 206.515 25.3104C205.848 24.8913 205.059 24.6818 204.15 24.6818C203.149 24.6818 202.282 24.9304 201.551 25.4276C200.827 25.9176 200.269 26.5568 199.878 27.3452C199.488 28.1335 199.292 28.9787 199.292 29.8807V31.3295C199.292 32.5653 199.506 33.6129 199.932 34.4723C200.365 35.3246 200.965 35.9744 201.732 36.4219C202.499 36.8622 203.39 37.0824 204.406 37.0824C205.067 37.0824 205.663 36.9901 206.196 36.8054C206.736 36.6136 207.201 36.3295 207.591 35.9531C207.982 35.5696 208.284 35.0937 208.497 34.5256L210.926 35.2074C210.67 36.0312 210.241 36.7557 209.637 37.3807C209.033 37.9986 208.287 38.4815 207.4 38.8295C206.512 39.1705 205.514 39.3409 204.406 39.3409Z" fill="white"/>
<path d="M693.642 39V17.1818H706.81V19.5256H696.284V26.8977H706.128V29.2415H696.284V36.6562H706.98V39H693.642ZM713.106 22.6364L717.026 29.3267L720.947 22.6364H723.844L718.56 30.8182L723.844 39H720.947L717.026 32.6506L713.106 39H710.208L715.407 30.8182L710.208 22.6364H713.106ZM727.432 45.1364V22.6364H729.861V25.2358H730.159C730.344 24.9517 730.6 24.5895 730.926 24.1491C731.26 23.7017 731.736 23.304 732.354 22.956C732.979 22.6009 733.824 22.4233 734.889 22.4233C736.267 22.4233 737.482 22.7678 738.533 23.4567C739.584 24.1456 740.404 25.1222 740.994 26.3864C741.583 27.6506 741.878 29.142 741.878 30.8608C741.878 32.5938 741.583 34.0959 740.994 35.3672C740.404 36.6314 739.588 37.6115 738.544 38.3075C737.499 38.9964 736.296 39.3409 734.932 39.3409C733.881 39.3409 733.039 39.1669 732.407 38.8189C731.775 38.4638 731.289 38.0625 730.948 37.6151C730.607 37.1605 730.344 36.7841 730.159 36.4858H729.946V45.1364H727.432ZM729.904 30.8182C729.904 32.054 730.085 33.1442 730.447 34.0888C730.809 35.0263 731.338 35.7614 732.034 36.294C732.73 36.8196 733.583 37.0824 734.591 37.0824C735.642 37.0824 736.519 36.8054 737.222 36.2514C737.933 35.6903 738.465 34.9375 738.82 33.9929C739.183 33.0412 739.364 31.983 739.364 30.8182C739.364 29.6676 739.186 28.6307 738.831 27.7074C738.483 26.777 737.954 26.0419 737.244 25.5021C736.541 24.9553 735.656 24.6818 734.591 24.6818C733.568 24.6818 732.709 24.9411 732.013 25.4595C731.317 25.9709 730.791 26.6882 730.436 27.6115C730.081 28.5277 729.904 29.5966 729.904 30.8182ZM752.574 39.3409C750.997 39.3409 749.637 38.9929 748.494 38.2969C747.357 37.5938 746.48 36.6136 745.862 35.3565C745.252 34.0923 744.946 32.6222 744.946 30.946C744.946 29.2699 745.252 27.7926 745.862 26.5142C746.48 25.2287 747.34 24.2273 748.441 23.5099C749.548 22.7855 750.841 22.4233 752.318 22.4233C753.171 22.4233 754.012 22.5653 754.843 22.8494C755.674 23.1335 756.431 23.5952 757.112 24.2344C757.794 24.8665 758.338 25.7045 758.742 26.7486C759.147 27.7926 759.35 29.0781 759.35 30.6051V31.6705H746.736V29.4972H756.793C756.793 28.5739 756.608 27.75 756.239 27.0256C755.877 26.3011 755.358 25.7294 754.683 25.3104C754.016 24.8913 753.227 24.6818 752.318 24.6818C751.317 24.6818 750.45 24.9304 749.719 25.4276C748.994 25.9176 748.437 26.5568 748.046 27.3452C747.656 28.1335 747.46 28.9787 747.46 29.8807V31.3295C747.46 32.5653 747.673 33.6129 748.1 34.4723C748.533 35.3246 749.133 35.9744 749.9 36.4219C750.667 36.8622 751.558 37.0824 752.574 37.0824C753.235 37.0824 753.831 36.9901 754.364 36.8054C754.904 36.6136 755.369 36.3295 755.759 35.9531C756.15 35.5696 756.452 35.0937 756.665 34.5256L759.094 35.2074C758.838 36.0312 758.409 36.7557 757.805 37.3807C757.201 37.9986 756.455 38.4815 755.568 38.8295C754.68 39.1705 753.682 39.3409 752.574 39.3409ZM769.353 39.3409C767.99 39.3409 766.786 38.9964 765.742 38.3075C764.698 37.6115 763.881 36.6314 763.291 35.3672C762.702 34.0959 762.407 32.5938 762.407 30.8608C762.407 29.142 762.702 27.6506 763.291 26.3864C763.881 25.1222 764.701 24.1456 765.752 23.4567C766.803 22.7678 768.018 22.4233 769.396 22.4233C770.461 22.4233 771.303 22.6009 771.921 22.956C772.546 23.304 773.021 23.7017 773.348 24.1491C773.682 24.5895 773.941 24.9517 774.126 25.2358H774.339V17.1818H776.853V39H774.424V36.4858H774.126C773.941 36.7841 773.678 37.1605 773.338 37.6151C772.997 38.0625 772.51 38.4638 771.878 38.8189C771.246 39.1669 770.404 39.3409 769.353 39.3409ZM769.694 37.0824C770.703 37.0824 771.555 36.8196 772.251 36.294C772.947 35.7614 773.476 35.0263 773.838 34.0888C774.2 33.1442 774.382 32.054 774.382 30.8182C774.382 29.5966 774.204 28.5277 773.849 27.6115C773.494 26.6882 772.968 25.9709 772.272 25.4595C771.576 24.9411 770.717 24.6818 769.694 24.6818C768.629 24.6818 767.741 24.9553 767.031 25.5021C766.328 26.0419 765.798 26.777 765.443 27.7074C765.095 28.6307 764.921 29.6676 764.921 30.8182C764.921 31.983 765.099 33.0412 765.454 33.9929C765.816 34.9375 766.349 35.6903 767.052 36.2514C767.762 36.8054 768.643 37.0824 769.694 37.0824ZM781.807 39V22.6364H784.321V39H781.807ZM783.085 19.9091C782.595 19.9091 782.173 19.7422 781.818 19.4084C781.47 19.0746 781.296 18.6733 781.296 18.2045C781.296 17.7358 781.47 17.3345 781.818 17.0007C782.173 16.6669 782.595 16.5 783.085 16.5C783.575 16.5 783.994 16.6669 784.343 17.0007C784.698 17.3345 784.875 17.7358 784.875 18.2045C784.875 18.6733 784.698 19.0746 784.343 19.4084C783.994 19.7422 783.575 19.9091 783.085 19.9091ZM796.043 22.6364V24.767H787.562V22.6364H796.043ZM790.034 18.7159H792.548V34.3125C792.548 35.0227 792.651 35.5554 792.857 35.9105C793.07 36.2585 793.34 36.4929 793.667 36.6136C794.001 36.7273 794.352 36.7841 794.722 36.7841C794.999 36.7841 795.226 36.7699 795.403 36.7415C795.581 36.706 795.723 36.6776 795.83 36.6562L796.341 38.9148C796.17 38.9787 795.933 39.0426 795.627 39.1065C795.322 39.1776 794.935 39.2131 794.466 39.2131C793.756 39.2131 793.06 39.0604 792.378 38.755C791.703 38.4496 791.142 37.9844 790.695 37.3594C790.254 36.7344 790.034 35.946 790.034 34.9943V18.7159ZM799.825 39V22.6364H802.339V39H799.825ZM801.103 19.9091C800.613 19.9091 800.19 19.7422 799.835 19.4084C799.487 19.0746 799.313 18.6733 799.313 18.2045C799.313 17.7358 799.487 17.3345 799.835 17.0007C800.19 16.6669 800.613 16.5 801.103 16.5C801.593 16.5 802.012 16.6669 802.36 17.0007C802.715 17.3345 802.893 17.7358 802.893 18.2045C802.893 18.6733 802.715 19.0746 802.36 19.4084C802.012 19.7422 801.593 19.9091 801.103 19.9091ZM813.591 39.3409C812.114 39.3409 810.818 38.9893 809.703 38.2862C808.595 37.5831 807.729 36.5994 807.104 35.3352C806.486 34.071 806.177 32.5937 806.177 30.9034C806.177 29.1989 806.486 27.7109 807.104 26.4396C807.729 25.1683 808.595 24.1811 809.703 23.478C810.818 22.7749 812.114 22.4233 813.591 22.4233C815.069 22.4233 816.361 22.7749 817.469 23.478C818.584 24.1811 819.451 25.1683 820.069 26.4396C820.694 27.7109 821.006 29.1989 821.006 30.9034C821.006 32.5937 820.694 34.071 820.069 35.3352C819.451 36.5994 818.584 37.5831 817.469 38.2862C816.361 38.9893 815.069 39.3409 813.591 39.3409ZM813.591 37.0824C814.714 37.0824 815.637 36.7947 816.361 36.2195C817.086 35.6442 817.622 34.8878 817.97 33.9503C818.318 33.0128 818.492 31.9972 818.492 30.9034C818.492 29.8097 818.318 28.7905 817.97 27.8459C817.622 26.9013 817.086 26.1378 816.361 25.5554C815.637 24.973 814.714 24.6818 813.591 24.6818C812.469 24.6818 811.546 24.973 810.822 25.5554C810.097 26.1378 809.561 26.9013 809.213 27.8459C808.865 28.7905 808.691 29.8097 808.691 30.9034C808.691 31.9972 808.865 33.0128 809.213 33.9503C809.561 34.8878 810.097 35.6442 810.822 36.2195C811.546 36.7947 812.469 37.0824 813.591 37.0824ZM827.358 29.1562V39H824.844V22.6364H827.273V25.1932H827.486C827.87 24.3622 828.452 23.6946 829.233 23.1903C830.015 22.679 831.023 22.4233 832.259 22.4233C833.367 22.4233 834.336 22.6506 835.167 23.1051C835.998 23.5526 836.645 24.2344 837.106 25.1506C837.568 26.0597 837.799 27.2102 837.799 28.6023V39H835.284V28.7727C835.284 27.4872 834.951 26.4858 834.283 25.7685C833.615 25.044 832.699 24.6818 831.534 24.6818C830.732 24.6818 830.015 24.8558 829.382 25.2038C828.757 25.5518 828.264 26.0597 827.902 26.7273C827.539 27.3949 827.358 28.2045 827.358 29.1562ZM853.984 26.3011L851.725 26.9403C851.583 26.5639 851.374 26.1982 851.097 25.843C850.827 25.4808 850.458 25.1825 849.989 24.9482C849.52 24.7138 848.92 24.5966 848.188 24.5966C847.187 24.5966 846.352 24.8274 845.685 25.2891C845.024 25.7436 844.694 26.3224 844.694 27.0256C844.694 27.6506 844.921 28.1442 845.376 28.5064C845.83 28.8686 846.541 29.1705 847.507 29.4119L849.936 30.0085C851.399 30.3636 852.489 30.907 853.206 31.6385C853.923 32.3629 854.282 33.2969 854.282 34.4403C854.282 35.3778 854.012 36.2159 853.472 36.9545C852.94 37.6932 852.194 38.2756 851.235 38.7017C850.276 39.1278 849.161 39.3409 847.89 39.3409C846.221 39.3409 844.84 38.9787 843.746 38.2543C842.652 37.5298 841.96 36.4716 841.669 35.0795L844.055 34.483C844.282 35.3636 844.712 36.0241 845.344 36.4645C845.983 36.9048 846.818 37.125 847.847 37.125C849.019 37.125 849.95 36.8764 850.639 36.3793C851.335 35.875 851.683 35.2713 851.683 34.5682C851.683 34 851.484 33.5241 851.086 33.1406C850.688 32.75 850.078 32.4588 849.254 32.267L846.526 31.6278C845.028 31.2727 843.927 30.7223 843.224 29.9766C842.528 29.2237 842.18 28.2827 842.18 27.1534C842.18 26.2301 842.439 25.4134 842.958 24.7031C843.483 23.9929 844.197 23.4354 845.099 23.0305C846.008 22.6257 847.038 22.4233 848.188 22.4233C849.808 22.4233 851.079 22.7784 852.002 23.4886C852.933 24.1989 853.593 25.1364 853.984 26.3011Z" fill="white"/>
<path d="M693.642 39V17.1818H706.81V19.5256H696.284V26.8977H706.128V29.2415H696.284V36.6562H706.98V39H693.642ZM713.106 22.6364L717.026 29.3267L720.947 22.6364H723.844L718.56 30.8182L723.844 39H720.947L717.026 32.6506L713.106 39H710.208L715.407 30.8182L710.208 22.6364H713.106ZM727.432 45.1364V22.6364H729.861V25.2358H730.159C730.344 24.9517 730.6 24.5895 730.926 24.1491C731.26 23.7017 731.736 23.304 732.354 22.956C732.979 22.6009 733.824 22.4233 734.889 22.4233C736.267 22.4233 737.482 22.7678 738.533 23.4567C739.584 24.1456 740.404 25.1222 740.994 26.3864C741.583 27.6506 741.878 29.142 741.878 30.8608C741.878 32.5938 741.583 34.0959 740.994 35.3672C740.404 36.6314 739.588 37.6115 738.544 38.3075C737.499 38.9964 736.296 39.3409 734.932 39.3409C733.881 39.3409 733.039 39.1669 732.407 38.8189C731.775 38.4638 731.289 38.0625 730.948 37.6151C730.607 37.1605 730.344 36.7841 730.159 36.4858H729.946V45.1364H727.432ZM729.904 30.8182C729.904 32.054 730.085 33.1442 730.447 34.0888C730.809 35.0263 731.338 35.7614 732.034 36.294C732.73 36.8196 733.583 37.0824 734.591 37.0824C735.642 37.0824 736.519 36.8054 737.222 36.2514C737.933 35.6903 738.465 34.9375 738.82 33.9929C739.183 33.0412 739.364 31.983 739.364 30.8182C739.364 29.6676 739.186 28.6307 738.831 27.7074C738.483 26.777 737.954 26.0419 737.244 25.5021C736.541 24.9553 735.656 24.6818 734.591 24.6818C733.568 24.6818 732.709 24.9411 732.013 25.4595C731.317 25.9709 730.791 26.6882 730.436 27.6115C730.081 28.5277 729.904 29.5966 729.904 30.8182ZM752.574 39.3409C750.997 39.3409 749.637 38.9929 748.494 38.2969C747.357 37.5938 746.48 36.6136 745.862 35.3565C745.252 34.0923 744.946 32.6222 744.946 30.946C744.946 29.2699 745.252 27.7926 745.862 26.5142C746.48 25.2287 747.34 24.2273 748.441 23.5099C749.548 22.7855 750.841 22.4233 752.318 22.4233C753.171 22.4233 754.012 22.5653 754.843 22.8494C755.674 23.1335 756.431 23.5952 757.112 24.2344C757.794 24.8665 758.338 25.7045 758.742 26.7486C759.147 27.7926 759.35 29.0781 759.35 30.6051V31.6705H746.736V29.4972H756.793C756.793 28.5739 756.608 27.75 756.239 27.0256C755.877 26.3011 755.358 25.7294 754.683 25.3104C754.016 24.8913 753.227 24.6818 752.318 24.6818C751.317 24.6818 750.45 24.9304 749.719 25.4276C748.994 25.9176 748.437 26.5568 748.046 27.3452C747.656 28.1335 747.46 28.9787 747.46 29.8807V31.3295C747.46 32.5653 747.673 33.6129 748.1 34.4723C748.533 35.3246 749.133 35.9744 749.9 36.4219C750.667 36.8622 751.558 37.0824 752.574 37.0824C753.235 37.0824 753.831 36.9901 754.364 36.8054C754.904 36.6136 755.369 36.3295 755.759 35.9531C756.15 35.5696 756.452 35.0937 756.665 34.5256L759.094 35.2074C758.838 36.0312 758.409 36.7557 757.805 37.3807C757.201 37.9986 756.455 38.4815 755.568 38.8295C754.68 39.1705 753.682 39.3409 752.574 39.3409ZM769.353 39.3409C767.99 39.3409 766.786 38.9964 765.742 38.3075C764.698 37.6115 763.881 36.6314 763.291 35.3672C762.702 34.0959 762.407 32.5938 762.407 30.8608C762.407 29.142 762.702 27.6506 763.291 26.3864C763.881 25.1222 764.701 24.1456 765.752 23.4567C766.803 22.7678 768.018 22.4233 769.396 22.4233C770.461 22.4233 771.303 22.6009 771.921 22.956C772.546 23.304 773.021 23.7017 773.348 24.1491C773.682 24.5895 773.941 24.9517 774.126 25.2358H774.339V17.1818H776.853V39H774.424V36.4858H774.126C773.941 36.7841 773.678 37.1605 773.338 37.6151C772.997 38.0625 772.51 38.4638 771.878 38.8189C771.246 39.1669 770.404 39.3409 769.353 39.3409ZM769.694 37.0824C770.703 37.0824 771.555 36.8196 772.251 36.294C772.947 35.7614 773.476 35.0263 773.838 34.0888C774.2 33.1442 774.382 32.054 774.382 30.8182C774.382 29.5966 774.204 28.5277 773.849 27.6115C773.494 26.6882 772.968 25.9709 772.272 25.4595C771.576 24.9411 770.717 24.6818 769.694 24.6818C768.629 24.6818 767.741 24.9553 767.031 25.5021C766.328 26.0419 765.798 26.777 765.443 27.7074C765.095 28.6307 764.921 29.6676 764.921 30.8182C764.921 31.983 765.099 33.0412 765.454 33.9929C765.816 34.9375 766.349 35.6903 767.052 36.2514C767.762 36.8054 768.643 37.0824 769.694 37.0824ZM781.807 39V22.6364H784.321V39H781.807ZM783.085 19.9091C782.595 19.9091 782.173 19.7422 781.818 19.4084C781.47 19.0746 781.296 18.6733 781.296 18.2045C781.296 17.7358 781.47 17.3345 781.818 17.0007C782.173 16.6669 782.595 16.5 783.085 16.5C783.575 16.5 783.994 16.6669 784.343 17.0007C784.698 17.3345 784.875 17.7358 784.875 18.2045C784.875 18.6733 784.698 19.0746 784.343 19.4084C783.994 19.7422 783.575 19.9091 783.085 19.9091ZM796.043 22.6364V24.767H787.562V22.6364H796.043ZM790.034 18.7159H792.548V34.3125C792.548 35.0227 792.651 35.5554 792.857 35.9105C793.07 36.2585 793.34 36.4929 793.667 36.6136C794.001 36.7273 794.352 36.7841 794.722 36.7841C794.999 36.7841 795.226 36.7699 795.403 36.7415C795.581 36.706 795.723 36.6776 795.83 36.6562L796.341 38.9148C796.17 38.9787 795.933 39.0426 795.627 39.1065C795.322 39.1776 794.935 39.2131 794.466 39.2131C793.756 39.2131 793.06 39.0604 792.378 38.755C791.703 38.4496 791.142 37.9844 790.695 37.3594C790.254 36.7344 790.034 35.946 790.034 34.9943V18.7159ZM799.825 39V22.6364H802.339V39H799.825ZM801.103 19.9091C800.613 19.9091 800.19 19.7422 799.835 19.4084C799.487 19.0746 799.313 18.6733 799.313 18.2045C799.313 17.7358 799.487 17.3345 799.835 17.0007C800.19 16.6669 800.613 16.5 801.103 16.5C801.593 16.5 802.012 16.6669 802.36 17.0007C802.715 17.3345 802.893 17.7358 802.893 18.2045C802.893 18.6733 802.715 19.0746 802.36 19.4084C802.012 19.7422 801.593 19.9091 801.103 19.9091ZM813.591 39.3409C812.114 39.3409 810.818 38.9893 809.703 38.2862C808.595 37.5831 807.729 36.5994 807.104 35.3352C806.486 34.071 806.177 32.5937 806.177 30.9034C806.177 29.1989 806.486 27.7109 807.104 26.4396C807.729 25.1683 808.595 24.1811 809.703 23.478C810.818 22.7749 812.114 22.4233 813.591 22.4233C815.069 22.4233 816.361 22.7749 817.469 23.478C818.584 24.1811 819.451 25.1683 820.069 26.4396C820.694 27.7109 821.006 29.1989 821.006 30.9034C821.006 32.5937 820.694 34.071 820.069 35.3352C819.451 36.5994 818.584 37.5831 817.469 38.2862C816.361 38.9893 815.069 39.3409 813.591 39.3409ZM813.591 37.0824C814.714 37.0824 815.637 36.7947 816.361 36.2195C817.086 35.6442 817.622 34.8878 817.97 33.9503C818.318 33.0128 818.492 31.9972 818.492 30.9034C818.492 29.8097 818.318 28.7905 817.97 27.8459C817.622 26.9013 817.086 26.1378 816.361 25.5554C815.637 24.973 814.714 24.6818 813.591 24.6818C812.469 24.6818 811.546 24.973 810.822 25.5554C810.097 26.1378 809.561 26.9013 809.213 27.8459C808.865 28.7905 808.691 29.8097 808.691 30.9034C808.691 31.9972 808.865 33.0128 809.213 33.9503C809.561 34.8878 810.097 35.6442 810.822 36.2195C811.546 36.7947 812.469 37.0824 813.591 37.0824ZM827.358 29.1562V39H824.844V22.6364H827.273V25.1932H827.486C827.87 24.3622 828.452 23.6946 829.233 23.1903C830.015 22.679 831.023 22.4233 832.259 22.4233C833.367 22.4233 834.336 22.6506 835.167 23.1051C835.998 23.5526 836.645 24.2344 837.106 25.1506C837.568 26.0597 837.799 27.2102 837.799 28.6023V39H835.284V28.7727C835.284 27.4872 834.951 26.4858 834.283 25.7685C833.615 25.044 832.699 24.6818 831.534 24.6818C830.732 24.6818 830.015 24.8558 829.382 25.2038C828.757 25.5518 828.264 26.0597 827.902 26.7273C827.539 27.3949 827.358 28.2045 827.358 29.1562ZM853.984 26.3011L851.725 26.9403C851.583 26.5639 851.374 26.1982 851.097 25.843C850.827 25.4808 850.458 25.1825 849.989 24.9482C849.52 24.7138 848.92 24.5966 848.188 24.5966C847.187 24.5966 846.352 24.8274 845.685 25.2891C845.024 25.7436 844.694 26.3224 844.694 27.0256C844.694 27.6506 844.921 28.1442 845.376 28.5064C845.83 28.8686 846.541 29.1705 847.507 29.4119L849.936 30.0085C851.399 30.3636 852.489 30.907 853.206 31.6385C853.923 32.3629 854.282 33.2969 854.282 34.4403C854.282 35.3778 854.012 36.2159 853.472 36.9545C852.94 37.6932 852.194 38.2756 851.235 38.7017C850.276 39.1278 849.161 39.3409 847.89 39.3409C846.221 39.3409 844.84 38.9787 843.746 38.2543C842.652 37.5298 841.96 36.4716 841.669 35.0795L844.055 34.483C844.282 35.3636 844.712 36.0241 845.344 36.4645C845.983 36.9048 846.818 37.125 847.847 37.125C849.019 37.125 849.95 36.8764 850.639 36.3793C851.335 35.875 851.683 35.2713 851.683 34.5682C851.683 34 851.484 33.5241 851.086 33.1406C850.688 32.75 850.078 32.4588 849.254 32.267L846.526 31.6278C845.028 31.2727 843.927 30.7223 843.224 29.9766C842.528 29.2237 842.18 28.2827 842.18 27.1534C842.18 26.2301 842.439 25.4134 842.958 24.7031C843.483 23.9929 844.197 23.4354 845.099 23.0305C846.008 22.6257 847.038 22.4233 848.188 22.4233C849.808 22.4233 851.079 22.7784 852.002 23.4886C852.933 24.1989 853.593 25.1364 853.984 26.3011Z" fill="white"/>
<path d="M888.642 39V17.1818H901.81V19.5256H891.284V26.8977H901.128V29.2415H891.284V36.6562H901.98V39H888.642ZM919.612 22.6364L913.56 39H911.004L904.952 22.6364H907.68L912.197 35.6761H912.367L916.884 22.6364H919.612ZM929.205 39.3409C927.628 39.3409 926.268 38.9929 925.125 38.2969C923.988 37.5938 923.111 36.6136 922.493 35.3565C921.882 34.0923 921.577 32.6222 921.577 30.946C921.577 29.2699 921.882 27.7926 922.493 26.5142C923.111 25.2287 923.971 24.2273 925.071 23.5099C926.179 22.7855 927.472 22.4233 928.949 22.4233C929.801 22.4233 930.643 22.5653 931.474 22.8494C932.305 23.1335 933.061 23.5952 933.743 24.2344C934.425 24.8665 934.968 25.7045 935.373 26.7486C935.778 27.7926 935.98 29.0781 935.98 30.6051V31.6705H923.367V29.4972H933.424C933.424 28.5739 933.239 27.75 932.87 27.0256C932.507 26.3011 931.989 25.7294 931.314 25.3104C930.647 24.8913 929.858 24.6818 928.949 24.6818C927.948 24.6818 927.081 24.9304 926.35 25.4276C925.625 25.9176 925.068 26.5568 924.677 27.3452C924.287 28.1335 924.091 28.9787 924.091 29.8807V31.3295C924.091 32.5653 924.304 33.6129 924.73 34.4723C925.164 35.3246 925.764 35.9744 926.531 36.4219C927.298 36.8622 928.189 37.0824 929.205 37.0824C929.865 37.0824 930.462 36.9901 930.995 36.8054C931.534 36.6136 932 36.3295 932.39 35.9531C932.781 35.5696 933.083 35.0937 933.296 34.5256L935.725 35.2074C935.469 36.0312 935.039 36.7557 934.436 37.3807C933.832 37.9986 933.086 38.4815 932.199 38.8295C931.311 39.1705 930.313 39.3409 929.205 39.3409ZM942.319 29.1562V39H939.805V22.6364H942.234V25.1932H942.447C942.831 24.3622 943.413 23.6946 944.194 23.1903C944.975 22.679 945.984 22.4233 947.22 22.4233C948.328 22.4233 949.297 22.6506 950.128 23.1051C950.959 23.5526 951.605 24.2344 952.067 25.1506C952.529 26.0597 952.76 27.2102 952.76 28.6023V39H950.245V28.7727C950.245 27.4872 949.912 26.4858 949.244 25.7685C948.576 25.044 947.66 24.6818 946.495 24.6818C945.693 24.6818 944.975 24.8558 944.343 25.2038C943.718 25.5518 943.225 26.0597 942.863 26.7273C942.5 27.3949 942.319 28.2045 942.319 29.1562ZM964.47 22.6364V24.767H955.99V22.6364H964.47ZM958.462 18.7159H960.976V34.3125C960.976 35.0227 961.079 35.5554 961.285 35.9105C961.498 36.2585 961.768 36.4929 962.095 36.6136C962.428 36.7273 962.78 36.7841 963.149 36.7841C963.426 36.7841 963.654 36.7699 963.831 36.7415C964.009 36.706 964.151 36.6776 964.257 36.6562L964.769 38.9148C964.598 38.9787 964.36 39.0426 964.055 39.1065C963.749 39.1776 963.362 39.2131 962.894 39.2131C962.183 39.2131 961.487 39.0604 960.806 38.755C960.131 38.4496 959.57 37.9844 959.122 37.3594C958.682 36.7344 958.462 35.946 958.462 34.9943V18.7159ZM979.55 26.3011L977.292 26.9403C977.15 26.5639 976.94 26.1982 976.663 25.843C976.393 25.4808 976.024 25.1825 975.555 24.9482C975.086 24.7138 974.486 24.5966 973.755 24.5966C972.753 24.5966 971.919 24.8274 971.251 25.2891C970.591 25.7436 970.26 26.3224 970.26 27.0256C970.26 27.6506 970.488 28.1442 970.942 28.5064C971.397 28.8686 972.107 29.1705 973.073 29.4119L975.502 30.0085C976.965 30.3636 978.055 30.907 978.773 31.6385C979.49 32.3629 979.849 33.2969 979.849 34.4403C979.849 35.3778 979.579 36.2159 979.039 36.9545C978.506 37.6932 977.76 38.2756 976.802 38.7017C975.843 39.1278 974.728 39.3409 973.456 39.3409C971.787 39.3409 970.406 38.9787 969.312 38.2543C968.219 37.5298 967.526 36.4716 967.235 35.0795L969.621 34.483C969.849 35.3636 970.278 36.0241 970.91 36.4645C971.55 36.9048 972.384 37.125 973.414 37.125C974.586 37.125 975.516 36.8764 976.205 36.3793C976.901 35.875 977.249 35.2713 977.249 34.5682C977.249 34 977.05 33.5241 976.653 33.1406C976.255 32.75 975.644 32.4588 974.82 32.267L972.093 31.6278C970.594 31.2727 969.493 30.7223 968.79 29.9766C968.094 29.2237 967.746 28.2827 967.746 27.1534C967.746 26.2301 968.006 25.4134 968.524 24.7031C969.05 23.9929 969.763 23.4354 970.665 23.0305C971.574 22.6257 972.604 22.4233 973.755 22.4233C975.374 22.4233 976.645 22.7784 977.569 23.4886C978.499 24.1989 979.16 25.1364 979.55 26.3011Z" fill="white"/>
<path d="M1015.54 39H1012.77L1020.78 17.1818H1023.51L1031.52 39H1028.75L1022.23 20.6335H1022.06L1015.54 39ZM1016.56 30.4773H1027.72V32.821H1016.56V30.4773ZM1034.92 39V17.1818H1037.43V25.2358H1037.64C1037.83 24.9517 1038.08 24.5895 1038.41 24.1491C1038.74 23.7017 1039.22 23.304 1039.84 22.956C1040.46 22.6009 1041.31 22.4233 1042.37 22.4233C1043.75 22.4233 1044.97 22.7678 1046.02 23.4567C1047.07 24.1456 1047.89 25.1222 1048.48 26.3864C1049.07 27.6506 1049.36 29.142 1049.36 30.8608C1049.36 32.5938 1049.07 34.0959 1048.48 35.3672C1047.89 36.6314 1047.07 37.6115 1046.03 38.3075C1044.98 38.9964 1043.78 39.3409 1042.42 39.3409C1041.36 39.3409 1040.52 39.1669 1039.89 38.8189C1039.26 38.4638 1038.77 38.0625 1038.43 37.6151C1038.09 37.1605 1037.83 36.7841 1037.64 36.4858H1037.34V39H1034.92ZM1037.39 30.8182C1037.39 32.054 1037.57 33.1442 1037.93 34.0888C1038.29 35.0263 1038.82 35.7614 1039.52 36.294C1040.21 36.8196 1041.07 37.0824 1042.07 37.0824C1043.13 37.0824 1044 36.8054 1044.71 36.2514C1045.42 35.6903 1045.95 34.9375 1046.3 33.9929C1046.67 33.0412 1046.85 31.983 1046.85 30.8182C1046.85 29.6676 1046.67 28.6307 1046.31 27.7074C1045.97 26.777 1045.44 26.0419 1044.73 25.5021C1044.02 24.9553 1043.14 24.6818 1042.07 24.6818C1041.05 24.6818 1040.19 24.9411 1039.5 25.4595C1038.8 25.9709 1038.27 26.6882 1037.92 27.6115C1037.56 28.5277 1037.39 29.5966 1037.39 30.8182ZM1059.86 39.3409C1058.38 39.3409 1057.08 38.9893 1055.97 38.2862C1054.86 37.5831 1053.99 36.5994 1053.37 35.3352C1052.75 34.071 1052.44 32.5937 1052.44 30.9034C1052.44 29.1989 1052.75 27.7109 1053.37 26.4396C1053.99 25.1683 1054.86 24.1811 1055.97 23.478C1057.08 22.7749 1058.38 22.4233 1059.86 22.4233C1061.33 22.4233 1062.63 22.7749 1063.73 23.478C1064.85 24.1811 1065.71 25.1683 1066.33 26.4396C1066.96 27.7109 1067.27 29.1989 1067.27 30.9034C1067.27 32.5937 1066.96 34.071 1066.33 35.3352C1065.71 36.5994 1064.85 37.5831 1063.73 38.2862C1062.63 38.9893 1061.33 39.3409 1059.86 39.3409ZM1059.86 37.0824C1060.98 37.0824 1061.9 36.7947 1062.62 36.2195C1063.35 35.6442 1063.89 34.8878 1064.23 33.9503C1064.58 33.0128 1064.76 31.9972 1064.76 30.9034C1064.76 29.8097 1064.58 28.7905 1064.23 27.8459C1063.89 26.9013 1063.35 26.1378 1062.62 25.5554C1061.9 24.973 1060.98 24.6818 1059.86 24.6818C1058.73 24.6818 1057.81 24.973 1057.09 25.5554C1056.36 26.1378 1055.82 26.9013 1055.48 27.8459C1055.13 28.7905 1054.95 29.8097 1054.95 30.9034C1054.95 31.9972 1055.13 33.0128 1055.48 33.9503C1055.82 34.8878 1056.36 35.6442 1057.09 36.2195C1057.81 36.7947 1058.73 37.0824 1059.86 37.0824ZM1081.42 32.3097V22.6364H1083.93V39H1081.42V36.2301H1081.25C1080.87 37.0611 1080.27 37.7678 1079.46 38.3501C1078.65 38.9254 1077.63 39.2131 1076.39 39.2131C1075.37 39.2131 1074.46 38.9893 1073.66 38.5419C1072.87 38.0874 1072.24 37.4055 1071.79 36.4964C1071.34 35.5803 1071.11 34.4261 1071.11 33.0341V22.6364H1073.62V32.8636C1073.62 34.0568 1073.96 35.0085 1074.62 35.7188C1075.3 36.429 1076.16 36.7841 1077.2 36.7841C1077.83 36.7841 1078.46 36.6243 1079.11 36.3047C1079.76 35.9851 1080.31 35.495 1080.75 34.8345C1081.2 34.174 1081.42 33.3324 1081.42 32.3097ZM1095.66 22.6364V24.767H1087.18V22.6364H1095.66ZM1089.65 18.7159H1092.16V34.3125C1092.16 35.0227 1092.26 35.5554 1092.47 35.9105C1092.68 36.2585 1092.95 36.4929 1093.28 36.6136C1093.61 36.7273 1093.97 36.7841 1094.33 36.7841C1094.61 36.7841 1094.84 36.7699 1095.02 36.7415C1095.19 36.706 1095.34 36.6776 1095.44 36.6562L1095.95 38.9148C1095.78 38.9787 1095.55 39.0426 1095.24 39.1065C1094.94 39.1776 1094.55 39.2131 1094.08 39.2131C1093.37 39.2131 1092.67 39.0604 1091.99 38.755C1091.32 38.4496 1090.76 37.9844 1090.31 37.3594C1089.87 36.7344 1089.65 35.946 1089.65 34.9943V18.7159Z" fill="white"/>
<path d="M1142.57 22.6364C1142.45 21.5568 1141.93 20.7188 1141.02 20.1222C1140.11 19.5256 1138.99 19.2273 1137.67 19.2273C1136.71 19.2273 1135.86 19.3835 1135.14 19.696C1134.42 20.0085 1133.86 20.4382 1133.45 20.9851C1133.06 21.532 1132.86 22.1534 1132.86 22.8494C1132.86 23.4318 1133 23.9325 1133.27 24.3516C1133.56 24.7635 1133.92 25.108 1134.36 25.3849C1134.8 25.6548 1135.26 25.8786 1135.75 26.0561C1136.23 26.2266 1136.67 26.3651 1137.08 26.4716L1139.29 27.0682C1139.86 27.2173 1140.49 27.4233 1141.19 27.6861C1141.89 27.9489 1142.56 28.3075 1143.2 28.7621C1143.85 29.2095 1144.38 29.7848 1144.8 30.4879C1145.22 31.1911 1145.43 32.054 1145.43 33.0767C1145.43 34.2557 1145.12 35.321 1144.5 36.2727C1143.89 37.2244 1143 37.9808 1141.82 38.5419C1140.65 39.103 1139.22 39.3835 1137.55 39.3835C1135.98 39.3835 1134.63 39.1314 1133.49 38.6271C1132.35 38.1229 1131.46 37.4197 1130.8 36.5178C1130.16 35.6158 1129.79 34.5682 1129.7 33.375H1132.43C1132.5 34.1989 1132.78 34.8807 1133.26 35.4205C1133.75 35.9531 1134.37 36.3509 1135.12 36.6136C1135.87 36.8693 1136.68 36.9972 1137.55 36.9972C1138.55 36.9972 1139.46 36.8338 1140.26 36.5071C1141.06 36.1733 1141.7 35.7116 1142.17 35.1222C1142.64 34.5256 1142.87 33.8295 1142.87 33.0341C1142.87 32.3097 1142.67 31.7202 1142.26 31.2656C1141.86 30.8111 1141.33 30.4418 1140.67 30.1577C1140.01 29.8736 1139.29 29.625 1138.53 29.4119L1135.84 28.6449C1134.14 28.1548 1132.79 27.4553 1131.79 26.5462C1130.8 25.6371 1130.3 24.4474 1130.3 22.9773C1130.3 21.7557 1130.63 20.6903 1131.29 19.7812C1131.96 18.8651 1132.85 18.1548 1133.98 17.6506C1135.11 17.1392 1136.37 16.8835 1137.76 16.8835C1139.16 16.8835 1140.41 17.1357 1141.51 17.6399C1142.6 18.1371 1143.47 18.8189 1144.11 19.6854C1144.75 20.5518 1145.1 21.5355 1145.13 22.6364H1142.57ZM1151.95 29.1562V39H1149.43V17.1818H1151.95V25.1932H1152.16C1152.54 24.348 1153.12 23.6768 1153.89 23.1797C1154.66 22.6754 1155.69 22.4233 1156.97 22.4233C1158.09 22.4233 1159.07 22.647 1159.9 23.0945C1160.74 23.5348 1161.39 24.2131 1161.85 25.1293C1162.32 26.0384 1162.56 27.196 1162.56 28.6023V39H1160.04V28.7727C1160.04 27.473 1159.71 26.468 1159.03 25.7578C1158.36 25.0405 1157.44 24.6818 1156.25 24.6818C1155.43 24.6818 1154.69 24.8558 1154.03 25.2038C1153.39 25.5518 1152.88 26.0597 1152.5 26.7273C1152.13 27.3949 1151.95 28.2045 1151.95 29.1562ZM1173.8 39.3409C1172.33 39.3409 1171.03 38.9893 1169.92 38.2862C1168.81 37.5831 1167.94 36.5994 1167.32 35.3352C1166.7 34.071 1166.39 32.5937 1166.39 30.9034C1166.39 29.1989 1166.7 27.7109 1167.32 26.4396C1167.94 25.1683 1168.81 24.1811 1169.92 23.478C1171.03 22.7749 1172.33 22.4233 1173.8 22.4233C1175.28 22.4233 1176.57 22.7749 1177.68 23.478C1178.8 24.1811 1179.66 25.1683 1180.28 26.4396C1180.91 27.7109 1181.22 29.1989 1181.22 30.9034C1181.22 32.5937 1180.91 34.071 1180.28 35.3352C1179.66 36.5994 1178.8 37.5831 1177.68 38.2862C1176.57 38.9893 1175.28 39.3409 1173.8 39.3409ZM1173.8 37.0824C1174.93 37.0824 1175.85 36.7947 1176.57 36.2195C1177.3 35.6442 1177.83 34.8878 1178.18 33.9503C1178.53 33.0128 1178.7 31.9972 1178.7 30.9034C1178.7 29.8097 1178.53 28.7905 1178.18 27.8459C1177.83 26.9013 1177.3 26.1378 1176.57 25.5554C1175.85 24.973 1174.93 24.6818 1173.8 24.6818C1172.68 24.6818 1171.76 24.973 1171.03 25.5554C1170.31 26.1378 1169.77 26.9013 1169.43 27.8459C1169.08 28.7905 1168.9 29.8097 1168.9 30.9034C1168.9 31.9972 1169.08 33.0128 1169.43 33.9503C1169.77 34.8878 1170.31 35.6442 1171.03 36.2195C1171.76 36.7947 1172.68 37.0824 1173.8 37.0824ZM1185.06 45.1364V22.6364H1187.49V25.2358H1187.78C1187.97 24.9517 1188.22 24.5895 1188.55 24.1491C1188.89 23.7017 1189.36 23.304 1189.98 22.956C1190.6 22.6009 1191.45 22.4233 1192.51 22.4233C1193.89 22.4233 1195.11 22.7678 1196.16 23.4567C1197.21 24.1456 1198.03 25.1222 1198.62 26.3864C1199.21 27.6506 1199.5 29.142 1199.5 30.8608C1199.5 32.5938 1199.21 34.0959 1198.62 35.3672C1198.03 36.6314 1197.21 37.6115 1196.17 38.3075C1195.12 38.9964 1193.92 39.3409 1192.56 39.3409C1191.51 39.3409 1190.66 39.1669 1190.03 38.8189C1189.4 38.4638 1188.91 38.0625 1188.57 37.6151C1188.23 37.1605 1187.97 36.7841 1187.78 36.4858H1187.57V45.1364H1185.06ZM1187.53 30.8182C1187.53 32.054 1187.71 33.1442 1188.07 34.0888C1188.43 35.0263 1188.96 35.7614 1189.66 36.294C1190.36 36.8196 1191.21 37.0824 1192.22 37.0824C1193.27 37.0824 1194.14 36.8054 1194.85 36.2514C1195.56 35.6903 1196.09 34.9375 1196.45 33.9929C1196.81 33.0412 1196.99 31.983 1196.99 30.8182C1196.99 29.6676 1196.81 28.6307 1196.46 27.7074C1196.11 26.777 1195.58 26.0419 1194.87 25.5021C1194.17 24.9553 1193.28 24.6818 1192.22 24.6818C1191.19 24.6818 1190.33 24.9411 1189.64 25.4595C1188.94 25.9709 1188.42 26.6882 1188.06 27.6115C1187.71 28.5277 1187.53 29.5966 1187.53 30.8182Z" fill="white"/>
<path d="M1234.64 17.1818H1237.8L1245.21 35.2926H1245.47L1252.88 17.1818H1256.03V39H1253.56V22.4233H1253.35L1246.53 39H1244.14L1237.33 22.4233H1237.11V39H1234.64V17.1818ZM1265.81 39.3835C1264.77 39.3835 1263.83 39.1882 1262.98 38.7976C1262.14 38.3999 1261.47 37.8281 1260.97 37.0824C1260.47 36.3295 1260.22 35.4205 1260.22 34.3551C1260.22 33.4176 1260.41 32.6577 1260.78 32.0753C1261.15 31.4858 1261.64 31.0241 1262.26 30.6903C1262.88 30.3565 1263.56 30.108 1264.3 29.9446C1265.06 29.7741 1265.81 29.6392 1266.57 29.5398C1267.57 29.4119 1268.37 29.3161 1268.99 29.2521C1269.62 29.1811 1270.07 29.0639 1270.35 28.9006C1270.65 28.7372 1270.79 28.4531 1270.79 28.0483V27.9631C1270.79 26.9119 1270.5 26.0952 1269.93 25.5128C1269.36 24.9304 1268.5 24.6392 1267.34 24.6392C1266.14 24.6392 1265.2 24.902 1264.52 25.4276C1263.84 25.9531 1263.36 26.5142 1263.08 27.1108L1260.69 26.2585C1261.12 25.2642 1261.69 24.4901 1262.4 23.9361C1263.11 23.375 1263.9 22.9844 1264.74 22.7642C1265.59 22.5369 1266.43 22.4233 1267.25 22.4233C1267.78 22.4233 1268.38 22.4872 1269.07 22.6151C1269.75 22.7358 1270.42 22.9879 1271.06 23.3714C1271.7 23.755 1272.24 24.3338 1272.67 25.108C1273.09 25.8821 1273.31 26.919 1273.31 28.2188V39H1270.79V36.7841H1270.66C1270.49 37.1392 1270.21 37.5192 1269.81 37.924C1269.41 38.3288 1268.88 38.6733 1268.22 38.9574C1267.56 39.2415 1266.76 39.3835 1265.81 39.3835ZM1266.19 37.125C1267.18 37.125 1268.02 36.9297 1268.7 36.5391C1269.39 36.1484 1269.91 35.6442 1270.26 35.0263C1270.61 34.4084 1270.79 33.7585 1270.79 33.0767V30.7756C1270.69 30.9034 1270.45 31.0206 1270.09 31.1271C1269.73 31.2266 1269.32 31.3153 1268.85 31.3935C1268.39 31.4645 1267.94 31.5284 1267.5 31.5852C1267.07 31.6349 1266.72 31.6776 1266.45 31.7131C1265.79 31.7983 1265.18 31.9368 1264.61 32.1286C1264.05 32.3132 1263.6 32.5937 1263.25 32.9702C1262.91 33.3395 1262.74 33.8437 1262.74 34.483C1262.74 35.3565 1263.06 36.017 1263.71 36.4645C1264.36 36.9048 1265.19 37.125 1266.19 37.125ZM1284.5 45.4773C1283.29 45.4773 1282.24 45.321 1281.37 45.0085C1280.49 44.7031 1279.77 44.2983 1279.18 43.794C1278.61 43.2969 1278.15 42.7642 1277.81 42.196L1279.81 40.7898C1280.04 41.0881 1280.33 41.429 1280.68 41.8125C1281.02 42.2031 1281.5 42.5405 1282.1 42.8246C1282.71 43.1158 1283.51 43.2614 1284.5 43.2614C1285.82 43.2614 1286.91 42.9418 1287.77 42.3026C1288.63 41.6634 1289.06 40.6619 1289.06 39.2983V35.9744H1288.85C1288.66 36.2727 1288.4 36.642 1288.06 37.0824C1287.72 37.5156 1287.24 37.9027 1286.61 38.2436C1285.98 38.5774 1285.14 38.7443 1284.07 38.7443C1282.75 38.7443 1281.57 38.4318 1280.52 37.8068C1279.47 37.1818 1278.64 36.2727 1278.03 35.0795C1277.43 33.8864 1277.13 32.4375 1277.13 30.733C1277.13 29.0568 1277.42 27.5973 1278.01 26.3544C1278.6 25.1044 1279.42 24.1385 1280.47 23.4567C1281.52 22.7678 1282.74 22.4233 1284.12 22.4233C1285.18 22.4233 1286.03 22.6009 1286.65 22.956C1287.28 23.304 1287.77 23.7017 1288.1 24.1491C1288.44 24.5895 1288.7 24.9517 1288.89 25.2358H1289.14V22.6364H1291.57V39.4688C1291.57 40.875 1291.25 42.0185 1290.62 42.8991C1289.98 43.7869 1289.13 44.4368 1288.06 44.8487C1286.99 45.2678 1285.81 45.4773 1284.5 45.4773ZM1284.41 36.4858C1285.42 36.4858 1286.28 36.255 1286.97 35.7933C1287.67 35.3317 1288.2 34.6676 1288.56 33.8011C1288.92 32.9347 1289.1 31.8977 1289.1 30.6903C1289.1 29.5114 1288.92 28.4709 1288.57 27.5689C1288.21 26.6669 1287.69 25.9602 1286.99 25.4489C1286.3 24.9375 1285.44 24.6818 1284.41 24.6818C1283.35 24.6818 1282.46 24.9517 1281.75 25.4915C1281.05 26.0312 1280.52 26.7557 1280.16 27.6648C1279.82 28.5739 1279.64 29.5824 1279.64 30.6903C1279.64 31.8267 1279.82 32.8317 1280.17 33.7053C1280.54 34.5717 1281.07 35.2536 1281.77 35.7507C1282.48 36.2408 1283.36 36.4858 1284.41 36.4858ZM1300.99 39.3835C1299.95 39.3835 1299.01 39.1882 1298.17 38.7976C1297.32 38.3999 1296.65 37.8281 1296.15 37.0824C1295.66 36.3295 1295.41 35.4205 1295.41 34.3551C1295.41 33.4176 1295.59 32.6577 1295.96 32.0753C1296.33 31.4858 1296.83 31.0241 1297.44 30.6903C1298.06 30.3565 1298.74 30.108 1299.49 29.9446C1300.24 29.7741 1301 29.6392 1301.76 29.5398C1302.75 29.4119 1303.56 29.3161 1304.18 29.2521C1304.8 29.1811 1305.26 29.0639 1305.54 28.9006C1305.83 28.7372 1305.98 28.4531 1305.98 28.0483V27.9631C1305.98 26.9119 1305.69 26.0952 1305.11 25.5128C1304.55 24.9304 1303.68 24.6392 1302.53 24.6392C1301.33 24.6392 1300.38 24.902 1299.7 25.4276C1299.02 25.9531 1298.54 26.5142 1298.26 27.1108L1295.88 26.2585C1296.3 25.2642 1296.87 24.4901 1297.58 23.9361C1298.3 23.375 1299.08 22.9844 1299.93 22.7642C1300.78 22.5369 1301.62 22.4233 1302.44 22.4233C1302.97 22.4233 1303.57 22.4872 1304.25 22.6151C1304.94 22.7358 1305.6 22.9879 1306.24 23.3714C1306.89 23.755 1307.43 24.3338 1307.85 25.108C1308.28 25.8821 1308.49 26.919 1308.49 28.2188V39H1305.98V36.7841H1305.85C1305.68 37.1392 1305.39 37.5192 1305 37.924C1304.6 38.3288 1304.07 38.6733 1303.41 38.9574C1302.75 39.2415 1301.94 39.3835 1300.99 39.3835ZM1301.38 37.125C1302.37 37.125 1303.21 36.9297 1303.89 36.5391C1304.58 36.1484 1305.1 35.6442 1305.44 35.0263C1305.8 34.4084 1305.98 33.7585 1305.98 33.0767V30.7756C1305.87 30.9034 1305.64 31.0206 1305.27 31.1271C1304.92 31.2266 1304.51 31.3153 1304.04 31.3935C1303.58 31.4645 1303.13 31.5284 1302.69 31.5852C1302.25 31.6349 1301.9 31.6776 1301.63 31.7131C1300.98 31.7983 1300.37 31.9368 1299.8 32.1286C1299.24 32.3132 1298.78 32.5937 1298.43 32.9702C1298.09 33.3395 1297.92 33.8437 1297.92 34.483C1297.92 35.3565 1298.25 36.017 1298.89 36.4645C1299.55 36.9048 1300.37 37.125 1301.38 37.125ZM1312.61 39V37.0824L1321.9 25.1506V24.9801H1312.91V22.6364H1325.14V24.6392L1316.11 36.4858V36.6562H1325.44V39H1312.61ZM1329.31 39V22.6364H1331.83V39H1329.31ZM1330.59 19.9091C1330.1 19.9091 1329.68 19.7422 1329.32 19.4084C1328.97 19.0746 1328.8 18.6733 1328.8 18.2045C1328.8 17.7358 1328.97 17.3345 1329.32 17.0007C1329.68 16.6669 1330.1 16.5 1330.59 16.5C1331.08 16.5 1331.5 16.6669 1331.85 17.0007C1332.2 17.3345 1332.38 17.7358 1332.38 18.2045C1332.38 18.6733 1332.2 19.0746 1331.85 19.4084C1331.5 19.7422 1331.08 19.9091 1330.59 19.9091ZM1338.94 29.1562V39H1336.43V22.6364H1338.86V25.1932H1339.07C1339.46 24.3622 1340.04 23.6946 1340.82 23.1903C1341.6 22.679 1342.61 22.4233 1343.84 22.4233C1344.95 22.4233 1345.92 22.6506 1346.75 23.1051C1347.58 23.5526 1348.23 24.2344 1348.69 25.1506C1349.15 26.0597 1349.38 27.2102 1349.38 28.6023V39H1346.87V28.7727C1346.87 27.4872 1346.54 26.4858 1345.87 25.7685C1345.2 25.044 1344.29 24.6818 1343.12 24.6818C1342.32 24.6818 1341.6 24.8558 1340.97 25.2038C1340.34 25.5518 1339.85 26.0597 1339.49 26.7273C1339.13 27.3949 1338.94 28.2045 1338.94 29.1562ZM1360.84 39.3409C1359.26 39.3409 1357.9 38.9929 1356.76 38.2969C1355.62 37.5938 1354.75 36.6136 1354.13 35.3565C1353.52 34.0923 1353.21 32.6222 1353.21 30.946C1353.21 29.2699 1353.52 27.7926 1354.13 26.5142C1354.75 25.2287 1355.61 24.2273 1356.71 23.5099C1357.81 22.7855 1359.11 22.4233 1360.58 22.4233C1361.44 22.4233 1362.28 22.5653 1363.11 22.8494C1363.94 23.1335 1364.7 23.5952 1365.38 24.2344C1366.06 24.8665 1366.6 25.7045 1367.01 26.7486C1367.41 27.7926 1367.62 29.0781 1367.62 30.6051V31.6705H1355V29.4972H1365.06C1365.06 28.5739 1364.87 27.75 1364.5 27.0256C1364.14 26.3011 1363.62 25.7294 1362.95 25.3104C1362.28 24.8913 1361.49 24.6818 1360.58 24.6818C1359.58 24.6818 1358.72 24.9304 1357.98 25.4276C1357.26 25.9176 1356.7 26.5568 1356.31 27.3452C1355.92 28.1335 1355.73 28.9787 1355.73 29.8807V31.3295C1355.73 32.5653 1355.94 33.6129 1356.37 34.4723C1356.8 35.3246 1357.4 35.9744 1358.17 36.4219C1358.93 36.8622 1359.82 37.0824 1360.84 37.0824C1361.5 37.0824 1362.1 36.9901 1362.63 36.8054C1363.17 36.6136 1363.63 36.3295 1364.03 35.9531C1364.42 35.5696 1364.72 35.0937 1364.93 34.5256L1367.36 35.2074C1367.1 36.0312 1366.67 36.7557 1366.07 37.3807C1365.47 37.9986 1364.72 38.4815 1363.83 38.8295C1362.95 39.1705 1361.95 39.3409 1360.84 39.3409Z" fill="white"/>
<line x1="1202" y1="46.5" x2="1128" y2="46.5" stroke="white"/>
<path d="M50.2614 122.909C50.2614 125.67 49.7628 128.057 48.7656 130.068C47.7685 132.08 46.4006 133.631 44.6619 134.722C42.9233 135.812 40.9375 136.358 38.7045 136.358C36.4716 136.358 34.4858 135.812 32.7472 134.722C31.0085 133.631 29.6406 132.08 28.6435 130.068C27.6463 128.057 27.1477 125.67 27.1477 122.909C27.1477 120.148 27.6463 117.761 28.6435 115.75C29.6406 113.739 31.0085 112.188 32.7472 111.097C34.4858 110.006 36.4716 109.46 38.7045 109.46C40.9375 109.46 42.9233 110.006 44.6619 111.097C46.4006 112.188 47.7685 113.739 48.7656 115.75C49.7628 117.761 50.2614 120.148 50.2614 122.909ZM47.1932 122.909C47.1932 120.642 46.8139 118.729 46.0554 117.169C45.3054 115.609 44.2869 114.429 43 113.628C41.7216 112.827 40.2898 112.426 38.7045 112.426C37.1193 112.426 35.6832 112.827 34.3963 113.628C33.1179 114.429 32.0994 115.609 31.3409 117.169C30.5909 118.729 30.2159 120.642 30.2159 122.909C30.2159 125.176 30.5909 127.089 31.3409 128.649C32.0994 130.209 33.1179 131.389 34.3963 132.19C35.6832 132.991 37.1193 133.392 38.7045 133.392C40.2898 133.392 41.7216 132.991 43 132.19C44.2869 131.389 45.3054 130.209 46.0554 128.649C46.8139 127.089 47.1932 125.176 47.1932 122.909ZM55.1832 136V116.364H58.098V119.33H58.3026C58.6605 118.358 59.3082 117.57 60.2457 116.964C61.1832 116.359 62.2401 116.057 63.4162 116.057C63.6378 116.057 63.9148 116.061 64.2472 116.07C64.5795 116.078 64.831 116.091 65.0014 116.108V119.176C64.8991 119.151 64.6648 119.112 64.2983 119.061C63.9403 119.001 63.5611 118.972 63.1605 118.972C62.206 118.972 61.3537 119.172 60.6037 119.572C59.8622 119.964 59.2741 120.51 58.8395 121.209C58.4134 121.899 58.2003 122.687 58.2003 123.574V136H55.1832ZM75.3949 136.409C73.7585 136.409 72.3139 135.996 71.0611 135.169C69.8082 134.334 68.8281 133.158 68.1207 131.641C67.4134 130.115 67.0597 128.312 67.0597 126.233C67.0597 124.17 67.4134 122.381 68.1207 120.864C68.8281 119.347 69.8125 118.175 71.0739 117.348C72.3352 116.521 73.7926 116.108 75.446 116.108C76.7244 116.108 77.7344 116.321 78.4759 116.747C79.2259 117.165 79.7969 117.642 80.1889 118.179C80.5895 118.707 80.9006 119.142 81.1222 119.483H81.3778V109.818H84.3949V136H81.4801V132.983H81.1222C80.9006 133.341 80.5852 133.793 80.1761 134.338C79.767 134.875 79.1832 135.357 78.4247 135.783C77.6662 136.2 76.6563 136.409 75.3949 136.409ZM75.804 133.699C77.0142 133.699 78.0369 133.384 78.8722 132.753C79.7074 132.114 80.3423 131.232 80.777 130.107C81.2116 128.973 81.429 127.665 81.429 126.182C81.429 124.716 81.2159 123.433 80.7898 122.334C80.3636 121.226 79.733 120.365 78.8977 119.751C78.0625 119.129 77.0313 118.818 75.804 118.818C74.5256 118.818 73.4602 119.146 72.608 119.803C71.7642 120.45 71.1293 121.332 70.7031 122.449C70.2855 123.557 70.0767 124.801 70.0767 126.182C70.0767 127.58 70.2898 128.849 70.7159 129.991C71.1506 131.125 71.7898 132.028 72.6335 132.702C73.4858 133.366 74.5426 133.699 75.804 133.699ZM98.5724 136.409C96.6804 136.409 95.0483 135.991 93.6761 135.156C92.3125 134.312 91.2599 133.136 90.5185 131.628C89.7855 130.111 89.419 128.347 89.419 126.335C89.419 124.324 89.7855 122.551 90.5185 121.017C91.2599 119.474 92.2912 118.273 93.6122 117.412C94.9418 116.543 96.4929 116.108 98.2656 116.108C99.2884 116.108 100.298 116.278 101.295 116.619C102.293 116.96 103.2 117.514 104.018 118.281C104.837 119.04 105.489 120.045 105.974 121.298C106.46 122.551 106.703 124.094 106.703 125.926V127.205H91.5668V124.597H103.635C103.635 123.489 103.413 122.5 102.97 121.631C102.536 120.761 101.913 120.075 101.104 119.572C100.303 119.07 99.3565 118.818 98.2656 118.818C97.0639 118.818 96.0241 119.116 95.1463 119.713C94.277 120.301 93.608 121.068 93.1392 122.014C92.6705 122.96 92.4361 123.974 92.4361 125.057V126.795C92.4361 128.278 92.6918 129.536 93.2031 130.567C93.723 131.589 94.4432 132.369 95.3636 132.906C96.2841 133.435 97.3537 133.699 98.5724 133.699C99.3651 133.699 100.081 133.588 100.72 133.366C101.368 133.136 101.926 132.795 102.395 132.344C102.864 131.884 103.226 131.312 103.482 130.631L106.396 131.449C106.089 132.438 105.574 133.307 104.849 134.057C104.125 134.798 103.23 135.378 102.165 135.795C101.099 136.205 99.902 136.409 98.5724 136.409ZM111.293 136V116.364H114.207V119.33H114.412C114.77 118.358 115.418 117.57 116.355 116.964C117.293 116.359 118.349 116.057 119.526 116.057C119.747 116.057 120.024 116.061 120.357 116.07C120.689 116.078 120.94 116.091 121.111 116.108V119.176C121.009 119.151 120.774 119.112 120.408 119.061C120.05 119.001 119.67 118.972 119.27 118.972C118.315 118.972 117.463 119.172 116.713 119.572C115.972 119.964 115.384 120.51 114.949 121.209C114.523 121.899 114.31 122.687 114.31 123.574V136H111.293ZM135.221 136V109.818H144.068C146.122 109.818 147.801 110.189 149.105 110.93C150.417 111.663 151.389 112.656 152.02 113.909C152.65 115.162 152.966 116.56 152.966 118.102C152.966 119.645 152.65 121.047 152.02 122.308C151.397 123.57 150.434 124.575 149.13 125.325C147.826 126.067 146.156 126.438 144.119 126.438H137.778V123.625H144.017C145.423 123.625 146.552 123.382 147.404 122.896C148.257 122.411 148.875 121.754 149.258 120.928C149.65 120.092 149.846 119.151 149.846 118.102C149.846 117.054 149.65 116.116 149.258 115.29C148.875 114.463 148.252 113.815 147.392 113.347C146.531 112.869 145.389 112.631 143.966 112.631H138.392V136H135.221ZM160.681 109.818V136H157.664V109.818H160.681ZM171.985 136.46C170.741 136.46 169.612 136.226 168.597 135.757C167.583 135.28 166.778 134.594 166.181 133.699C165.585 132.795 165.286 131.705 165.286 130.426C165.286 129.301 165.508 128.389 165.951 127.69C166.394 126.983 166.987 126.429 167.728 126.028C168.469 125.628 169.288 125.33 170.183 125.134C171.086 124.929 171.994 124.767 172.906 124.648C174.099 124.494 175.066 124.379 175.808 124.303C176.558 124.217 177.103 124.077 177.444 123.881C177.793 123.685 177.968 123.344 177.968 122.858V122.756C177.968 121.494 177.623 120.514 176.933 119.815C176.251 119.116 175.215 118.767 173.826 118.767C172.386 118.767 171.256 119.082 170.438 119.713C169.62 120.344 169.045 121.017 168.712 121.733L165.849 120.71C166.36 119.517 167.042 118.588 167.894 117.923C168.755 117.25 169.692 116.781 170.707 116.517C171.729 116.244 172.735 116.108 173.724 116.108C174.354 116.108 175.079 116.185 175.897 116.338C176.724 116.483 177.521 116.786 178.288 117.246C179.063 117.706 179.707 118.401 180.218 119.33C180.729 120.259 180.985 121.503 180.985 123.062V136H177.968V133.341H177.815C177.61 133.767 177.269 134.223 176.792 134.709C176.315 135.195 175.68 135.608 174.887 135.949C174.094 136.29 173.127 136.46 171.985 136.46ZM172.445 133.75C173.638 133.75 174.644 133.516 175.462 133.047C176.289 132.578 176.911 131.973 177.329 131.232C177.755 130.49 177.968 129.71 177.968 128.892V126.131C177.84 126.284 177.559 126.425 177.124 126.553C176.698 126.672 176.204 126.778 175.641 126.872C175.087 126.957 174.546 127.034 174.018 127.102C173.498 127.162 173.076 127.213 172.752 127.256C171.968 127.358 171.235 127.524 170.553 127.754C169.88 127.976 169.335 128.312 168.917 128.764C168.508 129.207 168.303 129.812 168.303 130.58C168.303 131.628 168.691 132.42 169.467 132.957C170.251 133.486 171.244 133.75 172.445 133.75ZM194.469 136.409C192.628 136.409 191.043 135.974 189.713 135.105C188.384 134.236 187.361 133.038 186.645 131.513C185.929 129.987 185.571 128.244 185.571 126.284C185.571 124.29 185.938 122.53 186.671 121.004C187.412 119.47 188.444 118.273 189.765 117.412C191.094 116.543 192.645 116.108 194.418 116.108C195.799 116.108 197.043 116.364 198.151 116.875C199.259 117.386 200.167 118.102 200.874 119.023C201.581 119.943 202.02 121.017 202.191 122.244H199.174C198.944 121.349 198.432 120.557 197.64 119.866C196.855 119.168 195.799 118.818 194.469 118.818C193.293 118.818 192.262 119.125 191.375 119.739C190.498 120.344 189.811 121.2 189.317 122.308C188.831 123.408 188.588 124.699 188.588 126.182C188.588 127.699 188.827 129.02 189.304 130.145C189.79 131.27 190.472 132.143 191.35 132.766C192.236 133.388 193.276 133.699 194.469 133.699C195.253 133.699 195.965 133.562 196.604 133.29C197.243 133.017 197.784 132.625 198.228 132.114C198.671 131.602 198.986 130.989 199.174 130.273H202.191C202.02 131.432 201.598 132.476 200.925 133.405C200.26 134.325 199.378 135.058 198.279 135.604C197.188 136.141 195.918 136.409 194.469 136.409ZM214.834 136.409C212.942 136.409 211.31 135.991 209.938 135.156C208.574 134.312 207.522 133.136 206.78 131.628C206.047 130.111 205.681 128.347 205.681 126.335C205.681 124.324 206.047 122.551 206.78 121.017C207.522 119.474 208.553 118.273 209.874 117.412C211.203 116.543 212.755 116.108 214.527 116.108C215.55 116.108 216.56 116.278 217.557 116.619C218.554 116.96 219.462 117.514 220.28 118.281C221.098 119.04 221.75 120.045 222.236 121.298C222.722 122.551 222.965 124.094 222.965 125.926V127.205H207.828V124.597H219.897C219.897 123.489 219.675 122.5 219.232 121.631C218.797 120.761 218.175 120.075 217.365 119.572C216.564 119.07 215.618 118.818 214.527 118.818C213.326 118.818 212.286 119.116 211.408 119.713C210.539 120.301 209.87 121.068 209.401 122.014C208.932 122.96 208.698 123.974 208.698 125.057V126.795C208.698 128.278 208.953 129.536 209.465 130.567C209.985 131.589 210.705 132.369 211.625 132.906C212.546 133.435 213.615 133.699 214.834 133.699C215.627 133.699 216.343 133.588 216.982 133.366C217.63 133.136 218.188 132.795 218.657 132.344C219.125 131.884 219.488 131.312 219.743 130.631L222.658 131.449C222.351 132.438 221.836 133.307 221.111 134.057C220.387 134.798 219.492 135.378 218.426 135.795C217.361 136.205 216.164 136.409 214.834 136.409ZM234.969 136.409C233.333 136.409 231.888 135.996 230.635 135.169C229.382 134.334 228.402 133.158 227.695 131.641C226.988 130.115 226.634 128.312 226.634 126.233C226.634 124.17 226.988 122.381 227.695 120.864C228.402 119.347 229.387 118.175 230.648 117.348C231.909 116.521 233.367 116.108 235.02 116.108C236.299 116.108 237.309 116.321 238.05 116.747C238.8 117.165 239.371 117.642 239.763 118.179C240.164 118.707 240.475 119.142 240.696 119.483H240.952V109.818H243.969V136H241.054V132.983H240.696C240.475 133.341 240.159 133.793 239.75 134.338C239.341 134.875 238.757 135.357 237.999 135.783C237.24 136.2 236.23 136.409 234.969 136.409ZM235.378 133.699C236.588 133.699 237.611 133.384 238.446 132.753C239.282 132.114 239.917 131.232 240.351 130.107C240.786 128.973 241.003 127.665 241.003 126.182C241.003 124.716 240.79 123.433 240.364 122.334C239.938 121.226 239.307 120.365 238.472 119.751C237.637 119.129 236.605 118.818 235.378 118.818C234.1 118.818 233.034 119.146 232.182 119.803C231.338 120.45 230.703 121.332 230.277 122.449C229.86 123.557 229.651 124.801 229.651 126.182C229.651 127.58 229.864 128.849 230.29 129.991C230.725 131.125 231.364 132.028 232.208 132.702C233.06 133.366 234.117 133.699 235.378 133.699Z" fill="black"/>
<path d="M527.642 680V658.182H540.81V660.526H530.284V667.898H540.128V670.241H530.284V677.656H540.98V680H527.642ZM547.106 663.636L551.026 670.327L554.947 663.636H557.844L552.56 671.818L557.844 680H554.947L551.026 673.651L547.106 680H544.208L549.407 671.818L544.208 663.636H547.106ZM561.432 686.136V663.636H563.861V666.236H564.159C564.344 665.952 564.6 665.589 564.926 665.149C565.26 664.702 565.736 664.304 566.354 663.956C566.979 663.601 567.824 663.423 568.889 663.423C570.267 663.423 571.482 663.768 572.533 664.457C573.584 665.146 574.404 666.122 574.994 667.386C575.583 668.651 575.878 670.142 575.878 671.861C575.878 673.594 575.583 675.096 574.994 676.367C574.404 677.631 573.588 678.612 572.544 679.308C571.499 679.996 570.296 680.341 568.932 680.341C567.881 680.341 567.039 680.167 566.407 679.819C565.775 679.464 565.289 679.062 564.948 678.615C564.607 678.161 564.344 677.784 564.159 677.486H563.946V686.136H561.432ZM563.904 671.818C563.904 673.054 564.085 674.144 564.447 675.089C564.809 676.026 565.338 676.761 566.034 677.294C566.73 677.82 567.583 678.082 568.591 678.082C569.642 678.082 570.519 677.805 571.222 677.251C571.933 676.69 572.465 675.937 572.82 674.993C573.183 674.041 573.364 672.983 573.364 671.818C573.364 670.668 573.186 669.631 572.831 668.707C572.483 667.777 571.954 667.042 571.244 666.502C570.541 665.955 569.656 665.682 568.591 665.682C567.568 665.682 566.709 665.941 566.013 666.46C565.317 666.971 564.791 667.688 564.436 668.612C564.081 669.528 563.904 670.597 563.904 671.818ZM586.574 680.341C584.997 680.341 583.637 679.993 582.494 679.297C581.357 678.594 580.48 677.614 579.862 676.357C579.252 675.092 578.946 673.622 578.946 671.946C578.946 670.27 579.252 668.793 579.862 667.514C580.48 666.229 581.34 665.227 582.441 664.51C583.548 663.786 584.841 663.423 586.318 663.423C587.171 663.423 588.012 663.565 588.843 663.849C589.674 664.134 590.431 664.595 591.112 665.234C591.794 665.866 592.338 666.705 592.742 667.749C593.147 668.793 593.35 670.078 593.35 671.605V672.67H580.736V670.497H590.793C590.793 669.574 590.608 668.75 590.239 668.026C589.877 667.301 589.358 666.729 588.683 666.31C588.016 665.891 587.227 665.682 586.318 665.682C585.317 665.682 584.45 665.93 583.719 666.428C582.994 666.918 582.437 667.557 582.046 668.345C581.656 669.134 581.46 669.979 581.46 670.881V672.33C581.46 673.565 581.673 674.613 582.1 675.472C582.533 676.325 583.133 676.974 583.9 677.422C584.667 677.862 585.558 678.082 586.574 678.082C587.235 678.082 587.831 677.99 588.364 677.805C588.904 677.614 589.369 677.33 589.759 676.953C590.15 676.57 590.452 676.094 590.665 675.526L593.094 676.207C592.838 677.031 592.409 677.756 591.805 678.381C591.201 678.999 590.455 679.482 589.568 679.83C588.68 680.17 587.682 680.341 586.574 680.341ZM603.822 680.341C602.288 680.341 600.967 679.979 599.859 679.254C598.751 678.53 597.899 677.532 597.302 676.261C596.705 674.989 596.407 673.537 596.407 671.903C596.407 670.241 596.713 668.775 597.323 667.504C597.941 666.225 598.801 665.227 599.901 664.51C601.009 663.786 602.302 663.423 603.779 663.423C604.93 663.423 605.967 663.636 606.89 664.062C607.813 664.489 608.57 665.085 609.159 665.852C609.749 666.619 610.115 667.514 610.257 668.537H607.742C607.551 667.791 607.124 667.131 606.464 666.555C605.811 665.973 604.93 665.682 603.822 665.682C602.842 665.682 601.982 665.937 601.244 666.449C600.512 666.953 599.941 667.667 599.529 668.59C599.124 669.506 598.921 670.582 598.921 671.818C598.921 673.082 599.12 674.183 599.518 675.121C599.923 676.058 600.491 676.786 601.222 677.305C601.961 677.823 602.828 678.082 603.822 678.082C604.475 678.082 605.068 677.969 605.601 677.741C606.134 677.514 606.585 677.188 606.954 676.761C607.323 676.335 607.586 675.824 607.742 675.227H610.257C610.115 676.193 609.763 677.063 609.202 677.837C608.648 678.604 607.913 679.215 606.997 679.67C606.088 680.117 605.029 680.341 603.822 680.341ZM621.048 663.636V665.767H612.568V663.636H621.048ZM615.04 659.716H617.554V675.312C617.554 676.023 617.657 676.555 617.863 676.911C618.076 677.259 618.346 677.493 618.673 677.614C619.007 677.727 619.358 677.784 619.727 677.784C620.004 677.784 620.232 677.77 620.409 677.741C620.587 677.706 620.729 677.678 620.835 677.656L621.347 679.915C621.176 679.979 620.938 680.043 620.633 680.107C620.328 680.178 619.941 680.213 619.472 680.213C618.762 680.213 618.066 680.06 617.384 679.755C616.709 679.45 616.148 678.984 615.7 678.359C615.26 677.734 615.04 676.946 615.04 675.994V659.716ZM631.515 680.341C629.939 680.341 628.579 679.993 627.435 679.297C626.299 678.594 625.422 677.614 624.804 676.357C624.193 675.092 623.888 673.622 623.888 671.946C623.888 670.27 624.193 668.793 624.804 667.514C625.422 666.229 626.281 665.227 627.382 664.51C628.49 663.786 629.782 663.423 631.26 663.423C632.112 663.423 632.954 663.565 633.785 663.849C634.616 664.134 635.372 664.595 636.054 665.234C636.736 665.866 637.279 666.705 637.684 667.749C638.089 668.793 638.291 670.078 638.291 671.605V672.67H625.677V670.497H635.734C635.734 669.574 635.55 668.75 635.18 668.026C634.818 667.301 634.3 666.729 633.625 666.31C632.957 665.891 632.169 665.682 631.26 665.682C630.258 665.682 629.392 665.93 628.66 666.428C627.936 666.918 627.378 667.557 626.988 668.345C626.597 669.134 626.402 669.979 626.402 670.881V672.33C626.402 673.565 626.615 674.613 627.041 675.472C627.474 676.325 628.074 676.974 628.841 677.422C629.608 677.862 630.5 678.082 631.515 678.082C632.176 678.082 632.773 677.99 633.305 677.805C633.845 677.614 634.31 677.33 634.701 676.953C635.091 676.57 635.393 676.094 635.606 675.526L638.035 676.207C637.78 677.031 637.35 677.756 636.746 678.381C636.143 678.999 635.397 679.482 634.509 679.83C633.621 680.17 632.623 680.341 631.515 680.341ZM648.295 680.341C646.931 680.341 645.727 679.996 644.683 679.308C643.639 678.612 642.822 677.631 642.233 676.367C641.643 675.096 641.349 673.594 641.349 671.861C641.349 670.142 641.643 668.651 642.233 667.386C642.822 666.122 643.643 665.146 644.694 664.457C645.745 663.768 646.959 663.423 648.337 663.423C649.403 663.423 650.244 663.601 650.862 663.956C651.487 664.304 651.963 664.702 652.29 665.149C652.623 665.589 652.883 665.952 653.067 666.236H653.28V658.182H655.795V680H653.366V677.486H653.067C652.883 677.784 652.62 678.161 652.279 678.615C651.938 679.062 651.452 679.464 650.819 679.819C650.187 680.167 649.346 680.341 648.295 680.341ZM648.635 678.082C649.644 678.082 650.496 677.82 651.192 677.294C651.888 676.761 652.417 676.026 652.78 675.089C653.142 674.144 653.323 673.054 653.323 671.818C653.323 670.597 653.145 669.528 652.79 668.612C652.435 667.688 651.91 666.971 651.214 666.46C650.518 665.941 649.658 665.682 648.635 665.682C647.57 665.682 646.682 665.955 645.972 666.502C645.269 667.042 644.74 667.777 644.385 668.707C644.037 669.631 643.863 670.668 643.863 671.818C643.863 672.983 644.04 674.041 644.395 674.993C644.758 675.937 645.29 676.69 645.993 677.251C646.704 677.805 647.584 678.082 648.635 678.082ZM670.422 680H667.652L675.663 658.182H678.39L686.402 680H683.632L677.112 661.634H676.942L670.422 680ZM671.444 671.477H682.609V673.821H671.444V671.477ZM689.459 680V663.636H691.888V666.108H692.059C692.357 665.298 692.897 664.641 693.678 664.137C694.459 663.633 695.34 663.381 696.32 663.381C696.505 663.381 696.736 663.384 697.013 663.391C697.29 663.398 697.499 663.409 697.641 663.423V665.98C697.556 665.959 697.361 665.927 697.055 665.884C696.757 665.835 696.441 665.81 696.107 665.81C695.312 665.81 694.601 665.977 693.976 666.31C693.358 666.637 692.868 667.092 692.506 667.674C692.151 668.249 691.974 668.906 691.974 669.645V680H689.459ZM700.621 680V663.636H703.05V666.108H703.221C703.519 665.298 704.059 664.641 704.84 664.137C705.621 663.633 706.502 663.381 707.482 663.381C707.667 663.381 707.898 663.384 708.175 663.391C708.452 663.398 708.661 663.409 708.803 663.423V665.98C708.718 665.959 708.523 665.927 708.217 665.884C707.919 665.835 707.603 665.81 707.269 665.81C706.474 665.81 705.763 665.977 705.138 666.31C704.521 666.637 704.031 667.092 703.668 667.674C703.313 668.249 703.136 668.906 703.136 669.645V680H700.621ZM711.784 680V663.636H714.298V680H711.784ZM713.062 660.909C712.572 660.909 712.149 660.742 711.794 660.408C711.446 660.075 711.272 659.673 711.272 659.205C711.272 658.736 711.446 658.335 711.794 658.001C712.149 657.667 712.572 657.5 713.062 657.5C713.552 657.5 713.971 657.667 714.319 658.001C714.674 658.335 714.852 658.736 714.852 659.205C714.852 659.673 714.674 660.075 714.319 660.408C713.971 660.742 713.552 660.909 713.062 660.909ZM732.283 663.636L726.232 680H723.675L717.624 663.636H720.352L724.869 676.676H725.039L729.556 663.636H732.283ZM739.919 680.384C738.882 680.384 737.941 680.188 737.096 679.798C736.251 679.4 735.58 678.828 735.083 678.082C734.585 677.33 734.337 676.42 734.337 675.355C734.337 674.418 734.521 673.658 734.891 673.075C735.26 672.486 735.754 672.024 736.372 671.69C736.99 671.357 737.671 671.108 738.417 670.945C739.17 670.774 739.926 670.639 740.686 670.54C741.681 670.412 742.487 670.316 743.105 670.252C743.73 670.181 744.184 670.064 744.468 669.901C744.759 669.737 744.905 669.453 744.905 669.048V668.963C744.905 667.912 744.617 667.095 744.042 666.513C743.474 665.93 742.611 665.639 741.453 665.639C740.253 665.639 739.312 665.902 738.63 666.428C737.948 666.953 737.469 667.514 737.192 668.111L734.806 667.259C735.232 666.264 735.8 665.49 736.51 664.936C737.227 664.375 738.009 663.984 738.854 663.764C739.706 663.537 740.544 663.423 741.368 663.423C741.894 663.423 742.497 663.487 743.179 663.615C743.868 663.736 744.532 663.988 745.171 664.371C745.818 664.755 746.354 665.334 746.78 666.108C747.206 666.882 747.419 667.919 747.419 669.219V680H744.905V677.784H744.777C744.607 678.139 744.323 678.519 743.925 678.924C743.527 679.329 742.998 679.673 742.338 679.957C741.677 680.241 740.871 680.384 739.919 680.384ZM740.303 678.125C741.297 678.125 742.135 677.93 742.817 677.539C743.506 677.148 744.024 676.644 744.372 676.026C744.727 675.408 744.905 674.759 744.905 674.077V671.776C744.798 671.903 744.564 672.021 744.202 672.127C743.847 672.227 743.435 672.315 742.966 672.393C742.504 672.464 742.053 672.528 741.613 672.585C741.18 672.635 740.828 672.678 740.558 672.713C739.905 672.798 739.294 672.937 738.726 673.129C738.165 673.313 737.71 673.594 737.362 673.97C737.021 674.339 736.851 674.844 736.851 675.483C736.851 676.357 737.174 677.017 737.82 677.464C738.474 677.905 739.301 678.125 740.303 678.125ZM754.522 658.182V680H752.008V658.182H754.522ZM774.639 680H767.906V658.182H774.937C777.053 658.182 778.865 658.619 780.37 659.492C781.876 660.359 783.03 661.605 783.833 663.232C784.635 664.851 785.036 666.79 785.036 669.048C785.036 671.321 784.632 673.278 783.822 674.918C783.012 676.552 781.833 677.809 780.285 678.69C778.737 679.563 776.855 680 774.639 680ZM770.548 677.656H774.468C776.272 677.656 777.767 677.308 778.953 676.612C780.139 675.916 781.024 674.925 781.606 673.64C782.188 672.354 782.48 670.824 782.48 669.048C782.48 667.287 782.192 665.771 781.617 664.499C781.041 663.221 780.182 662.241 779.039 661.559C777.895 660.87 776.471 660.526 774.767 660.526H770.548V677.656ZM793.943 680.384C792.906 680.384 791.965 680.188 791.119 679.798C790.274 679.4 789.603 678.828 789.106 678.082C788.609 677.33 788.36 676.42 788.36 675.355C788.36 674.418 788.545 673.658 788.914 673.075C789.284 672.486 789.777 672.024 790.395 671.69C791.013 671.357 791.695 671.108 792.441 670.945C793.193 670.774 793.95 670.639 794.71 670.54C795.704 670.412 796.51 670.316 797.128 670.252C797.753 670.181 798.208 670.064 798.492 669.901C798.783 669.737 798.928 669.453 798.928 669.048V668.963C798.928 667.912 798.641 667.095 798.066 666.513C797.497 665.93 796.634 665.639 795.477 665.639C794.276 665.639 793.335 665.902 792.654 666.428C791.972 666.953 791.492 667.514 791.215 668.111L788.829 667.259C789.255 666.264 789.823 665.49 790.534 664.936C791.251 664.375 792.032 663.984 792.877 663.764C793.73 663.537 794.568 663.423 795.392 663.423C795.917 663.423 796.521 663.487 797.203 663.615C797.892 663.736 798.556 663.988 799.195 664.371C799.841 664.755 800.377 665.334 800.803 666.108C801.23 666.882 801.443 667.919 801.443 669.219V680H798.928V677.784H798.801C798.63 678.139 798.346 678.519 797.948 678.924C797.551 679.329 797.021 679.673 796.361 679.957C795.7 680.241 794.894 680.384 793.943 680.384ZM794.326 678.125C795.32 678.125 796.159 677.93 796.84 677.539C797.529 677.148 798.048 676.644 798.396 676.026C798.751 675.408 798.928 674.759 798.928 674.077V671.776C798.822 671.903 798.588 672.021 798.225 672.127C797.87 672.227 797.458 672.315 796.99 672.393C796.528 672.464 796.077 672.528 795.637 672.585C795.203 672.635 794.852 672.678 794.582 672.713C793.928 672.798 793.318 672.937 792.749 673.129C792.188 673.313 791.734 673.594 791.386 673.97C791.045 674.339 790.874 674.844 790.874 675.483C790.874 676.357 791.198 677.017 791.844 677.464C792.497 677.905 793.325 678.125 794.326 678.125ZM813.148 663.636V665.767H804.668V663.636H813.148ZM807.14 659.716H809.654V675.312C809.654 676.023 809.757 676.555 809.963 676.911C810.176 677.259 810.446 677.493 810.772 677.614C811.106 677.727 811.458 677.784 811.827 677.784C812.104 677.784 812.331 677.77 812.509 677.741C812.686 677.706 812.828 677.678 812.935 677.656L813.446 679.915C813.276 679.979 813.038 680.043 812.733 680.107C812.427 680.178 812.04 680.213 811.571 680.213C810.861 680.213 810.165 680.06 809.483 679.755C808.809 679.45 808.248 678.984 807.8 678.359C807.36 677.734 807.14 676.946 807.14 675.994V659.716ZM823.615 680.341C822.038 680.341 820.678 679.993 819.535 679.297C818.398 678.594 817.521 677.614 816.903 676.357C816.293 675.092 815.987 673.622 815.987 671.946C815.987 670.27 816.293 668.793 816.903 667.514C817.521 666.229 818.381 665.227 819.482 664.51C820.589 663.786 821.882 663.423 823.359 663.423C824.212 663.423 825.053 663.565 825.884 663.849C826.715 664.134 827.472 664.595 828.153 665.234C828.835 665.866 829.379 666.705 829.783 667.749C830.188 668.793 830.391 670.078 830.391 671.605V672.67H817.777V670.497H827.834C827.834 669.574 827.649 668.75 827.28 668.026C826.918 667.301 826.399 666.729 825.724 666.31C825.057 665.891 824.268 665.682 823.359 665.682C822.358 665.682 821.491 665.93 820.76 666.428C820.036 666.918 819.478 667.557 819.087 668.345C818.697 669.134 818.501 669.979 818.501 670.881V672.33C818.501 673.565 818.714 674.613 819.141 675.472C819.574 676.325 820.174 676.974 820.941 677.422C821.708 677.862 822.599 678.082 823.615 678.082C824.276 678.082 824.872 677.99 825.405 677.805C825.945 677.614 826.41 677.33 826.8 676.953C827.191 676.57 827.493 676.094 827.706 675.526L830.135 676.207C829.879 677.031 829.45 677.756 828.846 678.381C828.242 678.999 827.496 679.482 826.609 679.83C825.721 680.17 824.723 680.341 823.615 680.341Z" fill="black"/>
<rect width="70" height="70" transform="translate(1335 101)" fill="#A5A5A5"/>
<path d="M1363.12 134H1361.53C1361.44 133.544 1361.28 133.143 1361.04 132.798C1360.81 132.453 1360.53 132.163 1360.2 131.929C1359.87 131.69 1359.51 131.511 1359.11 131.392C1358.7 131.273 1358.29 131.213 1357.85 131.213C1357.06 131.213 1356.34 131.413 1355.7 131.814C1355.06 132.214 1354.55 132.805 1354.17 133.585C1353.8 134.364 1353.61 135.321 1353.61 136.455C1353.61 137.588 1353.8 138.545 1354.17 139.325C1354.55 140.104 1355.06 140.695 1355.7 141.095C1356.34 141.496 1357.06 141.696 1357.85 141.696C1358.29 141.696 1358.7 141.636 1359.11 141.517C1359.51 141.398 1359.87 141.221 1360.2 140.987C1360.53 140.748 1360.81 140.456 1361.04 140.111C1361.28 139.761 1361.44 139.361 1361.53 138.909H1363.12C1363 139.578 1362.78 140.177 1362.47 140.705C1362.15 141.234 1361.76 141.683 1361.29 142.054C1360.82 142.42 1360.3 142.7 1359.71 142.891C1359.13 143.083 1358.51 143.179 1357.85 143.179C1356.74 143.179 1355.74 142.906 1354.87 142.361C1354 141.815 1353.32 141.04 1352.82 140.034C1352.32 139.028 1352.07 137.835 1352.07 136.455C1352.07 135.074 1352.32 133.881 1352.82 132.875C1353.32 131.869 1354 131.094 1354.87 130.548C1355.74 130.003 1356.74 129.73 1357.85 129.73C1358.51 129.73 1359.13 129.826 1359.71 130.018C1360.3 130.21 1360.82 130.491 1361.29 130.862C1361.76 131.228 1362.15 131.675 1362.47 132.204C1362.78 132.728 1363 133.327 1363.12 134ZM1368.37 143.23C1367.74 143.23 1367.18 143.113 1366.67 142.879C1366.16 142.64 1365.76 142.297 1365.46 141.849C1365.17 141.398 1365.02 140.852 1365.02 140.213C1365.02 139.651 1365.13 139.195 1365.35 138.845C1365.57 138.491 1365.87 138.214 1366.24 138.014C1366.61 137.814 1367.02 137.665 1367.46 137.567C1367.92 137.464 1368.37 137.384 1368.83 137.324C1369.42 137.247 1369.91 137.19 1370.28 137.151C1370.65 137.109 1370.92 137.038 1371.09 136.94C1371.27 136.842 1371.36 136.672 1371.36 136.429V136.378C1371.36 135.747 1371.18 135.257 1370.84 134.908C1370.5 134.558 1369.98 134.384 1369.29 134.384C1368.57 134.384 1368 134.541 1367.59 134.857C1367.18 135.172 1366.9 135.509 1366.73 135.866L1365.3 135.355C1365.55 134.759 1365.89 134.294 1366.32 133.962C1366.75 133.625 1367.22 133.391 1367.73 133.259C1368.24 133.122 1368.74 133.054 1369.23 133.054C1369.55 133.054 1369.91 133.092 1370.32 133.169C1370.73 133.241 1371.13 133.393 1371.52 133.623C1371.9 133.853 1372.23 134.2 1372.48 134.665C1372.74 135.129 1372.87 135.751 1372.87 136.531V143H1371.36V141.67H1371.28C1371.18 141.884 1371.01 142.112 1370.77 142.354C1370.53 142.597 1370.21 142.804 1369.82 142.974C1369.42 143.145 1368.94 143.23 1368.37 143.23ZM1368.6 141.875C1369.19 141.875 1369.7 141.758 1370.1 141.523C1370.52 141.289 1370.83 140.987 1371.04 140.616C1371.25 140.245 1371.36 139.855 1371.36 139.446V138.065C1371.29 138.142 1371.15 138.212 1370.94 138.276C1370.72 138.336 1370.47 138.389 1370.19 138.436C1369.92 138.479 1369.65 138.517 1369.38 138.551C1369.12 138.581 1368.91 138.607 1368.75 138.628C1368.36 138.679 1367.99 138.762 1367.65 138.877C1367.31 138.988 1367.04 139.156 1366.83 139.382C1366.63 139.604 1366.52 139.906 1366.52 140.29C1366.52 140.814 1366.72 141.21 1367.11 141.479C1367.5 141.743 1367.99 141.875 1368.6 141.875ZM1375.62 143V133.182H1377.08V134.665H1377.18C1377.36 134.179 1377.68 133.785 1378.15 133.482C1378.62 133.18 1379.15 133.028 1379.74 133.028C1379.85 133.028 1379.98 133.031 1380.15 133.035C1380.32 133.039 1380.44 133.045 1380.53 133.054V134.588C1380.48 134.575 1380.36 134.556 1380.18 134.531C1380 134.501 1379.81 134.486 1379.61 134.486C1379.13 134.486 1378.7 134.586 1378.33 134.786C1377.96 134.982 1377.66 135.255 1377.45 135.604C1377.23 135.95 1377.13 136.344 1377.13 136.787V143H1375.62ZM1387.2 133.182V134.46H1382.11V133.182H1387.2ZM1383.6 130.83H1385.1V140.188C1385.1 140.614 1385.17 140.933 1385.29 141.146C1385.42 141.355 1385.58 141.496 1385.78 141.568C1385.98 141.636 1386.19 141.67 1386.41 141.67C1386.57 141.67 1386.71 141.662 1386.82 141.645C1386.92 141.624 1387.01 141.607 1387.07 141.594L1387.38 142.949C1387.28 142.987 1387.14 143.026 1386.95 143.064C1386.77 143.107 1386.54 143.128 1386.26 143.128C1385.83 143.128 1385.41 143.036 1385 142.853C1384.6 142.67 1384.26 142.391 1383.99 142.016C1383.73 141.641 1383.6 141.168 1383.6 140.597V130.83Z" fill="black"/>
<line x1="25.5369" y1="227.357" x2="47.5369" y2="241.357" stroke="black" stroke-width="2"/>
<line x1="45.7563" y1="211.772" x2="25.637" y2="228.361" stroke="black" stroke-width="2"/>
<rect width="400" height="400" transform="translate(25 287)" fill="#A5A5A5"/>
<path d="M530.989 364.273V389H527.994V364.273H530.989ZM544.671 370.455V372.869H535.061V370.455H544.671ZM537.862 366.011H540.711V383.688C540.711 384.492 540.828 385.096 541.061 385.499C541.303 385.893 541.609 386.159 541.979 386.295C542.357 386.424 542.756 386.489 543.174 386.489C543.488 386.489 543.746 386.473 543.947 386.44C544.148 386.4 544.309 386.368 544.43 386.344L545.009 388.903C544.816 388.976 544.547 389.048 544.2 389.121C543.854 389.201 543.416 389.241 542.884 389.241C542.079 389.241 541.291 389.068 540.518 388.722C539.753 388.376 539.117 387.849 538.61 387.141C538.111 386.432 537.862 385.539 537.862 384.46V366.011ZM556.534 389.386C554.747 389.386 553.206 388.992 551.91 388.203C550.622 387.406 549.628 386.295 548.927 384.871C548.235 383.438 547.889 381.772 547.889 379.872C547.889 377.973 548.235 376.298 548.927 374.849C549.628 373.393 550.602 372.258 551.849 371.445C553.105 370.624 554.57 370.213 556.244 370.213C557.21 370.213 558.164 370.374 559.106 370.696C560.047 371.018 560.905 371.541 561.677 372.266C562.45 372.982 563.066 373.932 563.525 375.115C563.983 376.298 564.213 377.755 564.213 379.486V380.693H549.917V378.23H561.315C561.315 377.184 561.106 376.25 560.687 375.429C560.277 374.608 559.689 373.96 558.925 373.485C558.168 373.01 557.274 372.773 556.244 372.773C555.109 372.773 554.127 373.054 553.298 373.618C552.477 374.173 551.845 374.898 551.403 375.791C550.96 376.685 550.738 377.643 550.738 378.665V380.307C550.738 381.707 550.98 382.895 551.463 383.869C551.954 384.835 552.634 385.571 553.503 386.078C554.373 386.577 555.383 386.827 556.534 386.827C557.282 386.827 557.959 386.722 558.562 386.513C559.174 386.295 559.701 385.973 560.144 385.547C560.587 385.112 560.929 384.573 561.17 383.929L563.923 384.702C563.633 385.635 563.146 386.456 562.462 387.165C561.778 387.865 560.933 388.412 559.927 388.807C558.921 389.193 557.79 389.386 556.534 389.386ZM568.547 389V370.455H571.3V373.352H571.542C571.928 372.362 572.552 371.594 573.413 371.046C574.274 370.491 575.309 370.213 576.516 370.213C577.74 370.213 578.758 370.491 579.571 371.046C580.392 371.594 581.032 372.362 581.491 373.352H581.684C582.159 372.394 582.871 371.634 583.821 371.07C584.771 370.499 585.91 370.213 587.238 370.213C588.896 370.213 590.252 370.732 591.307 371.771C592.361 372.801 592.888 374.407 592.888 376.588V389H590.039V376.588C590.039 375.22 589.665 374.242 588.916 373.654C588.167 373.067 587.286 372.773 586.272 372.773C584.968 372.773 583.958 373.167 583.241 373.956C582.525 374.737 582.167 375.727 582.167 376.926V389H579.269V376.298C579.269 375.244 578.927 374.395 578.243 373.751C577.559 373.099 576.677 372.773 575.599 372.773C574.858 372.773 574.166 372.97 573.522 373.364C572.886 373.759 572.371 374.306 571.976 375.006C571.59 375.699 571.397 376.5 571.397 377.409V389H568.547ZM608.047 389V364.273H616.402C618.342 364.273 619.928 364.623 621.159 365.323C622.399 366.015 623.316 366.953 623.912 368.136C624.508 369.32 624.806 370.64 624.806 372.097C624.806 373.554 624.508 374.878 623.912 376.069C623.325 377.26 622.415 378.21 621.183 378.918C619.952 379.619 618.374 379.969 616.45 379.969H610.462V377.312H616.354C617.682 377.312 618.749 377.083 619.553 376.624C620.358 376.165 620.942 375.546 621.304 374.765C621.674 373.976 621.86 373.087 621.86 372.097C621.86 371.107 621.674 370.221 621.304 369.44C620.942 368.66 620.354 368.048 619.541 367.605C618.728 367.154 617.65 366.929 616.306 366.929H611.041V389H608.047ZM629.243 389V370.455H631.996V373.256H632.189C632.527 372.338 633.139 371.594 634.024 371.022C634.909 370.451 635.907 370.165 637.018 370.165C637.228 370.165 637.489 370.169 637.803 370.177C638.117 370.185 638.354 370.197 638.515 370.213V373.111C638.419 373.087 638.198 373.05 637.851 373.002C637.513 372.946 637.155 372.918 636.777 372.918C635.875 372.918 635.07 373.107 634.362 373.485C633.662 373.855 633.106 374.371 632.696 375.031C632.293 375.683 632.092 376.427 632.092 377.264V389H629.243ZM641.893 389V370.455H644.743V389H641.893ZM643.342 367.364C642.787 367.364 642.308 367.174 641.905 366.796C641.511 366.418 641.314 365.963 641.314 365.432C641.314 364.901 641.511 364.446 641.905 364.067C642.308 363.689 642.787 363.5 643.342 363.5C643.897 363.5 644.372 363.689 644.767 364.067C645.169 364.446 645.37 364.901 645.37 365.432C645.37 365.963 645.169 366.418 644.767 366.796C644.372 367.174 643.897 367.364 643.342 367.364ZM657.496 389.386C655.757 389.386 654.26 388.976 653.004 388.155C651.748 387.334 650.782 386.203 650.106 384.762C649.43 383.321 649.092 381.675 649.092 379.824C649.092 377.94 649.438 376.278 650.131 374.837C650.831 373.388 651.805 372.258 653.052 371.445C654.308 370.624 655.773 370.213 657.447 370.213C658.751 370.213 659.926 370.455 660.973 370.938C662.019 371.42 662.876 372.097 663.545 372.966C664.213 373.835 664.627 374.849 664.788 376.009H661.939C661.721 375.163 661.238 374.415 660.49 373.763C659.749 373.103 658.751 372.773 657.496 372.773C656.385 372.773 655.411 373.062 654.574 373.642C653.745 374.214 653.097 375.022 652.63 376.069C652.171 377.107 651.942 378.327 651.942 379.727C651.942 381.16 652.167 382.408 652.618 383.47C653.077 384.533 653.72 385.358 654.55 385.945C655.387 386.533 656.369 386.827 657.496 386.827C658.236 386.827 658.908 386.698 659.512 386.44C660.116 386.183 660.627 385.812 661.045 385.33C661.464 384.847 661.762 384.267 661.939 383.591H664.788C664.627 384.686 664.229 385.672 663.593 386.549C662.965 387.418 662.132 388.111 661.094 388.626C660.063 389.133 658.864 389.386 657.496 389.386ZM676.729 389.386C674.942 389.386 673.401 388.992 672.105 388.203C670.817 387.406 669.823 386.295 669.123 384.871C668.43 383.438 668.084 381.772 668.084 379.872C668.084 377.973 668.43 376.298 669.123 374.849C669.823 373.393 670.797 372.258 672.045 371.445C673.3 370.624 674.765 370.213 676.439 370.213C677.405 370.213 678.359 370.374 679.301 370.696C680.243 371.018 681.1 371.541 681.873 372.266C682.645 372.982 683.261 373.932 683.72 375.115C684.179 376.298 684.408 377.755 684.408 379.486V380.693H670.113V378.23H681.51C681.51 377.184 681.301 376.25 680.883 375.429C680.472 374.608 679.885 373.96 679.12 373.485C678.363 373.01 677.47 372.773 676.439 372.773C675.305 372.773 674.323 373.054 673.493 373.618C672.672 374.173 672.041 374.898 671.598 375.791C671.155 376.685 670.934 377.643 670.934 378.665V380.307C670.934 381.707 671.175 382.895 671.658 383.869C672.149 384.835 672.829 385.571 673.699 386.078C674.568 386.577 675.578 386.827 676.729 386.827C677.478 386.827 678.154 386.722 678.758 386.513C679.369 386.295 679.897 385.973 680.339 385.547C680.782 385.112 681.124 384.573 681.366 383.929L684.118 384.702C683.829 385.635 683.342 386.456 682.657 387.165C681.973 387.865 681.128 388.412 680.122 388.807C679.116 389.193 677.985 389.386 676.729 389.386ZM705.55 392.091V361.182H707.53V392.091H705.55ZM712.214 370.455C712.069 369.231 711.482 368.281 710.452 367.605C709.421 366.929 708.157 366.591 706.66 366.591C705.566 366.591 704.608 366.768 703.787 367.122C702.974 367.476 702.338 367.963 701.879 368.583C701.428 369.203 701.203 369.907 701.203 370.696C701.203 371.356 701.36 371.924 701.674 372.398C701.996 372.865 702.406 373.256 702.905 373.57C703.404 373.875 703.928 374.129 704.475 374.33C705.022 374.523 705.525 374.68 705.984 374.801L708.496 375.477C709.14 375.646 709.856 375.88 710.645 376.178C711.442 376.475 712.202 376.882 712.927 377.397C713.659 377.904 714.263 378.556 714.738 379.353C715.213 380.15 715.45 381.128 715.45 382.287C715.45 383.623 715.1 384.83 714.4 385.909C713.707 386.988 712.693 387.845 711.357 388.481C710.029 389.117 708.415 389.435 706.515 389.435C704.745 389.435 703.211 389.149 701.915 388.577C700.627 388.006 699.613 387.209 698.873 386.187C698.14 385.165 697.726 383.977 697.629 382.625H700.72C700.8 383.559 701.114 384.331 701.662 384.943C702.217 385.547 702.917 385.998 703.763 386.295C704.616 386.585 705.533 386.73 706.515 386.73C707.658 386.73 708.685 386.545 709.594 386.175C710.504 385.796 711.224 385.273 711.756 384.605C712.287 383.929 712.552 383.14 712.552 382.239C712.552 381.418 712.323 380.75 711.864 380.234C711.405 379.719 710.802 379.301 710.053 378.979C709.305 378.657 708.496 378.375 707.626 378.134L704.584 377.264C702.652 376.709 701.122 375.916 699.996 374.886C698.869 373.855 698.305 372.507 698.305 370.841C698.305 369.456 698.68 368.249 699.428 367.219C700.185 366.18 701.199 365.375 702.471 364.804C703.751 364.224 705.179 363.935 706.757 363.935C708.351 363.935 709.767 364.22 711.007 364.792C712.247 365.355 713.229 366.128 713.953 367.11C714.685 368.092 715.072 369.207 715.112 370.455H712.214ZM727.231 392.091V361.182H729.211V392.091H727.231ZM733.896 370.455C733.751 369.231 733.163 368.281 732.133 367.605C731.103 366.929 729.839 366.591 728.342 366.591C727.247 366.591 726.289 366.768 725.468 367.122C724.655 367.476 724.02 367.963 723.561 368.583C723.11 369.203 722.885 369.907 722.885 370.696C722.885 371.356 723.042 371.924 723.355 372.398C723.677 372.865 724.088 373.256 724.587 373.57C725.086 373.875 725.609 374.129 726.157 374.33C726.704 374.523 727.207 374.68 727.666 374.801L730.177 375.477C730.821 375.646 731.538 375.88 732.326 376.178C733.123 376.475 733.884 376.882 734.608 377.397C735.341 377.904 735.944 378.556 736.419 379.353C736.894 380.15 737.132 381.128 737.132 382.287C737.132 383.623 736.782 384.83 736.081 385.909C735.389 386.988 734.375 387.845 733.039 388.481C731.711 389.117 730.097 389.435 728.197 389.435C726.426 389.435 724.893 389.149 723.597 388.577C722.309 388.006 721.295 387.209 720.554 386.187C719.822 385.165 719.407 383.977 719.311 382.625H722.402C722.482 383.559 722.796 384.331 723.343 384.943C723.899 385.547 724.599 385.998 725.444 386.295C726.297 386.585 727.215 386.73 728.197 386.73C729.34 386.73 730.366 386.545 731.276 386.175C732.185 385.796 732.906 385.273 733.437 384.605C733.968 383.929 734.234 383.14 734.234 382.239C734.234 381.418 734.005 380.75 733.546 380.234C733.087 379.719 732.483 379.301 731.735 378.979C730.986 378.657 730.177 378.375 729.308 378.134L726.265 377.264C724.333 376.709 722.804 375.916 721.677 374.886C720.55 373.855 719.987 372.507 719.987 370.841C719.987 369.456 720.361 368.249 721.11 367.219C721.866 366.18 722.881 365.375 724.152 364.804C725.432 364.224 726.861 363.935 728.439 363.935C730.032 363.935 731.449 364.22 732.689 364.792C733.928 365.355 734.91 366.128 735.635 367.11C736.367 368.092 736.753 369.207 736.794 370.455H733.896ZM748.913 392.091V361.182H750.893V392.091H748.913ZM755.578 370.455C755.433 369.231 754.845 368.281 753.815 367.605C752.785 366.929 751.521 366.591 750.024 366.591C748.929 366.591 747.971 366.768 747.15 367.122C746.337 367.476 745.701 367.963 745.242 368.583C744.792 369.203 744.566 369.907 744.566 370.696C744.566 371.356 744.723 371.924 745.037 372.398C745.359 372.865 745.77 373.256 746.269 373.57C746.768 373.875 747.291 374.129 747.838 374.33C748.386 374.523 748.889 374.68 749.347 374.801L751.859 375.477C752.503 375.646 753.219 375.88 754.008 376.178C754.805 376.475 755.566 376.882 756.29 377.397C757.022 377.904 757.626 378.556 758.101 379.353C758.576 380.15 758.813 381.128 758.813 382.287C758.813 383.623 758.463 384.83 757.763 385.909C757.071 386.988 756.057 387.845 754.72 388.481C753.392 389.117 751.778 389.435 749.879 389.435C748.108 389.435 746.575 389.149 745.279 388.577C743.991 388.006 742.977 387.209 742.236 386.187C741.503 385.165 741.089 383.977 740.992 382.625H744.083C744.164 383.559 744.478 384.331 745.025 384.943C745.58 385.547 746.281 385.998 747.126 386.295C747.979 386.585 748.897 386.73 749.879 386.73C751.022 386.73 752.048 386.545 752.958 386.175C753.867 385.796 754.588 385.273 755.119 384.605C755.65 383.929 755.916 383.14 755.916 382.239C755.916 381.418 755.686 380.75 755.227 380.234C754.769 379.719 754.165 379.301 753.416 378.979C752.668 378.657 751.859 378.375 750.99 378.134L747.947 377.264C746.015 376.709 744.486 375.916 743.359 374.886C742.232 373.855 741.669 372.507 741.669 370.841C741.669 369.456 742.043 368.249 742.791 367.219C743.548 366.18 744.562 365.375 745.834 364.804C747.114 364.224 748.543 363.935 750.12 363.935C751.714 363.935 753.131 364.22 754.37 364.792C755.61 365.355 756.592 366.128 757.316 367.11C758.049 368.092 758.435 369.207 758.475 370.455H755.578Z" fill="black"/>
<path d="M531.341 295.818V322H528.17V295.818H531.341ZM545.828 302.364V304.92H535.652V302.364H545.828ZM538.618 297.659H541.635V316.375C541.635 317.227 541.759 317.866 542.006 318.293C542.262 318.71 542.586 318.991 542.978 319.136C543.378 319.273 543.8 319.341 544.243 319.341C544.576 319.341 544.848 319.324 545.061 319.29C545.275 319.247 545.445 319.213 545.573 319.188L546.186 321.898C545.982 321.974 545.696 322.051 545.33 322.128C544.963 322.213 544.499 322.256 543.936 322.256C543.084 322.256 542.249 322.072 541.431 321.706C540.621 321.339 539.948 320.781 539.411 320.031C538.882 319.281 538.618 318.335 538.618 317.193V297.659ZM558.389 322.409C556.497 322.409 554.865 321.991 553.493 321.156C552.129 320.312 551.076 319.136 550.335 317.628C549.602 316.111 549.235 314.347 549.235 312.335C549.235 310.324 549.602 308.551 550.335 307.017C551.076 305.474 552.108 304.273 553.429 303.412C554.758 302.543 556.309 302.108 558.082 302.108C559.105 302.108 560.115 302.278 561.112 302.619C562.109 302.96 563.017 303.514 563.835 304.281C564.653 305.04 565.305 306.045 565.791 307.298C566.277 308.551 566.52 310.094 566.52 311.926V313.205H551.383V310.597H563.451C563.451 309.489 563.23 308.5 562.787 307.631C562.352 306.761 561.73 306.075 560.92 305.572C560.119 305.07 559.173 304.818 558.082 304.818C556.88 304.818 555.841 305.116 554.963 305.713C554.093 306.301 553.424 307.068 552.956 308.014C552.487 308.96 552.252 309.974 552.252 311.057V312.795C552.252 314.278 552.508 315.536 553.02 316.567C553.539 317.589 554.26 318.369 555.18 318.906C556.1 319.435 557.17 319.699 558.389 319.699C559.181 319.699 559.897 319.588 560.537 319.366C561.184 319.136 561.743 318.795 562.211 318.344C562.68 317.884 563.042 317.312 563.298 316.631L566.213 317.449C565.906 318.438 565.39 319.307 564.666 320.057C563.941 320.798 563.047 321.378 561.981 321.795C560.916 322.205 559.718 322.409 558.389 322.409ZM571.109 322V302.364H574.024V305.432H574.279C574.689 304.384 575.349 303.57 576.261 302.99C577.173 302.402 578.268 302.108 579.547 302.108C580.842 302.108 581.92 302.402 582.781 302.99C583.65 303.57 584.328 304.384 584.814 305.432H585.018C585.521 304.418 586.275 303.612 587.281 303.016C588.287 302.411 589.493 302.108 590.899 302.108C592.654 302.108 594.091 302.658 595.207 303.757C596.324 304.848 596.882 306.548 596.882 308.858V322H593.865V308.858C593.865 307.409 593.468 306.374 592.676 305.751C591.883 305.129 590.95 304.818 589.876 304.818C588.495 304.818 587.426 305.236 586.667 306.071C585.909 306.898 585.529 307.946 585.529 309.216V322H582.461V308.551C582.461 307.435 582.099 306.536 581.375 305.854C580.65 305.163 579.717 304.818 578.575 304.818C577.791 304.818 577.058 305.027 576.376 305.445C575.703 305.862 575.157 306.442 574.74 307.183C574.331 307.916 574.126 308.764 574.126 309.727V322H571.109ZM633.694 295.818V322H630.625L616.358 301.443H616.103V322H612.932V295.818H616L630.319 316.426H630.574V295.818H633.694ZM645.407 322.46C644.163 322.46 643.033 322.226 642.019 321.757C641.005 321.28 640.2 320.594 639.603 319.699C639.006 318.795 638.708 317.705 638.708 316.426C638.708 315.301 638.93 314.389 639.373 313.69C639.816 312.983 640.408 312.429 641.15 312.028C641.891 311.628 642.71 311.33 643.604 311.134C644.508 310.929 645.415 310.767 646.327 310.648C647.521 310.494 648.488 310.379 649.229 310.303C649.979 310.217 650.525 310.077 650.866 309.881C651.215 309.685 651.39 309.344 651.39 308.858V308.756C651.39 307.494 651.045 306.514 650.354 305.815C649.673 305.116 648.637 304.767 647.248 304.767C645.808 304.767 644.678 305.082 643.86 305.713C643.042 306.344 642.467 307.017 642.134 307.733L639.271 306.71C639.782 305.517 640.464 304.588 641.316 303.923C642.177 303.25 643.114 302.781 644.129 302.517C645.151 302.244 646.157 302.108 647.146 302.108C647.776 302.108 648.501 302.185 649.319 302.338C650.146 302.483 650.942 302.786 651.71 303.246C652.485 303.706 653.129 304.401 653.64 305.33C654.151 306.259 654.407 307.503 654.407 309.062V322H651.39V319.341H651.237C651.032 319.767 650.691 320.223 650.214 320.709C649.737 321.195 649.102 321.608 648.309 321.949C647.516 322.29 646.549 322.46 645.407 322.46ZM645.867 319.75C647.06 319.75 648.066 319.516 648.884 319.047C649.711 318.578 650.333 317.973 650.751 317.232C651.177 316.49 651.39 315.71 651.39 314.892V312.131C651.262 312.284 650.981 312.425 650.546 312.553C650.12 312.672 649.626 312.778 649.063 312.872C648.509 312.957 647.968 313.034 647.44 313.102C646.92 313.162 646.498 313.213 646.174 313.256C645.39 313.358 644.657 313.524 643.975 313.754C643.302 313.976 642.756 314.312 642.339 314.764C641.93 315.207 641.725 315.812 641.725 316.58C641.725 317.628 642.113 318.42 642.888 318.957C643.673 319.486 644.665 319.75 645.867 319.75ZM659.914 322V302.364H662.828V305.432H663.084C663.493 304.384 664.154 303.57 665.066 302.99C665.978 302.402 667.073 302.108 668.351 302.108C669.647 302.108 670.725 302.402 671.586 302.99C672.455 303.57 673.132 304.384 673.618 305.432H673.823C674.326 304.418 675.08 303.612 676.086 303.016C677.091 302.411 678.297 302.108 679.703 302.108C681.459 302.108 682.895 302.658 684.012 303.757C685.128 304.848 685.686 306.548 685.686 308.858V322H682.669V308.858C682.669 307.409 682.273 306.374 681.48 305.751C680.688 305.129 679.755 304.818 678.681 304.818C677.3 304.818 676.23 305.236 675.472 306.071C674.713 306.898 674.334 307.946 674.334 309.216V322H671.266V308.551C671.266 307.435 670.904 306.536 670.179 305.854C669.455 305.163 668.522 304.818 667.38 304.818C666.596 304.818 665.863 305.027 665.181 305.445C664.507 305.862 663.962 306.442 663.544 307.183C663.135 307.916 662.931 308.764 662.931 309.727V322H659.914ZM699.436 322.409C697.544 322.409 695.912 321.991 694.539 321.156C693.176 320.312 692.123 319.136 691.382 317.628C690.649 316.111 690.282 314.347 690.282 312.335C690.282 310.324 690.649 308.551 691.382 307.017C692.123 305.474 693.154 304.273 694.475 303.412C695.805 302.543 697.356 302.108 699.129 302.108C700.152 302.108 701.162 302.278 702.159 302.619C703.156 302.96 704.064 303.514 704.882 304.281C705.7 305.04 706.352 306.045 706.838 307.298C707.324 308.551 707.566 310.094 707.566 311.926V313.205H692.43V310.597H704.498C704.498 309.489 704.277 308.5 703.833 307.631C703.399 306.761 702.777 306.075 701.967 305.572C701.166 305.07 700.22 304.818 699.129 304.818C697.927 304.818 696.887 305.116 696.01 305.713C695.14 306.301 694.471 307.068 694.002 308.014C693.534 308.96 693.299 309.974 693.299 311.057V312.795C693.299 314.278 693.555 315.536 694.066 316.567C694.586 317.589 695.306 318.369 696.227 318.906C697.147 319.435 698.217 319.699 699.436 319.699C700.228 319.699 700.944 319.588 701.583 319.366C702.231 319.136 702.789 318.795 703.258 318.344C703.727 317.884 704.089 317.312 704.345 316.631L707.26 317.449C706.953 318.438 706.437 319.307 705.713 320.057C704.988 320.798 704.093 321.378 703.028 321.795C701.963 322.205 700.765 322.409 699.436 322.409Z" fill="black"/>
</svg>
