<svg xmlns="http://www.w3.org/2000/svg" xmlns:xlink="http://www.w3.org/1999/xlink" width="390" height="844" viewBox="0 0 390 844">
  <defs>
    <filter id="Path_1401" x="97" y="393" width="195.782" height="63.978" filterUnits="userSpaceOnUse">
      <feOffset dy="3" input="SourceAlpha"/>
      <feGaussianBlur stdDeviation="3" result="blur"/>
      <feFlood flood-opacity="0.161"/>
      <feComposite operator="in" in2="blur"/>
      <feComposite in="SourceGraphic"/>
    </filter>
    <clipPath id="clip-LOADING_SCREEN_-_THEME_TAN_">
      <rect width="390" height="844"/>
    </clipPath>
  </defs>
  <g id="LOADING_SCREEN_-_THEME_TAN_" data-name="LOADING SCREEN - THEME TAN " clip-path="url(#clip-LOADING_SCREEN_-_THEME_TAN_)">
    <rect width="390" height="844" fill="#ebd6b5"/>
    <g id="Rectangle_546" data-name="Rectangle 546" fill="#ebd6b5" stroke="#3edcd8" stroke-width="6">
      <rect width="390" height="844" stroke="none"/>
      <rect x="3" y="3" width="384" height="838" fill="none"/>
    </g>
    <g transform="matrix(1, 0, 0, 1, 0, 0)" filter="url(#Path_1401)">
      <path id="Path_1401-2" data-name="Path 1401" d="M20.145,15.065c-.639,0-1.086.192-1.086,1.469v6.386c0,.7.128,1.149.83,1.149a4.951,4.951,0,0,0,.575.064c.894,0,1.149,1.469,1.149,2.874V58.552c0,1.4.128,1.6,2.043,1.6h5.492c6.641,0,11.622,0,11.622-7.6V43.1c0-1.66-1.213-6.194-4.789-6.194l.064-.192c3.384,0,3.448-5.364,3.448-10.6,0-6.705-.575-11.047-7.024-11.047Zm10.728,6.45c2.3,0,2.937.383,2.937,4.917V30.9c0,2.3-.894,2.49-3.512,2.49-1.788,0-3.385,0-3.385-1.469,0-5.045.128-10.409.128-10.409Zm-.639,18.263c3.9,0,4.151.383,4.151,4.534V46.8c0,6.45-.511,7.024-4.853,7.024-2.107,0-2.107-.128-2.107-.83V39.778Zm14.56-25.032c-1.852,0-1.98.128-1.98,1.66v6c0,1.66.383,1.66,1.66,1.66h.766v33.4c0,1.086.383,1.724.958,1.724h3.384c1.213,0,1.4-.255,1.4-1.788V38.309h1.788c1.6,0,3.257.319,3.257,2.363V56.508c0,2.554,2.235,3.959,6.067,3.959H79.6c1.469,0,1.469-.319,1.469-2.043V53.443c0-.383-.447-.511-1.533-.511H63.377c-1.469,0-1.788-.128-1.852-2.427v-6.9a17.183,17.183,0,0,0-.383-3.448A8.277,8.277,0,0,0,58.588,35.5l-.064-.064c0-.128.128-.192.255-.192,2.235,0,4.981-2.3,4.981-5.747V20.748c0-2.937-.192-6-12.963-6ZM79.917,33.264v-3c0-1.341,0-1.341-1.341-1.341H74.233c-.447,0-1.341-.064-1.341-.766v-4.6c0-.7.447-1.086.766-1.086h6.514c.7,0,.83-.319.83-1.66V16.661c0-1.341,0-1.4-2.49-1.4H68.294c-1.149,0-1.149.447-1.149,1.852V48.4c0,1.4,0,1.533,1.213,1.533H79.789c.639,0,.83-.192.83-1.022V43.928c0-1.4-.064-1.469-1.341-1.469H74.425a.892.892,0,0,1-.83-.83V36.074c0-.7.447-.766,1.022-.766h3.959A2.559,2.559,0,0,0,79.917,33.264ZM53.16,20.365c4.151,0,4.215.319,4.215,6,0,5.3-.575,5.556-4.151,5.556h-3V20.365ZM100.351,58.68c.128.894.766.958,1.277.958h7.535c.958,0,1.022-.064,1.022-.894l1.086-41.7c0-1.724,0-2.3-1.469-2.3h-3.448c-1.341,0-1.4.319-1.469,1.98L103.8,45.014s.128,1.086-.511,1.086c-.511,0-.7-1.086-.7-1.277L98.563,18.449c-.128-.7-.255-.766-.958-.766H95.753c-1.022,0-1.149.255-1.277,1.277,0,0-1.788,14.3-3.321,22.989-.064.511-.319.958-.83.958-.447,0-.575-.511-.575-.958l-1.277-25.8c-.064-1.277,0-1.66-1.086-1.66H84.77c-1.149,0-1.149.447-1.149,1.788L84.9,56.636c.064,1.66,0,2.107,1.469,2.107h2.746c4.151,0,4.215,0,4.215-.319L96.073,36.9c0-.511.255-1.022.575-1.022.447,0,.766.383.894,1.4Zm14.177-43.615c-.639,0-1.086.192-1.086,1.469v6.386c0,.7.128,1.149.83,1.149a4.951,4.951,0,0,0,.575.064c.894,0,1.149,1.469,1.149,2.874V58.552c0,1.4.128,1.6,2.043,1.6h5.492c6.641,0,11.622,0,11.622-7.6V43.1c0-1.66-1.213-6.194-4.789-6.194l.064-.192c3.385,0,3.448-5.364,3.448-10.6,0-6.705-.575-11.047-7.024-11.047Zm10.728,6.45c2.3,0,2.938.383,2.938,4.917V30.9c0,2.3-.894,2.49-3.512,2.49-1.788,0-3.385,0-3.385-1.469,0-5.045.128-10.409.128-10.409Zm-.639,18.263c3.9,0,4.151.383,4.151,4.534V46.8c0,6.45-.511,7.024-4.853,7.024-2.107,0-2.107-.128-2.107-.83V39.778Zm14.177-24.33V57.594c0,1.98.128,2.171,1.277,2.171h13.857c1.852,0,1.916-.064,1.916-1.341V52.549c0-.83-.064-1.022-2.043-1.022h-6c-2.235,0-2.363-.766-2.363-2.235V16.023c0-1.213-.128-1.277-1.4-1.277h-4.087C139.05,14.745,138.794,14.873,138.794,15.448Zm12.452-.639c-1.149,0-1.724.064-1.724.958v4.725c0,.383.064.766.511.766h5.3c.383,0,.511-.064.511-.639V17.108c0-1.469,0-2.3-1.213-2.3Zm-1.533,32.5c0,.7,0,1.341.639,1.341h4.6c.766,0,.766-.575.766-1.469V24.963c0-1.022,0-1.4-1.022-1.4h-4.023c-.894,0-.958.192-.958,1.213Zm10.856-32.12c-1.022,0-1.086.064-1.086.958v6.258c0,.83.128,1.086.7,1.086h3.448c.7,0,1.149.064,1.149,1.533V58.935c0,1.022,0,1.469.83,1.469H169.7c1.086,0,1.086,0,1.086-1.086V22.983c0-.766.255-.766,1.149-.766H175.7c.766,0,.83-.064.83-.958V15.831c0-.639-.128-.639-.83-.639Zm36.272,8.365V16.6c0-1.277-.255-1.533-2.171-1.533H181.707c-1.98,0-2.107,0-2.107,1.66v4.789c0,2.043.383,2.235,1.469,2.235h9.451L179.664,52.613v5.428c0,2.043,0,2.235,1.149,2.235h14.432c1.149,0,1.6-.192,1.6-1.4V52.8c-.064-.894-.255-1.022-1.66-1.022h-7.6c-.575,0-.766-.255-.766-.7a5.932,5.932,0,0,1,.447-1.852Z" transform="translate(86.94 384.51)" fill="#43331b"/>
    </g>
  </g>
</svg>
