<svg xmlns="http://www.w3.org/2000/svg" xmlns:xlink="http://www.w3.org/1999/xlink" width="269" height="844" viewBox="0 0 269 844">
  <defs>
    <filter id="Path_1385" x="-9" y="0" width="250" height="863" filterUnits="userSpaceOnUse">
      <feOffset dy="10" input="SourceAlpha"/>
      <feGaussianBlur stdDeviation="3" result="blur"/>
      <feFlood flood-opacity="0.161"/>
      <feComposite operator="in" in2="blur"/>
      <feComposite in="SourceGraphic"/>
    </filter>
    <radialGradient id="radial-gradient" cx="0.323" cy="0.581" r="1.274" gradientTransform="matrix(0.534, 0.846, -0.18, 0.114, 0.256, 0.242)" gradientUnits="objectBoundingBox">
      <stop offset="0" stop-color="#74592f"/>
      <stop offset="1" stop-color="#d59636"/>
    </radialGradient>
    <filter id="Path_1087" x="47.453" y="14.11" width="136.547" height="49.4" filterUnits="userSpaceOnUse">
      <feOffset dy="3" input="SourceAlpha"/>
      <feGaussianBlur stdDeviation="3" result="blur-2"/>
      <feFlood flood-opacity="0.161"/>
      <feComposite operator="in" in2="blur-2"/>
      <feComposite in="SourceGraphic"/>
    </filter>
    <clipPath id="clip-path">
      <rect id="Rectangle_174" data-name="Rectangle 174" width="170.486" height="92.3" transform="translate(17.577 135.499)" fill="none"/>
    </clipPath>
    <clipPath id="clip-Menu_5">
      <rect width="269" height="844"/>
    </clipPath>
  </defs>
  <g id="Menu_5" data-name="Menu – 5" clip-path="url(#clip-Menu_5)">
    <g transform="matrix(1, 0, 0, 1, 0, 0)" filter="url(#Path_1385)">
      <g id="Path_1385-2" data-name="Path 1385" fill="#ebd6b5">
        <path d="M 229 841 L 3 841 L 3 3 L 229 3 L 229 591.2264404296875 L 229 841 Z" stroke="none"/>
        <path d="M 6 6 L 6 838 L 226 838 L 226 6 L 6 6 M 0 0 L 232 0 L 232 844 L 0 844 L 0 0 Z" stroke="none" fill="#3edcd8"/>
      </g>
    </g>
    <g transform="matrix(1, 0, 0, 1, 0, 0)" filter="url(#Path_1087)">
      <path id="Path_1087-2" data-name="Path 1087" d="M19.777,14.87c-.422,0-.718.127-.718.971v4.222c0,.464.084.76.549.76a3.274,3.274,0,0,0,.38.042c.591,0,.76.971.76,1.9V43.623c0,.929.084,1.056,1.351,1.056h3.631c4.391,0,7.684,0,7.684-5.024V33.406c0-1.1-.8-4.1-3.167-4.1l.042-.127c2.238,0,2.28-3.547,2.28-7.009,0-4.433-.38-7.3-4.644-7.3Zm7.093,4.264c1.52,0,1.942.253,1.942,3.251v2.956c0,1.52-.591,1.647-2.322,1.647-1.182,0-2.238,0-2.238-.971,0-3.336.084-6.882.084-6.882ZM26.448,31.21c2.576,0,2.744.253,2.744,3v1.647c0,4.264-.338,4.644-3.209,4.644-1.393,0-1.393-.084-1.393-.549V31.21Zm9.627-16.551c-1.224,0-1.309.084-1.309,1.1v3.969c0,1.1.253,1.1,1.1,1.1h.507V42.906c0,.718.253,1.14.633,1.14h2.238c.8,0,.929-.169.929-1.182V30.239h1.182c1.056,0,2.153.211,2.153,1.562V42.272c0,1.689,1.478,2.618,4.011,2.618H59.086c.971,0,.971-.211.971-1.351V40.246c0-.253-.3-.338-1.013-.338H48.362c-.971,0-1.182-.084-1.224-1.6v-4.56a11.361,11.361,0,0,0-.253-2.28A5.473,5.473,0,0,0,45.2,28.381l-.042-.042c0-.084.084-.127.169-.127a3.689,3.689,0,0,0,3.293-3.8V18.628c0-1.942-.127-3.969-8.571-3.969ZM59.3,26.9V24.919c0-.887,0-.887-.887-.887H55.54c-.3,0-.887-.042-.887-.507v-3.04c0-.464.3-.718.507-.718h4.307c.464,0,.549-.211.549-1.1V15.926c0-.887,0-.929-1.647-.929H51.613c-.76,0-.76.3-.76,1.224V36.91c0,.929,0,1.013.8,1.013h7.558c.422,0,.549-.127.549-.676V33.955c0-.929-.042-.971-.887-.971H55.666a.59.59,0,0,1-.549-.549V28.761c0-.464.3-.507.676-.507h2.618C59.3,28.255,59.3,27.79,59.3,26.9ZM41.606,18.374c2.744,0,2.787.211,2.787,3.969,0,3.5-.38,3.673-2.744,3.673H39.664V18.374Zm31.2,25.333c.084.591.507.633.844.633h4.982c.633,0,.676-.042.676-.591l.718-27.571c0-1.14,0-1.52-.971-1.52h-2.28c-.887,0-.929.211-.971,1.309l-.718,18.7s.084.718-.338.718c-.338,0-.464-.718-.464-.844l-2.66-17.438c-.084-.464-.169-.507-.633-.507H69.769c-.676,0-.76.169-.844.844,0,0-1.182,9.458-2.2,15.2-.042.338-.211.633-.549.633-.3,0-.38-.338-.38-.633l-.844-17.058c-.042-.844,0-1.1-.718-1.1H62.506c-.76,0-.76.3-.76,1.182l.844,26.685c.042,1.1,0,1.393.971,1.393h1.816c2.744,0,2.787,0,2.787-.211L69.98,29.31c0-.338.169-.676.38-.676.3,0,.507.253.591.929ZM82.182,14.87c-.422,0-.718.127-.718.971v4.222c0,.464.084.76.549.76a3.274,3.274,0,0,0,.38.042c.591,0,.76.971.76,1.9V43.623c0,.929.084,1.056,1.351,1.056h3.631c4.391,0,7.684,0,7.684-5.024V33.406c0-1.1-.8-4.1-3.167-4.1l.042-.127c2.238,0,2.28-3.547,2.28-7.009,0-4.433-.38-7.3-4.644-7.3Zm7.093,4.264c1.52,0,1.942.253,1.942,3.251v2.956c0,1.52-.591,1.647-2.322,1.647-1.182,0-2.238,0-2.238-.971,0-3.336.084-6.882.084-6.882ZM88.853,31.21c2.576,0,2.744.253,2.744,3v1.647c0,4.264-.338,4.644-3.209,4.644C87,40.5,87,40.415,87,39.95V31.21Zm9.373-16.087V42.99c0,1.309.084,1.436.844,1.436h9.162c1.224,0,1.267-.042,1.267-.887V39.655c0-.549-.042-.676-1.351-.676H104.18c-1.478,0-1.562-.507-1.562-1.478v-22c0-.8-.084-.844-.929-.844h-2.7C98.4,14.659,98.227,14.743,98.227,15.123Zm8.233-.422c-.76,0-1.14.042-1.14.633v3.124c0,.253.042.507.338.507h3.5c.253,0,.338-.042.338-.422V16.221c0-.971,0-1.52-.8-1.52Zm-1.013,21.491c0,.464,0,.887.422.887h3.04c.507,0,.507-.38.507-.971V21.414c0-.676,0-.929-.676-.929h-2.66c-.591,0-.633.127-.633.8Zm7.178-21.238c-.676,0-.718.042-.718.633v4.138c0,.549.084.718.464.718h2.28c.464,0,.76.042.76,1.013v22.42c0,.676,0,.971.549.971h2.7c.718,0,.718,0,.718-.718V20.106c0-.507.169-.507.76-.507h2.491c.507,0,.549-.042.549-.633V15.377c0-.422-.084-.422-.549-.422Zm23.982,5.531v-4.6c0-.844-.169-1.013-1.436-1.013H126.6c-1.309,0-1.393,0-1.393,1.1v3.167c0,1.351.253,1.478.971,1.478h6.249L125.249,39.7v3.589c0,1.351,0,1.478.76,1.478h9.542c.76,0,1.056-.127,1.056-.929V39.823c-.042-.591-.169-.676-1.1-.676h-5.024c-.38,0-.507-.169-.507-.464a3.922,3.922,0,0,1,.3-1.224Z" transform="translate(37.89 6.12)" stroke="#32b3af" stroke-width="1" fill="url(#radial-gradient)"/>
    </g>
    <g id="Cup_9" data-name="Cup #9" transform="translate(116.031 709.899)" opacity="0.85">
      <g id="Group_189" data-name="Group 189" transform="translate(-94.031 -113.9)">
        <g id="Group_188" data-name="Group 188" transform="translate(0 0)">
          <g id="Coffee_Cup" data-name="Coffee Cup">
            <g id="Group_187" data-name="Group 187">
              <g id="Group_186" data-name="Group 186" clip-path="url(#clip-path)">
                <g id="Group_185" data-name="Group 185">
                  <g id="Group_184" data-name="Group 184" clip-path="url(#clip-path)">
                    <path id="Path_1332" data-name="Path 1332" d="M185.516,193.32c-.06-.029-.119-.053-.178-.077a5.838,5.838,0,0,0-.474-.613,6.629,6.629,0,0,0-1.126-.947,11.269,11.269,0,0,0-1.429-1.512,17.981,17.981,0,0,0-3.11-2.591,36.994,36.994,0,0,0-6.684-3.251,33.643,33.643,0,0,0-4.234-1.488,14.861,14.861,0,0,0,5.645-5.671l.015-.034a20.176,20.176,0,0,0,9.164-20.913,1.819,1.819,0,0,0-1.175-1.363,22.7,22.7,0,0,0-1.056-3.295,2.59,2.59,0,0,0-1.107-1.31c-2.463-3.046-6.816-3.8-10.772-2.925a31.737,31.737,0,0,0-12.678,6.438c.071-.733.121-1.464.139-2.191a.864.864,0,0,0-.59-.884c.018-.017.037-.033.055-.051.9-.888-.487-2.273-1.385-1.386-1.608,1.589-3.916,2.305-6.019,3.206a.888.888,0,0,0-.755-.13q-8.677,2.4-17.507,4.15a1.039,1.039,0,0,0-1.138-.654,308.151,308.151,0,0,1-32.136,3.383c-5.312.278-10.648.5-15.965.256-5.236-.239-10.441-.883-15.639-1.525a.84.84,0,0,0-.554.1,46.34,46.34,0,0,1-9.815-2.285,40.652,40.652,0,0,0-5.224-2.4l-.033-.01c-.423-.239-.846-.486-1.265-.747-.014-.027-.028-.052-.041-.079a.985.985,0,0,0-.154-.226c.007-.053.013-.107.02-.16.172-1.234-1.716-1.767-1.889-.521a34.588,34.588,0,0,0-.057,8.624,1.026,1.026,0,0,0-.84,1.2c.475,2.533.226,5.042,1.117,7.512a29.736,29.736,0,0,0,2.742,5.375,39.794,39.794,0,0,0,2.971,7.574,1.944,1.944,0,0,0-1.257.03q-5.793,1.938-11.481,4.161a2.4,2.4,0,0,0-.449.051c-6.977,1.46-14.112,3.2-19.494,8.171a1.886,1.886,0,0,0-.17,2.709,2.18,2.18,0,0,0-.429,3.273,22.38,22.38,0,0,0,11.665,6.9,1.79,1.79,0,0,0,1.525,1.937c5.9,1.326,11.809,2.639,17.769,3.661a2.309,2.309,0,0,0,.468,2.83,2.137,2.137,0,0,0,.6,1.481l3.076,3.222a2.174,2.174,0,0,0,2.626.307c.994.627,1.967,1.29,2.894,2.009a2.3,2.3,0,0,0,2.569.333q8.966,1.886,18.032,3.229a2.287,2.287,0,0,0,2.367-.947,77.753,77.753,0,0,0,10.292.745c1.977.113,3.961.147,5.927.215a115.838,115.838,0,0,0,17.675-.481q3.76-.051,7.517-.182c1.212-.044,2.414-.121,3.6-.254a28.5,28.5,0,0,0,7.614-.615,1.929,1.929,0,0,0,1.158-.731,20.185,20.185,0,0,0,4.269-.9q.923-.171,1.836-.374a16.086,16.086,0,0,0,7.387-2.195q2.041-.768,4.034-1.7a1.72,1.72,0,0,0,1.066-1.914,8.4,8.4,0,0,0,3.5-5.168,2.261,2.261,0,0,0,.016-.784,65.555,65.555,0,0,0,7.28-2.476q1.819-.624,3.6-1.408a39.753,39.753,0,0,0,7.39-1.727,24.061,24.061,0,0,0,6.114-3.056c.2-.087.4-.169.591-.258,1.726-.787,3.434-1.934,3.958-3.871a4.134,4.134,0,0,0-1.986-4.81M53.573,184.711a2.221,2.221,0,0,0,.1-.392c.052.088.107.174.159.263l-.255.129m5.671,10.413-.02-.021a49.654,49.654,0,0,1-3.3-6.17,1.635,1.635,0,0,0,.024-.656c.061-.037.123-.071.182-.108.381.547.767,1.091,1.163,1.626a52.326,52.326,0,0,0,5.459,6.456q-1.748-.594-3.512-1.127m14.783,22.811a65.035,65.035,0,0,1-10.205-2.174,142.131,142.131,0,0,0,16.6,2.579,60.364,60.364,0,0,1-6.394-.4m56.335-14.8a.892.892,0,0,0,.467-.73c.4-.219.792-.45,1.182-.688q-1.463,1.377-2.868,2.815a2.177,2.177,0,0,0-1.741.254q1.5-.8,2.96-1.651m-2.964,1.653a2.9,2.9,0,0,0-.33.227q-.323.255-.651.495c-.364.115-.727.233-1.092.345q1.046-.518,2.073-1.067m23.1-14.26c-1.857.56-3.7,1.157-5.515,1.85a2.518,2.518,0,0,0-2.341-.491,2.29,2.29,0,0,0-.356.121c.348-.479.688-.963,1.015-1.454a1.816,1.816,0,0,0,1.693.78,30.307,30.307,0,0,0,5.76-.908l-.256.1m-4.934-3.769q.3-.564.582-1.133a1.94,1.94,0,0,0,.692-.027q2.031-.468,4.04-1.01-2.605,1.2-5.314,2.17m15.379-6.859a1.857,1.857,0,0,0-1.8.189l-.085.053a2.369,2.369,0,0,0-1.97-1.442l-2.553-.215a1.885,1.885,0,0,0-1.933-1.334l-2.894.255q1.685-4.312,3.054-8.737c.718-2.331,1.473-4.754,2.113-7.213a2.141,2.141,0,0,0,.812-.35l3.624-2.488a2.165,2.165,0,0,0,.761-.886q2.021-1.646,3.95-3.4a2.03,2.03,0,0,0,.585-.877,28.042,28.042,0,0,1,3.253-1.374c2.827-.979,7.9-1.918,9.212,1.848a2.237,2.237,0,0,0,.394.706,20.587,20.587,0,0,1,.8,4.17,25.357,25.357,0,0,0-.166,3.246c0,.5-.036.988-.085,1.473-4.965,6.185-11.427,10.86-17.067,16.377" fill="#d59636"/>
                    <path id="Path_1333" data-name="Path 1333" d="M147.575,189.713a1.588,1.588,0,0,0-1.447,1.048,1.689,1.689,0,0,0-.5.225c-.282.184-.562.372-.841.559a1.7,1.7,0,0,0-2.119.1A40.3,40.3,0,0,0,138,196.443c-.019.006-.038.012-.058.02.6-.988,1.27-1.942,1.924-2.909.033-.053.067-.1.1-.159a4.191,4.191,0,0,0-.764.594,6.418,6.418,0,0,0-1.523,2.62,1.65,1.65,0,0,0-.342.334,34.866,34.866,0,0,1-4.979,5.217,1.71,1.71,0,0,0-.448.053,1.673,1.673,0,0,0-.977.751,1.648,1.648,0,0,0-.164,1.258,1.9,1.9,0,0,0,.75.976c-.09-.068-.283-.228-.085-.061.046.038.091.078.135.118q.166.15.318.315c.04.044.079.089.118.134.022.025.037.043.05.056a2.941,2.941,0,0,1-.645.97,1.446,1.446,0,0,0-.353,1.722,1.383,1.383,0,0,0-.887.456,8.463,8.463,0,0,1-.688.7c-.1.094-.212.184-.32.274l-.209.149a1.951,1.951,0,0,0-.686.846,1.655,1.655,0,0,0-.343.221,1.449,1.449,0,0,0-.484.455l-.08.078a1.227,1.227,0,0,0-.338.526,1.213,1.213,0,0,0-.137.493c-.237.082-.473.162-.711.238a6.15,6.15,0,0,1-1.212-.008,1.456,1.456,0,0,0-1.3.665,64.017,64.017,0,0,1-7.7.979,171.253,171.253,0,0,1-28.708.106,61.365,61.365,0,0,1-6.954-.9,27.316,27.316,0,0,1-3.353-.8,1.522,1.522,0,0,0-.39-1.62l-1.658-1.45a1.886,1.886,0,0,0-.473-.3,1.556,1.556,0,0,1-.043-.64c.145-.9,1.156-1.414,1.535-2.2.759-1.579-.417-2.533-1.787-2.974a47.9,47.9,0,0,1-6.513-2.621c-1.453-.851-2.916-1.685-4.4-2.486-.023-.012-.046-.022-.07-.033a5.958,5.958,0,0,0-2.94-3.093,4.255,4.255,0,0,0-1.089-.231c.522-1.183-.318-2.859-1.8-2.26a70.392,70.392,0,0,0-6.741,3.114c-1.767.942-3.91,1.946-4.807,3.863-2.33,4.977,5.719,5.947,8.677,6.569q3.953.833,7.958,1.373c2.038.278,4.4.424,6.155,1.609,1.8,1.217,2.422,3.557,4.209,4.874a15.894,15.894,0,0,0,6.354,2.4,95.941,95.941,0,0,0,16.07,1.528q8.469.282,16.938-.265c4.727-.306,9.923-.411,14.522-1.812a1.745,1.745,0,0,0,2.684.586,24.423,24.423,0,0,0,5.337-6.371c.716-1.245,1.1-2.406,2.31-3.249.895-.621,1.83-1.194,2.764-1.765a1.588,1.588,0,0,0,.678-.106c2.5-.936,5-1.877,7.415-3.023,2.115-1,4.738-2.175,6.132-4.148,3.02-4.274-2.168-8.726-6.4-8.483" fill="#a6752a"/>
                    <path id="Path_1334" data-name="Path 1334" d="M152.873,155.738c-5.948,3.141-12.473,4.86-19.054,6.087-6.989,1.3-14.065,2.259-21.127,3.057-14.211,1.607-28.72,2.209-42.884-.161a90.859,90.859,0,0,1-22.4-6.622c-2.471-1.115-4.632,2.543-2.142,3.666,27.31,12.323,58.364,9.477,87.091,4.614,7.836-1.327,15.59-3.242,22.659-6.975,2.417-1.276.274-4.942-2.143-3.666" fill="#3edcd8"/>
                    <path id="Path_1335" data-name="Path 1335" d="M155.166,149.867a163.982,163.982,0,0,1-18.525,5.231,1.413,1.413,0,0,0-1.239-.526,13.074,13.074,0,0,0-3.13.815,7.663,7.663,0,0,1-2.012.3,2.261,2.261,0,0,0-1.7-.885l-2.023-.145a2.129,2.129,0,0,0-2.021,1.463,10.906,10.906,0,0,1-3.316.725,61.512,61.512,0,0,0-9.265.578,1.765,1.765,0,0,0-1.211.685,1.793,1.793,0,0,0-1.6-.633c-2.7.188-5.378.466-8.056.812a2.042,2.042,0,0,0-.978-.168q-4.438.264-8.87.611a1.716,1.716,0,0,0-1.658-.673,33.133,33.133,0,0,1-8.879-.248A2.207,2.207,0,0,0,78.3,159.04c-2.615-.252-5.216-.581-7.791-1.007a63.928,63.928,0,0,1-20.963-6.983c-.008-.054-.013-.1-.023-.162a1.278,1.278,0,0,0-.052-.193,3.2,3.2,0,0,0-.3-.662,2.241,2.241,0,0,0-1.268-.976,1.617,1.617,0,0,0-.847-.038,1.579,1.579,0,0,0-.789.252,2.137,2.137,0,0,0-.976,1.269,2.326,2.326,0,0,0,.052,1.307,2.108,2.108,0,0,0,.28,1.006,1.581,1.581,0,0,0,.336.418c.012.014.021.029.034.043l.014.015a1.757,1.757,0,0,0,.239.207,1.973,1.973,0,0,0,.925,1.054c12.151,6.892,26.247,8.743,40.005,9.122a212.983,212.983,0,0,0,44.495-3.262,167.136,167.136,0,0,0,24.623-6.488c2.564-.893,1.461-5-1.129-4.1" fill="#594424"/>
                    <path id="Path_1336" data-name="Path 1336" d="M68.063,155.614c-.467-4.348-2.739-8.46-2.519-12.866.086-1.729-1.837-2.483-3.194-1.833l-5.795,2.775a18.21,18.21,0,0,0-4.738,2.641,5.418,5.418,0,0,0-.664.742,2.037,2.037,0,0,0-1.93.64,2.348,2.348,0,0,0-.889.281,2.123,2.123,0,0,0-.762,2.9,2.3,2.3,0,0,0,1,.858l-.027-.011a5.1,5.1,0,0,1,.756.427c.1.089.209.175.306.273a2.2,2.2,0,0,0,1.975.566c.6.512,1.222,1.008,1.866,1.479.114.086.228.17.344.251a1.756,1.756,0,0,0,2.435-.237l.571.177.016.008a24.609,24.609,0,0,0,6.684,1.968,6.6,6.6,0,0,1,1.37.79,2.133,2.133,0,0,0,3.2-1.834" fill="#32b3af"/>
                    <path id="Path_1337" data-name="Path 1337" d="M154.76,144.174a25.8,25.8,0,0,0-5.7-4.847,9.642,9.642,0,0,0-6.9-1.057,14.316,14.316,0,0,0-2.924.8c-.089-2.319-3.71-3.172-4.125-.646-.407,2.476-1.637,4.707-2.081,7.173a13.141,13.141,0,0,0-.023,5.838c-1.719.863-1.4,4.029.962,4.029a1.939,1.939,0,0,0,1.953-1.448,15.8,15.8,0,0,0,4.6-.321c2.508-.34,5.03-.731,7.5-1.269,3.536-.769,10.848-3.711,6.732-8.25" fill="#32b3af"/>
                    <path id="Path_1338" data-name="Path 1338" d="M133.866,137.737c-5.683-.637-11.373-.134-17.07-.1-5.415.035-10.807-.774-16.221-.6-2.876.09-5.727.459-8.582.813a1.909,1.909,0,0,0-1.265-.321l-10.307.7c-3.307.225-6.67.3-9.949.811a10.884,10.884,0,0,0-2.959.839,1.952,1.952,0,0,0-.942-.2,2.127,2.127,0,0,0-2.508,2.6c.789,2.92,1.688,5.807,2.72,8.651.843,2.322,1.535,5.415,3.841,6.733s5.524,1.2,8.107,1.291c3.22.11,6.442.214,9.665.207a93.228,93.228,0,0,0,9.641-.464c3.033-.322,6.033-.766,9.089-.83a125.222,125.222,0,0,0,18.745-1.341c3.181-.545,5.984-1.068,6.951-4.564a71.448,71.448,0,0,0,1.724-10.011c2-.421,1.762-3.946-.68-4.22" fill="#3edcd8"/>
                    <path id="Path_1339" data-name="Path 1339" d="M183.8,189.328a36.365,36.365,0,0,0-14.231-7.5,45.229,45.229,0,0,0,9.212-7.975c4.1-4.7,7.037-10.054,5.625-16.443a19.641,19.641,0,0,0-3.871-7.975,9.138,9.138,0,0,0-7.45-3.476c-5.369-.086-11.319,1.191-15.516,4.709a28.341,28.341,0,0,0-.262-3.009,4.438,4.438,0,0,0,.169-1.181c.048-3.275-2.952-5.448-5.627-6.686a32.488,32.488,0,0,0-9.665-2.393c-16.561-2.1-33.335-2.128-50-1.637-16.342.482-34.683,1.316-46.9,13.734a.9.9,0,0,0-.2,1.028.926.926,0,0,0-.238.439c-2.333,9.547.969,19.135,4.656,27.881q.416.987.855,1.972c-5.76,1.762-11.52,3.531-17.216,5.491-4.575,1.575-10.356,2.959-13.626,6.811-3.139,3.7-2.342,8.506,1.419,11.415a24.927,24.927,0,0,0,7.17,3.364q4.09,1.437,8.244,2.69,5.806,1.752,11.712,3.143a1,1,0,0,0,.267.238c2.773,1.688,3.589,5.322,6.307,7.205,2.9,2.012,6.639,2.508,10.032,3.122a219.417,219.417,0,0,0,25.9,3.11,218.333,218.333,0,0,0,26.449-.012,174.628,174.628,0,0,0,25.607-3.14c7.507-1.6,15.312-5.29,17.976-13.018,4.677-1.168,9.31-2.5,13.855-4.12q3.653-1.3,7.2-2.865c2.011-.887,4.4-1.789,5.581-3.786,2.226-3.782-.456-8.681-3.437-11.135M157.553,153.4c3.39-3.645,8.388-5.053,13.254-5.4,3.051-.218,5.887-.064,8.011,2.412a17.463,17.463,0,0,1,3.7,7.52c1.359,6.186-2.1,11.384-6.179,15.7a48.867,48.867,0,0,1-12.933,9.564,98.689,98.689,0,0,1-19.181,7.185q1.423-2.1,2.666-4.3a57.515,57.515,0,0,0,25.732-15.2c3.64-3.741,7.167-7.821,6.516-13.371a7.271,7.271,0,0,0-9.251-7.044c-5.108.993-9.42,5.13-13.1,8.945a41.929,41.929,0,0,0,.768-6.013M148.2,183.652c.983-1.91,1.88-3.866,2.707-5.852a34.113,34.113,0,0,1,3.587.63,13.245,13.245,0,0,1,3.466,1.073,56,56,0,0,1-9.76,4.149m7.73-20.555a1.191,1.191,0,0,0,.142-.12,81.019,81.019,0,0,1,6.64-6.359c2.436-2,5.473-4.256,8.749-4.387,3.646-.146,5.479,2.5,5.777,5.847.311,3.5-1.356,6.142-3.541,8.713a54.847,54.847,0,0,1-13.855,11.646c-2.094-1.711-5.337-2.232-8.168-2.533q.523-1.343,1.008-2.7c1.156-3.232,2.334-6.635,3.248-10.108M137.2,138.8c1.576.158,3.151.33,4.723.528a28.4,28.4,0,0,1,9.668,2.517,7.8,7.8,0,0,1,3.587,3.084,2.413,2.413,0,0,1-1.38,3.7,13.006,13.006,0,0,1-1.887.691q-5.188,1.567-10.478,2.767-3.795.866-7.623,1.553a44.141,44.141,0,0,1,3.342-14.27.845.845,0,0,0,.048-.57m-52.186-.82a387.8,387.8,0,0,1,45.551.248q2.414.176,4.824.4a1.117,1.117,0,0,0-.127.223,45.733,45.733,0,0,0-3.425,14.986,1.05,1.05,0,0,0,.006.15,254.843,254.843,0,0,1-34.767,3.227,197.557,197.557,0,0,1-25.427-.356c-.674-.066-1.347-.141-2.019-.22a1.073,1.073,0,0,0-.048-.237c-.813-2.508-1.563-5.034-2.233-7.584-.661-2.517-1.544-5.188-1.435-7.812a.927.927,0,0,0-.116-.5,94.6,94.6,0,0,1,19.216-2.521m-21.06,3.032c-.106,2.607.7,5.212,1.346,7.712.662,2.569,1.408,5.115,2.217,7.641q-4.286-.594-8.513-1.536c-3.273-.731-7.725-1.315-9.695-4.385a.941.941,0,0,0-.554-.416l-.24-.87a40.321,40.321,0,0,1,15.439-8.146M48.23,169.97c-1.926-5.979-3-12.289-1.489-18.487a.95.95,0,0,0-.045-.622c.066-.065.133-.128.2-.194l.032.117a1.02,1.02,0,0,0,.716.689c1.612,2.475,4.3,3.579,7.058,4.325a99.777,99.777,0,0,0,12.045,2.424,154.3,154.3,0,0,0,24.427,1.09c16.205-.283,32.477-1.429,48.358-4.807q5.905-1.257,11.708-2.946a16.2,16.2,0,0,0,4.347-1.674c.06.916.069,1.835.04,2.755a.988.988,0,0,0-.047,1.017c-.36,5.6-2.168,11.2-3.887,16.417q-.942,2.86-2.051,5.669a.75.75,0,0,0-.293.128,2.737,2.737,0,0,1-.022.286l0,.017a2.516,2.516,0,0,1-.258.834c.009.027.016.055.027.082a75.081,75.081,0,0,1-3.493,7.316l-.3.079a1.038,1.038,0,0,0-.136.052,2.419,2.419,0,0,1-.507,1.159,1.231,1.231,0,0,0,.087.209c-.829,1.418-1.711,2.807-2.659,4.155A51.768,51.768,0,0,1,103.1,211.69,44.548,44.548,0,0,1,79.4,206.272c-3.51-3.406-8.361-4.588-12.466-7.1-4.962-3.032-8.7-7.679-11.557-12.674A87.777,87.777,0,0,1,48.23,169.97m80.7,39.229a10.6,10.6,0,0,1-2.948,1.755,29.668,29.668,0,0,1-5.816,1.534A97.037,97.037,0,0,1,104,214.09a123.206,123.206,0,0,1-15.6-.741,76.172,76.172,0,0,1-8-1.133,7.184,7.184,0,0,1-3.33-1.421c-.934-.839-1.634-2.8.074-3.314a1.06,1.06,0,0,0,.238-.107c.279.164.56.323.841.481.061.062.126.119.186.182a.88.88,0,0,0,.693.3c13.67,7.268,30.149,6.793,44.029.12a55.559,55.559,0,0,0,6.081-3.413.923.923,0,0,0,.788.446c2.168.077-.647,3.351-1.06,3.712M142.1,222.363a170.421,170.421,0,0,1-24.771,3.05,217.2,217.2,0,0,1-49.658-2.574c-3.741-.632-8.116-1-11.442-2.974-2.1-1.25-3.124-3.445-4.526-5.309a219.634,219.634,0,0,0,54.337,4.7,243.037,243.037,0,0,0,36.347-4.1,1.033,1.033,0,0,0,.3-.014c5.207-1.056,10.425-2.117,15.6-3.349-2.8,6.286-9.763,9.2-16.182,10.565M185.1,200.069a10.736,10.736,0,0,1-3.6,2.12q-2.208,1-4.468,1.882c-10.266,4.017-21.065,6.372-31.843,8.572a1.11,1.11,0,0,0-.16.016,235.08,235.08,0,0,1-65.311,4.062,208.206,208.206,0,0,1-32.751-5.27q-7.837-1.92-15.5-4.475c-4.156-1.389-12.538-3.322-12.007-9.184.535-5.9,9.123-7.831,13.621-9.391,5.989-2.077,12.049-3.935,18.11-5.788,3.349,7.11,7.751,13.875,14.529,18.113,3.207,2.006,6.979,3.125,10.122,5.208a3.535,3.535,0,0,0-1.686,3.472,5.305,5.305,0,0,0,3.344,3.94c2.477,1.132,5.435,1.287,8.1,1.631,2.9.372,5.8.659,8.715.845a111.013,111.013,0,0,0,18.087-.261c4.949-.5,10.416-.994,14.986-3.1,2.018-.929,4.149-2.489,4.986-4.634a3.084,3.084,0,0,0-1.29-4.058,51.857,51.857,0,0,0,10.75-10.118c.4-.508.79-1.024,1.172-1.544a.888.888,0,0,0,1.024.365c8.17-2.281,16.519-5.1,23.808-9.546a.816.816,0,0,0,.686.667,26.742,26.742,0,0,1,8.1,3.287,31.469,31.469,0,0,1,6.98,4.911c1.855,1.942,3.659,5.912,1.494,8.276"/>
                  </g>
                </g>
              </g>
            </g>
          </g>
          <path id="Path_1340" data-name="Path 1340" d="M148.884,149.406a.492.492,0,0,0-.131-.4,3.972,3.972,0,0,0-1.1-.863.487.487,0,0,0-.194-.284,21.032,21.032,0,0,0-8.607-3.132c-3.433-.611-6.9-1.073-10.356-1.5q-10.641-1.315-21.367-1.733a160.287,160.287,0,0,0-21.663.241c-6.969.677-13.642,2.7-20.275,4.855a41.944,41.944,0,0,0-5.1,1.872c-1.336.635-2.931,1.494-3.393,3.014a2.541,2.541,0,0,0,.2,2.017,2.842,2.842,0,0,0,1.746,1.125c.99.294,1.988.568,2.988.837a.365.365,0,0,0,.155.17,27.639,27.639,0,0,0,3.6,1.4,2.549,2.549,0,0,0,1.347.432l.213.006.015,0a.485.485,0,0,0,.23,0l7.357.217a2.154,2.154,0,0,0,.869.419,2.771,2.771,0,0,0,2.184-.468c3.556.849,7.173.192,10.763-.144.416.038.832.08,1.249.107,1.289.084,2.58.116,3.871.128a18.661,18.661,0,0,0,3.057-.136,26.808,26.808,0,0,0,5.018-.133,38.216,38.216,0,0,0,6.868-.592l3.888-.412q1.377-.121,2.751-.291l1.4-.147A149.946,149.946,0,0,0,131.7,154.1c.015,0,.025-.011.04-.014.17-.022.341-.039.511-.061a.917.917,0,0,0,.166-.037,9.915,9.915,0,0,0,1.441-.23l1-.213a.424.424,0,0,0,.335.014c.28-.1.566-.176.849-.266l3.348-.712a.469.469,0,0,0,.134.024,11.9,11.9,0,0,0,2.225-.387c.721-.157,1.441-.322,2.154-.512a22.9,22.9,0,0,0,2.413-.79c.423-.1.847-.194,1.267-.3s1.189-.168,1.368-.652A.627.627,0,0,0,148.884,149.406Z" fill="#74592f"/>
        </g>
        <path id="Path_1341" data-name="Path 1341" d="M101.4,98.134c-7.094-5.863-19.334-9.655-30.515-13.376L49.093,77.5c-6.509-2.166-13.194-4.244-19.446-6.591-6.213-2.333-12.223-5.224-14.651-9-2.126-3.3-1.678-7.217,3.368-9.827.2-.1.282-.215.3-.325.487-.34.907-.7,1.336-1.06s1.046-.767,1.156-1.2c.286-.136.44-.352.324-.53a1.478,1.478,0,0,0-1.328-.373,5.94,5.94,0,0,0-1.6.38c-.506.192-.993.4-1.48.6-.067.018-.138.032-.2.052-.254.075-.487.164-.719.255-.022.01-.027.025-.046.035a1.436,1.436,0,0,0-.228.04C5.54,53.644-.287,59.916.011,66.181c.16,3.365,2.176,6.574,5.767,9.426a69.539,69.539,0,0,0,14.9,8.507A141.664,141.664,0,0,0,59.248,94.352c6.912.884,14.432,1.34,20.5,3.345,6.708,2.217,9.216,6.282,10.065,10.068.956,4.261-.353,8.565-3.677,12.518-3.136,3.729-7.81,7.092-12.653,10.32l-.123.081-.218.079a6.919,6.919,0,0,1,1.467.866l.271-.178c10.275-3.779,20.133-8.057,26.126-13.723,3.314-3.133,5.434-6.626,5.554-10.178C106.669,104.228,104.848,100.981,101.4,98.134Z" transform="translate(0 0)" fill="#594424"/>
        <path id="Path_1342" data-name="Path 1342" d="M131.951,130.035c-4.66-6.988-9.393-14.107-16.049-22.594-6.146-7.837-13.587-16.447-21.077-25.016C87.544,74.1,80.106,65.677,73.344,57.592,66.621,49.553,59.98,41.185,57.163,35.986c-6.226-11.487,7.1-3.516,17.672,2.922,5.954,3.626,11.541,6.84,14.894,7.431,3.4.6,4.67-1.109,4.122-4.538C92.695,34.565,83.394,19.84,70.841,2.942c-.332-.447-.328-.571-.163-.518C69.918,1.2,69.584.336,69.814.016c.068-.1.567.239,1.109.756a8.613,8.613,0,0,1,1.323,1.535c.051.085.089.16.139.244C77.52,9.162,82.422,15.612,87.2,21.975c.488.612.928,1.2,1.321,1.761,1.33,1.778,2.711,3.591,4.01,5.346,5.776,7.8,11.228,15.377,14.692,21.366,6.118,10.578,6.532,16.236,1.614,16.173-2.555-.034-6.65-1.784-11.909-4.9-6.044-3.584-13.232-8.456-16.536-8.829-1.587-.179-2.1.832-.74,3.562a65.858,65.858,0,0,0,5.9,8.876c5.4,7.185,12.352,15.433,18.493,23.1,12.266,15.321,23.818,30.587,28.7,40.262.6,1.193,1.093,2.287,1.491,3.3C134.472,132.593,132.583,130.984,131.951,130.035Z" transform="translate(0 0)" fill="#594424"/>
      </g>
    </g>
    <text id="Settings" transform="translate(116.5 99)" fill="#43331b" stroke="#43331b" stroke-width="1" font-size="25" font-family="CormorantInfant-Light, Cormorant Infant" font-weight="300"><tspan x="-39.512" y="0">Settings</tspan></text>
    <text id="Subscription_1" data-name="Subscription #1" transform="translate(89 185)" fill="#43331b" stroke="#43331b" stroke-width="1" font-size="20" font-family="CormorantInfant-Light, Cormorant Infant" font-weight="300"><tspan x="-61.3" y="0">Subscription #1</tspan></text>
    <text id="Subscription_2" data-name="Subscription #2" transform="translate(90 214)" fill="#43331b" stroke="#43331b" stroke-width="1" font-size="20" font-family="CormorantInfant-Light, Cormorant Infant" font-weight="300"><tspan x="-61.88" y="0">Subscription #2</tspan></text>
    <text id="Push" transform="translate(47 300)" fill="#43331b" stroke="#43331b" stroke-width="1" font-size="20" font-family="CormorantInfant-Light, Cormorant Infant" font-weight="300"><tspan x="-18.64" y="0">Push</tspan></text>
    <text id="Text" transform="translate(45 332)" fill="#43331b" stroke="#43331b" stroke-width="1" font-size="20" font-family="CormorantInfant-Light, Cormorant Infant" font-weight="300"><tspan x="-17.33" y="0">Text</tspan></text>
    <text id="e-mail" transform="translate(53 364)" fill="#43331b" stroke="#43331b" stroke-width="1" font-size="20" font-family="CormorantInfant-Light, Cormorant Infant" font-weight="300"><tspan x="-25.09" y="0">e-mail</tspan></text>
    <g id="Component_17_7" data-name="Component 17 – 7" transform="translate(161 312)">
      <rect id="Rectangle_429" data-name="Rectangle 429" width="38" height="14" rx="7" transform="translate(14 7)" fill="#6e5939"/>
      <circle id="Ellipse_25" data-name="Ellipse 25" cx="14" cy="14" r="14" fill="#43331b"/>
    </g>
    <g id="Component_17_8" data-name="Component 17 – 8" transform="translate(161 280)">
      <rect id="Rectangle_429-2" data-name="Rectangle 429" width="38" height="14" rx="7" transform="translate(14 7)" fill="#6e5939"/>
      <circle id="Ellipse_25-2" data-name="Ellipse 25" cx="14" cy="14" r="14" fill="#43331b"/>
    </g>
    <g id="Component_17_10" data-name="Component 17 – 10" transform="translate(161 344)">
      <rect id="Rectangle_429-3" data-name="Rectangle 429" width="38" height="14" rx="7" transform="translate(14 7)" fill="#6e5939"/>
      <circle id="Ellipse_25-3" data-name="Ellipse 25" cx="14" cy="14" r="14" fill="#43331b"/>
    </g>
    <rect id="Rectangle_459" data-name="Rectangle 459" width="44" height="44" rx="5" transform="translate(18 428)"/>
    <rect id="Rectangle_460" data-name="Rectangle 460" width="44" height="44" rx="5" transform="translate(69 428)" fill="#fff"/>
    <rect id="Rectangle_461" data-name="Rectangle 461" width="44" height="44" rx="5" transform="translate(119 428)" fill="#3edcd8"/>
    <g id="Rectangle_463" data-name="Rectangle 463" transform="translate(169 428)" fill="#ebd6b5" stroke="#43331b" stroke-width="2">
      <rect width="44" height="44" rx="5" stroke="none"/>
      <rect x="1" y="1" width="42" height="42" rx="4" fill="none"/>
    </g>
    <g id="Component_122_9" data-name="Component 122 – 9" transform="translate(15 68)">
      <rect id="Rectangle_595" data-name="Rectangle 595" width="44" height="44" fill="none"/>
      <g id="Group_248" data-name="Group 248" transform="translate(-14 -83)">
        <line id="Line_56" data-name="Line 56" x2="22.675" transform="translate(24.5 105.058)" fill="none" stroke="#43331b" stroke-linecap="round" stroke-width="4"/>
        <line id="Line_57" data-name="Line 57" x2="7.558" y2="7.558" transform="translate(24.5 105.058)" fill="none" stroke="#43331b" stroke-linecap="round" stroke-width="4"/>
        <line id="Line_58" data-name="Line 58" y1="7.558" x2="7.558" transform="translate(24.5 97.5)" fill="none" stroke="#43331b" stroke-linecap="round" stroke-width="4"/>
      </g>
    </g>
    <text id="Subscriptions" transform="translate(94 148)" fill="#43331b" stroke="#43331b" stroke-width="1" font-size="25" font-family="CormorantInfant-Light, Cormorant Infant" font-weight="300" text-decoration="underline"><tspan x="-66.463" y="0">Subscriptions</tspan></text>
    <text id="Notifications" transform="translate(93 260)" fill="#43331b" stroke="#43331b" stroke-width="1" font-size="25" font-family="CormorantInfant-Light, Cormorant Infant" font-weight="300" text-decoration="underline"><tspan x="-65.238" y="0">Notifications</tspan></text>
    <text id="App_Theme" data-name="App Theme" transform="translate(85 408)" fill="#43331b" stroke="#43331b" stroke-width="1" font-size="25" font-family="CormorantInfant-Light, Cormorant Infant" font-weight="300" text-decoration="underline"><tspan x="-56.813" y="0">App Theme</tspan></text>
    <g id="Component_141_12" data-name="Component 141 – 12" transform="translate(22 482)">
      <g id="Rectangle_165" data-name="Rectangle 165" fill="rgba(255,180,65,0.9)" stroke="#43331b" stroke-width="1">
        <rect width="195" height="44" rx="10" stroke="none"/>
        <rect x="0.5" y="0.5" width="194" height="43" rx="9.5" fill="none"/>
      </g>
    </g>
    <text id="Contact_Privacy" data-name="Contact/Privacy" transform="translate(110 512)" fill="#43331b" stroke="#43331b" stroke-width="1" font-size="25" font-family="CormorantInfant-Light, Cormorant Infant" font-weight="300"><tspan x="-82.238" y="0">Contact/Privacy</tspan></text>
  </g>
</svg>
